<svg height="194.579" viewBox="0 0 150.089 194.579" width="150.089" xmlns="http://www.w3.org/2000/svg"><path d="m-3.228-3.42c1.272 0 2.172-1.044 2.172-2.832s-.9-2.8-2.172-2.8-2.16 1.02-2.16 2.8.888 2.832 2.16 2.832zm0-1c-.516 0-.912-.528-.912-1.836s.4-1.8.912-1.8.924.492.924 1.8-.408 1.84-.924 1.84zm.3 4.584h1.028l4.84-9.212h-1.04zm6.156 0c1.26.004 2.172-1.052 2.172-2.828s-.912-2.808-2.172-2.808-2.16 1.02-2.16 2.808.9 2.832 2.16 2.832zm0-1.008c-.516 0-.924-.516-.924-1.824s.408-1.812.924-1.812.924.5.924 1.812-.408 1.828-.924 1.828z" fill="#e76d2b" transform="translate(130 193)"/><path d="m-63.427-16.771-3.16-2.347 6.819-9.3q-.554.074-.942.111t-.628.037a8.021 8.021 0 0 1 -5.987-2.643 8.809 8.809 0 0 1 -2.513-6.32 9.168 9.168 0 0 1 2.79-6.727 9.177 9.177 0 0 1 6.727-2.809 9.465 9.465 0 0 1 6.782 2.772 8.7 8.7 0 0 1 2.883 6.5 12.49 12.49 0 0 1 -2.81 7.197zm-2.218-20.771a5.272 5.272 0 0 0 1.571 3.881 5.215 5.215 0 0 0 3.825 1.589 5.184 5.184 0 0 0 3.807-1.571 5.215 5.215 0 0 0 1.589-3.825 5.215 5.215 0 0 0 -1.589-3.825 5.206 5.206 0 0 0 -3.825-1.571 5.163 5.163 0 0 0 -3.788 1.571 5.13 5.13 0 0 0 -1.589 3.752zm29.583 15.742h10.626v4.047h-19.164l9.9-11.993q1.46-1.793 2.449-3.1a23.6 23.6 0 0 0 1.506-2.2 6.181 6.181 0 0 0 1.053-3.123 4.451 4.451 0 0 0 -1.4-3.345 4.821 4.821 0 0 0 -3.474-1.349q-4.324 0-4.952 5.119h-4.282q1.035-9.018 9.11-9.018a9.2 9.2 0 0 1 6.542 2.476 8.043 8.043 0 0 1 2.661 6.135 9.32 9.32 0 0 1 -1.238 4.564 22.361 22.361 0 0 1 -1.839 2.763q-1.21 1.6-3.058 3.779zm20.177 1.977a2.45 2.45 0 0 1 .758-1.793 2.471 2.471 0 0 1 1.811-.758 2.471 2.471 0 0 1 1.811.758 2.471 2.471 0 0 1 .758 1.811 2.493 2.493 0 0 1 -.758 1.829 2.463 2.463 0 0 1 -1.811.739 2.485 2.485 0 0 1 -1.829-.739 2.507 2.507 0 0 1 -.74-1.844zm27.476-22.431h-14.081v-4.029h21.27l-18 29.512-3.419-2.162z" fill="#e76c2b" transform="translate(105 211.349)"/><circle cx="75.089" cy="75" fill="#eaeaea" r="75"/><path d="m2932.33 1377.294a74.844 74.844 0 1 1 -29.157 5.887l29.157 69.02z" fill="#e76c2b" transform="translate(-2857.423 -1377.294)"/><circle cx="74.589" cy="75.5" fill="#fff" r="30.5"/><path d="m-17.724-8.46a9.225 9.225 0 0 1 -.48 1.044l.192.048h-2.952l.24-.06a4.581 4.581 0 0 0 -.408-1.032zm3.432 1.092h-2.808c.18-.288.372-.636.588-1.032l-.3-.06h1.9v-.888h-3.988v-.72h-1.116v.72h-3.972v.888h2.028l-.276.06a5.431 5.431 0 0 1 .408 1.032h-2.712v.9h10.248zm-2.352 2.784h-5.532v-.54h5.532zm0 1.308h-5.532v-.552h5.532zm1.1-2.676h-7.7v3.5h2.928l-.456.456a8.689 8.689 0 0 1 1.956 1.196l.684-.708a8.9 8.9 0 0 0 -1.584-.936h4.176zm-8.528 6.652a4.478 4.478 0 0 0 1.692-2.3l-.924-.348a3.99 3.99 0 0 1 -1.644 2.048zm3.948-.78c-.588 0-.7-.048-.7-.336v-1.42h-1.076v1.428c0 .972.336 1.236 1.668 1.236h2.112c1.032 0 1.332-.324 1.464-1.656a3.178 3.178 0 0 1 -.96-.36c-.048.972-.132 1.1-.6 1.1zm3.3-1.476a9.156 9.156 0 0 1 1.992 2.168l.924-.552a10.074 10.074 0 0 0 -2.064-2.136zm15.876-5.776a7.607 7.607 0 0 0 -1.176-2.1l-.84.324a7.686 7.686 0 0 1 1.1 2.16zm-3.352-1.488h-1.388v-1.248h-1.032v1.248h-1.428v.852h3.848zm-4.3-.852h-2.868v.872h2.868zm.3 1.584h-3.7v.888h3.7zm-.288 1.632h-2.932v.864h2.928zm-2.932 2.472h2.928v-.876h-2.928zm2.064 1.644v1.728h-1.224v-1.728zm.888-.9h-2.988v4.032h.876v-.528h2.112zm.852-4.476a5.625 5.625 0 0 1 .316 1.668l.816-.192a5.5 5.5 0 0 0 -.36-1.644zm.708 6.468v-.852h1.524v.852zm1.524-2.436v.816h-1.524v-.816zm3.324-.936a9.927 9.927 0 0 1 -.72 1.752c-.06-.648-.12-1.4-.156-2.256h1.968v-.924h-1.992c-.024-1.2-.036-2.544-.012-4.008h-.96c0 1.464.012 2.808.048 4.008h-1.152c.144-.432.312-1.1.492-1.716l-.924-.18a13.951 13.951 0 0 1 -.348 1.744l.72.156h-3.252v.924h4.5a29.4 29.4 0 0 0 .312 3.44 7.732 7.732 0 0 1 -.924 1.032v-3.84h-3.324v4.608h.876v-.552h2.208a6.868 6.868 0 0 1 -.984.72 4.379 4.379 0 0 1 .624.624 8.309 8.309 0 0 0 1.788-1.5c.312.988.772 1.524 1.44 1.572.432.016.876-.42 1.132-2.084a3.225 3.225 0 0 1 -.7-.612c-.072.912-.2 1.5-.4 1.488-.324-.036-.576-.48-.756-1.26a10.357 10.357 0 0 0 1.348-2.68zm8.26-3.3h1.388v2.388c0 .132-.036.168-.18.168s-.648.012-1.152-.012a4.4 4.4 0 0 1 .3.984 4.729 4.729 0 0 0 1.668-.156c.384-.156.444-.444.444-.948v-2.424h3.168v-1.032h-4.692v-1.116h-1.144v1.116h-4.628v1.032h3.768a3.359 3.359 0 0 1 -1.788 3.228 4.073 4.073 0 0 1 .816.756 4.217 4.217 0 0 0 2.032-3.964zm2.988.984a12.916 12.916 0 0 1 1.94 2.336l.948-.564a12.931 12.931 0 0 0 -2.04-2.28zm-6.148-.456a5.314 5.314 0 0 1 -1.9 2.052 5.6 5.6 0 0 1 .768.66 7.418 7.418 0 0 0 2.192-2.42zm1.872 4.5h3.636a6.316 6.316 0 0 1 -1.9 1.452 5.534 5.534 0 0 1 -1.748-1.44zm4.56-.948-.192.048h-3.432c.192-.216.372-.444.54-.672l-1.176-.216a7.777 7.777 0 0 1 -3.78 2.616 3.189 3.189 0 0 1 .708.828 11.993 11.993 0 0 0 1.96-1.056 6.843 6.843 0 0 0 1.412 1.344 18.665 18.665 0 0 1 -4.412.924 3.236 3.236 0 0 1 .54 1 18.092 18.092 0 0 0 4.952-1.276 13.67 13.67 0 0 0 4.884 1.248 4.9 4.9 0 0 1 .66-1.048 15.791 15.791 0 0 1 -4.344-.824 6.862 6.862 0 0 0 2.408-2.424zm7.7-6.048a13.037 13.037 0 0 1 -3.384 4.74 7.659 7.659 0 0 1 .672 1.164 13.159 13.159 0 0 0 1.396-1.516v6.424h1.116v-7.992a17.234 17.234 0 0 0 1.3-2.46zm4.028 9.624c-.624 0-.744-.12-.744-.8v-3.28a29.068 29.068 0 0 0 4.14-2.484l-.8-.972a19.027 19.027 0 0 1 -3.336 2.316v-4.3h-1.124v8.7c0 1.452.4 1.86 1.752 1.86h2.268c1.308 0 1.632-.708 1.776-2.7a3.285 3.285 0 0 1 -1.044-.48c-.1 1.716-.18 2.136-.8 2.136z" transform="translate(75.089 79)"/><path d="m-25.59-2.26a4.939 4.939 0 0 1 -1.36.98 4.266 4.266 0 0 1 -1.28-.98zm1-.98-.21.04h-2.55c.13-.16.25-.32.37-.48l-1.05-.21a3.829 3.829 0 0 0 .83-2.62h.91v1.77c0 .1-.03.13-.15.13s-.5 0-.85-.01a3.934 3.934 0 0 1 .33 1.04 3.546 3.546 0 0 0 1.41-.17c.34-.17.42-.46.42-.96v-1.8h2.57v-1.09h-3.83v-.86h-1.22v.86h-3.8v1.09h3.1a2.667 2.667 0 0 1 -1.39 2.49 4.312 4.312 0 0 1 .85.8 6.974 6.974 0 0 1 -2.55 1.42 3.187 3.187 0 0 1 .75.88 9.61 9.61 0 0 0 1.54-.77 6.017 6.017 0 0 0 .93.89 15.707 15.707 0 0 1 -3.51.62 3.916 3.916 0 0 1 .56 1.07 15.351 15.351 0 0 0 4.12-.98 11.547 11.547 0 0 0 4.05.95 5.2 5.2 0 0 1 .69-1.12 14.234 14.234 0 0 1 -3.42-.52 5.512 5.512 0 0 0 1.87-1.94zm-5.54-2.94a4.2 4.2 0 0 1 -1.47 1.68 7.15 7.15 0 0 1 .82.69 6.209 6.209 0 0 0 1.76-2.07zm5.28.49a10.711 10.711 0 0 1 1.52 1.95l.99-.61a11.738 11.738 0 0 0 -1.59-1.87zm6.5-2.65a10.334 10.334 0 0 1 -2.73 3.89 8.725 8.725 0 0 1 .69 1.26 11.33 11.33 0 0 0 .99-1.06v5.1h1.19v-6.78a16.106 16.106 0 0 0 1.04-2.02zm3.68 7.98c-.48 0-.55-.1-.55-.69v-2.52a24.224 24.224 0 0 0 3.4-1.93l-.88-1.04a17.008 17.008 0 0 1 -2.52 1.75v-3.42h-1.2v7.15c0 1.41.36 1.81 1.62 1.81h1.71c1.18 0 1.49-.63 1.63-2.35a3.433 3.433 0 0 1 -1.1-.51c-.08 1.41-.16 1.75-.64 1.75zm14.07-6.94a11.834 11.834 0 0 0 -.81-1.36l-.79.33a9.978 9.978 0 0 1 .81 1.38zm-6.72-.65a10.964 10.964 0 0 1 -.21 2.1c-.5.04-.97.07-1.28.08a9.2 9.2 0 0 1 -1.05 0l.11 1.34c.31-.05.82-.12 1.1-.15.19-.03.5-.07.85-.11a14.688 14.688 0 0 1 -1.99 4.63l1.29.52a21.459 21.459 0 0 0 2.02-5.29c.28-.02.52-.04.68-.04.62 0 .96.11.96.9a7.561 7.561 0 0 1 -.4 2.71.728.728 0 0 1 -.74.43 5.778 5.778 0 0 1 -1.22-.21l.22 1.31a5.607 5.607 0 0 0 1.18.14 1.582 1.582 0 0 0 1.63-.91 9.681 9.681 0 0 0 .56-3.61c0-1.42-.74-1.89-1.79-1.89-.2 0-.5.02-.83.04.07-.36.15-.72.21-1.02.05-.25.11-.56.17-.82zm5.53 1.11c-.2-.37-.55-1-.8-1.37l-.79.33a11.056 11.056 0 0 1 .68 1.18l-.92.39a11.215 11.215 0 0 1 1.67 3.73l1.26-.59a19.677 19.677 0 0 0 -1.61-3.45zm6.66 2.9a4.835 4.835 0 0 1 1.36-.22 5.66 5.66 0 0 1 -1.25 1.88 11.547 11.547 0 0 1 -.11-1.64zm-1.89 2.82c-.32 0-.46-.17-.46-.48a2.591 2.591 0 0 1 1.24-1.82 13.8 13.8 0 0 0 .21 1.98 2.1 2.1 0 0 1 -.99.32zm3.67-4.64a5.728 5.728 0 0 1 -.09.59h-.17a6.659 6.659 0 0 0 -1.48.18c.01-.3.04-.6.07-.89a28.774 28.774 0 0 0 3.52-.36l-.01-1.14a16.516 16.516 0 0 1 -3.36.42c.03-.19.06-.37.1-.53a3.847 3.847 0 0 1 .14-.53l-1.3-.03a3.954 3.954 0 0 1 -.03.59l-.06.53h-.38a16.261 16.261 0 0 1 -1.83-.13l.04 1.15c.46.02 1.23.06 1.75.06h.32c-.04.4-.07.82-.1 1.24a4 4 0 0 0 -2.43 3.25 1.287 1.287 0 0 0 1.34 1.45 3.485 3.485 0 0 0 1.53-.4c.04.14.09.28.13.4l1.14-.34c-.08-.24-.16-.48-.23-.74a7.7 7.7 0 0 0 2.09-3 1.473 1.473 0 0 1 1.02 1.39c0 .97-.78 1.93-2.69 2.14l.66 1.04c2.43-.36 3.26-1.73 3.26-3.12a2.556 2.556 0 0 0 -1.91-2.43c.06-.19.13-.4.18-.51zm6.02 1.51.51 1.3a13.346 13.346 0 0 1 3.97-1.18 1.277 1.277 0 0 1 1.42 1.26c0 1.35-1.68 1.94-3.93 2l.52 1.23c3.15-.19 4.72-1.42 4.72-3.21a2.366 2.366 0 0 0 -2.61-2.43 14.211 14.211 0 0 0 -3.55.77 8.462 8.462 0 0 1 -1.05.26zm14.66.46a14.549 14.549 0 0 1 1.91-.11 14.3 14.3 0 0 1 1.7.12l.03-1.19a17.193 17.193 0 0 0 -1.74-.09c-.64 0-1.35.05-1.9.1zm.78-3.18c-.54.13-1.1.24-1.66.33l.08-.38c.05-.22.14-.66.21-.93l-1.51-.12a5.141 5.141 0 0 1 -.04 1q-.03.24-.09.57c-.3.02-.59.03-.88.03a9.749 9.749 0 0 1 -1.25-.08l.03 1.24c.35.02.72.04 1.2.04.2 0 .42-.01.65-.02-.07.28-.14.56-.21.82a21.834 21.834 0 0 1 -1.71 4.46l1.39.46a31.938 31.938 0 0 0 1.57-4.58c.11-.4.21-.84.3-1.27.66-.08 1.33-.19 1.92-.32zm-1.39 4.39a6.8 6.8 0 0 0 -.17 1.32c0 1 .85 1.58 2.52 1.58a15.847 15.847 0 0 0 2.02-.14l.05-1.27a11.481 11.481 0 0 1 -2.06.2c-1.06 0-1.31-.32-1.31-.75a3.426 3.426 0 0 1 .14-.83z" fill="#fff" transform="translate(74.089 129)"/></svg>