<svg height="194.317" viewBox="0 0 150 194.317" width="150" xmlns="http://www.w3.org/2000/svg"><path d="m-63.813-19.682-2.97-2.206 6.408-8.735q-.521.069-.886.1t-.59.035a7.538 7.538 0 0 1 -5.627-2.483 8.279 8.279 0 0 1 -2.362-5.939 8.615 8.615 0 0 1 2.622-6.321 8.624 8.624 0 0 1 6.321-2.64 8.9 8.9 0 0 1 6.373 2.6 8.18 8.18 0 0 1 2.709 6.113 11.737 11.737 0 0 1 -2.64 6.755zm-2.087-19.518a4.954 4.954 0 0 0 1.476 3.647 4.9 4.9 0 0 0 3.595 1.494 4.872 4.872 0 0 0 3.577-1.476 4.9 4.9 0 0 0 1.493-3.595 4.9 4.9 0 0 0 -1.493-3.595 4.892 4.892 0 0 0 -3.591-1.475 4.852 4.852 0 0 0 -3.56 1.476 4.821 4.821 0 0 0 -1.497 3.524zm27.8 14.8h9.986v3.8h-18.005l9.308-11.271q1.372-1.685 2.3-2.918a22.178 22.178 0 0 0 1.415-2.067 5.809 5.809 0 0 0 .99-2.935 4.183 4.183 0 0 0 -1.32-3.143 4.531 4.531 0 0 0 -3.264-1.266q-4.064 0-4.654 4.81h-4.029q.973-8.475 8.562-8.475a8.648 8.648 0 0 1 6.148 2.327 7.559 7.559 0 0 1 2.5 5.766 8.759 8.759 0 0 1 -1.164 4.289 21.014 21.014 0 0 1 -1.728 2.6q-1.137 1.5-2.874 3.551zm18.961 1.858a2.3 2.3 0 0 1 .712-1.685 2.323 2.323 0 0 1 1.7-.712 2.323 2.323 0 0 1 1.7.712 2.323 2.323 0 0 1 .712 1.7 2.343 2.343 0 0 1 -.712 1.719 2.314 2.314 0 0 1 -1.7.695 2.335 2.335 0 0 1 -1.719-.695 2.356 2.356 0 0 1 -.689-1.74zm28.287-5.54h2.852v3.682h-2.848v3.8h-4.046v-3.8h-13.164l17.21-25.014zm-4.046 0v-8.978l-6.182 8.978z" fill="#e76c2b" transform="translate(118 214)"/><path d="m-3.228-3.42c1.272 0 2.172-1.044 2.172-2.832s-.9-2.8-2.172-2.8-2.16 1.02-2.16 2.8.888 2.832 2.16 2.832zm0-1c-.516 0-.912-.528-.912-1.836s.4-1.8.912-1.8.924.492.924 1.8-.408 1.84-.924 1.84zm.3 4.584h1.028l4.84-9.212h-1.04zm6.156 0c1.26.004 2.172-1.052 2.172-2.828s-.912-2.808-2.172-2.808-2.16 1.02-2.16 2.808.9 2.832 2.16 2.832zm0-1.008c-.516 0-.924-.516-.924-1.824s.408-1.812.924-1.812.924.5.924 1.812-.408 1.828-.924 1.828z" fill="#e76d2b" transform="translate(142 193)"/><path d="m-11.94-.9h-2.076v-.78h2.076zm3.84-3.456h-9.624v5.4h1.392v-4.212h6.792v2.676c0 .144-.048.18-.228.192-.132.012-.5.012-.912 0v-2.328h-4.584v3.228h1.248v-.54h3.1a4.047 4.047 0 0 1 .276.96 4.79 4.79 0 0 0 1.94-.228c.468-.216.6-.6.6-1.26zm-3.036-1.464h-3.744v-.732h3.744zm-5.1-1.68v2.64h6.552v-2.64zm3.924-1.668v-1.008h-1.452v1.008h-4.436v1.212h10.484v-1.212zm10.944-.624h-3.624v1.08h3.624zm.456 1.608h-4.688v1.128h4.688zm-1.68 6.1v1.38h-1.272v-1.38zm1.236-1.128h-3.72v4.088h1.212v-.468h2.508zm-3.684-.588h3.7v-1.072h-3.7zm0-1.62h3.7v-1.096h-3.7zm10.64 1.028h-2.648v-3.852h2.436v-1.332h-6.072v1.332h2.232v3.852h-2.648v1.356h2.648v4.068h1.4v-4.068h2.652zm-6.188-3.12a14.42 14.42 0 0 1 .488 2.812l1.2-.288a14.3 14.3 0 0 0 -.54-2.76zm4.988 2.784c.3-.72.624-1.848.924-2.856l-1.352-.264a17.568 17.568 0 0 1 -.66 2.848zm5.34-5.412a12.458 12.458 0 0 1 -2.6 4.356 10.862 10.862 0 0 1 .732 1.44 9.312 9.312 0 0 0 .728-.888v6.264h1.348v-8.4a20.828 20.828 0 0 0 1.08-2.364zm5.208 3.924h-.788v-1.5h.792zm2 5.088h-.8v-3.852h.8zm-4.748-3.852h.744v3.852h-.744zm2.748 0v3.852h-.8v-3.852zm3.432-2.736v-1.272h-7.62v1.272h2.052v1.5h-1.928v7h1.316v-.684h4.752v.608h1.368v-6.924h-2.02v-1.5z" fill="#e76c2b" transform="translate(19 185)"/><path d="m3319.655 1415.186v75l-6.634-74.7a74.985 74.985 0 1 0 6.634-.3z" fill="#eaeaea" transform="translate(-3244.655 -1415.186)"/><path d="m3369.824 1415.186c-2.247 0-4.47.1-6.667.3l6.667 75.084z" fill="#d3d3d3" transform="translate(-3294.807 -1415.186)"/><path d="m3290.694 1425.4a75 75 0 0 0 -46.039 69.092c0 41.413 33.749 74.984 75.381 74.984a75.377 75.377 0 0 0 34.491-8.295l-34.491-66.689z" fill="#fd9158" transform="translate(-3244.655 -1419.478)"/><path d="m3450.036 1490.164c0-41.409-33.75-74.978-75.381-74.978v74.978l34.491 66.683a74.925 74.925 0 0 0 40.89-66.683z" fill="#e76c2b" transform="translate(-3300.036 -1415.186)"/><circle cx="75.118" cy="75.118" fill="#fff" r="30.5"/><path d="m-15.228-8.676a7.877 7.877 0 0 0 -2.052-1.272l-.66.792a8.613 8.613 0 0 1 2.028 1.344zm-.5 3.036a9.135 9.135 0 0 0 -2.2-1.08l-.588.864a8.175 8.175 0 0 1 2.148 1.164zm-1.48 6.432c.6-1.128 1.284-2.556 1.812-3.816l-.876-.672a36.341 36.341 0 0 1 -1.928 3.828zm4.74-8.76h1.9v1.128h-1.9zm4.98 2.136v-1.008h-2.012v-1.128h1.68v-.972h-1.68v-1.128h-1.068v1.128h-1.9v-1.128h-1.044v1.128h-1.632v.972h1.632v1.128h-2.016v1.008h3.456v.876h-3.028v5.892h1v-4.908h2.136v2.2h-.768v-1.628h-.7v3.16h.7v-.72h2.432v.5h.7v-2.94h-.7v1.62h-.816v-2.2h2.236v3.78c0 .144-.048.192-.2.192s-.684 0-1.236-.024a4.124 4.124 0 0 1 .276.936 5.448 5.448 0 0 0 1.748-.136c.36-.156.456-.444.456-.96v-4.764h-3.156v-.876zm4.608-2.6h5.964v2.028h-5.964zm3.528 5.816h3.96v-1.044h-3.96v-1.692h3.612v-4.148h-8.244v4.152h3.492v4.6a3.782 3.782 0 0 1 -2.016-2.16 13.415 13.415 0 0 0 .3-1.476l-1.164-.144c-.18 1.672-.728 3.664-2.088 4.708a5.866 5.866 0 0 1 .792.756 5.783 5.783 0 0 0 1.74-2.536c1.176 1.96 3.028 2.416 5.496 2.416h2.58a3.862 3.862 0 0 1 .408-1.092c-.576.024-2.484.024-2.928.024a10.353 10.353 0 0 1 -1.98-.156zm8.832-5.328h8.784v-1h-4.364v-1.128h-1.168v1.132h-4.32v3.384c0 1.74-.084 4.176-1.056 5.88a5.051 5.051 0 0 1 .912.612c1.044-1.824 1.212-4.608 1.212-6.492zm5.772 2.112v1.056h-2.592v-1.056zm1.092 1.92v-1.92h1.836v-.912h-1.836v-.912h-1.092v.912h-2.592v-.912h-1.06v.912h-1.772v.912h1.772v1.92zm-.5 1.524a5.531 5.531 0 0 1 -1.776 1.3 5.162 5.162 0 0 1 -1.74-1.3zm.936-.936-.2.036h-6.62v.9h1.84l-.54.2a6.388 6.388 0 0 0 1.652 1.552 16.731 16.731 0 0 1 -3.432.66 3.421 3.421 0 0 1 .468.936 15.753 15.753 0 0 0 4.08-.984 13.58 13.58 0 0 0 3.8 1 3.974 3.974 0 0 1 .648-.96 15.778 15.778 0 0 1 -3.252-.636 5.788 5.788 0 0 0 2.236-2.332z" transform="translate(74.621 81.56)"/><g fill="#fff"><path d="m-29.21-.89c-.26 0-.72-.28-.72-.58 0-.35.4-.76 1.01-1.07.02.52.03.97.03 1.22 0 .34-.14.43-.32.43zm1.41-3.56c0-.29 0-.59.01-.89a19.126 19.126 0 0 0 1.89-.31l-.03-1.24a13.562 13.562 0 0 1 -1.82.37c.01-.25.02-.49.03-.71.02-.25.06-.68.08-.86h-1.36a7.861 7.861 0 0 1 .07.87c0 .17 0 .46-.01.81-.2.01-.39.02-.57.02a10.849 10.849 0 0 1 -1.37-.08l.02 1.2c.43.04.93.05 1.38.05.16 0 .34-.01.53-.02v.83c0 .23 0 .46.01.69-1.21.53-2.22 1.42-2.22 2.29 0 1.05 1.37 1.88 2.34 1.88.64 0 1.09-.32 1.09-1.55 0-.34-.03-1.1-.05-1.89a7.03 7.03 0 0 1 1.86-.27c.86 0 1.46.39 1.46 1.06 0 .72-.64 1.13-1.44 1.27a7.57 7.57 0 0 1 -1.22.07l.46 1.27a8.068 8.068 0 0 0 1.3-.16c1.57-.39 2.18-1.27 2.18-2.44 0-1.36-1.2-2.17-2.72-2.17a8.06 8.06 0 0 0 -1.9.26zm2.44-1.6a15.043 15.043 0 0 1 2.38 1.44l.6-1.02a21.876 21.876 0 0 0 -2.43-1.39zm6.95 5.16c-.26 0-.72-.28-.72-.58 0-.35.4-.76 1.01-1.07.02.52.03.97.03 1.22 0 .34-.14.43-.32.43zm1.41-3.56c0-.29 0-.59.01-.89a19.126 19.126 0 0 0 1.89-.31l-.03-1.24a13.562 13.562 0 0 1 -1.82.37c.01-.25.02-.49.03-.71.02-.25.06-.68.08-.86h-1.36a7.861 7.861 0 0 1 .07.87c0 .17 0 .46-.01.81-.2.01-.39.02-.57.02a10.849 10.849 0 0 1 -1.37-.08l.02 1.2c.43.04.93.05 1.38.05.16 0 .34-.01.53-.02v.83c0 .23 0 .46.01.69-1.21.53-2.22 1.42-2.22 2.29 0 1.05 1.37 1.88 2.34 1.88.64 0 1.09-.32 1.09-1.55 0-.34-.03-1.1-.05-1.89a7.03 7.03 0 0 1 1.86-.27c.86 0 1.46.39 1.46 1.06 0 .72-.64 1.13-1.44 1.27a7.57 7.57 0 0 1 -1.22.07l.46 1.27a8.068 8.068 0 0 0 1.3-.16c1.57-.39 2.18-1.27 2.18-2.44 0-1.36-1.2-2.17-2.72-2.17a8.06 8.06 0 0 0 -1.9.26zm2.44-1.6a15.043 15.043 0 0 1 2.38 1.44l.6-1.02a21.876 21.876 0 0 0 -2.43-1.39zm6.05 3.06c0-.58.32-.97.71-.97.28 0 .47.23.47.61 0 .56-.18 1.04-.63 1.04-.29 0-.55-.25-.55-.68zm5.24-.1a8.9 8.9 0 0 1 .07 1.22.928.928 0 0 1 -.72 1 6.337 6.337 0 0 1 -1.52.18c-1.17 0-1.28-.22-1.28-.64v-.39a2.626 2.626 0 0 0 .53-1.69 1.689 1.689 0 0 0 -.29-1v-1.28a16.053 16.053 0 0 0 1.76-.28v-1.2a14.791 14.791 0 0 1 -1.76.35 6.9 6.9 0 0 1 .09-1.24h-1.39a5.215 5.215 0 0 1 .1 1.25v.08h-.29a11.818 11.818 0 0 1 -1.6-.14l.07 1.17q.975.09 1.62.09h.2v.66h-.04a1.884 1.884 0 0 0 -1.83 2.05c0 1.27.74 1.78 1.46 1.78a.86.86 0 0 0 .16-.01v.21c0 .69.1 1.42 2.4 1.42a9.6 9.6 0 0 0 2.15-.21 1.732 1.732 0 0 0 1.47-1.8c.02-.41.01-.6.01-1.16zm-.63-3.23a13.466 13.466 0 0 1 2.04 1.98l.9-.92a12.257 12.257 0 0 0 -2.1-1.89zm10.72 5.42c-.44 0-.8-.14-.8-.54 0-.32.36-.5.78-.5a2.443 2.443 0 0 1 1 .24 1.057 1.057 0 0 1 -.98.8zm-2.63-4.5c.17-.26.38-.58.51-.75l-.37-.47c.08-.62.16-1.13.22-1.41l-1.45-.04a5.282 5.282 0 0 1 .04.88c0 .11-.02.39-.04.76-.42.06-.85.11-1.14.13a8.422 8.422 0 0 1 -.86.01l.12 1.27c.56-.07 1.32-.17 1.8-.23l-.04.69c-.56.83-1.56 2.15-2.12 2.83l.78 1.1c.34-.48.83-1.2 1.25-1.83-.02.84-.02 1.41-.04 2.18 0 .16-.01.52-.03.73h1.36c-.02-.22-.06-.58-.07-.76-.06-.93-.06-1.76-.06-2.57 0-.29.01-.61.03-.94.8-.89 1.87-1.78 2.76-1.78.76 0 1.25.7 1.25 1.76 0 .38-.02.75-.05 1.08a3.493 3.493 0 0 0 -1.14-.18c-1.2 0-1.96.66-1.96 1.55 0 1.12.85 1.61 1.95 1.61a1.982 1.982 0 0 0 1.96-1.2 6.588 6.588 0 0 1 .73.76l.64-1.03a7 7 0 0 0 -1.02-.92 9.636 9.636 0 0 0 .11-1.58c0-1.8-.83-2.98-2.25-2.98a4.944 4.944 0 0 0 -2.88 1.43zm8.6 6.15c.52-.97 1.04-2.12 1.49-3.19l-.94-.71a33.876 33.876 0 0 1 -1.6 3.2zm1.13-5.55a6.492 6.492 0 0 0 -1.81-.88l-.63.9a7.565 7.565 0 0 1 1.78.98zm-1.96-2.73a7.029 7.029 0 0 1 1.68 1.14l.74-.94a7.646 7.646 0 0 0 -1.72-1.06zm4.81.91h1.34v.74h-1.34zm4.07 1.78v-1.04h-1.58v-.74h1.3v-1.03h-1.3v-.81h-1.15v.81h-1.34v-.81h-1.11v.81h-1.28v1.03h1.28v.74h-1.59v1.04h2.78v.6h-2.48v5.1h1.05v-4.07h1.57v1.59h-.45v-1.18h-.71v2.62h.71v-.58h1.81v.33h.69v-2.37h-.69v1.18h-.49v-1.59h1.65v2.93c0 .11-.04.15-.17.16s-.56 0-.93-.02a3.247 3.247 0 0 1 .27.99 3.792 3.792 0 0 0 1.5-.17c.34-.16.44-.43.44-.95v-3.97h-2.63v-.6zm3.94-2.07h4.58v1.37h-4.58zm2.91 4.83h3.26v-1.1h-3.26v-1.23h2.94v-3.64h-7.04v3.64h2.87v3.54a3.028 3.028 0 0 1 -1.44-1.61c.1-.4.18-.8.24-1.19l-1.24-.14a5.675 5.675 0 0 1 -1.66 3.84 4.963 4.963 0 0 1 .84.81 5.032 5.032 0 0 0 1.37-1.96c1.04 1.53 2.59 1.89 4.6 1.89h2.12a4.366 4.366 0 0 1 .41-1.15c-.55.01-2.03.02-2.46.01a9.586 9.586 0 0 1 -1.55-.11zm-41.8 14.22a2.5 2.5 0 0 0 2.59-2.6 2.149 2.149 0 0 0 -2.28-2.35 1.914 1.914 0 0 0 -.89.21l.14-1.57h2.69v-1.23h-3.96l-.2 3.59.67.44a1.771 1.771 0 0 1 1.11-.39 1.2 1.2 0 0 1 1.25 1.34 1.243 1.243 0 0 1 -1.31 1.36 2.3 2.3 0 0 1 -1.63-.75l-.68.94a3.373 3.373 0 0 0 2.5 1.01zm6.88 0c1.5 0 2.5-1.32 2.5-3.87s-1-3.81-2.5-3.81-2.51 1.25-2.51 3.81 1 3.87 2.51 3.87zm0-1.15c-.64 0-1.12-.64-1.12-2.72s.48-2.67 1.12-2.67 1.11.6 1.11 2.67-.48 2.72-1.11 2.72zm5.36 1.15a.921.921 0 0 0 .92-.96.921.921 0 0 0 -.92-.96.919.919 0 0 0 -.91.96.919.919 0 0 0 .91.96zm5.38 0c1.5 0 2.5-1.32 2.5-3.87s-1-3.81-2.5-3.81-2.51 1.25-2.51 3.81 1 3.87 2.51 3.87zm0-1.15c-.64 0-1.12-.64-1.12-2.72s.48-2.67 1.12-2.67 1.11.6 1.11 2.67-.48 2.72-1.11 2.72zm5.86-1.84c1.06 0 1.81-.87 1.81-2.36s-.75-2.33-1.81-2.33-1.8.85-1.8 2.33.74 2.36 1.8 2.36zm0-.83c-.43 0-.76-.44-.76-1.53s.33-1.5.76-1.5.77.41.77 1.5-.34 1.53-.77 1.53zm.25 3.82h.86l4.03-7.68h-.87zm5.13 0c1.05 0 1.81-.88 1.81-2.36s-.76-2.34-1.81-2.34-1.8.85-1.8 2.34.75 2.36 1.8 2.36zm0-.84c-.43 0-.77-.43-.77-1.52s.34-1.51.77-1.51.77.42.77 1.51-.34 1.52-.77 1.52z" transform="translate(53.763 119.238)"/><path d="m-11.76-4.56v-1.23h-3.93c.1-.93.11-1.85.12-2.67h-1.3c-.01.82 0 1.73-.1 2.67h-3.64v1.23h3.44a6 6 0 0 1 -3.63 4.4 3.523 3.523 0 0 1 .89 1.01 6.883 6.883 0 0 0 3.74-4.25 7.459 7.459 0 0 0 3.75 4.24 4.786 4.786 0 0 1 .88-1.12 6.673 6.673 0 0 1 -3.74-4.28zm7.77 2.3a4.939 4.939 0 0 1 -1.36.98 4.266 4.266 0 0 1 -1.28-.98zm1-.98-.21.04h-2.55c.13-.16.25-.32.37-.48l-1.05-.21a3.829 3.829 0 0 0 .83-2.62h.91v1.77c0 .1-.03.13-.15.13s-.5 0-.85-.01a3.934 3.934 0 0 1 .33 1.04 3.546 3.546 0 0 0 1.41-.17c.34-.17.42-.46.42-.96v-1.8h2.57v-1.09h-3.83v-.86h-1.22v.86h-3.8v1.09h3.1a2.667 2.667 0 0 1 -1.39 2.49 4.312 4.312 0 0 1 .85.8 6.974 6.974 0 0 1 -2.55 1.42 3.187 3.187 0 0 1 .75.88 9.61 9.61 0 0 0 1.54-.77 6.017 6.017 0 0 0 .93.89 15.707 15.707 0 0 1 -3.51.62 3.916 3.916 0 0 1 .56 1.07 15.351 15.351 0 0 0 4.12-.98 11.547 11.547 0 0 0 4.05.95 5.2 5.2 0 0 1 .69-1.12 14.234 14.234 0 0 1 -3.42-.52 5.512 5.512 0 0 0 1.87-1.94zm-5.54-2.94a4.2 4.2 0 0 1 -1.47 1.68 7.151 7.151 0 0 1 .82.69 6.209 6.209 0 0 0 1.76-2.07zm5.28.49a10.711 10.711 0 0 1 1.52 1.95l.99-.61a11.738 11.738 0 0 0 -1.59-1.87zm5.24 6.44c.52-.97 1.04-2.12 1.49-3.19l-.94-.71a33.876 33.876 0 0 1 -1.6 3.2zm1.13-5.55a6.492 6.492 0 0 0 -1.81-.88l-.63.9a7.565 7.565 0 0 1 1.78.98zm-1.96-2.73a7.029 7.029 0 0 1 1.68 1.14l.74-.94a7.646 7.646 0 0 0 -1.72-1.06zm4.81.91h1.34v.74h-1.34zm4.07 1.78v-1.04h-1.58v-.74h1.3v-1.03h-1.3v-.81h-1.15v.81h-1.34v-.81h-1.11v.81h-1.28v1.03h1.28v.74h-1.59v1.04h2.78v.6h-2.48v5.1h1.05v-4.07h1.57v1.59h-.45v-1.18h-.71v2.62h.71v-.58h1.81v.33h.69v-2.37h-.69v1.18h-.49v-1.59h1.65v2.93c0 .11-.04.15-.17.16s-.56 0-.93-.02a3.247 3.247 0 0 1 .27.99 3.792 3.792 0 0 0 1.5-.17c.34-.16.44-.43.44-.95v-3.97h-2.63v-.6zm3.94-2.07h4.58v1.37h-4.58zm2.91 4.83h3.26v-1.1h-3.26v-1.23h2.94v-3.64h-7.04v3.64h2.87v3.54a3.028 3.028 0 0 1 -1.44-1.61c.1-.4.18-.8.24-1.19l-1.24-.14a5.675 5.675 0 0 1 -1.66 3.84 4.963 4.963 0 0 1 .84.81 5.032 5.032 0 0 0 1.37-1.96c1.04 1.53 2.59 1.89 4.6 1.89h2.12a4.366 4.366 0 0 1 .41-1.15c-.55.01-2.03.02-2.46.01a9.586 9.586 0 0 1 -1.55-.11zm-32.12 11.04 1.15-1.84c.21-.4.41-.81.59-1.2h.04c-.02.43-.06 1.1-.06 1.53v1.51zm3.97 0h-.88v-4.36h-1.76l-2.76 4.48v1h3.15v1.92h1.37v-1.92h.88zm1.51 3.04h4.96v-1.24h-1.61c-.34 0-.83.04-1.2.08 1.35-1.32 2.46-2.76 2.46-4.1a2.171 2.171 0 0 0 -2.33-2.28 3 3 0 0 0 -2.35 1.12l.8.8a1.917 1.917 0 0 1 1.36-.76 1.062 1.062 0 0 1 1.11 1.2c0 1.14-1.19 2.53-3.2 4.33zm7.88.14a.921.921 0 0 0 .92-.96.921.921 0 0 0 -.92-.96.919.919 0 0 0 -.91.96.919.919 0 0 0 .91.96zm4.07-3.18 1.15-1.84c.21-.4.41-.81.59-1.2h.04c-.02.43-.06 1.1-.06 1.53v1.51zm3.97 0h-.88v-4.36h-1.76l-2.76 4.48v1h3.15v1.92h1.37v-1.92h.88zm3.2.19c1.06 0 1.81-.87 1.81-2.36s-.75-2.33-1.81-2.33-1.8.85-1.8 2.33.74 2.36 1.8 2.36zm0-.83c-.43 0-.76-.44-.76-1.53s.33-1.5.76-1.5.77.41.77 1.5-.34 1.53-.77 1.53zm.25 3.82h.86l4.03-7.68h-.87zm5.13 0c1.05 0 1.81-.88 1.81-2.36s-.76-2.34-1.81-2.34-1.8.85-1.8 2.34.75 2.36 1.8 2.36zm0-.84c-.43 0-.77-.43-.77-1.52s.34-1.51.77-1.51.77.42.77 1.51-.34 1.52-.77 1.52z" transform="translate(105.432 34)"/></g></svg>