<svg xmlns="http://www.w3.org/2000/svg" width="240.69" height="22.14" viewBox="0 0 240.69 22.14">
  <path id="パス_12380" data-name="パス 12380" d="M-120.75-20.01-114.78,0h5.28l3.84-11.58L-102.03,0h5.31l6.39-20.01h-5.43L-99.54-7.08l-3.93-12.93h-4.14l-4.23,12.93-3.48-12.93ZM-75.9-9.78a3.3,3.3,0,0,1,2.13.87,3.257,3.257,0,0,1,.93,2.19,2.959,2.959,0,0,1-.93,2.13,3.051,3.051,0,0,1-2.13.9,3.067,3.067,0,0,1-2.16-.9,3.1,3.1,0,0,1-.93-2.13,3.093,3.093,0,0,1,.93-2.19A3.317,3.317,0,0,1-75.9-9.78Zm8.04,3.06a6.628,6.628,0,0,0-2.07-4.92,8.471,8.471,0,0,0-6-2.22,8.373,8.373,0,0,0-5.97,2.22,6.628,6.628,0,0,0-2.07,4.92A6.692,6.692,0,0,0-81.9-1.77,8.04,8.04,0,0,0-75.93.45a8.046,8.046,0,0,0,6-2.22A6.692,6.692,0,0,0-67.86-6.72ZM-59.1,0h4.8V-6.63a3.964,3.964,0,0,1,.84-2.94,1.69,1.69,0,0,1,1.32-.48,1.861,1.861,0,0,1,1.44.54,4.29,4.29,0,0,1,.63,2.88V0h4.8V-6.87a3.428,3.428,0,0,1,.87-2.55,1.943,1.943,0,0,1,1.41-.54,1.751,1.751,0,0,1,1.26.45c.54.51.69,1.47.69,2.88V0h4.8V-8.73a4.927,4.927,0,0,0-1.26-3.69,5.33,5.33,0,0,0-3.72-1.23,5.439,5.439,0,0,0-2.79.66,4.712,4.712,0,0,0-1.83,1.86,4.189,4.189,0,0,0-1.86-1.92,5.459,5.459,0,0,0-2.58-.6,5.152,5.152,0,0,0-4.02,1.86v-1.62h-4.8Zm46.41-6.33a7.508,7.508,0,0,0-2.13-5.64,7.346,7.346,0,0,0-5.16-1.83,7.551,7.551,0,0,0-5.49,1.95,7.157,7.157,0,0,0-2.01,5.19A7.023,7.023,0,0,0-25.5-1.59,7.605,7.605,0,0,0-19.95.45c2.91,0,4.47-.9,5.46-1.86a6.028,6.028,0,0,0,1.62-2.76h-4.59a2.234,2.234,0,0,1-.84.9,3.787,3.787,0,0,1-1.56.36,2.7,2.7,0,0,1-1.98-.66,3.387,3.387,0,0,1-.84-2.25h9.99Zm-9.84-2.25a2.737,2.737,0,0,1,.72-1.44,2.579,2.579,0,0,1,1.95-.72,2.8,2.8,0,0,1,1.98.72,3.218,3.218,0,0,1,.78,1.44ZM-3.93,0H.87V-7.2a3.084,3.084,0,0,1,.78-2.13,2.627,2.627,0,0,1,1.77-.63,2.01,2.01,0,0,1,1.53.57,3.85,3.85,0,0,1,.6,2.61V0h4.8V-8.52a4.622,4.622,0,0,0-1.26-3.75,5.423,5.423,0,0,0-3.96-1.44A5.057,5.057,0,0,0,.87-11.73v-1.68h-4.8ZM27.15-9.78a3.3,3.3,0,0,1,2.13.87,3.257,3.257,0,0,1,.93,2.19,2.959,2.959,0,0,1-.93,2.13,3.051,3.051,0,0,1-2.13.9,3.067,3.067,0,0,1-2.16-.9,3.1,3.1,0,0,1-.93-2.13,3.093,3.093,0,0,1,.93-2.19A3.317,3.317,0,0,1,27.15-9.78Zm8.04,3.06a6.628,6.628,0,0,0-2.07-4.92,8.471,8.471,0,0,0-6-2.22,8.373,8.373,0,0,0-5.97,2.22,6.628,6.628,0,0,0-2.07,4.92,6.692,6.692,0,0,0,2.07,4.95A8.04,8.04,0,0,0,27.12.45a8.046,8.046,0,0,0,6-2.22A6.692,6.692,0,0,0,35.19-6.72ZM43.95,0h4.8V-6.63a3.964,3.964,0,0,1,.84-2.94,1.69,1.69,0,0,1,1.32-.48,1.861,1.861,0,0,1,1.44.54,4.29,4.29,0,0,1,.63,2.88V0h4.8V-6.87a3.428,3.428,0,0,1,.87-2.55,1.943,1.943,0,0,1,1.41-.54,1.751,1.751,0,0,1,1.26.45c.54.51.69,1.47.69,2.88V0h4.8V-8.73a4.927,4.927,0,0,0-1.26-3.69,5.33,5.33,0,0,0-3.72-1.23,5.439,5.439,0,0,0-2.79.66,4.712,4.712,0,0,0-1.83,1.86,4.189,4.189,0,0,0-1.86-1.92,5.459,5.459,0,0,0-2.58-.6,5.152,5.152,0,0,0-4.02,1.86v-1.62h-4.8ZM76.14-13.41V0h4.8V-13.41Zm-.3-5.58a2.689,2.689,0,0,0,2.7,2.7,2.689,2.689,0,0,0,2.7-2.7,2.689,2.689,0,0,0-2.7-2.7A2.689,2.689,0,0,0,75.84-18.99ZM100.35-4.32a3.631,3.631,0,0,1-2.46.9,3.258,3.258,0,0,1-2.46-1.02,3.444,3.444,0,0,1-.84-2.25A3.264,3.264,0,0,1,95.52-9a3.146,3.146,0,0,1,2.34-.93,4.278,4.278,0,0,1,2.49.87v-4.02a6.881,6.881,0,0,0-3.12-.75,7.735,7.735,0,0,0-5.4,2.04A7.3,7.3,0,0,0,89.67-6.6a7.018,7.018,0,0,0,2.07,5.01A7.406,7.406,0,0,0,97.02.45a7.12,7.12,0,0,0,3.33-.75Zm7.89,3.21a9.894,9.894,0,0,0,5.4,1.56,6.972,6.972,0,0,0,4.95-1.68,4.482,4.482,0,0,0,1.35-3.33,3.792,3.792,0,0,0-1.02-2.67,5.667,5.667,0,0,0-1.98-1.05l-.87-.24c-.75-.21-1.14-.21-1.59-.39a.781.781,0,0,1-.57-.75.719.719,0,0,1,.42-.66,2.027,2.027,0,0,1,1.11-.27,6.642,6.642,0,0,1,2.52.66l1.62-3.06a11.068,11.068,0,0,0-4.29-.87,6.771,6.771,0,0,0-4.8,1.62,4.792,4.792,0,0,0-1.26,3.27,3.244,3.244,0,0,0,.87,2.31,4.314,4.314,0,0,0,2.34,1.17l1.26.3a2.993,2.993,0,0,1,1.26.48.712.712,0,0,1,.24.6.769.769,0,0,1-.24.63,2.035,2.035,0,0,1-1.23.36,6.247,6.247,0,0,1-1.86-.33,6.868,6.868,0,0,1-1.92-.99Z" transform="translate(120.75 21.69)" fill="#fff"/>
</svg>
