<svg height="29.992" viewBox="0 0 100.239 29.992" width="100.239" xmlns="http://www.w3.org/2000/svg"><path d="m-3.228-3.42c1.272 0 2.172-1.044 2.172-2.832s-.9-2.8-2.172-2.8-2.16 1.02-2.16 2.8.888 2.832 2.16 2.832zm0-1c-.516 0-.912-.528-.912-1.836s.4-1.8.912-1.8.924.492.924 1.8-.408 1.84-.924 1.84zm.3 4.584h1.028l4.84-9.212h-1.04zm6.156 0c1.26.004 2.172-1.052 2.172-2.828s-.912-2.808-2.172-2.808-2.16 1.02-2.16 2.808.9 2.832 2.16 2.832zm0-1.008c-.516 0-.924-.516-.924-1.824s.408-1.812.924-1.812.924.5.924 1.812-.408 1.828-.924 1.828z" fill="#e76d2b" transform="translate(94.839 28.414)"/><path d="m-63.427-16.771-3.16-2.347 6.819-9.3q-.554.074-.942.111t-.628.037a8.021 8.021 0 0 1 -5.987-2.643 8.809 8.809 0 0 1 -2.513-6.32 9.168 9.168 0 0 1 2.79-6.727 9.177 9.177 0 0 1 6.727-2.809 9.465 9.465 0 0 1 6.782 2.772 8.7 8.7 0 0 1 2.883 6.5 12.49 12.49 0 0 1 -2.81 7.197zm-2.218-20.771a5.272 5.272 0 0 0 1.571 3.881 5.215 5.215 0 0 0 3.825 1.589 5.184 5.184 0 0 0 3.807-1.571 5.215 5.215 0 0 0 1.589-3.825 5.215 5.215 0 0 0 -1.589-3.825 5.206 5.206 0 0 0 -3.825-1.571 5.163 5.163 0 0 0 -3.788 1.571 5.13 5.13 0 0 0 -1.589 3.752zm29.583 15.742h10.626v4.047h-19.164l9.9-11.993q1.46-1.793 2.449-3.1a23.6 23.6 0 0 0 1.506-2.2 6.181 6.181 0 0 0 1.053-3.123 4.451 4.451 0 0 0 -1.4-3.345 4.821 4.821 0 0 0 -3.474-1.349q-4.324 0-4.952 5.119h-4.282q1.035-9.018 9.11-9.018a9.2 9.2 0 0 1 6.542 2.476 8.043 8.043 0 0 1 2.661 6.135 9.32 9.32 0 0 1 -1.238 4.564 22.361 22.361 0 0 1 -1.839 2.763q-1.21 1.6-3.058 3.779zm20.177 1.977a2.45 2.45 0 0 1 .758-1.793 2.471 2.471 0 0 1 1.811-.758 2.471 2.471 0 0 1 1.811.758 2.471 2.471 0 0 1 .758 1.811 2.493 2.493 0 0 1 -.758 1.829 2.463 2.463 0 0 1 -1.811.739 2.485 2.485 0 0 1 -1.829-.739 2.507 2.507 0 0 1 -.74-1.844zm27.476-22.431h-14.081v-4.029h21.27l-18 29.512-3.419-2.162z" fill="#e76c2b" transform="translate(69.839 46.763)"/></svg>