<svg height="29.731" viewBox="0 0 146.604 29.731" width="146.604" xmlns="http://www.w3.org/2000/svg"><path d="m-63.813-19.682-2.97-2.206 6.408-8.735q-.521.069-.886.1t-.59.035a7.538 7.538 0 0 1 -5.627-2.483 8.279 8.279 0 0 1 -2.362-5.939 8.615 8.615 0 0 1 2.622-6.321 8.624 8.624 0 0 1 6.321-2.64 8.9 8.9 0 0 1 6.373 2.6 8.18 8.18 0 0 1 2.709 6.113 11.737 11.737 0 0 1 -2.64 6.755zm-2.087-19.518a4.954 4.954 0 0 0 1.476 3.647 4.9 4.9 0 0 0 3.595 1.494 4.872 4.872 0 0 0 3.577-1.476 4.9 4.9 0 0 0 1.493-3.595 4.9 4.9 0 0 0 -1.493-3.595 4.892 4.892 0 0 0 -3.591-1.475 4.852 4.852 0 0 0 -3.56 1.476 4.821 4.821 0 0 0 -1.497 3.524zm27.8 14.8h9.986v3.8h-18.005l9.308-11.271q1.372-1.685 2.3-2.918a22.178 22.178 0 0 0 1.415-2.067 5.809 5.809 0 0 0 .99-2.935 4.183 4.183 0 0 0 -1.32-3.143 4.531 4.531 0 0 0 -3.264-1.266q-4.064 0-4.654 4.81h-4.029q.973-8.475 8.562-8.475a8.648 8.648 0 0 1 6.148 2.327 7.559 7.559 0 0 1 2.5 5.766 8.759 8.759 0 0 1 -1.164 4.289 21.014 21.014 0 0 1 -1.728 2.6q-1.137 1.5-2.874 3.551zm18.961 1.858a2.3 2.3 0 0 1 .712-1.685 2.323 2.323 0 0 1 1.7-.712 2.323 2.323 0 0 1 1.7.712 2.323 2.323 0 0 1 .712 1.7 2.343 2.343 0 0 1 -.712 1.719 2.314 2.314 0 0 1 -1.7.695 2.335 2.335 0 0 1 -1.719-.695 2.356 2.356 0 0 1 -.689-1.74zm28.287-5.54h2.852v3.682h-2.848v3.8h-4.046v-3.8h-13.164l17.21-25.014zm-4.046 0v-8.978l-6.182 8.978z" fill="#e76c2b" transform="translate(117.204 49.414)"/><path d="m-3.228-3.42c1.272 0 2.172-1.044 2.172-2.832s-.9-2.8-2.172-2.8-2.16 1.02-2.16 2.8.888 2.832 2.16 2.832zm0-1c-.516 0-.912-.528-.912-1.836s.4-1.8.912-1.8.924.492.924 1.8-.408 1.84-.924 1.84zm.3 4.584h1.028l4.84-9.212h-1.04zm6.156 0c1.26.004 2.172-1.052 2.172-2.828s-.912-2.808-2.172-2.808-2.16 1.02-2.16 2.808.9 2.832 2.16 2.832zm0-1.008c-.516 0-.924-.516-.924-1.824s.408-1.812.924-1.812.924.5.924 1.812-.408 1.828-.924 1.828z" fill="#e76d2b" transform="translate(141.204 28.414)"/><path d="m-11.94-.9h-2.076v-.78h2.076zm3.84-3.456h-9.624v5.4h1.392v-4.212h6.792v2.676c0 .144-.048.18-.228.192-.132.012-.5.012-.912 0v-2.328h-4.584v3.228h1.248v-.54h3.1a4.047 4.047 0 0 1 .276.96 4.79 4.79 0 0 0 1.94-.228c.468-.216.6-.6.6-1.26zm-3.036-1.464h-3.744v-.732h3.744zm-5.1-1.68v2.64h6.552v-2.64zm3.924-1.668v-1.008h-1.452v1.008h-4.436v1.212h10.484v-1.212zm10.944-.624h-3.624v1.08h3.624zm.456 1.608h-4.688v1.128h4.688zm-1.68 6.1v1.38h-1.272v-1.38zm1.236-1.128h-3.72v4.088h1.212v-.468h2.508zm-3.684-.588h3.7v-1.072h-3.7zm0-1.62h3.7v-1.096h-3.7zm10.64 1.028h-2.648v-3.852h2.436v-1.332h-6.072v1.332h2.232v3.852h-2.648v1.356h2.648v4.068h1.4v-4.068h2.652zm-6.188-3.12a14.42 14.42 0 0 1 .488 2.812l1.2-.288a14.3 14.3 0 0 0 -.54-2.76zm4.988 2.784c.3-.72.624-1.848.924-2.856l-1.352-.264a17.568 17.568 0 0 1 -.66 2.848zm5.34-5.412a12.458 12.458 0 0 1 -2.6 4.356 10.862 10.862 0 0 1 .732 1.44 9.312 9.312 0 0 0 .728-.888v6.264h1.348v-8.4a20.828 20.828 0 0 0 1.08-2.364zm5.208 3.924h-.788v-1.5h.792zm2 5.088h-.8v-3.852h.8zm-4.748-3.852h.744v3.852h-.744zm2.748 0v3.852h-.8v-3.852zm3.432-2.736v-1.272h-7.62v1.272h2.052v1.5h-1.928v7h1.316v-.684h4.752v.608h1.368v-6.924h-2.02v-1.5z" fill="#e76c2b" transform="translate(18.204 20.414)"/></svg>