<svg height="337.5" viewBox="0 0 352.054 337.5" width="352.054" xmlns="http://www.w3.org/2000/svg"><path d="m12.978-9.688v-1.036h-11.956v1.036h6.188a16.242 16.242 0 0 1 -6.538 6.1 7.16 7.16 0 0 1 .7.91 17.952 17.952 0 0 0 5.068-4.07v7.784h1.106v-9.184c.35-.518.686-1.022.994-1.54zm-5.152 3.01a31.24 31.24 0 0 1 4.718 3.808l.826-.8a31.953 31.953 0 0 0 -4.77-3.68zm12.11-1.2a16.019 16.019 0 0 1 -1.078 4.634c-.532-.378-1.092-.728-1.624-1.036.28-1.106.574-2.352.854-3.6zm.434-.994-.182.042h-1.888c.21-.966.406-1.9.574-2.758l-.994-.112c-.154.868-.35 1.862-.574 2.87h-1.528v.952h1.33c-.392 1.75-.812 3.472-1.148 4.676l.868.448.154-.588c.49.308.98.644 1.442.994a6.156 6.156 0 0 1 -2.534 2.6 4.066 4.066 0 0 1 .644.84 7.443 7.443 0 0 0 2.688-2.814 10.49 10.49 0 0 1 1.428 1.4l.63-.826a9.867 9.867 0 0 0 -1.6-1.484 18.641 18.641 0 0 0 1.3-6.1zm8.176 3.948v-.98h-3.346v-4.176a21.062 21.062 0 0 0 2.87-.826l-.868-.756a30.458 30.458 0 0 1 -6.202 1.386 3.031 3.031 0 0 1 .308.84c.924-.112 1.89-.266 2.842-.434v3.962h-3.25v.98h3.25v4.676h-3.066v.98h7.224v-.98h-3.108v-4.676zm6.286-5.222a10.248 10.248 0 0 0 -2.674-1.47l-.574.784a10.118 10.118 0 0 1 2.632 1.532zm-.7 3.6a11.79 11.79 0 0 0 -2.73-1.3l-.574.8a11.82 11.82 0 0 1 2.7 1.4zm-1.96 7.428c.812-1.3 1.778-3.038 2.506-4.508l-.77-.672a41.025 41.025 0 0 1 -2.618 4.48zm9.24-4.438v3.066h-4.746v-3.066zm-5.754 4.634h1.008v-.616h4.746v.574h1.036v-5.558h-6.79zm4.242-10.22c.532.6 1.106 1.316 1.61 2.016-1.6.084-3.192.154-4.578.224.672-1.33 1.414-3.08 1.988-4.536l-1.19-.294a30.883 30.883 0 0 1 -1.918 4.872l-1.33.056.126 1.022c1.946-.112 4.774-.252 7.518-.42a9 9 0 0 1 .644 1.134l.952-.532a20.562 20.562 0 0 0 -2.922-3.99zm7.84 2.59a10.69 10.69 0 0 0 -.924-2.674l-.784.308a10.771 10.771 0 0 1 .868 2.744zm11-2.968v-.91h-5.148v-1.27h-1.078v1.274h-4.564v4.494c0 .336 0 .686-.014 1.05-.812.434-1.554.826-2.1 1.078l.336.924c.546-.308 1.12-.644 1.694-.994a7.36 7.36 0 0 1 -1.652 4.252 3.825 3.825 0 0 1 .728.7c1.708-1.918 1.988-4.886 1.988-7.014v-3.584zm-7.668 7.77a6.828 6.828 0 0 1 -2.114 1.974 3.385 3.385 0 0 1 .77.616 8.794 8.794 0 0 0 2.282-2.324zm4.466.42a12.4 12.4 0 0 1 2.128 2.212l.812-.476a13.128 13.128 0 0 0 -2.17-2.142zm-3.514-4.508a7.874 7.874 0 0 0 1.274-1.6h1.316a8.421 8.421 0 0 0 1.26 1.6zm4.116 1.554h-4.452v-.868h4.452zm0 1.54h-4.452v-.882h4.452zm1.526-4.578a12.711 12.711 0 0 1 -1.066 1.008 7.626 7.626 0 0 1 -1.022-1.12h3v-.826h-4.818a7.8 7.8 0 0 0 .42-1.078l-.966-.126a6.6 6.6 0 0 1 -.49 1.2h-3.164v.826h2.646a6.979 6.979 0 0 1 -.91 1.05 10.762 10.762 0 0 0 -1.12-.854l-.56.49a9.283 9.283 0 0 1 1.092.868 8.6 8.6 0 0 1 -1.75 1.084 2.324 2.324 0 0 1 .644.686 8.872 8.872 0 0 0 1.19-.7v2.758h2.6v2.1c0 .154-.028.182-.224.182s-.77.028-1.456 0a2.932 2.932 0 0 1 .336.854 6.388 6.388 0 0 0 1.876-.14c.382-.14.476-.38.476-.87v-2.128h2.674v-2.786a7.668 7.668 0 0 0 1.176.672 3.946 3.946 0 0 1 .616-.742 7.216 7.216 0 0 1 -1.722-.952 10.929 10.929 0 0 0 1.166-.994zm6.944-4.3a14.387 14.387 0 0 1 -3.794 5.614 5.957 5.957 0 0 1 .63 1.05 14.2 14.2 0 0 0 1.654-1.842v7.85h1.02v-9.35a20.8 20.8 0 0 0 1.526-3zm9.17 4.466v-1.006h-4.046v-3.36h-1.022v3.36h-3.934v1.008h3.388a14.222 14.222 0 0 1 -3.878 5.726 6.04 6.04 0 0 1 .784.8 15.632 15.632 0 0 0 3.64-5.39v7.1h1.022v-7.396a17 17 0 0 0 3.626 5.628 3.729 3.729 0 0 1 .784-.84 14.772 14.772 0 0 1 -3.808-5.628zm14.812-3.934h-3.556v.9h2.632v2.52h-2.632v.9h3.556zm-9.436 1.276v3.164h-1.61v-3.164zm-1.61 7.35v-3.262h1.61v3.262zm2.478-8.274h-3.332v10.3h.854v-1.088h2.478zm3.542.532v2.562h-1.708v-2.562zm.868 8.456v-.882h-2.576v-1.736h2.342v-.882h-2.342v-1.5h2.632v-4.34h-3.6v12.126h.966v-2.786zm3.22-3.066a8.975 8.975 0 0 1 -1.022 2.548 9.862 9.862 0 0 1 -.938-2.548zm.49-.91-.154.026h-3.374v.882h1.008l-.714.154a12.734 12.734 0 0 0 1.148 3.178 6.136 6.136 0 0 1 -2.394 1.78 2.841 2.841 0 0 1 .532.756 7.164 7.164 0 0 0 2.38-1.708 5.559 5.559 0 0 0 1.806 1.68 3.751 3.751 0 0 1 .644-.756 5.107 5.107 0 0 1 -1.862-1.652 10.16 10.16 0 0 0 1.582-4.172zm7.272-4.7a.617.617 0 0 0 -.612-.612.617.617 0 0 0 -.612.612.617.617 0 0 0 .612.612.617.617 0 0 0 .612-.617zm-3.307-.6-.237.237 2.694 2.689-2.7 2.7.237.237 2.7-2.7 2.697 2.692.237-.237-2.697-2.692 2.695-2.7-.237-.237-2.698 2.697zm.367 2.319a.617.617 0 0 0 -.612.612.617.617 0 0 0 .612.612.617.617 0 0 0 .612-.612.617.617 0 0 0 -.612-.621zm4.654 1.216a.617.617 0 0 0 .612-.612.617.617 0 0 0 -.612-.612.617.617 0 0 0 -.612.612.617.617 0 0 0 .612.612zm-2.94 1.715a.617.617 0 0 0 .612.612.617.617 0 0 0 .612-.612.617.617 0 0 0 -.612-.612.617.617 0 0 0 -.611.612z" transform="translate(54 197)"/><path d="m4.1-9.856v3.108h-2.028v-3.108zm-2.028 7.256v-3.238h2.028v3.238zm3.01-8.19h-3.962v10.258h.952v-1.134h3.01zm1.148 7.836a10.8 10.8 0 0 1 1.778 2.464l.882-.56a9.9 9.9 0 0 0 -1.82-2.38zm7.224-3.472v-.924h-3.612v-1.778h3.01v-.924h-3.01v-1.666h-1.022v1.666h-2.912v.924h2.912v1.778h-3.514v.924h5.362v1.582h-5.292v.924h5.292v3.738c0 .21-.07.266-.308.28s-.994.014-1.86-.014a3.179 3.179 0 0 1 .336.966 8.01 8.01 0 0 0 2.264-.168c.42-.154.574-.462.574-1.05v-3.752h1.626v-.924h-1.624v-1.582zm7.028-3.874v1.162h-3.024v-1.162zm-3.024 3.16v-1.232h3.024v1.232zm4.018.8v-4.774h-5.054v12.192h1.036v-7.42zm2.254 1.846v1.3h-3.29v-1.3zm-3.29 3.444v-1.358h3.29v1.358zm4.26.826v-5.068h-5.2v5.768h.938v-.7zm-.98-6.9v-1.248h3.136v1.246zm3.132-3.176v1.162h-3.136v-1.162zm1.05-.812h-5.18v4.788h4.13v6.002c0 .252-.084.336-.322.336s-1.106.028-1.96-.014a3.834 3.834 0 0 1 .364 1.064 7.969 7.969 0 0 0 2.352-.182c.462-.182.614-.532.614-1.19zm5.474 6.562v-1.5h3.3v1.5zm0-3.822h3.3v1.5h-3.3zm7.826 1.5h-3.472v-1.5h3.47zm0 2.324h-3.472v-1.5h3.47zm2.268 2.154h-5.74v-1.274h4.536v-5.586h-1.466c.462-.6.98-1.372 1.414-2.072l-1.12-.364a14.637 14.637 0 0 1 -1.47 2.436h-2.496l.8-.322a9.578 9.578 0 0 0 -1.148-2.156l-.924.35a9.232 9.232 0 0 1 1.078 2.128h-3.01l.714-.364a11.412 11.412 0 0 0 -1.428-1.946l-.882.392a10.687 10.687 0 0 1 1.316 1.918h-1.29v5.586h4.326v1.274h-5.642v.966h5.642v2.506h1.05v-2.506h5.74zm6.5-6.58v.98h8.5v-.98h-3.828v-2.576h-1.05v2.576zm3.22 7.532a35.56 35.56 0 0 0 -1.134-5.614l-.924.168a34.635 34.635 0 0 1 1.036 5.67zm-3.92-10.234a15.383 15.383 0 0 1 -3.584 5.488 8.815 8.815 0 0 1 .6 1.022 14.417 14.417 0 0 0 1.54-1.82v8.008h.98v-9.506a21.228 21.228 0 0 0 1.428-2.884zm6.198 11.116a58.591 58.591 0 0 0 1.848-6.426l-1.12-.2a46.22 46.22 0 0 1 -1.736 6.626h-4.83v.98h9.184v-.98zm15.26-6.706-.714.308a13 13 0 0 1 1.148 1.974l.714-.336a16.616 16.616 0 0 0 -1.148-1.946zm1.526-.588-.7.322a12.47 12.47 0 0 1 1.19 1.946l.728-.336a21.147 21.147 0 0 0 -1.218-1.932zm-10.612-1.358.126 1.232c1.5-.308 5.278-.672 6.5-.812a5.6 5.6 0 0 0 -2.576 4.676c0 3.094 2.926 4.466 5.488 4.578l.406-1.176c-2.254-.084-4.774-.938-4.774-3.64a4.848 4.848 0 0 1 3.164-4.382 11.488 11.488 0 0 1 2.716-.224v-1.12c-.924.042-2.226.112-3.738.238-2.548.224-5.166.476-6.076.56-.27.028-.704.056-1.236.07zm19.474 1.2h-2.73v-1.858h2.73zm-2.73 3.822h2.73v1.722c-.938.14-1.876.28-2.73.392zm2.73-.952h-2.73v-1.942h2.73zm1.984-4.728v-.966h-6.79v.966h1.092v7.938c-.5.07-.966.126-1.358.168l.182 1.05c1.33-.224 3.122-.49 4.886-.784v2.534h1.008v-10.906zm4.844.028-.2.042h-5v1.022h4.718a15.36 15.36 0 0 1 -1.736 5.236 18.032 18.032 0 0 1 -1.722-5.18l-.994.182a19.5 19.5 0 0 0 2.086 5.978 8.541 8.541 0 0 1 -2.94 2.59 4 4 0 0 1 .686.84 9.991 9.991 0 0 0 2.856-2.492 8.758 8.758 0 0 0 2.796 2.534 4.339 4.339 0 0 1 .742-.854 7.776 7.776 0 0 1 -2.884-2.6 17.026 17.026 0 0 0 2.268-7.1zm14.126.476h-4.602v-1.12h4.606zm0 1.89h-4.602v-1.134h4.606zm1.036-3.794h-6.646v4.592h6.65zm-8.848-.392a10.731 10.731 0 0 1 -2.968 2.856 4.538 4.538 0 0 1 .546.84 14 14 0 0 0 3.416-3.318zm.252 3.052a13.139 13.139 0 0 1 -3.44 3.78 6.521 6.521 0 0 1 .546.994 13.514 13.514 0 0 0 1.638-1.512v6.412h1.022v-7.588a16 16 0 0 0 1.148-1.722zm1.974 6.566a12.547 12.547 0 0 1 1.726 2.03l.8-.56a12.323 12.323 0 0 0 -1.78-1.946zm7.532-1.61h-2.086v-1.19h1.834v-.9h-8.158v.9h5.294v1.19h-5.616v.9h5.616v2.654c0 .182-.056.238-.28.252-.2.014-.9.014-1.68-.014a3.517 3.517 0 0 1 .336.952 7.17 7.17 0 0 0 2.124-.166c.406-.168.532-.434.532-.994v-2.688h2.086zm12.068-3.612-.714.308a13 13 0 0 1 1.148 1.974l.714-.336a16.617 16.617 0 0 0 -1.144-1.946zm1.526-.588-.7.322a12.469 12.469 0 0 1 1.19 1.946l.728-.336a21.147 21.147 0 0 0 -1.214-1.932zm-10.61-1.358.126 1.232c1.5-.308 5.278-.672 6.5-.812a5.6 5.6 0 0 0 -2.576 4.676c0 3.094 2.926 4.466 5.488 4.578l.406-1.176c-2.254-.084-4.774-.938-4.774-3.64a4.848 4.848 0 0 1 3.164-4.382 11.488 11.488 0 0 1 2.716-.224v-1.12c-.924.042-2.226.112-3.738.238-2.548.224-5.166.476-6.076.56-.268.028-.702.056-1.236.07zm16.912 5.46a6.26 6.26 0 0 0 -.322 1.736c0 1.736 1.456 2.59 3.934 2.59a21.474 21.474 0 0 0 3.346-.266l.03-1.134a16.651 16.651 0 0 1 -3.416.322c-1.974 0-2.814-.672-2.814-1.736a4.742 4.742 0 0 1 .322-1.414zm8.834-3.794a14.458 14.458 0 0 1 -2.562.686c-.238-.518-.434-.952-.546-1.246l-.252-.574a19.151 19.151 0 0 0 2.576-.588l-.2-.994a15.606 15.606 0 0 1 -2.758.658 14.24 14.24 0 0 1 -.518-1.54l-1.26.266a9.993 9.993 0 0 1 .518.98c.056.126.112.266.182.42a25.21 25.21 0 0 1 -4.526-.112l.07 1.022a28.429 28.429 0 0 0 4.872.028c.1.224.2.476.308.714l.49 1.134a27.677 27.677 0 0 1 -5.824.028l.042 1.022a33.329 33.329 0 0 0 6.2-.126c.322.728.644 1.456.91 2-.434-.042-1.092-.112-1.764-.2l-.1.854c.882.112 2 .266 2.7.392l.546-.686c-.392-.728-.84-1.666-1.246-2.548a18.466 18.466 0 0 0 2.352-.588zm10.32 7.084c-1.036 0-1.834-.392-1.834-1.078 0-.476.476-.854 1.106-.854a1.851 1.851 0 0 1 1.834 1.848 6.829 6.829 0 0 1 -1.106.084zm2.856-10.066a4.964 4.964 0 0 1 -.756.112c-.728.07-4.018.168-4.732.168a7.872 7.872 0 0 1 -.98-.042l.028 1.162a6.675 6.675 0 0 1 .938-.084c.714-.042 3.444-.168 4.172-.2-.686.616-2.408 2.072-3.178 2.716-.812.672-2.59 2.156-3.738 3.108l.812.826c1.764-1.792 3.024-2.758 5.306-2.758 1.75 0 3.122.994 3.122 2.352a2.418 2.418 0 0 1 -1.722 2.352 2.737 2.737 0 0 0 -2.856-2.45 1.97 1.97 0 0 0 -2.142 1.82c0 1.148 1.162 1.988 3.052 1.988 2.926 0 4.788-1.456 4.788-3.7 0-1.876-1.666-3.276-3.976-3.276a5.891 5.891 0 0 0 -1.876.294c1.064-.9 2.926-2.534 3.612-3.052.21-.154.518-.364.77-.532z" transform="translate(-1 333)"/><path d="m12.978-9.688v-1.036h-11.956v1.036h6.188a16.242 16.242 0 0 1 -6.538 6.1 7.16 7.16 0 0 1 .7.91 17.952 17.952 0 0 0 5.068-4.07v7.784h1.106v-9.184c.35-.518.686-1.022.994-1.54zm-5.152 3.01a31.24 31.24 0 0 1 4.718 3.808l.826-.8a31.953 31.953 0 0 0 -4.77-3.68zm12.11-1.2a16.019 16.019 0 0 1 -1.078 4.634c-.532-.378-1.092-.728-1.624-1.036.28-1.106.574-2.352.854-3.6zm.434-.994-.182.042h-1.888c.21-.966.406-1.9.574-2.758l-.994-.112c-.154.868-.35 1.862-.574 2.87h-1.528v.952h1.33c-.392 1.75-.812 3.472-1.148 4.676l.868.448.154-.588c.49.308.98.644 1.442.994a6.156 6.156 0 0 1 -2.534 2.6 4.066 4.066 0 0 1 .644.84 7.443 7.443 0 0 0 2.688-2.814 10.49 10.49 0 0 1 1.428 1.4l.63-.826a9.867 9.867 0 0 0 -1.6-1.484 18.641 18.641 0 0 0 1.3-6.1zm8.176 3.948v-.98h-3.346v-4.176a21.062 21.062 0 0 0 2.87-.826l-.868-.756a30.458 30.458 0 0 1 -6.202 1.386 3.031 3.031 0 0 1 .308.84c.924-.112 1.89-.266 2.842-.434v3.962h-3.25v.98h3.25v4.676h-3.066v.98h7.224v-.98h-3.108v-4.676zm6.286-5.222a10.248 10.248 0 0 0 -2.674-1.47l-.574.784a10.118 10.118 0 0 1 2.632 1.532zm-.7 3.6a11.79 11.79 0 0 0 -2.73-1.3l-.574.8a11.82 11.82 0 0 1 2.7 1.4zm-1.96 7.428c.812-1.3 1.778-3.038 2.506-4.508l-.77-.672a41.025 41.025 0 0 1 -2.618 4.48zm9.24-4.438v3.066h-4.746v-3.066zm-5.754 4.634h1.008v-.616h4.746v.574h1.036v-5.558h-6.79zm4.242-10.22c.532.6 1.106 1.316 1.61 2.016-1.6.084-3.192.154-4.578.224.672-1.33 1.414-3.08 1.988-4.536l-1.19-.294a30.883 30.883 0 0 1 -1.918 4.872l-1.33.056.126 1.022c1.946-.112 4.774-.252 7.518-.42a9 9 0 0 1 .644 1.134l.952-.532a20.562 20.562 0 0 0 -2.922-3.99zm7.84 2.59a10.69 10.69 0 0 0 -.924-2.674l-.784.308a10.771 10.771 0 0 1 .868 2.744zm11-2.968v-.91h-5.148v-1.27h-1.078v1.274h-4.564v4.494c0 .336 0 .686-.014 1.05-.812.434-1.554.826-2.1 1.078l.336.924c.546-.308 1.12-.644 1.694-.994a7.36 7.36 0 0 1 -1.652 4.252 3.825 3.825 0 0 1 .728.7c1.708-1.918 1.988-4.886 1.988-7.014v-3.584zm-7.668 7.77a6.828 6.828 0 0 1 -2.114 1.974 3.385 3.385 0 0 1 .77.616 8.794 8.794 0 0 0 2.282-2.324zm4.466.42a12.4 12.4 0 0 1 2.128 2.212l.812-.476a13.128 13.128 0 0 0 -2.17-2.142zm-3.514-4.508a7.874 7.874 0 0 0 1.274-1.6h1.316a8.421 8.421 0 0 0 1.26 1.6zm4.116 1.554h-4.452v-.868h4.452zm0 1.54h-4.452v-.882h4.452zm1.526-4.578a12.711 12.711 0 0 1 -1.066 1.008 7.626 7.626 0 0 1 -1.022-1.12h3v-.826h-4.818a7.8 7.8 0 0 0 .42-1.078l-.966-.126a6.6 6.6 0 0 1 -.49 1.2h-3.164v.826h2.646a6.979 6.979 0 0 1 -.91 1.05 10.762 10.762 0 0 0 -1.12-.854l-.56.49a9.283 9.283 0 0 1 1.092.868 8.6 8.6 0 0 1 -1.75 1.084 2.324 2.324 0 0 1 .644.686 8.872 8.872 0 0 0 1.19-.7v2.758h2.6v2.1c0 .154-.028.182-.224.182s-.77.028-1.456 0a2.932 2.932 0 0 1 .336.854 6.388 6.388 0 0 0 1.876-.14c.382-.14.476-.38.476-.87v-2.128h2.674v-2.786a7.668 7.668 0 0 0 1.176.672 3.946 3.946 0 0 1 .616-.742 7.216 7.216 0 0 1 -1.722-.952 10.929 10.929 0 0 0 1.166-.994zm6.944-4.3a14.387 14.387 0 0 1 -3.794 5.614 5.957 5.957 0 0 1 .63 1.05 14.2 14.2 0 0 0 1.654-1.842v7.85h1.02v-9.35a20.8 20.8 0 0 0 1.526-3zm9.17 4.466v-1.006h-4.046v-3.36h-1.022v3.36h-3.934v1.008h3.388a14.222 14.222 0 0 1 -3.878 5.726 6.04 6.04 0 0 1 .784.8 15.632 15.632 0 0 0 3.64-5.39v7.1h1.022v-7.396a17 17 0 0 0 3.626 5.628 3.729 3.729 0 0 1 .784-.84 14.772 14.772 0 0 1 -3.808-5.628zm10.906-1.19a12.8 12.8 0 0 1 -.714 1.456l.14.042h-3.29l.448-.1a5.44 5.44 0 0 0 -.7-1.4zm4.014 6.092v-.882h-5.61v-1.036h4.382v-.8h-4.382v-1.02h5.068v-.854h-3.178c.28-.42.588-.966.868-1.5h2.8v-.9h-2.17a19.576 19.576 0 0 0 1.232-2.016l-1.064-.28a15.883 15.883 0 0 1 -1.064 2.128l.518.168h-1.694v-2.478h-.98v2.484h-1.666v-2.478h-.966v2.478h-1.722l.714-.266a9.65 9.65 0 0 0 -1.19-2.058l-.882.294a10.913 10.913 0 0 1 1.106 2.03h-2.226v.9h3.416l-.49.1a5.878 5.878 0 0 1 .686 1.4h-3.052v.854h4.914v1.016h-4.214v.8h4.214v1.036h-5.53v.882h4.578a13.493 13.493 0 0 1 -4.942 2.21 4.458 4.458 0 0 1 .672.882 14.069 14.069 0 0 0 5.222-2.758v2.982h1.022v-3.052a13.217 13.217 0 0 0 5.264 2.87 3.743 3.743 0 0 1 .7-.924 12.809 12.809 0 0 1 -5-2.212z" transform="translate(263 197)"/><g fill="#1778b1"><path d="m19.556-58.271h-20.918l-3.338 11.25q.747-.088 1.428-.132t1.252-.044a21.351 21.351 0 0 1 16.216 6.68q6.372 6.636 6.372 17.007 0 10.723-7.207 17.666t-18.151 6.944q-13.491 0-21.27-12.656l7.734-6.548q3.208 5.449 6.46 7.69a13.878 13.878 0 0 0 7.954 2.2 13.809 13.809 0 0 0 10.328-4.31 15.142 15.142 0 0 0 4.175-10.767 14.394 14.394 0 0 0 -4.131-10.635 13.788 13.788 0 0 0 -10.327-4.262q-6.9 0-11.909 6.021h-3.384l10.679-35.685h28.037z" transform="translate(81 294)"/><path d="m4.48-3.36v-2.128h2.42v2.128zm8.932 0h-4.788v-2.128h3.7v-1.54h-3.7v-1.68h4.018v-1.61h-7.91a8.938 8.938 0 0 0 .462-1.148l-1.694-.434a10.8 10.8 0 0 1 -2.94 4.662 12.885 12.885 0 0 1 1.44 1.078 12.582 12.582 0 0 0 1.9-2.548h3v1.68h-4.086v3.668h-2.214v1.6h6.3v3h1.724v-3h4.788z" transform="translate(28 291)"/><path d="m3.892-1.54v-3.136h6.216v3.136zm6.216-7.8v3.01h-6.216v-3.01zm-7.938-1.678v12.068h1.722v-.91h6.216v.882h1.792v-12.04zm17.892.9v.742h-2.156v-.742zm-2.156 2.66v-.8h2.156v.8zm3.71 1.19v-5.054h-5.362v12.54h1.652v-7.49zm2.548-1.162v-.83h2.226v.826zm2.226-2.688v.742h-2.226v-.742zm-5.46 8.818v-.87h2.31v.87zm2.31-2.9v.84h-2.31v-.84zm4.83-7.126h-5.488v5.082h3.808v5.474c0 .224-.084.308-.336.308-.182.014-.7.014-1.246 0v-4.97h-5.39v6.062h1.512v-.714h3.47a6.164 6.164 0 0 1 .364 1.3 6.049 6.049 0 0 0 2.564-.316c.56-.266.742-.756.742-1.652z" transform="translate(111 291)"/><path d="m-4.482-31.509v-8.745q6.5 0 8.745-1.45 4-2.549 4-8.174a9.265 9.265 0 0 0 -2.9-7.075 10.222 10.222 0 0 0 -7.427-2.769 9.609 9.609 0 0 0 -6.592 2.065q-2.244 2.11-3.344 7.12h-10.2q1.582-9.58 6.5-14.041t13.755-4.46q8.921 0 14.546 5.273a17.588 17.588 0 0 1 5.625 13.491 16.718 16.718 0 0 1 -7.383 14.5q8.438 4.966 8.438 16.128a19.616 19.616 0 0 1 -6.141 14.946q-6.153 5.8-15.777 5.8-12.263 0-18.193-9.01-2.461-3.779-3.12-10.459h9.888a12.023 12.023 0 0 0 3.845 7.537 11.836 11.836 0 0 0 7.976 2.614 11.06 11.06 0 0 0 8.218-3.3 11.866 11.866 0 0 0 3.252-8.569q0-6.855-4.878-9.756-2.857-1.666-8.833-1.666z" transform="translate(296 294)"/><path d="m9.94-9.772h-5.94v-.574h5.94zm0 1.6h-5.94v-.588h5.94zm1.666-3.234h-9.2v4.3h9.2zm-.8 7.924a5.862 5.862 0 0 1 -.952 1.372 5.42 5.42 0 0 1 -.938-1.372zm-7.418 1.662h1.82v.546c-.616.056-1.232.1-1.82.14zm0-1.736h1.82v.588h-1.82zm1.82-1.722v.56h-1.82v-.56zm6.58.462-.28.056h-4.354v1.274h1.288l-.924.252a8.574 8.574 0 0 0 1.274 2.072 7.188 7.188 0 0 1 -1.992 1.008v-5.124h6.412v-1.316h-12.442v1.316h1.092v4.256c-.434.042-.854.056-1.218.084l.126 1.428c1.23-.112 2.83-.252 4.438-.406v1.134h1.592v-1.134a6.189 6.189 0 0 1 .746 1.116 9.122 9.122 0 0 0 2.38-1.3 7.843 7.843 0 0 0 2.6 1.3 6.9 6.9 0 0 1 .98-1.3 7.827 7.827 0 0 1 -2.464-1.036 8.346 8.346 0 0 0 1.764-3.29zm16.548-1.568v-1.722h-5.5c.14-1.3.154-2.59.168-3.738h-1.82c-.014 1.148 0 2.422-.14 3.738h-5.1v1.722h4.816a8.393 8.393 0 0 1 -5.08 6.16 4.933 4.933 0 0 1 1.246 1.414 9.636 9.636 0 0 0 5.236-5.95 10.443 10.443 0 0 0 5.25 5.936 6.7 6.7 0 0 1 1.232-1.568 9.342 9.342 0 0 1 -5.236-5.992z" transform="translate(233 291)"/><path d="m4.48-3.36v-2.128h2.42v2.128zm8.932 0h-4.788v-2.128h3.7v-1.54h-3.7v-1.68h4.018v-1.61h-7.91a8.938 8.938 0 0 0 .462-1.148l-1.694-.434a10.8 10.8 0 0 1 -2.94 4.662 12.885 12.885 0 0 1 1.44 1.078 12.582 12.582 0 0 0 1.9-2.548h3v1.68h-4.086v3.668h-2.214v1.6h6.3v3h1.724v-3h4.788z" transform="translate(326 291)"/><path d="m0 201.015h5.753v2.685h-5.753z"/><path d="m36.964 201.015h5.752v2.685h-5.752z"/><path d="m26.248 338.462 1.343 2.327 4.982-2.877-1.343-2.326z" transform="translate(-24.058 -126.588)"/><path d="m416.271 116.383-1.343-2.326-4.982 2.877 1.343 2.326z" transform="translate(-375.745 76.459)"/><path d="m114.065 414.929 2.326 1.343 2.877-4.982-2.326-1.343z" transform="translate(-104.549 -194.745)"/><path d="m340.8 27.591-2.327-1.343-2.873 4.982 2.326 1.343z" transform="translate(-307.597 156.942)"/><path d="m20.016 217.964h2.685v5.752h-2.685z"/><path d="m20.016 181h2.685v5.752h-2.685z"/><path d="m335.6 411.29 2.875 4.982 2.327-1.343-2.877-4.982z" transform="translate(-307.597 -194.745)"/><path d="m119.267 31.23-2.877-4.982-2.326 1.343 2.877 4.982z" transform="translate(-104.549 156.942)"/><path d="m409.947 337.912 4.982 2.877 1.343-2.327-4.982-2.876z" transform="translate(-375.745 -126.588)"/><path d="m32.572 116.934-4.982-2.877-1.343 2.326 4.982 2.877z" transform="translate(-24.058 76.459)"/><path d="m112.956 99.926a13.021 13.021 0 1 0 13.021 13.021 13.021 13.021 0 0 0 -13.021-13.021z" transform="translate(-91.597 89.411)"/><path d="m205 201.015h5.753v2.685h-5.753z"/><path d="m241.964 201.015h5.752v2.685h-5.752z"/><path d="m26.248 338.462 1.343 2.327 4.982-2.877-1.343-2.326z" transform="translate(180.942 -126.588)"/><path d="m416.271 116.383-1.343-2.326-4.982 2.877 1.343 2.326z" transform="translate(-170.745 76.459)"/><path d="m114.065 414.929 2.326 1.343 2.877-4.982-2.326-1.343z" transform="translate(100.451 -194.745)"/><path d="m340.8 27.591-2.327-1.343-2.873 4.982 2.326 1.343z" transform="translate(-102.597 156.942)"/><path d="m225.016 217.964h2.685v5.752h-2.685z"/><path d="m225.016 181h2.685v5.752h-2.685z"/><path d="m335.6 411.29 2.875 4.982 2.327-1.343-2.877-4.982z" transform="translate(-102.597 -194.745)"/><path d="m119.267 31.23-2.877-4.982-2.326 1.343 2.877 4.982z" transform="translate(100.451 156.942)"/><path d="m409.947 337.912 4.982 2.877 1.343-2.327-4.982-2.876z" transform="translate(-170.745 -126.588)"/><path d="m32.572 116.934-4.982-2.877-1.343 2.326 4.982 2.877z" transform="translate(180.942 76.459)"/><path d="m112.956 99.926a13.021 13.021 0 1 0 13.021 13.021 13.021 13.021 0 0 0 -13.021-13.021z" transform="translate(113.403 89.411)"/><g transform="translate(119 -2.099)"><path d="m113.181 34.146a18.6 18.6 0 0 0 -17.134-11.359h-15.726v-4.236a16.449 16.449 0 0 0 -16.452-16.451h-13.094a16.449 16.449 0 0 0 -16.452 16.451v4.236h-15.723a18.592 18.592 0 0 0 -18.6 18.598v55.821a18.6 18.6 0 0 0 18.6 18.6h77.447a18.6 18.6 0 0 0 18.6-18.6v-55.821a18.541 18.541 0 0 0 -1.466-7.239zm-70.476-15.595a8.021 8.021 0 0 1 .633-3.141 8.126 8.126 0 0 1 2.929-3.554 8.018 8.018 0 0 1 4.508-1.375h13.094a8.011 8.011 0 0 1 3.139.633 8.1 8.1 0 0 1 3.554 2.929 7.987 7.987 0 0 1 1.375 4.508v4.236h-29.232zm63.556 78.655a10.131 10.131 0 0 1 -.8 3.975 10.283 10.283 0 0 1 -3.7 4.5 10.155 10.155 0 0 1 -5.708 1.743h-77.453a10.146 10.146 0 0 1 -3.975-.8 10.252 10.252 0 0 1 -4.5-3.706 10.14 10.14 0 0 1 -1.743-5.707v-42.594h97.88v42.589zm0-49.4h-97.879v-6.421a10.215 10.215 0 0 1 10.218-10.215h77.447a10.213 10.213 0 0 1 10.215 10.215v6.42z"/><path d="m186.968 308.993h13.009v-12.141h12.142v-13.009h-12.142v-12.143h-13.009v12.14h-12.142v13.009h12.142z" transform="translate(-135.68 -209.236)"/></g></g><path d="m176.5 181.5v156" fill="none" stroke="#707070"/></svg>