<svg height="360" viewBox="0 0 370 360" width="370" xmlns="http://www.w3.org/2000/svg"><path d="m3.92-2.03v-1.078h6.23v1.078zm6.23-2.926v1.078h-6.23v-1.078zm1.05-.868h-8.316v6.888h1.036v-2.31h6.23v1.2c0 .2-.07.252-.28.266-.238 0-1.05 0-1.862-.014a4.008 4.008 0 0 1 .336.854 9.024 9.024 0 0 0 2.282-.15c.434-.126.574-.392.574-.952zm-1.778-3.6-.784.524c.49.322 1.022.714 1.526 1.106-1.96.042-3.934.084-5.656.112.462-.546.952-1.162 1.372-1.736zm3.7-.924h-5.622v-1.372h-1.046v1.372h-5.554v.924h3.65a17.379 17.379 0 0 1 -1.176 1.75l-1.932.028.042.966c2.45-.042 6.174-.14 9.688-.28a10.149 10.149 0 0 1 .952.938l.868-.616a20.533 20.533 0 0 0 -3.528-2.784h3.654zm6.478 6.722c-.252 1.974-.924 3.206-3.934 3.85a3.265 3.265 0 0 1 .616.91c3.29-.8 4.116-2.324 4.424-4.76zm3.668 0v3.192c0 1.12.336 1.442 1.61 1.442h2.086c1.12 0 1.428-.5 1.554-2.576a3.161 3.161 0 0 1 -.966-.42c-.052 1.75-.152 2.016-.686 2.016h-1.876c-.56 0-.658-.07-.658-.462v-3.192zm-6.1-7.7v7.5h1.008v-7.5zm3.15.238v7.07h6.9v-7.07zm.994.924h4.858v2.17h-4.862zm0 3.024h4.858v2.2h-4.862zm13.058-4.48a14.387 14.387 0 0 1 -3.794 5.614 5.958 5.958 0 0 1 .63 1.05 14.2 14.2 0 0 0 1.652-1.844v7.85h1.022v-9.35a20.8 20.8 0 0 0 1.526-3zm9.17 4.466v-1.008h-4.046v-3.36h-1.022v3.36h-3.934v1.008h3.388a14.222 14.222 0 0 1 -3.878 5.726 6.04 6.04 0 0 1 .784.8 15.632 15.632 0 0 0 3.64-5.39v7.1h1.022v-7.396a17 17 0 0 0 3.626 5.628 3.729 3.729 0 0 1 .784-.84 14.772 14.772 0 0 1 -3.804-5.628zm10.906-1.19a12.8 12.8 0 0 1 -.714 1.456l.14.042h-3.29l.448-.1a5.44 5.44 0 0 0 -.7-1.4zm4.018 6.09v-.882h-5.614v-1.036h4.382v-.8h-4.382v-1.02h5.068v-.854h-3.178c.28-.42.588-.966.868-1.5h2.8v-.9h-2.17a19.576 19.576 0 0 0 1.232-2.016l-1.064-.28a15.883 15.883 0 0 1 -1.064 2.128l.518.168h-1.694v-2.478h-.98v2.484h-1.666v-2.478h-.966v2.478h-1.722l.714-.266a9.65 9.65 0 0 0 -1.19-2.058l-.882.294a10.913 10.913 0 0 1 1.106 2.03h-2.226v.9h3.416l-.49.1a5.878 5.878 0 0 1 .686 1.4h-3.052v.854h4.914v1.016h-4.214v.8h4.214v1.036h-5.528v.882h4.578a13.493 13.493 0 0 1 -4.944 2.21 4.458 4.458 0 0 1 .672.882 14.069 14.069 0 0 0 5.222-2.758v2.982h1.022v-3.052a13.217 13.217 0 0 0 5.264 2.87 3.743 3.743 0 0 1 .7-.924 12.809 12.809 0 0 1 -5-2.212zm7.084-6.5h2.828v-.946h-2.828v-1.96h-.994v1.96h-1.484c.154-.476.294-.994.42-1.484l-.98-.2a11.034 11.034 0 0 1 -1.4 3.684 6.107 6.107 0 0 1 .924.392 10.7 10.7 0 0 0 .7-1.442h1.82v1.47h-3.4v.952h3.4v1.4h-2.754v4.858h.952v-3.906h1.806v5.026h.994v-5.026h1.928v2.856c0 .14-.042.182-.2.182s-.6.014-1.2 0a3.179 3.179 0 0 1 .308.91 4.325 4.325 0 0 0 1.624-.172c.35-.168.42-.434.42-.91v-3.818h-2.884v-1.4h3.374v-.952h-3.374zm5.362-1.694h-.98v7.7h.98zm1.5-1.12v11.218c0 .238-.07.294-.294.308s-1.022 0-1.848-.028a6.046 6.046 0 0 1 .332 1.092 6.887 6.887 0 0 0 2.24-.21c.42-.182.574-.49.574-1.176v-11.2zm16.35 2.188v-.952h-5.222v-1.368h-1.064v1.372h-5.138v4c0 2.016-.1 4.844-1.246 6.832a4.025 4.025 0 0 1 .854.588c1.2-2.114 1.372-5.264 1.372-7.42v-3.052zm-3.36 2.422v1.47h-3.388v-1.47zm1.008 2.31v-2.31h2.254v-.854h-2.254v-1.218h-1.008v1.218h-3.388v-1.218h-.994v1.218h-2.226v.854h2.226v2.31zm-.224 1.736a6.434 6.434 0 0 1 -2.366 1.778 6.271 6.271 0 0 1 -2.268-1.778zm.868-.9-.182.042h-7.91v.854h2.156l-.56.21a7.044 7.044 0 0 0 2.2 2 18.991 18.991 0 0 1 -4.312.9 3.6 3.6 0 0 1 .434.868 18.962 18.962 0 0 0 4.922-1.202 15.97 15.97 0 0 0 4.61 1.232 3.086 3.086 0 0 1 .6-.882 17.8 17.8 0 0 1 -4.11-.882 6.915 6.915 0 0 0 2.81-2.786z" transform="translate(264 182)"/><g fill="#1778b1"><path d="m-4.482-31.509v-8.745q6.5 0 8.745-1.45 4-2.549 4-8.174a9.265 9.265 0 0 0 -2.9-7.075 10.222 10.222 0 0 0 -7.427-2.769 9.609 9.609 0 0 0 -6.592 2.065q-2.244 2.11-3.344 7.12h-10.2q1.582-9.58 6.5-14.041t13.755-4.46q8.921 0 14.546 5.273a17.588 17.588 0 0 1 5.625 13.491 16.718 16.718 0 0 1 -7.383 14.5q8.438 4.966 8.438 16.128a19.616 19.616 0 0 1 -6.141 14.946q-6.153 5.8-15.777 5.8-12.263 0-18.193-9.01-2.461-3.779-3.12-10.459h9.888a12.023 12.023 0 0 0 3.845 7.537 11.836 11.836 0 0 0 7.976 2.614 11.06 11.06 0 0 0 8.218-3.3 11.866 11.866 0 0 0 3.252-8.569q0-6.855-4.878-9.756-2.857-1.666-8.833-1.666z" transform="translate(297 269)"/><path d="m10.892-4.718v3.486h-3.122v-4.228h4.3v-5.082h-1.75v3.458h-2.55v-4.634h-1.708v4.634h-2.408v-3.458h-1.654v5.082h4.06v4.228h-2.924v-3.486h-1.694v5.936h1.694v-.812h7.756v.8h1.736v-5.924zm12.124 3.906v-2.814h4.184v-1.61h-4.184v-2.464h4.718v-1.624h-4.718v-2.52h-1.75v2.52h-2.156c.238-.644.462-1.3.658-1.974l-1.722-.378a12.045 12.045 0 0 1 -2.478 5.012 13.239 13.239 0 0 1 1.5.994 11.539 11.539 0 0 0 1.3-2.03h2.9v2.464h-3.796v1.61h3.794v2.814h-5.4v1.638h12.582v-1.638zm11.634-10.416a15.35 15.35 0 0 1 -.294 2.94c-.7.056-1.358.1-1.792.112a12.873 12.873 0 0 1 -1.47 0l.154 1.876c.434-.07 1.148-.168 1.54-.21.266-.042.7-.1 1.19-.154a20.608 20.608 0 0 1 -2.8 6.482l1.822.728a29.446 29.446 0 0 0 2.812-7.406c.392-.028.728-.056.952-.056.882 0 1.358.154 1.358 1.26a10.254 10.254 0 0 1 -.574 3.794 1.008 1.008 0 0 1 -1.036.6 7.978 7.978 0 0 1 -1.694-.294l.308 1.836a7.739 7.739 0 0 0 1.652.2 2.226 2.226 0 0 0 2.282-1.28 13.553 13.553 0 0 0 .784-5.054c0-1.988-1.036-2.646-2.506-2.646-.28 0-.7.028-1.162.056.1-.5.21-1.008.28-1.428.07-.35.168-.784.252-1.148zm5.166 2.212a16.012 16.012 0 0 1 2.352 5.278l1.75-.826a24.989 24.989 0 0 0 -2.418-5.152zm9.8-.532c1.078.28 4.172.924 5.572 1.106l.42-1.708a43.892 43.892 0 0 1 -5.544-1.078zm.532 1.106-1.876-.252a50.48 50.48 0 0 1 -.686 5.782l1.61.406a3 3 0 0 1 .518-.812 4.86 4.86 0 0 1 3.822-1.624c1.218 0 2.072.658 2.072 1.554 0 1.764-2.2 2.786-6.356 2.2l.532 1.818c5.768.5 7.77-1.442 7.77-3.976 0-1.68-1.414-3.178-3.85-3.178a6.8 6.8 0 0 0 -4.074 1.316c.098-.798.336-2.464.518-3.234z" transform="translate(208 266)"/><path d="m3.668-3.066a6.042 6.042 0 0 1 -1.008 2.212 6.792 6.792 0 0 1 1.04.63 8.678 8.678 0 0 0 1.162-2.59zm4.2-.5v-1.222h-4.4v1.218h1.532v3.234c0 .126-.028.168-.168.168-.1 0-.434 0-.8-.014a4.813 4.813 0 0 1 .406 1.246 2.708 2.708 0 0 0 1.442-.238c.378-.2.448-.532.448-1.12v-3.276zm.49 2.408a9.287 9.287 0 0 0 -.882-1.932l-1.05.378a9.306 9.306 0 0 1 .812 1.984zm2.226-6.642-.532.392c.224.154.49.364.742.574h-1.316c-.028-.322-.056-.644-.07-.966zm.644 2.646a9.153 9.153 0 0 1 -.98 2.154 21.128 21.128 0 0 1 -.6-2.534h3.552v-1.3h-.728l.056-.042a9.126 9.126 0 0 0 -1.104-.924h1.834v-1.33h-5.124v-.756h3.976v-1.174h-3.976v-.8h-1.61v2.73h-2.114v-2.114h-1.54v2.114h-2.086v1.33h7.126c.014.322.042.644.07.966h-6.5v2.394a8.083 8.083 0 0 1 -1.102 4.706 5.514 5.514 0 0 1 1.246.966c1.162-1.554 1.386-3.976 1.386-5.656v-1.106h5.138a17.165 17.165 0 0 0 1.036 3.92 8.592 8.592 0 0 1 -2.24 1.694 10.57 10.57 0 0 1 1.12 1.116 10.35 10.35 0 0 0 1.836-1.41 2.53 2.53 0 0 0 1.93 1.442c1.036 0 1.526-.49 1.75-2.534a4.391 4.391 0 0 1 -1.19-.728c-.056 1.246-.182 1.806-.448 1.806-.294 0-.658-.42-1.036-1.134a11.927 11.927 0 0 0 1.806-3.458zm7.714 2.634c-.518 0-1.078-.686-1.078-2.086a4.347 4.347 0 0 1 3.514-4.018 22.254 22.254 0 0 1 -.742 3.36c-.56 1.876-1.12 2.744-1.694 2.744zm3.808 3.094c3.5-.532 5.292-2.6 5.292-5.516a5.291 5.291 0 0 0 -5.6-5.418 6.183 6.183 0 0 0 -6.384 5.936c0 2.338 1.3 4.032 2.828 4.032s2.714-1.708 3.542-4.508a30.13 30.13 0 0 0 .826-3.766 3.432 3.432 0 0 1 2.898 3.666 3.753 3.753 0 0 1 -3.152 3.712c-.364.084-.756.154-1.288.224z" transform="translate(327 266)"/><path d="m10.64-2.73h-.6v-5.5h-1.332v5.5h-.644v1.344h5.436v-1.344h-1.46v-2.97h1.316v-1.33h-1.316v-3.038a12.294 12.294 0 0 0 1.484-.49l-1.106-1.19a17.347 17.347 0 0 1 -4.284 1.148 5.7 5.7 0 0 1 .448 1.2c.658-.084 1.358-.2 2.058-.336zm-6.132-8.694h-3.43v1.26h3.43zm.35 1.876h-4.396v1.316h4.4zm-.336 1.948h-3.514v1.274h3.514zm-3.514 3.162h3.514v-1.246h-3.514zm2.254 3.598h-1.036v-1.61h1.036zm4.238-6.216-.252.028h-.49c.462-1.344.924-2.744 1.232-3.878l-1.004-.224-.224.056h-1.834v1.442h1.26c-.388 1.26-.938 2.856-1.414 4.116l1.344.266.182-.49h.616a14.607 14.607 0 0 1 -.476 2.38 10.383 10.383 0 0 1 -.406-1.5l-1.234.366a11.423 11.423 0 0 0 .94 2.842 4.744 4.744 0 0 1 -1.176 1.5v-3.6h-3.598v4.774h1.26v-.56h2.338v-.322a5.053 5.053 0 0 1 .756 1.078 5.961 5.961 0 0 0 1.344-1.582 5.06 5.06 0 0 0 3.85 1.274h2.7a5.531 5.531 0 0 1 .49-1.5c-.63.028-2.576.028-3.08.028a4 4 0 0 1 -3.276-1.2 18.668 18.668 0 0 0 .994-5.11zm15.516 6.244v-2.814h4.184v-1.61h-4.184v-2.464h4.718v-1.624h-4.718v-2.52h-1.75v2.52h-2.156c.238-.644.462-1.3.658-1.974l-1.722-.378a12.045 12.045 0 0 1 -2.478 5.012 13.239 13.239 0 0 1 1.5.994 11.539 11.539 0 0 0 1.3-2.03h2.9v2.464h-3.796v1.61h3.794v2.814h-5.4v1.638h12.582v-1.638zm11.116-.728v-3.136h6.216v3.136zm6.216-7.8v3.01h-6.216v-3.01zm-7.938-1.68v12.07h1.722v-.91h6.216v.882h1.792v-12.04zm15.96 8.108v-.91h2.338v.91zm2.338-3.01v.868h-2.338v-.868zm1.61-1.4h-5.53v8.456h1.582v-2.828h2.338v1.246c0 .168-.056.224-.224.224s-.742.014-1.26-.014a5.757 5.757 0 0 1 .532 1.414 4.39 4.39 0 0 0 1.944-.266c.476-.238.616-.63.616-1.344zm3.99 6.678c0 .2-.07.252-.294.252s-.966.014-1.68-.014a5.838 5.838 0 0 1 .6 1.568 5.494 5.494 0 0 0 2.3-.28c.56-.266.714-.672.714-1.5v-6.956h-1.64zm-1.26-6.538h-1.526v5.712h1.526zm.8-2.6c.35-.49.728-1.036 1.064-1.582l-1.812-.536a15.7 15.7 0 0 1 -1.148 2.114h-3.888l.77-.266a7.736 7.736 0 0 0 -1.3-1.82l-1.582.546a9.389 9.389 0 0 1 1.048 1.54h-2.982v1.5h12.67v-1.5zm8.524 8.242v-3.136h6.216v3.136zm6.216-7.8v3.01h-6.216v-3.01zm-7.938-1.68v12.07h1.722v-.91h6.216v.882h1.792v-12.04zm19.628 9.186c0 .8-.476 1.022-1.218 1.022-.952 0-1.442-.336-1.442-.854 0-.476.532-.854 1.512-.854a7.429 7.429 0 0 1 1.134.1c.014.236.014.432.014.586zm5.544.35a10.724 10.724 0 0 0 -3.878-2.1c-.042-.532-.07-1.092-.1-1.61 1.344-.042 2.422-.14 3.668-.28v-1.638c-1.134.14-2.3.266-3.7.322l.014-1.442c1.33-.07 2.45-.182 3.36-.266l-.042-1.6a29.05 29.05 0 0 1 -3.3.336l.014-.546a9.267 9.267 0 0 1 .1-.98h-1.89a5.55 5.55 0 0 1 .07.952v.63h-.686a18.352 18.352 0 0 1 -3.01-.266l.014 1.582a23.087 23.087 0 0 0 3.01.21h.658v1.442h-.658a25.15 25.15 0 0 1 -3.346-.252l-.014 1.638c.924.112 2.52.182 3.332.182h.714c.014.406.028.84.056 1.26a8.509 8.509 0 0 0 -.854-.042c-2.142 0-3.43.98-3.43 2.38 0 1.47 1.176 2.31 3.388 2.31 1.834 0 2.73-.91 2.73-2.1 0-.14 0-.308-.014-.49a10.5 10.5 0 0 1 2.8 1.922zm13.258-5.8-1.036.434a10.8 10.8 0 0 1 1.092 1.95l1.064-.476a18.348 18.348 0 0 0 -1.12-1.904zm1.568-.644-1.022.476a12.316 12.316 0 0 1 1.148 1.89l1.05-.5a20.943 20.943 0 0 0 -1.176-1.862zm-10.906-1.648.182 1.9c1.61-.35 4.522-.658 5.726-.784a5.5 5.5 0 0 0 -2.044 4.27c0 3.01 2.744 4.578 5.656 4.76l.644-1.918c-2.352-.112-4.48-.938-4.48-3.22a4.208 4.208 0 0 1 2.926-3.878 14.317 14.317 0 0 1 2.674-.182l-.014-1.792c-.98.042-2.492.126-3.92.238-2.534.224-4.83.434-5.992.532-.266.032-.8.06-1.358.074z" transform="translate(251 298)"/><path d="m206 186.015h5.753v2.685h-5.753z"/><path d="m242.964 186.015h5.752v2.685h-5.752z"/><path d="m26.248 338.462 1.343 2.327 4.982-2.877-1.343-2.326z" transform="translate(181.942 -141.588)"/><path d="m416.271 116.383-1.343-2.326-4.982 2.877 1.343 2.326z" transform="translate(-169.745 61.459)"/><path d="m114.065 414.929 2.326 1.343 2.877-4.982-2.326-1.343z" transform="translate(101.451 -209.745)"/><path d="m340.8 27.591-2.327-1.343-2.873 4.982 2.326 1.343z" transform="translate(-101.597 141.942)"/><path d="m226.016 202.964h2.685v5.752h-2.685z"/><path d="m226.016 166h2.685v5.752h-2.685z"/><path d="m335.6 411.29 2.875 4.982 2.327-1.343-2.877-4.982z" transform="translate(-101.597 -209.745)"/><path d="m119.267 31.23-2.877-4.982-2.326 1.343 2.877 4.982z" transform="translate(101.451 141.942)"/><path d="m409.947 337.912 4.982 2.877 1.343-2.327-4.982-2.876z" transform="translate(-169.745 -141.588)"/><path d="m32.572 116.934-4.982-2.877-1.343 2.326 4.982 2.877z" transform="translate(181.942 61.459)"/><path d="m112.956 99.926a13.021 13.021 0 1 0 13.021 13.021 13.021 13.021 0 0 0 -13.021-13.021z" transform="translate(114.403 74.411)"/></g><path d="m177.5 166.5v191" fill="none" stroke="#707070"/><path d="m48.457 58.568a11.236 11.236 0 1 0 -11.237-11.235 11.235 11.235 0 0 0 11.237 11.235z" fill="#1778b1" transform="translate(88.43 -35.172)"/><path d="m235.242 186.99v.017c.027 0 .052-.008.08-.008s.053.008.08.008v-.017a7.762 7.762 0 0 0 0-15.522v-.017c-.027 0-.052.008-.08.008s-.052-.008-.08-.008v.017a7.762 7.762 0 0 0 0 15.522z" fill="#1778b1" transform="translate(-50.322 -133.809)"/><path d="m403.179 58.568a11.236 11.236 0 1 0 -11.235-11.235 11.236 11.236 0 0 0 11.235 11.235z" fill="#1778b1" transform="translate(-170.067 -35.172)"/><path d="m138.893 187.687v-37.765c0-5.446-5.923-11.369-11.367-11.369h-1.573l-7.818 7.818-7.654-7.654a15.245 15.245 0 0 0 -11.371 8.143l-9.086 26.576a2.195 2.195 0 0 1 -3.447.609l-5.652-4.894a9.145 9.145 0 0 0 -6.213-2.434h-10.531a9.147 9.147 0 0 0 -6.213 2.434l-5.652 4.894a2.195 2.195 0 0 1 -3.447-.609l-9.086-26.576a15.242 15.242 0 0 0 -13.572-8.307h-14.844c-5.444 0-11.367 5.923-11.367 11.369v37.764a4.928 4.928 0 0 0 4.928 4.93h3.44l1.873 32.207a5.247 5.247 0 0 0 5.247 5.245h11.46a5.247 5.247 0 0 0 5.247-5.245l1.873-32.207-.023-22.995a.786.786 0 0 1 1.487-.357l7.209 17.742a6.1 6.1 0 0 0 9.565 1.7l6.9-5.081a.8.8 0 0 1 .851-.147.793.793 0 0 1 .473.722l.026 19.941 1.3 22.3a3.632 3.632 0 0 0 3.634 3.629h7.931a3.632 3.632 0 0 0 3.633-3.629l1.3-22.3.025-19.941a.792.792 0 0 1 .473-.722.8.8 0 0 1 .851.147l6.9 5.081a6.1 6.1 0 0 0 9.565-1.7l7.208-17.742a.786.786 0 0 1 1.487.357l-.008 8.771-7.579 23.508a1.829 1.829 0 0 0 1.741 2.39h6.483l1.195 20.535a5.246 5.246 0 0 0 5.247 5.245h11.458a5.246 5.246 0 0 0 5.246-5.245l1.2-20.535h7.167a1.829 1.829 0 0 0 1.741-2.39l-3.09-9.6a4.917 4.917 0 0 0 3.229-4.613z" fill="#1778b1" transform="translate(115.553 -109.835)"/><path d="m3.92-2.03v-1.092h6.23v1.092zm6.23-2.926v1.078h-6.23v-1.078zm1.05-.868h-8.316v6.888h1.036v-2.31h6.23v1.2c0 .2-.07.252-.28.266-.238 0-1.05 0-1.862-.014a4.008 4.008 0 0 1 .336.854 9.024 9.024 0 0 0 2.282-.15c.434-.126.574-.392.574-.952zm-1.778-3.6-.784.524c.49.322 1.022.714 1.526 1.106-1.96.042-3.934.084-5.656.112.462-.546.952-1.162 1.372-1.736zm3.7-.938h-5.622v-1.358h-1.046v1.358h-5.554v.938h3.65a17.379 17.379 0 0 1 -1.176 1.75l-1.932.028.042.966c2.45-.042 6.174-.14 9.688-.28a10.149 10.149 0 0 1 .952.938l.868-.616a20.533 20.533 0 0 0 -3.528-2.784h3.654zm6.478 6.736c-.252 1.974-.924 3.206-3.934 3.85a3.265 3.265 0 0 1 .616.91c3.29-.8 4.116-2.324 4.424-4.76zm3.668 0v3.192c0 1.12.336 1.442 1.61 1.442h2.086c1.12 0 1.428-.5 1.554-2.576a3.161 3.161 0 0 1 -.966-.42c-.052 1.75-.152 2.016-.686 2.016h-1.876c-.56 0-.658-.07-.658-.462v-3.192zm-6.1-7.7v7.5h1.008v-7.5zm3.15.238v7.07h6.9v-7.07zm.994.924h4.858v2.17h-4.862zm0 3.024h4.858v2.2h-4.862zm22.188-3.96h-7.086v.966h7.086zm-1.6 5.864h-3.96v-2.45h3.96zm1.01-3.374h-5.936v4.31h5.936zm-1.568 8.162c.35-.77.784-2.072 1.134-3.136l-1.036-.238a19.693 19.693 0 0 1 -.98 3.15zm-2.3-.322a13.89 13.89 0 0 0 -.77-2.968l-.882.224a15.515 15.515 0 0 1 .714 2.982zm-2.502-.882c-.336-.406-1.708-1.96-2.268-2.548q.084-.483.126-.966h2.044v-.966h-1.988v-2.814h1.82v-.954h-3.346c.14-.5.266-1.036.364-1.568l-.994-.182a10.739 10.739 0 0 1 -1.554 4.382 6.8 6.8 0 0 1 .9.5 10.956 10.956 0 0 0 1.008-2.184h.812v2.814h-2.564v.966h2.5a7.687 7.687 0 0 1 -2.586 5.452 2.885 2.885 0 0 1 .7.728 7.816 7.816 0 0 0 2.534-4.158 26.637 26.637 0 0 1 1.82 2.35zm-.74 1.442v.98h7.826v-.98zm13.662-9.646v3.108h-2.03v-3.108zm-2.03 7.256v-3.238h2.03v3.238zm3.01-8.19h-3.962v10.258h.952v-1.134h3.01zm1.148 7.84a10.8 10.8 0 0 1 1.778 2.46l.882-.56a9.9 9.9 0 0 0 -1.82-2.38zm7.224-3.472v-.928h-3.614v-1.778h3.01v-.924h-3.01v-1.666h-1.02v1.666h-2.912v.924h2.912v1.778h-3.514v.924h5.362v1.582h-5.292v.924h5.292v3.738c0 .21-.07.266-.308.28s-.994.014-1.862-.014a3.179 3.179 0 0 1 .336.966 8.01 8.01 0 0 0 2.268-.168c.42-.154.574-.462.574-1.05v-3.752h1.624v-.924h-1.624v-1.582zm7.028-3.878v1.162h-3.024v-1.162zm-3.024 3.16v-1.232h3.024v1.232zm4.018.8v-4.774h-5.054v12.192h1.036v-7.42zm2.254 1.86v1.288h-3.29v-1.288zm-3.29 3.43v-1.358h3.29v1.358zm4.256.826v-5.068h-5.194v5.768h.938v-.7zm-.98-6.9v-1.248h3.136v1.246zm3.136-3.176v1.162h-3.136v-1.162zm1.05-.812h-5.18v4.788h4.13v6.002c0 .252-.084.336-.322.336s-1.106.028-1.96-.014a3.835 3.835 0 0 1 .364 1.064 7.968 7.968 0 0 0 2.352-.182c.462-.182.616-.532.616-1.19zm-70.994 24.488h.952v-1.076h1.88v1.078h.952v-1.078h1.648v-.812h-1.652v-1.188h-.948v1.19h-1.88v-1.19h-.952v1.19h-1.582v.81h1.582zm-.168 2.524v-1.46h1.582v1.46zm4.172 0h-1.638v-1.46h1.638zm6.93-2.338h-2.982c.014-1.008.028-2.058.028-3.15h-.966c0 1.092 0 2.156-.028 3.15h-1.624v.966h1.6c-.1 2.9-.476 5.292-1.764 6.958l-.014-.49c-.938.112-1.9.224-2.814.322v-1.166h2.67v-.77h-2.674v-1.064h2.8v-.8h-2.8v-.868h2.6v-2.98h-6.044v2.982h2.492v.868h-2.758v.8h2.758v1.064h-2.548v.77h2.548v1.274c-1.162.126-2.226.238-3.066.308l.14.91c1.666-.2 4.046-.476 6.356-.756a4.53 4.53 0 0 1 -.532.5 3.4 3.4 0 0 1 .756.728c2.142-1.848 2.688-4.858 2.842-8.6h2.03c-.112 5.082-.266 6.9-.6 7.308a.453.453 0 0 1 -.462.224 13.741 13.741 0 0 1 -1.484-.07 2.487 2.487 0 0 1 .294.966 10.34 10.34 0 0 0 1.624 0 1.113 1.113 0 0 0 .91-.5c.434-.574.56-2.52.714-8.386zm12.95-.924a5.256 5.256 0 0 1 -1.358 1.806 6.212 6.212 0 0 1 -1.582-1.806zm-5.6 6.076a12.122 12.122 0 0 0 .826-2.184 3.915 3.915 0 0 1 .378.546 10.942 10.942 0 0 0 3.052-1.428 10.049 10.049 0 0 0 3.178 1.484 4.616 4.616 0 0 1 .658-.9 9.285 9.285 0 0 1 -3.038-1.218 6.5 6.5 0 0 0 1.68-2.38h1.078v-.882h-4.648a11.11 11.11 0 0 0 .644-1.2l-.994-.266a8.6 8.6 0 0 1 -2.66 3.416 6.606 6.606 0 0 1 .854.6 11.169 11.169 0 0 0 1.008-.994 7.984 7.984 0 0 0 1.442 1.708 9.276 9.276 0 0 1 -2.51 1.076c.07-.252.14-.5.21-.742l-.63-.224-.154.056h-1.032l.532-.6a8.042 8.042 0 0 0 -1.176-.84 10.481 10.481 0 0 0 2.282-2.38l-.672-.42-.182.042h-4.7v.91h3.962a9.848 9.848 0 0 1 -1.47 1.386c-.448-.238-.924-.462-1.358-.644l-.644.672a14.288 14.288 0 0 1 3.108 1.876h-3.756v.91h2.114a10.549 10.549 0 0 1 -2.254 3.752 5.507 5.507 0 0 1 .546.966 11.212 11.212 0 0 0 2.044-3.444v4.492c0 .154-.056.2-.224.21s-.728 0-1.33-.014a3.823 3.823 0 0 1 .322.952 5.494 5.494 0 0 0 1.75-.154c.35-.182.462-.462.462-.994v-5.768h1.344a14.592 14.592 0 0 1 -.756 2.254zm4.228-.616c.084-.448.154-.91.2-1.386h-1.05c-.042.476-.1.938-.182 1.386h-2.412v.868h2.184a4.8 4.8 0 0 1 -3.248 3.3 3.382 3.382 0 0 1 .616.8 5.68 5.68 0 0 0 3.71-4.1h2.352c-.21 1.918-.42 2.7-.686 2.968a.592.592 0 0 1 -.476.14c-.224 0-.784-.014-1.386-.07a2.722 2.722 0 0 1 .28.966 14.8 14.8 0 0 0 1.554.014 1.263 1.263 0 0 0 .868-.364c.406-.406.672-1.47.924-4.074.014-.168.028-.448.028-.448z" transform="translate(56 182)"/><path d="m7.014-1.624c0 .952-.672 1.19-1.47 1.19-1.372 0-1.918-.476-1.918-1.12s.714-1.134 2.03-1.134a7.058 7.058 0 0 1 1.344.126c0 .378.014.7.014.938zm5.054.476a11.381 11.381 0 0 0 -4.032-2.152c-.028-.658-.07-1.386-.1-2.1 1.316-.056 2.548-.154 3.85-.322l-.014-1.05a37.4 37.4 0 0 1 -3.85.364v-1.992c1.3-.07 2.492-.182 3.584-.294l-.014-1.022a30.828 30.828 0 0 1 -3.556.336c0-.336 0-.6.014-.77a7.135 7.135 0 0 1 .07-.924h-1.188a7.76 7.76 0 0 1 .042.826v.91h-.714a22.1 22.1 0 0 1 -3.248-.262v1.036c.826.1 2.3.21 3.262.21h.686v1.984h-.742a24.665 24.665 0 0 1 -3.486-.266v1.064c.994.112 2.534.2 3.486.2h.77c.014.574.042 1.232.07 1.848a7.827 7.827 0 0 0 -1.158-.088c-2 0-3.22.854-3.22 2.114-.004 1.344 1.102 2.058 3.09 2.058 1.806 0 2.45-.994 2.45-1.946 0-.21-.014-.518-.028-.868a10.3 10.3 0 0 1 3.346 2.086zm13.3-6.118-.714.308a13 13 0 0 1 1.146 1.974l.714-.336a16.617 16.617 0 0 0 -1.146-1.946zm1.526-.588-.7.322a12.47 12.47 0 0 1 1.19 1.946l.728-.336a21.147 21.147 0 0 0 -1.218-1.932zm-10.612-1.358.126 1.232c1.5-.308 5.278-.672 6.5-.812a5.6 5.6 0 0 0 -2.576 4.676c0 3.094 2.926 4.466 5.488 4.578l.406-1.176c-2.254-.084-4.774-.938-4.774-3.64a4.848 4.848 0 0 1 3.164-4.382 11.488 11.488 0 0 1 2.716-.224v-1.12c-.924.042-2.226.112-3.738.238-2.548.224-5.166.476-6.076.56-.27.028-.704.056-1.236.07z" transform="translate(120 287)"/><path d="m19.11-11.585v-8.47h9.1v8.47zm-12.46 0v-8.47h9.065v8.47zm12.46-11.655v-6.09h-3.4v6.09h-12.315v16.9h3.255v-2.06h9.065v11.13h3.4v-11.13h9.1v1.89h3.4v-16.73zm24.535 2.415h23.38v5.145h3.22v-8.015h-5.075c1.085-1.33 2.24-2.87 3.255-4.375l-3.43-1.085a36.781 36.781 0 0 1 -3.395 5.46h-5.915l1.715-.665a20.749 20.749 0 0 0 -2.835-5.18l-2.835 1.05a25.922 25.922 0 0 1 2.45 4.8h-6.48l1.26-.6a21.478 21.478 0 0 0 -3.255-4.69l-2.8 1.26a22.083 22.083 0 0 1 2.73 4.025h-5.035v8.015h3.045zm27.125 11.06h-13.79v-.455a31.413 31.413 0 0 0 8.19-6.02l-2.1-1.575-.7.175h-16.415v2.835h13.3a27.69 27.69 0 0 1 -3.955 2.625h-1.645v2.415h-13.655v3.01h13.65v5.74c0 .525-.175.665-.875.7s-3.15.035-5.6-.07a17.51 17.51 0 0 1 1.365 3.15c3.045 0 5.11-.035 6.545-.49 1.435-.49 1.89-1.4 1.89-3.185v-5.845h13.795zm36.89-15.335h-13.02v-4.27h-3.36v4.27h-12.78v3.115h29.16zm-15.68 10.61a43.1 43.1 0 0 0 -4.515-3.395 26.435 26.435 0 0 0 1.33-3.255l-3.29-.735a18.3 18.3 0 0 1 -7.63 10.255 20.615 20.615 0 0 1 2.625 2.17 22.451 22.451 0 0 0 5.6-5.985 39.339 39.339 0 0 1 3.92 3.255zm16.7 6.055h-14.04v-2.31h-.04a20.025 20.025 0 0 0 4.38-4.235 61.274 61.274 0 0 1 6.58 5.28l2.275-2.415a62.432 62.432 0 0 0 -7.175-5.425 20.041 20.041 0 0 0 1.575-3.64l-3.29-.63a16.031 16.031 0 0 1 -7.6 9.275 15.755 15.755 0 0 1 2.17 1.785h-2.235v2.31h-13.68v3.12h13.68v8.05h3.36v-8.05h14.035zm27.02-12.25a32.659 32.659 0 0 1 -1.54 3.325h-7.39l1.015-.21a14.725 14.725 0 0 0 -1.505-3.115zm10.53 15.33v-2.73h-13.79v-2.135h10.745v-2.45h-10.745v-2.1h12.39v-2.59h-7.42c.6-.98 1.295-2.135 1.96-3.325h6.755v-2.73h-5.04a54.766 54.766 0 0 0 2.9-4.76l-3.36-.84a30.506 30.506 0 0 1 -2.45 5.18l1.33.42h-3.78v-5.985h-3.08v5.985h-3.465v-5.985h-3.04v5.985h-3.85l1.785-.665a24.328 24.328 0 0 0 -2.8-5l-2.835.945a26.241 26.241 0 0 1 2.56 4.72h-5.18v2.73h7.945l-.84.14a17.338 17.338 0 0 1 1.47 3.185h-7.175v2.59h12.04v2.1h-10.33v2.45h10.325v2.135h-13.58v2.73h10.815a33.958 33.958 0 0 1 -11.8 4.865 14.606 14.606 0 0 1 2.135 2.765 34.765 34.765 0 0 0 12.425-6.3v6.79h3.185v-7.035a31.221 31.221 0 0 0 12.53 6.58 14.616 14.616 0 0 1 2.17-2.9 32.143 32.143 0 0 1 -11.865-4.76z" fill="#1778b1" transform="translate(1 266)"/><path d="m-93.408-8.724a8.81 8.81 0 0 0 -2.352-1.236l-.48.66a9.575 9.575 0 0 1 2.328 1.308zm-.624 3.132a10.173 10.173 0 0 0 -2.376-1.1l-.468.684a10.086 10.086 0 0 1 2.364 1.176zm-.276 1.932a36.1 36.1 0 0 1 -2.148 3.852l.756.576c.672-1.116 1.464-2.592 2.064-3.852zm8.5 4.128a16.307 16.307 0 0 0 -2.292-3.444l-.756.4a20.692 20.692 0 0 1 1.236 1.7c-1.416.1-2.844.18-4.08.24.528-1.044 1.092-2.412 1.536-3.552h4.152v-.852h-3.408v-2.2h2.844v-.84h-2.844v-1.956h-.912v1.956h-2.736v.84h2.736v2.2h-3.336v.852h2.448a28.313 28.313 0 0 1 -1.44 3.612l-1 .048.132.888c1.656-.108 4.068-.26 6.384-.444a7.934 7.934 0 0 1 .5 1.02zm3.288-8.292h8.172v1.752h.912v-2.592h-4.536v-1.368h-.928v1.368h-4.5v2.592h.876zm4.548 5.1h3.552v-.828h-3.552v-1.992h3.06v-.84h-6.948v.84h2.976v5.028a3.6 3.6 0 0 1 -2.216-2.316 15.146 15.146 0 0 0 .288-1.6l-.912-.084c-.264 2.148-.912 3.852-2.244 4.884a4.659 4.659 0 0 1 .732.6 6.574 6.574 0 0 0 1.792-2.668c1.092 2.024 2.88 2.456 5.364 2.456h2.78a2.63 2.63 0 0 1 .336-.9c-.576.012-2.64.012-3.072.012a10.955 10.955 0 0 1 -1.944-.144zm7.46-5.176.108 1.044c1.3-.276 4.356-.564 5.64-.708a4.874 4.874 0 0 0 -2.244 4.064c0 2.676 2.532 3.864 4.752 3.948l.348-1c-1.956-.072-4.14-.816-4.14-3.156a4.224 4.224 0 0 1 2.748-3.8 10.051 10.051 0 0 1 2.352-.192v-.96c-.8.036-1.932.108-3.24.216-2.208.18-4.476.408-5.256.492-.228.02-.612.044-1.068.052zm7.836 1.668-.612.264a11.14 11.14 0 0 1 .988 1.696l.612-.288a14.243 14.243 0 0 0 -.988-1.668zm1.308-.5-.588.276a11.122 11.122 0 0 1 1.008 1.68l.624-.3a15.849 15.849 0 0 0 -1.044-1.656zm8.22 5.292c0-.588.636-.972 1.536-.972a4.084 4.084 0 0 1 1.224.192c.012.156.012.3.012.42 0 .792-.3 1.308-1.308 1.308-.864 0-1.464-.336-1.464-.948zm3.636-7.8h-1.08c.024.2.048.528.048.732v1.488c-.372.012-.756.024-1.128.024-.72 0-1.356-.036-2.04-.1v.9c.708.048 1.332.084 2.016.084.384 0 .768-.012 1.152-.024.012.984.084 2.16.12 3.084a5.5 5.5 0 0 0 -1.116-.108c-1.572 0-2.472.8-2.472 1.812 0 1.08.888 1.716 2.5 1.716s2.072-.944 2.072-1.928v-.252a9.762 9.762 0 0 1 1.812 1.392l.528-.8a7.91 7.91 0 0 0 -2.376-1.548c-.048-1.008-.132-2.208-.144-3.42.72-.048 1.416-.12 2.076-.228v-.924a20.263 20.263 0 0 1 -2.076.276c.012-.564.024-1.128.036-1.452q.018-.364.072-.724zm-5.928.072-1.06-.084a7.2 7.2 0 0 1 -.072.852 35.706 35.706 0 0 0 -.552 5.052 14.494 14.494 0 0 0 .46 3.792l.84-.06c-.012-.132-.024-.3-.024-.42a2.15 2.15 0 0 1 .048-.54c.12-.588.564-1.812.852-2.652l-.492-.384c-.2.492-.492 1.224-.684 1.764a11.257 11.257 0 0 1 -.12-1.668 29.753 29.753 0 0 1 .6-4.836 6.239 6.239 0 0 1 .204-.816zm13.068 9.324a2.561 2.561 0 0 0 2.82-2.508 2.263 2.263 0 0 0 -1.86-2.232v-.048a2.2 2.2 0 0 0 1.56-2.124 2.26 2.26 0 0 0 -2.556-2.208 3.522 3.522 0 0 0 -2.46 1.056l.588.7a2.568 2.568 0 0 1 1.824-.852 1.35 1.35 0 0 1 1.488 1.392c0 .948-.624 1.68-2.436 1.68v.84c2.028 0 2.736.708 2.736 1.752a1.622 1.622 0 0 1 -1.788 1.64 2.908 2.908 0 0 1 -2.184-1.008l-.552.72a3.641 3.641 0 0 0 2.82 1.2zm7.644-2.964a5.961 5.961 0 0 1 -.96 2.064 3.7 3.7 0 0 1 .576.384 7.805 7.805 0 0 0 1.08-2.292zm3.564-.576v-.7h-3.972v.7h1.62v3.3c0 .108-.024.132-.144.144s-.444.012-.864 0a2.5 2.5 0 0 1 .252.708 2.831 2.831 0 0 0 1.188-.144c.264-.12.324-.324.324-.708v-3.3zm.324 2.376a7.561 7.561 0 0 0 -.9-1.788l-.6.228a8.066 8.066 0 0 1 .876 1.824zm1.74-5.784-.384.3a10.375 10.375 0 0 1 1.1.8h-1.7c-.048-.36-.072-.732-.1-1.1zm1.008 2.328a8.243 8.243 0 0 1 -1.14 2.328 13.817 13.817 0 0 1 -.756-2.832h3.264v-.72h-.888l.12-.12a7.828 7.828 0 0 0 -1.332-.984h2.16v-.744h-4.656v-.984h3.52v-.672h-3.52v-.84h-.88v2.5h-2.18v-1.96h-.84v1.956h-1.92v.744h6.156c.012.372.048.744.1 1.1h-5.58v2a7.034 7.034 0 0 1 -1.012 4.112 4.07 4.07 0 0 1 .676.528 8.1 8.1 0 0 0 1.164-4.62v-1.3h4.848a15.355 15.355 0 0 0 1.008 3.552 8.674 8.674 0 0 1 -2.176 1.732 4.181 4.181 0 0 1 .6.624 8.9 8.9 0 0 0 1.956-1.596c.564 1.008 1.224 1.62 1.86 1.62.72 0 1.02-.48 1.152-2.148a2.113 2.113 0 0 1 -.672-.384c-.048 1.212-.168 1.728-.42 1.728-.408 0-.912-.54-1.38-1.464a9.835 9.835 0 0 0 1.572-2.992zm6.2 3.2c0-.552.624-1 1.764-1a5.322 5.322 0 0 1 1.164.12c0 .312.012.6.012.8 0 .828-.588 1.044-1.272 1.044-1.184.012-1.664-.408-1.664-.96zm3.8-8.268h-1.008a6.585 6.585 0 0 1 .048.72v.852h-.552a21.8 21.8 0 0 1 -3.076-.26l.012.888c.756.084 2.232.2 3.072.2h.528v1.68h-.648a22.2 22.2 0 0 1 -3.024-.228l.012.9c.864.1 2.184.168 3 .168h.684c.012.516.036 1.092.048 1.632a6.873 6.873 0 0 0 -1.004-.068c-1.728 0-2.772.744-2.772 1.836 0 1.152.936 1.764 2.664 1.764 1.556 0 2.108-.852 2.108-1.68 0-.192-.012-.444-.024-.744a8.847 8.847 0 0 1 2.904 1.812l.552-.852a9.549 9.549 0 0 0 -3.5-1.872c-.024-.576-.06-1.224-.084-1.848 1.14-.036 2.2-.132 3.324-.276l.012-.9a29.86 29.86 0 0 1 -3.348.324v-1.68c1.152-.06 2.292-.168 3.24-.276l.012-.876a29.837 29.837 0 0 1 -3.252.324c0-.312.012-.576.012-.732a6.007 6.007 0 0 1 .068-.804zm7.04 1.632.108 1.044c1.3-.276 4.356-.564 5.64-.708a4.874 4.874 0 0 0 -2.244 4.064c0 2.672 2.532 3.86 4.748 3.944l.348-1c-1.956-.072-4.14-.816-4.14-3.156a4.224 4.224 0 0 1 2.748-3.8 10.051 10.051 0 0 1 2.356-.188v-.96c-.8.036-1.932.108-3.24.216-2.208.18-4.476.408-5.256.492-.228.02-.616.044-1.068.052zm7.836 1.668-.612.264a11.14 11.14 0 0 1 .984 1.692l.612-.288a14.243 14.243 0 0 0 -.984-1.664zm1.308-.5-.588.276a11.122 11.122 0 0 1 1.008 1.68l.624-.3a15.849 15.849 0 0 0 -1.044-1.656z" transform="translate(149 325)"/><g fill="#1778b1" transform="translate(.5 168)"><path d="m86.708 197.6a.624.624 0 0 0 .18.03.592.592 0 0 0 .572-.421.6.6 0 0 0 -.385-.758.611.611 0 0 0 -.758.391.6.6 0 0 0 .391.758z" transform="translate(-79.799 -181.657)"/><path d="m148.01 112.462a.62.62 0 0 0 .361-.12h-.006a.6.6 0 0 0 .132-.837.606.606 0 0 0 -.842-.132.6.6 0 0 0 -.126.842.592.592 0 0 0 .481.247z" transform="translate(-136.325 -102.892)"/><path d="m247.52 79.422h.006a.6.6 0 0 0 -.006-1.2.609.609 0 0 0 -.6.608.6.6 0 0 0 .6.592z" transform="translate(-228.351 -72.337)"/><path d="m347.462 111.257a.6.6 0 0 0 .487-.253.6.6 0 1 0 -.836.138.586.586 0 0 0 .349.115z" transform="translate(-320.78 -101.778)"/><path d="m87.294 301.3a.592.592 0 0 0 -.379.758h-.006a.607.607 0 0 0 .578.415.523.523 0 0 0 .186-.031.6.6 0 0 0 -.379-1.143z" transform="translate(-80.349 -278.613)"/><path d="m148.976 386.018a.606.606 0 0 0 .139.842.626.626 0 0 0 .349.108.611.611 0 0 0 .493-.247.6.6 0 0 0 -.98-.7z" transform="translate(-137.67 -356.759)"/><path d="m410.355 299.859a.6.6 0 0 0 -.758.391.594.594 0 0 0 .391.752.485.485 0 0 0 .186.03.6.6 0 0 0 .18-1.173z" transform="translate(-378.771 -277.284)"/><path d="m409.617 195.709a.723.723 0 0 0 .186-.03.612.612 0 0 0 .385-.764l-.018-.036v-.006a.6.6 0 0 0 -1.143.38.079.079 0 0 1 .012.036c.006 0 .006 0 .006.006a.6.6 0 0 0 .572.414z" transform="translate(-378.243 -179.841)"/><path d="m348.569 385.021a.6.6 0 0 0 -.132.842.61.61 0 0 0 .487.247.583.583 0 0 0 .349-.12.6.6 0 1 0 -.7-.969z" transform="translate(-322.128 -355.961)"/><path d="m249.356 417.742a.6.6 0 0 0 .006 1.2.6.6 0 1 0 -.006-1.2z" transform="translate(-230.055 -386.33)"/><path d="m19.25 0a19.25 19.25 0 1 0 19.25 19.25 19.272 19.272 0 0 0 -19.25-19.25zm0 33.917a14.667 14.667 0 1 1 14.667-14.667 14.683 14.683 0 0 1 -14.667 14.667z"/><path d="m238.153 130.672h-3.145v12h10.427v-3.145h-7.282z" transform="translate(-217.337 -120.846)"/></g><path d="m-93.408-8.724a8.81 8.81 0 0 0 -2.352-1.236l-.48.66a9.575 9.575 0 0 1 2.328 1.308zm-.624 3.132a10.173 10.173 0 0 0 -2.376-1.1l-.468.684a10.086 10.086 0 0 1 2.364 1.176zm-.276 1.932a36.1 36.1 0 0 1 -2.148 3.852l.756.576c.672-1.116 1.464-2.592 2.064-3.852zm8.5 4.128a16.307 16.307 0 0 0 -2.292-3.444l-.756.4a20.692 20.692 0 0 1 1.236 1.7c-1.416.1-2.844.18-4.08.24.528-1.044 1.092-2.412 1.536-3.552h4.152v-.852h-3.408v-2.2h2.844v-.84h-2.844v-1.956h-.912v1.956h-2.736v.84h2.736v2.2h-3.336v.852h2.448a28.313 28.313 0 0 1 -1.44 3.612l-1 .048.132.888c1.656-.108 4.068-.26 6.384-.444a7.934 7.934 0 0 1 .5 1.02zm3.288-8.292h8.172v1.752h.912v-2.592h-4.536v-1.368h-.928v1.368h-4.5v2.592h.876zm4.548 5.1h3.552v-.828h-3.552v-1.992h3.06v-.84h-6.948v.84h2.976v5.028a3.6 3.6 0 0 1 -2.216-2.316 15.146 15.146 0 0 0 .288-1.6l-.912-.084c-.264 2.148-.912 3.852-2.244 4.884a4.659 4.659 0 0 1 .732.6 6.574 6.574 0 0 0 1.792-2.668c1.092 2.024 2.88 2.456 5.364 2.456h2.78a2.63 2.63 0 0 1 .336-.9c-.576.012-2.64.012-3.072.012a10.955 10.955 0 0 1 -1.944-.144zm7.46-5.176.108 1.044c1.3-.276 4.356-.564 5.64-.708a4.874 4.874 0 0 0 -2.244 4.064c0 2.676 2.532 3.864 4.752 3.948l.348-1c-1.956-.072-4.14-.816-4.14-3.156a4.224 4.224 0 0 1 2.748-3.8 10.051 10.051 0 0 1 2.352-.192v-.96c-.8.036-1.932.108-3.24.216-2.208.18-4.476.408-5.256.492-.228.02-.612.044-1.068.052zm7.836 1.668-.612.264a11.14 11.14 0 0 1 .988 1.696l.612-.288a14.243 14.243 0 0 0 -.988-1.668zm1.308-.5-.588.276a11.122 11.122 0 0 1 1.008 1.68l.624-.3a15.849 15.849 0 0 0 -1.044-1.656zm8.22 5.292c0-.588.636-.972 1.536-.972a4.084 4.084 0 0 1 1.224.192c.012.156.012.3.012.42 0 .792-.3 1.308-1.308 1.308-.864 0-1.464-.336-1.464-.948zm3.636-7.8h-1.08c.024.2.048.528.048.732v1.488c-.372.012-.756.024-1.128.024-.72 0-1.356-.036-2.04-.1v.9c.708.048 1.332.084 2.016.084.384 0 .768-.012 1.152-.024.012.984.084 2.16.12 3.084a5.5 5.5 0 0 0 -1.116-.108c-1.572 0-2.472.8-2.472 1.812 0 1.08.888 1.716 2.5 1.716s2.072-.944 2.072-1.928v-.252a9.762 9.762 0 0 1 1.812 1.392l.528-.8a7.91 7.91 0 0 0 -2.376-1.548c-.048-1.008-.132-2.208-.144-3.42.72-.048 1.416-.12 2.076-.228v-.924a20.263 20.263 0 0 1 -2.076.276c.012-.564.024-1.128.036-1.452q.018-.364.072-.724zm-5.928.072-1.06-.084a7.2 7.2 0 0 1 -.072.852 35.706 35.706 0 0 0 -.552 5.052 14.494 14.494 0 0 0 .46 3.792l.84-.06c-.012-.132-.024-.3-.024-.42a2.15 2.15 0 0 1 .048-.54c.12-.588.564-1.812.852-2.652l-.492-.384c-.2.492-.492 1.224-.684 1.764a11.257 11.257 0 0 1 -.12-1.668 29.753 29.753 0 0 1 .6-4.836 6.239 6.239 0 0 1 .204-.816zm10.956 9.168h4.824v-.912h-1.764v-7.9h-.84a5.3 5.3 0 0 1 -1.824.636v.7h1.56v6.564h-1.956zm9.756-2.808a5.961 5.961 0 0 1 -.96 2.064 3.7 3.7 0 0 1 .576.384 7.805 7.805 0 0 0 1.08-2.292zm3.564-.576v-.7h-3.972v.7h1.62v3.3c0 .108-.024.132-.144.144s-.444.012-.864 0a2.5 2.5 0 0 1 .252.708 2.831 2.831 0 0 0 1.188-.144c.264-.12.324-.324.324-.708v-3.3zm.324 2.376a7.561 7.561 0 0 0 -.9-1.788l-.6.228a8.066 8.066 0 0 1 .876 1.824zm1.74-5.784-.384.3a10.375 10.375 0 0 1 1.1.8h-1.7c-.048-.36-.072-.732-.1-1.1zm1.008 2.328a8.243 8.243 0 0 1 -1.14 2.328 13.817 13.817 0 0 1 -.756-2.832h3.264v-.72h-.888l.12-.12a7.828 7.828 0 0 0 -1.332-.984h2.16v-.744h-4.656v-.984h3.52v-.672h-3.52v-.84h-.88v2.5h-2.18v-1.96h-.84v1.956h-1.92v.744h6.156c.012.372.048.744.1 1.1h-5.58v2a7.034 7.034 0 0 1 -1.012 4.112 4.07 4.07 0 0 1 .676.528 8.1 8.1 0 0 0 1.164-4.62v-1.3h4.848a15.355 15.355 0 0 0 1.008 3.552 8.674 8.674 0 0 1 -2.176 1.732 4.181 4.181 0 0 1 .6.624 8.9 8.9 0 0 0 1.956-1.596c.564 1.008 1.224 1.62 1.86 1.62.72 0 1.02-.48 1.152-2.148a2.113 2.113 0 0 1 -.672-.384c-.048 1.212-.168 1.728-.42 1.728-.408 0-.912-.54-1.38-1.464a9.835 9.835 0 0 0 1.572-2.992zm6.2 3.2c0-.552.624-1 1.764-1a5.322 5.322 0 0 1 1.164.12c0 .312.012.6.012.8 0 .828-.588 1.044-1.272 1.044-1.184.012-1.664-.408-1.664-.96zm3.8-8.268h-1.008a6.585 6.585 0 0 1 .048.72v.852h-.552a21.8 21.8 0 0 1 -3.076-.26l.012.888c.756.084 2.232.2 3.072.2h.528v1.68h-.648a22.2 22.2 0 0 1 -3.024-.228l.012.9c.864.1 2.184.168 3 .168h.684c.012.516.036 1.092.048 1.632a6.873 6.873 0 0 0 -1.004-.068c-1.728 0-2.772.744-2.772 1.836 0 1.152.936 1.764 2.664 1.764 1.556 0 2.108-.852 2.108-1.68 0-.192-.012-.444-.024-.744a8.847 8.847 0 0 1 2.904 1.812l.552-.852a9.549 9.549 0 0 0 -3.5-1.872c-.024-.576-.06-1.224-.084-1.848 1.14-.036 2.2-.132 3.324-.276l.012-.9a29.86 29.86 0 0 1 -3.348.324v-1.68c1.152-.06 2.292-.168 3.24-.276l.012-.876a29.837 29.837 0 0 1 -3.252.324c0-.312.012-.576.012-.732a6.007 6.007 0 0 1 .068-.804zm7.04 1.632.108 1.044c1.3-.276 4.356-.564 5.64-.708a4.874 4.874 0 0 0 -2.244 4.064c0 2.672 2.532 3.86 4.748 3.944l.348-1c-1.956-.072-4.14-.816-4.14-3.156a4.224 4.224 0 0 1 2.748-3.8 10.051 10.051 0 0 1 2.356-.188v-.96c-.8.036-1.932.108-3.24.216-2.208.18-4.476.408-5.256.492-.228.02-.616.044-1.068.052zm7.836 1.668-.612.264a11.14 11.14 0 0 1 .984 1.692l.612-.288a14.243 14.243 0 0 0 -.984-1.664zm1.308-.5-.588.276a11.122 11.122 0 0 1 1.008 1.68l.624-.3a15.849 15.849 0 0 0 -1.044-1.656zm-100.092 26.172a7.973 7.973 0 0 0 2.388 5.712l.72-.372a7.509 7.509 0 0 1 -2.232-5.34 7.509 7.509 0 0 1 2.232-5.34l-.72-.372a7.973 7.973 0 0 0 -2.388 5.712zm13.632-3.64h-6v-.828h6zm0 1.44h-6v-.84h6zm.876-2.9h-7.716v3.54h7.716zm-.12 6.408a5.692 5.692 0 0 1 -1.3 1.764 5.677 5.677 0 0 1 -1.176-1.764zm-7.176 1.536h2.172v.732c-.744.084-1.488.156-2.172.228zm0-1.512h2.172v.84h-2.172zm2.172-1.476v.8h-2.172v-.8zm5.556.72-.156.024h-4.128v.708h1.032l-.516.156a6.913 6.913 0 0 0 1.32 2.112 7.273 7.273 0 0 1 -2.256 1.14v-4.856h5.616v-.744h-10.488v.744h1.036v4.032c-.42.048-.8.084-1.14.108l.084.792c1.116-.132 2.58-.3 4.044-.48v1.164h.852v-.744a2.93 2.93 0 0 1 .468.672 8.306 8.306 0 0 0 2.388-1.26 6.876 6.876 0 0 0 2.504 1.316 2.94 2.94 0 0 1 .54-.7 6.486 6.486 0 0 1 -2.424-1.152 6.855 6.855 0 0 0 1.764-2.82zm12.708.564a18.441 18.441 0 0 1 -2.532 1.62 6.072 6.072 0 0 1 -1.236-1.728h5.028v-.8h-7.644v-1.02h6.12v-.732h-6.12v-1h6.12v-.732h-6.12v-1h6.48v-.756h-7.392v5.232h-2.1v.8h2.1v3.312c-.564.084-1.092.168-1.524.228l.228.816c1.428-.24 3.48-.588 5.388-.924l-.036-.792c-1.056.18-2.148.36-3.144.528v-3.16h1.7a7.5 7.5 0 0 0 5.58 4.476 2.784 2.784 0 0 1 .552-.78 8.1 8.1 0 0 1 -3.42-1.476 19.462 19.462 0 0 0 2.7-1.632zm8.244 1.98c0-.588.636-.972 1.536-.972a4.084 4.084 0 0 1 1.224.192c.012.156.012.3.012.42 0 .792-.3 1.308-1.308 1.308-.864 0-1.464-.336-1.464-.948zm3.636-7.8h-1.08c.024.2.048.528.048.732v1.488c-.372.012-.756.024-1.128.024-.72 0-1.356-.036-2.04-.1v.9c.708.048 1.332.084 2.016.084.384 0 .768-.012 1.152-.024.012.984.084 2.16.12 3.084a5.5 5.5 0 0 0 -1.116-.108c-1.572 0-2.472.8-2.472 1.812 0 1.08.888 1.716 2.5 1.716s2.076-.948 2.076-1.932v-.252a9.762 9.762 0 0 1 1.812 1.392l.528-.8a7.91 7.91 0 0 0 -2.376-1.548c-.048-1.008-.132-2.208-.144-3.42.72-.048 1.416-.12 2.076-.228v-.924a20.263 20.263 0 0 1 -2.076.276c.012-.564.024-1.128.036-1.452q.014-.36.068-.72zm-5.928.072-1.056-.084a7.2 7.2 0 0 1 -.072.852 35.706 35.706 0 0 0 -.552 5.052 14.494 14.494 0 0 0 .456 3.792l.84-.06c-.012-.132-.024-.3-.024-.42a2.15 2.15 0 0 1 .048-.54c.12-.588.564-1.812.852-2.652l-.492-.384c-.2.492-.492 1.224-.684 1.764a11.257 11.257 0 0 1 -.12-1.668 29.753 29.753 0 0 1 .6-4.836 6.239 6.239 0 0 1 .204-.816zm10.428 9.168h5.532v-.948h-2.436c-.444 0-.984.048-1.44.084 2.064-1.956 3.444-3.744 3.444-5.5a2.413 2.413 0 0 0 -2.556-2.6 3.364 3.364 0 0 0 -2.592 1.3l.636.624a2.463 2.463 0 0 1 1.824-1.02 1.546 1.546 0 0 1 1.62 1.74c0 1.512-1.272 3.264-4.032 5.676zm10.284-2.808a5.961 5.961 0 0 1 -.96 2.064 3.7 3.7 0 0 1 .576.384 7.805 7.805 0 0 0 1.08-2.292zm3.564-.576v-.7h-3.976v.7h1.62v3.3c0 .108-.024.132-.144.144s-.444.012-.864 0a2.5 2.5 0 0 1 .252.708 2.831 2.831 0 0 0 1.188-.144c.264-.12.324-.324.324-.708v-3.3zm.324 2.376a7.561 7.561 0 0 0 -.9-1.788l-.6.228a8.066 8.066 0 0 1 .876 1.824zm1.74-5.784-.384.3a10.375 10.375 0 0 1 1.1.8h-1.7c-.048-.36-.072-.732-.1-1.1zm1.008 2.328a8.243 8.243 0 0 1 -1.14 2.328 13.817 13.817 0 0 1 -.756-2.832h3.264v-.72h-.888l.12-.12a7.828 7.828 0 0 0 -1.332-.984h2.16v-.744h-4.656v-.984h3.516v-.672h-3.516v-.84h-.876v2.5h-2.184v-1.96h-.84v1.956h-1.92v.744h6.156c.012.372.048.744.1 1.1h-5.58v2a7.034 7.034 0 0 1 -1.008 4.1 4.07 4.07 0 0 1 .672.528 8.1 8.1 0 0 0 1.164-4.62v-1.3h4.848a15.355 15.355 0 0 0 1.008 3.552 8.674 8.674 0 0 1 -2.172 1.728 4.18 4.18 0 0 1 .6.624 8.9 8.9 0 0 0 1.956-1.6c.564 1.008 1.224 1.62 1.86 1.62.72 0 1.02-.48 1.152-2.148a2.113 2.113 0 0 1 -.672-.384c-.048 1.212-.168 1.728-.42 1.728-.408 0-.912-.54-1.38-1.464a9.835 9.835 0 0 0 1.568-2.972zm6.2 3.2c0-.552.624-1 1.764-1a5.322 5.322 0 0 1 1.164.12c0 .312.012.6.012.8 0 .828-.588 1.044-1.272 1.044-1.184.012-1.664-.408-1.664-.96zm3.8-8.268h-1.02a6.585 6.585 0 0 1 .048.72v.852h-.552a21.8 21.8 0 0 1 -3.072-.264l.012.888c.756.084 2.232.2 3.072.2h.528v1.68h-.648a22.2 22.2 0 0 1 -3.024-.228l.012.9c.864.1 2.184.168 3 .168h.696c.012.516.036 1.092.048 1.632a6.873 6.873 0 0 0 -1.008-.072c-1.728 0-2.772.744-2.772 1.836 0 1.152.936 1.764 2.664 1.764 1.56 0 2.112-.852 2.112-1.68 0-.192-.012-.444-.024-.744a8.847 8.847 0 0 1 2.9 1.812l.552-.852a9.549 9.549 0 0 0 -3.5-1.872c-.024-.576-.06-1.224-.084-1.848 1.14-.036 2.2-.132 3.324-.276l.012-.9a29.86 29.86 0 0 1 -3.348.324v-1.68c1.152-.06 2.292-.168 3.24-.276l.012-.876a29.837 29.837 0 0 1 -3.252.324c0-.312.012-.576.012-.732a6.007 6.007 0 0 1 .068-.796zm7.032 1.632.108 1.044c1.3-.276 4.356-.564 5.64-.708a4.874 4.874 0 0 0 -2.236 4.064c0 2.676 2.532 3.864 4.752 3.948l.348-1c-1.956-.072-4.14-.816-4.14-3.156a4.224 4.224 0 0 1 2.748-3.8 10.051 10.051 0 0 1 2.352-.192v-.96c-.8.036-1.932.108-3.24.216-2.208.18-4.476.408-5.256.492-.228.02-.612.044-1.068.052zm7.836 1.668-.612.264a11.14 11.14 0 0 1 .984 1.692l.612-.288a14.243 14.243 0 0 0 -.976-1.664zm1.308-.5-.588.276a11.122 11.122 0 0 1 1.008 1.68l.624-.3a15.849 15.849 0 0 0 -1.036-1.656zm6.536 2.172a7.973 7.973 0 0 0 -2.388-5.712l-.72.372a7.509 7.509 0 0 1 2.232 5.34 7.509 7.509 0 0 1 -2.232 5.34l.72.372a7.973 7.973 0 0 0 2.388-5.712z" transform="translate(356 325)"/><path d="m0 0h370v360h-370z" fill="none"/></svg>