<svg height="354.5" viewBox="0 0 392.184 354.5" width="392.184" xmlns="http://www.w3.org/2000/svg"><path d="m12.11-9.59a2.848 2.848 0 0 1 -.9.112h-8.34a10.758 10.758 0 0 1 -1.428-.112v1.26c.28-.028.882-.084 1.428-.084h8.23a17.17 17.17 0 0 1 -4.366 4.858c-.952-.854-2.1-1.778-2.618-2.156l-.91.728a33.035 33.035 0 0 1 3.206 2.758 33.584 33.584 0 0 1 2.52 2.856l1.022-.812c-.56-.686-1.554-1.736-2.394-2.576a21.915 21.915 0 0 0 5.1-5.684 3.965 3.965 0 0 1 .35-.434zm14.308.056a2.468 2.468 0 0 1 -.924.14h-3.822c.112-.182.21-.35.294-.518.14-.266.392-.742.616-1.106l-1.26-.406a6.015 6.015 0 0 1 -.448 1.12 12.487 12.487 0 0 1 -4.494 4.858l.938.728a15.19 15.19 0 0 0 3.71-3.682h4.76a11.706 11.706 0 0 1 -1.806 3.738c-1.092-.658-2.268-1.33-3.08-1.75l-.714.826c.784.434 1.96 1.134 3.066 1.848a12.269 12.269 0 0 1 -5.53 3.486l1.008.868a13.265 13.265 0 0 0 5.488-3.724c.532.364.994.7 1.33.966l.77-1.008c-.35-.252-.826-.574-1.358-.91a14.243 14.243 0 0 0 2.044-4.158 6.133 6.133 0 0 1 .322-.756zm5.11 8.694c.472-.028.966-.07 1.472-.07h8.386c.378 0 .854.028 1.274.07v-1.344a9.584 9.584 0 0 1 -1.274.07h-8.386c-.5 0-.994-.028-1.47-.07zm1.2-7.014q.651-.042 1.386-.042h5.996c.462 0 .994.014 1.386.042v-1.26a13.45 13.45 0 0 1 -1.386.07h-6.01c-.448 0-.924-.028-1.372-.07zm22.572-1.386c.406 0 .9.014 1.3.042v-1.162a10.329 10.329 0 0 1 -1.3.084h-5.67a11.645 11.645 0 0 1 -1.26-.084v1.16c.35-.028.812-.042 1.274-.042zm-7.378 2.464a10.987 10.987 0 0 1 -1.218-.07v1.162c.378-.028.784-.028 1.218-.028h4.186a6.778 6.778 0 0 1 -.808 3.472 5.8 5.8 0 0 1 -2.65 2.14l1.036.756a6.712 6.712 0 0 0 2.758-2.546 8.474 8.474 0 0 0 .826-3.822h3.808c.336 0 .784.014 1.092.028v-1.162a7.505 7.505 0 0 1 -1.092.07zm21.812-1.666a14.43 14.43 0 0 1 -3.612 2.884 18.494 18.494 0 0 1 -4.858 1.918l.6 1.022a24.387 24.387 0 0 0 4.4-1.792v4.284c0 .42-.028.994-.056 1.2h1.288a7.015 7.015 0 0 1 -.07-1.2v-4.956a17.191 17.191 0 0 0 3.174-2.534zm6.454 3.752c.434-.042 1.176-.07 1.946-.07h7.686c.63 0 1.218.056 1.5.07v-1.372c-.308.028-.812.07-1.512.07h-7.674c-.784 0-1.526-.042-1.946-.07zm17.822-6.93a14.387 14.387 0 0 1 -3.794 5.614 5.958 5.958 0 0 1 .63 1.05 14.2 14.2 0 0 0 1.654-1.844v7.85h1.02v-9.35a20.8 20.8 0 0 0 1.526-3zm9.17 4.466v-1.008h-4.046v-3.36h-1.022v3.36h-3.934v1.008h3.388a14.222 14.222 0 0 1 -3.878 5.726 6.04 6.04 0 0 1 .784.8 15.632 15.632 0 0 0 3.64-5.39v7.1h1.022v-7.396a17 17 0 0 0 3.626 5.628 3.729 3.729 0 0 1 .784-.84 14.772 14.772 0 0 1 -3.808-5.628zm14.812-3.934h-3.556v.9h2.632v2.52h-2.632v.9h3.556zm-9.436 1.274v3.164h-1.61v-3.164zm-1.61 7.35v-3.262h1.61v3.262zm2.478-8.274h-3.332v10.3h.854v-1.088h2.478zm3.542.532v2.562h-1.708v-2.562zm.868 8.456v-.882h-2.576v-1.736h2.342v-.882h-2.338v-1.5h2.632v-4.34h-3.6v12.126h.966v-2.786zm3.22-3.066a8.975 8.975 0 0 1 -1.022 2.548 9.862 9.862 0 0 1 -.938-2.548zm.49-.91-.154.028h-3.374v.882h1.008l-.714.154a12.735 12.735 0 0 0 1.148 3.178 6.136 6.136 0 0 1 -2.394 1.778 2.841 2.841 0 0 1 .532.756 7.164 7.164 0 0 0 2.38-1.708 5.558 5.558 0 0 0 1.806 1.68 3.751 3.751 0 0 1 .644-.756 5.107 5.107 0 0 1 -1.862-1.652 10.16 10.16 0 0 0 1.582-4.172zm7.272-4.7a.617.617 0 0 0 -.612-.612.617.617 0 0 0 -.612.612.617.617 0 0 0 .612.612.617.617 0 0 0 .612-.617zm-3.307-.6-.237.237 2.694 2.689-2.7 2.7.237.237 2.7-2.7 2.697 2.692.237-.237-2.697-2.692 2.695-2.695-.237-.237-2.698 2.692zm.367 2.319a.617.617 0 0 0 -.612.612.617.617 0 0 0 .612.612.617.617 0 0 0 .612-.612.617.617 0 0 0 -.612-.621zm4.655 1.225a.617.617 0 0 0 .612-.612.617.617 0 0 0 -.612-.612.617.617 0 0 0 -.612.612.617.617 0 0 0 .611.603zm-2.94 1.715a.617.617 0 0 0 .612.612.617.617 0 0 0 .612-.612.617.617 0 0 0 -.612-.612.617.617 0 0 0 -.612.603z" transform="translate(258 16.5)"/><path d="m-70.938-9.856v3.108h-2.03v-3.108zm-2.03 7.256v-3.238h2.03v3.238zm3.01-8.19h-3.962v10.258h.952v-1.134h3.01zm1.148 7.84a10.8 10.8 0 0 1 1.778 2.46l.882-.56a9.9 9.9 0 0 0 -1.82-2.38zm7.224-3.472v-.928h-3.614v-1.778h3.01v-.924h-3.01v-1.666h-1.02v1.666h-2.912v.924h2.912v1.778h-3.514v.924h5.362v1.582h-5.292v.924h5.292v3.738c0 .21-.07.266-.308.28s-.994.014-1.862-.014a3.179 3.179 0 0 1 .336.966 8.01 8.01 0 0 0 2.268-.168c.42-.154.574-.462.574-1.05v-3.752h1.624v-.924h-1.624v-1.582zm7.028-3.878v1.162h-3.024v-1.162zm-3.024 3.16v-1.232h3.024v1.232zm4.018.8v-4.774h-5.054v12.192h1.036v-7.42zm2.254 1.848v1.3h-3.29v-1.3zm-3.29 3.442v-1.358h3.29v1.358zm4.256.826v-5.068h-5.194v5.768h.938v-.7zm-.98-6.9v-1.248h3.136v1.246zm3.136-3.178v1.162h-3.136v-1.16zm1.05-.812h-5.18v4.788h4.13v6.004c0 .252-.084.336-.322.336s-1.106.028-1.96-.014a3.835 3.835 0 0 1 .364 1.064 7.969 7.969 0 0 0 2.352-.182c.462-.182.616-.532.616-1.19zm5.474 6.566v-1.5h3.3v1.5zm0-3.822h3.3v1.5h-3.3zm7.826 1.5h-3.472v-1.5h3.472zm0 2.324h-3.472v-1.5h3.472zm2.268 2.156h-5.74v-1.278h4.536v-5.586h-1.47c.462-.6.98-1.372 1.414-2.072l-1.12-.364a14.637 14.637 0 0 1 -1.47 2.436h-2.492l.8-.322a9.578 9.578 0 0 0 -1.148-2.156l-.924.35a9.232 9.232 0 0 1 1.078 2.128h-3.01l.714-.364a11.412 11.412 0 0 0 -1.428-1.946l-.882.392a10.687 10.687 0 0 1 1.312 1.918h-1.288v5.586h4.326v1.274h-5.638v.966h5.642v2.506h1.05v-2.506h5.74zm6.5-6.58v.98h8.5v-.98h-3.83v-2.58h-1.05v2.576zm3.22 7.532a35.56 35.56 0 0 0 -1.134-5.614l-.924.168a34.635 34.635 0 0 1 1.036 5.67zm-3.92-10.234a15.383 15.383 0 0 1 -3.584 5.488 8.816 8.816 0 0 1 .6 1.022 14.417 14.417 0 0 0 1.54-1.82v8.004h.98v-9.506a21.228 21.228 0 0 0 1.428-2.884zm6.2 11.116a58.59 58.59 0 0 0 1.848-6.426l-1.12-.2a46.22 46.22 0 0 1 -1.738 6.622h-4.83v.98h9.184v-.98zm15.26-6.706-.714.308a13 13 0 0 1 1.146 1.97l.714-.336a16.617 16.617 0 0 0 -1.148-1.946zm1.526-.588-.7.322a12.47 12.47 0 0 1 1.184 1.942l.728-.336a21.147 21.147 0 0 0 -1.214-1.932zm-10.616-1.362.126 1.232c1.5-.308 5.278-.672 6.5-.812a5.6 5.6 0 0 0 -2.578 4.676c0 3.094 2.926 4.466 5.488 4.578l.406-1.176c-2.254-.086-4.774-.938-4.774-3.64a4.848 4.848 0 0 1 3.164-4.382 11.488 11.488 0 0 1 2.716-.224v-1.12c-.924.042-2.226.112-3.738.238-2.548.224-5.166.476-6.076.56-.266.028-.7.056-1.234.07zm19.474 1.2h-2.728v-1.858h2.73zm-2.728 3.826h2.73v1.722c-.938.14-1.876.28-2.73.392zm2.73-.952h-2.73v-1.946h2.73zm1.988-4.732v-.966h-6.79v.966h1.092v7.938c-.5.07-.966.126-1.358.168l.182 1.05c1.33-.224 3.122-.486 4.886-.786v2.536h1.008v-10.906zm4.844.028-.2.042h-5v1.022h4.718a15.36 15.36 0 0 1 -1.726 5.236 18.032 18.032 0 0 1 -1.722-5.18l-.998.182a19.5 19.5 0 0 0 2.086 5.978 8.541 8.541 0 0 1 -2.94 2.59 4 4 0 0 1 .686.84 9.991 9.991 0 0 0 2.856-2.492 8.758 8.758 0 0 0 2.786 2.534 4.339 4.339 0 0 1 .746-.854 7.776 7.776 0 0 1 -2.884-2.6 17.026 17.026 0 0 0 2.268-7.1zm14.126.476h-4.606v-1.12h4.606zm0 1.89h-4.606v-1.134h4.606zm1.036-3.794h-6.65v4.592h6.65zm-8.848-.392a10.731 10.731 0 0 1 -2.968 2.856 4.538 4.538 0 0 1 .546.84 14 14 0 0 0 3.416-3.318zm.252 3.052a13.139 13.139 0 0 1 -3.444 3.78 6.52 6.52 0 0 1 .546.994 13.514 13.514 0 0 0 1.638-1.512v6.412h1.022v-7.588a16 16 0 0 0 1.148-1.722zm1.974 6.566a12.547 12.547 0 0 1 1.722 2.03l.8-.56a12.323 12.323 0 0 0 -1.78-1.946zm7.532-1.61h-2.086v-1.19h1.834v-.9h-8.162v.9h5.292v1.19h-5.614v.9h5.614v2.654c0 .182-.056.238-.28.252-.2.014-.9.014-1.68-.014a3.517 3.517 0 0 1 .336.952 7.17 7.17 0 0 0 2.128-.166c.406-.168.532-.434.532-.994v-2.688h2.086zm12.068-3.612-.714.308a13 13 0 0 1 1.148 1.974l.718-.336a16.617 16.617 0 0 0 -1.152-1.946zm1.526-.588-.7.322a12.47 12.47 0 0 1 1.19 1.946l.728-.336a21.148 21.148 0 0 0 -1.218-1.932zm-10.612-1.358.126 1.232c1.5-.308 5.278-.672 6.5-.812a5.6 5.6 0 0 0 -2.576 4.676c-.004 3.094 2.922 4.466 5.488 4.578l.4-1.176c-2.254-.084-4.774-.938-4.774-3.64a4.848 4.848 0 0 1 3.164-4.382 11.488 11.488 0 0 1 2.716-.224v-1.12c-.924.042-2.226.112-3.738.238-2.548.224-5.166.476-6.076.56-.264.028-.698.056-1.23.07zm16.912 5.46a6.26 6.26 0 0 0 -.322 1.736c0 1.736 1.456 2.59 3.934 2.59a21.474 21.474 0 0 0 3.346-.266l.028-1.134a16.651 16.651 0 0 1 -3.416.326c-1.974 0-2.814-.676-2.814-1.74a4.742 4.742 0 0 1 .322-1.414zm8.834-3.794a14.458 14.458 0 0 1 -2.562.686c-.238-.518-.434-.952-.546-1.246l-.252-.574a19.15 19.15 0 0 0 2.576-.588l-.2-.994a15.605 15.605 0 0 1 -2.754.662 14.241 14.241 0 0 1 -.518-1.54l-1.26.266a9.993 9.993 0 0 1 .518.98c.056.126.112.266.182.42a25.21 25.21 0 0 1 -4.536-.112l.07 1.022a28.429 28.429 0 0 0 4.874.024c.1.224.2.476.308.714l.49 1.134a27.677 27.677 0 0 1 -5.824.028l.042 1.022a33.329 33.329 0 0 0 6.2-.126c.322.728.644 1.456.91 2-.434-.042-1.092-.112-1.764-.2l-.1.854c.882.112 2 .266 2.7.392l.546-.686c-.392-.728-.84-1.666-1.246-2.548a18.467 18.467 0 0 0 2.352-.588zm10.318 7.084c-1.036 0-1.834-.392-1.834-1.078 0-.476.476-.854 1.106-.854a1.851 1.851 0 0 1 1.834 1.848 6.829 6.829 0 0 1 -1.106.084zm2.856-10.066a4.965 4.965 0 0 1 -.756.112c-.728.07-4.018.168-4.732.168a7.872 7.872 0 0 1 -.98-.042l.028 1.162a6.675 6.675 0 0 1 .938-.084c.714-.042 3.444-.168 4.172-.2-.686.616-2.408 2.072-3.178 2.716-.812.672-2.59 2.156-3.738 3.108l.812.826c1.764-1.792 3.024-2.758 5.306-2.758 1.75 0 3.122.994 3.122 2.352a2.418 2.418 0 0 1 -1.722 2.356 2.738 2.738 0 0 0 -2.854-2.45 1.97 1.97 0 0 0 -2.142 1.82c0 1.148 1.162 1.988 3.052 1.988 2.924 0 4.79-1.456 4.79-3.696 0-1.876-1.666-3.276-3.976-3.276a5.891 5.891 0 0 0 -1.876.294c1.064-.9 2.926-2.534 3.612-3.052.21-.154.518-.364.77-.532z" transform="translate(300 152.5)"/><g fill="#1778b1"><path d="m19.556-58.271h-20.918l-3.338 11.25q.747-.088 1.428-.132t1.252-.044a21.351 21.351 0 0 1 16.216 6.68q6.372 6.636 6.372 17.007 0 10.723-7.207 17.666t-18.151 6.944q-13.491 0-21.27-12.656l7.734-6.548q3.208 5.449 6.46 7.69a13.878 13.878 0 0 0 7.954 2.2 13.809 13.809 0 0 0 10.328-4.31 15.142 15.142 0 0 0 4.175-10.767 14.394 14.394 0 0 0 -4.131-10.635 13.788 13.788 0 0 0 -10.327-4.262q-6.9 0-11.909 6.021h-3.384l10.679-35.685h28.037z" transform="translate(307 113.5)"/><path d="m4.48-3.36v-2.128h2.42v2.128zm8.932 0h-4.788v-2.128h3.7v-1.54h-3.7v-1.68h4.018v-1.61h-7.91a8.938 8.938 0 0 0 .462-1.148l-1.694-.434a10.8 10.8 0 0 1 -2.94 4.662 12.885 12.885 0 0 1 1.44 1.078 12.582 12.582 0 0 0 1.9-2.548h3v1.68h-4.086v3.668h-2.214v1.6h6.3v3h1.724v-3h4.788z" transform="translate(254 110.5)"/><path d="m3.892-1.54v-3.136h6.216v3.136zm6.216-7.8v3.01h-6.216v-3.01zm-7.938-1.678v12.068h1.722v-.91h6.216v.882h1.792v-12.04zm17.892.9v.742h-2.156v-.742zm-2.156 2.66v-.8h2.156v.8zm3.71 1.19v-5.054h-5.362v12.54h1.652v-7.49zm2.548-1.162v-.83h2.226v.826zm2.226-2.688v.742h-2.226v-.742zm-5.46 8.818v-.87h2.31v.87zm2.31-2.9v.84h-2.31v-.84zm4.83-7.126h-5.488v5.082h3.808v5.474c0 .224-.084.308-.336.308-.182.014-.7.014-1.246 0v-4.97h-5.39v6.062h1.512v-.714h3.47a6.164 6.164 0 0 1 .364 1.3 6.049 6.049 0 0 0 2.564-.316c.56-.266.742-.756.742-1.652z" transform="translate(337 110.5)"/><path d="m206 20.515h5.753v2.685h-5.753z"/><path d="m242.964 20.515h5.752v2.685h-5.752z"/><path d="m26.248 338.462 1.343 2.327 4.982-2.877-1.343-2.326z" transform="translate(181.942 -307.088)"/><path d="m416.271 116.383-1.343-2.326-4.982 2.877 1.343 2.326z" transform="translate(-169.745 -104.041)"/><path d="m114.065 414.929 2.326 1.343 2.877-4.982-2.326-1.343z" transform="translate(101.451 -375.245)"/><path d="m340.8 27.591-2.327-1.343-2.873 4.982 2.326 1.343z" transform="translate(-101.597 -23.558)"/><path d="m226.016 37.464h2.685v5.752h-2.685z"/><path d="m226.016.5h2.685v5.752h-2.685z"/><path d="m335.6 411.29 2.875 4.982 2.327-1.343-2.877-4.982z" transform="translate(-101.597 -375.245)"/><path d="m119.267 31.23-2.877-4.982-2.326 1.343 2.877 4.982z" transform="translate(101.451 -23.558)"/><path d="m409.947 337.912 4.982 2.877 1.343-2.327-4.982-2.876z" transform="translate(-169.745 -307.088)"/><path d="m32.572 116.934-4.982-2.877-1.343 2.326 4.982 2.877z" transform="translate(181.942 -104.041)"/><path d="m112.956 99.926a13.021 13.021 0 1 0 13.021 13.021 13.021 13.021 0 0 0 -13.021-13.021z" transform="translate(114.403 -91.089)"/></g><path d="m188.5 198v156" fill="none" stroke="#707070"/><path d="m188.5 0v156" fill="none" stroke="#707070"/><path d="m182.177 128.33a48.91 48.91 0 0 0 -13.46 23.053s-22.3 14.022-13.581 44.987h26.212l3.867 29.281a8.46 8.46 0 0 0 8.389 7.355h1.481a8.462 8.462 0 0 0 8.463-8.462v-28.174h3.44v-66.73c-.001-10.032-14.8-10.92-24.811-1.31z" fill="#1778b1" transform="translate(-107.659 -81.396)"/><path d="m267.17 0a15.265 15.265 0 1 0 15.264 15.265 15.267 15.267 0 0 0 -15.264-15.265z" fill="#1778b1" transform="translate(-178.26 5.5)"/><path d="m12.11-9.59a2.848 2.848 0 0 1 -.9.112h-8.34a10.758 10.758 0 0 1 -1.428-.112v1.26c.28-.028.882-.084 1.428-.084h8.23a17.17 17.17 0 0 1 -4.366 4.858c-.952-.854-2.1-1.778-2.618-2.156l-.91.728a33.035 33.035 0 0 1 3.206 2.758 33.584 33.584 0 0 1 2.52 2.856l1.022-.812c-.56-.686-1.554-1.736-2.394-2.576a21.915 21.915 0 0 0 5.1-5.684 3.965 3.965 0 0 1 .35-.434zm14.308.056a2.468 2.468 0 0 1 -.924.14h-3.822c.112-.182.21-.35.294-.518.14-.266.392-.742.616-1.106l-1.26-.406a6.015 6.015 0 0 1 -.448 1.12 12.487 12.487 0 0 1 -4.494 4.858l.938.728a15.19 15.19 0 0 0 3.71-3.682h4.76a11.706 11.706 0 0 1 -1.806 3.738c-1.092-.658-2.268-1.33-3.08-1.75l-.714.826c.784.434 1.96 1.134 3.066 1.848a12.269 12.269 0 0 1 -5.53 3.486l1.008.868a13.265 13.265 0 0 0 5.488-3.724c.532.364.994.7 1.33.966l.77-1.008c-.35-.252-.826-.574-1.358-.91a14.243 14.243 0 0 0 2.044-4.158 6.133 6.133 0 0 1 .322-.756zm5.11 8.694c.472-.028.966-.07 1.472-.07h8.386c.378 0 .854.028 1.274.07v-1.344a9.584 9.584 0 0 1 -1.274.07h-8.386c-.5 0-.994-.028-1.47-.07zm1.2-7.014q.651-.042 1.386-.042h5.996c.462 0 .994.014 1.386.042v-1.26a13.45 13.45 0 0 1 -1.386.07h-6.01c-.448 0-.924-.028-1.372-.07zm22.572-1.386c.406 0 .9.014 1.3.042v-1.162a10.329 10.329 0 0 1 -1.3.084h-5.67a11.645 11.645 0 0 1 -1.26-.084v1.16c.35-.028.812-.042 1.274-.042zm-7.378 2.464a10.987 10.987 0 0 1 -1.218-.07v1.162c.378-.028.784-.028 1.218-.028h4.186a6.778 6.778 0 0 1 -.808 3.472 5.8 5.8 0 0 1 -2.65 2.14l1.036.756a6.712 6.712 0 0 0 2.758-2.546 8.474 8.474 0 0 0 .826-3.822h3.808c.336 0 .784.014 1.092.028v-1.162a7.505 7.505 0 0 1 -1.092.07zm21.812-1.666a14.43 14.43 0 0 1 -3.612 2.884 18.494 18.494 0 0 1 -4.858 1.918l.6 1.022a24.387 24.387 0 0 0 4.4-1.792v4.284c0 .42-.028.994-.056 1.2h1.288a7.015 7.015 0 0 1 -.07-1.2v-4.956a17.191 17.191 0 0 0 3.174-2.534zm6.454 3.752c.434-.042 1.176-.07 1.946-.07h7.686c.63 0 1.218.056 1.5.07v-1.372c-.308.028-.812.07-1.512.07h-7.674c-.784 0-1.526-.042-1.946-.07zm17.822-6.93a14.387 14.387 0 0 1 -3.794 5.614 5.958 5.958 0 0 1 .63 1.05 14.2 14.2 0 0 0 1.654-1.844v7.85h1.02v-9.35a20.8 20.8 0 0 0 1.526-3zm9.17 4.466v-1.008h-4.046v-3.36h-1.022v3.36h-3.934v1.008h3.388a14.222 14.222 0 0 1 -3.878 5.726 6.04 6.04 0 0 1 .784.8 15.632 15.632 0 0 0 3.64-5.39v7.1h1.022v-7.396a17 17 0 0 0 3.626 5.628 3.729 3.729 0 0 1 .784-.84 14.772 14.772 0 0 1 -3.808-5.628zm10.906-1.19a12.8 12.8 0 0 1 -.714 1.456l.14.042h-3.29l.448-.1a5.44 5.44 0 0 0 -.7-1.4zm4.018 6.09v-.882h-5.614v-1.036h4.382v-.8h-4.382v-1.02h5.068v-.854h-3.178c.28-.42.588-.966.868-1.5h2.8v-.9h-2.17a19.575 19.575 0 0 0 1.232-2.016l-1.064-.28a15.883 15.883 0 0 1 -1.064 2.128l.518.168h-1.694v-2.478h-.98v2.484h-1.666v-2.478h-.966v2.478h-1.722l.714-.266a9.65 9.65 0 0 0 -1.186-2.058l-.882.294a10.913 10.913 0 0 1 1.106 2.03h-2.226v.9h3.416l-.49.1a5.878 5.878 0 0 1 .686 1.4h-3.052v.854h4.914v1.016h-4.214v.8h4.214v1.036h-5.53v.882h4.578a13.493 13.493 0 0 1 -4.942 2.212 4.458 4.458 0 0 1 .672.882 14.069 14.069 0 0 0 5.222-2.758v2.98h1.022v-3.052a13.217 13.217 0 0 0 5.264 2.87 3.743 3.743 0 0 1 .7-.924 12.809 12.809 0 0 1 -5-2.212z" transform="translate(259 213.5)"/><path d="m3.584-1.47c0-.644.728-1.162 2.058-1.162a6.209 6.209 0 0 1 1.358.14c0 .364.014.7.014.938 0 .966-.686 1.218-1.484 1.218-1.386 0-1.946-.49-1.946-1.134zm4.438-9.646h-1.19a7.683 7.683 0 0 1 .056.84v.994h-.644a25.437 25.437 0 0 1 -3.584-.308l.014 1.036c.882.1 2.6.238 3.584.238h.616v1.96h-.756a25.9 25.9 0 0 1 -3.528-.266l.01 1.05c1.008.112 2.548.2 3.5.2h.8c.014.6.042 1.274.056 1.9a8.018 8.018 0 0 0 -1.176-.084c-2.016 0-3.234.868-3.234 2.142.002 1.344 1.094 2.058 3.11 2.058 1.82 0 2.464-.994 2.464-1.96 0-.224-.014-.518-.028-.868a10.322 10.322 0 0 1 3.388 2.114l.644-.994a11.141 11.141 0 0 0 -4.088-2.184c-.028-.672-.07-1.428-.1-2.156 1.33-.042 2.562-.154 3.878-.322l.014-1.05a34.837 34.837 0 0 1 -3.904.376v-1.96c1.344-.07 2.674-.2 3.78-.322l.014-1.018a34.81 34.81 0 0 1 -3.794.378c0-.364.014-.672.014-.854a7.008 7.008 0 0 1 .084-.94zm8.2 1.9.126 1.218c1.512-.322 5.082-.658 6.58-.826a5.687 5.687 0 0 0 -2.618 4.732c0 3.122 2.954 4.508 5.544 4.606l.406-1.162c-2.282-.084-4.83-.952-4.83-3.682a4.927 4.927 0 0 1 3.21-4.434 11.726 11.726 0 0 1 2.744-.224v-1.12c-.938.042-2.254.126-3.78.252-2.576.21-5.222.476-6.132.574-.266.028-.714.056-1.246.07zm9.142 1.946-.714.308a13 13 0 0 1 1.15 1.978l.714-.336a16.617 16.617 0 0 0 -1.146-1.946zm1.526-.588-.686.322a12.976 12.976 0 0 1 1.176 1.96l.728-.35a18.49 18.49 0 0 0 -1.214-1.928zm-22.214 19.764a17.084 17.084 0 0 0 2.52-.742l-.77-.8a27.324 27.324 0 0 1 -5.782 1.36 2.979 2.979 0 0 1 .322.826c.868-.126 1.792-.266 2.7-.434v2.366h-2.924v.952h2.716a14.557 14.557 0 0 1 -3.024 4.732 6.751 6.751 0 0 1 .574.966 15.019 15.019 0 0 0 2.66-4.132v6.034h1.008v-5.514c.714.658 1.61 1.554 2.03 2.016l.6-.854c-.406-.364-2-1.736-2.632-2.226v-1.022h2.676v-.952h-2.674zm4.62.042h-1.008v7.658h1.012zm2.404-1.386v11.13c0 .266-.112.35-.364.35s-1.148.014-2.128-.014a4.139 4.139 0 0 1 .378 1.05 9.513 9.513 0 0 0 2.52-.182c.434-.182.63-.5.63-1.218v-11.116zm11 7.252v-2.324h3.766v2.324zm-4.438 0c.042-.518.056-1.036.056-1.5v-.824h3.346v2.324zm3.4-5.544v2.24h-3.336v-2.24zm4.8 2.24h-3.754v-2.24h3.766zm1.038-3.234h-10.2v5.04c0 1.946-.14 4.41-1.68 6.146a3.4 3.4 0 0 1 .8.686 8.038 8.038 0 0 0 1.75-4.34h3.5v4.13h1.036v-4.13h3.766v2.842c0 .266-.1.35-.378.364-.252 0-1.2.014-2.184-.028a4.115 4.115 0 0 1 .35 1.008 9.135 9.135 0 0 0 2.6-.168c.448-.182.63-.49.63-1.162zm3.85 1.512.126 1.218c1.512-.322 5.082-.658 6.58-.826a5.687 5.687 0 0 0 -2.618 4.732c0 3.122 2.954 4.508 5.544 4.606l.406-1.162c-2.282-.084-4.83-.952-4.83-3.682a4.927 4.927 0 0 1 3.206-4.438 11.726 11.726 0 0 1 2.744-.224v-1.12c-.938.042-2.254.126-3.78.252-2.576.21-5.222.476-6.132.574-.27.028-.718.056-1.25.07zm9.142 1.946-.714.308a13 13 0 0 1 1.148 1.974l.714-.336a16.617 16.617 0 0 0 -1.152-1.946zm1.526-.588-.686.322a12.976 12.976 0 0 1 1.176 1.96l.728-.35a18.49 18.49 0 0 0 -1.222-1.932zm10.374-1.918a3.269 3.269 0 0 0 .1.35 28.05 28.05 0 0 1 -4.62-.168l.07 1.022a33.547 33.547 0 0 0 4.816.1q.168.5.378 1.092c.084.238.182.476.28.728a31.383 31.383 0 0 1 -5.81-.07l.056 1.05a40.736 40.736 0 0 0 6.16-.028 14.81 14.81 0 0 0 1.092 2.016c-.448-.056-1.358-.154-2.1-.238l-.1.854a25.94 25.94 0 0 1 3.066.448l.574-.854a4.205 4.205 0 0 1 -.518-.6 13.907 13.907 0 0 1 -.98-1.736 21.83 21.83 0 0 0 2.534-.5l-.168-1.05a15.468 15.468 0 0 1 -2.8.6c-.112-.28-.224-.574-.322-.84-.1-.294-.21-.616-.308-.966a20.385 20.385 0 0 0 2.758-.56l-.154-1.008a15.579 15.579 0 0 1 -2.87.63 10.648 10.648 0 0 1 -.336-1.666l-1.19.148c.136.392.276.826.388 1.246zm-2.762 6.062-1.092-.224a4.066 4.066 0 0 0 -.546 2c.014 1.792 1.554 2.6 4.3 2.6a21.292 21.292 0 0 0 3.276-.238l.042-1.12a15.853 15.853 0 0 1 -3.332.294c-2.2 0-3.234-.574-3.234-1.736a2.713 2.713 0 0 1 .586-1.576zm15.694 2.24a1.023 1.023 0 0 1 1.12-.9 1.909 1.909 0 0 1 1.876 1.9 7.188 7.188 0 0 1 -1.134.084c-1.092.008-1.862-.414-1.862-1.084zm-1.792-8.848.042 1.162c.294-.042.616-.07.924-.084.742-.042 3.542-.168 4.284-.2-.714.63-2.464 2.1-3.248 2.744-.812.686-2.6 2.184-3.766 3.136l.8.826c1.778-1.806 3.024-2.8 5.362-2.8 1.82 0 3.136 1.036 3.136 2.408a2.459 2.459 0 0 1 -1.75 2.394 2.71 2.71 0 0 0 -2.856-2.478 1.966 1.966 0 0 0 -2.156 1.82c0 1.162 1.162 1.988 3.066 1.988 2.968 0 4.816-1.456 4.816-3.71 0-1.89-1.666-3.29-3.99-3.29a5.924 5.924 0 0 0 -1.946.294c1.092-.91 3-2.534 3.7-3.066.252-.21.532-.392.784-.574l-.644-.812a3.3 3.3 0 0 1 -.756.112c-.742.07-4.074.182-4.8.182a8.347 8.347 0 0 1 -1.002-.052z" transform="translate(320 327.5)"/><path d="m11.585-19.32a38.861 38.861 0 0 1 -2.415 10.605c-1.12-.805-2.31-1.54-3.43-2.24.63-2.59 1.33-5.46 1.96-8.365zm1.365-3.08-.6.07h-4.02c.49-2.31.98-4.585 1.365-6.685l-3.115-.35c-.35 2.17-.8 4.585-1.3 7.035h-3.67v3.01h3.045c-.91 4.235-1.855 8.33-2.7 11.27l2.665 1.435.35-1.33c.98.63 1.925 1.33 2.87 2.03a15.031 15.031 0 0 1 -6.02 6.16 11.116 11.116 0 0 1 1.995 2.59 18.207 18.207 0 0 0 6.51-6.72 25.24 25.24 0 0 1 3.36 3.395l1.96-2.59a25.022 25.022 0 0 0 -3.885-3.675c1.68-3.955 2.695-8.96 3.115-15.295zm20.685 10.57v-3.08h-8.05v-9.905a48.208 48.208 0 0 0 6.93-2.065l-2.625-2.42c-3.5 1.54-9.73 2.835-15.225 3.57a11.046 11.046 0 0 1 .945 2.59c2.17-.245 4.48-.595 6.72-1.015v9.24h-7.77v3.08h7.77v10.715h-7.315v3.08h18.025v-3.08h-7.455v-10.71zm13.895-7.525a45.694 45.694 0 0 1 -1.785 10.36c-.91-.805-1.855-1.575-2.8-2.275.525-2.52 1.085-5.32 1.575-8.085zm3.5 15.995a24.527 24.527 0 0 0 -2.835-3.36 55.33 55.33 0 0 0 2.45-15.435l-1.855-.245-.56.07h-3.185c.42-2.345.805-4.655 1.12-6.755l-2.975-.28c-.28 2.135-.63 4.585-1.05 7.035h-2.87v2.975h2.38c-.735 4.13-1.5 8.19-2.2 11.06l2.52 1.61.315-1.4q1.155 1 2.31 2.1a13.8 13.8 0 0 1 -5.255 6.23 12.325 12.325 0 0 1 1.925 2.52 16.729 16.729 0 0 0 5.6-6.405 21.79 21.79 0 0 1 2.205 2.835zm18.13-8.05a34.045 34.045 0 0 1 -3.15 3.36 34.082 34.082 0 0 1 -1.085-4.515h6.125v-2.835h-15.54v-9.38h15.12v-2.9h-18.13v11.27c0 5.25-.245 12.39-3.255 17.4a14.643 14.643 0 0 1 2.52 1.75c2.555-4.2 3.43-10.185 3.675-15.295h1.925v11.255c-1.015.175-1.96.35-2.8.455l.835 3.045c2.84-.59 6.41-1.395 9.84-2.13l-.21-2.73-4.76.875v-10.78h2.065c1.05 6.895 3.115 12.495 7.42 15.33a10.351 10.351 0 0 1 2.065-2.555 12.437 12.437 0 0 1 -4.935-5.985c1.365-1.05 2.94-2.415 4.375-3.745zm.35-7.385v-2.8h-12.5v2.8zm21.77-8.645-4.1-.42a39.12 39.12 0 0 1 -.805 7.525c-2 .175-3.885.315-5 .35-1.19.035-2.205.07-3.4 0l.35 3.78c.98-.175 2.59-.385 3.465-.49.805-.1 2.24-.28 3.85-.455-1.26 4.76-3.78 12.32-7.28 17.045l3.61 1.435c3.465-5.6 5.95-13.685 7.245-18.83 1.33-.14 2.485-.21 3.22-.21 2.205 0 3.57.525 3.57 3.535 0 3.64-.525 8.085-1.575 10.255a2.742 2.742 0 0 1 -2.87 1.68 18.227 18.227 0 0 1 -4.27-.7l.56 3.64a19.681 19.681 0 0 0 4.165.49c2.45 0 4.27-.63 5.39-3.045 1.47-2.94 2-8.575 2-12.705 0-4.9-2.555-6.265-5.95-6.265-.805 0-2.065.07-3.5.21.315-1.645.63-3.325.84-4.41.135-.775.305-1.675.485-2.415zm12.075 3.535-3.255 1.4c2.45 2.975 5.075 9.24 6.055 12.95l3.465-1.61c-1.12-3.29-4.095-9.835-6.265-12.74zm21.735-3.85-.875 3.325c2.695.7 10.395 2.31 13.825 2.765l.8-3.4a102.572 102.572 0 0 1 -13.75-2.69zm-.315 6.65-3.71-.49a131.27 131.27 0 0 1 -1.785 14.385l3.22.77a7.122 7.122 0 0 1 1.19-1.86 13.137 13.137 0 0 1 10.325-4.445c3.36 0 5.775 1.855 5.775 4.445 0 4.62-5.46 7.525-16.275 6.16l1.05 3.605c13.685 1.155 19.005-3.395 19.005-9.7 0-4.165-3.57-7.63-9.275-7.63a16.849 16.849 0 0 0 -10.92 3.885c.315-2.12.91-6.92 1.4-9.12zm-102.795 66.555h8.015v-2.52h-8.015v-3.22h8.96v-2.59h-8.96v-2.87h-3.18v2.87h-4.55c.35-.735.665-1.505.945-2.275l-2.9-.665a17.184 17.184 0 0 1 -4.455 7.035 18.88 18.88 0 0 1 2.59 1.575 18.759 18.759 0 0 0 2.38-3.08h5.99v3.22h-7.63v2.52h7.63v3.85h-10.5v2.765h24.64v-2.765h-10.96zm.98-19.145a39.912 39.912 0 0 1 -1.61 4.095l.875.28h-9.415l1.26-.35a14.851 14.851 0 0 0 -1.61-4.025zm1.4 4.375c.735-1.19 1.61-2.765 2.485-4.27l-.455-.1h4.97v-2.84h-12.18v-2.87h-3.255v2.87h-12.04v2.835h6.65l-1.26.315a18.987 18.987 0 0 1 1.575 4.06h-6.545v5.53c0 4.13-.315 10.115-3.115 14.42a15.261 15.261 0 0 1 2.485 2.065c3.15-4.69 3.745-11.795 3.745-16.485v-2.695h25.69v-2.835zm23.415-9.835a36.442 36.442 0 0 1 -9.2 13.685 21.77 21.77 0 0 1 1.925 3.36 32.777 32.777 0 0 0 3.57-3.955v18.725h3.22v-23.38a52.423 52.423 0 0 0 3.71-7.42zm23.24 11.62v-3.185h-9.625v-8.12h-3.22v8.12h-9.345v3.185h7.875c-2.135 5.39-5.6 10.745-9.31 13.615a15.366 15.366 0 0 1 2.415 2.59 38.019 38.019 0 0 0 8.365-12.11v16.205h3.22v-17.08c2.17 5.075 5.04 9.835 8.155 12.775a12.476 12.476 0 0 1 2.45-2.625c-3.465-2.87-6.825-8.12-8.925-13.37z" fill="#1778b1" transform="translate(230 296.5)"/><path d="m206 217.515h5.753v2.685h-5.753z" fill="#1778b1"/><path d="m242.964 217.515h5.752v2.685h-5.752z" fill="#1778b1"/><path d="m26.248 338.462 1.343 2.327 4.982-2.877-1.343-2.326z" fill="#1778b1" transform="translate(181.942 -110.088)"/><path d="m416.271 116.383-1.343-2.326-4.982 2.877 1.343 2.326z" fill="#1778b1" transform="translate(-169.745 92.959)"/><path d="m114.065 414.929 2.326 1.343 2.877-4.982-2.326-1.343z" fill="#1778b1" transform="translate(101.451 -178.245)"/><path d="m340.8 27.591-2.327-1.343-2.873 4.982 2.326 1.343z" fill="#1778b1" transform="translate(-101.597 173.442)"/><path d="m226.016 234.464h2.685v5.752h-2.685z" fill="#1778b1"/><path d="m226.016 197.5h2.685v5.752h-2.685z" fill="#1778b1"/><path d="m335.6 411.29 2.875 4.982 2.327-1.343-2.877-4.982z" fill="#1778b1" transform="translate(-101.597 -178.245)"/><path d="m119.267 31.23-2.877-4.982-2.326 1.343 2.877 4.982z" fill="#1778b1" transform="translate(101.451 173.442)"/><path d="m409.947 337.912 4.982 2.877 1.343-2.327-4.982-2.876z" fill="#1778b1" transform="translate(-169.745 -110.088)"/><path d="m32.572 116.934-4.982-2.877-1.343 2.326 4.982 2.877z" fill="#1778b1" transform="translate(181.942 92.959)"/><path d="m112.956 99.926a13.021 13.021 0 1 0 13.021 13.021 13.021 13.021 0 0 0 -13.021-13.021z" fill="#1778b1" transform="translate(114.403 105.911)"/><path d="m12.11-9.59a2.848 2.848 0 0 1 -.9.112h-8.34a10.758 10.758 0 0 1 -1.428-.112v1.26c.28-.028.882-.084 1.428-.084h8.23a17.17 17.17 0 0 1 -4.366 4.858c-.952-.854-2.1-1.778-2.618-2.156l-.91.728a33.035 33.035 0 0 1 3.206 2.758 33.584 33.584 0 0 1 2.52 2.856l1.022-.812c-.56-.686-1.554-1.736-2.394-2.576a21.915 21.915 0 0 0 5.1-5.684 3.965 3.965 0 0 1 .35-.434zm14.308.056a2.468 2.468 0 0 1 -.924.14h-3.822c.112-.182.21-.35.294-.518.14-.266.392-.742.616-1.106l-1.26-.406a6.015 6.015 0 0 1 -.448 1.12 12.487 12.487 0 0 1 -4.494 4.858l.938.728a15.19 15.19 0 0 0 3.71-3.682h4.76a11.706 11.706 0 0 1 -1.806 3.738c-1.092-.658-2.268-1.33-3.08-1.75l-.714.826c.784.434 1.96 1.134 3.066 1.848a12.269 12.269 0 0 1 -5.53 3.486l1.008.868a13.265 13.265 0 0 0 5.488-3.724c.532.364.994.7 1.33.966l.77-1.008c-.35-.252-.826-.574-1.358-.91a14.243 14.243 0 0 0 2.044-4.158 6.133 6.133 0 0 1 .322-.756zm5.11 8.694c.472-.028.966-.07 1.472-.07h8.386c.378 0 .854.028 1.274.07v-1.344a9.584 9.584 0 0 1 -1.274.07h-8.386c-.5 0-.994-.028-1.47-.07zm1.2-7.014q.651-.042 1.386-.042h5.996c.462 0 .994.014 1.386.042v-1.26a13.45 13.45 0 0 1 -1.386.07h-6.01c-.448 0-.924-.028-1.372-.07zm22.572-1.386c.406 0 .9.014 1.3.042v-1.162a10.329 10.329 0 0 1 -1.3.084h-5.67a11.645 11.645 0 0 1 -1.26-.084v1.16c.35-.028.812-.042 1.274-.042zm-7.378 2.464a10.987 10.987 0 0 1 -1.218-.07v1.162c.378-.028.784-.028 1.218-.028h4.186a6.778 6.778 0 0 1 -.808 3.472 5.8 5.8 0 0 1 -2.65 2.14l1.036.756a6.712 6.712 0 0 0 2.758-2.546 8.474 8.474 0 0 0 .826-3.822h3.808c.336 0 .784.014 1.092.028v-1.162a7.505 7.505 0 0 1 -1.092.07zm21.812-1.666a14.43 14.43 0 0 1 -3.612 2.884 18.494 18.494 0 0 1 -4.858 1.918l.6 1.022a24.387 24.387 0 0 0 4.4-1.792v4.284c0 .42-.028.994-.056 1.2h1.288a7.015 7.015 0 0 1 -.07-1.2v-4.956a17.191 17.191 0 0 0 3.174-2.534zm6.454 3.752c.434-.042 1.176-.07 1.946-.07h7.686c.63 0 1.218.056 1.5.07v-1.372c-.308.028-.812.07-1.512.07h-7.674c-.784 0-1.526-.042-1.946-.07zm-62.93 21.59h-7.084v.966h7.084zm-1.6 5.866h-3.958v-2.45h3.962zm1.012-3.376h-5.936v4.31h5.936zm-1.57 8.162c.35-.77.784-2.072 1.134-3.136l-1.034-.238a19.693 19.693 0 0 1 -.98 3.15zm-2.3-.322a13.89 13.89 0 0 0 -.77-2.968l-.882.224a15.515 15.515 0 0 1 .714 2.982zm-2.5-.882c-.336-.406-1.708-1.96-2.268-2.548q.084-.483.126-.966h2.042v-.966h-1.986v-2.814h1.82v-.954h-3.346c.14-.5.266-1.036.364-1.568l-.994-.182a10.739 10.739 0 0 1 -1.558 4.384 6.8 6.8 0 0 1 .9.5 10.956 10.956 0 0 0 1.008-2.184h.812v2.814h-2.562v.966h2.506a7.687 7.687 0 0 1 -2.59 5.45 2.885 2.885 0 0 1 .7.728 7.816 7.816 0 0 0 2.534-4.158 26.637 26.637 0 0 1 1.82 2.35zm-.742 1.442v.98h7.826v-.98zm13.664-9.646v3.108h-2.03v-3.108zm-2.03 7.256v-3.238h2.03v3.238zm3.01-8.19h-3.962v10.258h.952v-1.134h3.008zm1.148 7.84a10.8 10.8 0 0 1 1.778 2.464l.882-.56a9.9 9.9 0 0 0 -1.82-2.38zm7.224-3.472v-.928h-3.612v-1.778h3.01v-.924h-3.01v-1.666h-1.022v1.666h-2.912v.924h2.912v1.778h-3.514v.924h5.362v1.582h-5.288v.924h5.292v3.738c0 .21-.07.266-.308.28s-.994.014-1.862-.014a3.179 3.179 0 0 1 .336.966 8.01 8.01 0 0 0 2.268-.168c.42-.154.574-.462.574-1.05v-3.752h1.62v-.924h-1.62v-1.582zm7.026-3.878v1.162h-3.022v-1.162zm-3.022 3.16v-1.232h3.022v1.232zm4.018.8v-4.776h-5.054v12.194h1.036v-7.42zm2.254 1.848v1.3h-3.29v-1.3zm-3.29 3.442v-1.358h3.29v1.358zm4.256.826v-5.068h-5.194v5.768h.938v-.7zm-.98-6.9v-1.248h3.136v1.246zm3.136-3.176v1.162h-3.136v-1.162zm1.05-.812h-5.18v4.788h4.13v6.006c0 .252-.084.336-.322.336s-1.106.028-1.96-.014a3.834 3.834 0 0 1 .364 1.064 7.969 7.969 0 0 0 2.352-.182c.462-.182.616-.532.616-1.19zm4.606 2.492h.952v-1.08h1.876v1.078h.952v-1.078h1.652v-.812h-1.652v-1.188h-.952v1.19h-1.876v-1.19h-.952v1.19h-1.582v.81h1.582zm-.168 2.52v-1.46h1.582v1.46zm4.172 0h-1.638v-1.46h1.638zm6.93-2.338h-2.982c.014-1.008.028-2.058.028-3.15h-.966c0 1.092 0 2.156-.028 3.15h-1.624v.966h1.6c-.1 2.9-.476 5.292-1.764 6.958l-.014-.49c-.938.112-1.9.224-2.814.322v-1.166h2.674v-.77h-2.678v-1.064h2.8v-.8h-2.8v-.868h2.6v-2.98h-6.044v2.982h2.492v.868h-2.758v.8h2.758v1.064h-2.548v.77h2.548v1.274c-1.162.126-2.226.238-3.066.308l.14.91c1.666-.2 4.046-.476 6.356-.756a4.53 4.53 0 0 1 -.532.5 3.4 3.4 0 0 1 .756.728c2.142-1.848 2.688-4.858 2.842-8.6h2.03c-.112 5.082-.266 6.9-.6 7.308a.453.453 0 0 1 -.462.224 13.741 13.741 0 0 1 -1.484-.07 2.488 2.488 0 0 1 .294.966 10.34 10.34 0 0 0 1.624 0 1.113 1.113 0 0 0 .91-.5c.434-.574.56-2.52.714-8.386zm12.95-.924a5.256 5.256 0 0 1 -1.358 1.806 6.212 6.212 0 0 1 -1.582-1.806zm-5.6 6.076a12.122 12.122 0 0 0 .826-2.184 3.915 3.915 0 0 1 .378.546 10.942 10.942 0 0 0 3.052-1.428 10.049 10.049 0 0 0 3.178 1.484 4.616 4.616 0 0 1 .658-.9 9.285 9.285 0 0 1 -3.038-1.218 6.5 6.5 0 0 0 1.68-2.38h1.078v-.882h-4.648a11.112 11.112 0 0 0 .644-1.2l-.994-.266a8.6 8.6 0 0 1 -2.66 3.416 6.606 6.606 0 0 1 .854.6 11.169 11.169 0 0 0 1.008-.994 7.983 7.983 0 0 0 1.442 1.708 9.276 9.276 0 0 1 -2.506 1.078c.07-.252.14-.5.21-.742l-.63-.224-.154.056h-1.036l.532-.6a8.042 8.042 0 0 0 -1.176-.84 10.481 10.481 0 0 0 2.282-2.38l-.672-.42-.182.042h-4.7v.91h3.962a9.848 9.848 0 0 1 -1.47 1.386c-.448-.238-.924-.462-1.358-.644l-.644.672a14.288 14.288 0 0 1 3.108 1.876h-3.756v.91h2.114a10.549 10.549 0 0 1 -2.254 3.752 5.507 5.507 0 0 1 .546.966 11.212 11.212 0 0 0 2.044-3.444v4.49c0 .154-.056.2-.224.21s-.728 0-1.33-.014a3.823 3.823 0 0 1 .322.952 5.494 5.494 0 0 0 1.75-.154c.35-.182.462-.462.462-.994v-5.768h1.344a14.592 14.592 0 0 1 -.756 2.254zm4.228-.616c.084-.448.154-.91.2-1.386h-1.05c-.042.476-.1.938-.182 1.386h-2.408v.868h2.18a4.8 4.8 0 0 1 -3.248 3.3 3.382 3.382 0 0 1 .616.8 5.68 5.68 0 0 0 3.71-4.1h2.352c-.21 1.918-.42 2.7-.686 2.968a.592.592 0 0 1 -.476.14c-.224 0-.784-.014-1.386-.07a2.722 2.722 0 0 1 .28.966 14.8 14.8 0 0 0 1.554.014 1.263 1.263 0 0 0 .868-.364c.406-.406.672-1.47.924-4.074.014-.168.028-.448.028-.448z" transform="translate(58 213.5)"/><path d="m4.676-10.094a17.084 17.084 0 0 0 2.52-.742l-.77-.8a27.324 27.324 0 0 1 -5.782 1.36 2.979 2.979 0 0 1 .322.826c.868-.126 1.792-.266 2.7-.434v2.366h-2.924v.952h2.716a14.557 14.557 0 0 1 -3.024 4.732 6.752 6.752 0 0 1 .574.966 15.019 15.019 0 0 0 2.66-4.132v6.036h1.008v-5.516c.714.658 1.61 1.554 2.03 2.016l.6-.854c-.406-.364-2-1.736-2.632-2.226v-1.022h2.676v-.952h-2.674zm4.62.042h-1.008v7.658h1.012zm2.404-1.386v11.13c0 .266-.112.35-.364.35s-1.144.014-2.124-.014a4.139 4.139 0 0 1 .378 1.05 9.513 9.513 0 0 0 2.52-.178c.434-.182.63-.5.63-1.218v-11.12zm11 7.252v-2.324h3.766v2.324zm-4.438 0c.042-.518.056-1.036.056-1.5v-.824h3.346v2.324zm3.4-5.544v2.24h-3.336v-2.24zm4.8 2.24h-3.754v-2.24h3.766zm1.038-3.234h-10.2v5.04c0 1.946-.14 4.41-1.68 6.146a3.4 3.4 0 0 1 .8.686 8.038 8.038 0 0 0 1.75-4.34h3.5v4.13h1.036v-4.13h3.766v2.842c0 .266-.1.35-.378.364-.252 0-1.2.014-2.184-.028a4.115 4.115 0 0 1 .35 1.008 9.135 9.135 0 0 0 2.6-.168c.448-.182.63-.49.63-1.162zm12.988 3.458-.714.308a13 13 0 0 1 1.148 1.974l.714-.336a16.617 16.617 0 0 0 -1.148-1.946zm1.526-.588-.7.322a12.469 12.469 0 0 1 1.186 1.946l.728-.336a21.147 21.147 0 0 0 -1.214-1.932zm-10.614-1.358.126 1.232c1.5-.308 5.278-.672 6.5-.812a5.6 5.6 0 0 0 -2.576 4.676c0 3.094 2.926 4.466 5.488 4.578l.406-1.176c-2.254-.084-4.774-.938-4.774-3.64a4.848 4.848 0 0 1 3.164-4.382 11.488 11.488 0 0 1 2.716-.224v-1.12c-.924.042-2.226.112-3.738.238-2.548.224-5.166.476-6.076.56-.268.028-.702.056-1.236.07zm16.912 5.46a6.26 6.26 0 0 0 -.322 1.736c0 1.736 1.456 2.59 3.934 2.59a21.474 21.474 0 0 0 3.348-.266l.028-1.134a16.651 16.651 0 0 1 -3.416.326c-1.974 0-2.814-.676-2.814-1.74a4.742 4.742 0 0 1 .322-1.414zm8.834-3.794a14.458 14.458 0 0 1 -2.562.686c-.238-.518-.434-.952-.546-1.246l-.252-.574a19.15 19.15 0 0 0 2.576-.588l-.2-.994a15.605 15.605 0 0 1 -2.752.662 14.241 14.241 0 0 1 -.518-1.54l-1.26.266a9.993 9.993 0 0 1 .518.98c.056.126.112.266.182.42a25.21 25.21 0 0 1 -4.532-.116l.07 1.022a28.429 28.429 0 0 0 4.872.028c.1.224.2.476.308.714l.49 1.134a27.677 27.677 0 0 1 -5.824.028l.042 1.022a33.329 33.329 0 0 0 6.2-.126c.322.728.644 1.456.91 2-.434-.042-1.092-.112-1.764-.2l-.1.854c.882.112 2 .266 2.7.392l.546-.686c-.392-.728-.84-1.666-1.246-2.548a18.467 18.467 0 0 0 2.352-.588zm10.32 7.084c-1.036 0-1.834-.392-1.834-1.078 0-.476.476-.854 1.106-.854a1.851 1.851 0 0 1 1.834 1.848 6.829 6.829 0 0 1 -1.106.084zm2.856-10.066a4.964 4.964 0 0 1 -.756.112c-.728.07-4.018.168-4.732.168a7.872 7.872 0 0 1 -.98-.042l.028 1.162a6.675 6.675 0 0 1 .938-.084c.714-.042 3.444-.168 4.172-.2-.686.616-2.408 2.072-3.178 2.716-.812.672-2.59 2.156-3.738 3.108l.812.826c1.764-1.792 3.024-2.758 5.306-2.758 1.75 0 3.122.994 3.122 2.352a2.418 2.418 0 0 1 -1.722 2.356 2.738 2.738 0 0 0 -2.856-2.45 1.97 1.97 0 0 0 -2.138 1.82c0 1.148 1.158 1.988 3.048 1.988 2.926 0 4.788-1.456 4.788-3.7 0-1.876-1.666-3.276-3.976-3.276a5.891 5.891 0 0 0 -1.876.294c1.064-.9 2.926-2.534 3.612-3.052.21-.154.518-.364.77-.532z" transform="translate(41 349.5)"/><path d="m11.585-19.32a38.861 38.861 0 0 1 -2.415 10.605c-1.12-.805-2.31-1.54-3.43-2.24.63-2.59 1.33-5.46 1.96-8.365zm1.365-3.08-.6.07h-4.02c.49-2.31.98-4.585 1.365-6.685l-3.115-.35c-.35 2.17-.8 4.585-1.3 7.035h-3.67v3.01h3.045c-.91 4.235-1.855 8.33-2.7 11.27l2.665 1.435.35-1.33c.98.63 1.925 1.33 2.87 2.03a15.031 15.031 0 0 1 -6.02 6.16 11.116 11.116 0 0 1 1.995 2.59 18.207 18.207 0 0 0 6.51-6.72 25.24 25.24 0 0 1 3.36 3.395l1.96-2.59a25.022 25.022 0 0 0 -3.885-3.675c1.68-3.955 2.695-8.96 3.115-15.295zm20.685 10.57v-3.08h-8.05v-9.905a48.208 48.208 0 0 0 6.93-2.065l-2.625-2.42c-3.5 1.54-9.73 2.835-15.225 3.57a11.046 11.046 0 0 1 .945 2.59c2.17-.245 4.48-.595 6.72-1.015v9.24h-7.77v3.08h7.77v10.715h-7.315v3.08h18.025v-3.08h-7.455v-10.71zm13.895-7.525a45.694 45.694 0 0 1 -1.785 10.36c-.91-.805-1.855-1.575-2.8-2.275.525-2.52 1.085-5.32 1.575-8.085zm3.5 15.995a24.527 24.527 0 0 0 -2.835-3.36 55.33 55.33 0 0 0 2.45-15.435l-1.855-.245-.56.07h-3.185c.42-2.345.805-4.655 1.12-6.755l-2.975-.28c-.28 2.135-.63 4.585-1.05 7.035h-2.87v2.975h2.38c-.735 4.13-1.5 8.19-2.2 11.06l2.52 1.61.315-1.4q1.155 1 2.31 2.1a13.8 13.8 0 0 1 -5.255 6.23 12.325 12.325 0 0 1 1.925 2.52 16.729 16.729 0 0 0 5.6-6.405 21.79 21.79 0 0 1 2.205 2.835zm18.13-8.05a34.045 34.045 0 0 1 -3.15 3.36 34.082 34.082 0 0 1 -1.085-4.515h6.125v-2.835h-15.54v-9.38h15.12v-2.9h-18.13v11.27c0 5.25-.245 12.39-3.255 17.4a14.643 14.643 0 0 1 2.52 1.75c2.555-4.2 3.43-10.185 3.675-15.295h1.925v11.255c-1.015.175-1.96.35-2.8.455l.835 3.045c2.84-.59 6.41-1.395 9.84-2.13l-.21-2.73-4.76.875v-10.78h2.065c1.05 6.895 3.115 12.495 7.42 15.33a10.351 10.351 0 0 1 2.065-2.555 12.437 12.437 0 0 1 -4.935-5.985c1.365-1.05 2.94-2.415 4.375-3.745zm.35-7.385v-2.8h-12.5v2.8zm25.2 7.21v-8.47h9.1v8.47zm-12.46 0v-8.47h9.065v8.47zm12.46-11.655v-6.09h-3.395v6.09h-12.32v16.9h3.255v-2.06h9.065v11.13h3.395v-11.13h9.1v1.89h3.4v-16.73z" fill="#1778b1" transform="translate(22 297.5)"/><g fill="#1778b1" transform="translate(2.5 199.5)"><path d="m86.708 197.6a.624.624 0 0 0 .18.03.592.592 0 0 0 .572-.421.6.6 0 0 0 -.385-.758.611.611 0 0 0 -.758.391.6.6 0 0 0 .391.758z" transform="translate(-79.799 -181.657)"/><path d="m148.01 112.462a.62.62 0 0 0 .361-.12h-.006a.6.6 0 0 0 .132-.837.606.606 0 0 0 -.842-.132.6.6 0 0 0 -.126.842.592.592 0 0 0 .481.247z" transform="translate(-136.325 -102.892)"/><path d="m247.52 79.422h.006a.6.6 0 0 0 -.006-1.2.609.609 0 0 0 -.6.608.6.6 0 0 0 .6.592z" transform="translate(-228.351 -72.337)"/><path d="m347.462 111.257a.6.6 0 0 0 .487-.253.6.6 0 1 0 -.836.138.586.586 0 0 0 .349.115z" transform="translate(-320.78 -101.778)"/><path d="m87.294 301.3a.592.592 0 0 0 -.379.758h-.006a.607.607 0 0 0 .578.415.523.523 0 0 0 .186-.031.6.6 0 0 0 -.379-1.143z" transform="translate(-80.349 -278.613)"/><path d="m148.976 386.018a.606.606 0 0 0 .139.842.626.626 0 0 0 .349.108.611.611 0 0 0 .493-.247.6.6 0 0 0 -.98-.7z" transform="translate(-137.67 -356.759)"/><path d="m410.355 299.859a.6.6 0 0 0 -.758.391.594.594 0 0 0 .391.752.485.485 0 0 0 .186.03.6.6 0 0 0 .18-1.173z" transform="translate(-378.771 -277.284)"/><path d="m409.617 195.709a.723.723 0 0 0 .186-.03.612.612 0 0 0 .385-.764l-.018-.036v-.006a.6.6 0 0 0 -1.143.38.079.079 0 0 1 .012.036c.006 0 .006 0 .006.006a.6.6 0 0 0 .572.414z" transform="translate(-378.243 -179.841)"/><path d="m348.569 385.021a.6.6 0 0 0 -.132.842.61.61 0 0 0 .487.247.583.583 0 0 0 .349-.12.6.6 0 1 0 -.7-.969z" transform="translate(-322.128 -355.961)"/><path d="m249.356 417.742a.6.6 0 0 0 .006 1.2.6.6 0 1 0 -.006-1.2z" transform="translate(-230.055 -386.33)"/><path d="m19.25 0a19.25 19.25 0 1 0 19.25 19.25 19.272 19.272 0 0 0 -19.25-19.25zm0 33.917a14.667 14.667 0 1 1 14.667-14.667 14.683 14.683 0 0 1 -14.667 14.667z"/><path d="m238.153 130.672h-3.145v12h10.427v-3.145h-7.282z" transform="translate(-217.337 -120.846)"/></g><path d="m0 .5h392v354h-392z" fill="none"/></svg>