<svg xmlns="http://www.w3.org/2000/svg" width="249.126" height="214.87" viewBox="0 0 249.126 214.87">
  <g id="グループ_948" data-name="グループ 948" transform="translate(-879.332 -1453.223)">
    <path id="パス_12460" data-name="パス 12460" d="M-42.952-5.026h-5.474V-6.244h5.474Zm-5.474,2.31V-3.934h5.474v1.218Zm8.358-6.062V-10h-6.958c.182-.476.336-.966.49-1.442l-1.33-.308A15.124,15.124,0,0,1-48.454-10H-52.29v1.218h3.3a11.607,11.607,0,0,1-3.682,4.4,7.237,7.237,0,0,1,.854,1.008,11,11,0,0,0,2.1-1.932V1.106h1.288v-2.73h5.474v1.2c0,.21-.07.28-.308.28s-1.078.014-1.9-.028a4.891,4.891,0,0,1,.406,1.26,7.221,7.221,0,0,0,2.436-.21c.5-.2.644-.588.644-1.288V-7.378h-6.594c.252-.448.5-.924.728-1.4Zm3.472,5.04a10.58,10.58,0,0,1-.826,3.276,5.472,5.472,0,0,1,.994.49,12.963,12.963,0,0,0,.938-3.57Zm2.94.2A14.974,14.974,0,0,1-32.83-.98l.994-.336a16.174,16.174,0,0,0-.882-2.534Zm-.336-3.346c.2.35.392.742.574,1.134-.6.042-1.19.07-1.75.084.91-1.176,1.918-2.7,2.7-3.976l-1.078-.49c-.35.714-.826,1.568-1.33,2.394a10.124,10.124,0,0,0-.672-.77c.5-.77,1.092-1.848,1.582-2.786l-1.148-.448A16.144,16.144,0,0,1-36.26-9.212c-.126-.112-.252-.224-.378-.322l-.63.854a13.206,13.206,0,0,1,1.736,1.96c-.266.392-.546.77-.8,1.106l-.98.028.112,1.148c.63-.042,1.344-.084,2.114-.126V1.12h1.162V-4.634l.91-.056a5.468,5.468,0,0,1,.224.756l.952-.42a10.853,10.853,0,0,0-1.274-2.9ZM-26.53-3.4V-.84h-3.6V-3.4Zm-4.8,4.494h1.2V.322h3.6v.714h1.246v-5.6h-6.048Zm.644-8.33v1.19H-26.1v-1.19Zm1.526-4.354a13.583,13.583,0,0,1-3.626,4.354A6.95,6.95,0,0,1-32.032-6.1a15.585,15.585,0,0,0,3.542-4.158,19.113,19.113,0,0,0,3.584,4.074,8.605,8.605,0,0,1,.812-1.2,15.144,15.144,0,0,1-3.822-4.2Zm10.752-.07a14.577,14.577,0,0,1-3.682,5.474,8.708,8.708,0,0,1,.77,1.344,13.111,13.111,0,0,0,1.428-1.582v7.49h1.288V-8.288a20.969,20.969,0,0,0,1.484-2.968Zm9.3,4.648V-8.288h-3.85v-3.248h-1.288v3.248H-17.99v1.274h3.15a13.489,13.489,0,0,1-3.724,5.446A6.147,6.147,0,0,1-17.6-.532a15.208,15.208,0,0,0,3.346-4.844V1.106h1.288V-5.726A15.827,15.827,0,0,0-9.7-.616a4.99,4.99,0,0,1,.98-1.05,14.165,14.165,0,0,1-3.57-5.348ZM6.062-11.158H2.422v1.106H4.928V-7.77H2.422v1.106h3.64ZM-3.6-9.618v2.94H-4.9v-2.94ZM-4.9-2.506V-5.544h1.3v3.038Zm2.366-8.246h-3.4V-.266H-4.9V-1.358h2.366Zm3.346.672v2.366H-.574V-10.08Zm1.05,8.414V-2.758H-.574v-1.5H1.652V-5.334H-.574v-1.3H1.932v-4.522h-3.71V1.064h1.2v-2.73Zm3.024-3.01a8.889,8.889,0,0,1-.868,2.2,9.993,9.993,0,0,1-.8-2.2ZM5.5-5.782l-.224.042H2.058v1.064H3.094l-.826.182A11.911,11.911,0,0,0,3.332-1.512,5.823,5.823,0,0,1,1.022.14a4.011,4.011,0,0,1,.644.966A7.017,7.017,0,0,0,3.962-.5,5.592,5.592,0,0,0,5.7,1.064,4.769,4.769,0,0,1,6.468.1,4.771,4.771,0,0,1,4.69-1.4,10.1,10.1,0,0,0,6.23-5.586ZM15.036-9.7h.574v1.078h4.438A15.559,15.559,0,0,1,18.536-3.85a17.7,17.7,0,0,1-1.512-4.732l-1.26.252a19.719,19.719,0,0,0,1.988,5.754A7.976,7.976,0,0,1,15.036-.14ZM11.382-2.184V-4.032h2.394V-2.52ZM13.776-9.7v1.624H11.382V-9.7ZM11.382-6.916h2.394v1.708H11.382ZM20.636-9.94l-.224.042H15.974v-1.008H9.114v1.2h1.022v7.686c-.49.056-.924.126-1.316.168l.238,1.3c1.3-.21,3.024-.49,4.718-.77V1.078h1.26V-.07A5.031,5.031,0,0,1,15.848.938a9.589,9.589,0,0,0,2.674-2.324A8.8,8.8,0,0,0,21.154.966,4.956,4.956,0,0,1,22.05-.1a7.709,7.709,0,0,1-2.716-2.45,17.5,17.5,0,0,0,2.142-7.168Zm14.308.5H30.772v-.938h4.172Zm0,1.834H30.772V-8.54h4.172Zm1.316-3.724H29.512v4.69H36.26ZM27.23-11.7a10.292,10.292,0,0,1-2.912,2.786A7.261,7.261,0,0,1,24.99-7.84a14.065,14.065,0,0,0,3.5-3.374Zm.308,3.038a12.858,12.858,0,0,1-3.416,3.682,9.607,9.607,0,0,1,.658,1.316,14.427,14.427,0,0,0,1.47-1.358V1.092h1.26v-7.56A15.814,15.814,0,0,0,28.686-8.2ZM29.47-1.918A12.361,12.361,0,0,1,31.136.056l.98-.7a12.25,12.25,0,0,0-1.722-1.89Zm7.616-1.82h-2V-4.76H36.82V-5.838H28.728V-4.76h5.054v1.022h-5.39v1.12h5.39V-.28c0,.168-.056.21-.266.224s-.868.014-1.568-.014a5.376,5.376,0,0,1,.42,1.176A6.015,6.015,0,0,0,34.5.9c.462-.182.588-.5.588-1.148V-2.618h2Zm6.244.028c1.344-.1,3.066-.224,4.8-.364a6.028,6.028,0,0,1,.364.756l.994-.49a7.02,7.02,0,0,0-.8-1.386,16.171,16.171,0,0,1,2.8,1.834l.966-.812a19.453,19.453,0,0,0-3.08-1.848l-.8.644c-.238-.336-.5-.658-.742-.952l-.938.406c.224.28.462.6.672.924L45.6-4.9c.952-.91,1.96-2.016,2.786-2.982l-1.036-.476a21.04,21.04,0,0,1-1.372,1.736c-.266-.21-.588-.448-.91-.672.42-.49.924-1.106,1.358-1.68l-.294-.112h5.894v-1.19H46.83v-1.47H45.486v1.47H40.432v1.19h4.7C44.9-8.68,44.59-8.2,44.3-7.8c-.14-.084-.252-.154-.378-.224l-.63.728a19.536,19.536,0,0,1,1.974,1.47c-.336.35-.672.686-.98.98L43.4-4.8l.238-.112-.238-.98c-1.288.532-2.618,1.064-3.5,1.358l.63,1.064c.77-.35,1.708-.784,2.618-1.218ZM40.362-7.924A13.492,13.492,0,0,1,42.5-6.37l.91-.784a11.527,11.527,0,0,0-2.2-1.47ZM49.714-6.51a16.414,16.414,0,0,0,2.24-1.708l-1.162-.574a13.914,13.914,0,0,1-2.03,1.764ZM46.83-3.766H45.486v1.008H40v1.2h5.488V1.12H46.83V-1.554h5.6v-1.2h-5.6Z" transform="translate(932 1476.646)"/>
    <path id="パス_12461" data-name="パス 12461" d="M-33.068-9.31l-1.078-.7a3.567,3.567,0,0,1-.9.1h-6.79a12.556,12.556,0,0,1-1.512-.112v1.568c.35-.028.91-.056,1.512-.056h6.874a9.667,9.667,0,0,1-1.75,4.3A9.235,9.235,0,0,1-42.182-.882l1.2,1.316A10.789,10.789,0,0,0-35.406-3.36,13.879,13.879,0,0,0-33.32-8.5,4.254,4.254,0,0,1-33.068-9.31ZM-26.95-.49l1.036.882a2.9,2.9,0,0,1,.7-.294,16.8,16.8,0,0,0,8.162-5.026l-.8-1.232a15.546,15.546,0,0,1-7.448,4.7V-9.114a9.143,9.143,0,0,1,.112-1.4h-1.736A8.285,8.285,0,0,1-26.8-9.1v7.826A1.545,1.545,0,0,1-26.95-.49ZM-7.588-8.176-8.9-7.742a25.6,25.6,0,0,1,1.12,3.08l1.316-.476C-6.65-5.754-7.336-7.588-7.588-8.176Zm5.11.9-1.54-.49A9.717,9.717,0,0,1-5.88-2.982,9.54,9.54,0,0,1-10.472-.028l1.162,1.19A10.849,10.849,0,0,0-4.7-2.226a11.223,11.223,0,0,0,1.96-4.228C-2.688-6.678-2.6-6.93-2.478-7.28Zm-8.372-.168-1.316.476A28.593,28.593,0,0,1-10.892-3.78l1.33-.49C-9.828-5.04-10.528-6.8-10.85-7.448Zm19.5-3.444-1.624-.532a6.207,6.207,0,0,1-.518,1.26,11.881,11.881,0,0,1-4.4,4.634l1.232.924A14.62,14.62,0,0,0,6.9-8.036H11.27a10.513,10.513,0,0,1-2.128,4.13,11.217,11.217,0,0,1-5.614,3.5L4.83.756a12.616,12.616,0,0,0,5.6-3.878,13.856,13.856,0,0,0,2.464-4.76,4.791,4.791,0,0,1,.392-.854l-1.148-.7a3.288,3.288,0,0,1-1.05.14H7.728c.07-.112.14-.238.2-.35C8.078-9.926,8.372-10.472,8.652-10.892ZM27.3-9.422l-.91-.672a4.247,4.247,0,0,1-1.218.14H19.978a14.979,14.979,0,0,1-1.526-.1V-8.47c.224-.014.98-.084,1.526-.084h5.138a11.518,11.518,0,0,1-2.226,3.7,15.731,15.731,0,0,1-5.754,4.1L18.27.434A18.378,18.378,0,0,0,23.66-3.6,31.419,31.419,0,0,1,27.37.49L28.6-.6a37.212,37.212,0,0,0-4-4.1,19.162,19.162,0,0,0,2.3-3.99A4.832,4.832,0,0,1,27.3-9.422ZM38.29-6.944A1.625,1.625,0,0,0,36.666-5.32,1.625,1.625,0,0,0,38.29-3.7,1.625,1.625,0,0,0,39.914-5.32,1.625,1.625,0,0,0,38.29-6.944Zm-81.9,27.623h2.982v-1.2H-43.61v-2.52h-1.316v2.52h-3v1.2h3v3.612h-3.528v1.218H-40.1V24.291H-43.61Zm-3.472-5.642c.224-.574.42-1.148.6-1.722l-1.358-.336a14.781,14.781,0,0,1-.686,2.058H-52.3v1.246h3.22a11.433,11.433,0,0,1-3.6,4.326,7.778,7.778,0,0,1,.644,1.218,12.2,12.2,0,0,0,1.456-1.218v5.208h1.3V19.1a17.115,17.115,0,0,0,1.666-2.814h7.532V15.037Zm11.732.532h9.058v1.876h1.386V14.337h-5.236V12.993h-1.386v1.344h-5.138v3.108h1.316Zm5.67,8.9c-.84,0-.994-.1-.994-.714V21.421l6.02-.658-.154-1.218-5.866.63v-1.9a22.66,22.66,0,0,0,3.612-1.078L-28.1,16.129a32.17,32.17,0,0,1-7.56,1.778,4.1,4.1,0,0,1,.392,1.12c1.036-.126,2.114-.28,3.178-.476v1.778l-4.928.532.168,1.246,4.76-.518v2.184c0,1.554.5,1.988,2.31,1.988h2.912c1.61,0,2.016-.616,2.226-2.772a3.556,3.556,0,0,1-1.3-.532c-.1,1.694-.224,2.016-1.008,2.016Zm9.408-8.4H-19.1v-.98h1.652v.98h1.2v-.98h1.526V14.1H-16.24V12.993h-1.2V14.1H-19.1V12.993h-1.176V14.1H-21.7v.994h1.428Zm.14,2.45v-1.26h1.274v1.26Zm3.808,0h-1.33v-1.26h1.33Zm7.14-2.324H-12.1c.028-.98.028-2,.028-3.08h-1.2c0,1.078,0,2.114-.014,3.08H-14.77v1.218h1.456c-.112,2.758-.448,4.984-1.624,6.594v-.378c-.91.1-1.82.2-2.716.294v-.952h2.562v-.938h-2.562v-.882h2.688v-.98h-2.688v-.728h2.52V16.353h-6.132v3.094h2.408v.728H-21.49v.98h2.632v.882H-21.28v.938h2.422v1.064c-1.12.112-2.128.21-2.94.266l.14,1.12c1.61-.168,3.864-.406,6.062-.658-.07.056-.14.126-.224.2a3.516,3.516,0,0,1,.9.924c2.1-1.82,2.646-4.732,2.8-8.47h1.708c-.112,4.83-.252,6.58-.546,6.944a.452.452,0,0,1-.462.238c-.238,0-.784,0-1.372-.056a3.029,3.029,0,0,1,.35,1.2,8.348,8.348,0,0,0,1.61-.028,1.179,1.179,0,0,0,.966-.574c.42-.588.546-2.562.686-8.344Zm12,4.564c.07-.434.126-.868.168-1.33H1.694c-.042.462-.1.9-.168,1.33H-.714v1.092h1.96a4.629,4.629,0,0,1-3.108,2.982,3.857,3.857,0,0,1,.77,1.008,5.6,5.6,0,0,0,3.668-3.99h2.03c-.182,1.638-.378,2.352-.616,2.562a.537.537,0,0,1-.448.154c-.238,0-.756-.014-1.3-.07a3.4,3.4,0,0,1,.35,1.2,14.123,14.123,0,0,0,1.554,0,1.486,1.486,0,0,0,.938-.42c.392-.42.644-1.5.882-4,.028-.182.042-.518.042-.518Zm1.05-5.25a5.068,5.068,0,0,1-1.176,1.54,6.363,6.363,0,0,1-1.414-1.54Zm2.394,0V14.421H1.848a11.844,11.844,0,0,0,.574-1.106L1.2,12.979a8.349,8.349,0,0,1-2.66,3.374,7.7,7.7,0,0,1,1.078.742,9.041,9.041,0,0,0,.84-.812,8.256,8.256,0,0,0,1.246,1.47,9.274,9.274,0,0,1-2.142.882c.042-.2.084-.378.126-.56l-.784-.28-.2.07h-.868l.6-.658a9.7,9.7,0,0,0-1.12-.742A9.83,9.83,0,0,0-.49,14.127l-.84-.518-.21.042H-6.146v1.106h3.682a7.971,7.971,0,0,1-1.2,1.176c-.42-.21-.868-.406-1.26-.56l-.812.84a17.345,17.345,0,0,1,3,1.652h-3.57V19h1.946a9.259,9.259,0,0,1-2.142,3.36A6.247,6.247,0,0,1-5.852,23.6a9.9,9.9,0,0,0,1.89-3.038v3.794c0,.168-.056.2-.224.21s-.728.014-1.288-.014A4.616,4.616,0,0,1-5.1,25.789a4.841,4.841,0,0,0,1.848-.21c.42-.224.518-.574.518-1.2V19h1.078a15.392,15.392,0,0,1-.616,2.1l.9.448A19.061,19.061,0,0,0-.6,19.293a3.729,3.729,0,0,1,.364.574,11.61,11.61,0,0,0,2.954-1.316,9.948,9.948,0,0,0,3.038,1.344A4.818,4.818,0,0,1,6.566,18.8a9.857,9.857,0,0,1-2.828-1.05,6.76,6.76,0,0,0,1.554-2.24Zm8.778-.476h.574v1.078h4.438a15.559,15.559,0,0,1-1.512,4.774,17.7,17.7,0,0,1-1.512-4.732l-1.26.252a19.719,19.719,0,0,0,1.988,5.754A7.976,7.976,0,0,1,15.036,24.6Zm-3.654,7.518V20.707h2.394v1.512Zm2.394-7.518v1.624H11.382V15.037Zm-2.394,2.786h2.394v1.708H11.382ZM20.636,14.8l-.224.042H15.974V13.833H9.114v1.2h1.022v7.686c-.49.056-.924.126-1.316.168l.238,1.3c1.3-.21,3.024-.49,4.718-.77v2.394h1.26V24.669a5.031,5.031,0,0,1,.812,1.008,9.589,9.589,0,0,0,2.674-2.324A8.8,8.8,0,0,0,21.154,25.7a4.956,4.956,0,0,1,.9-1.064,7.709,7.709,0,0,1-2.716-2.45,17.5,17.5,0,0,0,2.142-7.168Zm14.308.5H30.772v-.938h4.172Zm0,1.834H30.772V16.2h4.172Zm1.316-3.724H29.512V18.1H36.26Zm-9.03-.378a10.292,10.292,0,0,1-2.912,2.786A7.261,7.261,0,0,1,24.99,16.9a14.065,14.065,0,0,0,3.5-3.374Zm.308,3.038a12.858,12.858,0,0,1-3.416,3.682,9.607,9.607,0,0,1,.658,1.316,14.427,14.427,0,0,0,1.47-1.358v6.118h1.26v-7.56a15.814,15.814,0,0,0,1.176-1.736Zm1.932,6.748a12.361,12.361,0,0,1,1.666,1.974l.98-.7a12.25,12.25,0,0,0-1.722-1.89ZM37.086,21h-2V19.979H36.82V18.9H28.728v1.078h5.054V21h-5.39v1.12h5.39v2.338c0,.168-.056.21-.266.224s-.868.014-1.568-.014a5.376,5.376,0,0,1,.42,1.176,6.015,6.015,0,0,0,2.128-.21c.462-.182.588-.5.588-1.148V22.121h2Zm6.244.028c1.344-.1,3.066-.224,4.8-.364a6.028,6.028,0,0,1,.364.756l.994-.49a7.02,7.02,0,0,0-.8-1.386,16.171,16.171,0,0,1,2.8,1.834l.966-.812a19.453,19.453,0,0,0-3.08-1.848l-.8.644c-.238-.336-.5-.658-.742-.952l-.938.406c.224.28.462.6.672.924l-1.974.1c.952-.91,1.96-2.016,2.786-2.982l-1.036-.476a21.04,21.04,0,0,1-1.372,1.736c-.266-.21-.588-.448-.91-.672.42-.49.924-1.106,1.358-1.68l-.294-.112h5.894v-1.19H46.83v-1.47H45.486v1.47H40.432v1.19h4.7c-.238.406-.546.882-.84,1.288-.14-.084-.252-.154-.378-.224l-.63.728a19.536,19.536,0,0,1,1.974,1.47c-.336.35-.672.686-.98.98l-.882.042.238-.112-.238-.98c-1.288.532-2.618,1.064-3.5,1.358l.63,1.064c.77-.35,1.708-.784,2.618-1.218Zm-2.968-4.214A13.492,13.492,0,0,1,42.5,18.369l.91-.784a11.527,11.527,0,0,0-2.2-1.47Zm9.352,1.414a16.415,16.415,0,0,0,2.24-1.708l-1.162-.574a13.914,13.914,0,0,1-2.03,1.764ZM46.83,20.973H45.486v1.008H40v1.2h5.488v2.674H46.83V23.185h5.6v-1.2h-5.6Z" transform="translate(1076 1464.646)"/>
    <path id="パス_12464" data-name="パス 12464" d="M-90.818-10.934H-96.81V-10h5.992Zm-1.358,3.346v2.436h-3.136V-7.588ZM-91.168-4.2V-8.54h-5.138v3.766A10.16,10.16,0,0,1-97.356.448a5.1,5.1,0,0,1,.8.63A10.455,10.455,0,0,0-95.312-4.2Zm6.916-2.786h-4.97v-2.24a24.573,24.573,0,0,0,4.69-1.54l-.924-.77a18.083,18.083,0,0,1-3.962,1.414l-.826-.21v3.71c0,2.114-.2,4.9-2.128,6.958a2.633,2.633,0,0,1,.77.7c1.89-2.016,2.31-4.83,2.366-7.014h2.422V1.064h1.022V-5.978h1.54Zm3.864-2.142h9.534v2.044h1.064v-3.024h-5.292v-1.6H-76.16v1.6h-5.25v3.024h1.022Zm5.306,5.95h4.144v-.966h-4.144V-6.468h3.57v-.98h-8.106v.98h3.472V-.6a4.2,4.2,0,0,1-2.576-2.7,17.671,17.671,0,0,0,.336-1.862l-1.064-.1c-.308,2.506-1.064,4.494-2.618,5.7a5.435,5.435,0,0,1,.854.7,7.67,7.67,0,0,0,2.086-3.122C-77.854.378-75.768.882-72.87.882h3.248a3.068,3.068,0,0,1,.392-1.05c-.672.014-3.08.014-3.584.014a12.781,12.781,0,0,1-2.268-.168ZM-60.97-8.61a17.146,17.146,0,0,1-1.148,3.78,17.58,17.58,0,0,0-2.618-1.834A15.883,15.883,0,0,0-63.7-8.61Zm3.99-3.094h-1.064V-6.37a11.989,11.989,0,0,1-1.428-2.044l-.546.21c.07-.378.154-.77.21-1.176l-.672-.252-.2.056h-2.632c.238-.616.448-1.274.63-1.932l-1.022-.21a13.083,13.083,0,0,1-3.346,6.244,6.037,6.037,0,0,1,.854.672,10.066,10.066,0,0,0,.924-1.078,17.236,17.236,0,0,1,2.674,1.988A10.1,10.1,0,0,1-66.738.224a3.914,3.914,0,0,1,.826.77c2.66-1.484,4.76-4.27,5.782-8.68a15.963,15.963,0,0,0,2.086,2.744V1.036h1.064V-3.92a12.726,12.726,0,0,0,2.492,1.736,4.585,4.585,0,0,1,.742-.882A12.211,12.211,0,0,1-56.98-5.278ZM-44.646-9.3a9.653,9.653,0,0,0-1.106-2.38l-.91.294a9.459,9.459,0,0,1,1.036,2.436Zm-3.332.07a10.056,10.056,0,0,0-1.512-2.212l-.882.42a9.658,9.658,0,0,1,1.456,2.282Zm2.562,3.976c.07-.63.126-1.316.154-2.044h-1.12c-.028.742-.07,1.414-.126,2.044h-3.92v.98h3.766C-47.1-2.058-48.23-.63-51.576.154a3.1,3.1,0,0,1,.6.924c3.724-.938,4.956-2.7,5.418-5.348h3.92c-.14,2.8-.336,3.934-.644,4.242-.14.14-.308.154-.616.154s-1.274-.014-2.226-.1a2.353,2.353,0,0,1,.35,1.008,22.707,22.707,0,0,0,2.3.042A1.43,1.43,0,0,0-41.384.63c.448-.476.644-1.848.826-5.4.014-.154.014-.476.014-.476Zm3.458-3.472a28.45,28.45,0,0,0,1.82-2.478l-1.106-.378a17.69,17.69,0,0,1-1.75,2.73l.308.126h-8.47v2.954h1.008v-2h9.618v2h1.036V-8.722Zm14.9,1.554a13.748,13.748,0,0,1-1.19,6.4c-.686.07-1.372.14-2.03.2V-1.666H-28.1v-.812h-2.184v-.9h2.142V-7.448h-2.128V-8.33h2.17v.77h1.036ZM-32.494-5.1h1.386v1.022h-1.386Zm0-1.652h1.386v.994h-1.386Zm2.142.994v-.994H-28.9v.994Zm0,1.68V-5.1H-28.9v1.022Zm4.2-4.41v-3.164h-.91v3.164h-.98v-.658h-2.226v-.966a18.671,18.671,0,0,0,2.17-.378l-.56-.756a36.208,36.208,0,0,1-4.83.672c.1-.266.182-.546.266-.812l-.924-.252A16.3,16.3,0,0,1-36.89-6.02a7.287,7.287,0,0,1,.518,1.05A14.805,14.805,0,0,0-35.14-6.832v7.91h.938v-9.8q.4-.9.714-1.848a2.9,2.9,0,0,1,.252.742c.658-.042,1.358-.1,2.058-.168v.854H-33.4v.812h2.226v.882h-2.044v4.074h2.044v.9h-2.086v.812h2.086V-.49l-2.436.224.168.882c1.3-.154,3-.336,4.69-.546-.126.182-.266.35-.406.518a3.276,3.276,0,0,1,.77.546c1.974-2.338,2.24-5.614,2.24-8.3V-7.56h1.26C-25-2.338-25.13-.518-25.4-.126a.4.4,0,0,1-.42.224c-.224,0-.714-.014-1.26-.056a2.226,2.226,0,0,1,.252.91,7.731,7.731,0,0,0,1.4,0A.977.977,0,0,0-24.6.462c.392-.56.49-2.464.616-8.456,0-.126.014-.49.014-.49Zm8.134-1.372v3.108h-2.03V-9.856ZM-20.048-2.6V-5.838h2.03V-2.6Zm3.01-8.19H-21V-.532h.952V-1.666h3.01Zm1.148,7.84A10.8,10.8,0,0,1-14.112-.49l.882-.56a9.9,9.9,0,0,0-1.82-2.38Zm7.224-3.472V-7.35h-3.612V-9.128h3.01v-.924h-3.01v-1.666H-13.3v1.666h-2.912v.924H-13.3V-7.35h-3.514v.924h5.362v1.582h-5.292v.924h5.292V-.182c0,.21-.07.266-.308.28s-.994.014-1.862-.014a3.179,3.179,0,0,1,.336.966A8.01,8.01,0,0,0-11.018.882c.42-.154.574-.462.574-1.05V-3.92H-8.82v-.924h-1.624V-6.426ZM-1.638-10.3v1.162H-4.662V-10.3ZM-4.662-7.14V-8.372h3.024V-7.14Zm4.018.8v-4.774H-5.7V1.078h1.036v-7.42ZM1.61-4.494v1.3H-1.68v-1.3ZM-1.68-1.05V-2.408H1.61V-1.05Zm4.256.826V-5.292H-2.618V.476h.938v-.7Zm-.98-6.9V-8.372H4.732v1.246ZM4.732-10.3v1.162H1.6V-10.3Zm1.05-.812H.6v4.788h4.13V-.322c0,.252-.084.336-.322.336S3.3.042,2.45,0a3.834,3.834,0,0,1,.364,1.064A7.969,7.969,0,0,0,5.166.882C5.628.7,5.782.35,5.782-.308Zm5.124,2.59a13.9,13.9,0,0,0-1.05-2.632l-.868.294a14.566,14.566,0,0,1,.994,2.688Zm-.518,5.348V-4.592H14.2v1.414ZM14.2-6.888V-5.5H10.388V-6.888Zm1.008-.98H12.782V-11.7H11.76v3.836H9.394V.994h.994V-2.268H14.2v2c0,.2-.07.252-.266.266s-.854.014-1.582-.014a3.19,3.19,0,0,1,.294.966A5.676,5.676,0,0,0,14.7.77c.392-.168.5-.448.5-1.022ZM14.532-8.2a28.064,28.064,0,0,0,1.3-2.8l-1.05-.294a16.755,16.755,0,0,1-1.12,2.828Zm3.192-1.848H16.716v7.658h1.008Zm2.142-1.386V-.294c0,.252-.112.336-.364.336-.28.014-1.148.014-2.142-.014a4.758,4.758,0,0,1,.378,1.05,8.714,8.714,0,0,0,2.52-.2c.434-.168.63-.49.63-1.19v-11.13ZM36.414-10.15a7.989,7.989,0,0,0-1.862-1.5l-.588.532a8.474,8.474,0,0,1,1.848,1.568Zm-9.044-.028a9.02,9.02,0,0,0-2.3-1.4l-.588.742a10.082,10.082,0,0,1,2.268,1.47Zm-.644,3.64A9.541,9.541,0,0,0,24.4-7.84l-.588.756A10.38,10.38,0,0,1,26.124-5.7ZM26-4.382A45.811,45.811,0,0,1,24.038.252l.938.56c.6-1.33,1.316-3.136,1.848-4.662Zm5.6-.35V-2.59H29.9V-4.732Zm.756,2.94V-5.544H29.176V-.952H29.9v-.84Zm.056-5.656H29.092v.812H32.41Zm2.912.14a15.257,15.257,0,0,1-1.19,3.542c-.21-1.344-.378-3-.476-4.788h2.8v-.924H33.614c-.028-.686-.056-1.386-.07-2.1h-.938c.014.714.042,1.414.07,2.1h-5.11v3.724c0,1.89-.126,4.48-1.372,6.3a3.917,3.917,0,0,1,.784.546C28.294-.84,28.5-3.724,28.5-5.754v-2.8h4.214a42.635,42.635,0,0,0,.672,6.076A8.95,8.95,0,0,1,30.478.266c.2.182.56.532.714.7a10.17,10.17,0,0,0,2.478-2.3c.434,1.5,1.036,2.366,1.862,2.394.532.014,1.036-.588,1.3-2.856a2.436,2.436,0,0,1-.756-.518c-.1,1.386-.294,2.17-.546,2.156C35.1-.182,34.706-1.008,34.4-2.38a16.072,16.072,0,0,0,1.834-4.76ZM42.154-1.96c-.6,0-1.414-.77-1.414-2.52a4.834,4.834,0,0,1,4.284-4.48,22.369,22.369,0,0,1-.77,3.738C43.54-2.884,42.77-1.96,42.154-1.96ZM45.808.364c3.3-.434,5.222-2.38,5.222-5.292a5.033,5.033,0,0,0-5.32-5.1,5.92,5.92,0,0,0-6.076,5.642c0,2.282,1.246,3.71,2.478,3.71,1.288,0,2.394-1.47,3.248-4.312a29.3,29.3,0,0,0,.826-3.99,3.843,3.843,0,0,1,3.682,4.018,4.156,4.156,0,0,1-3.514,4.1,8.69,8.69,0,0,1-1.19.168ZM61-5.712a22.274,22.274,0,0,1,2.562-.154A19.943,19.943,0,0,1,65.9-5.7l.028-1.064a22.138,22.138,0,0,0-2.394-.112c-.9,0-1.806.042-2.534.112Zm.9-3.64a20.091,20.091,0,0,1-2.646.5l.21-1.022c.056-.28.154-.8.252-1.106l-1.358-.112A6.612,6.612,0,0,1,58.31-9.94c-.042.28-.112.714-.21,1.218-.532.028-1.022.056-1.484.056a12.361,12.361,0,0,1-1.666-.1l.042,1.092c.49.028.994.056,1.61.056q.588,0,1.26-.042c-.112.5-.224,1.008-.35,1.47a30.806,30.806,0,0,1-2.324,6.2L56.42.42a41.1,41.1,0,0,0,2.17-6.356c.154-.588.308-1.232.434-1.834a26.672,26.672,0,0,0,2.87-.476ZM60.3-3.486a7.727,7.727,0,0,0-.21,1.638C60.088-.476,61.236.2,63.42.2A20.585,20.585,0,0,0,66.094.014l.042-1.134a15.507,15.507,0,0,1-2.7.266c-1.974,0-2.282-.63-2.282-1.288a4.944,4.944,0,0,1,.2-1.246ZM74.284-4.494A15.586,15.586,0,0,1,73.22-6.93a5.953,5.953,0,0,1,2.954-.952,17.7,17.7,0,0,1-1.61,3.85C74.466-4.186,74.368-4.34,74.284-4.494ZM71.9-1.582c-.63,0-1.036-.56-1.036-1.484a4.716,4.716,0,0,1,1.484-3.206,17.347,17.347,0,0,0,1.232,2.66c.112.182.224.364.336.532C73.3-2.268,72.59-1.582,71.9-1.582Zm4.83-9.324a5.148,5.148,0,0,1-.084,1.05c-.056.322-.126.658-.21.994a7.037,7.037,0,0,0-3.556.98c-.126-.392-.238-.742-.322-1.064-.1-.378-.21-.84-.28-1.218L71.12-9.8a10.663,10.663,0,0,1,.448,1.246c.126.406.266.84.42,1.274A5.833,5.833,0,0,0,69.846-3c0,1.638.9,2.52,1.946,2.52A3.746,3.746,0,0,0,74.536-2.2c.21.28.434.532.658.784l.868-.714a8.238,8.238,0,0,1-.854-.966,18.037,18.037,0,0,0,2.03-4.718,3.364,3.364,0,0,1,2.884,3.458c0,2.128-1.61,3.654-4.494,3.906L76.3.546c2.968-.406,4.942-2.1,4.942-4.858A4.351,4.351,0,0,0,77.49-8.778c.084-.322.154-.63.224-.938.07-.266.154-.742.238-1.078ZM87.514-1.96c-.6,0-1.414-.77-1.414-2.52a4.834,4.834,0,0,1,4.284-4.48,22.368,22.368,0,0,1-.77,3.738C88.9-2.884,88.13-1.96,87.514-1.96ZM91.168.364c3.3-.434,5.222-2.38,5.222-5.292a5.033,5.033,0,0,0-5.32-5.1,5.92,5.92,0,0,0-6.076,5.642c0,2.282,1.246,3.71,2.478,3.71,1.288,0,2.394-1.47,3.248-4.312a29.3,29.3,0,0,0,.826-3.99,3.843,3.843,0,0,1,3.682,4.018,4.156,4.156,0,0,1-3.514,4.1,8.69,8.69,0,0,1-1.19.168ZM-47.474,22.456l-1.428.392V20.076h1.4V19.1h-1.4V16.3H-49.9v2.8h-1.778v.98H-49.9v3.052c-.728.21-1.4.378-1.946.5l.294,1.022,1.652-.49v3.584c0,.2-.07.266-.266.266-.168,0-.784.014-1.442-.014a3.765,3.765,0,0,1,.308.952,4.978,4.978,0,0,0,1.89-.2c.364-.154.5-.42.5-1.008V23.87l1.554-.476Zm6.594,1.372v1.428h-4.172V23.828Zm-4.172,3.752V26.11h4.172v1.47Zm-1.008,1.484h1.008v-.616h4.172v.588h1.022v-6.1h-6.2Zm1.876-10.024h2.212v1.834h-2.212Zm3.22,1.834V19.04h1.722v-.924h-1.722V16.3h-1.008v1.82h-2.212V16.3h-.994v1.82h-1.666v.924h1.666v1.834h-2.044v.952h8.232v-.952Zm9.548-3.248h2.282v1.246h-2.282Zm-.966,1.246h-2.226V17.626h2.226Zm4.214-1.246h2.352v1.246h-2.352Zm1.792,5.81h-5.67V22.68h5.67Zm0,1.386h-5.67v-.77h5.67Zm0,1.414h-5.67v-.784h5.67Zm-6.636-4.2v4.83h7.63v-4.83h-4.536c.042-.252.1-.518.14-.812h5.558V20.4h-5.418c.042-.252.07-.518.112-.756h4.732V16.87H-35.588v2.772h5.012c-.028.238-.056.5-.084.756h-5.572v.826h5.446c-.042.28-.1.56-.14.812Zm9.142,5.614H-34.426v-5.4h-1.036v6.832h1.036V28.49H-23.87Zm10.038-1.54c-.014-.672-.028-1.848-.042-2.646,1.05-.49,2.044-.9,2.828-1.2.364-.14.868-.336,1.218-.434l-.448-1.05c-.392.2-.728.364-1.148.546-.728.336-1.568.672-2.52,1.12a1.743,1.743,0,0,0-1.834-1.26A3.932,3.932,0,0,0-17.7,21.7a9.948,9.948,0,0,0,1.246-2.128,42.832,42.832,0,0,0,4.592-.392l.014-1.036a37.2,37.2,0,0,1-4.242.42c.2-.63.322-1.2.42-1.6l-1.148-.1a7.513,7.513,0,0,1-.35,1.722c-.322.014-.616.014-.91.014-.63,0-1.6-.056-2.338-.14v1.05c.756.056,1.694.084,2.282.084h.574a14.67,14.67,0,0,1-3.192,4.228l.952.714c.476-.56.868-1.078,1.26-1.456a3.69,3.69,0,0,1,2.394-1.022,1.172,1.172,0,0,1,1.246.854c-1.61.84-3.262,1.876-3.262,3.514,0,1.694,1.6,2.114,3.584,2.114a35.7,35.7,0,0,0,3.794-.224l.028-1.134a24.408,24.408,0,0,1-3.78.336c-1.428,0-2.506-.154-2.506-1.246,0-.91.9-1.624,2.184-2.324,0,.728-.014,1.624-.056,2.156ZM6.16,25.438v-.924H.224A6.166,6.166,0,0,0,.448,23.2H4.606V22.33H.476V21.084H4.8v-.742h1.05V17.654H.5V16.3H-.532v1.358H-5.866v2.688h1.008v-1.75H4.8V20.2H.476V19.04H-.56V20.2H-4.69v.882H-.56V22.33H-4.466V23.2H-.588a4.4,4.4,0,0,1-.266,1.316H-6.076v.924H-1.33c-.728,1.05-2.156,2.03-4.886,2.786a4.109,4.109,0,0,1,.63.84c3.192-.952,4.718-2.24,5.446-3.626h.126c1.064,2,2.968,3.178,5.7,3.654a3.981,3.981,0,0,1,.63-.9c-2.436-.35-4.228-1.26-5.222-2.758Zm5.082-3.99c.028-.63.042-1.274.056-1.918h3.36v-.966H12.222V16.31h-.98v2.254H8.778v.966H10.3c-.056,3.444-.224,6.916-1.68,8.848a2.883,2.883,0,0,1,.784.686c1.176-1.582,1.61-4,1.778-6.664h1.68c-.084,3.892-.168,5.25-.406,5.572a.427.427,0,0,1-.434.2c-.2,0-.714,0-1.288-.056a2.252,2.252,0,0,1,.266.924,10.349,10.349,0,0,0,1.484,0,.991.991,0,0,0,.812-.448c.35-.462.434-2.03.532-6.664.014-.14.014-.476.014-.476Zm10.192-2.254v-.952h-5a16.931,16.931,0,0,0,.518-1.75l-1.008-.21a10.2,10.2,0,0,1-2.058,4.438,8.093,8.093,0,0,1,.8.728,9.726,9.726,0,0,0,1.358-2.254Zm-4.256,8.918c-.77,0-.9-.112-.9-.644V23.576l1.316-.63v3.766h.9V22.526l1.5-.714c0,1.666-.028,2.9-.07,3.108-.042.238-.126.266-.294.266a6.886,6.886,0,0,1-.728-.014,2.691,2.691,0,0,1,.224.812,3.762,3.762,0,0,0,1.05-.084.76.76,0,0,0,.63-.756c.056-.392.084-2.156.084-4.144l.042-.168-.658-.238-.168.126-.07.07-1.54.714V19.712h-.9v2.212l-1.316.616V20.8h-.938v2.184l-1.232.574.392.854.84-.392v3.43c0,1.232.378,1.54,1.764,1.54H19.95c1.176,0,1.484-.462,1.61-2.114a2.9,2.9,0,0,1-.882-.378c-.056,1.344-.168,1.61-.784,1.61ZM29.96,24.724a1.333,1.333,0,0,1-1.414-1.372,1.408,1.408,0,0,1,1.4-1.456,1.23,1.23,0,0,1,1.232.854C31.3,24.066,30.772,24.724,29.96,24.724ZM32.1,19.712c2.03,0,3.29.028,4.074.07l.014-1.05c-.672,0-2.38-.014-4.06-.014h-.21c0-.364.014-.686.014-.9l.07-.868H30.73c.028.168.07.574.084.868.014.2.028.518.028.91-2.058.028-4.662.112-6.2.14l.028,1.092c1.736-.126,4.088-.224,6.188-.238.014.476.014.966.014,1.372a2.78,2.78,0,0,0-.924-.154,2.438,2.438,0,0,0-2.45,2.422,2.233,2.233,0,0,0,2.3,2.324,1.991,1.991,0,0,0,1.19-.35c-.574,1.232-1.862,1.988-3.682,2.408l.966.938c3.22-.966,4.13-3.052,4.13-4.928a3.385,3.385,0,0,0-.448-1.778c-.014-.63-.028-1.484-.028-2.268Zm13.244,7.826c-1.036,0-1.834-.392-1.834-1.078,0-.476.476-.854,1.106-.854a1.851,1.851,0,0,1,1.834,1.848A6.829,6.829,0,0,1,45.346,27.538ZM48.2,17.472a4.964,4.964,0,0,1-.756.112c-.728.07-4.018.168-4.732.168a7.872,7.872,0,0,1-.98-.042l.028,1.162a6.675,6.675,0,0,1,.938-.084c.714-.042,3.444-.168,4.172-.2-.686.616-2.408,2.072-3.178,2.716-.812.672-2.59,2.156-3.738,3.108l.812.826c1.764-1.792,3.024-2.758,5.306-2.758,1.75,0,3.122.994,3.122,2.352a2.418,2.418,0,0,1-1.722,2.352,2.738,2.738,0,0,0-2.856-2.45,1.97,1.97,0,0,0-2.142,1.82c0,1.148,1.162,1.988,3.052,1.988,2.926,0,4.788-1.456,4.788-3.7,0-1.876-1.666-3.276-3.976-3.276a5.891,5.891,0,0,0-1.876.294c1.064-.9,2.926-2.534,3.612-3.052.21-.154.518-.364.77-.532Z" transform="translate(1000 1639)"/>
    <path id="パス_12351" data-name="パス 12351" d="M-17.4-58.271H-50.889v-9.58H-.308L-43.11,2.329l-8.13-5.142Zm64.731,0H26.411l-3.34,11.25q.747-.088,1.428-.132t1.252-.044a21.351,21.351,0,0,1,16.216,6.68q6.372,6.636,6.372,17.007,0,10.723-7.207,17.666T22.983,1.1Q9.492,1.1,1.714-11.558l7.734-6.548q3.208,5.449,6.46,7.69a13.878,13.878,0,0,0,7.954,2.2,13.809,13.809,0,0,0,10.327-4.307,15.142,15.142,0,0,0,4.175-10.767,14.394,14.394,0,0,0-4.131-10.635,13.788,13.788,0,0,0-10.327-4.263q-6.9,0-11.909,6.021H8.613L19.292-67.852H47.329Z" transform="translate(931 1569)" fill="#1778b1"/>
    <path id="パス_12352" data-name="パス 12352" d="M-39.9-35.288a16.678,16.678,0,0,1-7.471-14.37,18.5,18.5,0,0,1,5.669-13.8A19.593,19.593,0,0,1-27.51-68.994a19.239,19.239,0,0,1,14.063,5.537A18.538,18.538,0,0,1-7.822-49.614q0,8.745-7.427,14.282a15.737,15.737,0,0,1,6.416,6.416A19.023,19.023,0,0,1-6.46-19.424,19.753,19.753,0,0,1-12.349-4.658Q-18.237,1.1-27.422,1.1q-9.4,0-15.513-5.8a19.2,19.2,0,0,1-6.152-14.59Q-49.087-30.718-39.9-35.288ZM-37.749-49.7A9.907,9.907,0,0,0-34.8-42.407,9.822,9.822,0,0,0-27.6-39.419a9.771,9.771,0,0,0,7.163-2.988,9.771,9.771,0,0,0,2.988-7.163,9.771,9.771,0,0,0-2.988-7.163A9.771,9.771,0,0,0-27.6-59.722a9.771,9.771,0,0,0-7.163,2.988A9.621,9.621,0,0,0-37.749-49.7Zm-1.274,30.059a11.262,11.262,0,0,0,3.252,8.086,10.818,10.818,0,0,0,8,3.34,10.839,10.839,0,0,0,7.954-3.3,10.985,10.985,0,0,0,3.3-8,10.89,10.89,0,0,0-3.3-8,10.839,10.839,0,0,0-7.954-3.3,10.933,10.933,0,0,0-7.954,3.3A10.738,10.738,0,0,0-39.023-19.644ZM3.823-34.365q0-16.216,7.559-25.884,6.768-8.745,16.392-8.745t16.392,8.745q7.559,9.668,7.559,26.323,0,16.611-7.559,26.279Q37.4,1.1,27.817,1.1T11.382-7.646Q3.823-17.314,3.823-34.365Zm10.063.044q0,11.294,3.911,18.765,3.911,7.339,9.976,7.339,6.021,0,9.976-7.339Q41.7-22.852,41.7-33.97T37.749-52.427q-3.955-7.295-9.976-7.295-5.977,0-9.932,7.295Q13.887-45.176,13.887-34.321Z" transform="translate(1076 1574)" fill="#1778b1"/>
    <path id="パス_12462" data-name="パス 12462" d="M-26.988-11.142a3.143,3.143,0,0,1,1.03-2.338,3.417,3.417,0,0,1,2.421-.993,3.35,3.35,0,0,1,2.431,1A3.2,3.2,0,0,1-20.085-11.1a3.208,3.208,0,0,1-1.021,2.384,3.4,3.4,0,0,1-2.458.993A3.3,3.3,0,0,1-25.986-8.73,3.308,3.308,0,0,1-26.988-11.142Zm1.614.028A1.792,1.792,0,0,0-24.835-9.8a1.781,1.781,0,0,0,1.308.538,1.759,1.759,0,0,0,1.29-.538,1.77,1.77,0,0,0,.538-1.3,1.759,1.759,0,0,0-.538-1.29,1.77,1.77,0,0,0-1.3-.538,1.77,1.77,0,0,0-1.3.538A1.738,1.738,0,0,0-25.374-11.114Zm9.973-3.46,1.011.575L-22.59.232-23.611-.38ZM-17.924-3.293a3.134,3.134,0,0,1,1.03-2.329,3.417,3.417,0,0,1,2.421-.993,3.361,3.361,0,0,1,2.44,1,3.2,3.2,0,0,1,1.021,2.375,3.175,3.175,0,0,1-1.03,2.384A3.4,3.4,0,0,1-14.5.13a3.319,3.319,0,0,1-2.421-1A3.3,3.3,0,0,1-17.924-3.293Zm1.624.037a1.808,1.808,0,0,0,.529,1.317,1.781,1.781,0,0,0,1.308.538,1.739,1.739,0,0,0,1.29-.538,1.77,1.77,0,0,0,.538-1.3,1.77,1.77,0,0,0-.538-1.3,1.75,1.75,0,0,0-1.3-.538,1.759,1.759,0,0,0-1.29.538A1.748,1.748,0,0,0-16.3-3.256ZM4.332-15.314a5.759,5.759,0,0,1,.057,1.045C4.389-8.36,2.6-4.389-1.2-1.824A16.836,16.836,0,0,1-5,.076a4.2,4.2,0,0,1,.95,1.349A15.473,15.473,0,0,0,2.736-3.5,14.971,14.971,0,0,0,7.125,1.273,5.826,5.826,0,0,1,8.132-.209,11.722,11.722,0,0,1,3.61-4.826a13.827,13.827,0,0,0,1.349-3,27.379,27.379,0,0,0,.95-5.358,19.648,19.648,0,0,1,.171-2.09ZM-7.22-3.1a14.615,14.615,0,0,1-2.033.627l.475,1.653A10.731,10.731,0,0,1-7.6-1.33,44.709,44.709,0,0,0-.152-4.959l-.3-1.406A34.873,34.873,0,0,1-5.7-3.686l-.095-9.481v-.266a12.454,12.454,0,0,1,.114-1.824H-7.467a11.508,11.508,0,0,1,.152,2.071ZM-3.5-13.186A20.278,20.278,0,0,1,.1-8.493l1.368-.95a26.438,26.438,0,0,0-3.705-4.579ZM18.563-8.379h4.731a16.128,16.128,0,0,1,2.033.114V-9.937a15.707,15.707,0,0,1-2.033.114H18.563v-3.724A13.531,13.531,0,0,1,18.7-15.58H16.834a14.424,14.424,0,0,1,.133,2.033V-.874H12.1A20.073,20.073,0,0,1,9.747-.988V.7A18.325,18.325,0,0,1,12.1.57H24.586A16.36,16.36,0,0,1,26.828.7V-.988a19.23,19.23,0,0,1-2.261.114h-6Z" transform="translate(919 1604)" fill="#1778b1" opacity="0.8"/>
    <path id="パス_12463" data-name="パス 12463" d="M-26.988-11.142a3.143,3.143,0,0,1,1.03-2.338,3.417,3.417,0,0,1,2.421-.993,3.35,3.35,0,0,1,2.431,1A3.2,3.2,0,0,1-20.085-11.1a3.208,3.208,0,0,1-1.021,2.384,3.4,3.4,0,0,1-2.458.993A3.3,3.3,0,0,1-25.986-8.73,3.308,3.308,0,0,1-26.988-11.142Zm1.614.028A1.792,1.792,0,0,0-24.835-9.8a1.781,1.781,0,0,0,1.308.538,1.759,1.759,0,0,0,1.29-.538,1.77,1.77,0,0,0,.538-1.3,1.759,1.759,0,0,0-.538-1.29,1.77,1.77,0,0,0-1.3-.538,1.77,1.77,0,0,0-1.3.538A1.738,1.738,0,0,0-25.374-11.114Zm9.973-3.46,1.011.575L-22.59.232-23.611-.38ZM-17.924-3.293a3.134,3.134,0,0,1,1.03-2.329,3.417,3.417,0,0,1,2.421-.993,3.361,3.361,0,0,1,2.44,1,3.2,3.2,0,0,1,1.021,2.375,3.175,3.175,0,0,1-1.03,2.384A3.4,3.4,0,0,1-14.5.13a3.319,3.319,0,0,1-2.421-1A3.3,3.3,0,0,1-17.924-3.293Zm1.624.037a1.808,1.808,0,0,0,.529,1.317,1.781,1.781,0,0,0,1.308.538,1.739,1.739,0,0,0,1.29-.538,1.77,1.77,0,0,0,.538-1.3,1.77,1.77,0,0,0-.538-1.3,1.75,1.75,0,0,0-1.3-.538,1.759,1.759,0,0,0-1.29.538A1.748,1.748,0,0,0-16.3-3.256ZM4.332-15.314a5.759,5.759,0,0,1,.057,1.045C4.389-8.36,2.6-4.389-1.2-1.824A16.836,16.836,0,0,1-5,.076a4.2,4.2,0,0,1,.95,1.349A15.473,15.473,0,0,0,2.736-3.5,14.971,14.971,0,0,0,7.125,1.273,5.826,5.826,0,0,1,8.132-.209,11.722,11.722,0,0,1,3.61-4.826a13.827,13.827,0,0,0,1.349-3,27.379,27.379,0,0,0,.95-5.358,19.648,19.648,0,0,1,.171-2.09ZM-7.22-3.1a14.615,14.615,0,0,1-2.033.627l.475,1.653A10.731,10.731,0,0,1-7.6-1.33,44.709,44.709,0,0,0-.152-4.959l-.3-1.406A34.873,34.873,0,0,1-5.7-3.686l-.095-9.481v-.266a12.454,12.454,0,0,1,.114-1.824H-7.467a11.508,11.508,0,0,1,.152,2.071ZM-3.5-13.186A20.278,20.278,0,0,1,.1-8.493l1.368-.95a26.438,26.438,0,0,0-3.705-4.579ZM18.563-8.379h4.731a16.128,16.128,0,0,1,2.033.114V-9.937a15.707,15.707,0,0,1-2.033.114H18.563v-3.724A13.531,13.531,0,0,1,18.7-15.58H16.834a14.424,14.424,0,0,1,.133,2.033V-.874H12.1A20.073,20.073,0,0,1,9.747-.988V.7A18.325,18.325,0,0,1,12.1.57H24.586A16.36,16.36,0,0,1,26.828.7V-.988a19.23,19.23,0,0,1-2.261.114h-6Z" transform="translate(1070 1604)" fill="#1778b1"/>
  </g>
</svg>
