<svg height="269.345" viewBox="0 0 261.932 269.345" width="261.932" xmlns="http://www.w3.org/2000/svg" xmlns:xlink="http://www.w3.org/1999/xlink"><clipPath id="a"><path d="m954.621 2897.719h111v190h-111z"/></clipPath><path d="m-48.72-7.546h2.464v.98h-2.464zm0-2.254h2.464v.966h-2.464zm6.65.966h-2.506v-.966h2.506zm0 2.268h-2.506v-.98h2.506zm-2.87 2.338c.056-.322.112-.63.154-.966h4.466v-5.978h-10.066v5.978h3.85c-.042.336-.1.658-.154.966h-4.634v1.5h4.088c-.658 1.12-1.96 1.946-4.69 2.478a4.468 4.468 0 0 1 .868 1.45c3.528-.77 5.012-2.128 5.712-3.934h3.682c-.154 1.386-.364 2.086-.616 2.3a.92.92 0 0 1 -.616.14c-.378 0-1.26-.014-2.128-.084a3.3 3.3 0 0 1 .546 1.526c.882.014 1.736.028 2.226-.014a1.958 1.958 0 0 0 1.386-.546c.448-.448.728-1.6.952-4.144.028-.224.056-.672.056-.672zm17.864 3.416v-2.8h2.562v-1.554h-2.562v-2.3h2.856v-1.564h-2.856v-2.744h-1.666v2.744h-1.12c.14-.63.252-1.288.35-1.946l-1.624-.224a16.944 16.944 0 0 1 -.742 3.416 16.052 16.052 0 0 0 -.77-1.764l-.812.336v-2.646h-1.666v2.858l-1.174-.17a16.639 16.639 0 0 1 -.686 3.64l1.232.448a17.841 17.841 0 0 0 .63-3.71v10.01h1.666v-9.562a9.735 9.735 0 0 1 .532 1.61l.8-.364c-.14.294-.28.56-.42.812a14.722 14.722 0 0 1 1.484.756 9.563 9.563 0 0 0 .784-1.932h1.54v2.3h-2.7v1.554h2.7v2.8h-3.742v1.578h8.708v-1.582zm8.776-1.708c-.518 0-1.078-.686-1.078-2.086a4.347 4.347 0 0 1 3.514-4.018 22.254 22.254 0 0 1 -.742 3.36c-.558 1.876-1.118 2.744-1.694 2.744zm3.81 3.094c3.5-.532 5.29-2.604 5.29-5.516a5.291 5.291 0 0 0 -5.6-5.418 6.183 6.183 0 0 0 -6.384 5.936c0 2.338 1.3 4.032 2.828 4.032s2.718-1.708 3.544-4.508a30.13 30.13 0 0 0 .826-3.766 3.432 3.432 0 0 1 2.898 3.666 3.753 3.753 0 0 1 -3.15 3.71c-.364.084-.756.154-1.288.224zm11.844-2.716v-.672h5.306v.672zm5.306-2.478v.672h-5.306v-.672zm1.694-1.344h-8.666v7.182h1.666v-2.212h5.306v.644c0 .2-.07.266-.322.266-.21.014-1.106.014-1.778-.028a6.608 6.608 0 0 1 .49 1.33 8.741 8.741 0 0 0 2.534-.21c.574-.21.77-.56.77-1.344zm-2.212-3.248-.672.406c.294.21.6.448.91.7-1.47.028-2.926.042-4.284.07.322-.378.658-.784.966-1.176zm4.046 0v-1.456h-5.348v-1.19h-1.708v1.19h-5.348v1.456h3.178c-.224.392-.476.812-.742 1.19l-1.946.028.042 1.5c2.45-.056 6.1-.154 9.59-.28a9.331 9.331 0 0 1 .84.9l1.47-.938a18.614 18.614 0 0 0 -2.8-2.394zm6.1 5.5c-.206 1.766-.612 2.912-3.762 3.53a4.981 4.981 0 0 1 .938 1.5c3.668-.898 4.354-2.564 4.636-5.028zm3.682-.028v2.87c0 1.512.392 2.03 2 2.03h1.708c1.33 0 1.764-.56 1.946-2.758a5.069 5.069 0 0 1 -1.54-.658c-.056 1.61-.126 1.848-.574 1.848h-1.282c-.476 0-.546-.07-.546-.49v-2.84zm-5.936-7.728v7.6h1.624v-7.6zm3.262.182v7.2h7.042v-7.2zm1.61 1.428h3.738v1.5h-3.734zm0 2.814h3.738v1.526h-3.734zm21.7.2v-1.626h-3.65v-3.164h-1.656v3.164h-3.552v1.624h2.9a13.283 13.283 0 0 1 -3.458 5.068v-6.522a22.09 22.09 0 0 0 1.442-2.954l-1.652-.532a14.363 14.363 0 0 1 -3.542 5.376 12.089 12.089 0 0 1 .966 1.75 12.689 12.689 0 0 0 1.148-1.26v7.11h1.638v-2.8a9.233 9.233 0 0 1 1.132 1.232 14.226 14.226 0 0 0 2.978-4.242v5.838h1.652v-6.118a14.311 14.311 0 0 0 2.832 4.452 5.934 5.934 0 0 1 1.246-1.33 13.694 13.694 0 0 1 -3.346-5.068zm10.476-1.374c-.154.378-.322.784-.49 1.12h-2.618l.238-.042a6.9 6.9 0 0 0 -.476-1.078zm4.518 6.244v-1.372h-5.442v-.616h4.2v-1.2h-4.2v-.638h4.858v-1.3h-2.744c.21-.336.434-.714.658-1.12h2.632v-1.356h-1.82c.322-.49.7-1.12 1.092-1.764l-1.75-.42a11.277 11.277 0 0 1 -.884 2.03l.5.154h-1.24v-2.282h-1.568v2.282h-1.036v-2.282h-1.556v2.282h-1.272l.686-.252a10.594 10.594 0 0 0 -1.064-1.972l-1.428.49a12.549 12.549 0 0 1 .868 1.736h-1.876v1.358h2.926l-.168.028a6.291 6.291 0 0 1 .476 1.088h-2.66v1.3h4.732v.63h-4.032v1.2h4.032v.616h-5.348v1.372h4.018a14.708 14.708 0 0 1 -4.424 1.646 7.766 7.766 0 0 1 1.064 1.386 13.28 13.28 0 0 0 4.69-2.268v2.436h1.638v-2.518a11.95 11.95 0 0 0 4.7 2.366 7.831 7.831 0 0 1 1.12-1.512 12.507 12.507 0 0 1 -4.438-1.526z" transform="translate(131 11.857)"/><path d="m-113.365-2.03v-1.078h6.23v1.078zm6.23-2.926v1.078h-6.23v-1.078zm1.05-.868h-8.315v6.888h1.036v-2.31h6.23v1.2c0 .2-.07.252-.28.266-.238 0-1.05 0-1.862-.014a4.008 4.008 0 0 1 .336.854 9.024 9.024 0 0 0 2.281-.15c.434-.126.574-.392.574-.952zm-1.778-3.6-.784.518c.49.322 1.022.714 1.526 1.106-1.96.042-3.934.084-5.656.112.462-.546.952-1.162 1.372-1.736zm3.7-.924h-5.614v-1.372h-1.05v1.372h-5.558v.924h3.654a17.381 17.381 0 0 1 -1.176 1.75l-1.932.028.042.966c2.45-.042 6.174-.14 9.688-.28a10.149 10.149 0 0 1 .952.938l.868-.616a20.532 20.532 0 0 0 -3.528-2.786h3.654zm6.482 6.72c-.252 1.974-.924 3.206-3.934 3.85a3.265 3.265 0 0 1 .616.91c3.29-.8 4.116-2.324 4.424-4.76zm3.668 0v3.194c0 1.12.336 1.442 1.61 1.442h2.086c1.12 0 1.428-.5 1.554-2.576a3.161 3.161 0 0 1 -.966-.42c-.056 1.75-.154 2.016-.686 2.016h-1.876c-.56 0-.658-.07-.658-.462v-3.192zm-6.1-7.7v7.5h1.008v-7.5zm3.15.238v7.07h6.9v-7.07zm.994.924h4.858v2.17h-4.858zm0 3.024h4.858v2.2h-4.858zm13.062-4.48a14.387 14.387 0 0 1 -3.794 5.614 5.958 5.958 0 0 1 .63 1.05 14.2 14.2 0 0 0 1.644-1.842v7.85h1.022v-9.35a20.8 20.8 0 0 0 1.526-3zm9.17 4.466v-1.006h-4.046v-3.36h-1.022v3.36h-3.934v1.008h3.388a14.222 14.222 0 0 1 -3.878 5.726 6.04 6.04 0 0 1 .784.8 15.632 15.632 0 0 0 3.64-5.39v7.1h1.022v-7.396a17 17 0 0 0 3.618 5.628 3.729 3.729 0 0 1 .784-.84 14.772 14.772 0 0 1 -3.808-5.628zm10.906-1.19a12.8 12.8 0 0 1 -.714 1.456l.14.042h-3.295l.448-.1a5.44 5.44 0 0 0 -.7-1.4zm4.018 6.09v-.882h-5.614v-1.034h4.382v-.8h-4.382v-1.02h5.068v-.854h-3.178c.28-.42.588-.966.868-1.5h2.8v-.9h-2.17a19.576 19.576 0 0 0 1.232-2.016l-1.064-.28a15.883 15.883 0 0 1 -1.064 2.128l.518.168h-1.694v-2.478h-.98v2.484h-1.666v-2.478h-.966v2.478h-1.722l.714-.266a9.65 9.65 0 0 0 -1.19-2.058l-.882.294a10.913 10.913 0 0 1 1.106 2.03h-2.226v.9h3.416l-.49.1a5.878 5.878 0 0 1 .686 1.4h-3.052v.854h4.914v1.016h-4.214v.8h4.214v1.036h-5.53v.882h4.578a13.493 13.493 0 0 1 -4.95 2.21 4.458 4.458 0 0 1 .672.882 14.069 14.069 0 0 0 5.222-2.758v2.982h1.022v-3.052a13.217 13.217 0 0 0 5.264 2.87 3.743 3.743 0 0 1 .7-.924 12.809 12.809 0 0 1 -5-2.212zm4.4-8.5a6.114 6.114 0 0 1 -.1.98 43.2 43.2 0 0 0 -.63 5.824 16.752 16.752 0 0 0 .532 4.4l.994-.084c-.014-.14-.042-.336-.042-.476a2.379 2.379 0 0 1 .07-.616 29.931 29.931 0 0 1 .98-3.066l-.588-.462c-.238.56-.56 1.386-.784 2.016a12.249 12.249 0 0 1 -.126-1.89 34.048 34.048 0 0 1 .686-5.586 6.566 6.566 0 0 1 .238-.938zm7.07 8.6c0 .924-.336 1.5-1.512 1.5-.994 0-1.666-.392-1.666-1.078 0-.644.714-1.106 1.75-1.106a4.335 4.335 0 0 1 1.414.224c.002.166.002.334.002.46zm3.78.686a9.453 9.453 0 0 0 -2.73-1.806c-.056-1.162-.154-2.548-.168-3.934.826-.056 1.638-.14 2.394-.266v-1.092a17.66 17.66 0 0 1 -2.394.322c.014-.644.028-1.288.042-1.666a7.854 7.854 0 0 1 .084-.826h-1.274a5.666 5.666 0 0 1 .07.84v1.722c-.434.014-.868.028-1.3.028a21.674 21.674 0 0 1 -2.352-.126v1.064c.812.042 1.54.084 2.324.084.448 0 .882-.014 1.33-.028.014 1.148.1 2.478.14 3.542a6.184 6.184 0 0 0 -1.303-.126c-1.82 0-2.856.952-2.856 2.114 0 1.232 1.022 2 2.884 2a2.1 2.1 0 0 0 2.409-2.266v-.252a10.521 10.521 0 0 1 2.086 1.582zm12.558-.812h-1.022v-5.908h-.882v5.908h-.756v.868h5.365v-.868h-1.82v-3.654h1.68v-.864h-1.68v-3.4a15.07 15.07 0 0 0 1.708-.588l-.77-.728a19.281 19.281 0 0 1 -4.4 1.2 3.437 3.437 0 0 1 .308.756c.728-.112 1.5-.252 2.254-.42zm-6.16-8.946h-3.29v.84h3.29zm.364 1.834h-4.299v.854h4.284zm-.336 1.89h-3.374v.826h3.374zm-3.374 2.688h3.374v-.84h-3.374zm2.534 4.228h-1.75v-2.338h1.75zm4-6.3-.168.042h-1.106c.5-1.358 1.008-2.828 1.33-3.892l-.644-.154-.154.056h-2.016v.91h1.638c-.42 1.26-1.05 3.024-1.582 4.368l.868.168.238-.616h1.2a13.484 13.484 0 0 1 -.784 3.5 8.622 8.622 0 0 1 -.686-2.212l-.784.252a9.766 9.766 0 0 0 1.008 2.954 5.251 5.251 0 0 1 -1.516 1.764v-4.032h-3.43v4.69h.826v-.658h2.6l-.084.056a3.618 3.618 0 0 1 .616.784 6.012 6.012 0 0 0 1.572-1.764 4.745 4.745 0 0 0 3.808 1.33h2.758a3.606 3.606 0 0 1 .336-.966c-.49.028-2.674.028-3.038.028a4.011 4.011 0 0 1 -3.4-1.288 15.863 15.863 0 0 0 1.12-5.18zm14.98 6.51v-3.556h4.494v-1.008h-4.494v-3.052h5.012v-1.022h-5.012v-2.684h-1.064v2.688h-2.842a19.217 19.217 0 0 0 .784-2.24l-1.05-.224a12.763 12.763 0 0 1 -2.59 5.152 6.044 6.044 0 0 1 .938.616 11.875 11.875 0 0 0 1.47-2.282h3.29v3.052h-4.158v1.008h4.158v3.552h-5.67v1.008h12.4v-1.008zm12.4-10.64a16.291 16.291 0 0 1 -.35 3.01c-.84.07-1.652.14-2.114.154a12.054 12.054 0 0 1 -1.232 0l.112 1.218c.364-.056.924-.126 1.246-.168.364-.042 1.036-.112 1.75-.182a21.721 21.721 0 0 1 -2.915 6.874l1.147.462a27.817 27.817 0 0 0 2.912-7.45c.6-.056 1.148-.1 1.484-.1.882 0 1.456.224 1.456 1.484a11.916 11.916 0 0 1 -.644 4.246 1.166 1.166 0 0 1 -1.218.714 6.824 6.824 0 0 1 -1.694-.308l.182 1.176a8.291 8.291 0 0 0 1.624.21 1.951 1.951 0 0 0 2.03-1.162 13.324 13.324 0 0 0 .812-5c0-1.876-1.022-2.352-2.254-2.352-.336 0-.91.042-1.554.084.154-.742.28-1.554.35-1.96.056-.266.112-.56.168-.812zm5.04 2.058a16.668 16.668 0 0 1 2.474 5.026l1.092-.518a24.351 24.351 0 0 0 -2.534-4.956zm9.657-.91c1.064.294 4.074.91 5.39 1.092l.266-1.092a37.068 37.068 0 0 1 -5.362-1.064zm-.015 1.456-1.19-.154a49.041 49.041 0 0 1 -.7 5.628l1.05.252a2.9 2.9 0 0 1 .42-.7 5.385 5.385 0 0 1 4.284-1.834c1.414 0 2.436.77 2.436 1.876 0 1.89-2.142 3.15-6.51 2.618l.336 1.148c5.152.434 7.35-1.246 7.35-3.738 0-1.624-1.414-2.9-3.542-2.9a6.563 6.563 0 0 0 -4.48 1.668c.126-.896.361-2.912.546-3.864zm14.406 8.596a2.987 2.987 0 0 0 3.29-2.926 2.639 2.639 0 0 0 -2.184-2.6v-.056a2.558 2.558 0 0 0 1.834-2.478c0-1.652-1.26-2.576-2.982-2.576a4.109 4.109 0 0 0 -2.87 1.232l.686.812a3.2 3.2 0 0 1 2.128-1.022 1.6 1.6 0 0 1 1.736 1.652c0 1.106-.728 1.96-2.842 1.96v.98c2.366 0 3.192.826 3.192 2.058a1.89 1.89 0 0 1 -2.086 1.9 3.393 3.393 0 0 1 -2.548-1.176l-.644.84a4.248 4.248 0 0 0 3.29 1.4zm8.918-3.458a6.955 6.955 0 0 1 -1.12 2.408 4.317 4.317 0 0 1 .672.448 9.106 9.106 0 0 0 1.26-2.674zm4.158-.672v-.812h-4.634v.812h1.89v3.848c0 .126-.028.154-.168.168s-.518.014-1.008 0a2.911 2.911 0 0 1 .294.832 3.3 3.3 0 0 0 1.386-.172c.308-.14.373-.378.373-.828v-3.85zm.378 2.772a8.821 8.821 0 0 0 -1.05-2.086l-.7.266a9.411 9.411 0 0 1 1.022 2.128zm2.03-6.748-.448.35a12.1 12.1 0 0 1 1.288.938h-1.988c-.056-.42-.084-.854-.112-1.288zm1.176 2.716a9.617 9.617 0 0 1 -1.33 2.716 16.12 16.12 0 0 1 -.882-3.3h3.808v-.84h-1.036l.14-.14a9.133 9.133 0 0 0 -1.551-1.152h2.52v-.868h-5.435v-1.148h4.1v-.784h-4.1v-.98h-1.022v2.912h-2.548v-2.282h-.98v2.282h-2.24v.868h7.182c.014.434.056.868.112 1.288h-6.51v2.336a8.206 8.206 0 0 1 -1.179 4.79 4.748 4.748 0 0 1 .784.616 9.451 9.451 0 0 0 1.358-5.39v-1.516h5.658a17.914 17.914 0 0 0 1.176 4.144 10.12 10.12 0 0 1 -2.533 2.02 4.877 4.877 0 0 1 .7.728 10.388 10.388 0 0 0 2.282-1.862c.658 1.176 1.428 1.89 2.17 1.89.84 0 1.19-.56 1.344-2.506a2.465 2.465 0 0 1 -.784-.448c-.055 1.414-.196 2.016-.49 2.016-.476 0-1.064-.63-1.61-1.708a11.474 11.474 0 0 0 1.834-3.486zm6.16-5.39a8.292 8.292 0 0 1 -.1.98 38.508 38.508 0 0 0 -.611 5.558 17.364 17.364 0 0 0 .5 4.452l1.008-.07-.042-.49a3.46 3.46 0 0 1 .07-.616 30.1 30.1 0 0 1 .98-3.108l-.6-.448c-.224.546-.532 1.358-.77 1.988a14.476 14.476 0 0 1 -.112-1.9 31.9 31.9 0 0 1 .666-5.31c.056-.252.182-.7.266-.938zm3.416 6.72a8.035 8.035 0 0 0 -.227 1.638c0 1.3 1.036 2.072 3.36 2.072a18.424 18.424 0 0 0 3.458-.28l-.014-1.176a15.071 15.071 0 0 1 -3.43.364c-1.9 0-2.324-.616-2.324-1.246a5.148 5.148 0 0 1 .182-1.274zm.476-4.41a35.022 35.022 0 0 0 5.684 0v-1.148a24.235 24.235 0 0 1 -5.7 0zm21.714.952a20.968 20.968 0 0 0 -3.248-1.848l-.546.868a16.652 16.652 0 0 1 3.164 1.9zm-5.04-2.1a14.178 14.178 0 0 1 -2.156.5c.224-.8.406-1.638.546-2.142l-1.246-.112a11.363 11.363 0 0 1 -.434 2.394c-.532.042-1.05.07-1.54.07a13.059 13.059 0 0 1 -1.708-.1l.084 1.05c.518.028 1.092.042 1.61.042q.609 0 1.218-.042a19.887 19.887 0 0 1 -2.968 5.18l1.092.56a24.912 24.912 0 0 0 3.025-5.864 16.494 16.494 0 0 0 2.506-.5zm.728 7.742c0 .686-.378 1.316-1.512 1.316-1.078 0-1.6-.434-1.6-1.078s.672-1.092 1.694-1.092a5.049 5.049 0 0 1 1.4.2c.018.248.018.472.018.654zm-.2-5.1c.028.966.1 2.324.14 3.458a6.561 6.561 0 0 0 -1.316-.126c-1.568 0-2.772.826-2.772 2.1 0 1.372 1.246 2 2.772 2 1.708 0 2.436-.91 2.436-2.016 0-.154 0-.35-.014-.56a9.645 9.645 0 0 1 2.23 1.588l.6-.952a9.357 9.357 0 0 0 -2.87-1.736c-.028-.84-.084-1.75-.1-2.254a13.485 13.485 0 0 1 .014-1.5zm13.626 6.332c-1.036 0-1.831-.392-1.831-1.078 0-.476.476-.854 1.106-.854a1.851 1.851 0 0 1 1.831 1.848 6.829 6.829 0 0 1 -1.106.084zm2.856-10.066a4.964 4.964 0 0 1 -.756.112c-.728.07-4.018.168-4.732.168a7.872 7.872 0 0 1 -.98-.042l.028 1.162a6.675 6.675 0 0 1 .938-.084c.714-.042 3.444-.168 4.172-.2-.686.616-2.408 2.072-3.178 2.716-.812.672-2.59 2.156-3.738 3.108l.812.826c1.764-1.792 3.024-2.758 5.306-2.758 1.75 0 3.122.994 3.122 2.352a2.418 2.418 0 0 1 -1.722 2.356 2.737 2.737 0 0 0 -2.859-2.45 1.97 1.97 0 0 0 -2.142 1.82c0 1.148 1.162 1.988 3.052 1.988 2.929 0 4.79-1.456 4.79-3.696 0-1.876-1.666-3.276-3.976-3.276a5.891 5.891 0 0 0 -1.876.294c1.064-.9 2.926-2.534 3.612-3.052.21-.154.518-.364.77-.532zm12.292 8.9c0 .952-.672 1.19-1.47 1.19-1.372 0-1.918-.476-1.918-1.12s.714-1.134 2.03-1.134a7.058 7.058 0 0 1 1.344.126c0 .382.014.704.014.942zm5.054.476a11.381 11.381 0 0 0 -4.033-2.148c-.028-.658-.07-1.386-.1-2.1 1.316-.056 2.548-.154 3.85-.322l-.014-1.05a37.4 37.4 0 0 1 -3.85.364v-1.992c1.3-.07 2.492-.182 3.584-.294l-.014-1.022a30.828 30.828 0 0 1 -3.556.336c0-.336 0-.6.014-.77a7.135 7.135 0 0 1 .07-.924h-1.184a7.76 7.76 0 0 1 .042.826v.91h-.714a22.1 22.1 0 0 1 -3.251-.262v1.036c.826.1 2.3.21 3.262.21h.686v1.984h-.742a24.665 24.665 0 0 1 -3.483-.266v1.064c.994.112 2.534.2 3.486.2h.77c.014.574.042 1.232.07 1.848a7.827 7.827 0 0 0 -1.162-.084c-2 0-3.22.854-3.22 2.114-.003 1.34 1.103 2.054 3.091 2.054 1.806 0 2.45-.994 2.45-1.946 0-.21-.014-.518-.028-.868a10.3 10.3 0 0 1 3.343 2.086zm13.3-6.118-.714.308a13 13 0 0 1 1.148 1.974l.714-.336a16.617 16.617 0 0 0 -1.148-1.942zm1.526-.588-.7.322a12.469 12.469 0 0 1 1.19 1.946l.728-.336a21.147 21.147 0 0 0 -1.218-1.928zm-10.612-1.354.126 1.232c1.5-.308 5.278-.672 6.5-.812a5.6 5.6 0 0 0 -2.576 4.676c0 3.094 2.926 4.466 5.488 4.578l.406-1.176c-2.254-.084-4.774-.938-4.774-3.64a4.848 4.848 0 0 1 3.164-4.382 11.488 11.488 0 0 1 2.716-.224v-1.12c-.924.042-2.226.112-3.738.238-2.548.224-5.166.476-6.076.56-.27.028-.704.056-1.236.07z" transform="translate(130 268.211)"/><g fill="#1778b1"><path d="m-28.455-58.271h-11.733l5.625-9.58h16.348v67.851h-10.24zm29.576 23.906q0-16.216 7.559-25.884 6.768-8.745 16.392-8.745t16.392 8.745q7.559 9.668 7.559 26.323 0 16.611-7.559 26.279-6.769 8.747-16.349 8.747t-16.436-8.746q-7.558-9.668-7.558-26.719zm10.063.044q0 11.294 3.911 18.765 3.911 7.339 9.976 7.339 6.021 0 9.976-7.339 3.953-7.296 3.953-18.414t-3.954-18.457q-3.955-7.295-9.976-7.295-5.977 0-9.932 7.295-3.954 7.251-3.954 18.106z" transform="translate(165 225.211)"/><path d="m10.514-9.562h-7v-.966h7zm0 1.68h-7v-.98h7zm1.022-3.388h-9v4.13h9zm-.136 7.476a6.641 6.641 0 0 1 -1.516 2.058 6.623 6.623 0 0 1 -1.372-2.058zm-8.376 1.794h2.534v.854c-.868.1-1.736.182-2.534.266zm0-1.764h2.534v.98h-2.534zm2.534-1.724v.938h-2.534v-.938zm6.482.84-.182.028h-4.816v.826h1.2l-.6.182a8.066 8.066 0 0 0 1.54 2.464 8.485 8.485 0 0 1 -2.63 1.33v-5.67h6.548v-.868h-12.232v.868h1.2v4.7c-.49.056-.938.1-1.33.126l.1.924c1.3-.154 3.01-.35 4.718-.56v1.362h.994v-.864a3.418 3.418 0 0 1 .55.78 9.69 9.69 0 0 0 2.784-1.47 8.022 8.022 0 0 0 2.926 1.54 3.431 3.431 0 0 1 .63-.812 7.568 7.568 0 0 1 -2.828-1.344 8 8 0 0 0 2.058-3.294zm9.142 1.2c-.168-.2-.616-.658-1.064-1.12.378-.392.826-.938 1.26-1.428l-.686-.56a12.172 12.172 0 0 1 -1.05 1.5l-.518-.518a15.008 15.008 0 0 0 1.806-3.232l-.588-.406-.182.056h-1.19v-2.544h-1.022v2.548h-2.016v.952h3.71a13.95 13.95 0 0 1 -4.1 4.914 4.1 4.1 0 0 1 .574.9 13.783 13.783 0 0 0 1.834-1.722v5.18h1.02v-5.67c.56.644 1.274 1.512 1.582 1.946zm7.042-6.986h-7.308v.98h2.366c-.07 3.654-.294 7.7-3.388 9.744a3.859 3.859 0 0 1 .8.784c3.206-2.264 3.54-6.574 3.652-10.524h2.828c-.14 6.314-.322 8.638-.742 9.128a.554.554 0 0 1 -.546.238c-.308 0-1.064 0-1.89-.07a2.618 2.618 0 0 1 .336 1.064 15.506 15.506 0 0 0 1.988 0 1.3 1.3 0 0 0 1.064-.616c.532-.7.672-3.052.84-10.15zm14.728 5.534a5.073 5.073 0 0 0 -5.362-5.152 5.967 5.967 0 0 0 -6.118 5.7c0 2.31 1.246 3.738 2.492 3.738 1.3 0 2.408-1.47 3.262-4.354a27.54 27.54 0 0 0 .84-4.032 3.9 3.9 0 0 1 3.734 4.058 4.228 4.228 0 0 1 -3.552 4.158 10.575 10.575 0 0 1 -1.2.182l.652 1.036c3.32-.434 5.252-2.394 5.252-5.334zm-10.388.448a4.883 4.883 0 0 1 4.336-4.536 22.874 22.874 0 0 1 -.784 3.78c-.714 2.366-1.456 3.3-2.114 3.3-.626.008-1.438-.78-1.438-2.544z" transform="translate(128 139.211)"/><path d="m3.57-1.022v-3.906h6.944v3.906zm6.944-8.708v3.78h-6.944v-3.78zm-7.994-1.022v11.662h1.05v-.91h6.944v.854h1.092v-11.606zm23.058 5.8h-5.838v-1.418h5.838zm-5.838 2.362v-1.47h5.838v1.47zm8.5-6.342v-.98h-7.128c.21-.5.378-1.036.546-1.554l-1.036-.252a18.33 18.33 0 0 1 -.616 1.806h-3.948v.98h3.514a11.7 11.7 0 0 1 -3.85 4.662 5.08 5.08 0 0 1 .672.8 11.545 11.545 0 0 0 2.324-2.2v6.734h1.022v-2.758h5.838v1.456c0 .21-.084.28-.322.294s-1.092.014-2.016-.028a3.976 3.976 0 0 1 .336 1.022 8.584 8.584 0 0 0 2.436-.182c.448-.168.588-.476.588-1.106v-7.07h-6.748c.308-.518.588-1.078.854-1.624zm3.316 5.152a10.061 10.061 0 0 1 -.91 3.332 3.637 3.637 0 0 1 .812.392 12.321 12.321 0 0 0 .994-3.556zm2.884.154a13.728 13.728 0 0 1 .854 2.562l.8-.266a12.979 12.979 0 0 0 -.9-2.548zm-.364-3.274a10.674 10.674 0 0 1 .658 1.26l-2.072.084a48.035 48.035 0 0 0 2.786-4.174l-.882-.392a28.514 28.514 0 0 1 -1.414 2.506 11.243 11.243 0 0 0 -.812-.91c.518-.784 1.106-1.89 1.582-2.814l-.91-.364a17.7 17.7 0 0 1 -1.26 2.6c-.14-.126-.266-.252-.406-.364l-.532.686a13.04 13.04 0 0 1 1.806 1.982c-.308.462-.63.91-.924 1.288l-.924.042.084.924c.644-.042 1.4-.084 2.2-.126v5.764h.924v-5.824l1.106-.07a6.514 6.514 0 0 1 .252.812l.784-.35a11.085 11.085 0 0 0 -1.322-2.86zm7.63 3.332v2.9h-4.018v-2.9zm-4.97 4.62h.952v-.8h4.018v.742h.994v-5.5h-5.964zm.588-8.19v.966h4.634v-.968zm1.652-4.438a14.025 14.025 0 0 1 -3.738 4.536 3.841 3.841 0 0 1 .616.882 15.9 15.9 0 0 0 3.682-4.354 19.811 19.811 0 0 0 3.752 4.27 7.561 7.561 0 0 1 .644-.952 16.959 16.959 0 0 1 -3.932-4.384z" transform="translate(218 224.211)"/><g clip-path="url(#a)" transform="translate(-954.621 -2859.508)"><path d="m203.6 198.929a13.568 13.568 0 1 1 5.256-18.454 13.567 13.567 0 0 1 -5.256 18.454z" transform="translate(780.716 2754.167)"/><path d="m237.247 176.826a10.948 10.948 0 1 1 4.178-14.907 10.948 10.948 0 0 1 -4.178 14.907z" transform="translate(795.453 2747.421)"/><path d="m234.1 232.444c-.26-3.46 5.481-32.786 5.481-32.786s-1.226-4.324-3.761-12.088c-.586-1.8-1.015-3.227-1.291-4.424l-4.71-.73a3.258 3.258 0 0 1 -.456-.077l-11.919-2.006a3.8 3.8 0 0 1 .741-7.5s19.765-.34 19.918-.326c0 0 7.671-1.167 12.566 4.6 3.48 4.1 11.794 19.242 8.135 37.3l-.774 19.293a4.5 4.5 0 0 1 -9 .148l-1.607-12.959-4.523 13.149a4.494 4.494 0 0 1 -8.8-1.594z" transform="translate(792.929 2753.737)"/><path d="m249.3 181.056a5.278 5.278 0 0 0 -7.27-1.709l-22.523 12.624a6.549 6.549 0 0 0 -1.249.592l-17.872 9.912c-5.856 3.24-9.588 7.777-5.908 16.728 1.85 4.471 7.569 17.571 12.063 29.726 2.266 6.07 4.239 11.885 5.573 16.178a51.7 51.7 0 0 1 1.549 6.293c.755 3.836 1.305 7.955 1.768 12.112s.826 8.406 1.142 12.669c.837 11.376 1.354 12.727 1.878 24.3a6.885 6.885 0 0 0 13.767 0c.515-11.592 1.042-13.018 1.237-24.778.088-5.664.1-11.357-.1-17.161-.065-5.024-.641-9.905-.656-9.915s-.067-.818-.24-2.307c-.089-.748-.2-1.662-.373-2.741-.084-.542-.181-1.124-.3-1.751l-.4-1.938c-1.007-4.769-2.541-11.16-4.366-17.766-3.152-11.55-6.77-23.414-9.047-29.437l29.618-24.364a5.275 5.275 0 0 0 1.709-7.267z" transform="translate(784.483 2756.152)"/></g></g></svg>