<svg height="217.404" viewBox="0 0 217.701 217.404" width="217.701" xmlns="http://www.w3.org/2000/svg"><path d="m-71.4-7.546h2.464v.98h-2.464zm0-2.254h2.464v.966h-2.464zm6.65.966h-2.506v-.966h2.506zm0 2.268h-2.506v-.98h2.506zm-2.87 2.338c.056-.322.112-.63.154-.966h4.466v-5.978h-10.066v5.978h3.85c-.042.336-.1.658-.154.966h-4.63v1.5h4.088c-.658 1.12-1.96 1.946-4.69 2.478a4.468 4.468 0 0 1 .864 1.45c3.528-.77 5.012-2.128 5.712-3.934h3.682c-.154 1.386-.364 2.086-.616 2.3a.92.92 0 0 1 -.616.14c-.378 0-1.26-.014-2.128-.084a3.3 3.3 0 0 1 .546 1.526c.882.014 1.736.028 2.226-.014a1.958 1.958 0 0 0 1.386-.546c.448-.448.728-1.6.952-4.144.028-.224.056-.672.056-.672zm17.864 3.416v-2.8h2.562v-1.554h-2.562v-2.3h2.856v-1.564h-2.856v-2.744h-1.666v2.744h-1.12c.14-.63.252-1.288.35-1.946l-1.624-.224a16.944 16.944 0 0 1 -.742 3.416 16.052 16.052 0 0 0 -.77-1.764l-.812.336v-2.646h-1.666v2.858l-1.176-.168a16.639 16.639 0 0 1 -.686 3.64l1.232.448a17.841 17.841 0 0 0 .63-3.71v10.008h1.666v-9.562a9.735 9.735 0 0 1 .532 1.61l.8-.364c-.14.294-.28.56-.42.812a14.721 14.721 0 0 1 1.484.756 9.564 9.564 0 0 0 .784-1.932h1.54v2.3h-2.7v1.554h2.7v2.8h-3.74v1.578h8.708v-1.582zm8.778-1.708c-.518 0-1.078-.686-1.078-2.086a4.347 4.347 0 0 1 3.514-4.018 22.254 22.254 0 0 1 -.742 3.36c-.56 1.876-1.116 2.744-1.694 2.744zm3.808 3.094c3.5-.532 5.292-2.6 5.292-5.516a5.291 5.291 0 0 0 -5.6-5.418 6.183 6.183 0 0 0 -6.384 5.936c0 2.338 1.3 4.032 2.828 4.032s2.716-1.708 3.542-4.508a30.129 30.129 0 0 0 .826-3.766 3.432 3.432 0 0 1 2.898 3.666 3.753 3.753 0 0 1 -3.15 3.71c-.364.084-.756.154-1.288.224zm11.844-2.716v-.672h5.306v.672zm5.306-2.478v.672h-5.306v-.672zm1.694-1.344h-8.666v7.182h1.666v-2.212h5.306v.644c0 .2-.07.266-.322.266-.21.014-1.106.014-1.778-.028a6.608 6.608 0 0 1 .49 1.33 8.741 8.741 0 0 0 2.534-.21c.574-.21.77-.56.77-1.344zm-2.212-3.248-.672.406c.294.21.6.448.91.7-1.47.028-2.926.042-4.284.07.322-.378.658-.784.966-1.176zm4.046 0v-1.456h-5.348v-1.19h-1.708v1.19h-5.352v1.456h3.178c-.224.392-.476.812-.742 1.19l-1.946.028.042 1.5c2.45-.056 6.1-.154 9.59-.28a9.331 9.331 0 0 1 .84.9l1.47-.938a18.614 18.614 0 0 0 -2.8-2.394zm6.1 5.5c-.208 1.766-.608 2.912-3.762 3.53a4.981 4.981 0 0 1 .938 1.5c3.668-.898 4.354-2.564 4.634-5.028zm3.682-.028v2.87c0 1.512.392 2.03 2 2.03h1.71c1.33 0 1.764-.56 1.946-2.758a5.069 5.069 0 0 1 -1.54-.658c-.056 1.61-.126 1.848-.574 1.848h-1.284c-.476.002-.548-.068-.548-.492v-2.838zm-5.936-7.728v7.6h1.624v-7.6zm3.262.182v7.2h7.042v-7.2zm1.61 1.428h3.738v1.5h-3.734zm0 2.814h3.738v1.526h-3.734zm21.7.2v-1.626h-3.65v-3.164h-1.652v3.164h-3.556v1.624h2.9a13.283 13.283 0 0 1 -3.46 5.068v-6.522a22.09 22.09 0 0 0 1.442-2.956l-1.65-.532a14.363 14.363 0 0 1 -3.544 5.376 12.088 12.088 0 0 1 .966 1.75 12.69 12.69 0 0 0 1.148-1.26v7.112h1.638v-2.8a9.233 9.233 0 0 1 1.134 1.232 14.226 14.226 0 0 0 2.982-4.242v5.838h1.652v-6.118a14.311 14.311 0 0 0 2.824 4.452 5.934 5.934 0 0 1 1.246-1.33 13.694 13.694 0 0 1 -3.346-5.068zm10.474-1.374c-.154.378-.322.784-.49 1.12h-2.616l.238-.042a6.9 6.9 0 0 0 -.476-1.078zm4.522 6.244v-1.372h-5.444v-.616h4.2v-1.2h-4.2v-.638h4.858v-1.3h-2.744c.21-.336.434-.714.658-1.12h2.632v-1.356h-1.82c.322-.49.7-1.12 1.092-1.764l-1.75-.42a11.278 11.278 0 0 1 -.882 2.03l.5.154h-1.242v-2.282h-1.568v2.282h-1.036v-2.282h-1.554v2.282h-1.274l.686-.252a10.594 10.594 0 0 0 -1.064-1.972l-1.428.49a12.549 12.549 0 0 1 .868 1.736h-1.876v1.358h2.926l-.168.028a6.291 6.291 0 0 1 .476 1.088h-2.66v1.3h4.732v.63h-4.032v1.2h4.032v.616h-5.348v1.372h4.018a14.708 14.708 0 0 1 -4.424 1.646 7.765 7.765 0 0 1 1.064 1.386 13.28 13.28 0 0 0 4.69-2.268v2.436h1.638v-2.518a11.95 11.95 0 0 0 4.7 2.366 7.831 7.831 0 0 1 1.122-1.514 12.507 12.507 0 0 1 -4.438-1.526zm12.84-.686a5.329 5.329 0 0 1 -1.022.9 5.319 5.319 0 0 1 -.434-.9zm-5.862-1.218v-.728c.7-.1 1.358-.21 1.932-.336l-.91-.938h4.144l-.868.91a9.163 9.163 0 0 1 2.044 1.092h-2.31a10.584 10.584 0 0 1 -.242-1.822h-1.6a14.7 14.7 0 0 0 .224 1.82zm6.114 1.218h2.1v-1.218h-1.372l.742-.826a9.9 9.9 0 0 0 -2.212-1.176h2.772v-1.26h-5.418v-.518h4.06v-1.148h-4.06v-.5h4.8v-1.232h-2.42c.224-.28.476-.63.728-.994l-1.848-.35a8.088 8.088 0 0 1 -.616 1.344h-2.814a4.535 4.535 0 0 0 -.854-1.3l-1.456.462a5.7 5.7 0 0 1 .532.84h-2.478v1.226h4.718v.5h-3.976v1.148h3.976v.518h-5.348v1.26h5.138a34.671 34.671 0 0 1 -4.928.574 4.685 4.685 0 0 1 .35.994c.686-.014 1.442-.056 2.184-.126v.56h-2.772v1.222h2.772v.616c-1.064.056-2.044.1-2.814.126l.126 1.274c.784-.056 1.708-.112 2.688-.2v.56c0 .182-.07.238-.28.238a15.344 15.344 0 0 1 -1.582-.014 5.4 5.4 0 0 1 .476 1.274 7.263 7.263 0 0 0 2.3-.21c.518-.182.672-.5.672-1.246v-.71l2.086-.168.014-1.12-2.1.112v-.532h2.73a7.84 7.84 0 0 0 .7 1.666 15.321 15.321 0 0 1 -2.814.882 7.779 7.779 0 0 1 .808 1.312 15.83 15.83 0 0 0 2.842-1.074 3.288 3.288 0 0 0 2.394 1.074c1.106 0 1.568-.336 1.792-1.9a3.416 3.416 0 0 1 -1.218-.644c-.07.784-.154 1.036-.49 1.036a1.681 1.681 0 0 1 -1.05-.406 7.438 7.438 0 0 0 1.638-1.526zm13.958-1.4c.056-.406.1-.826.14-1.246h-1.666a11.687 11.687 0 0 1 -.14 1.246h-2.044v1.386h1.694a4.488 4.488 0 0 1 -2.926 2.604 4.709 4.709 0 0 1 .97 1.288 5.593 5.593 0 0 0 3.682-3.892h1.618a4.262 4.262 0 0 1 -.53 2.086.57.57 0 0 1 -.448.154 11.857 11.857 0 0 1 -1.2-.07 3.613 3.613 0 0 1 .448 1.54 10.7 10.7 0 0 0 1.568-.028 1.539 1.539 0 0 0 1.022-.49c.406-.448.658-1.526.882-3.948.028-.2.056-.63.056-.63zm.616-5.012a4.254 4.254 0 0 1 -.924 1.19 5.49 5.49 0 0 1 -1.164-1.19zm2.66 0v-1.386h-4.13a9.385 9.385 0 0 0 .518-.98l-1.554-.42a8.346 8.346 0 0 1 -2.674 3.332 12.225 12.225 0 0 1 1.358.938 8.336 8.336 0 0 0 .63-.6 7.916 7.916 0 0 0 .994 1.162 8.482 8.482 0 0 1 -1.708.644l.056-.322-1.008-.338-.224.07h-.672l.686-.714a7.835 7.835 0 0 0 -1.02-.614 10.45 10.45 0 0 0 2.044-2.31l-1.064-.672-.252.056h-4.528v1.4h3.36a8.743 8.743 0 0 1 -.882.882c-.378-.168-.77-.322-1.106-.448l-1.046 1.062a20.309 20.309 0 0 1 2.7 1.358h-3.204v1.456h1.75a8.8 8.8 0 0 1 -1.988 2.884 9.329 9.329 0 0 1 .756 1.61 8.482 8.482 0 0 0 1.75-2.59v3c0 .168-.056.2-.224.21s-.742 0-1.26-.014a5.546 5.546 0 0 1 .476 1.582 4.129 4.129 0 0 0 1.974-.298c.49-.252.6-.7.6-1.456v-4.928h.744a18.247 18.247 0 0 1 -.448 1.932l1.12.518a16.343 16.343 0 0 0 .686-2.334 5.3 5.3 0 0 1 .392.588 11.206 11.206 0 0 0 2.856-1.176 10.084 10.084 0 0 0 2.856 1.2 6.394 6.394 0 0 1 1.05-1.412 10.894 10.894 0 0 1 -2.576-.826 6.877 6.877 0 0 0 1.4-2.044zm5.782-2.6a14.467 14.467 0 0 1 -3.822 5.442 12.214 12.214 0 0 1 .966 1.764 15.861 15.861 0 0 0 1.386-1.484v7.14h1.666v-9.49a22.548 22.548 0 0 0 1.456-2.828zm5.152 11.172c-.672 0-.77-.14-.77-.966v-3.534a33.913 33.913 0 0 0 4.76-2.7l-1.232-1.456a23.812 23.812 0 0 1 -3.528 2.45v-4.788h-1.68v10.01c0 1.974.5 2.534 2.268 2.534h2.394c1.652 0 2.086-.882 2.282-3.29a4.806 4.806 0 0 1 -1.54-.714c-.112 1.974-.224 2.454-.896 2.454z" transform="translate(109.799 11.886)"/><g fill="#064a6f"><path d="m19.556-58.271h-20.918l-3.338 11.25q.747-.088 1.428-.132t1.252-.044a21.351 21.351 0 0 1 16.216 6.68q6.372 6.636 6.372 17.007 0 10.723-7.207 17.666t-18.151 6.944q-13.491 0-21.27-12.656l7.734-6.548q3.208 5.449 6.46 7.69a13.878 13.878 0 0 0 7.954 2.2 13.809 13.809 0 0 0 10.328-4.31 15.142 15.142 0 0 0 4.175-10.767 14.394 14.394 0 0 0 -4.131-10.635 13.788 13.788 0 0 0 -10.327-4.262q-6.9 0-11.909 6.021h-3.384l10.679-35.685h28.037z" transform="translate(164.799 215.24)"/><path d="m3.57-1.022v-3.906h6.944v3.906zm6.944-8.708v3.78h-6.944v-3.78zm-7.994-1.022v11.662h1.05v-.91h6.944v.854h1.092v-11.606zm17.962.448v1.162h-3.024v-1.158zm-3.024 3.164v-1.232h3.024v1.232zm4.018.8v-4.774h-5.054v12.192h1.036v-7.42zm2.254 1.86v1.288h-3.29v-1.288zm-3.29 3.43v-1.358h3.29v1.358zm4.26.826v-5.068h-5.2v5.768h.938v-.7zm-.98-6.9v-1.248h3.136v1.246zm3.132-3.176v1.162h-3.136v-1.162zm1.05-.812h-5.18v4.788h4.13v6.002c0 .252-.084.336-.322.336s-1.106.028-1.96-.014a3.834 3.834 0 0 1 .364 1.064 7.969 7.969 0 0 0 2.352-.182c.462-.182.614-.532.614-1.19z" transform="translate(189.799 214.24)"/><path d="m680.164 165.574a11.326 11.326 0 1 1 -11.326-11.326 11.326 11.326 0 0 1 11.326 11.326z" transform="translate(-580.576 -89.362)"/><path d="m632.022 232.541a9.786 9.786 0 1 1 -9.785-9.788 9.785 9.785 0 0 1 9.785 9.788z" transform="translate(-587.912 -78.209)"/><path d="m612.331 281.259a5.766 5.766 0 1 1 -5.766-5.766 5.767 5.767 0 0 1 5.766 5.766z" transform="translate(-589.81 -69.623)"/><path d="m629.931 281.259a5.766 5.766 0 1 1 -5.767-5.766 5.767 5.767 0 0 1 5.767 5.766z" transform="translate(-586.944 -69.623)"/><path d="m620.721 281.141h-19.175l3.24-5.83h15.935c2.364 0 6.783-2.073 8.579-7.637 1.209-3.752 10.376-37.9 10.47-38.253l.576-2.164h16.164l-1.759 5.829h-9.925s-8.89 33-9.979 36.377c-2.474 7.664-8.979 11.678-14.126 11.678z" transform="translate(-589.688 -77.476)"/><path d="m623.184 241.406c-4.635.77-20.265 4.764-20.265 4.764a3.038 3.038 0 1 0 1.314 5.933l10.023-1.172-1.943 7.449h-7.613c-3.392 0-5.7 1.188-6.974 4l-6.042 13.5a3.986 3.986 0 0 0 2.043 5.258 4.058 4.058 0 0 0 5.262-2.046l5.226-9.216h15.385c3.076 0 6.8-1.783 7.771-5.343s4.127-16.091 4.127-16.091c1.528-5.561-2.917-7.934-8.314-7.036z" transform="translate(-591.348 -75.202)"/><path d="m695.491 241.2 7.381 54.79a5.788 5.788 0 0 1 -4.583 6.711c-3.12.588-5.742-1.513-6.713-4.58l-12.843-47.327-15.293 47.42a5.747 5.747 0 0 1 -11.257-2.326l12.993-70.938-3.551-15.656-10.179 20.339a4.408 4.408 0 0 1 -8.049-3.6l8.354-21.155 6.269-15.868c7.187-17.378 25.961-9.6 27.366-.9l6.908 35.048c1.278 5.631 2.685 13.688 3.197 18.042z" transform="translate(-582.937 -85.394)"/></g></svg>