<svg xmlns="http://www.w3.org/2000/svg" width="450" height="447" viewBox="0 0 450 447">
  <g id="グループ_969" data-name="グループ 969" transform="translate(-214 -6224)">
    <path id="パス_189" data-name="パス 189" d="M0,0H450V447H0Z" transform="translate(214 6224)" fill="#f7f7f7"/>
    <g id="グループ_968" data-name="グループ 968">
      <path id="パス_12534" data-name="パス 12534" d="M3.92-2.03V-3.108h6.23V-2.03Zm6.23-2.926v1.078H3.92V-4.956Zm1.05-.868H2.884V1.064H3.92v-2.31h6.23v1.2c0,.2-.07.252-.28.266-.238,0-1.05,0-1.862-.014a4.008,4.008,0,0,1,.336.854A9.024,9.024,0,0,0,10.626.91c.434-.126.574-.392.574-.952Zm-1.778-3.6L8.638-8.9c.49.322,1.022.714,1.526,1.106-1.96.042-3.934.084-5.656.112.462-.546.952-1.162,1.372-1.736Zm3.7-.924H7.5v-1.372H6.454v1.372H.9v.924H4.55a17.379,17.379,0,0,1-1.176,1.75l-1.932.028.042.966c2.45-.042,6.174-.14,9.688-.28a10.149,10.149,0,0,1,.952.938l.868-.616A20.533,20.533,0,0,0,9.464-9.422h3.654ZM19.6-3.626c-.252,1.974-.924,3.206-3.934,3.85a3.265,3.265,0,0,1,.616.91c3.29-.8,4.116-2.324,4.424-4.76Zm3.668,0V-.434c0,1.12.336,1.442,1.61,1.442h2.086c1.12,0,1.428-.5,1.554-2.576a3.161,3.161,0,0,1-.966-.42C27.5-.238,27.4.028,26.866.028H24.99c-.56,0-.658-.07-.658-.462V-3.626Zm-6.1-7.7v7.5h1.008v-7.5Zm3.15.238v7.07h6.9v-7.07Zm.994.924h4.858v2.17H21.308Zm0,3.024h4.858v2.2H21.308ZM34.37-11.62a14.387,14.387,0,0,1-3.794,5.614,5.958,5.958,0,0,1,.63,1.05A14.2,14.2,0,0,0,32.858-6.8V1.05H33.88V-8.3a20.8,20.8,0,0,0,1.526-3Zm9.17,4.466V-8.162H39.494v-3.36H38.472v3.36H34.538v1.008h3.388a14.222,14.222,0,0,1-3.878,5.726,6.04,6.04,0,0,1,.784.8,15.632,15.632,0,0,0,3.64-5.39v7.1h1.022V-6.314A17,17,0,0,0,43.12-.686a3.729,3.729,0,0,1,.784-.84A14.772,14.772,0,0,1,40.1-7.154Zm10.906-1.19a12.8,12.8,0,0,1-.714,1.456l.14.042h-3.29l.448-.1a5.44,5.44,0,0,0-.7-1.4Zm4.018,6.09v-.882H52.85V-4.172h4.382v-.8H52.85V-5.992h5.068v-.854H54.74c.28-.42.588-.966.868-1.5h2.8v-.9h-2.17a19.576,19.576,0,0,0,1.232-2.016l-1.064-.28a15.883,15.883,0,0,1-1.064,2.128l.518.168H54.166v-2.478h-.98V-9.24H51.52v-2.478h-.966V-9.24H48.832l.714-.266a9.65,9.65,0,0,0-1.19-2.058l-.882.294A10.913,10.913,0,0,1,48.58-9.24H46.354v.9H49.77l-.49.1a5.878,5.878,0,0,1,.686,1.4H46.914v.854h4.914V-4.97H47.614v.8h4.214v1.036H46.3v.882h4.578A13.493,13.493,0,0,1,45.934-.042a4.458,4.458,0,0,1,.672.882,14.069,14.069,0,0,0,5.222-2.758V1.064H52.85V-1.988A13.217,13.217,0,0,0,58.114.882a3.743,3.743,0,0,1,.7-.924,12.809,12.809,0,0,1-5-2.212Zm7.084-6.5h2.828V-9.7H65.548v-1.96h-.994V-9.7H63.07c.154-.476.294-.994.42-1.484l-.98-.2A11.034,11.034,0,0,1,61.11-7.7a6.107,6.107,0,0,1,.924.392,10.7,10.7,0,0,0,.7-1.442h1.82v1.47h-3.4v.952h3.4v1.4H61.8V-.07h.952V-3.976h1.806V1.05h.994V-3.976H67.48V-1.12c0,.14-.042.182-.2.182s-.6.014-1.2,0a3.179,3.179,0,0,1,.308.91A4.325,4.325,0,0,0,68.012-.2c.35-.168.42-.434.42-.91V-4.928H65.548v-1.4h3.374V-7.28H65.548Zm5.362-1.694h-.98v7.7h.98Zm1.5-1.12V-.35c0,.238-.07.294-.294.308s-1.022,0-1.848-.028A6.046,6.046,0,0,1,70.6,1.022a6.887,6.887,0,0,0,2.24-.21c.42-.182.574-.49.574-1.176v-11.2ZM88.76-9.38v-.952H83.538V-11.7H82.474v1.372H77.336v4c0,2.016-.1,4.844-1.246,6.832a4.025,4.025,0,0,1,.854.588c1.2-2.114,1.372-5.264,1.372-7.42V-9.38ZM85.4-6.958v1.47H82.012v-1.47Zm1.008,2.31v-2.31h2.254v-.854H86.408V-9.03H85.4v1.218H82.012V-9.03h-.994v1.218H78.792v.854h2.226v2.31Zm-.224,1.736a6.434,6.434,0,0,1-2.366,1.778A6.271,6.271,0,0,1,81.55-2.912Zm.868-.9-.182.042H78.96v.854h2.156l-.56.21a7.044,7.044,0,0,0,2.2,2,18.991,18.991,0,0,1-4.312.9,3.6,3.6,0,0,1,.434.868A18.962,18.962,0,0,0,83.8-.14,15.97,15.97,0,0,0,88.41,1.092a3.086,3.086,0,0,1,.6-.882A17.8,17.8,0,0,1,84.9-.672,6.915,6.915,0,0,0,87.71-3.458Z" transform="translate(518 6459)"/>
      <g id="グループ_181" data-name="グループ 181" transform="translate(-21 454)">
        <path id="パス_12359" data-name="パス 12359" d="M-4.482-31.509v-8.745q6.5,0,8.745-1.45,4-2.549,4-8.174a9.265,9.265,0,0,0-2.9-7.075,10.222,10.222,0,0,0-7.427-2.769,9.609,9.609,0,0,0-6.592,2.065Q-10.9-55.547-12-50.537h-10.2q1.582-9.58,6.5-14.041t13.755-4.46q8.921,0,14.546,5.273a17.588,17.588,0,0,1,5.625,13.491,16.718,16.718,0,0,1-7.383,14.5q8.438,4.966,8.438,16.128A19.616,19.616,0,0,1,13.14-4.7Q6.987,1.1-2.637,1.1-14.9,1.1-20.83-7.91q-2.461-3.779-3.12-10.459h9.888a12.023,12.023,0,0,0,3.845,7.537A11.836,11.836,0,0,0-2.241-8.218a11.06,11.06,0,0,0,8.218-3.3,11.866,11.866,0,0,0,3.252-8.569q0-6.855-4.878-9.756Q1.494-31.509-4.482-31.509Z" transform="translate(572 6092)" fill="#1778b1"/>
        <path id="パス_12535" data-name="パス 12535" d="M10.892-4.718v3.486H7.77V-5.46h4.3v-5.082h-1.75v3.458H7.77v-4.634H6.062v4.634H3.654v-3.458H2V-5.46h4.06v4.228H3.136V-4.718H1.442V1.218H3.136V.406h7.756v.8h1.736V-4.718ZM23.016-.812V-3.626H27.2v-1.61H23.016V-7.7h4.718V-9.324H23.016v-2.52h-1.75v2.52H19.11c.238-.644.462-1.3.658-1.974l-1.722-.378a12.045,12.045,0,0,1-2.478,5.012,13.239,13.239,0,0,1,1.5.994,11.539,11.539,0,0,0,1.3-2.03h2.9v2.464H17.472v1.61h3.794V-.812h-5.4V.826H28.448V-.812ZM34.65-11.228a15.35,15.35,0,0,1-.294,2.94c-.7.056-1.358.1-1.792.112a12.873,12.873,0,0,1-1.47,0L31.248-6.3c.434-.07,1.148-.168,1.54-.21.266-.042.7-.1,1.19-.154a20.608,20.608,0,0,1-2.8,6.482L33,.546A29.446,29.446,0,0,0,35.812-6.86c.392-.028.728-.056.952-.056.882,0,1.358.154,1.358,1.26a10.254,10.254,0,0,1-.574,3.794,1.008,1.008,0,0,1-1.036.6,7.978,7.978,0,0,1-1.694-.294L35.126.28a7.739,7.739,0,0,0,1.652.2A2.226,2.226,0,0,0,39.06-.8a13.553,13.553,0,0,0,.784-5.054c0-1.988-1.036-2.646-2.506-2.646-.28,0-.7.028-1.162.056.1-.5.21-1.008.28-1.428.07-.35.168-.784.252-1.148Zm5.166,2.212a16.012,16.012,0,0,1,2.352,5.278l1.75-.826A24.989,24.989,0,0,0,41.5-9.716Zm9.8-.532c1.078.28,4.172.924,5.572,1.106l.42-1.708a43.892,43.892,0,0,1-5.544-1.078Zm.532,1.106-1.876-.252a50.48,50.48,0,0,1-.686,5.782l1.61.406a3,3,0,0,1,.518-.812,4.86,4.86,0,0,1,3.822-1.624c1.218,0,2.072.658,2.072,1.554,0,1.764-2.2,2.786-6.356,2.2L49.784.63c5.768.5,7.77-1.442,7.77-3.976,0-1.68-1.414-3.178-3.85-3.178A6.8,6.8,0,0,0,49.63-5.208C49.728-6.006,49.966-7.672,50.148-8.442Z" transform="translate(483 6089)" fill="#1778b1"/>
        <path id="パス_12537" data-name="パス 12537" d="M3.668-3.066A6.042,6.042,0,0,1,2.66-.854,6.792,6.792,0,0,1,3.7-.224a8.678,8.678,0,0,0,1.162-2.59Zm4.2-.5V-4.788h-4.4V-3.57H5V-.336c0,.126-.028.168-.168.168-.1,0-.434,0-.8-.014a4.813,4.813,0,0,1,.406,1.246A2.708,2.708,0,0,0,5.88.826c.378-.2.448-.532.448-1.12V-3.57Zm.49,2.408a9.287,9.287,0,0,0-.882-1.932l-1.05.378A9.306,9.306,0,0,1,7.238-.728ZM10.584-7.8l-.532.392c.224.154.49.364.742.574H9.478c-.028-.322-.056-.644-.07-.966Zm.644,2.646A9.153,9.153,0,0,1,10.248-3a21.128,21.128,0,0,1-.6-2.534H13.2v-1.3h-.728l.056-.042A9.126,9.126,0,0,0,11.424-7.8h1.834v-1.33H8.134v-.756H12.11V-11.06H8.134v-.8H6.524v2.73H4.41v-2.114H2.87v2.114H.784V-7.8H7.91c.014.322.042.644.07.966h-6.5v2.394A8.083,8.083,0,0,1,.378.266a5.514,5.514,0,0,1,1.246.966C2.786-.322,3.01-2.744,3.01-4.424V-5.53H8.148A17.165,17.165,0,0,0,9.184-1.61,8.592,8.592,0,0,1,6.944.084,10.57,10.57,0,0,1,8.064,1.2,10.35,10.35,0,0,0,9.9-.21,2.53,2.53,0,0,0,11.83,1.232c1.036,0,1.526-.49,1.75-2.534a4.391,4.391,0,0,1-1.19-.728c-.056,1.246-.182,1.806-.448,1.806-.294,0-.658-.42-1.036-1.134a11.927,11.927,0,0,0,1.806-3.458ZM18.942-2.52c-.518,0-1.078-.686-1.078-2.086a4.347,4.347,0,0,1,3.514-4.018,22.254,22.254,0,0,1-.742,3.36C20.076-3.388,19.516-2.52,18.942-2.52ZM22.75.574c3.5-.532,5.292-2.6,5.292-5.516a5.291,5.291,0,0,0-5.6-5.418,6.183,6.183,0,0,0-6.384,5.936c0,2.338,1.3,4.032,2.828,4.032S21.6-2.1,22.428-4.9a30.13,30.13,0,0,0,.826-3.766A3.432,3.432,0,0,1,26.152-5,3.753,3.753,0,0,1,23-1.288c-.364.084-.756.154-1.288.224Z" transform="translate(602 6089)" fill="#1778b1"/>
        <path id="パス_12536" data-name="パス 12536" d="M10.64-2.73h-.6v-5.5H8.708v5.5H8.064v1.344H13.5V-2.73H12.04V-5.7h1.316v-1.33H12.04v-3.038a12.294,12.294,0,0,0,1.484-.49l-1.106-1.19A17.347,17.347,0,0,1,8.134-10.6a5.7,5.7,0,0,1,.448,1.2c.658-.084,1.358-.2,2.058-.336ZM4.508-11.424H1.078v1.26h3.43Zm.35,1.876H.462v1.316h4.4ZM4.522-7.6H1.008v1.274H4.522ZM1.008-4.438H4.522V-5.684H1.008ZM3.262-.84H2.226V-2.45H3.262ZM7.5-7.056l-.252.028h-.49c.462-1.344.924-2.744,1.232-3.878L6.986-11.13l-.224.056H4.928v1.442h1.26C5.8-8.372,5.25-6.776,4.774-5.516l1.344.266L6.3-5.74h.616A14.607,14.607,0,0,1,6.44-3.36a10.383,10.383,0,0,1-.406-1.5L4.8-4.494A11.423,11.423,0,0,0,5.74-1.652a4.744,4.744,0,0,1-1.176,1.5v-3.6H.966V1.022h1.26V.462H4.564V.14A5.053,5.053,0,0,1,5.32,1.218,5.961,5.961,0,0,0,6.664-.364,5.06,5.06,0,0,0,10.514.91h2.7a5.531,5.531,0,0,1,.49-1.5c-.63.028-2.576.028-3.08.028a4,4,0,0,1-3.276-1.2,18.668,18.668,0,0,0,.994-5.11ZM23.016-.812V-3.626H27.2v-1.61H23.016V-7.7h4.718V-9.324H23.016v-2.52h-1.75v2.52H19.11c.238-.644.462-1.3.658-1.974l-1.722-.378a12.045,12.045,0,0,1-2.478,5.012,13.239,13.239,0,0,1,1.5.994,11.539,11.539,0,0,0,1.3-2.03h2.9v2.464H17.472v1.61h3.794V-.812h-5.4V.826H28.448V-.812ZM34.132-1.54V-4.676h6.216V-1.54Zm6.216-7.8v3.01H34.132v-3.01Zm-7.938-1.68V1.05h1.722V.14h6.216v.882H42.14v-12.04ZM48.37-2.912v-.91h2.338v.91Zm2.338-3.01v.868H48.37v-.868Zm1.61-1.4h-5.53V1.134H48.37V-1.694h2.338V-.448c0,.168-.056.224-.224.224s-.742.014-1.26-.014a5.757,5.757,0,0,1,.532,1.414A4.39,4.39,0,0,0,51.7.91c.476-.238.616-.63.616-1.344Zm3.99,6.678c0,.2-.07.252-.294.252s-.966.014-1.68-.014a5.838,5.838,0,0,1,.6,1.568,5.494,5.494,0,0,0,2.3-.28c.56-.266.714-.672.714-1.5V-7.574H56.308Zm-1.26-6.538H53.522V-1.47h1.526Zm.8-2.6c.35-.49.728-1.036,1.064-1.582L55.1-11.9a15.7,15.7,0,0,1-1.148,2.114H50.064l.77-.266a7.736,7.736,0,0,0-1.3-1.82l-1.582.546A9.389,9.389,0,0,1,49-9.786H46.018v1.5h12.67v-1.5ZM64.372-1.54V-4.676h6.216V-1.54Zm6.216-7.8v3.01H64.372v-3.01Zm-7.938-1.68V1.05h1.722V.14h6.216v.882H72.38v-12.04ZM82.278-1.834c0,.8-.476,1.022-1.218,1.022-.952,0-1.442-.336-1.442-.854,0-.476.532-.854,1.512-.854a7.429,7.429,0,0,1,1.134.1C82.278-2.184,82.278-1.988,82.278-1.834Zm5.544.35a10.724,10.724,0,0,0-3.878-2.1c-.042-.532-.07-1.092-.1-1.61,1.344-.042,2.422-.14,3.668-.28V-7.112c-1.134.14-2.3.266-3.7.322l.014-1.442c1.33-.07,2.45-.182,3.36-.266l-.042-1.6a29.05,29.05,0,0,1-3.3.336l.014-.546a9.267,9.267,0,0,1,.1-.98h-1.89a5.55,5.55,0,0,1,.07.952v.63h-.686a18.352,18.352,0,0,1-3.01-.266l.014,1.582a23.087,23.087,0,0,0,3.01.21h.658v1.442h-.658a25.15,25.15,0,0,1-3.346-.252l-.014,1.638c.924.112,2.52.182,3.332.182h.714c.014.406.028.84.056,1.26a8.509,8.509,0,0,0-.854-.042c-2.142,0-3.43.98-3.43,2.38,0,1.47,1.176,2.31,3.388,2.31,1.834,0,2.73-.91,2.73-2.1,0-.14,0-.308-.014-.49A10.5,10.5,0,0,1,86.828.07Zm13.258-5.8-1.036.434A10.8,10.8,0,0,1,101.136-4.9l1.064-.476A18.348,18.348,0,0,0,101.08-7.28Zm1.568-.644-1.022.476a12.316,12.316,0,0,1,1.148,1.89l1.05-.5A20.943,20.943,0,0,0,102.648-7.924ZM91.742-9.576l.182,1.9c1.61-.35,4.522-.658,5.726-.784a5.5,5.5,0,0,0-2.044,4.27c0,3.01,2.744,4.578,5.656,4.76l.644-1.918c-2.352-.112-4.48-.938-4.48-3.22a4.208,4.208,0,0,1,2.926-3.878,14.317,14.317,0,0,1,2.674-.182l-.014-1.792c-.98.042-2.492.126-3.92.238-2.534.224-4.83.434-5.992.532C92.834-9.618,92.3-9.59,91.742-9.576Z" transform="translate(526 6121)" fill="#1778b1"/>
      </g>
      <g id="グループ_180" data-name="グループ 180" transform="translate(460 6443)">
        <rect id="長方形_81" data-name="長方形 81" width="5.753" height="2.685" transform="translate(0 20.015)" fill="#1778b1"/>
        <rect id="長方形_82" data-name="長方形 82" width="5.752" height="2.685" transform="translate(36.964 20.015)" fill="#1778b1"/>
        <path id="パス_84" data-name="パス 84" d="M26.248,338.462l1.343,2.327,4.982-2.877-1.343-2.326Z" transform="translate(-24.058 -307.588)" fill="#1778b1"/>
        <path id="パス_85" data-name="パス 85" d="M416.271,116.383l-1.343-2.326-4.982,2.877,1.343,2.326Z" transform="translate(-375.745 -104.541)" fill="#1778b1"/>
        <path id="パス_86" data-name="パス 86" d="M114.065,414.929l2.326,1.343,2.877-4.982-2.326-1.343Z" transform="translate(-104.549 -375.745)" fill="#1778b1"/>
        <path id="パス_87" data-name="パス 87" d="M340.8,27.591l-2.327-1.343L335.6,31.23l2.326,1.343Z" transform="translate(-307.597 -24.058)" fill="#1778b1"/>
        <rect id="長方形_83" data-name="長方形 83" width="2.685" height="5.752" transform="translate(20.016 36.964)" fill="#1778b1"/>
        <rect id="長方形_84" data-name="長方形 84" width="2.685" height="5.752" transform="translate(20.016 0)" fill="#1778b1"/>
        <path id="パス_88" data-name="パス 88" d="M335.6,411.29l2.875,4.982,2.327-1.343-2.877-4.982Z" transform="translate(-307.597 -375.745)" fill="#1778b1"/>
        <path id="パス_89" data-name="パス 89" d="M119.267,31.23l-2.877-4.982-2.326,1.343,2.877,4.982Z" transform="translate(-104.549 -24.058)" fill="#1778b1"/>
        <path id="パス_90" data-name="パス 90" d="M409.947,337.912l4.982,2.877,1.343-2.327-4.982-2.876Z" transform="translate(-375.745 -307.588)" fill="#1778b1"/>
        <path id="パス_91" data-name="パス 91" d="M32.572,116.934l-4.982-2.877-1.343,2.326,4.982,2.877Z" transform="translate(-24.058 -104.541)" fill="#1778b1"/>
        <path id="パス_92" data-name="パス 92" d="M112.956,99.926a13.021,13.021,0,1,0,13.021,13.021A13.021,13.021,0,0,0,112.956,99.926Z" transform="translate(-91.597 -91.589)" fill="#1778b1"/>
      </g>
      <line id="線_30" data-name="線 30" y2="191" transform="translate(431.5 6443.5)" fill="none" stroke="#707070" stroke-width="1"/>
      <g id="グループ_184" data-name="グループ 184" transform="translate(369.553 6241.828)">
        <path id="パス_185" data-name="パス 185" d="M48.457,58.568A11.236,11.236,0,1,0,37.22,47.333,11.235,11.235,0,0,0,48.457,58.568Z" transform="translate(-27.123)" fill="#1778b1"/>
        <path id="パス_186" data-name="パス 186" d="M235.242,186.99v.017c.027,0,.052-.008.08-.008s.053.008.08.008v-.017a7.762,7.762,0,0,0,0-15.522v-.017c-.027,0-.052.008-.08.008s-.052-.008-.08-.008v.017a7.762,7.762,0,0,0,0,15.522Z" transform="translate(-165.875 -98.637)" fill="#1778b1"/>
        <path id="パス_187" data-name="パス 187" d="M403.179,58.568a11.236,11.236,0,1,0-11.235-11.235A11.236,11.236,0,0,0,403.179,58.568Z" transform="translate(-285.62)" fill="#1778b1"/>
        <path id="パス_188" data-name="パス 188" d="M138.893,187.687V149.922c0-5.446-5.923-11.369-11.367-11.369h-1.573l-7.818,7.818-7.654-7.654A15.245,15.245,0,0,0,99.11,146.86l-9.086,26.576a2.195,2.195,0,0,1-3.447.609l-5.652-4.894a9.145,9.145,0,0,0-6.213-2.434H64.181a9.147,9.147,0,0,0-6.213,2.434l-5.652,4.894a2.195,2.195,0,0,1-3.447-.609L39.783,146.86a15.242,15.242,0,0,0-13.572-8.307H11.367C5.923,138.553,0,144.476,0,149.922v37.764a4.928,4.928,0,0,0,4.928,4.93h3.44l1.873,32.207a5.247,5.247,0,0,0,5.247,5.245H26.948a5.247,5.247,0,0,0,5.247-5.245l1.873-32.207-.023-22.995a.786.786,0,0,1,1.487-.357l7.209,17.742a6.1,6.1,0,0,0,9.565,1.7l6.9-5.081a.8.8,0,0,1,.851-.147.793.793,0,0,1,.473.722l.026,19.941,1.3,22.3a3.632,3.632,0,0,0,3.634,3.629h7.931a3.632,3.632,0,0,0,3.633-3.629l1.3-22.3.025-19.941a.792.792,0,0,1,.473-.722.8.8,0,0,1,.851.147l6.9,5.081a6.1,6.1,0,0,0,9.565-1.7l7.208-17.742a.786.786,0,0,1,1.487.357l-.008,8.771L97.276,201.9a1.829,1.829,0,0,0,1.741,2.39H105.5l1.195,20.535a5.246,5.246,0,0,0,5.247,5.245H123.4a5.246,5.246,0,0,0,5.246-5.245l1.2-20.535h7.167a1.829,1.829,0,0,0,1.741-2.39l-3.09-9.6A4.917,4.917,0,0,0,138.893,187.687Z" transform="translate(0 -74.663)" fill="#1778b1"/>
      </g>
      <g id="グループ_185" data-name="グループ 185" transform="translate(-704 338)">
        <path id="パス_12530" data-name="パス 12530" d="M3.92-2.03V-3.122h6.23V-2.03Zm6.23-2.926v1.078H3.92V-4.956Zm1.05-.868H2.884V1.064H3.92v-2.31h6.23v1.2c0,.2-.07.252-.28.266-.238,0-1.05,0-1.862-.014a4.008,4.008,0,0,1,.336.854A9.024,9.024,0,0,0,10.626.91c.434-.126.574-.392.574-.952Zm-1.778-3.6L8.638-8.9c.49.322,1.022.714,1.526,1.106-1.96.042-3.934.084-5.656.112.462-.546.952-1.162,1.372-1.736Zm3.7-.938H7.5v-1.358H6.454v1.358H.9v.938H4.55a17.379,17.379,0,0,1-1.176,1.75l-1.932.028.042.966c2.45-.042,6.174-.14,9.688-.28a10.149,10.149,0,0,1,.952.938l.868-.616A20.533,20.533,0,0,0,9.464-9.422h3.654ZM19.6-3.626c-.252,1.974-.924,3.206-3.934,3.85a3.265,3.265,0,0,1,.616.91c3.29-.8,4.116-2.324,4.424-4.76Zm3.668,0V-.434c0,1.12.336,1.442,1.61,1.442h2.086c1.12,0,1.428-.5,1.554-2.576a3.161,3.161,0,0,1-.966-.42C27.5-.238,27.4.028,26.866.028H24.99c-.56,0-.658-.07-.658-.462V-3.626Zm-6.1-7.7v7.5h1.008v-7.5Zm3.15.238v7.07h6.9v-7.07Zm.994.924h4.858v2.17H21.308Zm0,3.024h4.858v2.2H21.308ZM43.5-11.1H36.414v.966H43.5ZM41.9-5.236H37.94v-2.45H41.9ZM42.91-8.61H36.974V-4.3H42.91ZM41.342-.448c.35-.77.784-2.072,1.134-3.136L41.44-3.822a19.693,19.693,0,0,1-.98,3.15Zm-2.3-.322a13.89,13.89,0,0,0-.77-2.968l-.882.224a15.515,15.515,0,0,1,.714,2.982ZM36.54-1.652c-.336-.406-1.708-1.96-2.268-2.548q.084-.483.126-.966h2.044v-.966H34.454V-8.946h1.82V-9.9H32.928c.14-.5.266-1.036.364-1.568l-.994-.182a10.739,10.739,0,0,1-1.554,4.382,6.8,6.8,0,0,1,.9.5,10.956,10.956,0,0,0,1.008-2.184h.812v2.814H30.9v.966H33.4A7.687,7.687,0,0,1,30.814.28a2.885,2.885,0,0,1,.7.728A7.816,7.816,0,0,0,34.048-3.15,26.637,26.637,0,0,1,35.868-.8ZM35.8-.21V.77h7.826V-.21ZM49.462-9.856v3.108h-2.03V-9.856ZM47.432-2.6V-5.838h2.03V-2.6Zm3.01-8.19H46.48V-.532h.952V-1.666h3.01Zm1.148,7.84A10.8,10.8,0,0,1,53.368-.49l.882-.56a9.9,9.9,0,0,0-1.82-2.38Zm7.224-3.472V-7.35H55.2V-9.128h3.01v-.924H55.2v-1.666H54.18v1.666H51.268v.924H54.18V-7.35H50.666v.924h5.362v1.582H50.736v.924h5.292V-.182c0,.21-.07.266-.308.28s-.994.014-1.862-.014a3.179,3.179,0,0,1,.336.966A8.01,8.01,0,0,0,56.462.882c.42-.154.574-.462.574-1.05V-3.92H58.66v-.924H57.036V-6.426ZM65.842-10.3v1.162H62.818V-10.3ZM62.818-7.14V-8.372h3.024V-7.14Zm4.018.8v-4.774H61.782V1.078h1.036v-7.42ZM69.09-4.48v1.288H65.8V-4.48ZM65.8-1.05V-2.408h3.29V-1.05Zm4.256.826V-5.292H64.862V.476H65.8v-.7Zm-.98-6.9V-8.372h3.136v1.246ZM72.212-10.3v1.162H69.076V-10.3Zm1.05-.812h-5.18v4.788h4.13V-.322c0,.252-.084.336-.322.336S70.784.042,69.93,0a3.835,3.835,0,0,1,.364,1.064A7.968,7.968,0,0,0,72.646.882c.462-.182.616-.532.616-1.19ZM2.268,13.376H3.22V12.3H5.1v1.078h.952V12.3H7.7v-.812H6.048V10.3H5.1v1.19H3.22V10.3H2.268v1.19H.686V12.3H2.268ZM2.1,15.9V14.44H3.682V15.9Zm4.172,0H4.634V14.44H6.272Zm6.93-2.338H10.22c.014-1.008.028-2.058.028-3.15H9.282c0,1.092,0,2.156-.028,3.15H7.63v.966h1.6c-.1,2.9-.476,5.292-1.764,6.958l-.014-.49c-.938.112-1.9.224-2.814.322V20.152H7.308v-.77H4.634V18.318h2.8v-.8h-2.8v-.868h2.6V13.67H1.19v2.982H3.682v.868H.924v.8H3.682v1.064H1.134v.77H3.682v1.274c-1.162.126-2.226.238-3.066.308l.14.91c1.666-.2,4.046-.476,6.356-.756a4.53,4.53,0,0,1-.532.5,3.4,3.4,0,0,1,.756.728c2.142-1.848,2.688-4.858,2.842-8.6h2.03c-.112,5.082-.266,6.9-.6,7.308a.453.453,0,0,1-.462.224,13.741,13.741,0,0,1-1.484-.07,2.487,2.487,0,0,1,.294.966,10.34,10.34,0,0,0,1.624,0,1.113,1.113,0,0,0,.91-.5c.434-.574.56-2.52.714-8.386Zm12.95-.924a5.256,5.256,0,0,1-1.358,1.806,6.212,6.212,0,0,1-1.582-1.806Zm-5.6,6.076a12.122,12.122,0,0,0,.826-2.184,3.915,3.915,0,0,1,.378.546,10.942,10.942,0,0,0,3.052-1.428,10.049,10.049,0,0,0,3.178,1.484,4.616,4.616,0,0,1,.658-.9,9.285,9.285,0,0,1-3.038-1.218,6.5,6.5,0,0,0,1.68-2.38h1.078v-.882H23.716a11.11,11.11,0,0,0,.644-1.2l-.994-.266a8.6,8.6,0,0,1-2.66,3.416,6.606,6.606,0,0,1,.854.6,11.169,11.169,0,0,0,1.008-.994,7.984,7.984,0,0,0,1.442,1.708A9.276,9.276,0,0,1,21.5,16.092c.07-.252.14-.5.21-.742l-.63-.224-.154.056H19.894l.532-.6a8.042,8.042,0,0,0-1.176-.84,10.481,10.481,0,0,0,2.282-2.38l-.672-.42-.182.042h-4.7v.91h3.962a9.848,9.848,0,0,1-1.47,1.386c-.448-.238-.924-.462-1.358-.644l-.644.672a14.288,14.288,0,0,1,3.108,1.876H15.82v.91h2.114a10.549,10.549,0,0,1-2.254,3.752,5.507,5.507,0,0,1,.546.966,11.212,11.212,0,0,0,2.044-3.444V21.86c0,.154-.056.2-.224.21s-.728,0-1.33-.014a3.823,3.823,0,0,1,.322.952,5.494,5.494,0,0,0,1.75-.154c.35-.182.462-.462.462-.994V16.092h1.344a14.592,14.592,0,0,1-.756,2.254Zm4.228-.616c.084-.448.154-.91.2-1.386h-1.05c-.042.476-.1.938-.182,1.386H21.336v.868H23.52a4.8,4.8,0,0,1-3.248,3.3,3.382,3.382,0,0,1,.616.8,5.68,5.68,0,0,0,3.71-4.1H26.95c-.21,1.918-.42,2.7-.686,2.968a.592.592,0,0,1-.476.14c-.224,0-.784-.014-1.386-.07a2.722,2.722,0,0,1,.28.966,14.8,14.8,0,0,0,1.554.014,1.263,1.263,0,0,0,.868-.364c.406-.406.672-1.47.924-4.074.014-.168.028-.448.028-.448Z" transform="translate(1014 6121)"/>
        <path id="パス_12532" data-name="パス 12532" d="M7.014-1.624c0,.952-.672,1.19-1.47,1.19-1.372,0-1.918-.476-1.918-1.12s.714-1.134,2.03-1.134A7.058,7.058,0,0,1,7-2.562C7-2.184,7.014-1.862,7.014-1.624Zm5.054.476A11.381,11.381,0,0,0,8.036-3.3c-.028-.658-.07-1.386-.1-2.1,1.316-.056,2.548-.154,3.85-.322l-.014-1.05a37.4,37.4,0,0,1-3.85.364V-8.4c1.3-.07,2.492-.182,3.584-.294l-.014-1.022a30.828,30.828,0,0,1-3.556.336c0-.336,0-.6.014-.77a7.135,7.135,0,0,1,.07-.924H6.832a7.76,7.76,0,0,1,.042.826v.91H6.16A22.1,22.1,0,0,1,2.912-9.6v1.036c.826.1,2.3.21,3.262.21H6.86V-6.37H6.118a24.665,24.665,0,0,1-3.486-.266v1.064c.994.112,2.534.2,3.486.2h.77c.014.574.042,1.232.07,1.848A7.827,7.827,0,0,0,5.8-3.612c-2,0-3.22.854-3.22,2.114C2.576-.154,3.682.56,5.67.56c1.806,0,2.45-.994,2.45-1.946,0-.21-.014-.518-.028-.868A10.3,10.3,0,0,1,11.438-.168Zm13.3-6.118-.714.308A13,13,0,0,1,25.8-4.984l.714-.336A16.617,16.617,0,0,0,25.368-7.266Zm1.526-.588-.7.322a12.47,12.47,0,0,1,1.19,1.946l.728-.336A21.147,21.147,0,0,0,26.894-7.854ZM16.282-9.212l.126,1.232c1.5-.308,5.278-.672,6.5-.812a5.6,5.6,0,0,0-2.576,4.676c0,3.094,2.926,4.466,5.488,4.578l.406-1.176c-2.254-.084-4.774-.938-4.774-3.64a4.848,4.848,0,0,1,3.164-4.382,11.488,11.488,0,0,1,2.716-.224v-1.12c-.924.042-2.226.112-3.738.238-2.548.224-5.166.476-6.076.56C17.248-9.254,16.814-9.226,16.282-9.212Z" transform="translate(1078 6226)"/>
        <path id="パス_12531" data-name="パス 12531" d="M19.11-11.585v-8.47h9.1v8.47Zm-12.46,0v-8.47h9.065v8.47ZM19.11-23.24v-6.09h-3.4v6.09H3.395v16.9H6.65V-8.4h9.065V2.73h3.4V-8.4h9.1v1.89h3.4V-23.24Zm24.535,2.415h23.38v5.145h3.22v-8.015H65.17c1.085-1.33,2.24-2.87,3.255-4.375l-3.43-1.085a36.781,36.781,0,0,1-3.395,5.46H55.685L57.4-24.36a20.749,20.749,0,0,0-2.835-5.18L51.73-28.49a25.922,25.922,0,0,1,2.45,4.8H47.7l1.26-.6a21.478,21.478,0,0,0-3.255-4.69l-2.8,1.26a22.083,22.083,0,0,1,2.73,4.025H40.6v8.015h3.045ZM70.77-9.765H56.98v-.455a31.413,31.413,0,0,0,8.19-6.02l-2.1-1.575-.7.175H45.955v2.835h13.3A27.69,27.69,0,0,1,55.3-12.18H53.655v2.415H40v3.01h13.65v5.74c0,.525-.175.665-.875.7s-3.15.035-5.6-.07a17.51,17.51,0,0,1,1.365,3.15c3.045,0,5.11-.035,6.545-.49,1.435-.49,1.89-1.4,1.89-3.185V-6.755H70.77ZM107.66-25.1H94.64v-4.27H91.28v4.27H78.5v3.115H107.66ZM91.98-14.49a43.1,43.1,0,0,0-4.515-3.395,26.435,26.435,0,0,0,1.33-3.255l-3.29-.735a18.3,18.3,0,0,1-7.63,10.255A20.615,20.615,0,0,1,80.5-9.45a22.451,22.451,0,0,0,5.6-5.985,39.339,39.339,0,0,1,3.92,3.255Zm16.7,6.055H94.64v-2.31H94.6A20.025,20.025,0,0,0,98.98-14.98,61.274,61.274,0,0,1,105.56-9.7l2.275-2.415a62.432,62.432,0,0,0-7.175-5.425,20.041,20.041,0,0,0,1.575-3.64l-3.29-.63a16.031,16.031,0,0,1-7.6,9.275,15.755,15.755,0,0,1,2.17,1.785H91.28v2.31H77.6V-5.32H91.28V2.73h3.36V-5.32h14.035Zm27.02-12.25a32.659,32.659,0,0,1-1.54,3.325H126.77l1.015-.21a14.725,14.725,0,0,0-1.505-3.115ZM146.23-5.355v-2.73H132.44V-10.22h10.745v-2.45H132.44v-2.1h12.39v-2.59h-7.42c.6-.98,1.295-2.135,1.96-3.325h6.755v-2.73h-5.04a54.766,54.766,0,0,0,2.9-4.76l-3.36-.84a30.506,30.506,0,0,1-2.45,5.18l1.33.42h-3.78V-29.4h-3.08v5.985h-3.465V-29.4H126.14v5.985h-3.85l1.785-.665a24.328,24.328,0,0,0-2.8-5l-2.835.945A26.241,26.241,0,0,1,121-23.415h-5.18v2.73h7.945l-.84.14a17.338,17.338,0,0,1,1.47,3.185h-7.175v2.59h12.04v2.1H118.93v2.45h10.325v2.135h-13.58v2.73H126.49a33.958,33.958,0,0,1-11.8,4.865,14.606,14.606,0,0,1,2.135,2.765,34.765,34.765,0,0,0,12.425-6.3v6.79h3.185V-4.27a31.221,31.221,0,0,0,12.53,6.58,14.616,14.616,0,0,1,2.17-2.9,32.143,32.143,0,0,1-11.865-4.76Z" transform="translate(959 6205)" fill="#1778b1"/>
        <path id="パス_12533" data-name="パス 12533" d="M-93.408-8.724A8.81,8.81,0,0,0-95.76-9.96l-.48.66a9.575,9.575,0,0,1,2.328,1.308Zm-.624,3.132a10.173,10.173,0,0,0-2.376-1.1l-.468.684a10.086,10.086,0,0,1,2.364,1.176Zm-.276,1.932A36.1,36.1,0,0,1-96.456.192l.756.576c.672-1.116,1.464-2.592,2.064-3.852Zm8.5,4.128A16.307,16.307,0,0,0-88.1-2.976l-.756.4a20.692,20.692,0,0,1,1.236,1.7c-1.416.1-2.844.18-4.08.24.528-1.044,1.092-2.412,1.536-3.552h4.152V-5.04h-3.408v-2.2h2.844v-.84h-2.844v-1.956h-.912v1.956h-2.736v.84h2.736v2.2h-3.336v.852h2.448a28.313,28.313,0,0,1-1.44,3.612l-1,.048.132.888C-91.872.252-89.46.1-87.144-.084a7.934,7.934,0,0,1,.5,1.02Zm3.288-8.292h8.172v1.752h.912V-8.664h-4.536v-1.368H-78.9v1.368h-4.5v2.592h.876Zm4.548,5.1h3.552v-.828h-3.552V-5.544h3.06v-.84h-6.948v.84h2.976V-.516A3.6,3.6,0,0,1-81.1-2.832a15.146,15.146,0,0,0,.288-1.6l-.912-.084c-.264,2.148-.912,3.852-2.244,4.884a4.659,4.659,0,0,1,.732.6A6.574,6.574,0,0,0-81.444-1.7C-80.352.324-78.564.756-76.08.756H-73.3a2.63,2.63,0,0,1,.336-.9c-.576.012-2.64.012-3.072.012a10.955,10.955,0,0,1-1.944-.144ZM-70.512-7.9l.108,1.044c1.3-.276,4.356-.564,5.64-.708A4.874,4.874,0,0,0-67.008-3.5c0,2.676,2.532,3.864,4.752,3.948l.348-1c-1.956-.072-4.14-.816-4.14-3.156a4.224,4.224,0,0,1,2.748-3.8A10.051,10.051,0,0,1-60.948-7.7v-.96c-.8.036-1.932.108-3.24.216-2.208.18-4.476.408-5.256.492C-69.672-7.932-70.056-7.908-70.512-7.9Zm7.836,1.668-.612.264A11.14,11.14,0,0,1-62.3-4.272l.612-.288A14.243,14.243,0,0,0-62.676-6.228Zm1.308-.5-.588.276a11.122,11.122,0,0,1,1.008,1.68l.624-.3A15.849,15.849,0,0,0-61.368-6.732Zm8.22,5.292c0-.588.636-.972,1.536-.972a4.084,4.084,0,0,1,1.224.192c.012.156.012.3.012.42,0,.792-.3,1.308-1.308,1.308C-52.548-.492-53.148-.828-53.148-1.44Zm3.636-7.8h-1.08c.024.2.048.528.048.732V-7.02c-.372.012-.756.024-1.128.024-.72,0-1.356-.036-2.04-.1v.9c.708.048,1.332.084,2.016.084.384,0,.768-.012,1.152-.024.012.984.084,2.16.12,3.084a5.5,5.5,0,0,0-1.116-.108c-1.572,0-2.472.8-2.472,1.812,0,1.08.888,1.716,2.5,1.716S-49.44-.576-49.44-1.56v-.252A9.762,9.762,0,0,1-47.628-.42l.528-.8a7.91,7.91,0,0,0-2.376-1.548c-.048-1.008-.132-2.208-.144-3.42.72-.048,1.416-.12,2.076-.228v-.924a20.263,20.263,0,0,1-2.076.276c.012-.564.024-1.128.036-1.452Q-49.566-8.88-49.512-9.24Zm-5.928.072L-56.5-9.252a7.2,7.2,0,0,1-.072.852,35.706,35.706,0,0,0-.552,5.052A14.494,14.494,0,0,0-56.664.444l.84-.06c-.012-.132-.024-.3-.024-.42a2.15,2.15,0,0,1,.048-.54c.12-.588.564-1.812.852-2.652l-.492-.384c-.2.492-.492,1.224-.684,1.764a11.257,11.257,0,0,1-.12-1.668,29.753,29.753,0,0,1,.6-4.836A6.239,6.239,0,0,1-55.44-9.168ZM-42.372.156a2.561,2.561,0,0,0,2.82-2.508,2.263,2.263,0,0,0-1.86-2.232v-.048a2.2,2.2,0,0,0,1.56-2.124,2.26,2.26,0,0,0-2.556-2.208,3.522,3.522,0,0,0-2.46,1.056l.588.7a2.568,2.568,0,0,1,1.824-.852,1.35,1.35,0,0,1,1.488,1.392c0,.948-.624,1.68-2.436,1.68v.84c2.028,0,2.736.708,2.736,1.752A1.622,1.622,0,0,1-42.456-.756,2.908,2.908,0,0,1-44.64-1.764l-.552.72A3.641,3.641,0,0,0-42.372.156Zm7.644-2.964a5.961,5.961,0,0,1-.96,2.064,3.7,3.7,0,0,1,.576.384,7.805,7.805,0,0,0,1.08-2.292Zm3.564-.576v-.7h-3.972v.7h1.62v3.3c0,.108-.024.132-.144.144s-.444.012-.864,0a2.5,2.5,0,0,1,.252.708A2.831,2.831,0,0,0-33.084.624c.264-.12.324-.324.324-.708v-3.3Zm.324,2.376a7.561,7.561,0,0,0-.9-1.788l-.6.228a8.066,8.066,0,0,1,.876,1.824Zm1.74-5.784-.384.3a10.375,10.375,0,0,1,1.1.8h-1.7c-.048-.36-.072-.732-.1-1.1Zm1.008,2.328a8.243,8.243,0,0,1-1.14,2.328,13.817,13.817,0,0,1-.756-2.832h3.264v-.72h-.888l.12-.12a7.828,7.828,0,0,0-1.332-.984h2.16v-.744H-31.32V-8.52H-27.8v-.672H-31.32v-.84H-32.2v2.5H-34.38V-9.492h-.84v1.956h-1.92v.744h6.156c.012.372.048.744.1,1.1h-5.58v2A7.034,7.034,0,0,1-37.476.42,4.07,4.07,0,0,1-36.8.948a8.1,8.1,0,0,0,1.164-4.62v-1.3h4.848a15.355,15.355,0,0,0,1.008,3.552A8.674,8.674,0,0,1-31.956.312a4.181,4.181,0,0,1,.6.624A8.9,8.9,0,0,0-29.4-.66C-28.836.348-28.176.96-27.54.96c.72,0,1.02-.48,1.152-2.148a2.113,2.113,0,0,1-.672-.384C-27.108-.36-27.228.156-27.48.156c-.408,0-.912-.54-1.38-1.464A9.835,9.835,0,0,0-27.288-4.3Zm6.2,3.2c0-.552.624-1,1.764-1a5.322,5.322,0,0,1,1.164.12c0,.312.012.6.012.8,0,.828-.588,1.044-1.272,1.044C-21.408-.288-21.888-.708-21.888-1.26Zm3.8-8.268H-19.1a6.585,6.585,0,0,1,.048.72v.852h-.552A21.8,21.8,0,0,1-22.68-8.22l.012.888c.756.084,2.232.2,3.072.2h.528v1.68h-.648a22.2,22.2,0,0,1-3.024-.228l.012.9c.864.1,2.184.168,3,.168h.684c.012.516.036,1.092.048,1.632A6.873,6.873,0,0,0-20-3.048c-1.728,0-2.772.744-2.772,1.836,0,1.152.936,1.764,2.664,1.764C-18.552.552-18-.3-18-1.128c0-.192-.012-.444-.024-.744A8.847,8.847,0,0,1-15.12-.06l.552-.852a9.549,9.549,0,0,0-3.5-1.872c-.024-.576-.06-1.224-.084-1.848,1.14-.036,2.2-.132,3.324-.276l.012-.9a29.86,29.86,0,0,1-3.348.324v-1.68c1.152-.06,2.292-.168,3.24-.276l.012-.876a29.837,29.837,0,0,1-3.252.324c0-.312.012-.576.012-.732A6.007,6.007,0,0,1-18.084-9.528ZM-11.052-7.9l.108,1.044c1.3-.276,4.356-.564,5.64-.708A4.874,4.874,0,0,0-7.548-3.5C-7.548-.828-5.016.36-2.8.444l.348-1c-1.956-.072-4.14-.816-4.14-3.156a4.224,4.224,0,0,1,2.748-3.8A10.051,10.051,0,0,1-1.488-7.7v-.96c-.8.036-1.932.108-3.24.216-2.208.18-4.476.408-5.256.492C-10.212-7.932-10.6-7.908-11.052-7.9Zm7.836,1.668-.612.264a11.14,11.14,0,0,1,.984,1.692l.612-.288A14.243,14.243,0,0,0-3.216-6.228Zm1.308-.5-.588.276a11.122,11.122,0,0,1,1.008,1.68l.624-.3A15.849,15.849,0,0,0-1.908-6.732Z" transform="translate(1107 6264)"/>
        <g id="グループ_167" data-name="グループ 167" transform="translate(958.5 6107)">
          <path id="パス_93" data-name="パス 93" d="M86.708,197.6a.624.624,0,0,0,.18.03.592.592,0,0,0,.572-.421.6.6,0,0,0-.385-.758.611.611,0,0,0-.758.391A.6.6,0,0,0,86.708,197.6Z" transform="translate(-79.799 -181.657)" fill="#1778b1"/>
          <path id="パス_94" data-name="パス 94" d="M148.01,112.462a.62.62,0,0,0,.361-.12h-.006a.6.6,0,0,0,.132-.837.606.606,0,0,0-.842-.132.6.6,0,0,0-.126.842A.592.592,0,0,0,148.01,112.462Z" transform="translate(-136.325 -102.892)" fill="#1778b1"/>
          <path id="パス_95" data-name="パス 95" d="M247.52,79.422h.006a.6.6,0,0,0-.006-1.2.609.609,0,0,0-.6.608A.6.6,0,0,0,247.52,79.422Z" transform="translate(-228.351 -72.337)" fill="#1778b1"/>
          <path id="パス_96" data-name="パス 96" d="M347.462,111.257a.6.6,0,0,0,.487-.253.6.6,0,1,0-.836.138A.586.586,0,0,0,347.462,111.257Z" transform="translate(-320.78 -101.778)" fill="#1778b1"/>
          <path id="パス_97" data-name="パス 97" d="M87.294,301.3a.592.592,0,0,0-.379.758h-.006a.607.607,0,0,0,.578.415.523.523,0,0,0,.186-.031.6.6,0,0,0-.379-1.143Z" transform="translate(-80.349 -278.613)" fill="#1778b1"/>
          <path id="パス_98" data-name="パス 98" d="M148.976,386.018a.606.606,0,0,0,.139.842.626.626,0,0,0,.349.108.611.611,0,0,0,.493-.247.6.6,0,0,0-.98-.7Z" transform="translate(-137.67 -356.759)" fill="#1778b1"/>
          <path id="パス_99" data-name="パス 99" d="M410.355,299.859a.6.6,0,0,0-.758.391.594.594,0,0,0,.391.752.485.485,0,0,0,.186.03.6.6,0,0,0,.18-1.173Z" transform="translate(-378.771 -277.284)" fill="#1778b1"/>
          <path id="パス_100" data-name="パス 100" d="M409.617,195.709a.723.723,0,0,0,.186-.03.612.612,0,0,0,.385-.764l-.018-.036v-.006a.6.6,0,0,0-1.143.38.079.079,0,0,1,.012.036c.006,0,.006,0,.006.006A.6.6,0,0,0,409.617,195.709Z" transform="translate(-378.243 -179.841)" fill="#1778b1"/>
          <path id="パス_101" data-name="パス 101" d="M348.569,385.021a.6.6,0,0,0-.132.842.61.61,0,0,0,.487.247.583.583,0,0,0,.349-.12.6.6,0,1,0-.7-.969Z" transform="translate(-322.128 -355.961)" fill="#1778b1"/>
          <path id="パス_102" data-name="パス 102" d="M249.356,417.742a.6.6,0,0,0,.006,1.2.6.6,0,1,0-.006-1.2Z" transform="translate(-230.055 -386.33)" fill="#1778b1"/>
          <path id="パス_103" data-name="パス 103" d="M19.25,0A19.25,19.25,0,1,0,38.5,19.25,19.272,19.272,0,0,0,19.25,0Zm0,33.917A14.667,14.667,0,1,1,33.917,19.25,14.683,14.683,0,0,1,19.25,33.917Z" fill="#1778b1"/>
          <path id="パス_104" data-name="パス 104" d="M238.153,130.672h-3.145v12h10.427v-3.145h-7.282Z" transform="translate(-217.337 -120.846)" fill="#1778b1"/>
        </g>
      </g>
      <path id="パス_12538" data-name="パス 12538" d="M-93.408-8.724A8.81,8.81,0,0,0-95.76-9.96l-.48.66a9.575,9.575,0,0,1,2.328,1.308Zm-.624,3.132a10.173,10.173,0,0,0-2.376-1.1l-.468.684a10.086,10.086,0,0,1,2.364,1.176Zm-.276,1.932A36.1,36.1,0,0,1-96.456.192l.756.576c.672-1.116,1.464-2.592,2.064-3.852Zm8.5,4.128A16.307,16.307,0,0,0-88.1-2.976l-.756.4a20.692,20.692,0,0,1,1.236,1.7c-1.416.1-2.844.18-4.08.24.528-1.044,1.092-2.412,1.536-3.552h4.152V-5.04h-3.408v-2.2h2.844v-.84h-2.844v-1.956h-.912v1.956h-2.736v.84h2.736v2.2h-3.336v.852h2.448a28.313,28.313,0,0,1-1.44,3.612l-1,.048.132.888C-91.872.252-89.46.1-87.144-.084a7.934,7.934,0,0,1,.5,1.02Zm3.288-8.292h8.172v1.752h.912V-8.664h-4.536v-1.368H-78.9v1.368h-4.5v2.592h.876Zm4.548,5.1h3.552v-.828h-3.552V-5.544h3.06v-.84h-6.948v.84h2.976V-.516A3.6,3.6,0,0,1-81.1-2.832a15.146,15.146,0,0,0,.288-1.6l-.912-.084c-.264,2.148-.912,3.852-2.244,4.884a4.659,4.659,0,0,1,.732.6A6.574,6.574,0,0,0-81.444-1.7C-80.352.324-78.564.756-76.08.756H-73.3a2.63,2.63,0,0,1,.336-.9c-.576.012-2.64.012-3.072.012a10.955,10.955,0,0,1-1.944-.144ZM-70.512-7.9l.108,1.044c1.3-.276,4.356-.564,5.64-.708A4.874,4.874,0,0,0-67.008-3.5c0,2.676,2.532,3.864,4.752,3.948l.348-1c-1.956-.072-4.14-.816-4.14-3.156a4.224,4.224,0,0,1,2.748-3.8A10.051,10.051,0,0,1-60.948-7.7v-.96c-.8.036-1.932.108-3.24.216-2.208.18-4.476.408-5.256.492C-69.672-7.932-70.056-7.908-70.512-7.9Zm7.836,1.668-.612.264A11.14,11.14,0,0,1-62.3-4.272l.612-.288A14.243,14.243,0,0,0-62.676-6.228Zm1.308-.5-.588.276a11.122,11.122,0,0,1,1.008,1.68l.624-.3A15.849,15.849,0,0,0-61.368-6.732Zm8.22,5.292c0-.588.636-.972,1.536-.972a4.084,4.084,0,0,1,1.224.192c.012.156.012.3.012.42,0,.792-.3,1.308-1.308,1.308C-52.548-.492-53.148-.828-53.148-1.44Zm3.636-7.8h-1.08c.024.2.048.528.048.732V-7.02c-.372.012-.756.024-1.128.024-.72,0-1.356-.036-2.04-.1v.9c.708.048,1.332.084,2.016.084.384,0,.768-.012,1.152-.024.012.984.084,2.16.12,3.084a5.5,5.5,0,0,0-1.116-.108c-1.572,0-2.472.8-2.472,1.812,0,1.08.888,1.716,2.5,1.716S-49.44-.576-49.44-1.56v-.252A9.762,9.762,0,0,1-47.628-.42l.528-.8a7.91,7.91,0,0,0-2.376-1.548c-.048-1.008-.132-2.208-.144-3.42.72-.048,1.416-.12,2.076-.228v-.924a20.263,20.263,0,0,1-2.076.276c.012-.564.024-1.128.036-1.452Q-49.566-8.88-49.512-9.24Zm-5.928.072L-56.5-9.252a7.2,7.2,0,0,1-.072.852,35.706,35.706,0,0,0-.552,5.052A14.494,14.494,0,0,0-56.664.444l.84-.06c-.012-.132-.024-.3-.024-.42a2.15,2.15,0,0,1,.048-.54c.12-.588.564-1.812.852-2.652l-.492-.384c-.2.492-.492,1.224-.684,1.764a11.257,11.257,0,0,1-.12-1.668,29.753,29.753,0,0,1,.6-4.836A6.239,6.239,0,0,1-55.44-9.168ZM-44.484,0h4.824V-.912h-1.764v-7.9h-.84a5.3,5.3,0,0,1-1.824.636v.7h1.56V-.912h-1.956Zm9.756-2.808a5.961,5.961,0,0,1-.96,2.064,3.7,3.7,0,0,1,.576.384,7.805,7.805,0,0,0,1.08-2.292Zm3.564-.576v-.7h-3.972v.7h1.62v3.3c0,.108-.024.132-.144.144s-.444.012-.864,0a2.5,2.5,0,0,1,.252.708A2.831,2.831,0,0,0-33.084.624c.264-.12.324-.324.324-.708v-3.3Zm.324,2.376a7.561,7.561,0,0,0-.9-1.788l-.6.228a8.066,8.066,0,0,1,.876,1.824Zm1.74-5.784-.384.3a10.375,10.375,0,0,1,1.1.8h-1.7c-.048-.36-.072-.732-.1-1.1Zm1.008,2.328a8.243,8.243,0,0,1-1.14,2.328,13.817,13.817,0,0,1-.756-2.832h3.264v-.72h-.888l.12-.12a7.828,7.828,0,0,0-1.332-.984h2.16v-.744H-31.32V-8.52H-27.8v-.672H-31.32v-.84H-32.2v2.5H-34.38V-9.492h-.84v1.956h-1.92v.744h6.156c.012.372.048.744.1,1.1h-5.58v2A7.034,7.034,0,0,1-37.476.42,4.07,4.07,0,0,1-36.8.948a8.1,8.1,0,0,0,1.164-4.62v-1.3h4.848a15.355,15.355,0,0,0,1.008,3.552A8.674,8.674,0,0,1-31.956.312a4.181,4.181,0,0,1,.6.624A8.9,8.9,0,0,0-29.4-.66C-28.836.348-28.176.96-27.54.96c.72,0,1.02-.48,1.152-2.148a2.113,2.113,0,0,1-.672-.384C-27.108-.36-27.228.156-27.48.156c-.408,0-.912-.54-1.38-1.464A9.835,9.835,0,0,0-27.288-4.3Zm6.2,3.2c0-.552.624-1,1.764-1a5.322,5.322,0,0,1,1.164.12c0,.312.012.6.012.8,0,.828-.588,1.044-1.272,1.044C-21.408-.288-21.888-.708-21.888-1.26Zm3.8-8.268H-19.1a6.585,6.585,0,0,1,.048.72v.852h-.552A21.8,21.8,0,0,1-22.68-8.22l.012.888c.756.084,2.232.2,3.072.2h.528v1.68h-.648a22.2,22.2,0,0,1-3.024-.228l.012.9c.864.1,2.184.168,3,.168h.684c.012.516.036,1.092.048,1.632A6.873,6.873,0,0,0-20-3.048c-1.728,0-2.772.744-2.772,1.836,0,1.152.936,1.764,2.664,1.764C-18.552.552-18-.3-18-1.128c0-.192-.012-.444-.024-.744A8.847,8.847,0,0,1-15.12-.06l.552-.852a9.549,9.549,0,0,0-3.5-1.872c-.024-.576-.06-1.224-.084-1.848,1.14-.036,2.2-.132,3.324-.276l.012-.9a29.86,29.86,0,0,1-3.348.324v-1.68c1.152-.06,2.292-.168,3.24-.276l.012-.876a29.837,29.837,0,0,1-3.252.324c0-.312.012-.576.012-.732A6.007,6.007,0,0,1-18.084-9.528ZM-11.052-7.9l.108,1.044c1.3-.276,4.356-.564,5.64-.708A4.874,4.874,0,0,0-7.548-3.5C-7.548-.828-5.016.36-2.8.444l.348-1c-1.956-.072-4.14-.816-4.14-3.156a4.224,4.224,0,0,1,2.748-3.8A10.051,10.051,0,0,1-1.488-7.7v-.96c-.8.036-1.932.108-3.24.216-2.208.18-4.476.408-5.256.492C-10.212-7.932-10.6-7.908-11.052-7.9Zm7.836,1.668-.612.264a11.14,11.14,0,0,1,.984,1.692l.612-.288A14.243,14.243,0,0,0-3.216-6.228Zm1.308-.5-.588.276a11.122,11.122,0,0,1,1.008,1.68l.624-.3A15.849,15.849,0,0,0-1.908-6.732ZM-102,19.44a7.973,7.973,0,0,0,2.388,5.712l.72-.372a7.509,7.509,0,0,1-2.232-5.34,7.509,7.509,0,0,1,2.232-5.34l-.72-.372A7.973,7.973,0,0,0-102,19.44ZM-88.368,15.8h-6v-.828h6Zm0,1.44h-6V16.4h6Zm.876-2.9h-7.716v3.54h7.716Zm-.12,6.408a5.692,5.692,0,0,1-1.3,1.764,5.677,5.677,0,0,1-1.176-1.764Zm-7.176,1.536h2.172v.732c-.744.084-1.488.156-2.172.228Zm0-1.512h2.172v.84h-2.172Zm2.172-1.476v.8h-2.172v-.8Zm5.556.72-.156.024h-4.128v.708h1.032l-.516.156a6.913,6.913,0,0,0,1.32,2.112,7.273,7.273,0,0,1-2.256,1.14V19.3h5.616v-.744H-96.636V19.3H-95.6v4.032c-.42.048-.8.084-1.14.108l.084.792c1.116-.132,2.58-.3,4.044-.48v1.164h.852v-.744a2.93,2.93,0,0,1,.468.672,8.306,8.306,0,0,0,2.388-1.26A6.876,6.876,0,0,0-86.4,24.9a2.94,2.94,0,0,1,.54-.7,6.486,6.486,0,0,1-2.424-1.152,6.855,6.855,0,0,0,1.764-2.82Zm12.708.564a18.441,18.441,0,0,1-2.532,1.62,6.072,6.072,0,0,1-1.236-1.728h5.028v-.8h-7.644v-1.02h6.12v-.732h-6.12v-1h6.12v-.732h-6.12v-1h6.48v-.756h-7.392v5.232h-2.1v.8h2.1v3.312c-.564.084-1.092.168-1.524.228l.228.816c1.428-.24,3.48-.588,5.388-.924l-.036-.792c-1.056.18-2.148.36-3.144.528V20.472h1.7a7.5,7.5,0,0,0,5.58,4.476,2.784,2.784,0,0,1,.552-.78,8.1,8.1,0,0,1-3.42-1.476,19.462,19.462,0,0,0,2.7-1.632Zm8.244,1.98c0-.588.636-.972,1.536-.972a4.084,4.084,0,0,1,1.224.192c.012.156.012.3.012.42,0,.792-.3,1.308-1.308,1.308C-65.508,23.508-66.108,23.172-66.108,22.56Zm3.636-7.8h-1.08c.024.2.048.528.048.732V16.98c-.372.012-.756.024-1.128.024-.72,0-1.356-.036-2.04-.1v.9c.708.048,1.332.084,2.016.084.384,0,.768-.012,1.152-.024.012.984.084,2.16.12,3.084a5.5,5.5,0,0,0-1.116-.108c-1.572,0-2.472.8-2.472,1.812,0,1.08.888,1.716,2.5,1.716s2.076-.948,2.076-1.932v-.252a9.762,9.762,0,0,1,1.812,1.392l.528-.8a7.91,7.91,0,0,0-2.376-1.548c-.048-1.008-.132-2.208-.144-3.42.72-.048,1.416-.12,2.076-.228v-.924a20.263,20.263,0,0,1-2.076.276c.012-.564.024-1.128.036-1.452Q-62.526,15.12-62.472,14.76Zm-5.928.072-1.056-.084a7.2,7.2,0,0,1-.072.852,35.706,35.706,0,0,0-.552,5.052,14.494,14.494,0,0,0,.456,3.792l.84-.06c-.012-.132-.024-.3-.024-.42a2.15,2.15,0,0,1,.048-.54c.12-.588.564-1.812.852-2.652l-.492-.384c-.2.492-.492,1.224-.684,1.764a11.257,11.257,0,0,1-.12-1.668,29.753,29.753,0,0,1,.6-4.836A6.239,6.239,0,0,1-68.4,14.832ZM-57.972,24h5.532v-.948h-2.436c-.444,0-.984.048-1.44.084,2.064-1.956,3.444-3.744,3.444-5.5a2.413,2.413,0,0,0-2.556-2.6,3.364,3.364,0,0,0-2.592,1.3l.636.624a2.463,2.463,0,0,1,1.824-1.02,1.546,1.546,0,0,1,1.62,1.74c0,1.512-1.272,3.264-4.032,5.676Zm10.284-2.808a5.961,5.961,0,0,1-.96,2.064,3.7,3.7,0,0,1,.576.384,7.805,7.805,0,0,0,1.08-2.292Zm3.564-.576v-.7H-48.1v.7h1.62v3.3c0,.108-.024.132-.144.144s-.444.012-.864,0a2.5,2.5,0,0,1,.252.708,2.831,2.831,0,0,0,1.188-.144c.264-.12.324-.324.324-.708v-3.3Zm.324,2.376a7.561,7.561,0,0,0-.9-1.788l-.6.228a8.066,8.066,0,0,1,.876,1.824Zm1.74-5.784-.384.3a10.375,10.375,0,0,1,1.1.8h-1.7c-.048-.36-.072-.732-.1-1.1Zm1.008,2.328a8.243,8.243,0,0,1-1.14,2.328,13.817,13.817,0,0,1-.756-2.832h3.264v-.72h-.888l.12-.12a7.828,7.828,0,0,0-1.332-.984h2.16v-.744H-44.28V15.48h3.516v-.672H-44.28v-.84h-.876v2.5H-47.34V14.508h-.84v1.956H-50.1v.744h6.156c.012.372.048.744.1,1.1h-5.58v2a7.034,7.034,0,0,1-1.008,4.1,4.07,4.07,0,0,1,.672.528,8.1,8.1,0,0,0,1.164-4.62v-1.3h4.848a15.355,15.355,0,0,0,1.008,3.552,8.674,8.674,0,0,1-2.172,1.728,4.18,4.18,0,0,1,.6.624,8.9,8.9,0,0,0,1.956-1.6c.564,1.008,1.224,1.62,1.86,1.62.72,0,1.02-.48,1.152-2.148a2.113,2.113,0,0,1-.672-.384c-.048,1.212-.168,1.728-.42,1.728-.408,0-.912-.54-1.38-1.464A9.835,9.835,0,0,0-40.248,19.7Zm6.2,3.2c0-.552.624-1,1.764-1a5.322,5.322,0,0,1,1.164.12c0,.312.012.6.012.8,0,.828-.588,1.044-1.272,1.044C-34.368,23.712-34.848,23.292-34.848,22.74Zm3.8-8.268h-1.02a6.585,6.585,0,0,1,.048.72v.852h-.552a21.8,21.8,0,0,1-3.072-.264l.012.888c.756.084,2.232.2,3.072.2h.528v1.68h-.648a22.2,22.2,0,0,1-3.024-.228l.012.9c.864.1,2.184.168,3,.168H-32c.012.516.036,1.092.048,1.632a6.873,6.873,0,0,0-1.008-.072c-1.728,0-2.772.744-2.772,1.836,0,1.152.936,1.764,2.664,1.764,1.56,0,2.112-.852,2.112-1.68,0-.192-.012-.444-.024-.744a8.847,8.847,0,0,1,2.9,1.812l.552-.852a9.549,9.549,0,0,0-3.5-1.872c-.024-.576-.06-1.224-.084-1.848,1.14-.036,2.2-.132,3.324-.276l.012-.9a29.86,29.86,0,0,1-3.348.324v-1.68c1.152-.06,2.292-.168,3.24-.276l.012-.876a29.837,29.837,0,0,1-3.252.324c0-.312.012-.576.012-.732A6.007,6.007,0,0,1-31.044,14.472Zm7.032,1.632.108,1.044c1.3-.276,4.356-.564,5.64-.708A4.874,4.874,0,0,0-20.508,20.5c0,2.676,2.532,3.864,4.752,3.948l.348-1c-1.956-.072-4.14-.816-4.14-3.156a4.224,4.224,0,0,1,2.748-3.8,10.051,10.051,0,0,1,2.352-.192v-.96c-.8.036-1.932.108-3.24.216-2.208.18-4.476.408-5.256.492C-23.172,16.068-23.556,16.092-24.012,16.1Zm7.836,1.668-.612.264a11.14,11.14,0,0,1,.984,1.692l.612-.288A14.243,14.243,0,0,0-16.176,17.772Zm1.308-.5-.588.276a11.122,11.122,0,0,1,1.008,1.68l.624-.3A15.849,15.849,0,0,0-14.868,17.268ZM-8.34,19.44a7.973,7.973,0,0,0-2.388-5.712l-.72.372a7.509,7.509,0,0,1,2.232,5.34,7.509,7.509,0,0,1-2.232,5.34l.72.372A7.973,7.973,0,0,0-8.34,19.44Z" transform="translate(610 6602)"/>
    </g>
  </g>
</svg>
