<svg xmlns="http://www.w3.org/2000/svg" width="450" height="447" viewBox="0 0 450 447">
  <g id="グループ_970" data-name="グループ 970" transform="translate(-710 -6224)">
    <rect id="長方形_166" data-name="長方形 166" width="450" height="447" transform="translate(710 6224)" fill="#f7f7f7"/>
    <g id="グループ_952" data-name="グループ 952">
      <g id="グループ_953" data-name="グループ 953">
        <g id="グループ_902" data-name="グループ 902">
          <g id="グループ_896" data-name="グループ 896">
            <g id="グループ_901" data-name="グループ 901">
              <line id="線_28" data-name="線 28" y2="156" transform="translate(927.5 6463.5)" fill="none" stroke="#707070" stroke-width="1"/>
              <g id="グループ_175" data-name="グループ 175" transform="translate(-217 358)">
                <path id="パス_12408" data-name="パス 12408" d="M10.738-3.738H4.662V-4.7h6.076ZM4.662-.28V-1.316h6.076V-.28Zm6.076-1.764H4.662v-.98h6.076ZM13.132-6.5v-.868H5.8c.168-.336.322-.686.462-1.022H12.32v-.84H6.552c.112-.35.224-.686.322-1.036a38.223,38.223,0,0,0,5.306-.588l-.658-.756a64.007,64.007,0,0,1-9.828.7,2.692,2.692,0,0,1,.21.8c1.2,0,2.52-.028,3.822-.1-.084.336-.182.658-.294.98H1.89v.84H5.124a10.962,10.962,0,0,1-.462,1.022H.868V-6.5h3.3A10.261,10.261,0,0,1,.532-2.828a4.466,4.466,0,0,1,.644.8A11.165,11.165,0,0,0,3.668-4.088V1.106h.994V.56h6.076v.546H11.76V-5.53H4.788c.21-.308.392-.644.574-.966Zm6.678-4.732H16.366v.84H19.81ZM20.2-9.394H15.708v.854H20.2ZM18.97-2.926V-.588H17.108V-2.926Zm.868-.854h-3.57V.91h.84V.252h2.73ZM16.282-4.816h3.556v-.84H16.282Zm0-1.862h3.556V-7.5H16.282Zm9.17-3.374V-9.3l-.854-.2A8.644,8.644,0,0,1,24.122-8.4H22.274q.252-.441.462-.882h.616v-.77Zm-1.26,3.038H22.3v-.658h1.89Zm0,1.288H22.3V-6.4h1.89Zm0,1.316H22.3v-.7h1.89ZM21.364-3.7h6.972V-4.41h-3.22v-.7h2.562v-.616H25.116V-6.4h2.562v-.616H25.116v-.658h2.9V-8.4h-2.94c.154-.266.308-.574.462-.882H26.4v-.77h1.96v-.784H26.4v-.882h-.952v.882h-2.1v-.882h-.924v.882H20.4v.784h2.03v.644L21.9-9.534A7.654,7.654,0,0,1,19.88-6.776a5.779,5.779,0,0,1,.7.546,7.593,7.593,0,0,0,.784-.84Zm5.012,1.4A5.878,5.878,0,0,1,24.514-.938,5.612,5.612,0,0,1,22.666-2.3Zm.84-.84-.182.042H20.622v.8H22.3l-.56.238A6.6,6.6,0,0,0,23.506-.5,16.048,16.048,0,0,1,19.95.28a3.308,3.308,0,0,1,.448.812A16.073,16.073,0,0,0,24.458,0,13.232,13.232,0,0,0,28,1.064a4.141,4.141,0,0,1,.6-.826,13.7,13.7,0,0,1-3.136-.756,6.082,6.082,0,0,0,2.352-2.3ZM34.37-11.62a14.387,14.387,0,0,1-3.794,5.614,5.958,5.958,0,0,1,.63,1.05A14.2,14.2,0,0,0,32.858-6.8V1.05H33.88V-8.3a20.8,20.8,0,0,0,1.526-3Zm9.17,4.466V-8.162H39.494v-3.36H38.472v3.36H34.538v1.008h3.388a14.222,14.222,0,0,1-3.878,5.726,6.04,6.04,0,0,1,.784.8,15.632,15.632,0,0,0,3.64-5.39v7.1h1.022V-6.314A17,17,0,0,0,43.12-.686a3.729,3.729,0,0,1,.784-.84A14.772,14.772,0,0,1,40.1-7.154Zm14.812-3.934H54.8v.9h2.632v2.52H54.8v.9h3.556ZM48.916-9.814V-6.65h-1.61V-9.814Zm-1.61,7.35V-5.726h1.61v3.262Zm2.478-8.274H46.452v10.3h.854V-1.526h2.478Zm3.542.532v2.562H51.618v-2.562Zm.868,8.456v-.882H51.618V-4.368h2.338V-5.25H51.618v-1.5H54.25v-4.34h-3.6V1.036h.966V-1.75Zm3.22-3.066a8.975,8.975,0,0,1-1.022,2.548,9.862,9.862,0,0,1-.938-2.548Zm.49-.91L57.75-5.7H54.376v.882h1.008l-.714.154a12.734,12.734,0,0,0,1.148,3.178A6.136,6.136,0,0,1,53.424.294a2.841,2.841,0,0,1,.532.756,7.163,7.163,0,0,0,2.38-1.708,5.559,5.559,0,0,0,1.806,1.68,3.751,3.751,0,0,1,.644-.756,5.107,5.107,0,0,1-1.862-1.652,10.16,10.16,0,0,0,1.582-4.172Zm7.272-4.7a.617.617,0,0,0-.612-.612.617.617,0,0,0-.612.612.617.617,0,0,0,.612.612A.617.617,0,0,0,65.176-10.431Zm-3.307-.6-.237.237L64.326-8.1l-2.7,2.7.237.237,2.7-2.7,2.695,2.695.237-.237L64.8-8.1,67.495-10.8l-.237-.237L64.563-8.34Zm.367,2.319a.617.617,0,0,0-.612.612.617.617,0,0,0,.612.612.617.617,0,0,0,.612-.612A.617.617,0,0,0,62.236-8.716ZM66.89-7.491A.617.617,0,0,0,67.5-8.1a.617.617,0,0,0-.612-.612.617.617,0,0,0-.612.612A.617.617,0,0,0,66.89-7.491Zm-2.94,1.715a.617.617,0,0,0,.612.612.617.617,0,0,0,.612-.612.617.617,0,0,0-.612-.612A.617.617,0,0,0,63.951-5.776Z" transform="translate(1014 6121)"/>
                <path id="パス_12409" data-name="パス 12409" d="M11.424-4.716H6.48V-5.892A18.14,18.14,0,0,0,10.4-8.76l-.648-.492L9.54-9.2H1.848v.864H8.6a15.27,15.27,0,0,1-2.472,1.7H5.568v1.92H.612v.888H5.568V-.24c0,.216-.072.276-.336.288S4.092.06,3.132.024a4.228,4.228,0,0,1,.384.912A8.891,8.891,0,0,0,5.88.78c.444-.144.6-.42.6-1.02V-3.828h4.944ZM16.332-9.18l-.948.4c.564,1.3,1.2,2.7,1.752,3.7-1.3.888-2.076,1.86-2.076,3.108,0,1.8,1.62,2.472,3.876,2.472a22.2,22.2,0,0,0,3.792-.3L22.74-.876a17.855,17.855,0,0,1-3.84.408c-1.9,0-2.844-.624-2.844-1.62,0-.912.672-1.7,1.788-2.424a34.967,34.967,0,0,1,3.324-1.836c.348-.18.648-.336.912-.492l-.48-.876a7.494,7.494,0,0,1-.852.564c-.66.372-1.752.9-2.808,1.536A27.355,27.355,0,0,1,16.332-9.18Zm5.952-.12-.648.276a12.4,12.4,0,0,1,.984,1.668l.648-.288A17.211,17.211,0,0,0,22.284-9.3Zm1.32-.48-.636.264A12.188,12.188,0,0,1,23.976-7.86l.636-.288A13.953,13.953,0,0,0,23.6-9.78Zm7.632.348L30.156-9.5a4.117,4.117,0,0,1-.012.852c-.024.348-.072.78-.132,1.26a11.9,11.9,0,0,1-2.628-.444l-.048.876a16.55,16.55,0,0,0,2.58.42c-.1.708-.192,1.464-.264,2.172A10.709,10.709,0,0,1,27.1-4.86l-.048.924a11.86,11.86,0,0,0,2.508.432c-.06.564-.1,1.044-.1,1.38C29.46-.156,30.768.552,32.4.552c2.376,0,3.96-1.08,3.96-2.868a3.938,3.938,0,0,0-1.224-2.772l-1.056.216a3.329,3.329,0,0,1,1.308,2.448c0,1.236-1.164,2.04-2.988,2.04a1.754,1.754,0,0,1-2.016-1.884c0-.288.024-.708.072-1.188h.432a21.736,21.736,0,0,0,2.352-.12l.024-.912a17.648,17.648,0,0,1-2.5.156H30.54c.084-.708.18-1.464.264-2.172h.084c.972,0,1.668-.036,2.436-.108l.024-.9a16.182,16.182,0,0,1-2.436.156c.072-.5.132-.924.168-1.236A6.7,6.7,0,0,1,31.236-9.432ZM41.8.672l.816-.7a22.523,22.523,0,0,0-2.688-2.664L39.144-2A19.992,19.992,0,0,1,41.8.672ZM55.272-7.38h-.708V-8.772h.708Zm1.26,3.168-.048-.036c-.012.036-.048.036-.168.036h-.432c-.156,0-.168-.012-.168-.168V-6.624h.816ZM53.22-.672V-1.908h3.312V-.672Zm.828-5.952v.948a2.541,2.541,0,0,1-.816,2.028,1.794,1.794,0,0,1,.4.348,3.13,3.13,0,0,0,.912-2.364v-.96h.672V-4.38c0,.576.144.7.612.7H56.4a.45.45,0,0,0,.132-.012V-2.58H53.22V-6.624ZM52.2-8.772h1.728V-7.38H52.5V.876h.72V.048h3.312v.66h.732V-7.38H55.92V-8.772h1.62v-.8H52.2ZM59.7-.048c-.552,0-.66-.084-.66-.528V-4.9h2.7v.8h.876V-9.5h-4.5v.864H61.74v2.892H58.164V-.576C58.164.516,58.5.792,59.6.792H61.6c1.092,0,1.344-.54,1.464-2.484a2.608,2.608,0,0,1-.828-.384c-.06,1.728-.156,2.028-.684,2.028ZM67.644-10a14.033,14.033,0,0,1-2.808,4.764,7.163,7.163,0,0,1,.5.876A12.461,12.461,0,0,0,66.4-5.7V.936h.852v-8a19.272,19.272,0,0,0,1.224-2.676Zm2.088,4.248V-6.924H71.58v1.176Zm0-3.012H71.58V-7.6H69.732ZM74.3-7.6H72.372V-8.76H74.3Zm0,1.848H72.372V-6.924H74.3ZM75.66-4.1H72.372V-5.04h2.8V-9.468H68.892V-5.04H71.58V-4.1H68.328V.924h.852v-4.26h2.4v1.584c-.756.06-1.452.12-2.016.168l.168.78L73.8-1.272a6.662,6.662,0,0,1,.3.84l.576-.228a9.628,9.628,0,0,0-1.068-2.292l-.54.2c.144.264.288.528.432.828l-1.128.1V-3.336h2.46V-.024c0,.168-.06.2-.24.216S73.8.216,73.1.18a2.949,2.949,0,0,1,.252.756A6.081,6.081,0,0,0,75.216.8c.348-.132.444-.348.444-.816Zm7.416-2.1V-7.74H85.74A18.971,18.971,0,0,1,83.916-6.2Zm3.252,4h-4.86V-3.4h4.86ZM81.468-.252V-1.5h4.86V-.252ZM88.7-5.4v-.8H85.248a18.2,18.2,0,0,0,2.916-3.012l-.756-.408A14.055,14.055,0,0,1,86.04-8.04v-.492H83.076v-1.5H82.2v1.5H79.14v.792H82.2V-6.2H78.1v.8h4.668a23.68,23.68,0,0,1-4.932,2.376,5.2,5.2,0,0,1,.564.732c.732-.276,1.476-.6,2.2-.948V.912h.876V.528h4.86V.864h.912V-4.152H82.284c.66-.384,1.308-.8,1.932-1.248ZM93.636.672l.816-.7a22.524,22.524,0,0,0-2.688-2.664L90.984-2A19.992,19.992,0,0,1,93.636.672ZM114.768-6.42a22.79,22.79,0,0,0-3.444-3.468l-.768.516a22.457,22.457,0,0,1,3.4,3.564Zm-7.656-3.42a11.676,11.676,0,0,1-3.276,3.492,5.533,5.533,0,0,1,.78.708,14.589,14.589,0,0,0,3.444-3.876Zm4.248,3.228a10.016,10.016,0,0,1-2.016,3.564A10.47,10.47,0,0,1,107.316-6.5l-.864.252a12.5,12.5,0,0,0,2.22,3.876A11.9,11.9,0,0,1,103.788.108a5.02,5.02,0,0,1,.648.828,12.887,12.887,0,0,0,4.884-2.628A10.742,10.742,0,0,0,114.2.936,3.8,3.8,0,0,1,114.84.06a10.454,10.454,0,0,1-4.824-2.436,11.47,11.47,0,0,0,2.3-3.948Zm9.648-1.02a10.455,10.455,0,0,1,2.328,1.56l.552-.612a10.4,10.4,0,0,0-2.364-1.488Zm2.664,4.92a10.21,10.21,0,0,0-2.556-1.728l-.552.528a10.456,10.456,0,0,1,2.52,1.788Zm-4.824.816c.156-.912.324-1.944.48-3h6c-.084,1.284-.168,2.268-.264,3Zm6.66-6.744c-.036,1.1-.084,2.076-.132,2.928h-5.928c.144-1,.288-2,.4-2.928ZM127.8-4.9v-.816h-1.536c.06-.936.108-2.016.156-3.24,0-.132.012-.5.012-.5H119.04c-.132,1.128-.3,2.436-.492,3.744h-1.776V-4.9h1.656c-.264,1.728-.552,3.4-.8,4.6l.924.084c.048-.264.108-.552.156-.864h6.216a2.207,2.207,0,0,1-.372,1.008.528.528,0,0,1-.5.228c-.288,0-.888-.012-1.6-.084a2.214,2.214,0,0,1,.24.8A11.807,11.807,0,0,0,124.4.888a1.171,1.171,0,0,0,.972-.54,3.278,3.278,0,0,0,.48-1.428h1.632V-1.9h-1.512c.084-.756.168-1.74.252-3ZM132.516.672l.816-.7a22.523,22.523,0,0,0-2.688-2.664l-.78.684A19.992,19.992,0,0,1,132.516.672ZM5.3,20.676c-.252-.276-1.248-1.212-1.776-1.656a11.24,11.24,0,0,0,1.428-2.532l-.492-.324-.156.036H3.324V13.968H2.448V16.2H.708v.816H3.84A10.41,10.41,0,0,1,.276,20.952a4,4,0,0,1,.456.8,11.036,11.036,0,0,0,1.716-1.464v4.62h.876V19.824A18.451,18.451,0,0,1,4.752,21.4Zm1.368.768H9.708V23.76H6.672Zm3.036-5.952v2.16H6.672v-2.16ZM6.672,18.444H9.708v2.208H6.672Zm3.912,5.316V14.7H5.82v9.06H4.332v.816h7.2V23.76Zm13.824-6.18a22.79,22.79,0,0,0-3.444-3.468l-.768.516a22.457,22.457,0,0,1,3.4,3.564Zm-7.656-3.42a11.676,11.676,0,0,1-3.276,3.492,5.533,5.533,0,0,1,.78.708A14.589,14.589,0,0,0,17.7,14.484ZM21,17.388a10.015,10.015,0,0,1-2.016,3.564A10.47,10.47,0,0,1,16.956,17.5l-.864.252a12.5,12.5,0,0,0,2.22,3.876,11.9,11.9,0,0,1-4.884,2.484,5.02,5.02,0,0,1,.648.828,12.887,12.887,0,0,0,4.884-2.628,10.743,10.743,0,0,0,4.884,2.628,3.8,3.8,0,0,1,.636-.876,10.454,10.454,0,0,1-4.824-2.436,11.47,11.47,0,0,0,2.3-3.948Zm9.648-1.02a10.455,10.455,0,0,1,2.328,1.56l.552-.612a10.4,10.4,0,0,0-2.364-1.488Zm2.664,4.92a10.21,10.21,0,0,0-2.556-1.728l-.552.528a10.456,10.456,0,0,1,2.52,1.788Zm-4.824.816c.156-.912.324-1.944.48-3h6c-.084,1.284-.168,2.268-.264,3Zm6.66-6.744c-.036,1.1-.084,2.076-.132,2.928H29.088c.144-1,.288-2,.4-2.928ZM37.44,19.1v-.816H35.9c.06-.936.108-2.016.156-3.24,0-.132.012-.5.012-.5H28.68c-.132,1.128-.3,2.436-.492,3.744H26.412V19.1h1.656c-.264,1.728-.552,3.4-.8,4.6l.924.084c.048-.264.108-.552.156-.864H34.56a2.207,2.207,0,0,1-.372,1.008.528.528,0,0,1-.5.228c-.288,0-.888-.012-1.6-.084a2.214,2.214,0,0,1,.24.8,11.807,11.807,0,0,0,1.716.012,1.171,1.171,0,0,0,.972-.54,3.278,3.278,0,0,0,.48-1.428h1.632V22.1H35.616c.084-.756.168-1.74.252-3Zm9.78.336a7.973,7.973,0,0,0,2.388,5.712l.72-.372a7.5,7.5,0,0,1,0-10.68l-.72-.372A7.973,7.973,0,0,0,47.22,19.44Zm8.412-2.82h-.708V15.228h.708Zm1.26,3.168-.048-.036c-.012.036-.048.036-.168.036h-.432c-.156,0-.168-.012-.168-.168V17.376h.816Zm-3.312,3.54V22.092h3.312v1.236Zm.828-5.952v.948a2.541,2.541,0,0,1-.816,2.028,1.794,1.794,0,0,1,.4.348,3.13,3.13,0,0,0,.912-2.364v-.96h.672V19.62c0,.576.144.7.612.7h.576a.45.45,0,0,0,.132-.012V21.42H53.58V17.376ZM52.56,15.228h1.728V16.62H52.86v8.256h.72v-.828h3.312v.66h.732V16.62H56.28V15.228H57.9v-.8H52.56Zm7.5,8.724c-.552,0-.66-.084-.66-.528V19.1h2.7v.8h.876V14.5h-4.5v.864H62.1v2.892H58.524v5.172c0,1.092.336,1.368,1.44,1.368h1.992c1.092,0,1.344-.54,1.464-2.484a2.608,2.608,0,0,1-.828-.384c-.06,1.728-.156,2.028-.684,2.028ZM68,14A14.033,14.033,0,0,1,65.2,18.768a7.163,7.163,0,0,1,.5.876A12.461,12.461,0,0,0,66.756,18.3v6.636h.852v-8a19.272,19.272,0,0,0,1.224-2.676Zm2.088,4.248V17.076H71.94v1.176Zm0-3.012H71.94V16.4H70.092ZM74.664,16.4H72.732V15.24h1.932Zm0,1.848H72.732V17.076h1.932ZM76.02,19.9H72.732V18.96h2.8V14.532H69.252V18.96H71.94V19.9H68.688v5.028h.852v-4.26h2.4v1.584c-.756.06-1.452.12-2.016.168l.168.78,4.068-.468a6.662,6.662,0,0,1,.3.84l.576-.228a9.628,9.628,0,0,0-1.068-2.292l-.54.2c.144.264.288.528.432.828l-1.128.1V20.664h2.46v3.312c0,.168-.06.2-.24.216s-.792.024-1.488-.012a2.949,2.949,0,0,1,.252.756,6.081,6.081,0,0,0,1.86-.132c.348-.132.444-.348.444-.816Zm7.416-2.1V16.26H86.1A18.972,18.972,0,0,1,84.276,17.8Zm3.252,4h-4.86V20.6h4.86Zm-4.86,1.956V22.5h4.86v1.248ZM89.064,18.6v-.8H85.608a18.2,18.2,0,0,0,2.916-3.012l-.756-.408A14.055,14.055,0,0,1,86.4,15.96v-.492H83.436v-1.5H82.56v1.5H79.5v.792h3.06V17.8h-4.1v.8h4.668a23.68,23.68,0,0,1-4.932,2.376,5.2,5.2,0,0,1,.564.732c.732-.276,1.476-.6,2.2-.948v4.152h.876v-.384h4.86v.336H87.6V19.848H82.644c.66-.384,1.308-.8,1.932-1.248Zm10.512,5.064H93.912V21.516h5.664Zm.048-5.532-.168.06H92.832v.78h6.132c-.312.552-.7,1.212-1.044,1.752H93.036v4.2h.876v-.468h5.664v.468h.912v-4.2H98.964c.468-.744.96-1.608,1.332-2.352ZM94.56,16.44a11.207,11.207,0,0,0,2.112-1.752A11.464,11.464,0,0,0,98.9,16.44Zm1.644-2.5a12.441,12.441,0,0,1-5.016,3.3,3.846,3.846,0,0,1,.5.708,17.194,17.194,0,0,0,2.76-1.44V17.2h4.632v-.648a15.776,15.776,0,0,0,2.676,1.32,4.054,4.054,0,0,1,.54-.744,13.492,13.492,0,0,1-5.256-3.18Zm11.94.54h-1.056a4.717,4.717,0,0,1,.1,1.14v.612c-.168.012-.336.012-.5.012a12.438,12.438,0,0,1-1.9-.168l.048.888a16.721,16.721,0,0,0,1.908.12c.144,0,.288,0,.444-.012v1.188a2.556,2.556,0,0,0-.324-.024,2.176,2.176,0,0,0-1.968,2.364c0,1.392.876,1.9,1.548,1.9a1.986,1.986,0,0,0,.384-.036c-.012.192-.012.384-.012.576,0,.9.348,1.464,2.76,1.464a12.177,12.177,0,0,0,2.484-.24,1.8,1.8,0,0,0,1.56-1.944c.024-.492.012-.8,0-1.3l-1.02-.312a10.27,10.27,0,0,1,.072,1.356,1.225,1.225,0,0,1-1,1.332,9.662,9.662,0,0,1-2.04.216c-1.74,0-1.92-.264-1.92-.924,0-.216.012-.5.024-.756a3.152,3.152,0,0,0,.636-2.04,1.869,1.869,0,0,0-.3-1.068V17.016a19.128,19.128,0,0,0,2.3-.36v-.924a15.551,15.551,0,0,1-2.3.432v-.54A8.925,8.925,0,0,1,108.144,14.484Zm4.2,1.212-.612.624a14.288,14.288,0,0,1,2.34,2.268l.672-.684A13.948,13.948,0,0,0,112.344,15.7Zm-5.808,5.916c-.432,0-.828-.384-.828-1.056,0-.9.5-1.536,1.1-1.536.42,0,.7.348.7.924C107.508,20.748,107.256,21.612,106.536,21.612ZM120.3,19.44a7.973,7.973,0,0,0-2.388-5.712l-.72.372a7.5,7.5,0,0,1,0,10.68l.72.372A7.973,7.973,0,0,0,120.3,19.44Zm12.372,3.3c0-.552.624-1,1.764-1a5.322,5.322,0,0,1,1.164.12c0,.312.012.6.012.8,0,.828-.588,1.044-1.272,1.044C133.152,23.712,132.672,23.292,132.672,22.74Zm3.8-8.268h-1.02a6.585,6.585,0,0,1,.048.72v.852h-.552a21.8,21.8,0,0,1-3.072-.264l.012.888c.756.084,2.232.2,3.072.2h.528v1.68h-.648a22.2,22.2,0,0,1-3.024-.228l.012.9c.864.1,2.184.168,3,.168h.684c.012.516.036,1.092.048,1.632a6.873,6.873,0,0,0-1.008-.072c-1.728,0-2.772.744-2.772,1.836,0,1.152.936,1.764,2.664,1.764,1.56,0,2.112-.852,2.112-1.68,0-.192-.012-.444-.024-.744a8.847,8.847,0,0,1,2.9,1.812l.552-.852a9.549,9.549,0,0,0-3.5-1.872c-.024-.576-.06-1.224-.084-1.848,1.14-.036,2.2-.132,3.324-.276l.012-.9a29.86,29.86,0,0,1-3.348.324v-1.68c1.152-.06,2.292-.168,3.24-.276l.012-.876a29.837,29.837,0,0,1-3.252.324c0-.312.012-.576.012-.732A6,6,0,0,1,136.476,14.472Zm7.032,1.632.108,1.044c1.3-.276,4.356-.564,5.64-.708a4.874,4.874,0,0,0-2.244,4.056c0,2.676,2.532,3.864,4.752,3.948l.348-1c-1.956-.072-4.14-.816-4.14-3.156a4.224,4.224,0,0,1,2.748-3.8,10.051,10.051,0,0,1,2.352-.192v-.96c-.8.036-1.932.108-3.24.216-2.208.18-4.476.408-5.256.492C144.348,16.068,143.964,16.092,143.508,16.1Zm7.836,1.668-.612.264a11.14,11.14,0,0,1,.984,1.692l.612-.288A14.243,14.243,0,0,0,151.344,17.772Zm1.308-.5-.588.276a11.121,11.121,0,0,1,1.008,1.68l.624-.3A15.847,15.847,0,0,0,152.652,17.268Z" transform="translate(959 6257)"/>
                <path id="パス_12410" data-name="パス 12410" d="M19.474-7.046H9.074V-8.528h10.4ZM9.074-.754V-2.34h10.4V-.754Zm0-4.68h10.4v1.482H9.074Zm15.314-6.474v-1.924H11.154c.234-.494.468-1.04.676-1.56h11.1v-1.9H12.48c.182-.546.364-1.066.52-1.612a89.754,89.754,0,0,0,9.75-1.014l-1.456-1.742c-4.212.78-11.882,1.144-18.174,1.17a5.679,5.679,0,0,1,.468,1.846c2.158,0,4.446-.052,6.734-.13-.13.494-.26.988-.442,1.482H3.458v1.9H9.23c-.234.52-.468,1.066-.728,1.56H1.612v1.924h5.85A18.055,18.055,0,0,1,.91-5.408a9.561,9.561,0,0,1,1.482,1.9A19.228,19.228,0,0,0,6.76-6.994V2.132H9.074V1.144h10.4v.988h2.418V-10.4H9.36c.312-.494.572-.988.858-1.508Zm12.428-9.048H30.342v1.9h6.474Zm.728,3.432H29.12V-15.6h8.424ZM34.892-5.07v3.744H32.058V-5.07Zm1.95-1.95H30.134V1.716h1.924V.572h4.784ZM30.186-8.632h6.682v-1.9H30.186Zm0-5.356v1.872h6.682v-1.872Zm16.874-4.6v1.2l-1.482-.26a14.292,14.292,0,0,1-.754,1.9H41.7c.26-.494.494-.988.728-1.482h1.144V-18.59Zm-2.21,5.434H41.73V-14.17h3.12Zm0,2.366H41.73v-1.04h3.12Zm0,2.392H41.73V-9.49h3.12ZM39.6-6.812H52.65V-8.4H46.956V-9.49h4.5v-1.3h-4.5v-1.04h4.5v-1.326h-4.5V-14.17h5.07v-1.586H46.982c.26-.442.52-.962.78-1.482H49.27V-18.59H52.7v-1.742H49.27V-21.84H47.06v1.508H43.576V-21.84H41.418v1.508H37.882v1.742h3.536v1.066l-.936-.234a13.6,13.6,0,0,1-3.614,5.018,9.722,9.722,0,0,1,1.586,1.274A12.93,12.93,0,0,0,39.6-12.688ZM48.49-4.056a11.7,11.7,0,0,1-3.068,2.132,10.678,10.678,0,0,1-3.068-2.132Zm1.976-1.872-.39.078h-11.8v1.794h3.3L40.2-3.51A12.572,12.572,0,0,0,43.108-.988,30.037,30.037,0,0,1,37.024.26a7.013,7.013,0,0,1,.988,1.846,32.251,32.251,0,0,0,7.332-1.9,24.773,24.773,0,0,0,6.448,1.82A8.035,8.035,0,0,1,53.17.13a30.869,30.869,0,0,1-5.434-1.144A11.592,11.592,0,0,0,51.87-5.2Zm14.768-8.944A34.806,34.806,0,0,1,63.8-8.84c-1.248-1.508-2.548-3.016-3.8-4.316l-1.69,1.378A67.568,67.568,0,0,1,62.764-6.37,15.13,15.13,0,0,1,56.992-.026,13.4,13.4,0,0,1,58.63,1.846a17.587,17.587,0,0,0,5.616-6.11,26.264,26.264,0,0,1,2.028,3.51l1.95-1.638a31.782,31.782,0,0,0-2.782-4.342A35.249,35.249,0,0,0,67.6-14.56Zm15.808-.962H78.1v-5.98H75.712v5.98H69.706V-17.68H64.688v-4.108h-2.34v4.108H57.616v2.236H68.9v1.95h6.812v12.4c0,.442-.182.572-.624.572-.442.026-1.846.026-3.406-.026a11.175,11.175,0,0,1,.78,2.574,12.279,12.279,0,0,0,4.472-.494C77.766,1.092,78.1.39,78.1-1.092v-12.4h2.938ZM73.762-5.486a19.55,19.55,0,0,0-2.834-5.59l-1.976.936a21.647,21.647,0,0,1,2.73,5.694ZM90.714-14.82h5.278v2.548H90.714Zm7.41-3.484a16.22,16.22,0,0,1-1.3,1.69h-5.85c.624-.546,1.222-1.118,1.768-1.69Zm5.85,6.032H98.358V-14.82h5.616Zm2.5,2.028a38.779,38.779,0,0,1-4.94,3.3,17.872,17.872,0,0,1-1.586-3.51h6.422v-6.162H99.658a24.977,24.977,0,0,0,1.846-2.548l-1.638-1.066-.39.1H94.3c.338-.416.65-.858.936-1.274l-2.5-.52a20.492,20.492,0,0,1-7.176,6.4,6.766,6.766,0,0,1,1.638,1.69c.442-.26.858-.546,1.248-.806v4.186H94.2A42.243,42.243,0,0,1,85.982-8.06,14.494,14.494,0,0,1,87.23-6.318a51.023,51.023,0,0,0,6.006-1.846,9.869,9.869,0,0,1,1.144.806,29.824,29.824,0,0,1-8.294,2.964,11.46,11.46,0,0,1,1.3,1.664,29.334,29.334,0,0,0,8.268-3.458,7.138,7.138,0,0,1,.832,1.014A31,31,0,0,1,85.618-.338a9.288,9.288,0,0,1,1.4,1.794,34.6,34.6,0,0,0,10.3-4.966c.468,1.43.156,2.626-.6,3.12a2.466,2.466,0,0,1-1.638.416c-.6,0-1.482-.026-2.34-.1a5.172,5.172,0,0,1,.65,2.158c.754.026,1.508.052,2.08.052a4.5,4.5,0,0,0,2.756-.754c2.6-1.664,2.366-6.916-2.886-10.426a23.935,23.935,0,0,0,2.444-1.326c1.69,5.59,4.784,9.672,9.776,11.648a9.343,9.343,0,0,1,1.56-2.028,13.642,13.642,0,0,1-6.552-4.654,47.205,47.205,0,0,0,5.824-3.406Zm18.33-3.51v-2.912h5.1a37.13,37.13,0,0,1-3.406,2.912Zm6.448,8.762h-9.8V-7.15h9.8Zm-9.8,4.186V-3.094h9.8V-.806ZM136.838-11.6v-2.158h-6.812a37.6,37.6,0,0,0,5.746-6.136l-2.08-1.092a28.479,28.479,0,0,1-2.834,3.354v-1.144H124.8v-3.042h-2.392v3.042h-6.344v2.106h6.344v2.912H113.8V-11.6h9.516a46.662,46.662,0,0,1-10.166,4.784,13.256,13.256,0,0,1,1.482,2c1.482-.572,2.964-1.2,4.42-1.872V2.054h2.392V1.248h9.8v.7h2.5v-11.1H123.656c1.248-.78,2.47-1.56,3.64-2.444ZM4.654,22.58H21.4v3.2h2.444V20.37h-9.62V18.186h-2.5V20.37H2.262v5.408H4.654Zm17.134,4.836A33.791,33.791,0,0,1,17.6,30.588a24.634,24.634,0,0,1-1.378-3.744h3.822v-2.08H5.824v2.08h4.784A31.126,31.126,0,0,1,2.08,30.016a11.924,11.924,0,0,1,1.274,1.872A38.813,38.813,0,0,0,9.62,29.574a8.073,8.073,0,0,1,.962.91A28.085,28.085,0,0,1,2.34,34.2a8.577,8.577,0,0,1,1.222,1.872A39.259,39.259,0,0,0,11.7,31.94q.39.663.7,1.326A29.215,29.215,0,0,1,1.43,38.856a11.794,11.794,0,0,1,1.274,2,37.726,37.726,0,0,0,10.348-5.512c.312,1.846-.078,3.406-.858,3.978a2.234,2.234,0,0,1-1.716.52,22.24,22.24,0,0,1-2.418-.13,5.836,5.836,0,0,1,.676,2.314c.806.052,1.586.078,2.236.078a4.08,4.08,0,0,0,2.912-.962c2.522-1.82,2.626-8.346-2.288-12.636a16.25,16.25,0,0,0,2.392-1.664h.052c1.56,6.084,4.368,10.946,9.152,13.26A8.853,8.853,0,0,1,24.882,38a13.314,13.314,0,0,1-6.266-5.59,39.971,39.971,0,0,0,5.07-3.38Zm12.4.52c.052-1.066.078-2.158.1-3.25h5.174a8.945,8.945,0,0,1-.78.91,11.216,11.216,0,0,1,1.9,1.326,18.231,18.231,0,0,0,2.21-3.3h9.932V21.41H43.862a24.771,24.771,0,0,0,.988-2.756l-2.184-.52a20.422,20.422,0,0,1-2.808,6.032V22.424H36.14V18.212H33.8v4.212H29.276v2.262h2.73c-.1,6.11-.39,12.194-3.094,15.73a7.449,7.449,0,0,1,1.716,1.664c2.236-2.912,3.094-7.2,3.432-11.934h2.912c-.26,6.448-.546,8.814-1.014,9.412a.8.8,0,0,1-.78.338c-.39,0-1.2,0-2.132-.078a5.242,5.242,0,0,1,.624,2.21,13.841,13.841,0,0,0,2.626-.052,2.08,2.08,0,0,0,1.638-.936c.728-.936,1.04-3.874,1.326-12.064.026-.312.026-1.04.026-1.04Zm18.59,6.37V32.122H47.762v-3.3h4.576V26.662h-7.67c.26-.7.468-1.4.676-2.106l-2.236-.52a14.958,14.958,0,0,1-2.886,6.214,11.967,11.967,0,0,1,1.9,1.248,15.2,15.2,0,0,0,1.612-2.678h1.742v3.3H40.2v2.184h4.992c-.494,2.08-1.924,4.368-5.8,6.084a9.22,9.22,0,0,1,1.56,1.638,11.767,11.767,0,0,0,5.9-5.642A11.218,11.218,0,0,0,51.9,42.028,7.443,7.443,0,0,1,53.4,40.182a9.906,9.906,0,0,1-5.3-5.876Zm10.348,2.86c0-1.04,1.2-1.9,3.406-1.9A11.779,11.779,0,0,1,68.9,35.5c.026.572.026,1.092.026,1.456,0,1.664-1.118,2.106-2.574,2.106C64.116,39.064,63.128,38.284,63.128,37.166ZM71.318,19.2H68.536a8.532,8.532,0,0,1,.13,1.638v1.586H67.548a47.107,47.107,0,0,1-6.526-.572l.026,2.366c1.69.208,4.81.468,6.526.468H68.64v3.2H67.314a50.83,50.83,0,0,1-6.422-.468l.026,2.444c1.794.208,4.68.338,6.344.338h1.43c.026.962.078,2.028.1,3.042-.624-.052-1.248-.1-1.924-.1-3.874,0-6.188,1.69-6.188,4.186,0,2.6,2.106,4.056,6.006,4.056,3.406,0,4.836-1.794,4.836-3.77,0-.364-.026-.806-.052-1.352a19.991,19.991,0,0,1,5.824,3.8l1.508-2.314a20.876,20.876,0,0,0-7.462-3.978c-.052-1.17-.13-2.418-.182-3.614,2.5-.1,4.654-.286,7.046-.572l.026-2.418c-2.262.312-4.55.546-7.124.65V24.582c2.522-.1,4.94-.338,6.864-.572V21.618a57.127,57.127,0,0,1-6.838.728c.026-.572.026-1.066.052-1.378C71.214,20.24,71.266,19.668,71.318,19.2ZM86.19,22.58l.26,2.834c2.912-.624,8.97-1.248,11.6-1.508a10.429,10.429,0,0,0-4.42,8.45c0,5.72,5.33,8.45,10.426,8.71l.936-2.782c-4.29-.182-8.71-1.768-8.71-6.5a8.621,8.621,0,0,1,5.746-7.826,25.055,25.055,0,0,1,5.07-.364V20.968c-1.794.052-4.394.208-7.176.442-4.784.416-9.412.858-11.31,1.04C88.088,22.5,87.178,22.554,86.19,22.58Zm17.16,3.9-1.56.676a24.586,24.586,0,0,1,2.08,3.64l1.612-.728A36.3,36.3,0,0,0,103.35,26.48Zm2.886-1.118-1.56.7a24.4,24.4,0,0,1,2.184,3.588l1.586-.754A37.556,37.556,0,0,0,106.236,25.362Z" transform="translate(978 6182)" fill="#1778b1"/>
                <g id="グループ_187" data-name="グループ 187" transform="translate(956 6105)">
                  <rect id="長方形_81" data-name="長方形 81" width="5.753" height="2.685" transform="translate(0 20.015)" fill="#1778b1"/>
                  <rect id="長方形_82" data-name="長方形 82" width="5.752" height="2.685" transform="translate(36.964 20.015)" fill="#1778b1"/>
                  <path id="パス_84" data-name="パス 84" d="M26.248,338.462l1.343,2.327,4.982-2.877-1.343-2.326Z" transform="translate(-24.058 -307.588)" fill="#1778b1"/>
                  <path id="パス_85" data-name="パス 85" d="M416.271,116.383l-1.343-2.326-4.982,2.877,1.343,2.326Z" transform="translate(-375.745 -104.541)" fill="#1778b1"/>
                  <path id="パス_86" data-name="パス 86" d="M114.065,414.929l2.326,1.343,2.877-4.982-2.326-1.343Z" transform="translate(-104.549 -375.745)" fill="#1778b1"/>
                  <path id="パス_87" data-name="パス 87" d="M340.8,27.591l-2.327-1.343L335.6,31.23l2.326,1.343Z" transform="translate(-307.597 -24.058)" fill="#1778b1"/>
                  <rect id="長方形_83" data-name="長方形 83" width="2.685" height="5.752" transform="translate(20.016 36.964)" fill="#1778b1"/>
                  <rect id="長方形_84" data-name="長方形 84" width="2.685" height="5.752" transform="translate(20.016 0)" fill="#1778b1"/>
                  <path id="パス_88" data-name="パス 88" d="M335.6,411.29l2.875,4.982,2.327-1.343-2.877-4.982Z" transform="translate(-307.597 -375.745)" fill="#1778b1"/>
                  <path id="パス_89" data-name="パス 89" d="M119.267,31.23l-2.877-4.982-2.326,1.343,2.877,4.982Z" transform="translate(-104.549 -24.058)" fill="#1778b1"/>
                  <path id="パス_90" data-name="パス 90" d="M409.947,337.912l4.982,2.877,1.343-2.327-4.982-2.876Z" transform="translate(-375.745 -307.588)" fill="#1778b1"/>
                  <path id="パス_91" data-name="パス 91" d="M32.572,116.934l-4.982-2.877-1.343,2.326,4.982,2.877Z" transform="translate(-24.058 -104.541)" fill="#1778b1"/>
                  <path id="パス_92" data-name="パス 92" d="M112.956,99.926a13.021,13.021,0,1,0,13.021,13.021A13.021,13.021,0,0,0,112.956,99.926Z" transform="translate(-91.597 -91.589)" fill="#1778b1"/>
                </g>
              </g>
              <g id="グループ_182" data-name="グループ 182" transform="translate(859.896 6277.317)">
                <path id="パス_176" data-name="パス 176" d="M177.687,94.776a11.314,11.314,0,1,0-13.763-8.158A11.311,11.311,0,0,0,177.687,94.776Z" transform="translate(-112.62 -53.552)" fill="#1778b1"/>
                <path id="パス_177" data-name="パス 177" d="M142.576,285.288l-.764,8.008a24.35,24.35,0,0,1,3.684,3,23.96,23.96,0,1,1-39.948,23.582l-4.082,9a31.282,31.282,0,1,0,41.109-43.592Z" transform="translate(-66.748 -210.732)" fill="#1778b1"/>
                <path id="パス_178" data-name="パス 178" d="M68.352,215.5l2.873-30.095c.463-5.076-2.6-9.526-7.673-9.989a11.449,11.449,0,0,0-8.794,3.508L40.626,192.835l-14.788,1.243a4.587,4.587,0,0,0-4.2,4.569v.277a4.589,4.589,0,0,0,4.589,4.587H41.458a6.68,6.68,0,0,0,3.975-1.309l6.161-4.547-1.327,14.677-19.317,1.41c-5.608.222-8.081,2.47-10.191,7.5L11.642,246.3a6.1,6.1,0,0,0,11.128,5l10.274-21.944h19.7C62.652,229.245,67.334,225.085,68.352,215.5Z" transform="translate(0 -129.549)" fill="#1778b1"/>
                <path id="パス_179" data-name="パス 179" d="M385.432,22.279a11.315,11.315,0,1,0-13.765-8.158A11.311,11.311,0,0,0,385.432,22.279Z" transform="translate(-266.072 0)" fill="#1778b1"/>
                <path id="パス_180" data-name="パス 180" d="M330.961,151.8,325.82,111.8c-1.315-9.969-12.856-12.329-19.417-6.3l-16,14.432-15.315,5.761a4.711,4.711,0,0,0-2.874,5.822l.055.184a4.716,4.716,0,0,0,5.565,3.193l11.793-3.233a21.139,21.139,0,0,0,7.073-3.072l5.771-3.54,3.229,25.185c.18,1.388-2.346,7.563-2.756,9.051l-12.921,40.3a6.026,6.026,0,0,0,3.856,7.574l.218.069a6.028,6.028,0,0,0,7.434-3.377l14.527-35.19,3.5,35.143a6.028,6.028,0,0,0,6.5,5.478l.23-.02a6.029,6.029,0,0,0,5.529-6.006Z" transform="translate(-192.711 -75.498)" fill="#1778b1"/>
              </g>
              <g id="グループ_895" data-name="グループ 895">
                <path id="パス_12411" data-name="パス 12411" d="M2.282-9.506H11.76v1.792h1.064v-2.758H7.5V-11.7H6.468v1.232H1.26v2.758H2.282Zm9.562,2.772A20.841,20.841,0,0,1,9.31-4.872a12.633,12.633,0,0,1-.9-2.338h2.464v-.9H3.052v.9H6.034A16.888,16.888,0,0,1,1.176-5.264a6.134,6.134,0,0,1,.574.812,21.944,21.944,0,0,0,3.43-1.33c.238.21.448.42.644.63A15.544,15.544,0,0,1,1.274-3a4.424,4.424,0,0,1,.56.812A19.918,19.918,0,0,0,6.3-4.522a5.114,5.114,0,0,1,.49.9A16,16,0,0,1,.784-.448,4.74,4.74,0,0,1,1.33.42,19.682,19.682,0,0,0,7.1-2.716a2.617,2.617,0,0,1-.462,2.59A1.357,1.357,0,0,1,5.67.14a12.512,12.512,0,0,1-1.3-.07,2.451,2.451,0,0,1,.294.994c.448.028.882.042,1.218.028A2.1,2.1,0,0,0,7.364.63c1.372-.952,1.344-4.55-1.33-6.86a9.853,9.853,0,0,0,1.428-.98H7.49c.868,3.318,2.492,5.978,5.138,7.182a4.466,4.466,0,0,1,.714-.9,7.466,7.466,0,0,1-3.6-3.15,22.5,22.5,0,0,0,2.9-1.974Zm16.534-2.2v-.952h-5a16,16,0,0,0,.588-1.624l-.952-.224a10.231,10.231,0,0,1-2.156,4.1,8,8,0,0,1,.84.574,10.882,10.882,0,0,0,1.232-1.876ZM18.27-6.454c.028-.644.042-1.3.056-1.96h3.15V-9.38h-2.17v-2.31h-.98v2.31H15.778v.966h1.568C17.29-5.026,17.108-1.54,15.582.392a2.736,2.736,0,0,1,.756.686C17.57-.49,18.018-2.884,18.214-5.5h1.834c-.154,3.766-.322,5.138-.588,5.474a.443.443,0,0,1-.434.182A11.571,11.571,0,0,1,17.808.1a2.573,2.573,0,0,1,.28.952,9.043,9.043,0,0,0,1.386,0A1.083,1.083,0,0,0,20.314.6c.392-.5.56-2.058.728-6.566.014-.154.028-.49.028-.49ZM28.378-3.178V-4.1H25.494c.014-.168.014-.322.014-.476V-6.16h2.646V-7.1H23.772c.154-.42.294-.868.406-1.3l-.952-.224a8.418,8.418,0,0,1-1.6,3.5,7.032,7.032,0,0,1,.826.546A8.413,8.413,0,0,0,23.38-6.16h1.134v1.568c0,.154,0,.322-.014.49H21.546v.924h2.842c-.252,1.2-1.022,2.52-3.248,3.528a3.861,3.861,0,0,1,.658.714A6.157,6.157,0,0,0,25.144-2.3a6.1,6.1,0,0,0,2.9,3.346,4.065,4.065,0,0,1,.672-.8,5.441,5.441,0,0,1-3-3.43ZM34.37-11.62a14.387,14.387,0,0,1-3.794,5.614,5.958,5.958,0,0,1,.63,1.05A14.2,14.2,0,0,0,32.858-6.8V1.05H33.88V-8.3a20.8,20.8,0,0,0,1.526-3Zm9.17,4.466V-8.162H39.494v-3.36H38.472v3.36H34.538v1.008h3.388a14.222,14.222,0,0,1-3.878,5.726,6.04,6.04,0,0,1,.784.8,15.632,15.632,0,0,0,3.64-5.39v7.1h1.022V-6.314A17,17,0,0,0,43.12-.686a3.729,3.729,0,0,1,.784-.84A14.772,14.772,0,0,1,40.1-7.154Zm14.812-3.934H54.8v.9h2.632v2.52H54.8v.9h3.556ZM48.916-9.814V-6.65h-1.61V-9.814Zm-1.61,7.35V-5.726h1.61v3.262Zm2.478-8.274H46.452v10.3h.854V-1.526h2.478Zm3.542.532v2.562H51.618v-2.562Zm.868,8.456v-.882H51.618V-4.368h2.338V-5.25H51.618v-1.5H54.25v-4.34h-3.6V1.036h.966V-1.75Zm3.22-3.066a8.975,8.975,0,0,1-1.022,2.548,9.862,9.862,0,0,1-.938-2.548Zm.49-.91L57.75-5.7H54.376v.882h1.008l-.714.154a12.734,12.734,0,0,0,1.148,3.178A6.136,6.136,0,0,1,53.424.294a2.841,2.841,0,0,1,.532.756,7.163,7.163,0,0,0,2.38-1.708,5.559,5.559,0,0,0,1.806,1.68,3.751,3.751,0,0,1,.644-.756,5.107,5.107,0,0,1-1.862-1.652,10.16,10.16,0,0,0,1.582-4.172ZM65.548-8.75h2.828V-9.7H65.548v-1.96h-.994V-9.7H63.07c.154-.476.294-.994.42-1.484l-.98-.2A11.034,11.034,0,0,1,61.11-7.7a6.107,6.107,0,0,1,.924.392,10.7,10.7,0,0,0,.7-1.442h1.82v1.47h-3.4v.952h3.4v1.4H61.8V-.07h.952V-3.976h1.806V1.05h.994V-3.976H67.48V-1.12c0,.14-.042.182-.2.182s-.6.014-1.2,0a3.179,3.179,0,0,1,.308.91A4.325,4.325,0,0,0,68.012-.2c.35-.168.42-.434.42-.91V-4.928H65.548v-1.4h3.374V-7.28H65.548Zm5.362-1.694h-.98v7.7h.98Zm1.5-1.12V-.35c0,.238-.07.294-.294.308s-1.022,0-1.848-.028A6.046,6.046,0,0,1,70.6,1.022a6.887,6.887,0,0,0,2.24-.21c.42-.182.574-.49.574-1.176v-11.2ZM88.76-9.38v-.952H83.538V-11.7H82.474v1.372H77.336v4c0,2.016-.1,4.844-1.246,6.832a4.025,4.025,0,0,1,.854.588c1.2-2.114,1.372-5.264,1.372-7.42V-9.38ZM85.4-6.958v1.47H82.012v-1.47Zm1.008,2.31v-2.31h2.254v-.854H86.408V-9.03H85.4v1.218H82.012V-9.03h-.994v1.218H78.792v.854h2.226v2.31Zm-.224,1.736a6.434,6.434,0,0,1-2.366,1.778A6.271,6.271,0,0,1,81.55-2.912Zm.868-.9-.182.042H78.96v.854h2.156l-.56.21a7.044,7.044,0,0,0,2.2,2,18.991,18.991,0,0,1-4.312.9,3.6,3.6,0,0,1,.434.868A18.962,18.962,0,0,0,83.8-.14,15.97,15.97,0,0,0,88.41,1.092a3.086,3.086,0,0,1,.6-.882A17.8,17.8,0,0,1,84.9-.672,6.915,6.915,0,0,0,87.71-3.458Z" transform="translate(1011 6479)"/>
                <g id="グループ_172" data-name="グループ 172" transform="translate(958 6463)">
                  <rect id="長方形_81-2" data-name="長方形 81" width="5.753" height="2.685" transform="translate(0 20.015)" fill="#1778b1"/>
                  <rect id="長方形_82-2" data-name="長方形 82" width="5.752" height="2.685" transform="translate(36.964 20.015)" fill="#1778b1"/>
                  <path id="パス_84-2" data-name="パス 84" d="M26.248,338.462l1.343,2.327,4.982-2.877-1.343-2.326Z" transform="translate(-24.058 -307.588)" fill="#1778b1"/>
                  <path id="パス_85-2" data-name="パス 85" d="M416.271,116.383l-1.343-2.326-4.982,2.877,1.343,2.326Z" transform="translate(-375.745 -104.541)" fill="#1778b1"/>
                  <path id="パス_86-2" data-name="パス 86" d="M114.065,414.929l2.326,1.343,2.877-4.982-2.326-1.343Z" transform="translate(-104.549 -375.745)" fill="#1778b1"/>
                  <path id="パス_87-2" data-name="パス 87" d="M340.8,27.591l-2.327-1.343L335.6,31.23l2.326,1.343Z" transform="translate(-307.597 -24.058)" fill="#1778b1"/>
                  <rect id="長方形_83-2" data-name="長方形 83" width="2.685" height="5.752" transform="translate(20.016 36.964)" fill="#1778b1"/>
                  <rect id="長方形_84-2" data-name="長方形 84" width="2.685" height="5.752" transform="translate(20.016 0)" fill="#1778b1"/>
                  <path id="パス_88-2" data-name="パス 88" d="M335.6,411.29l2.875,4.982,2.327-1.343-2.877-4.982Z" transform="translate(-307.597 -375.745)" fill="#1778b1"/>
                  <path id="パス_89-2" data-name="パス 89" d="M119.267,31.23l-2.877-4.982-2.326,1.343,2.877,4.982Z" transform="translate(-104.549 -24.058)" fill="#1778b1"/>
                  <path id="パス_90-2" data-name="パス 90" d="M409.947,337.912l4.982,2.877,1.343-2.327-4.982-2.876Z" transform="translate(-375.745 -307.588)" fill="#1778b1"/>
                  <path id="パス_91-2" data-name="パス 91" d="M32.572,116.934l-4.982-2.877-1.343,2.326,4.982,2.877Z" transform="translate(-24.058 -104.541)" fill="#1778b1"/>
                  <path id="パス_92-2" data-name="パス 92" d="M112.956,99.926a13.021,13.021,0,1,0,13.021,13.021A13.021,13.021,0,0,0,112.956,99.926Z" transform="translate(-91.597 -91.589)" fill="#1778b1"/>
                </g>
                <g id="グループ_189" data-name="グループ 189" transform="translate(482 493)">
                  <path id="パス_12360" data-name="パス 12360" d="M19.556-58.271H-1.362L-4.7-47.021q.747-.088,1.428-.132t1.252-.044a21.351,21.351,0,0,1,16.216,6.68q6.372,6.636,6.372,17.007,0,10.723-7.207,17.666T-4.79,1.1q-13.491,0-21.27-12.656l7.734-6.548q3.208,5.449,6.46,7.69a13.878,13.878,0,0,0,7.954,2.2A13.809,13.809,0,0,0,6.416-12.524a15.142,15.142,0,0,0,4.175-10.767A14.394,14.394,0,0,0,6.46-33.926,13.788,13.788,0,0,0-3.867-38.188q-6.9,0-11.909,6.021H-19.16L-8.481-67.852H19.556Z" transform="translate(562 6092)" fill="#1778b1"/>
                  <path id="パス_12412" data-name="パス 12412" d="M4.48-3.36V-5.488H6.9V-3.36Zm8.932,0H8.624V-5.488h3.7v-1.54h-3.7v-1.68h4.018v-1.61H4.732a8.938,8.938,0,0,0,.462-1.148L3.5-11.9A10.8,10.8,0,0,1,.56-7.238,12.885,12.885,0,0,1,2-6.16a12.582,12.582,0,0,0,1.9-2.548h3v1.68H2.814V-3.36H.6v1.6H6.9v3H8.624v-3h4.788Z" transform="translate(509 6089)" fill="#1778b1"/>
                  <path id="パス_12413" data-name="パス 12413" d="M3.892-1.54V-4.676h6.216V-1.54Zm6.216-7.8v3.01H3.892v-3.01ZM2.17-11.018V1.05H3.892V.14h6.216v.882H11.9v-12.04Zm17.892.9v.742H17.906v-.742Zm-2.156,2.66v-.8h2.156v.8Zm3.71,1.19v-5.054H16.254V1.218h1.652v-7.49Zm2.548-1.162V-8.26H26.39v.826Zm2.226-2.688v.742H24.164v-.742ZM20.93-1.3V-2.17h2.31V-1.3Zm2.31-2.9v.84H20.93V-4.2Zm4.83-7.126H22.582v5.082H26.39V-.77c0,.224-.084.308-.336.308-.182.014-.7.014-1.246,0v-4.97h-5.39V.63H20.93V-.084H24.4a6.164,6.164,0,0,1,.364,1.3A6.049,6.049,0,0,0,27.328.9c.56-.266.742-.756.742-1.652Z" transform="translate(592 6089)" fill="#1778b1"/>
                </g>
              </g>
            </g>
          </g>
          <rect id="長方形_850" data-name="長方形 850" width="394" height="371" transform="translate(737 6275)" fill="none"/>
        </g>
        <path id="パス_12460" data-name="パス 12460" d="M-99.252-2.688V-5.064h2.688v2.376Zm7.932,0h-4.344V-5.064h3.516V-5.9h-3.516V-7.728h3.792v-.864h-7.152c.192-.408.384-.84.552-1.26l-.9-.216a10.155,10.155,0,0,1-2.7,4.14,5.523,5.523,0,0,1,.768.564A11.087,11.087,0,0,0-99.48-7.728h2.916V-5.9h-3.576v3.216h-1.968v.864h5.544V.924h.9V-1.824h4.344Zm5.268-4.788a13.282,13.282,0,0,0-2.2-1.764l-.636.636a13.954,13.954,0,0,1,2.16,1.836Zm-.42,3.132c-1.02,1.056-2.1,2.16-2.8,2.808l.576.732c.816-.768,1.812-1.812,2.7-2.772Zm4.488-2.664h2.472a13.188,13.188,0,0,1-.924,2.232c.216.084.552.276.744.36a15.739,15.739,0,0,0,1.32-3.168l-.648-.36-.18.048h-4.836c.216-.624.4-1.272.564-1.944l-.936-.168a11.569,11.569,0,0,1-2.148,4.932,5.317,5.317,0,0,1,.852.5,11.324,11.324,0,0,0,1.332-2.436h1.464V-5.5A6.363,6.363,0,0,1-87.168.192a3.959,3.959,0,0,1,.552.72,6.9,6.9,0,0,0,4.164-4.74,6.782,6.782,0,0,0,3.7,4.74c.144-.216.42-.588.576-.792a6.336,6.336,0,0,1-3.8-5.616Zm14.148,2.76h-5V-5.46h5Zm-5,2.028V-3.48h5v1.26Zm7.284-5.436V-8.5h-6.108c.18-.432.324-.888.468-1.332l-.888-.216A15.714,15.714,0,0,1-72.612-8.5H-76v.84h3.012a10.031,10.031,0,0,1-3.3,4,4.355,4.355,0,0,1,.576.684A9.9,9.9,0,0,0-73.716-4.86V.912h.876V-1.452h5V-.2c0,.18-.072.24-.276.252S-69.048.06-69.84.024A3.408,3.408,0,0,1-69.552.9,7.358,7.358,0,0,0-67.464.744c.384-.144.5-.408.5-.948v-6.06h-5.784c.264-.444.5-.924.732-1.392Zm2.844,4.416a8.624,8.624,0,0,1-.78,2.856,3.117,3.117,0,0,1,.7.336A10.561,10.561,0,0,0-61.944-3.1Zm2.472.132a11.767,11.767,0,0,1,.732,2.2l.684-.228a11.125,11.125,0,0,0-.768-2.184Zm-.312-2.808a9.149,9.149,0,0,1,.564,1.08l-1.776.072A41.174,41.174,0,0,0-59.376-8.34l-.756-.336a24.44,24.44,0,0,1-1.212,2.148,9.637,9.637,0,0,0-.7-.78c.444-.672.948-1.62,1.356-2.412l-.78-.312A15.175,15.175,0,0,1-62.544-7.8c-.12-.108-.228-.216-.348-.312l-.456.588A11.177,11.177,0,0,1-61.8-5.832c-.264.4-.54.78-.792,1.1l-.792.036.072.792c.552-.036,1.2-.072,1.884-.108V.936h.792V-4.056l.948-.06a5.584,5.584,0,0,1,.216.7l.672-.3a9.5,9.5,0,0,0-1.128-2.448Zm6.54,2.856V-.576h-3.444V-3.06ZM-58.272.9h.816V.216h3.444V.852h.852V-3.864h-5.112Zm.5-7.02v.828H-53.8V-6.12Zm1.416-3.8a12.021,12.021,0,0,1-3.2,3.888,3.292,3.292,0,0,1,.528.756,13.627,13.627,0,0,0,3.156-3.732,16.981,16.981,0,0,0,3.216,3.66,6.48,6.48,0,0,1,.552-.816,14.536,14.536,0,0,1-3.372-3.756Zm9.012-.036a12.331,12.331,0,0,1-3.252,4.812,5.106,5.106,0,0,1,.54.9,12.175,12.175,0,0,0,1.416-1.584V.9h.876V-7.116a17.827,17.827,0,0,0,1.308-2.568Zm7.86,3.828V-7h-3.468v-2.88h-.876V-7H-47.2v.864h2.9a12.191,12.191,0,0,1-3.324,4.908,5.178,5.178,0,0,1,.672.684,13.4,13.4,0,0,0,3.12-4.62V.924h.876V-5.412A14.568,14.568,0,0,0-39.84-.588a3.2,3.2,0,0,1,.672-.72,12.661,12.661,0,0,1-3.264-4.824Zm12.7-3.372h-3.048v.768h2.256v2.16h-2.256v.768h3.048Zm-8.088,1.092V-5.7h-1.38V-8.412Zm-1.38,6.3v-2.8h1.38v2.8ZM-34.128-9.2h-2.856V-.372h.732v-.936h2.124Zm3.036.456v2.2h-1.464v-2.2Zm.744,7.248v-.756h-2.208V-3.744h2V-4.5h-2V-5.784H-30.3V-9.5h-3.084V.888h.828V-1.5Zm2.76-2.628a7.375,7.375,0,0,1-.876,2.2,9.194,9.194,0,0,1-.8-2.2Zm.432-.78-.144.024h-2.88v.756h.852L-29.94-4a10.562,10.562,0,0,0,1,2.736A5.265,5.265,0,0,1-31.008.252a2.5,2.5,0,0,1,.456.66,6.175,6.175,0,0,0,2.04-1.476A4.8,4.8,0,0,0-26.964.888a3.29,3.29,0,0,1,.552-.66,4.2,4.2,0,0,1-1.6-1.428,8.585,8.585,0,0,0,1.356-3.564Zm5.892-4.428-.948.4a40.217,40.217,0,0,0,1.74,3.7c-1.284.9-2.076,1.872-2.076,3.108,0,1.8,1.632,2.472,3.888,2.472a23.623,23.623,0,0,0,3.792-.3V-1.032a17.855,17.855,0,0,1-3.84.408c-1.9,0-2.844-.624-2.844-1.62,0-.912.672-1.7,1.788-2.424A39.865,39.865,0,0,1-16.116-6.66c.348-.18.648-.336.924-.5l-.528-.852a6.555,6.555,0,0,1-.852.564c-.66.36-1.956,1-3.084,1.68A25.842,25.842,0,0,1-21.264-9.336Zm14.616,7.9c0-.588.636-.972,1.536-.972a4.084,4.084,0,0,1,1.224.192c.012.156.012.3.012.42,0,.792-.3,1.308-1.308,1.308C-6.048-.492-6.648-.828-6.648-1.44Zm3.636-7.8h-1.08c.024.2.048.528.048.732V-7.02C-4.416-7.008-4.8-7-5.172-7c-.72,0-1.356-.036-2.04-.1v.9c.708.048,1.332.084,2.016.084.384,0,.768-.012,1.152-.024.012.984.084,2.16.12,3.084A5.5,5.5,0,0,0-5.04-3.156c-1.572,0-2.472.8-2.472,1.812,0,1.08.888,1.716,2.5,1.716S-2.94-.576-2.94-1.56v-.252A9.762,9.762,0,0,1-1.128-.42l.528-.8A7.91,7.91,0,0,0-2.976-2.772c-.048-1.008-.132-2.208-.144-3.42.72-.048,1.416-.12,2.076-.228v-.924a20.263,20.263,0,0,1-2.076.276c.012-.564.024-1.128.036-1.452Q-3.066-8.88-3.012-9.24Zm-5.928.072L-10-9.252a7.2,7.2,0,0,1-.072.852,35.705,35.705,0,0,0-.552,5.052A14.494,14.494,0,0,0-10.164.444l.84-.06c-.012-.132-.024-.3-.024-.42A2.15,2.15,0,0,1-9.3-.576c.12-.588.564-1.812.852-2.652l-.492-.384c-.2.492-.492,1.224-.684,1.764a11.257,11.257,0,0,1-.12-1.668,29.753,29.753,0,0,1,.6-4.836A6.24,6.24,0,0,1-8.94-9.168Zm-52.9,24.48h3.048v2.3h-3.048Zm1.236,4.38c.048-.432.084-.864.108-1.284h2.544v-3.9h-4.716v3.9h1.308c-.12,2.172-.408,4.62-2.04,5.916a2.283,2.283,0,0,1,.612.612A6.919,6.919,0,0,0-60.7,20.5h1.968c-.108,2.364-.228,3.276-.444,3.516a.484.484,0,0,1-.408.132c-.216,0-.78,0-1.368-.06a1.812,1.812,0,0,1,.252.78,11.681,11.681,0,0,0,1.464,0,.946.946,0,0,0,.768-.336c.324-.372.444-1.464.588-4.452,0-.108.012-.384.012-.384Zm4.74-4.3h-.864V22h.864Zm2.052-1.2v9.54c0,.228-.1.3-.312.3s-.984.024-1.824-.012a3.548,3.548,0,0,1,.324.9,7.656,7.656,0,0,0,2.16-.156c.372-.156.54-.432.54-1.032V14.2Zm8.4,1.7v.96a28.207,28.207,0,0,0,4.932,0v-.972A20.531,20.531,0,0,1-45.408,15.9Zm.468,4.884L-45.8,20.7a6.449,6.449,0,0,0-.2,1.416c0,1.128.9,1.8,2.916,1.8a16.262,16.262,0,0,0,3-.252l-.024-1.008a13.238,13.238,0,0,1-2.976.312c-1.632,0-2.028-.528-2.028-1.08A4.191,4.191,0,0,1-44.94,20.784Zm-2.76-5.808-1.068-.1a5.252,5.252,0,0,1-.084.852,33.753,33.753,0,0,0-.54,4.812,15.109,15.109,0,0,0,.444,3.852l.864-.06c-.012-.12-.024-.288-.036-.42a2.316,2.316,0,0,1,.06-.54,24.491,24.491,0,0,1,.852-2.688l-.5-.384c-.2.492-.492,1.212-.7,1.752a13.161,13.161,0,0,1-.108-1.68,27.864,27.864,0,0,1,.6-4.6C-47.868,15.564-47.76,15.18-47.7,14.976Zm18.744,4.776h-5V18.54h5Zm-5,2.028V20.52h5v1.26Zm7.284-5.436V15.5h-6.108c.18-.432.324-.888.468-1.332l-.888-.216a15.712,15.712,0,0,1-.528,1.548h-3.384v.84H-34.1a10.031,10.031,0,0,1-3.3,4,4.355,4.355,0,0,1,.576.684,9.9,9.9,0,0,0,1.992-1.884v5.772h.876V22.548h5V23.8c0,.18-.072.24-.276.252s-.936.012-1.728-.024a3.408,3.408,0,0,1,.288.876,7.358,7.358,0,0,0,2.088-.156c.384-.144.5-.408.5-.948v-6.06h-5.784c.264-.444.5-.924.732-1.392Zm5.256-2.3a12.331,12.331,0,0,1-3.252,4.812,5.107,5.107,0,0,1,.54.9,12.175,12.175,0,0,0,1.416-1.584V24.9h.876V16.884a17.827,17.827,0,0,0,1.308-2.568Zm7.86,3.828V17h-3.468v-2.88H-17.9V17h-3.372v.864h2.9A12.191,12.191,0,0,1-21.7,22.776a5.177,5.177,0,0,1,.672.684,13.4,13.4,0,0,0,3.12-4.62v6.084h.876V18.588a14.568,14.568,0,0,0,3.108,4.824,3.2,3.2,0,0,1,.672-.72,12.661,12.661,0,0,1-3.264-4.824Zm2.508-1.764.108,1.044c1.3-.276,4.356-.564,5.64-.708A4.874,4.874,0,0,0-7.548,20.5c0,2.676,2.532,3.864,4.752,3.948l.348-1c-1.956-.072-4.14-.816-4.14-3.156a4.224,4.224,0,0,1,2.748-3.8A10.051,10.051,0,0,1-1.488,16.3v-.96c-.8.036-1.932.108-3.24.216-2.208.18-4.476.408-5.256.492C-10.212,16.068-10.6,16.092-11.052,16.1Zm7.836,1.668-.612.264a11.14,11.14,0,0,1,.984,1.692l.612-.288A14.243,14.243,0,0,0-3.216,17.772Zm1.308-.5-.588.276a11.122,11.122,0,0,1,1.008,1.68l.624-.3A15.849,15.849,0,0,0-1.908,17.268Z" transform="translate(1103 6614)"/>
      </g>
    </g>
  </g>
</svg>
