<svg xmlns="http://www.w3.org/2000/svg" width="450" height="447" viewBox="0 0 450 447">
  <g id="グループ_967" data-name="グループ 967" transform="translate(-710 -5728)">
    <rect id="長方形_165" data-name="長方形 165" width="450" height="447" transform="translate(710 5728)" fill="#f7f7f7"/>
    <g id="グループ_169" data-name="グループ 169" transform="translate(214 -335)">
      <path id="パス_12523" data-name="パス 12523" d="M12.11-9.59a2.848,2.848,0,0,1-.9.112H2.87A10.758,10.758,0,0,1,1.442-9.59v1.26c.28-.028.882-.084,1.428-.084H11.1A17.17,17.17,0,0,1,6.734-3.556c-.952-.854-2.1-1.778-2.618-2.156l-.91.728A33.035,33.035,0,0,1,6.412-2.226,33.584,33.584,0,0,1,8.932.63L9.954-.182C9.394-.868,8.4-1.918,7.56-2.758a21.915,21.915,0,0,0,5.1-5.684,3.965,3.965,0,0,1,.35-.434Zm14.308.056a2.468,2.468,0,0,1-.924.14H21.672c.112-.182.21-.35.294-.518.14-.266.392-.742.616-1.106l-1.26-.406a6.015,6.015,0,0,1-.448,1.12A12.487,12.487,0,0,1,16.38-5.446l.938.728A15.19,15.19,0,0,0,21.028-8.4h4.76a11.706,11.706,0,0,1-1.806,3.738c-1.092-.658-2.268-1.33-3.08-1.75l-.714.826c.784.434,1.96,1.134,3.066,1.848a12.269,12.269,0,0,1-5.53,3.486l1.008.868A13.265,13.265,0,0,0,24.22-3.108c.532.364.994.7,1.33.966l.77-1.008c-.35-.252-.826-.574-1.358-.91a14.243,14.243,0,0,0,2.044-4.158,6.133,6.133,0,0,1,.322-.756ZM31.528-.84C32-.868,32.494-.91,33-.91h8.386c.378,0,.854.028,1.274.07V-2.184a9.584,9.584,0,0,1-1.274.07H33c-.5,0-.994-.028-1.47-.07Zm1.2-7.014q.651-.042,1.386-.042H40.11c.462,0,.994.014,1.386.042v-1.26a13.45,13.45,0,0,1-1.386.07H34.1c-.448,0-.924-.028-1.372-.07ZM55.3-9.24c.406,0,.9.014,1.3.042V-10.36a10.329,10.329,0,0,1-1.3.084H49.63a11.645,11.645,0,0,1-1.26-.084V-9.2c.35-.028.812-.042,1.274-.042ZM47.922-6.776a10.987,10.987,0,0,1-1.218-.07v1.162c.378-.028.784-.028,1.218-.028h4.186A6.778,6.778,0,0,1,51.3-2.24,5.8,5.8,0,0,1,48.65-.1l1.036.756A6.712,6.712,0,0,0,52.444-1.89a8.474,8.474,0,0,0,.826-3.822h3.808c.336,0,.784.014,1.092.028V-6.846a7.505,7.505,0,0,1-1.092.07ZM69.734-8.442a14.43,14.43,0,0,1-3.612,2.884A18.494,18.494,0,0,1,61.264-3.64l.6,1.022a24.387,24.387,0,0,0,4.4-1.792V-.126c0,.42-.028.994-.056,1.2h1.288a7.015,7.015,0,0,1-.07-1.2V-5.082A17.191,17.191,0,0,0,70.6-7.616ZM76.188-4.69c.434-.042,1.176-.07,1.946-.07H85.82c.63,0,1.218.056,1.5.07V-6.062c-.308.028-.812.07-1.512.07H78.134c-.784,0-1.526-.042-1.946-.07ZM94.01-11.62a14.387,14.387,0,0,1-3.794,5.614,5.958,5.958,0,0,1,.63,1.05A14.2,14.2,0,0,0,92.5-6.8V1.05H93.52V-8.3a20.8,20.8,0,0,0,1.526-3Zm9.17,4.466V-8.162H99.134v-3.36H98.112v3.36H94.178v1.008h3.388a14.222,14.222,0,0,1-3.878,5.726,6.04,6.04,0,0,1,.784.8,15.632,15.632,0,0,0,3.64-5.39v7.1h1.022V-6.314A17,17,0,0,0,102.76-.686a3.729,3.729,0,0,1,.784-.84,14.772,14.772,0,0,1-3.808-5.628Zm14.812-3.934h-3.556v.9h2.632v2.52h-2.632v.9h3.556Zm-9.436,1.274V-6.65h-1.61V-9.814Zm-1.61,7.35V-5.726h1.61v3.262Zm2.478-8.274h-3.332v10.3h.854V-1.526h2.478Zm3.542.532v2.562h-1.708v-2.562Zm.868,8.456v-.882h-2.576V-4.368H113.6V-5.25h-2.338v-1.5h2.632v-4.34h-3.6V1.036h.966V-1.75Zm3.22-3.066a8.975,8.975,0,0,1-1.022,2.548,9.862,9.862,0,0,1-.938-2.548Zm.49-.91-.154.028h-3.374v.882h1.008l-.714.154a12.735,12.735,0,0,0,1.148,3.178A6.136,6.136,0,0,1,113.064.294a2.841,2.841,0,0,1,.532.756,7.164,7.164,0,0,0,2.38-1.708,5.558,5.558,0,0,0,1.806,1.68,3.751,3.751,0,0,1,.644-.756,5.107,5.107,0,0,1-1.862-1.652,10.16,10.16,0,0,0,1.582-4.172Zm7.272-4.7a.617.617,0,0,0-.612-.612.617.617,0,0,0-.612.612.617.617,0,0,0,.612.612A.617.617,0,0,0,124.816-10.431Zm-3.307-.6-.237.237L123.966-8.1l-2.7,2.7.237.237,2.7-2.7L126.9-5.171l.237-.237L124.44-8.1l2.695-2.695-.237-.237L124.2-8.34Zm.367,2.319a.617.617,0,0,0-.612.612.617.617,0,0,0,.612.612.617.617,0,0,0,.612-.612A.617.617,0,0,0,121.876-8.716Zm4.655,1.225a.617.617,0,0,0,.612-.612.617.617,0,0,0-.612-.612.617.617,0,0,0-.612.612A.617.617,0,0,0,126.53-7.491Zm-2.94,1.715a.617.617,0,0,0,.612.612.617.617,0,0,0,.612-.612.617.617,0,0,0-.612-.612A.617.617,0,0,0,123.591-5.776Z" transform="translate(783 6121)"/>
      <path id="パス_12526" data-name="パス 12526" d="M-70.938-9.856v3.108h-2.03V-9.856ZM-72.968-2.6V-5.838h2.03V-2.6Zm3.01-8.19H-73.92V-.532h.952V-1.666h3.01Zm1.148,7.84A10.8,10.8,0,0,1-67.032-.49l.882-.56a9.9,9.9,0,0,0-1.82-2.38Zm7.224-3.472V-7.35H-65.2V-9.128h3.01v-.924H-65.2v-1.666H-66.22v1.666h-2.912v.924h2.912V-7.35h-3.514v.924h5.362v1.582h-5.292v.924h5.292V-.182c0,.21-.07.266-.308.28s-.994.014-1.862-.014a3.179,3.179,0,0,1,.336.966A8.01,8.01,0,0,0-63.938.882c.42-.154.574-.462.574-1.05V-3.92h1.624v-.924h-1.624V-6.426Zm7.028-3.878v1.162h-3.024V-10.3ZM-57.582-7.14V-8.372h3.024V-7.14Zm4.018.8v-4.774h-5.054V1.078h1.036v-7.42Zm2.254,1.848v1.3H-54.6v-1.3ZM-54.6-1.05V-2.408h3.29V-1.05Zm4.256.826V-5.292h-5.194V.476h.938v-.7Zm-.98-6.9V-8.372h3.136v1.246Zm3.136-3.178v1.162h-3.136V-10.3Zm1.05-.812h-5.18v4.788h4.13V-.322c0,.252-.084.336-.322.336S-49.616.042-50.47,0a3.835,3.835,0,0,1,.364,1.064A7.969,7.969,0,0,0-47.754.882c.462-.182.616-.532.616-1.19Zm5.474,6.566v-1.5h3.3v1.5Zm0-3.822h3.3v1.5h-3.3Zm7.826,1.5H-37.31v-1.5h3.472Zm0,2.324H-37.31v-1.5h3.472Zm2.268,2.156h-5.74V-3.668h4.536V-9.254h-1.47c.462-.6.98-1.372,1.414-2.072l-1.12-.364a14.637,14.637,0,0,1-1.47,2.436h-2.492l.8-.322a9.578,9.578,0,0,0-1.148-2.156l-.924.35a9.232,9.232,0,0,1,1.078,2.128h-3.01l.714-.364a11.412,11.412,0,0,0-1.428-1.946l-.882.392A10.687,10.687,0,0,1-41.4-9.254h-1.288v5.586h4.326v1.274H-44v.966h5.642V1.078h1.05V-1.428h5.74Zm6.5-6.58v.98h8.5v-.98H-20.4V-11.55h-1.05v2.576Zm3.22,7.532a35.56,35.56,0,0,0-1.134-5.614l-.924.168a34.635,34.635,0,0,1,1.036,5.67Zm-3.92-10.234a15.383,15.383,0,0,1-3.584,5.488,8.816,8.816,0,0,1,.6,1.022,14.417,14.417,0,0,0,1.54-1.82V1.022h.98V-8.484a21.228,21.228,0,0,0,1.428-2.884Zm6.2,11.116a58.59,58.59,0,0,0,1.848-6.426l-1.12-.2A46.22,46.22,0,0,1-20.58-.56h-4.83V.42h9.184V-.56Zm15.26-6.706-.714.308A13,13,0,0,1-3.878-4.984l.714-.336A16.617,16.617,0,0,0-4.312-7.266Zm1.526-.588-.7.322A12.47,12.47,0,0,1-2.3-5.586l.728-.336A21.147,21.147,0,0,0-2.786-7.854ZM-13.4-9.212l.126,1.232c1.5-.308,5.278-.672,6.5-.812A5.6,5.6,0,0,0-9.352-4.116C-9.352-1.022-6.426.35-3.864.462l.406-1.176C-5.712-.8-8.232-1.652-8.232-4.354A4.848,4.848,0,0,1-5.068-8.736,11.488,11.488,0,0,1-2.352-8.96v-1.12c-.924.042-2.226.112-3.738.238-2.548.224-5.166.476-6.076.56C-12.432-9.254-12.866-9.226-13.4-9.212Zm19.474,1.2H3.346V-9.87h2.73ZM3.346-4.186h2.73v1.722c-.938.14-1.876.28-2.73.392Zm2.73-.952H3.346V-7.084h2.73ZM8.064-9.87v-.966H1.274v.966H2.366v7.938c-.5.07-.966.126-1.358.168L1.19-.714C2.52-.938,4.312-1.2,6.076-1.5V1.036H7.084V-9.87Zm4.844.028-.2.042h-5v1.022h4.718A15.36,15.36,0,0,1,10.7-3.542a18.032,18.032,0,0,1-1.722-5.18L7.98-8.54a19.5,19.5,0,0,0,2.086,5.978A8.541,8.541,0,0,1,7.126.028a4,4,0,0,1,.686.84,9.991,9.991,0,0,0,2.856-2.492A8.758,8.758,0,0,0,13.454.91,4.339,4.339,0,0,1,14.2.056a7.776,7.776,0,0,1-2.884-2.6,17.026,17.026,0,0,0,2.268-7.1Zm14.126.476H22.428v-1.12h4.606Zm0,1.89H22.428V-8.61h4.606ZM28.07-11.27H21.42v4.592h6.65Zm-8.848-.392a10.731,10.731,0,0,1-2.968,2.856,4.538,4.538,0,0,1,.546.84,14,14,0,0,0,3.416-3.318Zm.252,3.052A13.139,13.139,0,0,1,16.03-4.83a6.52,6.52,0,0,1,.546.994,13.514,13.514,0,0,0,1.638-1.512V1.064h1.022V-6.524a16,16,0,0,0,1.148-1.722Zm1.974,6.566A12.547,12.547,0,0,1,23.17-.014l.8-.56A12.323,12.323,0,0,0,22.19-2.52Zm7.532-1.61H26.894v-1.19h1.834v-.9H20.566v.9h5.292v1.19H20.244v.9h5.614V-.1c0,.182-.056.238-.28.252-.2.014-.9.014-1.68-.014a3.517,3.517,0,0,1,.336.952A7.17,7.17,0,0,0,26.362.924c.406-.168.532-.434.532-.994V-2.758H28.98ZM41.048-7.266l-.714.308a13,13,0,0,1,1.148,1.974L42.2-5.32A16.617,16.617,0,0,0,41.048-7.266Zm1.526-.588-.7.322a12.47,12.47,0,0,1,1.19,1.946l.728-.336A21.148,21.148,0,0,0,42.574-7.854ZM31.962-9.212l.126,1.232c1.5-.308,5.278-.672,6.5-.812a5.6,5.6,0,0,0-2.576,4.676C36.008-1.022,38.934.35,41.5.462L41.9-.714c-2.254-.084-4.774-.938-4.774-3.64a4.848,4.848,0,0,1,3.164-4.382,11.488,11.488,0,0,1,2.716-.224v-1.12c-.924.042-2.226.112-3.738.238-2.548.224-5.166.476-6.076.56C32.928-9.254,32.494-9.226,31.962-9.212Zm16.912,5.46a6.26,6.26,0,0,0-.322,1.736c0,1.736,1.456,2.59,3.934,2.59A21.474,21.474,0,0,0,55.832.308L55.86-.826A16.651,16.651,0,0,1,52.444-.5C50.47-.5,49.63-1.176,49.63-2.24a4.742,4.742,0,0,1,.322-1.414Zm8.834-3.794a14.458,14.458,0,0,1-2.562.686c-.238-.518-.434-.952-.546-1.246l-.252-.574a19.15,19.15,0,0,0,2.576-.588l-.2-.994A15.605,15.605,0,0,1,53.97-9.6a14.241,14.241,0,0,1-.518-1.54l-1.26.266a9.993,9.993,0,0,1,.518.98c.056.126.112.266.182.42a25.21,25.21,0,0,1-4.536-.112l.07,1.022A28.429,28.429,0,0,0,53.3-8.54c.1.224.2.476.308.714l.49,1.134a27.677,27.677,0,0,1-5.824.028l.042,1.022a33.329,33.329,0,0,0,6.2-.126c.322.728.644,1.456.91,2-.434-.042-1.092-.112-1.764-.2l-.1.854c.882.112,2,.266,2.7.392l.546-.686c-.392-.728-.84-1.666-1.246-2.548a18.467,18.467,0,0,0,2.352-.588ZM68.026-.462c-1.036,0-1.834-.392-1.834-1.078,0-.476.476-.854,1.106-.854A1.851,1.851,0,0,1,69.132-.546,6.829,6.829,0,0,1,68.026-.462Zm2.856-10.066a4.965,4.965,0,0,1-.756.112c-.728.07-4.018.168-4.732.168a7.872,7.872,0,0,1-.98-.042l.028,1.162a6.675,6.675,0,0,1,.938-.084c.714-.042,3.444-.168,4.172-.2-.686.616-2.408,2.072-3.178,2.716-.812.672-2.59,2.156-3.738,3.108l.812.826c1.764-1.792,3.024-2.758,5.306-2.758,1.75,0,3.122.994,3.122,2.352A2.418,2.418,0,0,1,70.154-.812,2.738,2.738,0,0,0,67.3-3.262a1.97,1.97,0,0,0-2.142,1.82c0,1.148,1.162,1.988,3.052,1.988C71.134.546,73-.91,73-3.15c0-1.876-1.666-3.276-3.976-3.276a5.891,5.891,0,0,0-1.876.294c1.064-.9,2.926-2.534,3.612-3.052.21-.154.518-.364.77-.532Z" transform="translate(825 6257)"/>
      <g id="グループ_163" data-name="グループ 163" transform="translate(270 126)">
        <path id="パス_12356" data-name="パス 12356" d="M19.556-58.271H-1.362L-4.7-47.021q.747-.088,1.428-.132t1.252-.044a21.351,21.351,0,0,1,16.216,6.68q6.372,6.636,6.372,17.007,0,10.723-7.207,17.666T-4.79,1.1q-13.491,0-21.27-12.656l7.734-6.548q3.208,5.449,6.46,7.69a13.878,13.878,0,0,0,7.954,2.2A13.809,13.809,0,0,0,6.416-12.524a15.142,15.142,0,0,0,4.175-10.767A14.394,14.394,0,0,0,6.46-33.926,13.788,13.788,0,0,0-3.867-38.188q-6.9,0-11.909,6.021H-19.16L-8.481-67.852H19.556Z" transform="translate(562 6092)" fill="#1778b1"/>
        <path id="パス_12525" data-name="パス 12525" d="M4.48-3.36V-5.488H6.9V-3.36Zm8.932,0H8.624V-5.488h3.7v-1.54h-3.7v-1.68h4.018v-1.61H4.732a8.938,8.938,0,0,0,.462-1.148L3.5-11.9A10.8,10.8,0,0,1,.56-7.238,12.885,12.885,0,0,1,2-6.16a12.582,12.582,0,0,0,1.9-2.548h3v1.68H2.814V-3.36H.6v1.6H6.9v3H8.624v-3h4.788Z" transform="translate(509 6089)" fill="#1778b1"/>
        <path id="パス_12524" data-name="パス 12524" d="M3.892-1.54V-4.676h6.216V-1.54Zm6.216-7.8v3.01H3.892v-3.01ZM2.17-11.018V1.05H3.892V.14h6.216v.882H11.9v-12.04Zm17.892.9v.742H17.906v-.742Zm-2.156,2.66v-.8h2.156v.8Zm3.71,1.19v-5.054H16.254V1.218h1.652v-7.49Zm2.548-1.162V-8.26H26.39v.826Zm2.226-2.688v.742H24.164v-.742ZM20.93-1.3V-2.17h2.31V-1.3Zm2.31-2.9v.84H20.93V-4.2Zm4.83-7.126H22.582v5.082H26.39V-.77c0,.224-.084.308-.336.308-.182.014-.7.014-1.246,0v-4.97h-5.39V.63H20.93V-.084H24.4a6.164,6.164,0,0,1,.364,1.3A6.049,6.049,0,0,0,27.328.9c.56-.266.742-.756.742-1.652Z" transform="translate(592 6089)" fill="#1778b1"/>
      </g>
      <g id="グループ_161" data-name="グループ 161" transform="translate(731 6105)">
        <rect id="長方形_81" data-name="長方形 81" width="5.753" height="2.685" transform="translate(0 20.015)" fill="#1778b1"/>
        <rect id="長方形_82" data-name="長方形 82" width="5.752" height="2.685" transform="translate(36.964 20.015)" fill="#1778b1"/>
        <path id="パス_84" data-name="パス 84" d="M26.248,338.462l1.343,2.327,4.982-2.877-1.343-2.326Z" transform="translate(-24.058 -307.588)" fill="#1778b1"/>
        <path id="パス_85" data-name="パス 85" d="M416.271,116.383l-1.343-2.326-4.982,2.877,1.343,2.326Z" transform="translate(-375.745 -104.541)" fill="#1778b1"/>
        <path id="パス_86" data-name="パス 86" d="M114.065,414.929l2.326,1.343,2.877-4.982-2.326-1.343Z" transform="translate(-104.549 -375.745)" fill="#1778b1"/>
        <path id="パス_87" data-name="パス 87" d="M340.8,27.591l-2.327-1.343L335.6,31.23l2.326,1.343Z" transform="translate(-307.597 -24.058)" fill="#1778b1"/>
        <rect id="長方形_83" data-name="長方形 83" width="2.685" height="5.752" transform="translate(20.016 36.964)" fill="#1778b1"/>
        <rect id="長方形_84" data-name="長方形 84" width="2.685" height="5.752" transform="translate(20.016 0)" fill="#1778b1"/>
        <path id="パス_88" data-name="パス 88" d="M335.6,411.29l2.875,4.982,2.327-1.343-2.877-4.982Z" transform="translate(-307.597 -375.745)" fill="#1778b1"/>
        <path id="パス_89" data-name="パス 89" d="M119.267,31.23l-2.877-4.982-2.326,1.343,2.877,4.982Z" transform="translate(-104.549 -24.058)" fill="#1778b1"/>
        <path id="パス_90" data-name="パス 90" d="M409.947,337.912l4.982,2.877,1.343-2.327-4.982-2.876Z" transform="translate(-375.745 -307.588)" fill="#1778b1"/>
        <path id="パス_91" data-name="パス 91" d="M32.572,116.934l-4.982-2.877-1.343,2.326,4.982,2.877Z" transform="translate(-24.058 -104.541)" fill="#1778b1"/>
        <path id="パス_92" data-name="パス 92" d="M112.956,99.926a13.021,13.021,0,1,0,13.021,13.021A13.021,13.021,0,0,0,112.956,99.926Z" transform="translate(-91.597 -91.589)" fill="#1778b1"/>
      </g>
    </g>
    <line id="線_26" data-name="線 26" y2="156" transform="translate(927.5 5967.5)" fill="none" stroke="#707070" stroke-width="1"/>
    <line id="線_27" data-name="線 27" y2="156" transform="translate(927.5 5769.5)" fill="none" stroke="#707070" stroke-width="1"/>
    <g id="グループ_166" data-name="グループ 166" transform="translate(631.341 5775)">
      <path id="パス_173" data-name="パス 173" d="M182.177,128.33a48.91,48.91,0,0,0-13.46,23.053s-22.3,14.022-13.581,44.987h26.212l3.867,29.281a8.46,8.46,0,0,0,8.389,7.355h1.481a8.462,8.462,0,0,0,8.463-8.462V196.37h3.44V129.64C206.987,119.608,192.188,118.72,182.177,128.33Z" transform="translate(0 -86.896)" fill="#1778b1"/>
      <path id="パス_174" data-name="パス 174" d="M267.17,0a15.265,15.265,0,1,0,15.264,15.265A15.267,15.267,0,0,0,267.17,0Z" transform="translate(-70.601)" fill="#1778b1"/>
    </g>
    <g id="グループ_170" data-name="グループ 170" transform="translate(0 -138)">
      <path id="パス_12527" data-name="パス 12527" d="M12.11-9.59a2.848,2.848,0,0,1-.9.112H2.87A10.758,10.758,0,0,1,1.442-9.59v1.26c.28-.028.882-.084,1.428-.084H11.1A17.17,17.17,0,0,1,6.734-3.556c-.952-.854-2.1-1.778-2.618-2.156l-.91.728A33.035,33.035,0,0,1,6.412-2.226,33.584,33.584,0,0,1,8.932.63L9.954-.182C9.394-.868,8.4-1.918,7.56-2.758a21.915,21.915,0,0,0,5.1-5.684,3.965,3.965,0,0,1,.35-.434Zm14.308.056a2.468,2.468,0,0,1-.924.14H21.672c.112-.182.21-.35.294-.518.14-.266.392-.742.616-1.106l-1.26-.406a6.015,6.015,0,0,1-.448,1.12A12.487,12.487,0,0,1,16.38-5.446l.938.728A15.19,15.19,0,0,0,21.028-8.4h4.76a11.706,11.706,0,0,1-1.806,3.738c-1.092-.658-2.268-1.33-3.08-1.75l-.714.826c.784.434,1.96,1.134,3.066,1.848a12.269,12.269,0,0,1-5.53,3.486l1.008.868A13.265,13.265,0,0,0,24.22-3.108c.532.364.994.7,1.33.966l.77-1.008c-.35-.252-.826-.574-1.358-.91a14.243,14.243,0,0,0,2.044-4.158,6.133,6.133,0,0,1,.322-.756ZM31.528-.84C32-.868,32.494-.91,33-.91h8.386c.378,0,.854.028,1.274.07V-2.184a9.584,9.584,0,0,1-1.274.07H33c-.5,0-.994-.028-1.47-.07Zm1.2-7.014q.651-.042,1.386-.042H40.11c.462,0,.994.014,1.386.042v-1.26a13.45,13.45,0,0,1-1.386.07H34.1c-.448,0-.924-.028-1.372-.07ZM55.3-9.24c.406,0,.9.014,1.3.042V-10.36a10.329,10.329,0,0,1-1.3.084H49.63a11.645,11.645,0,0,1-1.26-.084V-9.2c.35-.028.812-.042,1.274-.042ZM47.922-6.776a10.987,10.987,0,0,1-1.218-.07v1.162c.378-.028.784-.028,1.218-.028h4.186A6.778,6.778,0,0,1,51.3-2.24,5.8,5.8,0,0,1,48.65-.1l1.036.756A6.712,6.712,0,0,0,52.444-1.89a8.474,8.474,0,0,0,.826-3.822h3.808c.336,0,.784.014,1.092.028V-6.846a7.505,7.505,0,0,1-1.092.07ZM69.734-8.442a14.43,14.43,0,0,1-3.612,2.884A18.494,18.494,0,0,1,61.264-3.64l.6,1.022a24.387,24.387,0,0,0,4.4-1.792V-.126c0,.42-.028.994-.056,1.2h1.288a7.015,7.015,0,0,1-.07-1.2V-5.082A17.191,17.191,0,0,0,70.6-7.616ZM76.188-4.69c.434-.042,1.176-.07,1.946-.07H85.82c.63,0,1.218.056,1.5.07V-6.062c-.308.028-.812.07-1.512.07H78.134c-.784,0-1.526-.042-1.946-.07ZM94.01-11.62a14.387,14.387,0,0,1-3.794,5.614,5.958,5.958,0,0,1,.63,1.05A14.2,14.2,0,0,0,92.5-6.8V1.05H93.52V-8.3a20.8,20.8,0,0,0,1.526-3Zm9.17,4.466V-8.162H99.134v-3.36H98.112v3.36H94.178v1.008h3.388a14.222,14.222,0,0,1-3.878,5.726,6.04,6.04,0,0,1,.784.8,15.632,15.632,0,0,0,3.64-5.39v7.1h1.022V-6.314A17,17,0,0,0,102.76-.686a3.729,3.729,0,0,1,.784-.84,14.772,14.772,0,0,1-3.808-5.628Zm10.906-1.19a12.8,12.8,0,0,1-.714,1.456l.14.042h-3.29l.448-.1a5.44,5.44,0,0,0-.7-1.4Zm4.018,6.09v-.882H112.49V-4.172h4.382v-.8H112.49V-5.992h5.068v-.854H114.38c.28-.42.588-.966.868-1.5h2.8v-.9h-2.17a19.575,19.575,0,0,0,1.232-2.016l-1.064-.28a15.883,15.883,0,0,1-1.064,2.128l.518.168h-1.694v-2.478h-.98V-9.24H111.16v-2.478h-.966V-9.24h-1.722l.714-.266A9.65,9.65,0,0,0,108-11.564l-.882.294a10.913,10.913,0,0,1,1.106,2.03h-2.226v.9h3.416l-.49.1a5.878,5.878,0,0,1,.686,1.4h-3.052v.854h4.914V-4.97h-4.214v.8h4.214v1.036h-5.53v.882h4.578a13.493,13.493,0,0,1-4.942,2.212,4.458,4.458,0,0,1,.672.882,14.069,14.069,0,0,0,5.222-2.758V1.064h1.022V-1.988a13.217,13.217,0,0,0,5.264,2.87,3.743,3.743,0,0,1,.7-.924,12.809,12.809,0,0,1-5-2.212Z" transform="translate(998 6121)"/>
      <path id="パス_12529" data-name="パス 12529" d="M3.584-1.47c0-.644.728-1.162,2.058-1.162A6.209,6.209,0,0,1,7-2.492c0,.364.014.7.014.938,0,.966-.686,1.218-1.484,1.218C4.144-.336,3.584-.826,3.584-1.47Zm4.438-9.646H6.832a7.683,7.683,0,0,1,.056.84v.994H6.244A25.437,25.437,0,0,1,2.66-9.59l.014,1.036c.882.1,2.6.238,3.584.238h.616v1.96H6.118A25.9,25.9,0,0,1,2.59-6.622L2.6-5.572c1.008.112,2.548.2,3.5.2h.8c.014.6.042,1.274.056,1.9a8.018,8.018,0,0,0-1.176-.084c-2.016,0-3.234.868-3.234,2.142C2.548-.07,3.64.644,5.656.644c1.82,0,2.464-.994,2.464-1.96,0-.224-.014-.518-.028-.868A10.322,10.322,0,0,1,11.48-.07l.644-.994A11.141,11.141,0,0,0,8.036-3.248c-.028-.672-.07-1.428-.1-2.156,1.33-.042,2.562-.154,3.878-.322l.014-1.05A34.837,34.837,0,0,1,7.924-6.4v-1.96c1.344-.07,2.674-.2,3.78-.322L11.718-9.7a34.81,34.81,0,0,1-3.794.378c0-.364.014-.672.014-.854A7.008,7.008,0,0,1,8.022-11.116Zm8.2,1.9.126,1.218c1.512-.322,5.082-.658,6.58-.826a5.687,5.687,0,0,0-2.618,4.732c0,3.122,2.954,4.508,5.544,4.606l.406-1.162c-2.282-.084-4.83-.952-4.83-3.682A4.927,4.927,0,0,1,24.64-8.764a11.726,11.726,0,0,1,2.744-.224v-1.12c-.938.042-2.254.126-3.78.252-2.576.21-5.222.476-6.132.574C17.206-9.254,16.758-9.226,16.226-9.212Zm9.142,1.946-.714.308A13,13,0,0,1,25.8-4.984l.714-.336A16.617,16.617,0,0,0,25.368-7.266Zm1.526-.588-.686.322a12.976,12.976,0,0,1,1.176,1.96l.728-.35A18.49,18.49,0,0,0,26.894-7.854ZM4.676,11.906a17.084,17.084,0,0,0,2.52-.742l-.77-.8A27.324,27.324,0,0,1,.644,11.724a2.979,2.979,0,0,1,.322.826c.868-.126,1.792-.266,2.7-.434v2.366H.742v.952H3.458A14.557,14.557,0,0,1,.434,20.166a6.751,6.751,0,0,1,.574.966A15.019,15.019,0,0,0,3.668,17v6.034H4.676V17.52c.714.658,1.61,1.554,2.03,2.016l.6-.854c-.406-.364-2-1.736-2.632-2.226V15.434H7.35v-.952H4.676Zm4.62.042H8.288v7.658H9.3ZM11.7,10.562v11.13c0,.266-.112.35-.364.35s-1.148.014-2.128-.014a4.139,4.139,0,0,1,.378,1.05,9.513,9.513,0,0,0,2.52-.182c.434-.182.63-.5.63-1.218V10.562Zm11,7.252V15.49h3.766v2.324Zm-4.438,0c.042-.518.056-1.036.056-1.5V15.49h3.346v2.324Zm3.4-5.544v2.24H18.326V12.27Zm4.8,2.24H22.708V12.27h3.766ZM27.5,11.276H17.3v5.04c0,1.946-.14,4.41-1.68,6.146a3.4,3.4,0,0,1,.8.686,8.038,8.038,0,0,0,1.75-4.34h3.5v4.13h1.036v-4.13h3.766V21.65c0,.266-.1.35-.378.364-.252,0-1.2.014-2.184-.028a4.115,4.115,0,0,1,.35,1.008,9.135,9.135,0,0,0,2.6-.168c.448-.182.63-.49.63-1.162Zm3.85,1.512.126,1.218c1.512-.322,5.082-.658,6.58-.826a5.687,5.687,0,0,0-2.618,4.732c0,3.122,2.954,4.508,5.544,4.606l.406-1.162c-2.282-.084-4.83-.952-4.83-3.682a4.927,4.927,0,0,1,3.206-4.438,11.726,11.726,0,0,1,2.744-.224v-1.12c-.938.042-2.254.126-3.78.252-2.576.21-5.222.476-6.132.574C32.326,12.746,31.878,12.774,31.346,12.788Zm9.142,1.946-.714.308a13,13,0,0,1,1.148,1.974l.714-.336A16.617,16.617,0,0,0,40.488,14.734Zm1.526-.588-.686.322a12.976,12.976,0,0,1,1.176,1.96l.728-.35A18.49,18.49,0,0,0,42.014,14.146Zm10.374-1.918a3.269,3.269,0,0,0,.1.35,28.05,28.05,0,0,1-4.62-.168l.07,1.022a33.547,33.547,0,0,0,4.816.1q.168.5.378,1.092c.084.238.182.476.28.728a31.383,31.383,0,0,1-5.81-.07l.056,1.05a40.736,40.736,0,0,0,6.16-.028,14.81,14.81,0,0,0,1.092,2.016c-.448-.056-1.358-.154-2.1-.238l-.1.854a25.94,25.94,0,0,1,3.066.448l.574-.854a4.205,4.205,0,0,1-.518-.6,13.907,13.907,0,0,1-.98-1.736,21.83,21.83,0,0,0,2.534-.5l-.168-1.05a15.468,15.468,0,0,1-2.8.6c-.112-.28-.224-.574-.322-.84-.1-.294-.21-.616-.308-.966a20.385,20.385,0,0,0,2.758-.56l-.154-1.008a15.579,15.579,0,0,1-2.87.63,10.648,10.648,0,0,1-.336-1.666L52,10.982C52.136,11.374,52.276,11.808,52.388,12.228ZM49.63,18.29l-1.092-.224a4.066,4.066,0,0,0-.546,2c.014,1.792,1.554,2.6,4.3,2.6a21.292,21.292,0,0,0,3.276-.238l.042-1.12a15.853,15.853,0,0,1-3.332.294c-2.2,0-3.234-.574-3.234-1.736A2.713,2.713,0,0,1,49.63,18.29Zm15.694,2.24a1.023,1.023,0,0,1,1.12-.9,1.909,1.909,0,0,1,1.876,1.9,7.188,7.188,0,0,1-1.134.084C66.094,21.622,65.324,21.2,65.324,20.53Zm-1.792-8.848.042,1.162c.294-.042.616-.07.924-.084.742-.042,3.542-.168,4.284-.2-.714.63-2.464,2.1-3.248,2.744-.812.686-2.6,2.184-3.766,3.136l.8.826c1.778-1.806,3.024-2.8,5.362-2.8,1.82,0,3.136,1.036,3.136,2.408a2.459,2.459,0,0,1-1.75,2.394,2.71,2.71,0,0,0-2.856-2.478,1.966,1.966,0,0,0-2.156,1.82c0,1.162,1.162,1.988,3.066,1.988,2.968,0,4.816-1.456,4.816-3.71,0-1.89-1.666-3.29-3.99-3.29a5.924,5.924,0,0,0-1.946.294c1.092-.91,3-2.534,3.7-3.066.252-.21.532-.392.784-.574l-.644-.812a3.3,3.3,0,0,1-.756.112c-.742.07-4.074.182-4.8.182A8.347,8.347,0,0,1,63.532,11.682Z" transform="translate(1059 6235)"/>
      <path id="パス_12528" data-name="パス 12528" d="M11.585-19.32A38.861,38.861,0,0,1,9.17-8.715c-1.12-.805-2.31-1.54-3.43-2.24.63-2.59,1.33-5.46,1.96-8.365ZM12.95-22.4l-.6.07H8.33c.49-2.31.98-4.585,1.365-6.685l-3.115-.35c-.35,2.17-.8,4.585-1.3,7.035H1.61v3.01H4.655c-.91,4.235-1.855,8.33-2.7,11.27L4.62-6.615l.35-1.33c.98.63,1.925,1.33,2.87,2.03A15.031,15.031,0,0,1,1.82.245a11.116,11.116,0,0,1,1.995,2.59,18.207,18.207,0,0,0,6.51-6.72A25.24,25.24,0,0,1,13.685-.49l1.96-2.59A25.022,25.022,0,0,0,11.76-6.755c1.68-3.955,2.695-8.96,3.115-15.295ZM33.635-11.83v-3.08h-8.05v-9.905a48.208,48.208,0,0,0,6.93-2.065L29.89-29.3c-3.5,1.54-9.73,2.835-15.225,3.57a11.046,11.046,0,0,1,.945,2.59c2.17-.245,4.48-.595,6.72-1.015v9.24H14.56v3.08h7.77V-1.12H15.015V1.96H33.04V-1.12H25.585V-11.83ZM47.53-19.355a45.694,45.694,0,0,1-1.785,10.36c-.91-.805-1.855-1.575-2.8-2.275.525-2.52,1.085-5.32,1.575-8.085ZM51.03-3.36a24.527,24.527,0,0,0-2.835-3.36,55.33,55.33,0,0,0,2.45-15.435L48.79-22.4l-.56.07H45.045c.42-2.345.805-4.655,1.12-6.755l-2.975-.28c-.28,2.135-.63,4.585-1.05,7.035H39.27v2.975h2.38c-.735,4.13-1.5,8.19-2.2,11.06l2.52,1.61.315-1.4q1.155,1,2.31,2.1A13.8,13.8,0,0,1,39.34.245a12.325,12.325,0,0,1,1.925,2.52,16.729,16.729,0,0,0,5.6-6.405A21.79,21.79,0,0,1,49.07-.805Zm18.13-8.05a34.045,34.045,0,0,1-3.15,3.36,34.082,34.082,0,0,1-1.085-4.515H71.05V-15.4H55.51v-9.38H70.63v-2.9H52.5v11.27c0,5.25-.245,12.39-3.255,17.4a14.643,14.643,0,0,1,2.52,1.75c2.555-4.2,3.43-10.185,3.675-15.295h1.925V-1.3c-1.015.175-1.96.35-2.8.455L55.4,2.2C58.24,1.61,61.81.805,65.24.07l-.21-2.73-4.76.875v-10.78h2.065C63.385-5.67,65.45-.07,69.755,2.765A10.351,10.351,0,0,1,71.82.21a12.437,12.437,0,0,1-4.935-5.985c1.365-1.05,2.94-2.415,4.375-3.745Zm.35-7.385v-2.8h-12.5v2.8ZM91.28-27.44l-4.1-.42a39.12,39.12,0,0,1-.805,7.525c-2,.175-3.885.315-5,.35-1.19.035-2.205.07-3.4,0l.35,3.78c.98-.175,2.59-.385,3.465-.49.805-.1,2.24-.28,3.85-.455-1.26,4.76-3.78,12.32-7.28,17.045L81.97,1.33c3.465-5.6,5.95-13.685,7.245-18.83,1.33-.14,2.485-.21,3.22-.21,2.205,0,3.57.525,3.57,3.535,0,3.64-.525,8.085-1.575,10.255a2.742,2.742,0,0,1-2.87,1.68,18.227,18.227,0,0,1-4.27-.7L87.85.7a19.681,19.681,0,0,0,4.165.49c2.45,0,4.27-.63,5.39-3.045,1.47-2.94,2-8.575,2-12.705,0-4.9-2.555-6.265-5.95-6.265-.805,0-2.065.07-3.5.21.315-1.645.63-3.325.84-4.41C90.93-25.8,91.1-26.7,91.28-27.44Zm12.075,3.535-3.255,1.4c2.45,2.975,5.075,9.24,6.055,12.95l3.465-1.61C108.5-14.455,105.525-21,103.355-23.905Zm21.735-3.85-.875,3.325c2.695.7,10.395,2.31,13.825,2.765l.8-3.4A102.572,102.572,0,0,1,125.09-27.755Zm-.315,6.65-3.71-.49A131.27,131.27,0,0,1,119.28-7.21l3.22.77A7.122,7.122,0,0,1,123.69-8.3a13.137,13.137,0,0,1,10.325-4.445c3.36,0,5.775,1.855,5.775,4.445,0,4.62-5.46,7.525-16.275,6.16l1.05,3.605c13.685,1.155,19.005-3.395,19.005-9.7,0-4.165-3.57-7.63-9.275-7.63a16.849,16.849,0,0,0-10.92,3.885C123.69-14.1,124.285-18.9,124.775-21.1ZM21.98,45.45h8.015V42.93H21.98V39.71h8.96V37.12H21.98V34.25H18.8v2.87h-4.55c.35-.735.665-1.505.945-2.275l-2.9-.665A17.184,17.184,0,0,1,7.84,41.215a18.88,18.88,0,0,1,2.59,1.575,18.759,18.759,0,0,0,2.38-3.08H18.8v3.22h-7.63v2.52H18.8V49.3H8.3v2.765h24.64V49.3H21.98Zm.98-19.145A39.912,39.912,0,0,1,21.35,30.4l.875.28H12.81l1.26-.35a14.851,14.851,0,0,0-1.61-4.025Zm1.4,4.375c.735-1.19,1.61-2.765,2.485-4.27l-.455-.1h4.97V23.47H19.18V20.6H15.925v2.87H3.885v2.835h6.65l-1.26.315a18.987,18.987,0,0,1,1.575,4.06H4.305v5.53c0,4.13-.315,10.115-3.115,14.42a15.261,15.261,0,0,1,2.485,2.065C6.825,48.005,7.42,40.9,7.42,36.21V33.515H33.11V30.68Zm23.415-9.835a36.442,36.442,0,0,1-9.2,13.685,21.77,21.77,0,0,1,1.925,3.36,32.777,32.777,0,0,0,3.57-3.955V52.66h3.22V29.28a52.423,52.423,0,0,0,3.71-7.42Zm23.24,11.62V29.28H61.39V21.16H58.17v8.12H48.825v3.185H56.7c-2.135,5.39-5.6,10.745-9.31,13.615a15.366,15.366,0,0,1,2.415,2.59A38.019,38.019,0,0,0,58.17,36.56V52.765h3.22V35.685c2.17,5.075,5.04,9.835,8.155,12.775a12.476,12.476,0,0,1,2.45-2.625c-3.465-2.87-6.825-8.12-8.925-13.37Z" transform="translate(969 6204)" fill="#1778b1"/>
      <g id="グループ_172" data-name="グループ 172" transform="translate(945 6105)">
        <rect id="長方形_81-2" data-name="長方形 81" width="5.753" height="2.685" transform="translate(0 20.015)" fill="#1778b1"/>
        <rect id="長方形_82-2" data-name="長方形 82" width="5.752" height="2.685" transform="translate(36.964 20.015)" fill="#1778b1"/>
        <path id="パス_84-2" data-name="パス 84" d="M26.248,338.462l1.343,2.327,4.982-2.877-1.343-2.326Z" transform="translate(-24.058 -307.588)" fill="#1778b1"/>
        <path id="パス_85-2" data-name="パス 85" d="M416.271,116.383l-1.343-2.326-4.982,2.877,1.343,2.326Z" transform="translate(-375.745 -104.541)" fill="#1778b1"/>
        <path id="パス_86-2" data-name="パス 86" d="M114.065,414.929l2.326,1.343,2.877-4.982-2.326-1.343Z" transform="translate(-104.549 -375.745)" fill="#1778b1"/>
        <path id="パス_87-2" data-name="パス 87" d="M340.8,27.591l-2.327-1.343L335.6,31.23l2.326,1.343Z" transform="translate(-307.597 -24.058)" fill="#1778b1"/>
        <rect id="長方形_83-2" data-name="長方形 83" width="2.685" height="5.752" transform="translate(20.016 36.964)" fill="#1778b1"/>
        <rect id="長方形_84-2" data-name="長方形 84" width="2.685" height="5.752" transform="translate(20.016 0)" fill="#1778b1"/>
        <path id="パス_88-2" data-name="パス 88" d="M335.6,411.29l2.875,4.982,2.327-1.343-2.877-4.982Z" transform="translate(-307.597 -375.745)" fill="#1778b1"/>
        <path id="パス_89-2" data-name="パス 89" d="M119.267,31.23l-2.877-4.982-2.326,1.343,2.877,4.982Z" transform="translate(-104.549 -24.058)" fill="#1778b1"/>
        <path id="パス_90-2" data-name="パス 90" d="M409.947,337.912l4.982,2.877,1.343-2.327-4.982-2.876Z" transform="translate(-375.745 -307.588)" fill="#1778b1"/>
        <path id="パス_91-2" data-name="パス 91" d="M32.572,116.934l-4.982-2.877-1.343,2.326,4.982,2.877Z" transform="translate(-24.058 -104.541)" fill="#1778b1"/>
        <path id="パス_92-2" data-name="パス 92" d="M112.956,99.926a13.021,13.021,0,1,0,13.021,13.021A13.021,13.021,0,0,0,112.956,99.926Z" transform="translate(-91.597 -91.589)" fill="#1778b1"/>
      </g>
    </g>
    <g id="グループ_186" data-name="グループ 186" transform="translate(-217 -138)">
      <path id="パス_12520" data-name="パス 12520" d="M12.11-9.59a2.848,2.848,0,0,1-.9.112H2.87A10.758,10.758,0,0,1,1.442-9.59v1.26c.28-.028.882-.084,1.428-.084H11.1A17.17,17.17,0,0,1,6.734-3.556c-.952-.854-2.1-1.778-2.618-2.156l-.91.728A33.035,33.035,0,0,1,6.412-2.226,33.584,33.584,0,0,1,8.932.63L9.954-.182C9.394-.868,8.4-1.918,7.56-2.758a21.915,21.915,0,0,0,5.1-5.684,3.965,3.965,0,0,1,.35-.434Zm14.308.056a2.468,2.468,0,0,1-.924.14H21.672c.112-.182.21-.35.294-.518.14-.266.392-.742.616-1.106l-1.26-.406a6.015,6.015,0,0,1-.448,1.12A12.487,12.487,0,0,1,16.38-5.446l.938.728A15.19,15.19,0,0,0,21.028-8.4h4.76a11.706,11.706,0,0,1-1.806,3.738c-1.092-.658-2.268-1.33-3.08-1.75l-.714.826c.784.434,1.96,1.134,3.066,1.848a12.269,12.269,0,0,1-5.53,3.486l1.008.868A13.265,13.265,0,0,0,24.22-3.108c.532.364.994.7,1.33.966l.77-1.008c-.35-.252-.826-.574-1.358-.91a14.243,14.243,0,0,0,2.044-4.158,6.133,6.133,0,0,1,.322-.756ZM31.528-.84C32-.868,32.494-.91,33-.91h8.386c.378,0,.854.028,1.274.07V-2.184a9.584,9.584,0,0,1-1.274.07H33c-.5,0-.994-.028-1.47-.07Zm1.2-7.014q.651-.042,1.386-.042H40.11c.462,0,.994.014,1.386.042v-1.26a13.45,13.45,0,0,1-1.386.07H34.1c-.448,0-.924-.028-1.372-.07ZM55.3-9.24c.406,0,.9.014,1.3.042V-10.36a10.329,10.329,0,0,1-1.3.084H49.63a11.645,11.645,0,0,1-1.26-.084V-9.2c.35-.028.812-.042,1.274-.042ZM47.922-6.776a10.987,10.987,0,0,1-1.218-.07v1.162c.378-.028.784-.028,1.218-.028h4.186A6.778,6.778,0,0,1,51.3-2.24,5.8,5.8,0,0,1,48.65-.1l1.036.756A6.712,6.712,0,0,0,52.444-1.89a8.474,8.474,0,0,0,.826-3.822h3.808c.336,0,.784.014,1.092.028V-6.846a7.505,7.505,0,0,1-1.092.07ZM69.734-8.442a14.43,14.43,0,0,1-3.612,2.884A18.494,18.494,0,0,1,61.264-3.64l.6,1.022a24.387,24.387,0,0,0,4.4-1.792V-.126c0,.42-.028.994-.056,1.2h1.288a7.015,7.015,0,0,1-.07-1.2V-5.082A17.191,17.191,0,0,0,70.6-7.616ZM76.188-4.69c.434-.042,1.176-.07,1.946-.07H85.82c.63,0,1.218.056,1.5.07V-6.062c-.308.028-.812.07-1.512.07H78.134c-.784,0-1.526-.042-1.946-.07ZM13.258,16.9H6.174v.966h7.084Zm-1.6,5.866H7.7v-2.45h3.962ZM12.67,19.39H6.734V23.7H12.67ZM11.1,27.552c.35-.77.784-2.072,1.134-3.136L11.2,24.178a19.693,19.693,0,0,1-.98,3.15Zm-2.3-.322a13.89,13.89,0,0,0-.77-2.968l-.882.224a15.515,15.515,0,0,1,.714,2.982ZM6.3,26.348c-.336-.406-1.708-1.96-2.268-2.548q.084-.483.126-.966H6.2v-.966H4.214V19.054h1.82V18.1H2.688c.14-.5.266-1.036.364-1.568l-.994-.182A10.739,10.739,0,0,1,.5,20.734a6.8,6.8,0,0,1,.9.5,10.956,10.956,0,0,0,1.008-2.184H3.22v2.814H.658v.966H3.164A7.687,7.687,0,0,1,.574,28.28a2.885,2.885,0,0,1,.7.728A7.816,7.816,0,0,0,3.808,24.85,26.637,26.637,0,0,1,5.628,27.2ZM5.558,27.79v.98h7.826v-.98Zm13.664-9.646v3.108h-2.03V18.144ZM17.192,25.4V22.162h2.03V25.4Zm3.01-8.19H16.24V27.468h.952V26.334H20.2Zm1.148,7.84a10.8,10.8,0,0,1,1.778,2.464l.882-.56a9.9,9.9,0,0,0-1.82-2.38Zm7.224-3.472V20.65H24.962V18.872h3.01v-.924h-3.01V16.282H23.94v1.666H21.028v.924H23.94V20.65H20.426v.924h5.362v1.582H20.5v.924h5.292v3.738c0,.21-.07.266-.308.28s-.994.014-1.862-.014a3.179,3.179,0,0,1,.336.966,8.01,8.01,0,0,0,2.268-.168c.42-.154.574-.462.574-1.05V24.08H28.42v-.924H26.8V21.574ZM35.6,17.7v1.162H32.578V17.7ZM32.578,20.86V19.628H35.6V20.86Zm4.018.8V16.884H31.542V29.078h1.036v-7.42Zm2.254,1.848v1.3H35.56v-1.3ZM35.56,26.95V25.592h3.29V26.95Zm4.256.826V22.708H34.622v5.768h.938v-.7Zm-.98-6.9V19.628h3.136v1.246ZM41.972,17.7v1.162H38.836V17.7Zm1.05-.812h-5.18v4.788h4.13v6.006c0,.252-.084.336-.322.336s-1.106.028-1.96-.014a3.834,3.834,0,0,1,.364,1.064,7.969,7.969,0,0,0,2.352-.182c.462-.182.616-.532.616-1.19Zm4.606,2.492h.952V18.3h1.876v1.078h.952V18.3H53.06v-.812H51.408V16.3h-.952v1.19H48.58V16.3h-.952v1.19H46.046V18.3h1.582ZM47.46,21.9V20.44h1.582V21.9Zm4.172,0H49.994V20.44h1.638Zm6.93-2.338H55.58c.014-1.008.028-2.058.028-3.15h-.966c0,1.092,0,2.156-.028,3.15H52.99v.966h1.6c-.1,2.9-.476,5.292-1.764,6.958l-.014-.49c-.938.112-1.9.224-2.814.322V26.152h2.674v-.77H49.994V24.318h2.8v-.8h-2.8v-.868h2.6V19.67H46.55v2.982h2.492v.868H46.284v.8h2.758v1.064H46.494v.77h2.548v1.274c-1.162.126-2.226.238-3.066.308l.14.91c1.666-.2,4.046-.476,6.356-.756a4.53,4.53,0,0,1-.532.5,3.4,3.4,0,0,1,.756.728c2.142-1.848,2.688-4.858,2.842-8.6h2.03c-.112,5.082-.266,6.9-.6,7.308a.453.453,0,0,1-.462.224,13.741,13.741,0,0,1-1.484-.07,2.488,2.488,0,0,1,.294.966,10.34,10.34,0,0,0,1.624,0,1.113,1.113,0,0,0,.91-.5c.434-.574.56-2.52.714-8.386Zm12.95-.924a5.256,5.256,0,0,1-1.358,1.806,6.212,6.212,0,0,1-1.582-1.806Zm-5.6,6.076a12.122,12.122,0,0,0,.826-2.184,3.915,3.915,0,0,1,.378.546,10.942,10.942,0,0,0,3.052-1.428,10.049,10.049,0,0,0,3.178,1.484,4.616,4.616,0,0,1,.658-.9,9.285,9.285,0,0,1-3.038-1.218,6.5,6.5,0,0,0,1.68-2.38h1.078v-.882H69.076a11.112,11.112,0,0,0,.644-1.2l-.994-.266a8.6,8.6,0,0,1-2.66,3.416,6.606,6.606,0,0,1,.854.6,11.169,11.169,0,0,0,1.008-.994,7.983,7.983,0,0,0,1.442,1.708,9.276,9.276,0,0,1-2.506,1.078c.07-.252.14-.5.21-.742l-.63-.224-.154.056H65.254l.532-.6a8.042,8.042,0,0,0-1.176-.84,10.481,10.481,0,0,0,2.282-2.38l-.672-.42-.182.042h-4.7v.91H65.3a9.848,9.848,0,0,1-1.47,1.386c-.448-.238-.924-.462-1.358-.644l-.644.672a14.288,14.288,0,0,1,3.108,1.876H61.18v.91h2.114a10.549,10.549,0,0,1-2.254,3.752,5.507,5.507,0,0,1,.546.966,11.212,11.212,0,0,0,2.044-3.444V27.86c0,.154-.056.2-.224.21s-.728,0-1.33-.014a3.823,3.823,0,0,1,.322.952,5.494,5.494,0,0,0,1.75-.154c.35-.182.462-.462.462-.994V22.092h1.344a14.592,14.592,0,0,1-.756,2.254Zm4.228-.616c.084-.448.154-.91.2-1.386h-1.05c-.042.476-.1.938-.182,1.386H66.7v.868H68.88a4.8,4.8,0,0,1-3.248,3.3,3.382,3.382,0,0,1,.616.8,5.68,5.68,0,0,0,3.71-4.1H72.31c-.21,1.918-.42,2.7-.686,2.968a.592.592,0,0,1-.476.14c-.224,0-.784-.014-1.386-.07a2.722,2.722,0,0,1,.28.966,14.8,14.8,0,0,0,1.554.014,1.263,1.263,0,0,0,.868-.364c.406-.406.672-1.47.924-4.074.014-.168.028-.448.028-.448Z" transform="translate(1014 6121)"/>
      <path id="パス_12522" data-name="パス 12522" d="M4.676-10.094a17.084,17.084,0,0,0,2.52-.742l-.77-.8A27.324,27.324,0,0,1,.644-10.276a2.979,2.979,0,0,1,.322.826c.868-.126,1.792-.266,2.7-.434v2.366H.742v.952H3.458A14.557,14.557,0,0,1,.434-1.834a6.752,6.752,0,0,1,.574.966A15.019,15.019,0,0,0,3.668-5V1.036H4.676V-4.48c.714.658,1.61,1.554,2.03,2.016l.6-.854c-.406-.364-2-1.736-2.632-2.226V-6.566H7.35v-.952H4.676Zm4.62.042H8.288v7.658H9.3ZM11.7-11.438V-.308c0,.266-.112.35-.364.35S10.192.056,9.212.028a4.139,4.139,0,0,1,.378,1.05A9.513,9.513,0,0,0,12.11.9c.434-.182.63-.5.63-1.218V-11.438Zm11,7.252V-6.51h3.766v2.324Zm-4.438,0c.042-.518.056-1.036.056-1.5V-6.51h3.346v2.324Zm3.4-5.544v2.24H18.326V-9.73Zm4.8,2.24H22.708V-9.73h3.766ZM27.5-10.724H17.3v5.04c0,1.946-.14,4.41-1.68,6.146a3.4,3.4,0,0,1,.8.686,8.038,8.038,0,0,0,1.75-4.34h3.5V.938h1.036v-4.13h3.766V-.35c0,.266-.1.35-.378.364-.252,0-1.2.014-2.184-.028a4.115,4.115,0,0,1,.35,1.008,9.135,9.135,0,0,0,2.6-.168c.448-.182.63-.49.63-1.162ZM40.488-7.266l-.714.308a13,13,0,0,1,1.148,1.974l.714-.336A16.617,16.617,0,0,0,40.488-7.266Zm1.526-.588-.7.322A12.469,12.469,0,0,1,42.5-5.586l.728-.336A21.147,21.147,0,0,0,42.014-7.854ZM31.4-9.212l.126,1.232c1.5-.308,5.278-.672,6.5-.812a5.6,5.6,0,0,0-2.576,4.676c0,3.094,2.926,4.466,5.488,4.578l.406-1.176c-2.254-.084-4.774-.938-4.774-3.64a4.848,4.848,0,0,1,3.164-4.382,11.488,11.488,0,0,1,2.716-.224v-1.12c-.924.042-2.226.112-3.738.238-2.548.224-5.166.476-6.076.56C32.368-9.254,31.934-9.226,31.4-9.212Zm16.912,5.46a6.26,6.26,0,0,0-.322,1.736c0,1.736,1.456,2.59,3.934,2.59A21.474,21.474,0,0,0,55.272.308L55.3-.826A16.651,16.651,0,0,1,51.884-.5C49.91-.5,49.07-1.176,49.07-2.24a4.742,4.742,0,0,1,.322-1.414Zm8.834-3.794a14.458,14.458,0,0,1-2.562.686c-.238-.518-.434-.952-.546-1.246l-.252-.574a19.15,19.15,0,0,0,2.576-.588l-.2-.994A15.605,15.605,0,0,1,53.41-9.6a14.241,14.241,0,0,1-.518-1.54l-1.26.266a9.993,9.993,0,0,1,.518.98c.056.126.112.266.182.42A25.21,25.21,0,0,1,47.8-9.59l.07,1.022a28.429,28.429,0,0,0,4.872.028c.1.224.2.476.308.714l.49,1.134a27.677,27.677,0,0,1-5.824.028l.042,1.022a33.329,33.329,0,0,0,6.2-.126c.322.728.644,1.456.91,2-.434-.042-1.092-.112-1.764-.2l-.1.854c.882.112,2,.266,2.7.392l.546-.686c-.392-.728-.84-1.666-1.246-2.548a18.467,18.467,0,0,0,2.352-.588ZM67.466-.462c-1.036,0-1.834-.392-1.834-1.078,0-.476.476-.854,1.106-.854A1.851,1.851,0,0,1,68.572-.546,6.829,6.829,0,0,1,67.466-.462Zm2.856-10.066a4.964,4.964,0,0,1-.756.112c-.728.07-4.018.168-4.732.168a7.872,7.872,0,0,1-.98-.042l.028,1.162a6.675,6.675,0,0,1,.938-.084c.714-.042,3.444-.168,4.172-.2-.686.616-2.408,2.072-3.178,2.716-.812.672-2.59,2.156-3.738,3.108l.812.826c1.764-1.792,3.024-2.758,5.306-2.758,1.75,0,3.122.994,3.122,2.352A2.418,2.418,0,0,1,69.594-.812a2.738,2.738,0,0,0-2.856-2.45A1.97,1.97,0,0,0,64.6-1.442C64.6-.294,65.758.546,67.648.546c2.926,0,4.788-1.456,4.788-3.7,0-1.876-1.666-3.276-3.976-3.276a5.891,5.891,0,0,0-1.876.294c1.064-.9,2.926-2.534,3.612-3.052.21-.154.518-.364.77-.532Z" transform="translate(997 6257)"/>
      <path id="パス_12521" data-name="パス 12521" d="M11.585-19.32A38.861,38.861,0,0,1,9.17-8.715c-1.12-.805-2.31-1.54-3.43-2.24.63-2.59,1.33-5.46,1.96-8.365ZM12.95-22.4l-.6.07H8.33c.49-2.31.98-4.585,1.365-6.685l-3.115-.35c-.35,2.17-.8,4.585-1.3,7.035H1.61v3.01H4.655c-.91,4.235-1.855,8.33-2.7,11.27L4.62-6.615l.35-1.33c.98.63,1.925,1.33,2.87,2.03A15.031,15.031,0,0,1,1.82.245a11.116,11.116,0,0,1,1.995,2.59,18.207,18.207,0,0,0,6.51-6.72A25.24,25.24,0,0,1,13.685-.49l1.96-2.59A25.022,25.022,0,0,0,11.76-6.755c1.68-3.955,2.695-8.96,3.115-15.295ZM33.635-11.83v-3.08h-8.05v-9.905a48.208,48.208,0,0,0,6.93-2.065L29.89-29.3c-3.5,1.54-9.73,2.835-15.225,3.57a11.046,11.046,0,0,1,.945,2.59c2.17-.245,4.48-.595,6.72-1.015v9.24H14.56v3.08h7.77V-1.12H15.015V1.96H33.04V-1.12H25.585V-11.83ZM47.53-19.355a45.694,45.694,0,0,1-1.785,10.36c-.91-.805-1.855-1.575-2.8-2.275.525-2.52,1.085-5.32,1.575-8.085ZM51.03-3.36a24.527,24.527,0,0,0-2.835-3.36,55.33,55.33,0,0,0,2.45-15.435L48.79-22.4l-.56.07H45.045c.42-2.345.805-4.655,1.12-6.755l-2.975-.28c-.28,2.135-.63,4.585-1.05,7.035H39.27v2.975h2.38c-.735,4.13-1.5,8.19-2.2,11.06l2.52,1.61.315-1.4q1.155,1,2.31,2.1A13.8,13.8,0,0,1,39.34.245a12.325,12.325,0,0,1,1.925,2.52,16.729,16.729,0,0,0,5.6-6.405A21.79,21.79,0,0,1,49.07-.805Zm18.13-8.05a34.045,34.045,0,0,1-3.15,3.36,34.082,34.082,0,0,1-1.085-4.515H71.05V-15.4H55.51v-9.38H70.63v-2.9H52.5v11.27c0,5.25-.245,12.39-3.255,17.4a14.643,14.643,0,0,1,2.52,1.75c2.555-4.2,3.43-10.185,3.675-15.295h1.925V-1.3c-1.015.175-1.96.35-2.8.455L55.4,2.2C58.24,1.61,61.81.805,65.24.07l-.21-2.73-4.76.875v-10.78h2.065C63.385-5.67,65.45-.07,69.755,2.765A10.351,10.351,0,0,1,71.82.21a12.437,12.437,0,0,1-4.935-5.985c1.365-1.05,2.94-2.415,4.375-3.745Zm.35-7.385v-2.8h-12.5v2.8Zm25.2,7.21v-8.47h9.1v8.47Zm-12.46,0v-8.47h9.065v8.47ZM94.71-23.24v-6.09H91.315v6.09H78.995v16.9H82.25V-8.4h9.065V2.73H94.71V-8.4h9.1v1.89h3.4V-23.24Z" transform="translate(978 6205)" fill="#1778b1"/>
      <g id="グループ_167" data-name="グループ 167" transform="translate(958.5 6107)">
        <path id="パス_93" data-name="パス 93" d="M86.708,197.6a.624.624,0,0,0,.18.03.592.592,0,0,0,.572-.421.6.6,0,0,0-.385-.758.611.611,0,0,0-.758.391A.6.6,0,0,0,86.708,197.6Z" transform="translate(-79.799 -181.657)" fill="#1778b1"/>
        <path id="パス_94" data-name="パス 94" d="M148.01,112.462a.62.62,0,0,0,.361-.12h-.006a.6.6,0,0,0,.132-.837.606.606,0,0,0-.842-.132.6.6,0,0,0-.126.842A.592.592,0,0,0,148.01,112.462Z" transform="translate(-136.325 -102.892)" fill="#1778b1"/>
        <path id="パス_95" data-name="パス 95" d="M247.52,79.422h.006a.6.6,0,0,0-.006-1.2.609.609,0,0,0-.6.608A.6.6,0,0,0,247.52,79.422Z" transform="translate(-228.351 -72.337)" fill="#1778b1"/>
        <path id="パス_96" data-name="パス 96" d="M347.462,111.257a.6.6,0,0,0,.487-.253.6.6,0,1,0-.836.138A.586.586,0,0,0,347.462,111.257Z" transform="translate(-320.78 -101.778)" fill="#1778b1"/>
        <path id="パス_97" data-name="パス 97" d="M87.294,301.3a.592.592,0,0,0-.379.758h-.006a.607.607,0,0,0,.578.415.523.523,0,0,0,.186-.031.6.6,0,0,0-.379-1.143Z" transform="translate(-80.349 -278.613)" fill="#1778b1"/>
        <path id="パス_98" data-name="パス 98" d="M148.976,386.018a.606.606,0,0,0,.139.842.626.626,0,0,0,.349.108.611.611,0,0,0,.493-.247.6.6,0,0,0-.98-.7Z" transform="translate(-137.67 -356.759)" fill="#1778b1"/>
        <path id="パス_99" data-name="パス 99" d="M410.355,299.859a.6.6,0,0,0-.758.391.594.594,0,0,0,.391.752.485.485,0,0,0,.186.03.6.6,0,0,0,.18-1.173Z" transform="translate(-378.771 -277.284)" fill="#1778b1"/>
        <path id="パス_100" data-name="パス 100" d="M409.617,195.709a.723.723,0,0,0,.186-.03.612.612,0,0,0,.385-.764l-.018-.036v-.006a.6.6,0,0,0-1.143.38.079.079,0,0,1,.012.036c.006,0,.006,0,.006.006A.6.6,0,0,0,409.617,195.709Z" transform="translate(-378.243 -179.841)" fill="#1778b1"/>
        <path id="パス_101" data-name="パス 101" d="M348.569,385.021a.6.6,0,0,0-.132.842.61.61,0,0,0,.487.247.583.583,0,0,0,.349-.12.6.6,0,1,0-.7-.969Z" transform="translate(-322.128 -355.961)" fill="#1778b1"/>
        <path id="パス_102" data-name="パス 102" d="M249.356,417.742a.6.6,0,0,0,.006,1.2.6.6,0,1,0-.006-1.2Z" transform="translate(-230.055 -386.33)" fill="#1778b1"/>
        <path id="パス_103" data-name="パス 103" d="M19.25,0A19.25,19.25,0,1,0,38.5,19.25,19.272,19.272,0,0,0,19.25,0Zm0,33.917A14.667,14.667,0,1,1,33.917,19.25,14.683,14.683,0,0,1,19.25,33.917Z" fill="#1778b1"/>
        <path id="パス_104" data-name="パス 104" d="M238.153,130.672h-3.145v12h10.427v-3.145h-7.282Z" transform="translate(-217.337 -120.846)" fill="#1778b1"/>
      </g>
    </g>
  </g>
</svg>
