<svg xmlns="http://www.w3.org/2000/svg" width="450" height="447" viewBox="0 0 450 447">
  <g id="グループ_966" data-name="グループ 966" transform="translate(-214 -5728)">
    <rect id="長方形_156" data-name="長方形 156" width="450" height="447" transform="translate(214 5728)" fill="#f7f7f7"/>
    <path id="パス_12513" data-name="パス 12513" d="M12.978-9.688v-1.036H1.022v1.036H7.21a16.242,16.242,0,0,1-6.538,6.1,7.16,7.16,0,0,1,.7.91A17.952,17.952,0,0,0,6.44-6.748V1.036H7.546V-8.148c.35-.518.686-1.022.994-1.54ZM7.826-6.678A31.24,31.24,0,0,1,12.544-2.87l.826-.8A31.953,31.953,0,0,0,8.6-7.35Zm12.11-1.2a16.019,16.019,0,0,1-1.078,4.634c-.532-.378-1.092-.728-1.624-1.036.28-1.106.574-2.352.854-3.6Zm.434-.994-.182.042H18.3c.21-.966.406-1.9.574-2.758l-.994-.112c-.154.868-.35,1.862-.574,2.87H15.778v.952h1.33c-.392,1.75-.812,3.472-1.148,4.676l.868.448.154-.588c.49.308.98.644,1.442.994A6.156,6.156,0,0,1,15.89.252a4.066,4.066,0,0,1,.644.84,7.443,7.443,0,0,0,2.688-2.814,10.49,10.49,0,0,1,1.428,1.4l.63-.826a9.867,9.867,0,0,0-1.6-1.484,18.641,18.641,0,0,0,1.3-6.1Zm8.176,3.948v-.98H25.2V-10.08a21.062,21.062,0,0,0,2.87-.826l-.868-.756A30.458,30.458,0,0,1,21-10.276a3.031,3.031,0,0,1,.308.84c.924-.112,1.89-.266,2.842-.434v3.962H20.9v.98H24.15V-.252H21.084v.98h7.224v-.98H25.2V-4.928Zm6.286-5.222a10.248,10.248,0,0,0-2.674-1.47l-.574.784A10.118,10.118,0,0,1,34.216-9.3Zm-.7,3.6a11.79,11.79,0,0,0-2.73-1.3l-.574.8a11.82,11.82,0,0,1,2.7,1.4ZM32.172.882c.812-1.3,1.778-3.038,2.506-4.508l-.77-.672A41.025,41.025,0,0,1,31.29.182Zm9.24-4.438V-.49H36.666V-3.556ZM35.658,1.078h1.008V.462h4.746v.574h1.036V-4.522h-6.79ZM39.9-9.142c.532.6,1.106,1.316,1.61,2.016-1.6.084-3.192.154-4.578.224.672-1.33,1.414-3.08,1.988-4.536l-1.19-.294A30.883,30.883,0,0,1,35.812-6.86l-1.33.056.126,1.022c1.946-.112,4.774-.252,7.518-.42a9,9,0,0,1,.644,1.134l.952-.532A20.562,20.562,0,0,0,40.8-9.59Zm7.84,2.59a10.69,10.69,0,0,0-.924-2.674l-.784.308A10.771,10.771,0,0,1,46.9-6.174Zm11-2.968v-.91H53.592V-11.7H52.514v1.274H47.95v4.494c0,.336,0,.686-.014,1.05-.812.434-1.554.826-2.1,1.078l.336.924c.546-.308,1.12-.644,1.694-.994A7.36,7.36,0,0,1,46.214.378a3.825,3.825,0,0,1,.728.7C48.65-.84,48.93-3.808,48.93-5.936V-9.52ZM51.072-1.75A6.828,6.828,0,0,1,48.958.224a3.385,3.385,0,0,1,.77.616A8.794,8.794,0,0,0,52.01-1.484Zm4.466.42A12.4,12.4,0,0,1,57.666.882l.812-.476a13.128,13.128,0,0,0-2.17-2.142ZM52.024-5.838a7.874,7.874,0,0,0,1.274-1.6h1.316a8.421,8.421,0,0,0,1.26,1.6ZM56.14-4.284H51.688v-.868H56.14Zm0,1.54H51.688v-.882H56.14Zm1.526-4.578A12.711,12.711,0,0,1,56.6-6.314a7.626,7.626,0,0,1-1.022-1.12h3V-8.26H53.76a7.8,7.8,0,0,0,.42-1.078l-.966-.126a6.6,6.6,0,0,1-.49,1.2H49.56v.826h2.646a6.979,6.979,0,0,1-.91,1.05,10.762,10.762,0,0,0-1.12-.854l-.56.49a9.283,9.283,0,0,1,1.092.868A8.6,8.6,0,0,1,48.958-4.8a2.324,2.324,0,0,1,.644.686,8.872,8.872,0,0,0,1.19-.7v2.758h2.6v2.1c0,.154-.028.182-.224.182s-.77.028-1.456,0a2.932,2.932,0,0,1,.336.854,6.388,6.388,0,0,0,1.876-.14C54.306.8,54.4.56,54.4.07V-2.058h2.674V-4.844a7.668,7.668,0,0,0,1.176.672,3.946,3.946,0,0,1,.616-.742,7.216,7.216,0,0,1-1.722-.952A10.929,10.929,0,0,0,58.31-6.86Zm6.944-4.3a14.387,14.387,0,0,1-3.794,5.614,5.957,5.957,0,0,1,.63,1.05A14.2,14.2,0,0,0,63.1-6.8V1.05H64.12V-8.3a20.8,20.8,0,0,0,1.526-3Zm9.17,4.466V-8.162H69.734v-3.36H68.712v3.36H64.778v1.008h3.388a14.222,14.222,0,0,1-3.878,5.726,6.04,6.04,0,0,1,.784.8,15.632,15.632,0,0,0,3.64-5.39v7.1h1.022V-6.314A17,17,0,0,0,73.36-.686a3.729,3.729,0,0,1,.784-.84,14.772,14.772,0,0,1-3.808-5.628Zm14.812-3.934H85.036v.9h2.632v2.52H85.036v.9h3.556ZM79.156-9.814V-6.65h-1.61V-9.814Zm-1.61,7.35V-5.726h1.61v3.262Zm2.478-8.274H76.692v10.3h.854V-1.526h2.478Zm3.542.532v2.562H81.858v-2.562Zm.868,8.456v-.882H81.858V-4.368H84.2V-5.25H81.858v-1.5H84.49v-4.34h-3.6V1.036h.966V-1.75Zm3.22-3.066a8.975,8.975,0,0,1-1.022,2.548,9.862,9.862,0,0,1-.938-2.548Zm.49-.91L87.99-5.7H84.616v.882h1.008l-.714.154a12.734,12.734,0,0,0,1.148,3.178A6.136,6.136,0,0,1,83.664.294a2.841,2.841,0,0,1,.532.756,7.164,7.164,0,0,0,2.38-1.708,5.559,5.559,0,0,0,1.806,1.68,3.751,3.751,0,0,1,.644-.756,5.107,5.107,0,0,1-1.862-1.652,10.16,10.16,0,0,0,1.582-4.172Zm7.272-4.7a.617.617,0,0,0-.612-.612.617.617,0,0,0-.612.612.617.617,0,0,0,.612.612A.617.617,0,0,0,95.416-10.431Zm-3.307-.6-.237.237L94.566-8.1l-2.7,2.7.237.237,2.7-2.7L97.5-5.171l.237-.237L95.04-8.1,97.735-10.8l-.237-.237L94.8-8.34Zm.367,2.319a.617.617,0,0,0-.612.612.617.617,0,0,0,.612.612.617.617,0,0,0,.612-.612A.617.617,0,0,0,92.476-8.716ZM97.13-7.491a.617.617,0,0,0,.612-.612.617.617,0,0,0-.612-.612.617.617,0,0,0-.612.612A.617.617,0,0,0,97.13-7.491Zm-2.94,1.715a.617.617,0,0,0,.612.612.617.617,0,0,0,.612-.612.617.617,0,0,0-.612-.612A.617.617,0,0,0,94.191-5.776Z" transform="translate(309 5983)"/>
    <path id="パス_12515" data-name="パス 12515" d="M4.1-9.856v3.108H2.072V-9.856ZM2.072-2.6V-5.838H4.1V-2.6Zm3.01-8.19H1.12V-.532h.952V-1.666h3.01ZM6.23-2.954A10.8,10.8,0,0,1,8.008-.49l.882-.56A9.9,9.9,0,0,0,7.07-3.43Zm7.224-3.472V-7.35H9.842V-9.128h3.01v-.924H9.842v-1.666H8.82v1.666H5.908v.924H8.82V-7.35H5.306v.924h5.362v1.582H5.376v.924h5.292V-.182c0,.21-.07.266-.308.28S9.366.112,8.5.084a3.179,3.179,0,0,1,.336.966A8.01,8.01,0,0,0,11.1.882c.42-.154.574-.462.574-1.05V-3.92H13.3v-.924H11.676V-6.426ZM20.482-10.3v1.162H17.458V-10.3ZM17.458-7.14V-8.372h3.024V-7.14Zm4.018.8v-4.774H16.422V1.078h1.036v-7.42ZM23.73-4.494v1.3H20.44v-1.3ZM20.44-1.05V-2.408h3.29V-1.05ZM24.7-.224V-5.292H19.5V.476h.938v-.7Zm-.98-6.9V-8.372h3.136v1.246ZM26.852-10.3v1.162H23.716V-10.3Zm1.05-.812h-5.18v4.788h4.13V-.322c0,.252-.084.336-.322.336S25.424.042,24.57,0a3.834,3.834,0,0,1,.364,1.064A7.969,7.969,0,0,0,27.286.882C27.748.7,27.9.35,27.9-.308ZM33.376-4.55v-1.5h3.3v1.5Zm0-3.822h3.3v1.5h-3.3Zm7.826,1.5H37.73v-1.5H41.2Zm0,2.324H37.73v-1.5H41.2ZM43.47-2.394H37.73V-3.668h4.536V-9.254H40.8c.462-.6.98-1.372,1.414-2.072l-1.12-.364a14.637,14.637,0,0,1-1.47,2.436H37.128l.8-.322a9.578,9.578,0,0,0-1.148-2.156l-.924.35a9.232,9.232,0,0,1,1.078,2.128h-3.01l.714-.364a11.412,11.412,0,0,0-1.428-1.946l-.882.392a10.687,10.687,0,0,1,1.316,1.918H32.354v5.586H36.68v1.274H31.038v.966H36.68V1.078h1.05V-1.428h5.74Zm6.5-6.58v.98h8.5v-.98H54.642V-11.55h-1.05v2.576Zm3.22,7.532a35.56,35.56,0,0,0-1.134-5.614l-.924.168a34.635,34.635,0,0,1,1.036,5.67Zm-3.92-10.234a15.383,15.383,0,0,1-3.584,5.488,8.815,8.815,0,0,1,.6,1.022,14.417,14.417,0,0,0,1.54-1.82V1.022h.98V-8.484a21.228,21.228,0,0,0,1.428-2.884ZM55.468-.56a58.591,58.591,0,0,0,1.848-6.426l-1.12-.2A46.22,46.22,0,0,1,54.46-.56H49.63V.42h9.184V-.56Zm15.26-6.706-.714.308a13,13,0,0,1,1.148,1.974l.714-.336A16.616,16.616,0,0,0,70.728-7.266Zm1.526-.588-.7.322a12.47,12.47,0,0,1,1.19,1.946l.728-.336A21.147,21.147,0,0,0,72.254-7.854ZM61.642-9.212l.126,1.232c1.5-.308,5.278-.672,6.5-.812a5.6,5.6,0,0,0-2.576,4.676c0,3.094,2.926,4.466,5.488,4.578l.406-1.176c-2.254-.084-4.774-.938-4.774-3.64a4.848,4.848,0,0,1,3.164-4.382,11.488,11.488,0,0,1,2.716-.224v-1.12c-.924.042-2.226.112-3.738.238-2.548.224-5.166.476-6.076.56C62.608-9.254,62.174-9.226,61.642-9.212Zm19.474,1.2h-2.73V-9.87h2.73Zm-2.73,3.822h2.73v1.722c-.938.14-1.876.28-2.73.392Zm2.73-.952h-2.73V-7.084h2.73ZM83.1-9.87v-.966h-6.79v.966h1.092v7.938c-.5.07-.966.126-1.358.168l.182,1.05c1.33-.224,3.122-.49,4.886-.784V1.036h1.008V-9.87Zm4.844.028-.2.042h-5v1.022h4.718a15.36,15.36,0,0,1-1.736,5.236,18.032,18.032,0,0,1-1.722-5.18l-.994.182a19.5,19.5,0,0,0,2.086,5.978,8.541,8.541,0,0,1-2.94,2.59,4,4,0,0,1,.686.84,9.991,9.991,0,0,0,2.856-2.492A8.758,8.758,0,0,0,88.494.91a4.339,4.339,0,0,1,.742-.854,7.776,7.776,0,0,1-2.884-2.6,17.026,17.026,0,0,0,2.268-7.1Zm14.126.476H97.468v-1.12h4.606Zm0,1.89H97.468V-8.61h4.606Zm1.036-3.794H96.46v4.592h6.65Zm-8.848-.392a10.731,10.731,0,0,1-2.968,2.856,4.538,4.538,0,0,1,.546.84,14,14,0,0,0,3.416-3.318Zm.252,3.052A13.139,13.139,0,0,1,91.07-4.83a6.521,6.521,0,0,1,.546.994,13.514,13.514,0,0,0,1.638-1.512V1.064h1.022V-6.524a16,16,0,0,0,1.148-1.722Zm1.974,6.566A12.547,12.547,0,0,1,98.21-.014l.8-.56A12.323,12.323,0,0,0,97.23-2.52Zm7.532-1.61h-2.086v-1.19h1.834v-.9H95.606v.9H100.9v1.19H95.284v.9H100.9V-.1c0,.182-.056.238-.28.252-.2.014-.9.014-1.68-.014a3.517,3.517,0,0,1,.336.952A7.17,7.17,0,0,0,101.4.924c.406-.168.532-.434.532-.994V-2.758h2.086Zm12.068-3.612-.714.308a13,13,0,0,1,1.148,1.974l.714-.336A16.617,16.617,0,0,0,116.088-7.266Zm1.526-.588-.7.322a12.469,12.469,0,0,1,1.19,1.946l.728-.336A21.147,21.147,0,0,0,117.614-7.854ZM107-9.212l.126,1.232c1.5-.308,5.278-.672,6.5-.812a5.6,5.6,0,0,0-2.576,4.676c0,3.094,2.926,4.466,5.488,4.578l.406-1.176c-2.254-.084-4.774-.938-4.774-3.64a4.848,4.848,0,0,1,3.164-4.382,11.488,11.488,0,0,1,2.716-.224v-1.12c-.924.042-2.226.112-3.738.238-2.548.224-5.166.476-6.076.56C107.968-9.254,107.534-9.226,107-9.212Zm16.912,5.46a6.26,6.26,0,0,0-.322,1.736c0,1.736,1.456,2.59,3.934,2.59a21.474,21.474,0,0,0,3.346-.266L130.9-.826a16.651,16.651,0,0,1-3.416.322c-1.974,0-2.814-.672-2.814-1.736a4.742,4.742,0,0,1,.322-1.414Zm8.834-3.794a14.458,14.458,0,0,1-2.562.686c-.238-.518-.434-.952-.546-1.246l-.252-.574a19.151,19.151,0,0,0,2.576-.588l-.2-.994a15.606,15.606,0,0,1-2.758.658,14.24,14.24,0,0,1-.518-1.54l-1.26.266a9.993,9.993,0,0,1,.518.98c.056.126.112.266.182.42A25.21,25.21,0,0,1,123.4-9.59l.07,1.022a28.429,28.429,0,0,0,4.872.028c.1.224.2.476.308.714l.49,1.134a27.677,27.677,0,0,1-5.824.028l.042,1.022a33.329,33.329,0,0,0,6.2-.126c.322.728.644,1.456.91,2-.434-.042-1.092-.112-1.764-.2l-.1.854c.882.112,2,.266,2.7.392l.546-.686c-.392-.728-.84-1.666-1.246-2.548a18.466,18.466,0,0,0,2.352-.588ZM143.066-.462c-1.036,0-1.834-.392-1.834-1.078,0-.476.476-.854,1.106-.854a1.851,1.851,0,0,1,1.834,1.848A6.829,6.829,0,0,1,143.066-.462Zm2.856-10.066a4.964,4.964,0,0,1-.756.112c-.728.07-4.018.168-4.732.168a7.872,7.872,0,0,1-.98-.042l.028,1.162a6.675,6.675,0,0,1,.938-.084c.714-.042,3.444-.168,4.172-.2-.686.616-2.408,2.072-3.178,2.716-.812.672-2.59,2.156-3.738,3.108l.812.826c1.764-1.792,3.024-2.758,5.306-2.758,1.75,0,3.122.994,3.122,2.352a2.418,2.418,0,0,1-1.722,2.352,2.737,2.737,0,0,0-2.856-2.45,1.97,1.97,0,0,0-2.142,1.82c0,1.148,1.162,1.988,3.052,1.988,2.926,0,4.788-1.456,4.788-3.7,0-1.876-1.666-3.276-3.976-3.276a5.891,5.891,0,0,0-1.876.294c1.064-.9,2.926-2.534,3.612-3.052.21-.154.518-.364.77-.532Z" transform="translate(254 6119)"/>
    <path id="パス_12514" data-name="パス 12514" d="M12.978-9.688v-1.036H1.022v1.036H7.21a16.242,16.242,0,0,1-6.538,6.1,7.16,7.16,0,0,1,.7.91A17.952,17.952,0,0,0,6.44-6.748V1.036H7.546V-8.148c.35-.518.686-1.022.994-1.54ZM7.826-6.678A31.24,31.24,0,0,1,12.544-2.87l.826-.8A31.953,31.953,0,0,0,8.6-7.35Zm12.11-1.2a16.019,16.019,0,0,1-1.078,4.634c-.532-.378-1.092-.728-1.624-1.036.28-1.106.574-2.352.854-3.6Zm.434-.994-.182.042H18.3c.21-.966.406-1.9.574-2.758l-.994-.112c-.154.868-.35,1.862-.574,2.87H15.778v.952h1.33c-.392,1.75-.812,3.472-1.148,4.676l.868.448.154-.588c.49.308.98.644,1.442.994A6.156,6.156,0,0,1,15.89.252a4.066,4.066,0,0,1,.644.84,7.443,7.443,0,0,0,2.688-2.814,10.49,10.49,0,0,1,1.428,1.4l.63-.826a9.867,9.867,0,0,0-1.6-1.484,18.641,18.641,0,0,0,1.3-6.1Zm8.176,3.948v-.98H25.2V-10.08a21.062,21.062,0,0,0,2.87-.826l-.868-.756A30.458,30.458,0,0,1,21-10.276a3.031,3.031,0,0,1,.308.84c.924-.112,1.89-.266,2.842-.434v3.962H20.9v.98H24.15V-.252H21.084v.98h7.224v-.98H25.2V-4.928Zm6.286-5.222a10.248,10.248,0,0,0-2.674-1.47l-.574.784A10.118,10.118,0,0,1,34.216-9.3Zm-.7,3.6a11.79,11.79,0,0,0-2.73-1.3l-.574.8a11.82,11.82,0,0,1,2.7,1.4ZM32.172.882c.812-1.3,1.778-3.038,2.506-4.508l-.77-.672A41.025,41.025,0,0,1,31.29.182Zm9.24-4.438V-.49H36.666V-3.556ZM35.658,1.078h1.008V.462h4.746v.574h1.036V-4.522h-6.79ZM39.9-9.142c.532.6,1.106,1.316,1.61,2.016-1.6.084-3.192.154-4.578.224.672-1.33,1.414-3.08,1.988-4.536l-1.19-.294A30.883,30.883,0,0,1,35.812-6.86l-1.33.056.126,1.022c1.946-.112,4.774-.252,7.518-.42a9,9,0,0,1,.644,1.134l.952-.532A20.562,20.562,0,0,0,40.8-9.59Zm7.84,2.59a10.69,10.69,0,0,0-.924-2.674l-.784.308A10.771,10.771,0,0,1,46.9-6.174Zm11-2.968v-.91H53.592V-11.7H52.514v1.274H47.95v4.494c0,.336,0,.686-.014,1.05-.812.434-1.554.826-2.1,1.078l.336.924c.546-.308,1.12-.644,1.694-.994A7.36,7.36,0,0,1,46.214.378a3.825,3.825,0,0,1,.728.7C48.65-.84,48.93-3.808,48.93-5.936V-9.52ZM51.072-1.75A6.828,6.828,0,0,1,48.958.224a3.385,3.385,0,0,1,.77.616A8.794,8.794,0,0,0,52.01-1.484Zm4.466.42A12.4,12.4,0,0,1,57.666.882l.812-.476a13.128,13.128,0,0,0-2.17-2.142ZM52.024-5.838a7.874,7.874,0,0,0,1.274-1.6h1.316a8.421,8.421,0,0,0,1.26,1.6ZM56.14-4.284H51.688v-.868H56.14Zm0,1.54H51.688v-.882H56.14Zm1.526-4.578A12.711,12.711,0,0,1,56.6-6.314a7.626,7.626,0,0,1-1.022-1.12h3V-8.26H53.76a7.8,7.8,0,0,0,.42-1.078l-.966-.126a6.6,6.6,0,0,1-.49,1.2H49.56v.826h2.646a6.979,6.979,0,0,1-.91,1.05,10.762,10.762,0,0,0-1.12-.854l-.56.49a9.283,9.283,0,0,1,1.092.868A8.6,8.6,0,0,1,48.958-4.8a2.324,2.324,0,0,1,.644.686,8.872,8.872,0,0,0,1.19-.7v2.758h2.6v2.1c0,.154-.028.182-.224.182s-.77.028-1.456,0a2.932,2.932,0,0,1,.336.854,6.388,6.388,0,0,0,1.876-.14C54.306.8,54.4.56,54.4.07V-2.058h2.674V-4.844a7.668,7.668,0,0,0,1.176.672,3.946,3.946,0,0,1,.616-.742,7.216,7.216,0,0,1-1.722-.952A10.929,10.929,0,0,0,58.31-6.86Zm6.944-4.3a14.387,14.387,0,0,1-3.794,5.614,5.957,5.957,0,0,1,.63,1.05A14.2,14.2,0,0,0,63.1-6.8V1.05H64.12V-8.3a20.8,20.8,0,0,0,1.526-3Zm9.17,4.466V-8.162H69.734v-3.36H68.712v3.36H64.778v1.008h3.388a14.222,14.222,0,0,1-3.878,5.726,6.04,6.04,0,0,1,.784.8,15.632,15.632,0,0,0,3.64-5.39v7.1h1.022V-6.314A17,17,0,0,0,73.36-.686a3.729,3.729,0,0,1,.784-.84,14.772,14.772,0,0,1-3.808-5.628Zm10.906-1.19a12.8,12.8,0,0,1-.714,1.456l.14.042h-3.29l.448-.1a5.44,5.44,0,0,0-.7-1.4ZM88.7-2.254v-.882H83.09V-4.172h4.382v-.8H83.09V-5.992h5.068v-.854H84.98c.28-.42.588-.966.868-1.5h2.8v-.9h-2.17a19.576,19.576,0,0,0,1.232-2.016l-1.064-.28a15.883,15.883,0,0,1-1.064,2.128l.518.168H84.406v-2.478h-.98V-9.24H81.76v-2.478h-.966V-9.24H79.072l.714-.266a9.65,9.65,0,0,0-1.19-2.058l-.882.294A10.913,10.913,0,0,1,78.82-9.24H76.594v.9H80.01l-.49.1a5.878,5.878,0,0,1,.686,1.4H77.154v.854h4.914V-4.97H77.854v.8h4.214v1.036h-5.53v.882h4.578A13.493,13.493,0,0,1,76.174-.042a4.458,4.458,0,0,1,.672.882,14.069,14.069,0,0,0,5.222-2.758V1.064H83.09V-1.988A13.217,13.217,0,0,0,88.354.882a3.743,3.743,0,0,1,.7-.924,12.809,12.809,0,0,1-5-2.212Z" transform="translate(518 5983)"/>
    <g id="グループ_156" data-name="グループ 156" transform="translate(-226 -12)">
      <path id="パス_12358" data-name="パス 12358" d="M19.556-58.271H-1.362L-4.7-47.021q.747-.088,1.428-.132t1.252-.044a21.351,21.351,0,0,1,16.216,6.68q6.372,6.636,6.372,17.007,0,10.723-7.207,17.666T-4.79,1.1q-13.491,0-21.27-12.656l7.734-6.548q3.208,5.449,6.46,7.69a13.878,13.878,0,0,0,7.954,2.2A13.809,13.809,0,0,0,6.416-12.524a15.142,15.142,0,0,0,4.175-10.767A14.394,14.394,0,0,0,6.46-33.926,13.788,13.788,0,0,0-3.867-38.188q-6.9,0-11.909,6.021H-19.16L-8.481-67.852H19.556Z" transform="translate(562 6092)" fill="#1778b1"/>
      <path id="パス_12516" data-name="パス 12516" d="M4.48-3.36V-5.488H6.9V-3.36Zm8.932,0H8.624V-5.488h3.7v-1.54h-3.7v-1.68h4.018v-1.61H4.732a8.938,8.938,0,0,0,.462-1.148L3.5-11.9A10.8,10.8,0,0,1,.56-7.238,12.885,12.885,0,0,1,2-6.16a12.582,12.582,0,0,0,1.9-2.548h3v1.68H2.814V-3.36H.6v1.6H6.9v3H8.624v-3h4.788Z" transform="translate(509 6089)" fill="#1778b1"/>
      <path id="パス_12517" data-name="パス 12517" d="M3.892-1.54V-4.676h6.216V-1.54Zm6.216-7.8v3.01H3.892v-3.01ZM2.17-11.018V1.05H3.892V.14h6.216v.882H11.9v-12.04Zm17.892.9v.742H17.906v-.742Zm-2.156,2.66v-.8h2.156v.8Zm3.71,1.19v-5.054H16.254V1.218h1.652v-7.49Zm2.548-1.162V-8.26H26.39v.826Zm2.226-2.688v.742H24.164v-.742ZM20.93-1.3V-2.17h2.31V-1.3Zm2.31-2.9v.84H20.93V-4.2Zm4.83-7.126H22.582v5.082H26.39V-.77c0,.224-.084.308-.336.308-.182.014-.7.014-1.246,0v-4.97h-5.39V.63H20.93V-.084H24.4a6.164,6.164,0,0,1,.364,1.3A6.049,6.049,0,0,0,27.328.9c.56-.266.742-.756.742-1.652Z" transform="translate(592 6089)" fill="#1778b1"/>
    </g>
    <g id="グループ_158" data-name="グループ 158" transform="translate(-21 -12)">
      <path id="パス_12357" data-name="パス 12357" d="M-4.482-31.509v-8.745q6.5,0,8.745-1.45,4-2.549,4-8.174a9.265,9.265,0,0,0-2.9-7.075,10.222,10.222,0,0,0-7.427-2.769,9.609,9.609,0,0,0-6.592,2.065Q-10.9-55.547-12-50.537h-10.2q1.582-9.58,6.5-14.041t13.755-4.46q8.921,0,14.546,5.273a17.588,17.588,0,0,1,5.625,13.491,16.718,16.718,0,0,1-7.383,14.5q8.438,4.966,8.438,16.128A19.616,19.616,0,0,1,13.14-4.7Q6.987,1.1-2.637,1.1-14.9,1.1-20.83-7.91q-2.461-3.779-3.12-10.459h9.888a12.023,12.023,0,0,0,3.845,7.537A11.836,11.836,0,0,0-2.241-8.218a11.06,11.06,0,0,0,8.218-3.3,11.866,11.866,0,0,0,3.252-8.569q0-6.855-4.878-9.756Q1.494-31.509-4.482-31.509Z" transform="translate(572 6092)" fill="#1778b1"/>
      <path id="パス_12518" data-name="パス 12518" d="M9.94-9.772H4v-.574H9.94Zm0,1.6H4v-.588H9.94Zm1.666-3.234h-9.2v4.3h9.2Zm-.8,7.924a5.862,5.862,0,0,1-.952,1.372,5.42,5.42,0,0,1-.938-1.372ZM3.388-1.82h1.82v.546c-.616.056-1.232.1-1.82.14Zm0-1.736h1.82v.588H3.388Zm1.82-1.722v.56H3.388v-.56Zm6.58.462-.28.056H7.154v1.274H8.442l-.924.252A8.574,8.574,0,0,0,8.792-1.162,7.188,7.188,0,0,1,6.8-.154V-5.278h6.412V-6.594H.77v1.316H1.862v4.256c-.434.042-.854.056-1.218.084L.77.49C2,.378,3.6.238,5.208.084V1.218H6.8V.084A6.189,6.189,0,0,1,7.546,1.2,9.122,9.122,0,0,0,9.926-.1a7.843,7.843,0,0,0,2.6,1.3,6.9,6.9,0,0,1,.98-1.3,7.827,7.827,0,0,1-2.464-1.036,8.346,8.346,0,0,0,1.764-3.29ZM28.336-6.384V-8.106h-5.5c.14-1.3.154-2.59.168-3.738h-1.82c-.014,1.148,0,2.422-.14,3.738h-5.1v1.722h4.816A8.393,8.393,0,0,1,15.68-.224,4.933,4.933,0,0,1,16.926,1.19a9.636,9.636,0,0,0,5.236-5.95,10.443,10.443,0,0,0,5.25,5.936A6.7,6.7,0,0,1,28.644-.392a9.342,9.342,0,0,1-5.236-5.992Z" transform="translate(509 6089)" fill="#1778b1"/>
      <path id="パス_12519" data-name="パス 12519" d="M4.48-3.36V-5.488H6.9V-3.36Zm8.932,0H8.624V-5.488h3.7v-1.54h-3.7v-1.68h4.018v-1.61H4.732a8.938,8.938,0,0,0,.462-1.148L3.5-11.9A10.8,10.8,0,0,1,.56-7.238,12.885,12.885,0,0,1,2-6.16a12.582,12.582,0,0,0,1.9-2.548h3v1.68H2.814V-3.36H.6v1.6H6.9v3H8.624v-3h4.788Z" transform="translate(602 6089)" fill="#1778b1"/>
    </g>
    <g id="グループ_157" data-name="グループ 157" transform="translate(255 5967)">
      <rect id="長方形_81" data-name="長方形 81" width="5.753" height="2.685" transform="translate(0 20.015)" fill="#1778b1"/>
      <rect id="長方形_82" data-name="長方形 82" width="5.752" height="2.685" transform="translate(36.964 20.015)" fill="#1778b1"/>
      <path id="パス_84" data-name="パス 84" d="M26.248,338.462l1.343,2.327,4.982-2.877-1.343-2.326Z" transform="translate(-24.058 -307.588)" fill="#1778b1"/>
      <path id="パス_85" data-name="パス 85" d="M416.271,116.383l-1.343-2.326-4.982,2.877,1.343,2.326Z" transform="translate(-375.745 -104.541)" fill="#1778b1"/>
      <path id="パス_86" data-name="パス 86" d="M114.065,414.929l2.326,1.343,2.877-4.982-2.326-1.343Z" transform="translate(-104.549 -375.745)" fill="#1778b1"/>
      <path id="パス_87" data-name="パス 87" d="M340.8,27.591l-2.327-1.343L335.6,31.23l2.326,1.343Z" transform="translate(-307.597 -24.058)" fill="#1778b1"/>
      <rect id="長方形_83" data-name="長方形 83" width="2.685" height="5.752" transform="translate(20.016 36.964)" fill="#1778b1"/>
      <rect id="長方形_84" data-name="長方形 84" width="2.685" height="5.752" transform="translate(20.016 0)" fill="#1778b1"/>
      <path id="パス_88" data-name="パス 88" d="M335.6,411.29l2.875,4.982,2.327-1.343-2.877-4.982Z" transform="translate(-307.597 -375.745)" fill="#1778b1"/>
      <path id="パス_89" data-name="パス 89" d="M119.267,31.23l-2.877-4.982-2.326,1.343,2.877,4.982Z" transform="translate(-104.549 -24.058)" fill="#1778b1"/>
      <path id="パス_90" data-name="パス 90" d="M409.947,337.912l4.982,2.877,1.343-2.327-4.982-2.876Z" transform="translate(-375.745 -307.588)" fill="#1778b1"/>
      <path id="パス_91" data-name="パス 91" d="M32.572,116.934l-4.982-2.877-1.343,2.326,4.982,2.877Z" transform="translate(-24.058 -104.541)" fill="#1778b1"/>
      <path id="パス_92" data-name="パス 92" d="M112.956,99.926a13.021,13.021,0,1,0,13.021,13.021A13.021,13.021,0,0,0,112.956,99.926Z" transform="translate(-91.597 -91.589)" fill="#1778b1"/>
    </g>
    <g id="グループ_159" data-name="グループ 159" transform="translate(460 5967)">
      <rect id="長方形_81-2" data-name="長方形 81" width="5.753" height="2.685" transform="translate(0 20.015)" fill="#1778b1"/>
      <rect id="長方形_82-2" data-name="長方形 82" width="5.752" height="2.685" transform="translate(36.964 20.015)" fill="#1778b1"/>
      <path id="パス_84-2" data-name="パス 84" d="M26.248,338.462l1.343,2.327,4.982-2.877-1.343-2.326Z" transform="translate(-24.058 -307.588)" fill="#1778b1"/>
      <path id="パス_85-2" data-name="パス 85" d="M416.271,116.383l-1.343-2.326-4.982,2.877,1.343,2.326Z" transform="translate(-375.745 -104.541)" fill="#1778b1"/>
      <path id="パス_86-2" data-name="パス 86" d="M114.065,414.929l2.326,1.343,2.877-4.982-2.326-1.343Z" transform="translate(-104.549 -375.745)" fill="#1778b1"/>
      <path id="パス_87-2" data-name="パス 87" d="M340.8,27.591l-2.327-1.343L335.6,31.23l2.326,1.343Z" transform="translate(-307.597 -24.058)" fill="#1778b1"/>
      <rect id="長方形_83-2" data-name="長方形 83" width="2.685" height="5.752" transform="translate(20.016 36.964)" fill="#1778b1"/>
      <rect id="長方形_84-2" data-name="長方形 84" width="2.685" height="5.752" transform="translate(20.016 0)" fill="#1778b1"/>
      <path id="パス_88-2" data-name="パス 88" d="M335.6,411.29l2.875,4.982,2.327-1.343-2.877-4.982Z" transform="translate(-307.597 -375.745)" fill="#1778b1"/>
      <path id="パス_89-2" data-name="パス 89" d="M119.267,31.23l-2.877-4.982-2.326,1.343,2.877,4.982Z" transform="translate(-104.549 -24.058)" fill="#1778b1"/>
      <path id="パス_90-2" data-name="パス 90" d="M409.947,337.912l4.982,2.877,1.343-2.327-4.982-2.876Z" transform="translate(-375.745 -307.588)" fill="#1778b1"/>
      <path id="パス_91-2" data-name="パス 91" d="M32.572,116.934l-4.982-2.877-1.343,2.326,4.982,2.877Z" transform="translate(-24.058 -104.541)" fill="#1778b1"/>
      <path id="パス_92-2" data-name="パス 92" d="M112.956,99.926a13.021,13.021,0,1,0,13.021,13.021A13.021,13.021,0,0,0,112.956,99.926Z" transform="translate(-91.597 -91.589)" fill="#1778b1"/>
    </g>
    <g id="グループ_160" data-name="グループ 160" transform="translate(374 5783.901)">
      <path id="パス_171" data-name="パス 171" d="M113.181,34.146A18.6,18.6,0,0,0,96.047,22.787H80.321V18.551A16.449,16.449,0,0,0,63.869,2.1H50.775A16.449,16.449,0,0,0,34.323,18.551v4.236H18.6A18.592,18.592,0,0,0,0,41.385V97.206a18.6,18.6,0,0,0,18.6,18.6H96.047a18.6,18.6,0,0,0,18.6-18.6V41.385A18.541,18.541,0,0,0,113.181,34.146ZM42.705,18.551a8.021,8.021,0,0,1,.633-3.141,8.126,8.126,0,0,1,2.929-3.554,8.018,8.018,0,0,1,4.508-1.375H63.869a8.011,8.011,0,0,1,3.139.633,8.1,8.1,0,0,1,3.554,2.929,7.987,7.987,0,0,1,1.375,4.508v4.236H42.705Zm63.556,78.655a10.131,10.131,0,0,1-.8,3.975,10.283,10.283,0,0,1-3.7,4.5,10.155,10.155,0,0,1-5.708,1.743H18.6a10.146,10.146,0,0,1-3.975-.8,10.252,10.252,0,0,1-4.5-3.706,10.14,10.14,0,0,1-1.743-5.707V54.617h97.88V97.206Zm0-49.4H8.382V41.385A10.215,10.215,0,0,1,18.6,31.17H96.047a10.213,10.213,0,0,1,10.215,10.215v6.42Z" transform="translate(0 0)" fill="#1778b1"/>
      <path id="パス_172" data-name="パス 172" d="M186.968,308.993h13.009V296.852h12.142V283.843H199.977V271.7H186.968v12.14H174.826v13.009h12.142Z" transform="translate(-135.68 -209.236)" fill="#1778b1"/>
    </g>
    <line id="線_25" data-name="線 25" y2="156" transform="translate(431.5 5967.5)" fill="none" stroke="#707070" stroke-width="1"/>
  </g>
</svg>
