<svg height="93" viewBox="0 0 85 93" width="85" xmlns="http://www.w3.org/2000/svg"><g fill="#fff"><path d="m85.672 35.164a7.689 7.689 0 1 0 -7.688-7.689 7.689 7.689 0 0 0 7.688 7.689z" transform="translate(-60.155 -13.576)"/><path d="m274.613 19.507h-1.577c.026-.123.053-.251.082-.393.542-2.609 1.713-8.155 2.323-10.516a9.073 9.073 0 0 1 3.4-5.2 9.064 9.064 0 0 1 10.555 0 9.077 9.077 0 0 1 3.4 5.2c.406 1.571 1.063 4.567 1.614 7.153.276 1.3.527 2.492.708 3.362l.081.393h-1.577v1.706h3.67l-.21-1.024s-.449-2.2-1-4.794-1.21-5.588-1.631-7.224a10.793 10.793 0 0 0 -4.051-6.147 10.775 10.775 0 0 0 -12.571 0 10.8 10.8 0 0 0 -4.042 6.148c-.421 1.636-1.077 4.627-1.631 7.224s-1 4.792-1 4.794l-.21 1.024h3.671v-1.706z" transform="translate(-221.442 2.962)"/><path d="m318.126 27.061a6.494 6.494 0 1 0 6.5 6.494 6.491 6.491 0 0 0 -6.5-6.494z" transform="translate(-255.454 -19.657)"/><path d="m104.78 131.648v3.908l3.29-1.13 3.291 1.13v-3.908l-3.291 1.13z" transform="translate(-82.553 -107.078)"/><path d="m102.286 161.838v-23.544a7.9 7.9 0 0 0 -2.513-5.315 8.128 8.128 0 0 0 -4.8-2.44c-.158-.014-.308-.022-.466-.022h-9.839a10.522 10.522 0 0 0 -1.194.067 10.656 10.656 0 0 0 -1.765.36 10.475 10.475 0 0 0 -6.523 5.663l-5.853 12.783-5.852-12.79a10.42 10.42 0 0 0 -5.6-5.337l-7.191 11.266-7.607-11.906c-3.39.663-6.705 4.3-6.705 7.67v25.84a3.374 3.374 0 0 0 3.372 3.375h2.35l1.281 22.037a3.59 3.59 0 0 0 3.591 3.588h7.84a3.589 3.589 0 0 0 3.59-3.588l1.282-22.037.563-20.725 6.757 14.765a2.66 2.66 0 0 0 2.3 1.464 2.655 2.655 0 0 0 2.349-1.466l6.6-14.415.63 6.4c-1.516 2.381-9.942 15.394-10.906 28.6h13.53l.793 8.069a2.611 2.611 0 0 0 2.617 2.612h5.716a2.61 2.61 0 0 0 2.611-2.612l1.182-8.065h14.048c-.544-7.449-3.474-14.845-6.188-20.297zm-32.42 18.59c.978-7.722 4.618-16.816 10.375-25.848l.085-.134.316-.5-.058-.585-.63-6.4-1.221-12.409a8.679 8.679 0 0 1 3.167-1.883c.177 3.473.5 9.23 6.4 9.23 6.081 0 6.2-5.915 6.263-9.448 0-.078 0-.154 0-.229.089 0 .175.005.255.012a6.11 6.11 0 0 1 3.165 1.43l-1.962 19.936-.057.583.31.494.048.076a88.055 88.055 0 0 1 4.436 7.848 57.234 57.234 0 0 1 5.829 17.828h-36.721z" transform="translate(-25.378 -106.132)"/></g><path d="m0 0h85v93h-85z" fill="none"/></svg>