<svg height="103.994" viewBox="0 0 100.811 103.994" width="100.811" xmlns="http://www.w3.org/2000/svg"><g fill="#1778b1"><path d="m-39.9-35.288a16.678 16.678 0 0 1 -7.471-14.37 18.5 18.5 0 0 1 5.669-13.8 19.593 19.593 0 0 1 14.192-5.536 19.239 19.239 0 0 1 14.063 5.537 18.538 18.538 0 0 1 5.625 13.843q0 8.745-7.427 14.282a15.737 15.737 0 0 1 6.416 6.416 19.023 19.023 0 0 1 2.373 9.492 19.753 19.753 0 0 1 -5.889 14.766q-5.888 5.758-15.073 5.758-9.4 0-15.513-5.8a19.2 19.2 0 0 1 -6.152-14.59q0-11.428 9.187-15.998zm2.151-14.412a9.907 9.907 0 0 0 2.949 7.293 9.822 9.822 0 0 0 7.2 2.988 9.771 9.771 0 0 0 7.163-2.988 9.771 9.771 0 0 0 2.988-7.163 9.771 9.771 0 0 0 -2.988-7.163 9.771 9.771 0 0 0 -7.163-2.989 9.771 9.771 0 0 0 -7.163 2.988 9.621 9.621 0 0 0 -2.986 7.034zm-1.274 30.059a11.262 11.262 0 0 0 3.252 8.086 10.818 10.818 0 0 0 8 3.34 10.839 10.839 0 0 0 7.954-3.3 10.985 10.985 0 0 0 3.3-8 10.89 10.89 0 0 0 -3.3-8 10.839 10.839 0 0 0 -7.954-3.3 10.933 10.933 0 0 0 -7.954 3.3 10.738 10.738 0 0 0 -3.298 7.871zm42.846-14.724q0-16.216 7.559-25.884 6.768-8.745 16.392-8.745t16.392 8.745q7.559 9.668 7.559 26.323 0 16.611-7.559 26.279-6.766 8.747-16.349 8.747t-16.435-8.746q-7.559-9.668-7.559-26.719zm10.063.044q0 11.294 3.911 18.765 3.911 7.339 9.976 7.339 6.021 0 9.976-7.339 3.951-7.296 3.951-18.414t-3.951-18.457q-3.955-7.295-9.976-7.295-5.977 0-9.932 7.295-3.954 7.251-3.954 18.106z" transform="translate(49.087 68.994)"/><text font-family="Futura-Medium, Futura" font-size="19" font-weight="500" transform="translate(43.087 98.994)"><tspan x="-27.702" y="0">%</tspan><tspan font-family="HiraginoSans-W4, Hiragino Sans" font-weight="400" y="0">以上</tspan></text></g></svg>