<svg height="104" viewBox="0 0 151.578 104" width="151.578" xmlns="http://www.w3.org/2000/svg"><g fill="#1778b1"><path d="m14 278.616a17.732 17.732 0 0 1 -5.22-12.571v-18.294h-8.78v18.294a26.6 26.6 0 0 0 26.575 26.578h12v-8.784h-12a17.711 17.711 0 0 1 -12.575-5.223z" transform="translate(0 -196.294)"/><path d="m58.369 109.952a11.591 11.591 0 1 0 -11.592-11.592 11.583 11.583 0 0 0 11.592 11.592z" transform="translate(-32.929 -82.971)"/><path d="m86.573 213.942h-16.261v-24.2a11.34 11.34 0 1 0 -22.679 0v27.576a11.339 11.339 0 0 0 11.338 11.341c.851 0 20.731-.058 20.731-.058l1.088 16.779a6.227 6.227 0 1 0 12.45-.274l.66-23.836a7.324 7.324 0 0 0 -7.327-7.328z" transform="translate(-33.531 -147.47)"/><path d="m411.5 247.751v18.294a17.828 17.828 0 0 1 -17.791 17.794h-12v8.784h12a26.6 26.6 0 0 0 26.572-26.578v-18.294z" transform="translate(-268.701 -196.294)"/><path d="m354.356 217.313v-27.576a11.341 11.341 0 1 0 -22.682 0v24.2h-16.261a7.324 7.324 0 0 0 -7.327 7.327l.661 23.836a6.227 6.227 0 1 0 12.45.274l1.088-16.782s19.88.058 20.731.058a11.341 11.341 0 0 0 11.34-11.337z" transform="translate(-216.877 -147.47)"/><path d="m45.488 51.567h62.877v10.701h-62.877z"/><path d="m72.25 68.013h7.317v25.903h-7.317z"/><path d="m457.268 90.275c-1.121 8.207 6.522 9.1 8.7 6.811-2.275-.454-3.017-5.294-1.88-8.479s2.125-9.405-.851-12.225c-3.809-3.614-9.766-3.246-12.345 1.3.758.911 2.447 1.871 3.337 2.883 2.431-.908 3.766 4.384 3.039 9.71z" transform="translate(-317.408 -73.939)"/><path d="m396.081 109.759a11.6 11.6 0 1 0 -9.714-13.223 11.607 11.607 0 0 0 9.714 13.223z" transform="translate(-271.888 -82.913)"/></g></svg>