<svg height="93" viewBox="0 0 68.238 93" width="68.238" xmlns="http://www.w3.org/2000/svg"><path d="m67.058 21.086a11.018 11.018 0 0 0 -10.152-6.73h-9.317v-2.51a9.746 9.746 0 0 0 -9.748-9.746h-7.758a9.746 9.746 0 0 0 -9.748 9.747v2.51h-9.316a11.016 11.016 0 0 0 -11.019 11.018v33.073a11.018 11.018 0 0 0 11.019 11.019h45.887a11.018 11.018 0 0 0 11.019-11.019v-33.073a10.985 10.985 0 0 0 -.867-4.289zm-41.758-9.239a4.752 4.752 0 0 1 .375-1.861 4.815 4.815 0 0 1 1.737-2.106 4.75 4.75 0 0 1 2.671-.815h7.758a4.747 4.747 0 0 1 1.86.375 4.8 4.8 0 0 1 2.106 1.735 4.732 4.732 0 0 1 .815 2.671v2.51h-17.322zm37.656 46.6a6 6 0 0 1 -.475 2.355 6.092 6.092 0 0 1 -2.195 2.665 6.017 6.017 0 0 1 -3.38 1.033h-45.887a6.011 6.011 0 0 1 -2.355-.475 6.074 6.074 0 0 1 -2.664-2.196 6.008 6.008 0 0 1 -1.032-3.381v-25.233h57.991v25.233zm0-29.269h-57.99v-3.8a6.052 6.052 0 0 1 6.052-6.052h45.888a6.051 6.051 0 0 1 6.052 6.052v3.8z" fill="#fff" transform="translate(.313 7.863)"/><path d="m182.02 293.8h7.708v-7.2h7.194v-7.7h-7.194v-7.2h-7.708v7.2h-7.194v7.7h7.194z" fill="#fff" transform="translate(-151.32 -225.974)"/><path d="m0 0h68v93h-68z" fill="none"/></svg>