<svg height="93" viewBox="0 0 58 93" width="58" xmlns="http://www.w3.org/2000/svg"><g fill="#fff"><path d="m172.853 25.417a12.708 12.708 0 1 0 -12.71-12.707 12.708 12.708 0 0 0 12.71 12.707z" transform="translate(-145.203 2.572)"/><path d="m166.426 391.382a5.394 5.394 0 0 0 3.7 9.209l3.758-10.79h-3.646a5.38 5.38 0 0 0 -3.812 1.581z" transform="translate(-149.178 -326.963)"/><path d="m138.687 239.268-1.114-6.653-3.014-17.992c-1.964-5.446-4.93-10.2-10.945-11.121v26.414h2.923v2.249h-2.923v13.045h-20.692l.019-.054a7.645 7.645 0 0 1 .88-15.239h4.429l9.263-26.579h-18.376c-6.163 0-12.861 6.7-12.861 12.86v34.861h38.535v-5.849h8.845a5.1 5.1 0 0 0 5.03-5.942z" transform="translate(-82.756 -169.328)"/></g><path d="m0 0h58v93h-58z" fill="none"/></svg>