<svg height="87" viewBox="0 0 90 87" width="90" xmlns="http://www.w3.org/2000/svg"><path d="m66.187 36.1a5.892 5.892 0 0 0 -.283-1.8 5.9 5.9 0 0 0 -5.611-4.088h-16.55l-5.043-15.688a5.894 5.894 0 0 0 -11.224 0l2.547.819-2.547-.818-5.033 15.684h-16.549a5.9 5.9 0 0 0 -5.611 4.091 5.894 5.894 0 0 0 2.176 6.594l13.406 9.625-5.165 15.664a5.892 5.892 0 0 0 2.13 6.615 5.9 5.9 0 0 0 6.948-.012l13.315-9.756 13.307 9.753a5.9 5.9 0 0 0 6.947.012 5.9 5.9 0 0 0 2.133-6.612l-5.156-15.667 13.4-9.625a5.9 5.9 0 0 0 2.463-4.791zm-5.578.442-15 10.771a2.671 2.671 0 0 0 -.981 3.011l5.772 17.532.026.169a.545.545 0 0 1 -.226.443.536.536 0 0 1 -.319.1.548.548 0 0 1 -.324-.1l-14.882-10.913a2.682 2.682 0 0 0 -3.163 0l-14.889 10.91a.539.539 0 0 1 -.322.1.532.532 0 0 1 -.319-.1.545.545 0 0 1 -.225-.439l.027-.168 5.775-17.531a2.67 2.67 0 0 0 -.981-3.011l-15-10.771a.54.54 0 0 1 -.228-.445l.026-.165a.543.543 0 0 1 .518-.377h18.5a2.674 2.674 0 0 0 2.548-1.858l5.634-17.543a.544.544 0 0 1 1.035 0l5.633 17.543a2.674 2.674 0 0 0 2.547 1.859h18.5a.542.542 0 0 1 .517.377l.026.165a.542.542 0 0 1 -.225.443z" fill="#fff" transform="translate(14.002 -1.739)"/><path d="m0 0h90v87h-90z" fill="none"/></svg>