<svg height="43.906" viewBox="0 0 43.907 43.906" width="43.907" xmlns="http://www.w3.org/2000/svg"><g fill="#1778b1"><path d="m86.767 197.768a.711.711 0 0 0 .206.034.675.675 0 0 0 .652-.48.687.687 0 0 0 -.439-.864.7.7 0 0 0 -.865.446.685.685 0 0 0 .446.864z" transform="translate(-78.888 -179.583)"/><path d="m148.094 112.631a.707.707 0 0 0 .412-.137h-.006a.682.682 0 0 0 .151-.954.691.691 0 0 0 -.961-.151.682.682 0 0 0 -.144.961.675.675 0 0 0 .548.281z" transform="translate(-134.768 -101.717)"/><path d="m247.6 79.591h.007a.686.686 0 0 0 -.007-1.372.7.7 0 0 0 -.686.693.686.686 0 0 0 .686.679z" transform="translate(-225.743 -71.511)"/><path d="m347.547 111.426a.683.683 0 0 0 .555-.288.684.684 0 1 0 -.953.157.668.668 0 0 0 .398.131z" transform="translate(-317.117 -100.616)"/><path d="m87.352 301.3a.676.676 0 0 0 -.432.864h-.007a.692.692 0 0 0 .659.474.6.6 0 0 0 .212-.035.686.686 0 0 0 -.432-1.3z" transform="translate(-79.432 -275.432)"/><path d="m148.992 386.053a.691.691 0 0 0 .158.961.713.713 0 0 0 .4.123.7.7 0 0 0 .562-.281.688.688 0 0 0 -1.118-.8z" transform="translate(-136.098 -352.686)"/><path d="m410.466 299.864a.685.685 0 0 0 -.864.446.678.678 0 0 0 .446.858.553.553 0 0 0 .212.034.685.685 0 0 0 .206-1.338z" transform="translate(-374.446 -274.118)"/><path d="m409.7 195.884a.824.824 0 0 0 .212-.034.7.7 0 0 0 .439-.872l-.021-.041v-.007a.687.687 0 0 0 -1.3.433.09.09 0 0 1 .014.041c.007 0 .007 0 .007.007a.684.684 0 0 0 .649.473z" transform="translate(-373.924 -177.788)"/><path d="m348.6 385.037a.684.684 0 0 0 -.151.961.7.7 0 0 0 .555.281.665.665 0 0 0 .4-.137.683.683 0 1 0 -.8-1.1z" transform="translate(-318.45 -351.896)"/><path d="m249.439 417.742a.686.686 0 0 0 .007 1.372.686.686 0 1 0 -.007-1.372z" transform="translate(-227.428 -381.918)"/><path d="m21.953 0a21.953 21.953 0 1 0 21.954 21.953 21.978 21.978 0 0 0 -21.954-21.953zm0 38.68a16.726 16.726 0 1 1 16.727-16.727 16.745 16.745 0 0 1 -16.727 16.727z"/><path d="m238.595 130.672h-3.587v13.685h11.892v-3.587h-8.3z" transform="translate(-214.855 -119.466)"/></g></svg>