<svg height="87" viewBox="0 0 90 87" width="90" xmlns="http://www.w3.org/2000/svg"><g fill="#fff"><path d="m668.684 159.834a5.586 5.586 0 1 1 -5.586-5.586 5.586 5.586 0 0 1 5.586 5.586z" transform="translate(-606.436 -149.556)"/><path d="m622.1 227.581a4.826 4.826 0 1 1 -4.826-4.828 4.826 4.826 0 0 1 4.826 4.828z" transform="translate(-587.217 -178.775)"/><path d="m606.486 278.337a2.844 2.844 0 1 1 -2.844-2.844 2.844 2.844 0 0 1 2.844 2.844z" transform="translate(-582.247 -201.27)"/><path d="m624.086 278.337a2.844 2.844 0 1 1 -2.844-2.844 2.844 2.844 0 0 1 2.844 2.844z" transform="translate(-589.753 -201.27)"/><path d="m611 253.832h-9.457l1.6-2.875h7.857a5.021 5.021 0 0 0 4.231-3.767c.6-1.851 5.117-18.692 5.164-18.866l.284-1.067h7.972l-.868 2.875h-4.895s-4.384 16.276-4.922 17.941c-1.217 3.779-4.425 5.759-6.966 5.759z" transform="translate(-582.566 -180.696)"/><path d="m607.049 241.312c-2.286.38-9.995 2.35-9.995 2.35a1.5 1.5 0 1 0 .648 2.926l4.943-.578-.958 3.674h-3.753a3.363 3.363 0 0 0 -3.44 1.974l-2.98 6.658a1.966 1.966 0 0 0 1.008 2.593 2 2 0 0 0 2.595-1.009l2.577-4.545h7.586a3.923 3.923 0 0 0 3.833-2.635c.479-1.757 2.035-7.936 2.035-7.936.752-2.744-1.437-3.915-4.099-3.472z" transform="translate(-578.216 -186.652)"/><path d="m668.894 209.482 3.64 27.022a2.855 2.855 0 0 1 -2.26 3.31 2.956 2.956 0 0 1 -3.311-2.259l-6.334-23.341-7.542 23.386a2.835 2.835 0 0 1 -5.552-1.147l6.408-34.986-1.751-7.721-5.02 10.031a2.174 2.174 0 0 1 -3.97-1.773l4.12-10.433 3.092-7.826c3.545-8.571 12.8-4.735 13.5-.446l3.407 17.285c.627 2.779 1.32 6.753 1.573 8.898z" transform="translate(-600.252 -159.952)"/></g><path d="m0 0h90v87h-90z" fill="none"/></svg>