<svg height="93" viewBox="0 0 132 93" width="132" xmlns="http://www.w3.org/2000/svg"><g fill="#fff"><path d="m66.32 129.424h-57.438a8.882 8.882 0 0 0 -8.882 8.882v5.921l31.248 6.067v-.5a2.961 2.961 0 0 1 2.961-2.961h6.611a2.961 2.961 0 0 1 2.961 2.961v.5l31.419-6.125v-5.863a8.882 8.882 0 0 0 -8.88-8.882z" transform="translate(19.725 -107.64)"/><path d="m43.781 271.855a2.961 2.961 0 0 1 -2.961 2.961h-6.611a2.961 2.961 0 0 1 -2.961-2.961v-5.875l-31.248-6.067v24.125a8.882 8.882 0 0 0 8.882 8.882h57.438a8.882 8.882 0 0 0 8.882-8.882v-24.184l-31.421 6.126z" transform="translate(19.725 -218.913)"/><path d="m54.106 42.326h6.267v10.445h-6.267z"/><path d="m156.042 33.6a.94.94 0 0 1 .94-.941h17.86a.94.94 0 0 1 .94.941v4.7h5.64v-4.7a6.582 6.582 0 0 0 -6.58-6.581h-17.86a6.58 6.58 0 0 0 -6.582 6.581v4.7h5.64v-4.7z" transform="translate(-108.587 -20.278)"/><path d="m-214.8 2338.746c-1.923-2.477.772-6.162-1.023-8.471s-6.033-.609-7.958-3.084-.09-5.225-2.529-8.363-5.941-.147-5.941-.147l-21.9 37.29-10.415 3.878 4 5.15 4 5.153 6.245-9.249 41.674-11.848s3.759-2.658 1.321-5.793-5.554-2.039-7.474-4.516z" transform="translate(334.098 -2280.625)"/><path d="m-191.936 2327.793a2.721 2.721 0 0 0 .484-3.818 2.721 2.721 0 0 0 -3.818-.483 2.721 2.721 0 0 0 -.483 3.818 2.726 2.726 0 0 0 3.817.483z" transform="translate(307.336 -2282.126)"/><path d="m-180.587 2344.31a2.614 2.614 0 0 0 -.459 3.668 2.613 2.613 0 0 0 3.668.459 2.614 2.614 0 0 0 .46-3.668 2.617 2.617 0 0 0 -3.669-.459z" transform="translate(301.694 -2290.726)"/><path d="m-182.3 2330.549a2.823 2.823 0 0 0 -.5 3.961 2.823 2.823 0 0 0 3.961.5 2.822 2.822 0 0 0 .5-3.961 2.824 2.824 0 0 0 -3.961-.5z" transform="translate(302.997 -2285.437)"/><path d="m-168.51 2339.252a1.881 1.881 0 0 0 -2.639-.331 1.881 1.881 0 0 0 -.331 2.639 1.881 1.881 0 0 0 2.639.331 1.88 1.88 0 0 0 .331-2.639z" transform="translate(298.587 -2289.337)"/><path d="m-178.83 2323.325a2.4 2.4 0 0 0 .425-3.376 2.407 2.407 0 0 0 -3.376-.424 2.406 2.406 0 0 0 -.424 3.376 2.4 2.4 0 0 0 3.364.43z" transform="translate(302.738 -2280.63)"/><path d="m-187.787 2318.226a1.567 1.567 0 0 0 .275-2.2 1.567 1.567 0 0 0 -2.2-.275 1.566 1.566 0 0 0 -.276 2.2 1.563 1.563 0 0 0 2.194.279z" transform="translate(305.651 -2278.636)"/><path d="m-168.566 2330.622a2.09 2.09 0 0 0 .368-2.933 2.091 2.091 0 0 0 -2.933-.369 2.091 2.091 0 0 0 -.369 2.934 2.09 2.09 0 0 0 2.934.368z" transform="translate(298.611 -2284.259)"/></g><path d="m0 0h132v93h-132z" fill="none"/></svg>