<svg height="93" viewBox="0 0 56 93" width="56" xmlns="http://www.w3.org/2000/svg"><path d="m149.545 27.82c-.901-18.468-22.056-27.82-24.981-27.82s-24.08 9.352-24.98 27.82c-.808 16.577 2.7 54.235 24.98 54.235s25.789-37.655 24.981-54.235zm-27.151-14.447a15.606 15.606 0 0 1 4.729.106 3.527 3.527 0 0 1 .281.367 5.38 5.38 0 0 1 .8 3.053 12.914 12.914 0 0 1 -.913 4.426 15.065 15.065 0 0 1 -4.024-4.585 6.764 6.764 0 0 1 -.88-3.142c.001-.084.003-.158.007-.225zm-1.518.268a8.306 8.306 0 0 0 1.055 3.806 13.276 13.276 0 0 0 1.569 2.307c-.677-.273-1.356-.528-1.992-.8a7.949 7.949 0 0 1 -2.708-1.664 3.64 3.64 0 0 1 -.769-1.2 4.45 4.45 0 0 1 -.279-1.375 15.642 15.642 0 0 1 3.124-1.074zm17.089 47.943a.884.884 0 0 1 -1.247.069l-16.662-14.908a18.362 18.362 0 0 0 3.186.482l3.9 3.491 4.374-4.887a18.058 18.058 0 0 0 2.4-1.235.879.879 0 0 1 .012 1.182l-5.47 6.122 9.438 8.443a.883.883 0 0 1 .069 1.241zm5.985-28.884a2.924 2.924 0 0 1 -3.052.692l-1.194-.42-.416 1.195a15.754 15.754 0 0 1 -29.731.082l-.391-1.106-1.13.31a2.9 2.9 0 0 1 -.78.109 2.941 2.941 0 0 1 0-5.881c.053 0 .129 0 .235.013l1.169.092.176-1.159a15.79 15.79 0 0 1 7.478-11.145 5.5 5.5 0 0 0 .32 1.2 5.125 5.125 0 0 0 .944 1.522 7.757 7.757 0 0 0 2.408 1.728c1.327.653 2.761 1.1 3.966 1.666a8.1 8.1 0 0 1 1.588.933 3.751 3.751 0 0 1 1.043 1.218.755.755 0 0 0 1.356-.032 16.5 16.5 0 0 0 1.779-6.811 7.512 7.512 0 0 0 -.54-2.921 15.768 15.768 0 0 1 10.811 12.679l.185 1.251 1.251-.191a2.984 2.984 0 0 1 .447-.039 2.941 2.941 0 0 1 2.078 5.015z" fill="#fff" transform="translate(-96.48 .236)"/><path d="m0 0h56v93h-56z" fill="none"/></svg>