<svg height="100.296" viewBox="0 0 269.23 100.296" width="269.23" xmlns="http://www.w3.org/2000/svg"><g fill="#064a6f"><path d="m-56.228-58.271h-11.733l5.625-9.58h16.348v67.851h-10.24zm29.575 23.906q0-16.216 7.559-25.884 6.768-8.745 16.392-8.745t16.392 8.745q7.559 9.668 7.559 26.323 0 16.611-7.559 26.279-6.769 8.747-16.349 8.747t-16.435-8.746q-7.559-9.668-7.559-26.719zm10.063.044q0 11.294 3.911 18.765 3.912 7.338 9.979 7.338 6.021 0 9.976-7.339 3.955-7.295 3.955-18.413t-3.958-18.457q-3.955-7.295-9.973-7.295-5.977 0-9.932 7.295-3.957 7.251-3.957 18.106zm45.483-.044q0-16.216 7.559-25.884 6.768-8.745 16.392-8.745t16.392 8.745q7.559 9.668 7.559 26.323 0 16.611-7.559 26.279-6.768 8.747-16.348 8.747t-16.435-8.746q-7.559-9.668-7.559-26.719zm10.063.044q0 11.294 3.911 18.765 3.911 7.339 9.976 7.339 6.021 0 9.976-7.339 3.955-7.295 3.955-18.413t-3.954-18.458q-3.955-7.295-9.976-7.295-5.977 0-9.932 7.295-3.954 7.251-3.954 18.106z" transform="translate(131.03 98.678)"/><path d="m-14.294-19.938a5.625 5.625 0 0 1 1.843-4.184 6.114 6.114 0 0 1 4.333-1.778 5.994 5.994 0 0 1 4.35 1.793 5.722 5.722 0 0 1 1.826 4.25 5.74 5.74 0 0 1 -1.826 4.267 6.082 6.082 0 0 1 -4.4 1.776 5.912 5.912 0 0 1 -4.333-1.81 5.92 5.92 0 0 1 -1.793-4.314zm2.889.05a3.206 3.206 0 0 0 .963 2.357 3.186 3.186 0 0 0 2.341.963 3.148 3.148 0 0 0 2.308-.963 3.167 3.167 0 0 0 .963-2.324 3.148 3.148 0 0 0 -.963-2.308 3.167 3.167 0 0 0 -2.324-.963 3.167 3.167 0 0 0 -2.324.963 3.11 3.11 0 0 0 -.964 2.274zm17.846-6.193 1.81 1.029-14.676 25.467-1.826-1.1zm-4.515 20.187a5.607 5.607 0 0 1 1.843-4.167 6.114 6.114 0 0 1 4.331-1.776 6.014 6.014 0 0 1 4.366 1.793 5.722 5.722 0 0 1 1.826 4.25 5.681 5.681 0 0 1 -1.843 4.267 6.076 6.076 0 0 1 -4.4 1.76 5.939 5.939 0 0 1 -4.33-1.794 5.9 5.9 0 0 1 -1.793-4.333zm2.905.066a3.235 3.235 0 0 0 .946 2.358 3.186 3.186 0 0 0 2.341.963 3.113 3.113 0 0 0 2.308-.963 3.167 3.167 0 0 0 .963-2.324 3.167 3.167 0 0 0 -.963-2.324 3.132 3.132 0 0 0 -2.326-.963 3.148 3.148 0 0 0 -2.308.963 3.129 3.129 0 0 0 -.961 2.291z" transform="translate(230.03 81.678)"/><path d="m-28.152 0h5.7v-1.176h-2.208c-.432 0-.984.036-1.44.084 1.872-1.788 3.228-3.552 3.228-5.256a2.5 2.5 0 0 0 -2.664-2.652 3.429 3.429 0 0 0 -2.688 1.32l.78.768a2.4 2.4 0 0 1 1.744-.988 1.434 1.434 0 0 1 1.5 1.62c0 1.452-1.344 3.168-3.948 5.472zm10.932.156c1.728 0 2.856-1.536 2.856-4.608 0-3.048-1.128-4.548-2.856-4.548s-2.856 1.488-2.856 4.548 1.128 4.608 2.856 4.608zm0-1.092c-.9 0-1.536-.96-1.536-3.516 0-2.532.636-3.456 1.536-3.456s1.536.924 1.536 3.456c0 2.552-.636 3.516-1.536 3.516zm5.652.936h5.04v-1.14h-1.728v-7.7h-1.044a5.194 5.194 0 0 1 -1.92.684v.876h1.584v6.14h-1.932zm8.808-6.1c0-1.152.6-1.836 1.356-1.836.96 0 1.62.792 1.752 2.532a2.1 2.1 0 0 1 -1.68 1.08c-.924.004-1.428-.644-1.428-1.776zm1.116 6.256c1.7 0 3.288-1.392 3.288-4.872 0-2.928-1.368-4.284-3.06-4.284a2.7 2.7 0 0 0 -2.628 2.9c0 1.848 1 2.772 2.472 2.772a2.655 2.655 0 0 0 1.944-1.028c-.084 2.52-1.008 3.384-2.072 3.384a1.963 1.963 0 0 1 -1.44-.66l-.76.852a3.031 3.031 0 0 0 2.256.936zm8.76-2.94v-2.124h2.412v2.124zm7.776 0h-4.212v-2.124h3.348v-1.044h-3.348v-1.656h3.62v-1.08h-6.944c.156-.36.324-.756.468-1.128l-1.128-.3a9.709 9.709 0 0 1 -2.616 4.068 8.874 8.874 0 0 1 .972.72 10.917 10.917 0 0 0 1.728-2.28h2.748v1.656h-3.528v3.168h-1.932v1.084h5.46v2.648h1.152v-2.648h4.212zm4.308-5.16h8.784v-1h-4.368v-1.128h-1.164v1.132h-4.32v3.384c0 1.74-.084 4.176-1.056 5.88a5.051 5.051 0 0 1 .912.612c1.044-1.824 1.212-4.608 1.212-6.492zm5.772 2.112v1.056h-2.592v-1.056zm1.092 1.92v-1.92h1.836v-.912h-1.836v-.912h-1.092v.912h-2.592v-.912h-1.056v.912h-1.776v.912h1.776v1.92zm-.5 1.524a5.531 5.531 0 0 1 -1.776 1.3 5.162 5.162 0 0 1 -1.74-1.3zm.936-.936-.2.036h-6.62v.9h1.836l-.54.2a6.388 6.388 0 0 0 1.656 1.552 16.731 16.731 0 0 1 -3.432.66 3.421 3.421 0 0 1 .468.936 15.753 15.753 0 0 0 4.08-.984 13.58 13.58 0 0 0 3.8 1 3.974 3.974 0 0 1 .652-.964 15.778 15.778 0 0 1 -3.252-.636 5.788 5.788 0 0 0 2.232-2.328z" transform="translate(241.03 99.324)"/><path d="m194.4 187.33a7.379 7.379 0 1 1 2.858-10.035 7.378 7.378 0 0 1 -2.858 10.035z" transform="translate(-183.427 -160.497)"/><path d="m229.8 167.478a5.953 5.953 0 1 1 2.272-8.107 5.954 5.954 0 0 1 -2.272 8.107z" transform="translate(-192.521 -156.334)"/><path d="m225.162 205.056c-.142-1.882 2.981-17.829 2.981-17.829s-.667-2.351-2.045-6.574c-.319-.976-.552-1.755-.7-2.406l-2.561-.4a1.774 1.774 0 0 1 -.248-.042l-6.482-1.091a2.068 2.068 0 0 1 .4-4.081s10.748-.185 10.832-.177a8.008 8.008 0 0 1 6.833 2.5c1.892 2.229 6.414 10.464 4.424 20.286l-.421 10.492a2.446 2.446 0 0 1 -4.892.08l-.874-7.047-2.463 7.152a2.444 2.444 0 0 1 -4.784-.867z" transform="translate(-190.964 -160.232)"/><path d="m223.624 179.914a2.871 2.871 0 0 0 -3.953-.929l-12.248 6.865a3.562 3.562 0 0 0 -.679.322l-9.719 5.39c-3.185 1.762-5.214 4.229-3.213 9.1 1.006 2.432 4.116 9.555 6.56 16.165 1.232 3.3 2.305 6.463 3.031 8.8a28.119 28.119 0 0 1 .842 3.422c.411 2.086.71 4.326.961 6.587s.449 4.572.621 6.89c.455 6.187.736 6.921 1.021 13.212a3.744 3.744 0 0 0 7.486 0c.28-6.3.567-7.08.673-13.475.048-3.08.055-6.176-.056-9.332-.036-2.732-.348-5.387-.357-5.392s-.036-.445-.13-1.254c-.048-.407-.111-.9-.2-1.491-.045-.295-.1-.611-.163-.952l-.216-1.054c-.548-2.594-1.382-6.069-2.374-9.661-1.714-6.281-3.681-12.733-4.92-16.008l16.107-13.25a2.869 2.869 0 0 0 .926-3.955z" transform="translate(-185.752 -161.722)"/></g></svg>