<svg height="87" viewBox="0 0 90 87" width="90" xmlns="http://www.w3.org/2000/svg"><g fill="#fff"><path d="m294.583 14.664a7.573 7.573 0 1 0 -9.75-4.429 7.563 7.563 0 0 0 9.75 4.429z" transform="translate(-231.569 4.692)"/><path d="m226.333 154.256v-20.3a5.573 5.573 0 0 0 -11.144.192v18.31l-12.035 2.2c-2.573.437-4.644 2.236-4.657 4.971l.366 18.341a3.879 3.879 0 1 0 7.758.029l1.127-14.4h10.368c5.822-.018 8.234-3.525 8.217-9.343z" transform="translate(-157.831 -105.661)"/><path d="m303.147 232.988a2.936 2.936 0 0 0 -3.485 2.266l-3.133 14.76a9.929 9.929 0 0 1 -.9 2.506 4.892 4.892 0 0 1 -1.983 2.029 9.448 9.448 0 0 1 -3.85.981c-.462.039-.956.066-1.485.07h-8.291a2.945 2.945 0 0 0 .1 5.889h8.248c.649-.006 1.281-.047 1.891-.093a17.463 17.463 0 0 0 4.318-.854 10.982 10.982 0 0 0 5.057-3.479 13.936 13.936 0 0 0 2.623-5.714l.009-.034 3.147-14.84a2.936 2.936 0 0 0 -2.266-3.487z" transform="translate(-225.366 -195.364)"/><path d="m58.694 114.03v-4.21h-15.218l-5.62-14.141-3.913 1.554 6.677 16.8z" transform="translate(-16.496 -77.486)"/><path d="m66.062 240.369h-30.389v38.331h5.392v-32.455h25z" transform="translate(-17.982 -201.76)"/></g><path d="m0 0h90v87h-90z" fill="none"/></svg>