<svg height="87" viewBox="0 0 90 87" width="90" xmlns="http://www.w3.org/2000/svg"><g fill="#fff" transform="translate(4.416 8.692)"><path d="m25.465 48.74h14.496v2.698h-14.496z"/><path d="m25.465 37.797h19.821v2.698h-19.821z"/><path d="m25.465 26.857h28.237v2.698h-28.237z"/><path d="m40.393 15.917h13.309v2.698h-13.309z"/><path d="m61.345 57.551a2.523 2.523 0 0 1 -2.519 2.52h-38.485a2.523 2.523 0 0 1 -2.519-2.52v-35.789h15.4a3.092 3.092 0 0 0 3.088-3.09v-15.435h22.516a2.521 2.521 0 0 1 2.519 2.518v18.185l3.238-3.24v-14.945a5.763 5.763 0 0 0 -5.757-5.755h-23.352a6.321 6.321 0 0 0 -4.474 1.851l-14.564 14.567a6.322 6.322 0 0 0 -1.852 4.472v36.661a5.764 5.764 0 0 0 5.757 5.757h38.485a5.764 5.764 0 0 0 5.757-5.757v-15.482l-3.238 3.237zm-27.912-53.551v12.94c0 1.4-.545 1.944-1.944 1.944h-12.941z"/><path d="m438.362 179.242-3.433-3.433a1.529 1.529 0 0 0 -2.163 0l-2.225 2.225 5.6 5.6 2.225-2.225a1.529 1.529 0 0 0 -.004-2.167z" transform="translate(-364.525 -153.678)"/><path d="m249.377 364.632-1.908 7.5 7.5-1.908z" transform="translate(-204.089 -319.546)"/><path d="m272.152 223.775 5.6 5.6 18.563-18.575-5.6-5.6zm20.729-13.861-16.181 16.176-1.272-1.273 16.176-16.177z" transform="translate(-225.72 -179.834)"/></g><path d="m0 0h90v87h-90z" fill="none"/></svg>