<svg height="54.677" viewBox="0 0 45.753 54.677" width="45.753" xmlns="http://www.w3.org/2000/svg"><path d="m86.971 29c-3.079-12.274-15-16.891-16.044-18.014l2.932-10.668s-3.659-1.183-8.795 1.021c-6.529 2.804-10.164-.771-10.164-.771l3.222 10.589c-1.009 1.15-13.691 6.3-15.985 18.433-1.984 10.434 4.213 25.325 22.735 25.085s24.689-15.365 22.099-25.675zm-13.611 1.051v2.91h-6l-1 1.557v1.856h7v2.912h-6.995v5.069h-3.414v-5.07h-6.994v-2.911h6.995v-1.856l-1-1.557h-5.995v-2.91h4.122l-4.9-7.631h3.5l5.989 9.318 5.99-9.318h3.492l-4.9 7.631z" fill="#064a6f" transform="translate(-41.781 -.001)"/></svg>