<svg height="93.043" viewBox="0 0 52 93.043" width="52" xmlns="http://www.w3.org/2000/svg"><path d="m170.332 125.586a28.978 28.978 0 0 0 -7.975 13.658s-13.215 8.308-8.047 26.654h15.53l2.291 17.348a5.013 5.013 0 0 0 4.97 4.358h.877a5.013 5.013 0 0 0 5.014-5.013v-16.691h2.038v-39.538c.002-5.944-8.766-6.47-14.698-.776z" fill="#fff" transform="translate(-150.614 -101.037)"/><path d="m260.949 0a9.044 9.044 0 1 0 9.044 9.044 9.045 9.045 0 0 0 -9.044-9.044z" fill="#fff" transform="translate(-232.703)"/><path d="m0 .043h52v93h-52z" fill="none"/></svg>