<svg height="93" viewBox="0 0 86 93" width="86" xmlns="http://www.w3.org/2000/svg"><g fill="#fff"><path d="m43.878 49.41a6.657 6.657 0 1 0 -6.658-6.656 6.657 6.657 0 0 0 6.658 6.656z" transform="translate(-29.56 -24.676)"/><path d="m232.137 180.657v.01h.047s.031 0 .047 0v-.01a4.6 4.6 0 0 0 0-9.2v-.01c-.016 0-.031 0-.047 0s-.031 0-.047 0v.01a4.6 4.6 0 0 0 0 9.2z" transform="translate(-189.361 -138.276)"/><path d="m398.6 49.41a6.657 6.657 0 1 0 -6.656-6.656 6.657 6.657 0 0 0 6.656 6.656z" transform="translate(-327.27 -24.676)"/><path d="m82.292 167.664v-22.375c0-3.227-3.509-6.736-6.735-6.736h-.932l-4.632 4.632-4.535-4.535a9.032 9.032 0 0 0 -6.737 4.825l-5.383 15.746a1.3 1.3 0 0 1 -2.042.361l-3.349-2.9a5.418 5.418 0 0 0 -3.681-1.442h-6.24a5.419 5.419 0 0 0 -3.681 1.442l-3.345 2.899a1.3 1.3 0 0 1 -2.042-.361l-5.383-15.746a9.031 9.031 0 0 0 -8.041-4.922h-8.799c-3.226 0-6.735 3.509-6.735 6.736v22.375a2.92 2.92 0 0 0 2.92 2.921h2.038l1.11 19.082a3.108 3.108 0 0 0 3.109 3.107h6.79a3.108 3.108 0 0 0 3.109-3.107l1.11-19.082-.014-13.624a.466.466 0 0 1 .881-.212l4.271 10.512a3.614 3.614 0 0 0 5.667 1.008l4.087-3.01a.475.475 0 0 1 .5-.087.47.47 0 0 1 .28.428l.015 11.815.768 13.21a2.152 2.152 0 0 0 2.153 2.15h4.7a2.152 2.152 0 0 0 2.153-2.15l.768-13.21.015-11.815a.469.469 0 0 1 .28-.428.475.475 0 0 1 .5.087l4.087 3.01a3.614 3.614 0 0 0 5.667-1.008l4.271-10.512a.466.466 0 0 1 .881.212v5.2l-4.481 13.927a1.084 1.084 0 0 0 1.032 1.416h3.843l.708 12.167a3.108 3.108 0 0 0 3.109 3.107h6.79a3.108 3.108 0 0 0 3.108-3.107l.708-12.167h4.246a1.084 1.084 0 0 0 1.032-1.416l-1.832-5.687a2.913 2.913 0 0 0 1.913-2.736z" transform="translate(1.678 -110.666)"/></g><path d="m0 0h86v93h-86z" fill="none"/></svg>