<svg height="93" viewBox="0 0 96 93" width="96" xmlns="http://www.w3.org/2000/svg"><g fill="#fff"><path d="m171.934 85.7a6.7 6.7 0 1 0 -8.154-4.834 6.7 6.7 0 0 0 8.154 4.834z" transform="translate(-137.186 -58.701)"/><path d="m125.824 285.288-.453 4.745a14.428 14.428 0 0 1 2.183 1.777 14.2 14.2 0 1 1 -23.668 13.972l-2.419 5.334a18.534 18.534 0 1 0 24.357-25.828z" transform="translate(-84.7 -238.543)"/><path d="m45.022 199.153 1.7-17.831c.275-3.007-1.538-5.644-4.546-5.919a6.784 6.784 0 0 0 -5.21 2.079l-8.366 8.241-8.762.737a2.718 2.718 0 0 0 -2.491 2.707v.164a2.719 2.719 0 0 0 2.719 2.718h9.027a3.958 3.958 0 0 0 2.355-.775l3.65-2.694-.786 8.7-11.445.835c-3.323.131-4.788 1.464-6.038 4.446l-5.4 14.841a3.614 3.614 0 0 0 6.593 2.964l6.087-13h11.666c5.871-.066 8.645-2.535 9.247-8.213z" transform="translate(-8.329 -145.655)"/><path d="m379.678 13.2a6.7 6.7 0 1 0 -8.155-4.833 6.7 6.7 0 0 0 8.155 4.833z" transform="translate(-312.762 2.572)"/><path d="m306.932 131.593-3.046-23.7c-.779-5.907-7.617-7.3-11.5-3.731l-9.482 8.55-9.074 3.413a2.791 2.791 0 0 0 -1.7 3.45l.033.109a2.794 2.794 0 0 0 3.3 1.892l6.987-1.915a12.525 12.525 0 0 0 4.191-1.82l3.419-2.1 1.913 14.922c.107.822-1.39 4.481-1.633 5.362l-7.665 23.875a3.57 3.57 0 0 0 2.285 4.488l.129.041a3.571 3.571 0 0 0 4.4-2l8.607-20.85 2.075 20.822a3.572 3.572 0 0 0 3.852 3.246l.136-.012a3.572 3.572 0 0 0 3.276-3.559z" transform="translate(-228.825 -83.811)"/></g><path d="m0 0h96v93h-96z" fill="none"/></svg>