<svg height="107.852" viewBox="0 0 99.58 107.852" width="99.58" xmlns="http://www.w3.org/2000/svg"><g fill="#1778b1"><path d="m-17.4-58.271h-33.489v-9.58h50.581l-42.802 70.18-8.13-5.142zm64.731 0h-20.92l-3.34 11.25q.747-.088 1.428-.132t1.252-.044a21.351 21.351 0 0 1 16.216 6.68q6.372 6.636 6.372 17.007 0 10.723-7.207 17.666t-18.149 6.944q-13.491 0-21.269-12.658l7.734-6.548q3.208 5.449 6.46 7.69a13.878 13.878 0 0 0 7.954 2.2 13.809 13.809 0 0 0 10.327-4.307 15.142 15.142 0 0 0 4.175-10.767 14.394 14.394 0 0 0 -4.131-10.635 13.788 13.788 0 0 0 -10.327-4.263q-6.9 0-11.909 6.021h-3.384l10.679-35.685h28.037z" transform="translate(51.24 67.852)"/><text font-family="Futura-Medium, Futura" font-size="19" font-weight="500" transform="translate(39.24 102.852)"><tspan x="-27.702" y="0">%</tspan><tspan font-family="HiraginoSans-W4, Hiragino Sans" font-weight="400" y="0">以上</tspan></text></g></svg>