<svg xmlns="http://www.w3.org/2000/svg" width="811.16" height="52.85" viewBox="0 0 811.16 52.85">
  <path id="パス_12281" data-name="パス 12281" d="M-406.875-46.69-392.945,0h12.32l8.96-27.02L-363.2,0h12.39l14.91-46.69h-12.67l-8.82,30.17-9.17-30.17h-9.66l-9.87,30.17-8.12-30.17Zm104.65,23.87a7.706,7.706,0,0,1,4.97,2.03,7.6,7.6,0,0,1,2.17,5.11,6.9,6.9,0,0,1-2.17,4.97,7.119,7.119,0,0,1-4.97,2.1,7.157,7.157,0,0,1-5.04-2.1,7.231,7.231,0,0,1-2.17-4.97,7.217,7.217,0,0,1,2.17-5.11A7.74,7.74,0,0,1-302.225-22.82Zm18.76,7.14a15.466,15.466,0,0,0-4.83-11.48,19.766,19.766,0,0,0-14-5.18c-6.79,0-11.34,2.66-13.93,5.18a15.466,15.466,0,0,0-4.83,11.48,15.615,15.615,0,0,0,4.83,11.55c4.34,4.27,9.38,5.18,13.93,5.18,5.04,0,9.87-1.12,14-5.18A15.615,15.615,0,0,0-283.465-15.68ZM-263.025,0h11.2V-13.37c0-1.68.14-4.97,2.52-7.14a7.338,7.338,0,0,1,5.11-1.68,9.88,9.88,0,0,1,4.83,1.12V-31.64c-1.47-.07-1.96-.14-2.24-.14a12.217,12.217,0,0,0-5.81,1.26,10.1,10.1,0,0,0-4.41,4.34v-5.11h-11.2Zm42.63-51.03V0h11.2V-12.81L-197.785,0h15.54L-198.2-16.87l14.77-14.42h-15.19l-10.57,11.27V-51.03Zm87.43,4.34V0h26.67V-10.29h-14.56v-36.4Zm45.85,15.4V0h11.2V-31.29Zm-.7-13.02a6.274,6.274,0,0,0,6.3,6.3,6.274,6.274,0,0,0,6.3-6.3,6.274,6.274,0,0,0-6.3-6.3A6.274,6.274,0,0,0-87.815-44.31Zm53.41,22.19v-9.17h-7.84V-35.7c0-1.54.07-3.92,1.26-5.25a4.027,4.027,0,0,1,3.15-1.19,7.028,7.028,0,0,1,3.5,1.05v-9.66a14.216,14.216,0,0,0-5.39-1.05c-3.71,0-7.98,1.12-10.85,4.97-2.52,3.36-2.87,6.93-2.87,10.29v5.25h-3.92v9.17h3.92V0h11.2V-22.12Zm51.45,7.35c0-3.5-.56-8.96-4.97-13.16-3.71-3.5-8.4-4.27-12.04-4.27-6.16,0-10.22,2.03-12.81,4.55a16.7,16.7,0,0,0-4.69,12.11,16.388,16.388,0,0,0,4.62,11.83C-8.995.14-4.025,1.05.105,1.05c6.79,0,10.43-2.1,12.74-4.34a14.065,14.065,0,0,0,3.78-6.44H5.915a5.212,5.212,0,0,1-1.96,2.1,8.837,8.837,0,0,1-3.64.84A6.292,6.292,0,0,1-4.3-8.33a7.9,7.9,0,0,1-1.96-5.25h23.31Zm-22.96-5.25a6.387,6.387,0,0,1,1.68-3.36,6.018,6.018,0,0,1,4.55-1.68,6.525,6.525,0,0,1,4.62,1.68,7.508,7.508,0,0,1,1.82,3.36ZM88.305,0c5.74,0,10.15-1.82,12.67-4.41a12.672,12.672,0,0,0,3.43-9.17,11.744,11.744,0,0,0-3.15-8.54,11.609,11.609,0,0,0-6.37-2.8,7.351,7.351,0,0,0,3.78-3.64A12.1,12.1,0,0,0,100-34.3c0-4.13-1.26-7-2.87-8.75-2.87-3.15-6.86-3.64-10.22-3.64H68.845V0Zm-7.35-37.38H83.2c2.38,0,3.85.63,4.62,1.4a4.8,4.8,0,0,1,1.12,3.15,4.523,4.523,0,0,1-1.12,3.08c-1.26,1.33-3.36,1.47-4.62,1.47h-2.24Zm0,18.13h2.52c3.01,0,6.02.07,7.49,1.54a4.745,4.745,0,0,1,1.19,3.36,4.542,4.542,0,0,1-.98,3.01c-1.33,1.54-4.13,1.89-7.49,1.89h-2.73Zm68.32-9.03a12.382,12.382,0,0,0-9.38-4.06,16.106,16.106,0,0,0-11.27,4.41A17.311,17.311,0,0,0,123.8-15.4a15.785,15.785,0,0,0,4.48,11.48,14.984,14.984,0,0,0,11.27,4.97c3.08,0,7.14-.91,9.73-4.48V0h11.2V-31.29h-11.2Zm-6.86,5.46a7.17,7.17,0,0,1,5.04,2.03,6.921,6.921,0,0,1,2.17,5.11,6.794,6.794,0,0,1-2.1,5.04,7.181,7.181,0,0,1-5.04,2.17,7.864,7.864,0,0,1-5.04-2.1,7.217,7.217,0,0,1-2.17-5.11,7.322,7.322,0,0,1,2.24-5.11A7.157,7.157,0,0,1,142.415-22.82Zm39.76-28.21V0h11.2V-51.03Zm57.05,22.75a12.382,12.382,0,0,0-9.38-4.06,16.106,16.106,0,0,0-11.27,4.41,17.311,17.311,0,0,0-4.83,12.53,15.785,15.785,0,0,0,4.48,11.48A14.984,14.984,0,0,0,229.5,1.05c3.08,0,7.14-.91,9.73-4.48V0h11.2V-31.29h-11.2Zm-6.86,5.46a7.17,7.17,0,0,1,5.04,2.03,6.921,6.921,0,0,1,2.17,5.11,6.794,6.794,0,0,1-2.1,5.04,7.181,7.181,0,0,1-5.04,2.17,7.864,7.864,0,0,1-5.04-2.1,7.217,7.217,0,0,1-2.17-5.11,7.322,7.322,0,0,1,2.24-5.11A7.157,7.157,0,0,1,232.365-22.82ZM272.125,0h11.2V-16.8a7.2,7.2,0,0,1,1.82-4.97,6.129,6.129,0,0,1,4.13-1.47,4.689,4.689,0,0,1,3.57,1.33c1.47,1.54,1.4,4.27,1.4,6.09V0h11.2V-19.88c0-3.43-.28-6.09-2.94-8.75a12.654,12.654,0,0,0-9.24-3.36,11.8,11.8,0,0,0-9.94,4.62v-3.92h-11.2Zm78.61-10.08a8.472,8.472,0,0,1-5.74,2.1,7.6,7.6,0,0,1-5.74-2.38,8.036,8.036,0,0,1-1.96-5.25,7.617,7.617,0,0,1,2.17-5.39,7.34,7.34,0,0,1,5.46-2.17,9.983,9.983,0,0,1,5.81,2.03v-9.38a16.055,16.055,0,0,0-7.28-1.75,18.047,18.047,0,0,0-12.6,4.76,17.041,17.041,0,0,0-5.04,12.11,16.374,16.374,0,0,0,4.83,11.69,17.281,17.281,0,0,0,12.32,4.76,16.612,16.612,0,0,0,7.77-1.75Zm53.55-4.69c0-3.5-.56-8.96-4.97-13.16-3.71-3.5-8.4-4.27-12.04-4.27-6.16,0-10.22,2.03-12.81,4.55a16.7,16.7,0,0,0-4.69,12.11A16.388,16.388,0,0,0,374.4-3.71c3.85,3.85,8.82,4.76,12.95,4.76,6.79,0,10.43-2.1,12.74-4.34a14.065,14.065,0,0,0,3.78-6.44h-10.71a5.212,5.212,0,0,1-1.96,2.1,8.837,8.837,0,0,1-3.64.84,6.292,6.292,0,0,1-4.62-1.54,7.9,7.9,0,0,1-1.96-5.25h23.31Zm-22.96-5.25a6.387,6.387,0,0,1,1.68-3.36,6.018,6.018,0,0,1,4.55-1.68,6.525,6.525,0,0,1,4.62,1.68,7.508,7.508,0,0,1,1.82,3.36Z" transform="translate(406.875 51.8)" fill="#fff"/>
</svg>
