<svg height="110.867" viewBox="0 0 111.783 110.867" width="111.783" xmlns="http://www.w3.org/2000/svg"><g fill="#1778b1"><path d="m110.356 33.346a18.133 18.133 0 0 0 -16.706-11.075h-15.333v-4.13a16.039 16.039 0 0 0 -16.042-16.041h-12.767a16.039 16.039 0 0 0 -16.042 16.04v4.131h-15.333a18.128 18.128 0 0 0 -18.133 18.129v54.432a18.132 18.132 0 0 0 18.133 18.134h75.517a18.132 18.132 0 0 0 18.134-18.134v-54.432a18.078 18.078 0 0 0 -1.428-7.054zm-68.716-15.205a7.821 7.821 0 0 1 .617-3.062 7.923 7.923 0 0 1 2.855-3.465 7.818 7.818 0 0 1 4.4-1.341h12.763a7.811 7.811 0 0 1 3.06.617 7.9 7.9 0 0 1 3.465 2.855 7.788 7.788 0 0 1 1.341 4.4v4.131h-28.501zm61.97 76.692a9.878 9.878 0 0 1 -.782 3.876 10.026 10.026 0 0 1 -3.612 4.386 9.9 9.9 0 0 1 -5.566 1.7h-75.517a9.892 9.892 0 0 1 -3.876-.782 10 10 0 0 1 -4.385-3.613 9.887 9.887 0 0 1 -1.7-5.564v-41.53h95.438v41.526zm0-48.167h-95.437v-6.266a9.96 9.96 0 0 1 9.96-9.96h75.517a9.958 9.958 0 0 1 9.96 9.96v6.26z" transform="translate(0 -2.099)"/><path d="m186.665 308.063h12.685v-11.839h11.839v-12.684h-11.84v-11.84h-12.684v11.84h-11.839v12.685h11.839z" transform="translate(-136.657 -212.842)"/></g></svg>