<svg height="132.904" viewBox="0 0 162.488 132.904" width="162.488" xmlns="http://www.w3.org/2000/svg"><g fill="#1778b1"><path d="m98.309 129.424h-85.143a13.166 13.166 0 0 0 -13.166 13.166v8.777l46.319 8.993v-.742a4.389 4.389 0 0 1 4.389-4.389h9.8a4.389 4.389 0 0 1 4.389 4.389v.742l46.577-9.08v-8.69a13.166 13.166 0 0 0 -13.165-13.166z" transform="translate(0 -107.128)"/><path d="m64.9 277.644a4.389 4.389 0 0 1 -4.389 4.389h-9.8a4.389 4.389 0 0 1 -4.389-4.389v-8.709l-46.322-8.993v35.758a13.166 13.166 0 0 0 13.166 13.17h85.143a13.166 13.166 0 0 0 13.166-13.17v-35.846l-46.575 9.081z" transform="translate(0 -209.16)"/><path d="m50.964 52.746h9.29v15.483h-9.29z"/><path d="m158.762 36.776a1.393 1.393 0 0 1 1.394-1.4h26.475a1.393 1.393 0 0 1 1.394 1.4v6.967h8.36v-6.967a9.757 9.757 0 0 0 -9.754-9.755h-26.474a9.754 9.754 0 0 0 -9.754 9.755v6.967h8.36v-6.967z" transform="translate(-117.656 -27.021)"/><g stroke-miterlimit="10" transform="translate(336.152 -2267.802)"><path d="m-252.61958313 2398.15209961-1.2696991-1.63354492-5.93670654-7.63793946-5.93057251-7.63452148-1.25317383-1.61303711 1.91436768-.71289062 14.93904114-5.56201172 32.19343566-54.81616211.12757874-.21728516.19152832-.16357422c.10836792-.09277343 2.68928528-2.26733398 5.76464844-2.26733398 2.02658081 0 3.82481384.93530273 5.20028686 2.70483398.98701477 1.27001953 1.65135193 2.62158203 2.03100586 4.13208008.32420349 1.29003906.39868164 2.53320313.46441651 3.62963867.10969543 1.83056641.19633484 3.27636719 1.25354004 4.63549805 1.06411743 1.36791992 2.92184448 1.57836914 5.07289123 1.82226562 2.35688782.26708985 5.02825928.56982422 6.72384644 2.75 1.69635009 2.18139649 1.32946777 4.84497071 1.00576782 7.19482422-.29524231 2.14331055-.55023193 3.99438477.51213074 5.36279297 1.05725097 1.36059571 2.43705749 1.80175781 4.18395996 2.36035156 1.04560852.33422852 2.23074341.71313477 3.39987182 1.34521485 1.36895752.73999023 2.5139618 1.71630859 3.50045777 2.98461914 1.23667907 1.58984375 1.73083496 3.29272461 1.46875 5.0612793-.49502564 3.34008789-3.61213684 5.57861328-3.74459839 5.67236328l-.20927429.14794922-.246521.07006836-61.24842834 17.41357421-8.95077515 13.25610352z"/><path d="m-211.87913513 2317.39379883c-2.55723572 0-4.79032898 1.90771484-4.79032898 1.90771484l-32.46359253 55.27612305-15.43893433 5.74829101 5.93032837 7.63403321 5.93670655 7.63793945 9.25714111-13.70996094 61.7749939-17.56323242s5.57278442-3.94042969 1.95785522-8.58789062c-3.61486816-4.6472168-8.23200989-3.01953125-11.08514404-6.69116211-2.85041809-3.67163086 1.14491272-9.13354492-1.51710511-12.55664063-2.66201782-3.42285156-8.94256591-.90332031-11.79663086-4.57226562-2.85406494-3.66894532-.13349914-7.74560547-3.74931335-12.39746094-1.24403381-1.60058594-2.67466736-2.12548828-4.01597595-2.12548828m-.00028992-3h.00006104.00007629.00027466c1.74795532 0 4.27455139.56982422 6.38447571 3.28442383 2.48509216 3.19702148 2.66435241 6.1887207 2.80841064 8.59252929.11073303 1.84765625.2028656 2.85620118.94020081 3.80395508.63093567.81103516 1.95393371 1.0144043 4.05786132 1.25292969 2.5197754.28564453 5.65570069.64086914 7.73898316 3.31958008 2.08453369 2.68066406 1.65379333 5.80761718 1.30766296 8.3203125-.2887268 2.0961914-.41860962 3.42749023.21102906 4.23852539.73735046.94873047 1.69212341 1.28735351 3.4559021 1.85131836 2.29171752.73266601 5.14382934 1.64453125 7.62750244 4.83740234 1.47692871 1.89892578 2.08847046 4.04345703 1.7685852 6.20239258-.57809448 3.90039062-3.97680664 6.40429687-4.36242676 6.67700195l-.41851806.29589844-.49307251.14038086-60.7217865 17.26367187-8.6444397 12.80249024-2.31556702 3.42944336-2.53938293-3.26708985-5.9367218-7.63793945-5.93084717-7.63476562-2.50628662-3.22631836 3.82867432-1.42553711 14.43914795-5.37597657 31.92330932-54.35620117.25514221-.43432617.3830719-.32739258c.31471253-.26879883 3.17756653-2.62670898 6.73873902-2.62670898z" fill="#fff"/></g><path d="m-189.819 2330.144a4.034 4.034 0 0 0 .717-5.66 4.034 4.034 0 0 0 -5.66-.716 4.034 4.034 0 0 0 -.716 5.659v.006a4.041 4.041 0 0 0 5.659.711z" transform="translate(329.4 -2267.36)"/><path d="m-180.1 2344.575a3.875 3.875 0 0 0 -.68 5.437 3.874 3.874 0 0 0 5.436.681 3.875 3.875 0 0 0 .681-5.437 3.88 3.88 0 0 0 -5.437-.681z" transform="translate(328.14 -2270.057)"/><path d="m-181.77 2330.835a4.185 4.185 0 0 0 -.738 5.872 4.185 4.185 0 0 0 5.872.738 4.184 4.184 0 0 0 .738-5.872 4.186 4.186 0 0 0 -5.872-.738z" transform="translate(329.208 -2268.876)"/><path d="m-166.887 2339.6a2.788 2.788 0 0 0 -3.912-.491 2.788 2.788 0 0 0 -.491 3.912 2.788 2.788 0 0 0 3.912.491 2.787 2.787 0 0 0 .491-3.912z" transform="translate(328.223 -2270.523)"/><path d="m-176.958 2325.4a3.566 3.566 0 0 0 .63-5 3.567 3.567 0 0 0 -5-.629 3.566 3.566 0 0 0 -.629 5 3.555 3.555 0 0 0 4.987.637z" transform="translate(329.15 -2267.026)"/><path d="m-186.567 2319.578a2.323 2.323 0 0 0 .408-3.259 2.322 2.322 0 0 0 -3.259-.408 2.322 2.322 0 0 0 -.409 3.259 2.317 2.317 0 0 0 3.252.413z" transform="translate(329.801 -2265.804)"/><path d="m-166.939 2332.427a3.1 3.1 0 0 0 .546-4.348 3.1 3.1 0 0 0 -4.348-.547 3.1 3.1 0 0 0 -.547 4.349 3.1 3.1 0 0 0 4.349.546z" transform="translate(328.229 -2268.613)"/></g></svg>