<svg height="136.471" viewBox="0 0 83.439 136.471" width="83.439" xmlns="http://www.w3.org/2000/svg"><path d="m182.747 46.269c-1.499-30.716-36.683-46.269-41.547-46.269s-40.051 15.553-41.548 46.269c-1.344 27.571 4.491 90.2 41.546 90.2s42.892-62.63 41.549-90.2zm-45.157-24.027a25.955 25.955 0 0 1 7.866.176 5.861 5.861 0 0 1 .467.611 8.947 8.947 0 0 1 1.332 5.078 21.478 21.478 0 0 1 -1.518 7.362 25.056 25.056 0 0 1 -6.692-7.626 11.25 11.25 0 0 1 -1.464-5.226c-.001-.14.003-.265.009-.375zm-2.525.446a13.814 13.814 0 0 0 1.755 6.33 22.082 22.082 0 0 0 2.609 3.836c-1.126-.454-2.255-.879-3.313-1.324a13.22 13.22 0 0 1 -4.508-2.774 6.053 6.053 0 0 1 -1.279-1.991 7.4 7.4 0 0 1 -.463-2.287 26.016 26.016 0 0 1 5.199-1.791zm28.422 79.737a1.47 1.47 0 0 1 -2.073.115l-27.714-24.796a30.538 30.538 0 0 0 5.3.8l6.489 5.806 7.274-8.128a30.034 30.034 0 0 0 4-2.054 1.462 1.462 0 0 1 .019 1.966l-9.1 10.174 15.7 14.043a1.468 1.468 0 0 1 .106 2.073zm9.954-48.041a4.863 4.863 0 0 1 -5.076 1.15l-1.985-.7-.691 1.987a26.2 26.2 0 0 1 -49.448.136l-.651-1.84-1.88.515a4.82 4.82 0 0 1 -1.3.182 4.891 4.891 0 0 1 0-9.782c.088 0 .214.008.391.021l1.945.153.293-1.928a26.261 26.261 0 0 1 12.437-18.535 9.139 9.139 0 0 0 .532 1.991 8.523 8.523 0 0 0 1.57 2.531 12.9 12.9 0 0 0 4 2.873c2.207 1.085 4.592 1.836 6.6 2.772a13.474 13.474 0 0 1 2.641 1.552 6.239 6.239 0 0 1 1.734 2.025 1.256 1.256 0 0 0 2.255-.054c2.174-4.713 2.959-8.419 2.959-11.328a12.494 12.494 0 0 0 -.9-4.858 26.225 26.225 0 0 1 17.981 21.087l.308 2.081 2.081-.318a4.962 4.962 0 0 1 .743-.065 4.891 4.891 0 0 1 3.457 8.35z" fill="#1778b1" transform="translate(-99.48)"/></svg>