<svg height="135.766" viewBox="0 0 129.876 135.766" width="129.876" xmlns="http://www.w3.org/2000/svg"><g fill="#064a6f"><path d="m177.894 95.1a11.48 11.48 0 1 0 -13.964-8.278 11.477 11.477 0 0 0 13.964 8.278z" transform="translate(-123.14 -53.274)"/><path d="m143.179 285.288-.775 8.125a24.711 24.711 0 0 1 3.738 3.043 24.311 24.311 0 1 1 -40.533 23.927l-4.142 9.136a31.741 31.741 0 1 0 41.712-44.231z" transform="translate(-77.506 -209.639)"/><path d="m69.191 216.09 2.915-30.536c.47-5.15-2.633-9.666-7.786-10.136a11.617 11.617 0 0 0 -8.923 3.56l-14.338 14.113-15 1.262a4.654 4.654 0 0 0 -4.267 4.636v.281a4.656 4.656 0 0 0 4.656 4.654h15.452a6.778 6.778 0 0 0 4.033-1.328l6.251-4.614-1.346 14.892-19.6 1.43c-5.69.225-8.2 2.507-10.341 7.615l-9.25 25.416a6.19 6.19 0 0 0 11.291 5.076l10.425-22.266h19.991c10.054-.111 14.804-4.331 15.837-14.055z" transform="translate(-11.105 -128.877)"/><path d="m385.639 22.606a11.481 11.481 0 1 0 -13.966-8.277 11.477 11.477 0 0 0 13.966 8.277z" transform="translate(-275.797)"/><path d="m331.825 152.531-5.217-40.6c-1.334-10.116-13.044-12.51-19.7-6.389l-16.238 14.643-15.539 5.845a4.78 4.78 0 0 0 -2.917 5.908l.056.187a4.785 4.785 0 0 0 5.646 3.24l11.966-3.28a21.449 21.449 0 0 0 7.177-3.117l5.855-3.591 3.276 25.554c.183 1.408-2.38 7.673-2.8 9.183l-13.11 40.895a6.114 6.114 0 0 0 3.92 7.691l.221.07a6.116 6.116 0 0 0 7.543-3.427l14.74-35.706 3.553 35.658a6.117 6.117 0 0 0 6.6 5.558l.233-.02a6.117 6.117 0 0 0 5.61-6.094z" transform="translate(-202.817 -75.107)"/></g></svg>