<svg height="130.334" viewBox="0 0 86.409 130.334" width="86.409" xmlns="http://www.w3.org/2000/svg"><g fill="#064a6f"><path d="m181.069 41.848a20.924 20.924 0 1 0 -20.926-20.922 20.924 20.924 0 0 0 20.926 20.922z" transform="translate(-141.34)"/><path d="m167.449 392.4a8.88 8.88 0 0 0 6.1 15.163l6.188-17.766h-6a8.858 8.858 0 0 0 -6.288 2.603z" transform="translate(-144.845 -290.574)"/><path d="m172.57 262.5-1.834-10.953-4.963-29.624c-3.234-8.967-8.117-16.792-18.02-18.31v43.487h4.813v3.7h-4.813v21.477h-34.07l.032-.089a12.587 12.587 0 0 1 1.448-25.092h7.293l15.251-43.763h-30.256c-10.148 0-21.175 11.028-21.175 21.175v57.4h63.448v-9.629h14.563a8.4 8.4 0 0 0 8.283-9.784z" transform="translate(-86.276 -151.576)"/></g></svg>