<svg height="156.918" viewBox="0 0 63.066 156.918" width="63.066" xmlns="http://www.w3.org/2000/svg"><g fill="#064a6f"><path d="m184.327 128.828a52.528 52.528 0 0 0 -14.456 24.758s-23.955 15.06-14.586 48.315h28.151l4.153 31.447a9.086 9.086 0 0 0 9.01 7.9h1.59a9.088 9.088 0 0 0 9.089-9.088v-30.26h3.694v-71.665c0-10.774-15.894-11.728-26.645-1.407z" transform="translate(-153.112 -84.329)"/><path d="m268.3 0a16.395 16.395 0 1 0 16.394 16.395 16.4 16.4 0 0 0 -16.394-16.395z" transform="translate(-221.627)"/></g></svg>