<svg height="156.913" viewBox="0 0 134.615 156.913" width="134.615" xmlns="http://www.w3.org/2000/svg"><g fill="#064a6f"><path d="m92.339 48.5a14.356 14.356 0 1 0 -14.355-14.359 14.357 14.357 0 0 0 14.355 14.359z" transform="translate(-65.233 -13.722)"/><path d="m277.8 36.422h-2.945c.048-.229.1-.469.153-.734 1.013-4.872 3.2-15.226 4.337-19.634a16.941 16.941 0 0 1 6.344-9.7 16.924 16.924 0 0 1 19.708 0 16.948 16.948 0 0 1 6.345 9.7c.758 2.933 1.985 8.528 3.014 13.356.516 2.42.983 4.653 1.322 6.278l.151.734h-2.949v3.185h6.853l-.391-1.911s-.839-4.1-1.874-8.951-2.259-10.433-3.045-13.489a20.152 20.152 0 0 0 -7.548-11.479 20.118 20.118 0 0 0 -23.473 0 20.158 20.158 0 0 0 -7.547 11.479c-.786 3.055-2.01 8.64-3.046 13.489s-1.871 8.948-1.874 8.951l-.392 1.911h6.857z" transform="translate(-199.055)"/><path d="m323.757 27.061a12.125 12.125 0 1 0 12.128 12.125 12.121 12.121 0 0 0 -12.128-12.125z" transform="translate(-227.276 -18.768)"/><path d="m104.78 131.648v7.3l6.143-2.11 6.145 2.11v-7.3l-6.145 2.11z" transform="translate(-83.817 -91.302)"/><path d="m159.439 189v-43.962c0-3.493-1.912-7.155-4.692-9.924a15.177 15.177 0 0 0 -8.956-4.556c-.294-.025-.576-.041-.871-.041h-18.377a19.656 19.656 0 0 0 -2.229.125 19.9 19.9 0 0 0 -3.3.673 19.559 19.559 0 0 0 -12.18 10.574l-10.923 23.868-10.927-23.874a19.456 19.456 0 0 0 -10.45-9.965l-13.434 21.028-14.2-22.23c-6.33 1.238-12.52 8.031-12.52 14.322v48.247a6.3 6.3 0 0 0 6.3 6.3h4.4l2.392 41.146a6.7 6.7 0 0 0 6.7 6.7h14.628a6.7 6.7 0 0 0 6.7-6.7l2.4-41.145 1.051-38.7 12.616 27.568a4.967 4.967 0 0 0 4.286 2.734 4.958 4.958 0 0 0 4.386-2.736l12.327-26.916 1.176 11.947c-2.831 4.446-18.563 28.743-20.363 53.407h25.262l1.472 15.058a4.875 4.875 0 0 0 4.887 4.877h10.68a4.873 4.873 0 0 0 4.876-4.877l2.207-15.058h26.231c-1.017-13.903-6.482-27.712-11.555-37.89zm-60.539 34.709c1.827-14.419 8.623-31.4 19.372-48.262l.159-.249.591-.928-.108-1.093-1.176-11.947-2.28-23.17a16.2 16.2 0 0 1 5.914-3.516c.331 6.485.925 17.234 11.955 17.234 11.355 0 11.567-11.045 11.695-17.642 0-.145 0-.288.008-.428.166 0 .326.01.476.023a11.409 11.409 0 0 1 5.909 2.67l-3.677 37.215-.107 1.088.58.923.09.143a164.411 164.411 0 0 1 8.283 14.653c5.876 11.789 9.6 23.216 10.883 33.288h-68.567z" transform="translate(-36.378 -90.517)"/></g></svg>