<svg height="130.385" viewBox="0 0 151.787 130.385" width="151.787" xmlns="http://www.w3.org/2000/svg"><g fill="#1778b1"><path d="m49.5 60.654a12.279 12.279 0 1 0 -12.28-12.278 12.278 12.278 0 0 0 12.28 12.278z" transform="translate(-26.186 -36.096)"/><path d="m235.949 188.432v.018c.03 0 .057-.009.087-.009s.058.009.087.009v-.018a8.483 8.483 0 0 0 0-16.963v-.018c-.03 0-.057.009-.087.009s-.057-.009-.087-.009v.018a8.483 8.483 0 0 0 0 16.963z" transform="translate(-160.143 -131.324)"/><path d="m404.221 60.654a12.279 12.279 0 1 0 -12.278-12.278 12.279 12.279 0 0 0 12.278 12.278z" transform="translate(-275.749 -36.096)"/><path d="m151.787 192.248v-41.27c0-5.952-6.473-12.425-12.423-12.425h-1.719l-8.545 8.547-8.364-8.364a16.66 16.66 0 0 0 -12.427 8.9l-9.93 29.043a2.4 2.4 0 0 1 -3.767.666l-6.177-5.348a9.994 9.994 0 0 0 -6.79-2.66h-11.506a10 10 0 0 0 -6.79 2.66l-6.177 5.348a2.4 2.4 0 0 1 -3.767-.666l-9.93-29.043a16.657 16.657 0 0 0 -14.832-9.078h-16.22c-5.95-.005-12.423 6.468-12.423 12.42v41.27a5.386 5.386 0 0 0 5.385 5.387h3.76l2.047 35.2a5.734 5.734 0 0 0 5.734 5.731h12.523a5.734 5.734 0 0 0 5.734-5.731l2.047-35.2-.025-25.129a.859.859 0 0 1 1.625-.39l7.878 19.384a6.665 6.665 0 0 0 10.453 1.859l7.538-5.552a.877.877 0 0 1 .93-.161.866.866 0 0 1 .516.789l.028 21.792 1.416 24.373a3.97 3.97 0 0 0 3.971 3.966h8.667a3.97 3.97 0 0 0 3.973-3.966l1.416-24.365.028-21.792a.866.866 0 0 1 .516-.789.876.876 0 0 1 .93.161l7.538 5.552a6.665 6.665 0 0 0 10.453-1.859l7.878-19.389a.859.859 0 0 1 1.625.39l-.009 9.585-8.266 25.688a2 2 0 0 0 1.9 2.612h7.091l1.306 22.442a5.734 5.734 0 0 0 5.734 5.732h12.523a5.733 5.733 0 0 0 5.733-5.732l1.306-22.442h7.832a2 2 0 0 0 1.9-2.612l-3.376-10.492a5.373 5.373 0 0 0 3.529-5.042z" transform="translate(0 -108.179)"/></g></svg>