<svg height="23.91" viewBox="0 0 32.1 23.91" width="32.1" xmlns="http://www.w3.org/2000/svg"><path d="m-13.215-11.34a12.756 12.756 0 0 0 .27 2.73 7.941 7.941 0 0 0 .765 2.13 4.119 4.119 0 0 0 1.18 1.395 2.611 2.611 0 0 0 1.56.495 2.631 2.631 0 0 0 1.55-.495 3.909 3.909 0 0 0 1.19-1.395 8.3 8.3 0 0 0 .75-2.13 12.756 12.756 0 0 0 .27-2.73 12.813 12.813 0 0 0 -.27-2.715 8.038 8.038 0 0 0 -.75-2.13 3.941 3.941 0 0 0 -1.185-1.38 2.631 2.631 0 0 0 -1.545-.495 2.611 2.611 0 0 0 -1.56.495 4.157 4.157 0 0 0 -1.185 1.38 7.7 7.7 0 0 0 -.765 2.13 12.813 12.813 0 0 0 -.275 2.715zm-5.82 0a16.053 16.053 0 0 1 .7-4.9 11.33 11.33 0 0 1 1.98-3.765 8.932 8.932 0 0 1 3.03-2.415 8.751 8.751 0 0 1 3.885-.855 8.779 8.779 0 0 1 3.87.855 8.745 8.745 0 0 1 3.03 2.415 11.492 11.492 0 0 1 1.97 3.76 16.053 16.053 0 0 1 .7 4.9 16.053 16.053 0 0 1 -.7 4.905 11.673 11.673 0 0 1 -1.965 3.78 8.674 8.674 0 0 1 -3.03 2.43 8.779 8.779 0 0 1 -3.87.86 8.751 8.751 0 0 1 -3.885-.855 8.858 8.858 0 0 1 -3.03-2.43 11.506 11.506 0 0 1 -1.98-3.78 16.053 16.053 0 0 1 -.705-4.905zm26.22-6.3h-3.3v-4.98h9.18v22.62h-5.88z" fill="#1778b1" transform="translate(19.035 23.28)"/></svg>