<svg xmlns="http://www.w3.org/2000/svg" width="320" height="324" viewBox="0 0 320 324">
  <g id="グループ_963" data-name="グループ 963" transform="translate(-120 -2831)">
    <rect id="長方形_144" data-name="長方形 144" width="320" height="324" transform="translate(120 2831)" fill="#f7f7f7"/>
    <path id="パス_12493" data-name="パス 12493" d="M-63.322-8.764H-63.9v-1.12h.574ZM-62.076-4.9a.305.305,0,0,1-.07-.056c-.028.042-.056.042-.182.042h-.252c-.112,0-.126-.014-.126-.2V-7.378h.63Zm-3.248,3.864v-.952h3.248v.952Zm.616-6.342v1.092a2.852,2.852,0,0,1-.616,2V-7.378ZM-62.2-4.1h.126v.966h-3.248V-4.242a4.206,4.206,0,0,1,.588.518,3.862,3.862,0,0,0,.784-2.548V-7.378h.49V-5.11c0,.826.182,1.008.784,1.008Zm-4.662-5.782h1.89v1.12H-66.6v9.9h1.274V.252h3.248v.7h1.33V-8.764H-62.23v-1.12h1.736v-1.47H-66.85Zm9.226,9.352c-.546,0-.63-.07-.63-.658V-5.4h2.254v.868h1.61v-6.692h-5.572v1.61h3.962v2.632H-59.92v5.81c0,1.722.49,2.2,2.044,2.2h1.946c1.442,0,1.89-.714,2.058-3.08a4.717,4.717,0,0,1-1.484-.658c-.084,1.848-.168,2.184-.714,2.184Zm8.68-11.284a14.788,14.788,0,0,1-3.122,5.25,10.765,10.765,0,0,1,.9,1.736c.266-.308.546-.63.826-.994V1.2h1.6V-8.3a26.265,26.265,0,0,0,1.372-3.01Zm6.608,8.722a6.809,6.809,0,0,1,.322.714l-.7.084V-3.64h2.1v2A13.93,13.93,0,0,0-41.384-3.4Zm-3.262-4V-7.98h1.428V-7.1Zm0-2.912h1.428v.882h-1.428Zm4.382.882h-1.5v-.882h1.5Zm0,2.03h-1.5V-7.98h1.5Zm2.142,2.072h-3.64v-.826h3.108v-5.4h-7.532v5.4h2.968v.826h-3.654V1.218h1.568V-3.64h2.086v1.5c-.7.07-1.358.14-1.89.182l.308,1.386c1.162-.154,2.674-.378,4.158-.588.07.238.126.462.168.644l.812-.28v.462c0,.168-.07.224-.28.224-.182,0-.882.014-1.512-.028a5.118,5.118,0,0,1,.462,1.372,5.957,5.957,0,0,0,2.212-.224c.518-.224.658-.6.658-1.33ZM-30.366-8.9h2.282A19.118,19.118,0,0,1-29.6-7.63h-.77Zm3.052,6.118H-32.13v-.9h4.816ZM-32.13-.574v-.952h4.816v.952Zm8.162-5.586V-7.63h-3.248a20.478,20.478,0,0,0,2.758-3.08l-1.428-.728A17.049,17.049,0,0,1-27.328-9.66v-.686h-3.038v-1.512h-1.652v1.512h-3.29V-8.9h3.29V-7.63h-4.494v1.47h4.76A24.92,24.92,0,0,1-36.96-3.836a9.173,9.173,0,0,1,1.022,1.372c.714-.266,1.442-.574,2.142-.882V1.232h1.666V.812h4.816v.364h1.736V-5.04H-30.66c.574-.364,1.106-.728,1.652-1.12Zm12.74,1.442v3.486H-14.35V-5.46h4.3v-5.082H-11.8v3.458H-14.35v-4.634h-1.708v4.634h-2.408v-3.458h-1.652V-5.46h4.06v4.228h-2.926V-4.718h-1.694V1.218h1.694V.406h7.756v.8h1.736V-4.718ZM-2.464-2.94a8.231,8.231,0,0,0,.8-1.05H.448v1.05Zm4.55,1.274h3V-2.94h-3V-3.99h3.4V-5.264h-3.4V-6.3H.448v1.036H-.966c.112-.252.224-.5.308-.756l-1.47-.336a6.589,6.589,0,0,1-1.764,2.73,7.322,7.322,0,0,1,1.316.8l.1-.1v1.26H.448V-.434H-3.57V.938H6.244V-.434H2.086ZM1.918-9.422a11.915,11.915,0,0,1-.5,1.414l.252.07h-3.29l.42-.112a6.259,6.259,0,0,0-.518-1.372ZM3.01-7.938c.266-.42.574-.952.9-1.484H5.642v-1.414H.868v-1.022H-.8v1.022H-5.53v1.414h2.422l-.308.084a7.158,7.158,0,0,1,.532,1.4H-5.418v2.254c0,1.666-.112,4.1-1.26,5.81A6.606,6.606,0,0,1-5.39,1.176C-4.074-.742-3.822-3.71-3.822-5.67v-.84H6.328V-7.938ZM18.452-5.11H13.958l-.112-.756L12.558-5.5V-7.644h.924V-6.37h4.97ZM21.63-6.37V-7.91H18.452V-9.1h2.576v-1.512H18.452v-1.246H16.8v1.246H14.322V-9.1H16.8v1.19H13.72V-9.226H12.558v-2.618H11.032v2.618h-.658q.126-.84.21-1.68L9.2-11.13a17.026,17.026,0,0,1-.8,4.508,8.913,8.913,0,0,1,1.176.756,11.326,11.326,0,0,0,.518-1.778h.938v2.576c-.938.252-1.806.476-2.492.63l.392,1.6c.63-.182,1.344-.392,2.1-.616V1.218h1.526V-3.92c.406-.126.826-.266,1.232-.392v.742h1.694l-1.2.742a11.2,11.2,0,0,1,1.6,2.2l1.33-.854a10.98,10.98,0,0,0-1.68-2.086h2.926v2.9c0,.182-.056.224-.294.238s-.98,0-1.68-.028a6.064,6.064,0,0,1,.5,1.652A6.355,6.355,0,0,0,19.39.91c.56-.266.7-.714.7-1.554V-3.57H21.5V-5.11H20.09V-6.37Zm4.326-3.374h2.632v1.918H25.956Zm1.428,4.55c.028-.378.056-.77.084-1.148H30.2v-4.872H24.444v4.872h1.4C25.732-4.018,25.452-1.5,23.618.014a4.374,4.374,0,0,1,1.106,1.218,7.942,7.942,0,0,0,2.464-4.97h1.554c-.1,2.212-.224,3.108-.434,3.346a.5.5,0,0,1-.462.182,11.28,11.28,0,0,1-1.372-.07,3.414,3.414,0,0,1,.42,1.442,10.331,10.331,0,0,0,1.694-.042A1.465,1.465,0,0,0,29.638.6c.392-.476.532-1.82.672-5.194,0-.2.014-.6.014-.6Zm5.488-4.97H31.248v7.882h1.624Zm1.666-1.414V-.8c0,.252-.112.336-.378.336-.294,0-1.19,0-2.1-.028a6.084,6.084,0,0,1,.574,1.722A7.436,7.436,0,0,0,35.42.91c.574-.266.77-.728.77-1.708v-10.78ZM51.73-6.846V-8.47H48.076v-3.164H46.424V-8.47H42.868v1.624h2.9a13.283,13.283,0,0,1-3.458,5.068V-8.3a22.09,22.09,0,0,0,1.442-2.954L42.1-11.788a14.363,14.363,0,0,1-3.542,5.376,12.088,12.088,0,0,1,.966,1.75,12.689,12.689,0,0,0,1.148-1.26V1.19h1.638v-2.8A9.233,9.233,0,0,1,43.442-.378,14.226,14.226,0,0,0,46.424-4.62V1.218h1.652V-4.9A14.311,14.311,0,0,0,50.9-.448a5.934,5.934,0,0,1,1.246-1.33A13.694,13.694,0,0,1,48.8-6.846ZM66.7-11.326H62.944v1.4h2.324v1.974H62.944v1.4H66.7ZM56.672-9.38v2.66H55.72V-9.38ZM55.72-2.548V-5.292h.952v2.744ZM58-10.836h-3.57V.014H55.72V-1.092H58Zm3.066.882v2.086H60.1V-9.954Zm1.344,8.442V-2.884H60.1v-1.2h2.142V-5.446H60.1V-6.51H62.51v-4.816H58.576V1.19H60.1v-2.7Zm2.772-2.982a8.765,8.765,0,0,1-.658,1.736,9.761,9.761,0,0,1-.6-1.736Zm.77-1.386-.266.042H62.58v1.344h1.05l-.952.2a13.443,13.443,0,0,0,.98,2.8A5.709,5.709,0,0,1,61.446.028a5.189,5.189,0,0,1,.826,1.218,7.627,7.627,0,0,0,2.212-1.47A5.412,5.412,0,0,0,66.108,1.19a5.5,5.5,0,0,1,.98-1.2,4.908,4.908,0,0,1-1.694-1.344,10.55,10.55,0,0,0,1.484-4.284Z" transform="translate(280 2869.646)"/>
    <path id="パス_12353" data-name="パス 12353" d="M10.371-58.271H-23.115v-9.58H27.466l-42.8,70.181-8.13-5.142Z" transform="translate(331 3072)" fill="#1778b1"/>
    <path id="パス_12496" data-name="パス 12496" d="M24.106,11.3v3.878H20.172V10.4H24.61V5.612H23.532v3.78h-3.36V4.366H19.108V9.392H15.9V5.612H14.866V10.4h4.242v4.774H15.37V11.3H14.334v5.768H15.37V16.2h8.736v.84H25.17V11.3ZM36.44,14.11h3.346v-.84H36.44V11.8h3.71v-.84H36.44V9.714H35.4V10.96h-2.17A7.72,7.72,0,0,0,33.7,9.91l-.938-.224A7.361,7.361,0,0,1,30.966,12.6a5.716,5.716,0,0,1,.812.5,9.066,9.066,0,0,0,.994-1.3H35.4v1.47H32.24v.84H35.4v1.764H31.05v.9h9.94v-.9H36.44Zm.8-7.672a16.264,16.264,0,0,1-.756,1.834l.49.168H32.7l.63-.182a6,6,0,0,0-.77-1.82Zm.14,2c.322-.518.7-1.218,1.05-1.876l-.518-.126h2.436v-.9h-5V4.282H34.326v1.26H29.412v.9h2.9l-.714.2a7.7,7.7,0,0,1,.742,1.806H29.622v2.17a10.913,10.913,0,0,1-1.274,5.782,4,4,0,0,1,.8.658c1.232-1.862,1.47-4.606,1.47-6.44V9.364H41.06V8.44Zm18.046.966-.21.084H52.33l.238-.364c-.392-.21-.938-.476-1.512-.728A21.651,21.651,0,0,0,54.7,5.556l-.756-.574-.238.056H45.064V6h7.63a16.239,16.239,0,0,1-2.66,1.918c-.854-.378-1.764-.756-2.534-1.064l-.532.77C48.214,8.16,49.81,8.888,51,9.49H43.748v.994h5.768v5.264c0,.21-.084.266-.336.28-.28.014-1.218.028-2.184-.014a5.987,5.987,0,0,1,.392,1.008,10.087,10.087,0,0,0,2.52-.168c.49-.154.658-.448.658-1.092V10.484h3.976A15.285,15.285,0,0,1,52.9,12.668l.84.532A19.471,19.471,0,0,0,56.25,9.8Zm4.858-2.534h9.534V8.916H70.88V5.892H65.588V4.3H64.51v1.6H59.26V8.916h1.022Zm5.306,5.95h4.144v-.966H65.588V9.532h3.57v-.98H61.052v.98h3.472V15.4a4.2,4.2,0,0,1-2.576-2.7,17.67,17.67,0,0,0,.336-1.862l-1.064-.1c-.308,2.506-1.064,4.494-2.618,5.7a5.435,5.435,0,0,1,.854.7,7.67,7.67,0,0,0,2.086-3.122c1.274,2.366,3.36,2.87,6.258,2.87h3.248a3.068,3.068,0,0,1,.392-1.05c-.672.014-3.08.014-3.584.014a12.781,12.781,0,0,1-2.268-.168ZM76.76,14.978V11.072H83.7v3.906ZM83.7,6.27v3.78H76.76V6.27ZM75.71,5.248V16.91h1.05V16H83.7v.854H84.8V5.248ZM89.542,16H95.17V14.936H93.112v-9.2h-.98A6.5,6.5,0,0,1,90,6.466v.812h1.82v7.658H89.542ZM102.45,9.658c.2-.42.378-.882.5-1.232a6.706,6.706,0,0,1,.266-.728l-1.246-.266a5.374,5.374,0,0,1-.154.826,6.845,6.845,0,0,1-.756,1.792,9.4,9.4,0,0,1-2.114,2.436l1.022.6a11.194,11.194,0,0,0,1.96-2.436h3a6.652,6.652,0,0,1-2.492,5.11,5.735,5.735,0,0,1-1.092.644l1.106.728c2.072-1.26,3.332-3.248,3.556-6.482h2.058c.28,0,.728.014,1.092.042V9.588a7.505,7.505,0,0,1-1.092.07Zm13.692,2.058a17.577,17.577,0,0,0,.154-2.352h6.4v2.352Zm6.552-5.67V8.37h-6.4V6.046Zm1.078-1.022h-8.526V9.308c0,2.226-.224,5.068-2.45,7.028a3.94,3.94,0,0,1,.77.756,7.9,7.9,0,0,0,2.408-4.354h6.72v2.8c0,.308-.112.406-.434.42s-1.442.014-2.618-.028a4.408,4.408,0,0,1,.448,1.078,11.258,11.258,0,0,0,2.954-.2c.518-.168.728-.532.728-1.26Zm6.328,8.148v-1.4h3.094v1.4Zm3.094-3.584V10.96H130.1V9.588Zm1.008-.9h-5.1v8.316h.994V14h3.094V15.86c0,.182-.056.238-.266.252-.182.014-.812.014-1.512-.014a3.993,3.993,0,0,1,.336.91,5.687,5.687,0,0,0,1.946-.168c.378-.168.5-.434.5-.966Zm4.508,7.07c0,.21-.07.266-.308.28-.21.014-.966.014-1.82-.014a4.13,4.13,0,0,1,.378.994,6.838,6.838,0,0,0,2.212-.182c.42-.168.56-.448.56-1.078V8.412H138.71Zm-1.848-6.93H135.9v5.684h.966Zm.532-2.338c.406-.574.868-1.26,1.246-1.9l-1.092-.364a15.79,15.79,0,0,1-1.316,2.268H132.06l.686-.266a9.509,9.509,0,0,0-1.4-1.96l-.952.364a9.6,9.6,0,0,1,1.274,1.862h-3.43v.952H140.67V6.494ZM147.4,4.982a16.291,16.291,0,0,1-.35,3.01c-.84.07-1.652.14-2.114.154a12.054,12.054,0,0,1-1.232,0l.112,1.218c.364-.056.924-.126,1.246-.168.364-.042,1.036-.112,1.75-.182a21.721,21.721,0,0,1-2.912,6.874l1.148.462A27.817,27.817,0,0,0,147.964,8.9c.6-.056,1.148-.1,1.484-.1.882,0,1.456.224,1.456,1.484a11.916,11.916,0,0,1-.644,4.242,1.166,1.166,0,0,1-1.218.714,6.824,6.824,0,0,1-1.694-.308l.182,1.176a8.291,8.291,0,0,0,1.624.21,1.951,1.951,0,0,0,2.03-1.162,13.324,13.324,0,0,0,.812-5c0-1.876-1.022-2.352-2.254-2.352-.336,0-.91.042-1.554.084.154-.742.28-1.554.35-1.96.056-.266.112-.56.168-.812Zm5.04,2.058a16.669,16.669,0,0,1,2.478,5.026l1.092-.518a24.351,24.351,0,0,0-2.534-4.956Zm9.66-.91c1.064.294,4.074.91,5.39,1.092l.266-1.092A37.068,37.068,0,0,1,162.4,5.066Zm-.014,1.456-1.19-.154a49.042,49.042,0,0,1-.7,5.628l1.05.252a2.9,2.9,0,0,1,.42-.7,5.385,5.385,0,0,1,4.284-1.834c1.414,0,2.436.77,2.436,1.876,0,1.89-2.142,3.15-6.51,2.618l.336,1.148c5.152.434,7.35-1.246,7.35-3.738,0-1.624-1.414-2.9-3.542-2.9a6.563,6.563,0,0,0-4.48,1.666C161.67,10.554,161.908,8.538,162.09,7.586ZM174.032,16h5.628V14.936H177.6v-9.2h-.98a6.5,6.5,0,0,1-2.128.728v.812h1.82v7.658h-2.282Zm11.382-3.276a6.955,6.955,0,0,1-1.12,2.408,4.318,4.318,0,0,1,.672.448,9.106,9.106,0,0,0,1.26-2.674Zm4.158-.672V11.24h-4.634v.812h1.89V15.9c0,.126-.028.154-.168.168s-.518.014-1.008,0a2.911,2.911,0,0,1,.294.826,3.3,3.3,0,0,0,1.386-.168c.308-.14.378-.378.378-.826v-3.85Zm.378,2.772a8.821,8.821,0,0,0-1.05-2.086l-.7.266a9.41,9.41,0,0,1,1.022,2.128Zm2.03-6.748-.448.35a12.1,12.1,0,0,1,1.288.938h-1.988c-.056-.42-.084-.854-.112-1.288Zm1.176,2.716a9.617,9.617,0,0,1-1.33,2.716,16.12,16.12,0,0,1-.882-3.3h3.808v-.84h-1.036l.14-.14A9.133,9.133,0,0,0,192.3,8.076h2.52V7.208H189.39V6.06h4.1V5.276h-4.1V4.3h-1.022V7.208H185.82V4.926h-.98V7.208H182.6v.868h7.182c.014.434.056.868.112,1.288h-6.51V11.7a8.207,8.207,0,0,1-1.176,4.788,4.748,4.748,0,0,1,.784.616,9.451,9.451,0,0,0,1.358-5.39V10.2h5.656a17.914,17.914,0,0,0,1.176,4.144,10.12,10.12,0,0,1-2.534,2.016,4.877,4.877,0,0,1,.7.728,10.388,10.388,0,0,0,2.282-1.862c.658,1.176,1.428,1.89,2.17,1.89.84,0,1.19-.56,1.344-2.506a2.465,2.465,0,0,1-.784-.448c-.056,1.414-.2,2.016-.49,2.016-.476,0-1.064-.63-1.61-1.708a11.474,11.474,0,0,0,1.834-3.486Zm6.16-5.39a8.293,8.293,0,0,1-.1.98,38.508,38.508,0,0,0-.616,5.558,17.364,17.364,0,0,0,.5,4.452l1.008-.07-.042-.49a3.459,3.459,0,0,1,.07-.616,30.106,30.106,0,0,1,.98-3.108l-.6-.448c-.224.546-.532,1.358-.77,1.988a14.476,14.476,0,0,1-.112-1.9,31.9,31.9,0,0,1,.672-5.306c.056-.252.182-.7.266-.938Zm3.416,6.72a8.035,8.035,0,0,0-.224,1.638c0,1.3,1.036,2.072,3.36,2.072a18.424,18.424,0,0,0,3.458-.28l-.014-1.176a15.071,15.071,0,0,1-3.43.364c-1.9,0-2.324-.616-2.324-1.246a5.149,5.149,0,0,1,.182-1.274Zm.476-4.41a35.022,35.022,0,0,0,5.684,0V6.564a24.234,24.234,0,0,1-5.7,0Zm21.714.952a20.969,20.969,0,0,0-3.248-1.848l-.546.868a16.653,16.653,0,0,1,3.164,1.9Zm-5.04-2.1a14.178,14.178,0,0,1-2.156.5c.224-.8.406-1.638.546-2.142l-1.246-.112a11.364,11.364,0,0,1-.434,2.394c-.532.042-1.05.07-1.54.07a13.059,13.059,0,0,1-1.708-.1l.084,1.05c.518.028,1.092.042,1.61.042q.609,0,1.218-.042a19.887,19.887,0,0,1-2.968,5.18l1.092.56A24.912,24.912,0,0,0,217.4,8.1a16.494,16.494,0,0,0,2.506-.5Zm.728,7.742c0,.686-.378,1.316-1.512,1.316-1.078,0-1.6-.434-1.6-1.078s.672-1.092,1.694-1.092a5.049,5.049,0,0,1,1.4.2C220.61,13.9,220.61,14.124,220.61,14.306Zm-.2-5.1c.028.966.1,2.324.14,3.458a6.561,6.561,0,0,0-1.316-.126c-1.568,0-2.772.826-2.772,2.1,0,1.372,1.246,2,2.772,2,1.708,0,2.436-.91,2.436-2.016,0-.154,0-.35-.014-.56a9.645,9.645,0,0,1,2.226,1.582l.6-.952a9.357,9.357,0,0,0-2.87-1.736c-.028-.84-.084-1.75-.1-2.254a13.485,13.485,0,0,1,.014-1.5Zm13.622,6.328c-1.036,0-1.834-.392-1.834-1.078,0-.476.476-.854,1.106-.854a1.851,1.851,0,0,1,1.834,1.848A6.829,6.829,0,0,1,234.036,15.538Zm2.856-10.066a4.964,4.964,0,0,1-.756.112c-.728.07-4.018.168-4.732.168a7.872,7.872,0,0,1-.98-.042l.028,1.162a6.675,6.675,0,0,1,.938-.084c.714-.042,3.444-.168,4.172-.2-.686.616-2.408,2.072-3.178,2.716-.812.672-2.59,2.156-3.738,3.108l.812.826c1.764-1.792,3.024-2.758,5.306-2.758,1.75,0,3.122.994,3.122,2.352a2.418,2.418,0,0,1-1.722,2.352,2.737,2.737,0,0,0-2.856-2.45,1.97,1.97,0,0,0-2.142,1.82c0,1.148,1.162,1.988,3.052,1.988,2.926,0,4.788-1.456,4.788-3.7,0-1.876-1.666-3.276-3.976-3.276a5.891,5.891,0,0,0-1.876.294c1.064-.9,2.926-2.534,3.612-3.052.21-.154.518-.364.77-.532Zm12.292,8.9c0,.952-.672,1.19-1.47,1.19-1.372,0-1.918-.476-1.918-1.12s.714-1.134,2.03-1.134a7.058,7.058,0,0,1,1.344.126C249.17,13.816,249.184,14.138,249.184,14.376Zm5.054.476a11.381,11.381,0,0,0-4.032-2.156c-.028-.658-.07-1.386-.1-2.1,1.316-.056,2.548-.154,3.85-.322l-.014-1.05a37.4,37.4,0,0,1-3.85.364V7.6c1.3-.07,2.492-.182,3.584-.294l-.014-1.022a30.828,30.828,0,0,1-3.556.336c0-.336,0-.6.014-.77a7.135,7.135,0,0,1,.07-.924H249a7.76,7.76,0,0,1,.042.826v.91h-.714a22.1,22.1,0,0,1-3.248-.266V7.432c.826.1,2.3.21,3.262.21h.686V9.63h-.742a24.665,24.665,0,0,1-3.486-.266v1.064c.994.112,2.534.2,3.486.2h.77c.014.574.042,1.232.07,1.848a7.827,7.827,0,0,0-1.162-.084c-2,0-3.22.854-3.22,2.114,0,1.344,1.106,2.058,3.094,2.058,1.806,0,2.45-.994,2.45-1.946,0-.21-.014-.518-.028-.868a10.3,10.3,0,0,1,3.346,2.086Zm13.3-6.118-.714.308a13,13,0,0,1,1.148,1.974l.714-.336A16.615,16.615,0,0,0,267.538,8.734Zm1.526-.588-.7.322a12.47,12.47,0,0,1,1.19,1.946l.728-.336A21.147,21.147,0,0,0,269.064,8.146ZM258.452,6.788l.126,1.232c1.5-.308,5.278-.672,6.5-.812a5.6,5.6,0,0,0-2.576,4.676c0,3.094,2.926,4.466,5.488,4.578l.406-1.176c-2.254-.084-4.774-.938-4.774-3.64a4.848,4.848,0,0,1,3.164-4.382A11.488,11.488,0,0,1,269.5,7.04V5.92c-.924.042-2.226.112-3.738.238-2.548.224-5.166.476-6.076.56C259.418,6.746,258.984,6.774,258.452,6.788Z" transform="translate(142 3111)"/>
    <path id="パス_12494" data-name="パス 12494" d="M8.428-7.42v1.232H6.076V-7.42ZM11.8-6.188H9.366V-7.42H11.8ZM9.366-4.144V-5.418H11.8v1.274Zm-3.29,0V-5.418H8.428v1.274Zm0,.8H8.428v2.268h.938V-3.346H11.8v1.274c0,.182-.056.238-.238.238s-.77.014-1.428-.014a3.253,3.253,0,0,1,.294.854,6.161,6.161,0,0,0,1.89-.154c.364-.154.476-.406.476-.91v-6.16H11.032c-.308-.168-.672-.364-1.078-.56A12.378,12.378,0,0,0,12.782-10.7l-.644-.49-.2.056H5.11v.826h5.838A10.708,10.708,0,0,1,9.03-9.2c-.658-.28-1.344-.56-1.946-.77l-.658.588c.84.308,1.834.756,2.66,1.162H5.1v7.2h.98Zm-2.114-5.8A10.494,10.494,0,0,0,1.6-11.4l-.728.644A10.712,10.712,0,0,1,3.192-8.428ZM3.654-6.23H.63v.98H2.646v3.6A24.212,24.212,0,0,1,.462-.07L.966.938C1.764.35,2.506-.252,3.22-.868A4.8,4.8,0,0,0,7.168.8C8.708.868,11.676.84,13.23.77a5.149,5.149,0,0,1,.322-1.022C11.886-.14,8.694-.1,7.168-.168,5.53-.224,4.326-.686,3.654-1.736Zm16.87,4.074a2.068,2.068,0,0,0,.014-.294v-.924h3.556v1.218ZM18.662-4.9H25.8v.84h-7.14Zm0-1.47H25.8v.8h-7.14Zm0-1.484H25.8v.812h-7.14Zm5.726-1.96a7.29,7.29,0,0,1,.938,1.26H22.19a8.171,8.171,0,0,0,1.078-1.26ZM28.35-2.156H25.144V-3.374h1.722v-5.18H25.48l.742-.336a4.772,4.772,0,0,0-.658-.924h2.66v-.854H23.772a6.874,6.874,0,0,0,.392-.868l-.994-.224a6.329,6.329,0,0,1-1.946,2.744,5,5,0,0,1,.84.462H19.32l.756-.294a5.27,5.27,0,0,0-.532-.966h2.394v-.854H18.27c.14-.28.28-.56.406-.84l-.952-.252a7.665,7.665,0,0,1-2.058,2.884,5.292,5.292,0,0,1,.854.56,9.776,9.776,0,0,0,1.232-1.5h.714a7.649,7.649,0,0,1,.686,1.26H17.64v5.18h1.876v.91a2.373,2.373,0,0,1-.014.308H15.96v.868h3.206a4.883,4.883,0,0,1-2.982,1.6,3.764,3.764,0,0,1,.644.784c2.24-.658,3.15-1.512,3.5-2.38h3.766V1.05h1.05V-1.288H28.35Z" transform="translate(261 3071)" fill="#1778b1"/>
    <path id="パス_12495" data-name="パス 12495" d="M3.57-1.022V-4.928h6.944v3.906ZM10.514-9.73v3.78H3.57V-9.73ZM2.52-10.752V.91H3.57V0h6.944V.854h1.092V-10.752Zm17.962.448v1.162H17.458V-10.3ZM17.458-7.14V-8.372h3.024V-7.14Zm4.018.8v-4.774H16.422V1.078h1.036v-7.42ZM23.73-4.48v1.288H20.44V-4.48ZM20.44-1.05V-2.408h3.29V-1.05ZM24.7-.224V-5.292H19.5V.476h.938v-.7Zm-.98-6.9V-8.372h3.136v1.246ZM26.852-10.3v1.162H23.716V-10.3Zm1.05-.812h-5.18v4.788h4.13V-.322c0,.252-.084.336-.322.336S25.424.042,24.57,0a3.834,3.834,0,0,1,.364,1.064A7.969,7.969,0,0,0,27.286.882C27.748.7,27.9.35,27.9-.308Z" transform="translate(356 3071)" fill="#1778b1"/>
    <g id="グループ_150" data-name="グループ 150" transform="translate(76.521 2898.236)">
      <path id="パス_169" data-name="パス 169" d="M183.98,46.954C182.459,15.784,146.754,0,141.817,0S101.174,15.784,99.655,46.954c-1.364,27.979,4.557,91.538,42.162,91.538S185.344,74.933,183.98,46.954ZM138.155,22.571a26.34,26.34,0,0,1,7.982.179,5.95,5.95,0,0,1,.474.62,9.08,9.08,0,0,1,1.352,5.154,21.8,21.8,0,0,1-1.54,7.471,25.427,25.427,0,0,1-6.791-7.739,11.417,11.417,0,0,1-1.486-5.3C138.145,22.81,138.149,22.684,138.155,22.571Zm-2.562.452a14.019,14.019,0,0,0,1.781,6.424,22.407,22.407,0,0,0,2.648,3.893c-1.142-.46-2.288-.892-3.362-1.344a13.416,13.416,0,0,1-4.575-2.815,6.143,6.143,0,0,1-1.3-2.02,7.511,7.511,0,0,1-.47-2.321A26.4,26.4,0,0,1,135.593,23.023Zm28.844,80.918a1.492,1.492,0,0,1-2.1.117L134.209,78.9a30.99,30.99,0,0,0,5.377.814l6.585,5.892,7.382-8.248a30.477,30.477,0,0,0,4.056-2.084,1.484,1.484,0,0,1,.019,1.995L148.39,87.589l15.929,14.251A1.49,1.49,0,0,1,164.436,103.942Zm10.1-48.753a4.934,4.934,0,0,1-5.152,1.167l-2.015-.709-.7,2.017a26.589,26.589,0,0,1-50.181.138l-.661-1.867-1.908.523a4.892,4.892,0,0,1-1.317.185,4.963,4.963,0,0,1,0-9.927c.09,0,.217.008.4.021l1.974.155.3-1.956a26.65,26.65,0,0,1,12.621-18.81,9.277,9.277,0,0,0,.54,2.02,8.649,8.649,0,0,0,1.593,2.568,13.093,13.093,0,0,0,4.064,2.916c2.24,1.1,4.66,1.863,6.694,2.813a13.674,13.674,0,0,1,2.681,1.575,6.332,6.332,0,0,1,1.76,2.055,1.275,1.275,0,0,0,2.288-.054c2.207-4.783,3-8.544,3-11.5a12.679,12.679,0,0,0-.911-4.93,26.614,26.614,0,0,1,18.247,21.4l.313,2.111,2.111-.322a5.036,5.036,0,0,1,.754-.066,4.963,4.963,0,0,1,3.508,8.474Z" fill="#1778b1"/>
    </g>
  </g>
</svg>
