<svg xmlns="http://www.w3.org/2000/svg" width="320" height="324" viewBox="0 0 320 324">
  <g id="グループ_964" data-name="グループ 964" transform="translate(-480 -2868)">
    <rect id="長方形_145" data-name="長方形 145" width="320" height="324" transform="translate(480 2868)" fill="#f7f7f7"/>
    <path id="パス_12497" data-name="パス 12497" d="M-71.4-7.546h2.464v.98H-71.4Zm0-2.254h2.464v.966H-71.4Zm6.65.966h-2.506V-9.8h2.506Zm0,2.268h-2.506v-.98h2.506Zm-2.87,2.338c.056-.322.112-.63.154-.966H-63v-5.978H-73.066v5.978h3.85c-.042.336-.1.658-.154.966H-74v1.5h4.088c-.658,1.12-1.96,1.946-4.69,2.478A4.468,4.468,0,0,1-73.738,1.2c3.528-.77,5.012-2.128,5.712-3.934h3.682c-.154,1.386-.364,2.086-.616,2.3a.92.92,0,0,1-.616.14c-.378,0-1.26-.014-2.128-.084a3.3,3.3,0,0,1,.546,1.526c.882.014,1.736.028,2.226-.014A1.958,1.958,0,0,0-63.546.588c.448-.448.728-1.6.952-4.144.028-.224.056-.672.056-.672ZM-49.756-.812v-2.8h2.562V-5.166h-2.562v-2.3H-46.9V-9.03h-2.856v-2.744h-1.666V-9.03h-1.12c.14-.63.252-1.288.35-1.946l-1.624-.224a16.944,16.944,0,0,1-.742,3.416,16.052,16.052,0,0,0-.77-1.764l-.812.336v-2.646h-1.666V-9l-1.176-.168a16.639,16.639,0,0,1-.686,3.64l1.232.448a17.841,17.841,0,0,0,.63-3.71V1.218h1.666V-8.344a9.735,9.735,0,0,1,.532,1.61l.8-.364c-.14.294-.28.56-.42.812a14.721,14.721,0,0,1,1.484.756,9.564,9.564,0,0,0,.784-1.932h1.54v2.3h-2.7v1.554h2.7v2.8H-55.16V.77h8.708V-.812Zm8.778-1.708c-.518,0-1.078-.686-1.078-2.086a4.347,4.347,0,0,1,3.514-4.018,22.254,22.254,0,0,1-.742,3.36C-39.844-3.388-40.4-2.52-40.978-2.52ZM-37.17.574c3.5-.532,5.292-2.6,5.292-5.516a5.291,5.291,0,0,0-5.6-5.418,6.183,6.183,0,0,0-6.384,5.936c0,2.338,1.3,4.032,2.828,4.032S-38.318-2.1-37.492-4.9a30.129,30.129,0,0,0,.826-3.766A3.432,3.432,0,0,1-33.768-5a3.753,3.753,0,0,1-3.15,3.71c-.364.084-.756.154-1.288.224Zm11.844-2.716v-.672h5.306v.672ZM-20.02-4.62v.672h-5.306V-4.62Zm1.694-1.344h-8.666V1.218h1.666V-.994h5.306V-.35c0,.2-.07.266-.322.266-.21.014-1.106.014-1.778-.028a6.608,6.608,0,0,1,.49,1.33,8.741,8.741,0,0,0,2.534-.21c.574-.21.77-.56.77-1.344Zm-2.212-3.248-.672.406c.294.21.6.448.91.7-1.47.028-2.926.042-4.284.07.322-.378.658-.784.966-1.176Zm4.046,0v-1.456H-21.84v-1.19h-1.708v1.19H-28.9v1.456h3.178c-.224.392-.476.812-.742,1.19l-1.946.028.042,1.5c2.45-.056,6.1-.154,9.59-.28a9.331,9.331,0,0,1,.84.9l1.47-.938a18.614,18.614,0,0,0-2.8-2.394Zm6.1,5.5C-10.6-1.946-11-.8-14.154-.182a4.981,4.981,0,0,1,.938,1.5C-9.548.42-8.862-1.246-8.582-3.71Zm3.682-.028v2.87c0,1.512.392,2.03,2,2.03H-3c1.33,0,1.764-.56,1.946-2.758a5.069,5.069,0,0,1-1.54-.658c-.056,1.61-.126,1.848-.574,1.848H-4.452C-4.928-.406-5-.476-5-.9V-3.738Zm-5.936-7.728v7.6h1.624v-7.6Zm3.262.182v7.2h7.042v-7.2Zm1.61,1.428h3.738v1.5H-7.77Zm0,2.814h3.738v1.526H-7.77Zm21.7.2V-8.47H10.276v-3.164H8.624V-8.47H5.068v1.624h2.9A13.283,13.283,0,0,1,4.508-1.778V-8.3A22.09,22.09,0,0,0,5.95-11.256L4.3-11.788A14.363,14.363,0,0,1,.756-6.412a12.088,12.088,0,0,1,.966,1.75A12.69,12.69,0,0,0,2.87-5.922V1.19H4.508v-2.8A9.233,9.233,0,0,1,5.642-.378,14.226,14.226,0,0,0,8.624-4.62V1.218h1.652V-4.9A14.311,14.311,0,0,0,13.1-.448a5.934,5.934,0,0,1,1.246-1.33A13.694,13.694,0,0,1,11-6.846ZM24.4-8.218c-.154.378-.322.784-.49,1.12H21.294l.238-.042a6.9,6.9,0,0,0-.476-1.078Zm4.522,6.244V-3.346H23.478v-.616h4.2v-1.2h-4.2V-5.8h4.858V-7.1H25.592c.21-.336.434-.714.658-1.12h2.632V-9.576h-1.82c.322-.49.7-1.12,1.092-1.764l-1.75-.42a11.278,11.278,0,0,1-.882,2.03l.5.154H24.78v-2.282H23.212v2.282H22.176v-2.282H20.622v2.282H19.348l.686-.252A10.594,10.594,0,0,0,18.97-11.8l-1.428.49a12.549,12.549,0,0,1,.868,1.736H16.534v1.358H19.46l-.168.028A6.291,6.291,0,0,1,19.768-7.1h-2.66v1.3H21.84v.63H17.808v1.2H21.84v.616H16.492v1.372H20.51A14.708,14.708,0,0,1,16.086-.336,7.765,7.765,0,0,1,17.15,1.05a13.28,13.28,0,0,0,4.69-2.268V1.218h1.638V-1.3a11.95,11.95,0,0,0,4.7,2.366A7.831,7.831,0,0,1,29.3-.448a12.507,12.507,0,0,1-4.438-1.526ZM41.762-2.66a5.329,5.329,0,0,1-1.022.9,5.319,5.319,0,0,1-.434-.9ZM35.9-3.878v-.728c.7-.1,1.358-.21,1.932-.336l-.91-.938h4.144l-.868.91a9.163,9.163,0,0,1,2.044,1.092h-2.31A10.584,10.584,0,0,1,39.69-5.7h-1.6a14.7,14.7,0,0,0,.224,1.82ZM42.014-2.66h2.1V-3.878H42.742l.742-.826A9.9,9.9,0,0,0,41.272-5.88h2.772V-7.14H38.626v-.518h4.06V-8.806h-4.06v-.5h4.8v-1.232H41.006c.224-.28.476-.63.728-.994l-1.848-.35a8.088,8.088,0,0,1-.616,1.344H36.456a4.535,4.535,0,0,0-.854-1.3l-1.456.462a5.7,5.7,0,0,1,.532.84H32.2V-9.31h4.718v.5H32.942v1.148h3.976v.518H31.57v1.26h5.138a34.671,34.671,0,0,1-4.928.574,4.685,4.685,0,0,1,.35.994c.686-.014,1.442-.056,2.184-.126v.56H31.542V-2.66h2.772v.616c-1.064.056-2.044.1-2.814.126l.126,1.274c.784-.056,1.708-.112,2.688-.2v.56c0,.182-.07.238-.28.238a15.344,15.344,0,0,1-1.582-.014,5.4,5.4,0,0,1,.476,1.274,7.263,7.263,0,0,0,2.3-.21c.518-.182.672-.5.672-1.246V-.952l2.086-.168L38-2.24l-2.1.112V-2.66h2.73a7.84,7.84,0,0,0,.7,1.666,15.321,15.321,0,0,1-2.814.882A7.779,7.779,0,0,1,37.324,1.2,15.83,15.83,0,0,0,40.166.126,3.288,3.288,0,0,0,42.56,1.2c1.106,0,1.568-.336,1.792-1.9a3.416,3.416,0,0,1-1.218-.644c-.07.784-.154,1.036-.49,1.036a1.681,1.681,0,0,1-1.05-.406A7.438,7.438,0,0,0,43.232-2.24Zm13.958-1.4c.056-.406.1-.826.14-1.246H54.446a11.687,11.687,0,0,1-.14,1.246H52.262v1.386h1.694A4.488,4.488,0,0,1,51.03-.07,4.709,4.709,0,0,1,52,1.218a5.593,5.593,0,0,0,3.682-3.892H57.3A4.262,4.262,0,0,1,56.77-.588a.57.57,0,0,1-.448.154,11.857,11.857,0,0,1-1.2-.07,3.613,3.613,0,0,1,.448,1.54,10.7,10.7,0,0,0,1.568-.028,1.539,1.539,0,0,0,1.022-.49c.406-.448.658-1.526.882-3.948.028-.2.056-.63.056-.63Zm.616-5.012a4.254,4.254,0,0,1-.924,1.19A5.49,5.49,0,0,1,54.5-9.072Zm2.66,0v-1.386h-4.13a9.385,9.385,0,0,0,.518-.98l-1.554-.42a8.346,8.346,0,0,1-2.674,3.332,12.225,12.225,0,0,1,1.358.938,8.336,8.336,0,0,0,.63-.6,7.916,7.916,0,0,0,.994,1.162,8.482,8.482,0,0,1-1.708.644l.056-.322L51.73-7.042l-.224.07h-.672l.686-.714A7.835,7.835,0,0,0,50.5-8.3a10.45,10.45,0,0,0,2.044-2.31l-1.064-.672-.252.056H46.7v1.4h3.36a8.743,8.743,0,0,1-.882.882c-.378-.168-.77-.322-1.106-.448L47.026-8.33a20.309,20.309,0,0,1,2.7,1.358H46.522v1.456h1.75a8.8,8.8,0,0,1-1.988,2.884,9.329,9.329,0,0,1,.756,1.61,8.482,8.482,0,0,0,1.75-2.59v3c0,.168-.056.2-.224.21s-.742,0-1.26-.014a5.546,5.546,0,0,1,.476,1.582A4.129,4.129,0,0,0,49.756.868c.49-.252.6-.7.6-1.456V-5.516H51.1a18.247,18.247,0,0,1-.448,1.932l1.12.518A16.343,16.343,0,0,0,52.458-5.4a5.3,5.3,0,0,1,.392.588,11.206,11.206,0,0,0,2.856-1.176,10.084,10.084,0,0,0,2.856,1.2A6.394,6.394,0,0,1,59.612-6.2a10.894,10.894,0,0,1-2.576-.826,6.877,6.877,0,0,0,1.4-2.044Zm5.782-2.6A14.467,14.467,0,0,1,61.208-6.23a12.214,12.214,0,0,1,.966,1.764A15.861,15.861,0,0,0,63.56-5.95V1.19h1.666V-8.3a22.548,22.548,0,0,0,1.456-2.828ZM70.182-.5c-.672,0-.77-.14-.77-.966V-5a33.913,33.913,0,0,0,4.76-2.7L72.94-9.156a23.812,23.812,0,0,1-3.528,2.45v-4.788h-1.68v10.01c0,1.974.5,2.534,2.268,2.534h2.394c1.652,0,2.086-.882,2.282-3.29a4.806,4.806,0,0,1-1.54-.714C73.024-.98,72.912-.5,72.24-.5Z" transform="translate(640 2908.646)"/>
    <path id="パス_12354" data-name="パス 12354" d="M19.556-58.271H-1.362L-4.7-47.021q.747-.088,1.428-.132t1.252-.044a21.351,21.351,0,0,1,16.216,6.68q6.372,6.636,6.372,17.007,0,10.723-7.207,17.666T-4.79,1.1q-13.491,0-21.27-12.656l7.734-6.548q3.208,5.449,6.46,7.69a13.878,13.878,0,0,0,7.954,2.2A13.809,13.809,0,0,0,6.416-12.524a15.142,15.142,0,0,0,4.175-10.767A14.394,14.394,0,0,0,6.46-33.926,13.788,13.788,0,0,0-3.867-38.188q-6.9,0-11.909,6.021H-19.16L-8.481-67.852H19.556Z" transform="translate(695 3112)" fill="#064a6f"/>
    <path id="パス_12498" data-name="パス 12498" d="M3.57-1.022V-4.928h6.944v3.906ZM10.514-9.73v3.78H3.57V-9.73ZM2.52-10.752V.91H3.57V0h6.944V.854h1.092V-10.752Zm17.962.448v1.162H17.458V-10.3ZM17.458-7.14V-8.372h3.024V-7.14Zm4.018.8v-4.774H16.422V1.078h1.036v-7.42ZM23.73-4.48v1.288H20.44V-4.48ZM20.44-1.05V-2.408h3.29V-1.05ZM24.7-.224V-5.292H19.5V.476h.938v-.7Zm-.98-6.9V-8.372h3.136v1.246ZM26.852-10.3v1.162H23.716V-10.3Zm1.05-.812h-5.18v4.788h4.13V-.322c0,.252-.084.336-.322.336S25.424.042,24.57,0a3.834,3.834,0,0,1,.364,1.064A7.969,7.969,0,0,0,27.286.882C27.748.7,27.9.35,27.9-.308Z" transform="translate(720 3111)" fill="#064a6f"/>
    <g id="グループ_148" data-name="グループ 148" transform="translate(-61.147 2807.398)">
      <path id="パス_158" data-name="パス 158" d="M680.164,165.574a11.326,11.326,0,1,1-11.326-11.326A11.326,11.326,0,0,1,680.164,165.574Z" transform="translate(10.772 0)" fill="#064a6f"/>
      <g id="グループ_147" data-name="グループ 147" transform="translate(591.348 233.906)">
        <path id="パス_159" data-name="パス 159" d="M632.022,232.541a9.786,9.786,0,1,1-9.785-9.788A9.785,9.785,0,0,1,632.022,232.541Z" transform="translate(-587.912 -222.753)" fill="#064a6f"/>
        <path id="パス_160" data-name="パス 160" d="M612.331,281.259a5.766,5.766,0,1,1-5.766-5.766A5.767,5.767,0,0,1,612.331,281.259Z" transform="translate(-589.81 -214.167)" fill="#064a6f"/>
        <path id="パス_161" data-name="パス 161" d="M629.931,281.259a5.766,5.766,0,1,1-5.767-5.766A5.767,5.767,0,0,1,629.931,281.259Z" transform="translate(-586.944 -214.167)" fill="#064a6f"/>
        <path id="パス_162" data-name="パス 162" d="M620.721,281.141H601.546l3.24-5.83h15.935c2.364,0,6.783-2.073,8.579-7.637,1.209-3.752,10.376-37.9,10.47-38.253l.576-2.164h16.164l-1.759,5.829h-9.925s-8.89,33-9.979,36.377C632.373,277.127,625.868,281.141,620.721,281.141Z" transform="translate(-589.688 -222.02)" fill="#064a6f"/>
        <path id="パス_163" data-name="パス 163" d="M623.184,241.406c-4.635.77-20.265,4.764-20.265,4.764a3.038,3.038,0,1,0,1.314,5.933l10.023-1.172-1.943,7.449H604.7c-3.392,0-5.7,1.188-6.974,4l-6.042,13.5a3.986,3.986,0,0,0,2.043,5.258,4.058,4.058,0,0,0,5.262-2.046l5.226-9.216H619.6c3.076,0,6.8-1.783,7.771-5.343s4.127-16.091,4.127-16.091C633.026,242.881,628.581,240.508,623.184,241.406Z" transform="translate(-591.348 -219.746)" fill="#064a6f"/>
      </g>
      <path id="パス_164" data-name="パス 164" d="M695.491,241.2l7.381,54.79a5.788,5.788,0,0,1-4.583,6.711c-3.12.588-5.742-1.513-6.713-4.58l-12.843-47.327L663.44,298.214a5.747,5.747,0,0,1-11.257-2.326l12.993-70.938-3.551-15.656-10.179,20.339a4.408,4.408,0,0,1-8.049-3.6l8.354-21.155,6.269-15.868c7.187-17.378,25.961-9.6,27.366-.9l6.908,35.048C693.572,228.789,694.979,236.846,695.491,241.2Z" transform="translate(8.411 3.968)" fill="#064a6f"/>
    </g>
  </g>
</svg>
