<svg xmlns="http://www.w3.org/2000/svg" width="320" height="263" viewBox="0 0 320 263">
  <g id="グループ_959" data-name="グループ 959" transform="translate(-480 -1386)">
    <rect id="長方形_136" data-name="長方形 136" width="320" height="263" transform="translate(480 1386)" fill="#fff"/>
    <path id="パス_12477" data-name="パス 12477" d="M-72.9-7.658h2.884V-6.37H-72.9Zm0-2.268h2.884V-8.68H-72.9Zm7.14,1.246H-68.7V-9.926h2.94Zm0,2.31H-68.7V-7.658h2.94Zm1.82,2.268H-69.1c.084-.378.154-.784.21-1.19H-64.4v-5.726h-9.8v5.726h3.934c-.056.406-.112.812-.2,1.19h-4.774V-2.94h4.368C-71.512-1.6-72.814-.588-75.712-.014a3.553,3.553,0,0,1,.686,1.12c3.458-.77,4.914-2.17,5.6-4.046h4.06c-.182,1.694-.392,2.478-.686,2.73a.821.821,0,0,1-.6.14c-.35,0-1.246-.014-2.128-.084a2.714,2.714,0,0,1,.42,1.176c.882.042,1.736.056,2.184.028A1.8,1.8,0,0,0-64.96.6c.462-.448.728-1.568.98-4.172Zm4.424-1.05a17.753,17.753,0,0,0,.658-3.808l-.952-.14a15.889,15.889,0,0,1-.7,3.612ZM-50.988-.6V-3.78h2.716V-5h-2.716V-7.63h3.024V-8.862h-3.024V-11.69h-1.3v2.828h-1.47a18.858,18.858,0,0,0,.42-2.044l-1.274-.21a16.479,16.479,0,0,1-.924,3.724,12.548,12.548,0,0,0-.91-2.1l-.826.336v-2.59h-1.3V1.092h1.3V-8.946a12.739,12.739,0,0,1,.84,2.2l.784-.378a6.223,6.223,0,0,1-.518.966,7.576,7.576,0,0,1,1.162.6,12.591,12.591,0,0,0,.9-2.072h1.82V-5h-2.842V-3.78h2.842V-.6h-3.892V.63H-47.6V-.6Zm18.312-4.312a5.182,5.182,0,0,0-5.488-5.278,6.068,6.068,0,0,0-6.258,5.824c0,2.338,1.274,3.878,2.66,3.878s2.548-1.582,3.388-4.438a27.877,27.877,0,0,0,.84-3.934,3.722,3.722,0,0,1,3.388,3.906A4.027,4.027,0,0,1-37.534-.98a8.653,8.653,0,0,1-1.246.2l.826,1.316C-34.552.042-32.676-1.974-32.676-4.914Zm-10.332.406a4.68,4.68,0,0,1,3.99-4.326,22.289,22.289,0,0,1-.77,3.612c-.644,2.156-1.3,3.066-1.932,3.066C-42.322-2.156-43.008-2.9-43.008-4.508ZM-25.984-2.1V-3h5.824v.9Zm5.824-2.7v.882h-5.824V-4.8Zm1.316-1.078h-8.442V1.106h1.3V-1.162h5.824V-.21c0,.2-.07.266-.322.266-.21.014-1.05.028-1.806-.014a4.276,4.276,0,0,1,.406,1.064A8.582,8.582,0,0,0-19.5.924c.49-.154.658-.476.658-1.12ZM-20.79-9.324l-.742.476c.392.28.812.588,1.232.924-1.736.028-3.472.07-5.026.084.392-.462.812-.98,1.19-1.484Zm3.808-1.148h-5.474V-11.76h-1.33v1.288h-5.432v1.148h3.43a16.5,16.5,0,0,1-.994,1.512c-.7,0-1.344.014-1.918.014l.042,1.19c2.436-.028,6.118-.126,9.6-.266a10.6,10.6,0,0,1,.9.924l1.12-.756a20.128,20.128,0,0,0-3.206-2.618h3.262Zm6.636,6.8c-.238,1.876-.784,3.066-3.836,3.7a4.032,4.032,0,0,1,.742,1.148C-10,.336-9.24-1.232-8.946-3.668Zm3.668-.014V-.644c0,1.288.35,1.694,1.764,1.694h1.9c1.218,0,1.582-.532,1.736-2.646a3.811,3.811,0,0,1-1.218-.518c-.056,1.68-.14,1.932-.63,1.932h-1.61c-.546,0-.616-.07-.616-.476V-3.682Zm-6.02-7.672v7.5h1.26v-7.5Zm3.206.21v7.1h6.916v-7.1Zm1.246,1.134h4.34v1.862h-4.34Zm0,2.912h4.34v1.9h-4.34ZM4.69-11.662A14.577,14.577,0,0,1,1.008-6.188a8.708,8.708,0,0,1,.77,1.344A13.111,13.111,0,0,0,3.206-6.426v7.49H4.494V-8.288a20.969,20.969,0,0,0,1.484-2.968Zm9.3,4.648V-8.288h-3.85v-3.248H8.848v3.248H5.11v1.274H8.26A13.489,13.489,0,0,1,4.536-1.568,6.147,6.147,0,0,1,5.5-.532,15.208,15.208,0,0,0,8.848-5.376V1.106h1.288V-5.726A15.827,15.827,0,0,0,13.4-.616a4.99,4.99,0,0,1,.98-1.05,14.165,14.165,0,0,1-3.57-5.348Zm11.032-1.26a13.062,13.062,0,0,1-.616,1.33H21.448l.406-.084a5.89,5.89,0,0,0-.6-1.246Zm4.214,6.132V-3.234H23.716v-.854h4.3v-.98h-4.3v-.84h4.956V-6.944H25.7c.238-.392.518-.854.784-1.33h2.7V-9.366H27.174a21.905,21.905,0,0,0,1.162-1.9l-1.344-.336a12.2,12.2,0,0,1-.98,2.072l.532.168H25.032V-11.76H23.8v2.394H22.414V-11.76H21.2v2.394h-1.54l.714-.266a9.731,9.731,0,0,0-1.12-2l-1.134.378a10.5,10.5,0,0,1,1.022,1.89H17.066v1.092h3.178l-.336.056A6.936,6.936,0,0,1,20.5-6.944h-2.87v1.036h4.816v.84h-4.13v.98h4.13v.854H17.01v1.092h4.326A13.583,13.583,0,0,1,16.618-.2,5.842,5.842,0,0,1,17.472.91a13.906,13.906,0,0,0,4.97-2.52V1.106h1.274V-1.708A12.489,12.489,0,0,0,28.728.924,5.846,5.846,0,0,1,29.6-.238a12.857,12.857,0,0,1-4.746-1.9Zm8.9-7.56h.574v1.078h4.438A15.559,15.559,0,0,1,41.636-3.85a17.7,17.7,0,0,1-1.512-4.732l-1.26.252a19.719,19.719,0,0,0,1.988,5.754A7.976,7.976,0,0,1,38.136-.14ZM34.482-2.184V-4.032h2.394V-2.52ZM36.876-9.7v1.624H34.482V-9.7ZM34.482-6.916h2.394v1.708H34.482ZM43.736-9.94l-.224.042H39.074v-1.008h-6.86v1.2h1.022v7.686c-.49.056-.924.126-1.316.168l.238,1.3c1.3-.21,3.024-.49,4.718-.77V1.078h1.26V-.07A5.031,5.031,0,0,1,38.948.938a9.589,9.589,0,0,0,2.674-2.324A8.8,8.8,0,0,0,44.254.966,4.957,4.957,0,0,1,45.15-.1a7.709,7.709,0,0,1-2.716-2.45,17.5,17.5,0,0,0,2.142-7.168Zm14.308.5H53.872v-.938h4.172Zm0,1.834H53.872V-8.54h4.172Zm1.316-3.724H52.612v4.69H59.36ZM50.33-11.7a10.292,10.292,0,0,1-2.912,2.786A7.261,7.261,0,0,1,48.09-7.84a14.065,14.065,0,0,0,3.5-3.374Zm.308,3.038a12.858,12.858,0,0,1-3.416,3.682,9.606,9.606,0,0,1,.658,1.316,14.427,14.427,0,0,0,1.47-1.358V1.092h1.26v-7.56A15.815,15.815,0,0,0,51.786-8.2ZM52.57-1.918A12.361,12.361,0,0,1,54.236.056l.98-.7a12.25,12.25,0,0,0-1.722-1.89Zm7.616-1.82h-2V-4.76H59.92V-5.838H51.828V-4.76h5.054v1.022h-5.39v1.12h5.39V-.28c0,.168-.056.21-.266.224s-.868.014-1.568-.014a5.376,5.376,0,0,1,.42,1.176A6.015,6.015,0,0,0,57.6.9c.462-.182.588-.5.588-1.148V-2.618h2Zm6.244.028c1.344-.1,3.066-.224,4.8-.364a6.028,6.028,0,0,1,.364.756l.994-.49a7.02,7.02,0,0,0-.8-1.386,16.171,16.171,0,0,1,2.8,1.834l.966-.812a19.454,19.454,0,0,0-3.08-1.848l-.8.644c-.238-.336-.5-.658-.742-.952L70-5.922c.224.28.462.6.672.924L68.7-4.9c.952-.91,1.96-2.016,2.786-2.982l-1.036-.476a21.042,21.042,0,0,1-1.372,1.736c-.266-.21-.588-.448-.91-.672.42-.49.924-1.106,1.358-1.68l-.294-.112h5.894v-1.19H69.93v-1.47H68.586v1.47H63.532v1.19h4.7C68-8.68,67.69-8.2,67.4-7.8c-.14-.084-.252-.154-.378-.224l-.63.728a19.534,19.534,0,0,1,1.974,1.47c-.336.35-.672.686-.98.98L66.5-4.8l.238-.112-.238-.98c-1.288.532-2.618,1.064-3.5,1.358l.63,1.064c.77-.35,1.708-.784,2.618-1.218ZM63.462-7.924A13.492,13.492,0,0,1,65.6-6.37l.91-.784a11.527,11.527,0,0,0-2.2-1.47ZM72.814-6.51a16.414,16.414,0,0,0,2.24-1.708l-1.162-.574a13.915,13.915,0,0,1-2.03,1.764ZM69.93-3.766H68.586v1.008H63.1v1.2h5.488V1.12H69.93V-1.554h5.6v-1.2h-5.6Z" transform="translate(640 1439.646)"/>
    <path id="パス_12476" data-name="パス 12476" d="M-79.394-7.756h3.234v1.5h-3.234Zm0-2.324h3.234V-8.6h-3.234Zm7.56,1.484h-3.3V-10.08h3.3Zm0,2.338h-3.3v-1.5h3.3ZM-75.558-4a10.572,10.572,0,0,0,.238-1.358h4.55v-5.614h-9.66v5.614H-76.4A9.748,9.748,0,0,1-76.65-4h-4.9v.952h4.578c-.658,1.5-1.988,2.618-4.97,3.234a2.8,2.8,0,0,1,.546.9c3.416-.77,4.858-2.212,5.558-4.13h4.4c-.2,1.918-.42,2.772-.742,3.024a.821.821,0,0,1-.6.14c-.336,0-1.246-.014-2.156-.084a2.226,2.226,0,0,1,.336.952c.882.042,1.75.056,2.184.042A1.536,1.536,0,0,0-71.316.616c.448-.42.714-1.512.966-4.158A4.471,4.471,0,0,0-70.308-4Zm9.324-1.2a15.613,15.613,0,0,0,.7-3.752l-.784-.112a14.146,14.146,0,0,1-.728,3.584Zm1.2,6.272h1.036V-11.718H-65.03ZM-63.9-9.142a13.935,13.935,0,0,1,.966,2.38l.784-.378a13.221,13.221,0,0,0-1.022-2.338ZM-57.75-.406v-3.5h2.856v-.966H-57.75v-2.9h3.164v-.994H-57.75v-2.9h-1.036v2.9h-1.75c.2-.686.364-1.414.5-2.142l-1.008-.168a13.63,13.63,0,0,1-1.694,5,8.167,8.167,0,0,1,.924.476,10.1,10.1,0,0,0,.98-2.17h2.044v2.9h-2.968v.966h2.968v3.5h-4V.588h8.54V-.406Zm9.184-1.554c-.6,0-1.414-.77-1.414-2.52A4.834,4.834,0,0,1-45.7-8.96a22.369,22.369,0,0,1-.77,3.738C-47.18-2.884-47.95-1.96-48.566-1.96ZM-44.912.364c3.3-.434,5.222-2.38,5.222-5.292a5.033,5.033,0,0,0-5.32-5.1,5.92,5.92,0,0,0-6.076,5.642c0,2.282,1.246,3.71,2.478,3.71,1.288,0,2.394-1.47,3.248-4.312a29.3,29.3,0,0,0,.826-3.99,3.843,3.843,0,0,1,3.682,4.018,4.156,4.156,0,0,1-3.514,4.1,8.69,8.69,0,0,1-1.19.168ZM-28.63-1.89h3.346v-.84H-28.63V-4.2h3.71v-.84h-3.71V-6.286h-1.036V-5.04h-2.17a7.72,7.72,0,0,0,.462-1.05l-.938-.224A7.361,7.361,0,0,1-34.1-3.4a5.716,5.716,0,0,1,.812.5A9.066,9.066,0,0,0-32.3-4.2h2.632v1.47H-32.83v.84h3.164V-.126H-34.02v.9h9.94v-.9h-4.55Zm.8-7.672a16.264,16.264,0,0,1-.756,1.834l.49.168h-4.27l.63-.182a6,6,0,0,0-.77-1.82Zm.14,2c.322-.518.7-1.218,1.05-1.876l-.518-.126h2.436v-.9h-5v-1.26h-1.022v1.26h-4.914v.9h2.9l-.714.2a7.7,7.7,0,0,1,.742,1.806h-2.716v2.17A10.913,10.913,0,0,1-36.722.392a4,4,0,0,1,.8.658c1.232-1.862,1.47-4.606,1.47-6.44V-6.636H-24.01V-7.56ZM-17.64-3.626c-.252,1.974-.924,3.206-3.934,3.85a3.265,3.265,0,0,1,.616.91c3.29-.8,4.116-2.324,4.424-4.76Zm3.668,0V-.434c0,1.12.336,1.442,1.61,1.442h2.086c1.12,0,1.428-.5,1.554-2.576a3.161,3.161,0,0,1-.966-.42C-9.744-.238-9.842.028-10.374.028H-12.25c-.56,0-.658-.07-.658-.462V-3.626Zm-6.1-7.7v7.5h1.008v-7.5Zm3.15.238v7.07h6.9v-7.07Zm.994.924h4.858v2.17h-4.858Zm0,3.024h4.858v2.2h-4.858ZM-1.484-5.32A1.476,1.476,0,0,0,0-3.836,1.476,1.476,0,0,0,1.484-5.32,1.476,1.476,0,0,0,0-6.8,1.476,1.476,0,0,0-1.484-5.32ZM12.04-2.03V-3.108h6.23V-2.03Zm6.23-2.926v1.078H12.04V-4.956Zm1.05-.868H11V1.064H12.04v-2.31h6.23v1.2c0,.2-.07.252-.28.266-.238,0-1.05,0-1.862-.014a4.008,4.008,0,0,1,.336.854A9.024,9.024,0,0,0,18.746.91c.434-.126.574-.392.574-.952Zm-1.778-3.6-.784.518c.49.322,1.022.714,1.526,1.106-1.96.042-3.934.084-5.656.112.462-.546.952-1.162,1.372-1.736Zm3.7-.924H15.624v-1.372h-1.05v1.372H9.016v.924H12.67a17.379,17.379,0,0,1-1.176,1.75l-1.932.028.042.966c2.45-.042,6.174-.14,9.688-.28a10.15,10.15,0,0,1,.952.938l.868-.616a20.533,20.533,0,0,0-3.528-2.786h3.654Zm6.482,6.72C27.468-1.652,26.8-.42,23.786.224a3.265,3.265,0,0,1,.616.91c3.29-.8,4.116-2.324,4.424-4.76Zm3.668,0V-.434c0,1.12.336,1.442,1.61,1.442h2.086c1.12,0,1.428-.5,1.554-2.576a3.161,3.161,0,0,1-.966-.42c-.056,1.75-.154,2.016-.686,2.016H33.11c-.56,0-.658-.07-.658-.462V-3.626Zm-6.1-7.7v7.5h1.008v-7.5Zm3.15.238v7.07h6.9v-7.07Zm.994.924h4.858v2.17H29.428Zm0,3.024h4.858v2.2H29.428ZM42.49-11.62A14.387,14.387,0,0,1,38.7-6.006a5.957,5.957,0,0,1,.63,1.05A14.2,14.2,0,0,0,40.978-6.8V1.05H42V-8.3a20.8,20.8,0,0,0,1.526-3Zm9.17,4.466V-8.162H47.614v-3.36H46.592v3.36H42.658v1.008h3.388a14.222,14.222,0,0,1-3.878,5.726,6.04,6.04,0,0,1,.784.8,15.632,15.632,0,0,0,3.64-5.39v7.1h1.022V-6.314A17,17,0,0,0,51.24-.686a3.729,3.729,0,0,1,.784-.84,14.772,14.772,0,0,1-3.808-5.628Zm10.906-1.19a12.8,12.8,0,0,1-.714,1.456l.14.042H58.7l.448-.1a5.44,5.44,0,0,0-.7-1.4Zm4.018,6.09v-.882H60.97V-4.172h4.382v-.8H60.97V-5.992h5.068v-.854H62.86c.28-.42.588-.966.868-1.5h2.8v-.9h-2.17a19.576,19.576,0,0,0,1.232-2.016l-1.064-.28a15.883,15.883,0,0,1-1.064,2.128l.518.168H62.286v-2.478h-.98V-9.24H59.64v-2.478h-.966V-9.24H56.952l.714-.266a9.65,9.65,0,0,0-1.19-2.058l-.882.294A10.913,10.913,0,0,1,56.7-9.24H54.474v.9H57.89l-.49.1a5.878,5.878,0,0,1,.686,1.4H55.034v.854h4.914V-4.97H55.734v.8h4.214v1.036h-5.53v.882H59A13.493,13.493,0,0,1,54.054-.042a4.458,4.458,0,0,1,.672.882,14.069,14.069,0,0,0,5.222-2.758V1.064H60.97V-1.988A13.217,13.217,0,0,0,66.234.882a3.743,3.743,0,0,1,.7-.924,12.809,12.809,0,0,1-5-2.212Zm5.81.294c-.6,0-1.414-.77-1.414-2.52a4.834,4.834,0,0,1,4.284-4.48,22.368,22.368,0,0,1-.77,3.738C73.78-2.884,73.01-1.96,72.394-1.96ZM76.048.364c3.3-.434,5.222-2.38,5.222-5.292a5.033,5.033,0,0,0-5.32-5.1,5.92,5.92,0,0,0-6.076,5.642c0,2.282,1.246,3.71,2.478,3.71,1.288,0,2.394-1.47,3.248-4.312a29.3,29.3,0,0,0,.826-3.99,3.843,3.843,0,0,1,3.682,4.018,4.156,4.156,0,0,1-3.514,4.1,8.69,8.69,0,0,1-1.19.168ZM-46.844,19.992h-2.73V18.13h2.73Zm-2.73,3.822h2.73v1.722c-.938.14-1.876.28-2.73.392Zm2.73-.952h-2.73V20.916h2.73Zm1.988-4.732v-.966h-6.79v.966h1.092v7.938c-.5.07-.966.126-1.358.168l.182,1.05c1.33-.224,3.122-.49,4.886-.784v2.534h1.008V18.13Zm4.844.028-.2.042h-5v1.022h4.718a15.36,15.36,0,0,1-1.736,5.236,18.032,18.032,0,0,1-1.722-5.18l-.994.182a19.5,19.5,0,0,0,2.086,5.978,8.541,8.541,0,0,1-2.94,2.59,4,4,0,0,1,.686.84,9.991,9.991,0,0,0,2.856-2.492,8.758,8.758,0,0,0,2.786,2.534,4.339,4.339,0,0,1,.742-.854,7.776,7.776,0,0,1-2.884-2.6,17.026,17.026,0,0,0,2.268-7.1Zm14.126.476h-4.606v-1.12h4.606Zm0,1.89h-4.606V19.39h4.606Zm1.036-3.794H-31.5v4.592h6.65Zm-8.848-.392a10.731,10.731,0,0,1-2.968,2.856,4.538,4.538,0,0,1,.546.84A14,14,0,0,0-32.7,16.716Zm.252,3.052a13.139,13.139,0,0,1-3.444,3.78,6.52,6.52,0,0,1,.546.994,13.514,13.514,0,0,0,1.638-1.512v6.412h1.022V21.476a16,16,0,0,0,1.148-1.722Zm1.974,6.566a12.547,12.547,0,0,1,1.722,2.03l.8-.56A12.323,12.323,0,0,0-30.73,25.48Zm7.532-1.61h-2.086v-1.19h1.834v-.9h-8.162v.9h5.292v1.19h-5.614v.9h5.614V27.9c0,.182-.056.238-.28.252-.2.014-.9.014-1.68-.014a3.517,3.517,0,0,1,.336.952,7.17,7.17,0,0,0,2.128-.168c.406-.168.532-.434.532-.994V25.242h2.086Zm10.108,1.764c-.014-.672-.028-1.848-.042-2.646,1.05-.49,2.044-.9,2.828-1.2.364-.14.868-.336,1.218-.434l-.448-1.05c-.392.2-.728.364-1.148.546-.728.336-1.568.672-2.52,1.12a1.743,1.743,0,0,0-1.834-1.26A3.932,3.932,0,0,0-17.7,21.7a9.948,9.948,0,0,0,1.246-2.128,42.832,42.832,0,0,0,4.592-.392l.014-1.036a37.2,37.2,0,0,1-4.242.42c.2-.63.322-1.2.42-1.6l-1.148-.1a7.513,7.513,0,0,1-.35,1.722c-.322.014-.616.014-.91.014-.63,0-1.6-.056-2.338-.14v1.05c.756.056,1.694.084,2.282.084h.574a14.67,14.67,0,0,1-3.192,4.228l.952.714c.476-.56.868-1.078,1.26-1.456a3.69,3.69,0,0,1,2.394-1.022,1.172,1.172,0,0,1,1.246.854c-1.61.84-3.262,1.876-3.262,3.514,0,1.694,1.6,2.114,3.584,2.114a35.7,35.7,0,0,0,3.794-.224l.028-1.134a24.408,24.408,0,0,1-3.78.336c-1.428,0-2.506-.154-2.506-1.246,0-.91.9-1.624,2.184-2.324,0,.728-.014,1.624-.056,2.156ZM-3.7,16.338a16.833,16.833,0,0,1-3,5.684,9.489,9.489,0,0,1,.546,1.05A12.442,12.442,0,0,0-4.83,21.21v7.868h1.022V19.306a24.577,24.577,0,0,0,1.064-2.7Zm3.024,1.526H4.382v2.87H-.672ZM2.38,24.78H5.656V23.8H2.38V21.672H5.4V16.926h-7.07v4.746H1.358v5.684a3.776,3.776,0,0,1-2.03-2.408,17.053,17.053,0,0,0,.294-1.82l-.994-.1c-.238,2.338-.812,4.256-2.072,5.446a5.714,5.714,0,0,1,.84.63,7.383,7.383,0,0,0,1.568-2.828c1.078,2.03,2.758,2.478,4.942,2.478H6.132a4.5,4.5,0,0,1,.336-.98c-.49,0-2.114.014-2.492,0a8.383,8.383,0,0,1-1.6-.126ZM16.9,20.818H14.462V19.362H16.9Zm0,2.352H14.462V21.7H16.9Zm0,2.38H14.462V24.038H16.9Zm-3.444.91h7.784v-.91H17.892V24.038h2.73V23.17h-2.73V21.7H20.65v-.882H17.892V19.362H21v-.9H18.032c.294-.56.588-1.218.854-1.806l-1.106-.238A15.576,15.576,0,0,1,17,18.466H14.77a12.876,12.876,0,0,0,.938-1.862l-1.022-.28a10.922,10.922,0,0,1-3.262,4.48,7.154,7.154,0,0,1,.8.8,11.7,11.7,0,0,0,1.232-1.26ZM12,18.914a10.467,10.467,0,0,0-2.254-2.282l-.8.588a10.343,10.343,0,0,1,2.212,2.338Zm-.42,2.856H8.82v.98H10.6v3.584a23.043,23.043,0,0,1-1.932,1.61l.546.994c.686-.6,1.33-1.19,1.946-1.792A4.885,4.885,0,0,0,15.12,28.8c1.568.07,4.522.042,6.09-.028a3.811,3.811,0,0,1,.336-1.022c-1.68.112-4.9.154-6.44.084a4.052,4.052,0,0,1-3.528-1.568ZM29.96,24.724a1.333,1.333,0,0,1-1.414-1.372,1.408,1.408,0,0,1,1.4-1.456,1.23,1.23,0,0,1,1.232.854C31.3,24.066,30.772,24.724,29.96,24.724ZM32.1,19.712c2.03,0,3.29.028,4.074.07l.014-1.05c-.672,0-2.38-.014-4.06-.014h-.21c0-.364.014-.686.014-.9l.07-.868H30.73c.028.168.07.574.084.868.014.2.028.518.028.91-2.058.028-4.662.112-6.2.14l.028,1.092c1.736-.126,4.088-.224,6.188-.238.014.476.014.966.014,1.372a2.78,2.78,0,0,0-.924-.154,2.438,2.438,0,0,0-2.45,2.422,2.233,2.233,0,0,0,2.3,2.324,1.991,1.991,0,0,0,1.19-.35c-.574,1.232-1.862,1.988-3.682,2.408l.966.938c3.22-.966,4.13-3.052,4.13-4.928a3.385,3.385,0,0,0-.448-1.778c-.014-.63-.028-1.484-.028-2.268Zm13.244,7.826c-1.036,0-1.834-.392-1.834-1.078,0-.476.476-.854,1.106-.854a1.851,1.851,0,0,1,1.834,1.848A6.829,6.829,0,0,1,45.346,27.538ZM48.2,17.472a4.964,4.964,0,0,1-.756.112c-.728.07-4.018.168-4.732.168a7.872,7.872,0,0,1-.98-.042l.028,1.162a6.675,6.675,0,0,1,.938-.084c.714-.042,3.444-.168,4.172-.2-.686.616-2.408,2.072-3.178,2.716-.812.672-2.59,2.156-3.738,3.108l.812.826c1.764-1.792,3.024-2.758,5.306-2.758,1.75,0,3.122.994,3.122,2.352a2.418,2.418,0,0,1-1.722,2.352,2.738,2.738,0,0,0-2.856-2.45,1.97,1.97,0,0,0-2.142,1.82c0,1.148,1.162,1.988,3.052,1.988,2.926,0,4.788-1.456,4.788-3.7,0-1.876-1.666-3.276-3.976-3.276a5.891,5.891,0,0,0-1.876.294c1.064-.9,2.926-2.534,3.612-3.052.21-.154.518-.364.77-.532Z" transform="translate(640 1600)"/>
    <path id="パス_12348" data-name="パス 12348" d="M-56.228-58.271H-67.961l5.625-9.58h16.348V0H-56.228Zm29.575,23.906q0-16.216,7.559-25.884,6.768-8.745,16.392-8.745t16.392,8.745q7.559,9.668,7.559,26.323,0,16.611-7.559,26.279Q6.921,1.1-2.659,1.1T-19.094-7.646Q-26.653-17.314-26.653-34.365Zm10.063.044q0,11.294,3.911,18.765Q-8.767-8.218-2.7-8.218q6.021,0,9.976-7.339,3.955-7.295,3.955-18.413T7.273-52.427Q3.318-59.722-2.7-59.722q-5.977,0-9.932,7.295Q-16.589-45.176-16.589-34.321Zm45.483-.044q0-16.216,7.559-25.884,6.768-8.745,16.392-8.745t16.392,8.745q7.559,9.668,7.559,26.323,0,16.611-7.559,26.279Q62.468,1.1,52.888,1.1T36.453-7.646Q28.894-17.314,28.894-34.365Zm10.063.044q0,11.294,3.911,18.765,3.911,7.339,9.976,7.339,6.021,0,9.976-7.339,3.955-7.295,3.955-18.413T62.82-52.427q-3.955-7.295-9.976-7.295-5.977,0-9.932,7.295Q38.958-45.176,38.958-34.321Z" transform="translate(638 1554)" fill="#064a6f"/>
    <path id="パス_12349" data-name="パス 12349" d="M-14.294-19.938a5.625,5.625,0,0,1,1.843-4.184A6.114,6.114,0,0,1-8.118-25.9a5.994,5.994,0,0,1,4.35,1.793,5.722,5.722,0,0,1,1.826,4.25,5.74,5.74,0,0,1-1.826,4.267,6.082,6.082,0,0,1-4.4,1.776,5.912,5.912,0,0,1-4.333-1.81A5.92,5.92,0,0,1-14.294-19.938Zm2.889.05a3.206,3.206,0,0,0,.963,2.357,3.186,3.186,0,0,0,2.341.963,3.148,3.148,0,0,0,2.308-.963,3.167,3.167,0,0,0,.963-2.324,3.148,3.148,0,0,0-.963-2.308,3.167,3.167,0,0,0-2.324-.963,3.167,3.167,0,0,0-2.324.963A3.11,3.11,0,0,0-11.405-19.889ZM6.441-26.081l1.81,1.029L-6.425.415l-1.826-1.1ZM1.926-5.894a5.607,5.607,0,0,1,1.843-4.167A6.114,6.114,0,0,1,8.1-11.837a6.014,6.014,0,0,1,4.366,1.793,5.722,5.722,0,0,1,1.826,4.25,5.681,5.681,0,0,1-1.843,4.267,6.076,6.076,0,0,1-4.4,1.76A5.939,5.939,0,0,1,3.719-1.561,5.9,5.9,0,0,1,1.926-5.894Zm2.905.066A3.235,3.235,0,0,0,5.777-3.47a3.186,3.186,0,0,0,2.341.963,3.113,3.113,0,0,0,2.308-.963,3.167,3.167,0,0,0,.963-2.324,3.167,3.167,0,0,0-.963-2.324A3.132,3.132,0,0,0,8.1-9.081a3.148,3.148,0,0,0-2.308.963A3.129,3.129,0,0,0,4.831-5.827Z" transform="translate(737 1537)" fill="#064a6f"/>
    <g id="グループ_956" data-name="グループ 956">
      <path id="パス_12483" data-name="パス 12483" d="M-28.152,0h5.7V-1.176H-24.66c-.432,0-.984.036-1.44.084,1.872-1.788,3.228-3.552,3.228-5.256A2.5,2.5,0,0,0-25.536-9a3.429,3.429,0,0,0-2.688,1.32l.78.768A2.4,2.4,0,0,1-25.7-7.9a1.434,1.434,0,0,1,1.5,1.62c0,1.452-1.344,3.168-3.948,5.472ZM-17.22.156c1.728,0,2.856-1.536,2.856-4.608C-14.364-7.5-15.492-9-17.22-9s-2.856,1.488-2.856,4.548S-18.948.156-17.22.156Zm0-1.092c-.9,0-1.536-.96-1.536-3.516,0-2.532.636-3.456,1.536-3.456s1.536.924,1.536,3.456C-15.684-1.9-16.32-.936-17.22-.936ZM-11.568,0h5.04V-1.14H-8.256v-7.7H-9.3a5.194,5.194,0,0,1-1.92.684v.876h1.584V-1.14h-1.932ZM-2.76-6.1c0-1.152.6-1.836,1.356-1.836.96,0,1.62.792,1.752,2.532a2.1,2.1,0,0,1-1.68,1.08C-2.256-4.32-2.76-4.968-2.76-6.1ZM-1.644.156c1.7,0,3.288-1.392,3.288-4.872C1.644-7.644.276-9-1.416-9A2.7,2.7,0,0,0-4.044-6.1c0,1.848,1,2.772,2.472,2.772A2.655,2.655,0,0,0,.372-4.356C.288-1.836-.636-.972-1.7-.972a1.963,1.963,0,0,1-1.44-.66L-3.9-.78A3.031,3.031,0,0,0-1.644.156Zm8.76-2.94V-4.908H9.528v2.124Zm7.776,0H10.68V-4.908h3.348V-5.952H10.68V-7.608H14.3v-1.08H7.356c.156-.36.324-.756.468-1.128l-1.128-.3A9.709,9.709,0,0,1,4.08-6.048a8.874,8.874,0,0,1,.972.72A10.917,10.917,0,0,0,6.78-7.608H9.528v1.656H6v3.168H4.068V-1.7h5.46V.948H10.68V-1.7h4.212ZM19.2-7.944h8.784v-1H23.616v-1.128H22.452V-8.94h-4.32v3.384c0,1.74-.084,4.176-1.056,5.88a5.051,5.051,0,0,1,.912.612C19.032-.888,19.2-3.672,19.2-5.556Zm5.772,2.112v1.056H22.38V-5.832Zm1.092,1.92v-1.92H27.9v-.912H26.064v-.912H24.972v.912H22.38v-.912H21.324v.912H19.548v.912h1.776v1.92Zm-.5,1.524a5.531,5.531,0,0,1-1.776,1.3,5.162,5.162,0,0,1-1.74-1.3Zm.936-.936-.2.036H19.68v.9h1.836l-.54.2A6.388,6.388,0,0,0,22.632-.636,16.731,16.731,0,0,1,19.2.024a3.421,3.421,0,0,1,.468.936,15.753,15.753,0,0,0,4.08-.984,13.58,13.58,0,0,0,3.8,1A3.974,3.974,0,0,1,28.2.012a15.778,15.778,0,0,1-3.252-.636A5.788,5.788,0,0,0,27.18-2.952Z" transform="translate(748 1554.646)" fill="#064a6f"/>
      <g id="グループ_92" data-name="グループ 92" transform="translate(323.543 1298.988)">
        <path id="パス_119" data-name="パス 119" d="M194.4,187.33a7.379,7.379,0,1,1,2.858-10.035A7.378,7.378,0,0,1,194.4,187.33Z" transform="translate(0 -4.163)" fill="#064a6f"/>
        <path id="パス_120" data-name="パス 120" d="M229.8,167.478a5.953,5.953,0,1,1,2.272-8.107A5.954,5.954,0,0,1,229.8,167.478Z" transform="translate(-9.094)" fill="#064a6f"/>
        <path id="パス_121" data-name="パス 121" d="M225.162,205.056c-.142-1.882,2.981-17.829,2.981-17.829s-.667-2.351-2.045-6.574c-.319-.976-.552-1.755-.7-2.406l-2.561-.4a1.774,1.774,0,0,1-.248-.042l-6.482-1.091a2.068,2.068,0,0,1,.4-4.081s10.748-.185,10.832-.177a8.008,8.008,0,0,1,6.833,2.5c1.892,2.229,6.414,10.464,4.424,20.286l-.421,10.492a2.446,2.446,0,0,1-4.892.08l-.874-7.047-2.463,7.152a2.444,2.444,0,0,1-4.784-.867Z" transform="translate(-7.537 -3.898)" fill="#064a6f"/>
        <path id="パス_122" data-name="パス 122" d="M223.624,179.914a2.871,2.871,0,0,0-3.953-.929l-12.248,6.865a3.562,3.562,0,0,0-.679.322l-9.719,5.39c-3.185,1.762-5.214,4.229-3.213,9.1,1.006,2.432,4.116,9.555,6.56,16.165,1.232,3.3,2.305,6.463,3.031,8.8a28.119,28.119,0,0,1,.842,3.422c.411,2.086.71,4.326.961,6.587s.449,4.572.621,6.89c.455,6.187.736,6.921,1.021,13.212a3.744,3.744,0,0,0,7.486,0c.28-6.3.567-7.08.673-13.475.048-3.08.055-6.176-.056-9.332-.036-2.732-.348-5.387-.357-5.392s-.036-.445-.13-1.254c-.048-.407-.111-.9-.2-1.491-.045-.295-.1-.611-.163-.952l-.216-1.054c-.548-2.594-1.382-6.069-2.374-9.661-1.714-6.281-3.681-12.733-4.92-16.008l16.107-13.25A2.869,2.869,0,0,0,223.624,179.914Z" transform="translate(-2.325 -5.388)" fill="#064a6f"/>
      </g>
    </g>
  </g>
</svg>
