<svg xmlns="http://www.w3.org/2000/svg" width="320" height="263" viewBox="0 0 320 263">
  <g id="グループ_958" data-name="グループ 958" transform="translate(-120 -1347)">
    <rect id="長方形_135" data-name="長方形 135" width="320" height="263" transform="translate(120 1347)" fill="#fff"/>
    <path id="パス_12475" data-name="パス 12475" d="M31.54,8.664a9.381,9.381,0,0,1-2.2,4.634c-1.246-.56-2.52-1.064-3.7-1.47.434-.966.9-2.058,1.358-3.164Zm3.36,0V7.614H27.438c.448-1.092.868-2.156,1.232-3.122l-1.106-.2C27.2,5.3,26.752,6.452,26.276,7.614h-3.92v1.05h3.486c-.686,1.638-1.386,3.22-1.946,4.368l1.022.378c.1-.21.21-.448.322-.686,1.05.392,2.156.854,3.234,1.344a12.787,12.787,0,0,1-6.006,2.044,3.738,3.738,0,0,1,.546.98,12.893,12.893,0,0,0,6.58-2.478,25.845,25.845,0,0,1,4.186,2.52l.784-.952A26.149,26.149,0,0,0,30.42,13.8a10.957,10.957,0,0,0,2.268-5.138Zm3.066,2.128a15.613,15.613,0,0,0,.7-3.752l-.784-.112a14.146,14.146,0,0,1-.728,3.584Zm1.2,6.272h1.036V4.282H39.17ZM40.3,6.858a13.935,13.935,0,0,1,.966,2.38l.784-.378a13.221,13.221,0,0,0-1.022-2.338Zm6.146,8.736v-3.5h2.856v-.966H46.45V8.23h3.164V7.236H46.45v-2.9H45.414v2.9h-1.75c.2-.686.364-1.414.5-2.142L43.16,4.926a13.63,13.63,0,0,1-1.694,5,8.167,8.167,0,0,1,.924.476,10.1,10.1,0,0,0,.98-2.17h2.044v2.9H42.446v.966h2.968v3.5h-4v.994h8.54v-.994Zm9.184-1.554c-.6,0-1.414-.77-1.414-2.52A4.834,4.834,0,0,1,58.5,7.04a22.369,22.369,0,0,1-.77,3.738C57.02,13.116,56.25,14.04,55.634,14.04Zm3.654,2.324c3.3-.434,5.222-2.38,5.222-5.292a5.033,5.033,0,0,0-5.32-5.1,5.92,5.92,0,0,0-6.076,5.642c0,2.282,1.246,3.71,2.478,3.71,1.288,0,2.394-1.47,3.248-4.312a29.3,29.3,0,0,0,.826-3.99,3.843,3.843,0,0,1,3.682,4.018,4.156,4.156,0,0,1-3.514,4.1,8.69,8.69,0,0,1-1.19.168Zm20.888-9.38A8.074,8.074,0,0,0,78.524,4.7l-.8.406a7.834,7.834,0,0,1,1.582,2.31ZM74.352,6.06H71.608V4.282H70.572V6.06H67.744v.952h6.608ZM68.766,12.5a7.537,7.537,0,0,1-1.3,2.94,4.413,4.413,0,0,1,.8.6A9.535,9.535,0,0,0,69.718,12.7Zm.7-3.514h3.248v1.876H69.466Zm4.242,2.772V8.1H68.5v3.654h2.128v4.116c0,.154-.056.2-.224.21s-.714.014-1.344,0a3.755,3.755,0,0,1,.336.938,5.161,5.161,0,0,0,1.764-.168c.364-.168.448-.462.448-.966v-4.13Zm.462,2.968a10.335,10.335,0,0,0-1.008-2.352l-.826.294a11.975,11.975,0,0,1,.966,2.38ZM78.4,16a.634.634,0,0,1-.378-.1.277.277,0,0,1-.126-.266V9.644h-.7c.014-.238.042-.462.056-.686H80.3V7.964H77.278c.014-.266.014-.518.014-.77V4.282H76.284V7.208c0,.238,0,.49-.014.756H74.254v.994h1.974a10.625,10.625,0,0,1-3.192,7.532,4.176,4.176,0,0,1,.9.6,10.379,10.379,0,0,0,3.01-5.712v4.214c0,.714.07.938.308,1.148a1.669,1.669,0,0,0,.91.238h.882a2.07,2.07,0,0,0,.826-.154,1.044,1.044,0,0,0,.476-.644,11.787,11.787,0,0,0,.126-1.89,2.459,2.459,0,0,1-.8-.434,16.556,16.556,0,0,1-.042,1.694.532.532,0,0,1-.224.364.958.958,0,0,1-.434.084ZM91.166,7.656a12.8,12.8,0,0,1-.714,1.456l.14.042H87.3l.448-.1a5.44,5.44,0,0,0-.7-1.4Zm4.018,6.09v-.882H89.57V11.828h4.382v-.8H89.57V10.008h5.068V9.154H91.46c.28-.42.588-.966.868-1.5h2.8v-.9h-2.17A19.575,19.575,0,0,0,94.19,4.744l-1.064-.28a15.883,15.883,0,0,1-1.064,2.128l.518.168H90.886V4.282h-.98V6.76H88.24V4.282h-.966V6.76H85.552l.714-.266a9.65,9.65,0,0,0-1.19-2.058l-.882.294A10.913,10.913,0,0,1,85.3,6.76H83.074v.9H86.49l-.49.1a5.878,5.878,0,0,1,.686,1.4H83.634v.854h4.914V11.03H84.334v.8h4.214v1.036h-5.53v.882H87.6a13.493,13.493,0,0,1-4.942,2.212,4.458,4.458,0,0,1,.672.882,14.069,14.069,0,0,0,5.222-2.758v2.982H89.57V14.012a13.217,13.217,0,0,0,5.264,2.87,3.743,3.743,0,0,1,.7-.924,12.809,12.809,0,0,1-5-2.212Zm14.084-8.288a20.367,20.367,0,0,1-1.176,3.01l.728.266a26.915,26.915,0,0,0,1.358-2.954Zm-3,2.856a10.814,10.814,0,0,0-1.022-2.73l-.756.28a12.211,12.211,0,0,1,.952,2.758Zm.56,6.86h.938V11.408c.686.784,1.6,1.862,1.946,2.394l.63-.812c-.364-.42-1.96-2.058-2.576-2.618V9.924h2.59V8.986h-2.59V4.576h-.938v4.41h-2.464v.938h2.114a10.583,10.583,0,0,1-2.366,3.64,4.182,4.182,0,0,1,.49.966,11.711,11.711,0,0,0,2.226-3.444ZM98.488,12.22a10.933,10.933,0,0,1-.854,3.332,4.2,4.2,0,0,1,.756.364,12.73,12.73,0,0,0,.952-3.542Zm2.7.182a9.369,9.369,0,0,1,.644,2.534l.784-.224a10.184,10.184,0,0,0-.7-2.534Zm-.252-3.388c.2.378.392.8.56,1.218l-1.876.1a42.669,42.669,0,0,0,2.688-4.074l-.854-.378a28.617,28.617,0,0,1-1.414,2.52,11.432,11.432,0,0,0-.728-.882,30.366,30.366,0,0,0,1.568-2.884l-.9-.336a20.229,20.229,0,0,1-1.232,2.646c-.14-.14-.294-.294-.434-.42l-.56.644A12.148,12.148,0,0,1,99.51,9.21c-.28.434-.56.826-.826,1.176-.364.014-.714.028-1.022.042l.1.938c.63-.042,1.344-.084,2.114-.14v5.838h.91V11.17l1.036-.07a6.185,6.185,0,0,1,.238.9l.8-.336a11.7,11.7,0,0,0-1.19-2.926Zm9.688,6.426h-6.65V4.842h-.966V17.05h.966v-.672h6.65Zm10.668-7.7h-2.7v.882h6.5V7.74h-2.772V6.466h3.248V5.584h-3.248v-1.3h-1.022v1.3H118.1v.882h3.192Zm-7.686,4.48a10.933,10.933,0,0,1-.854,3.332,3.578,3.578,0,0,1,.77.378,12.817,12.817,0,0,0,.966-3.556Zm3.5-1.12a4.747,4.747,0,0,1,.294.9l.756-.35v.42h.882V10.414h5.628v1.652h.924V9.574h-7.434V11.38a13.271,13.271,0,0,0-1.274-2.632l-.77.308a13.336,13.336,0,0,1,.63,1.176l-2.016.1a46.457,46.457,0,0,0,2.814-4.046l-.882-.406a28.932,28.932,0,0,1-1.5,2.534,9.915,9.915,0,0,0-.756-.9,26.427,26.427,0,0,0,1.61-2.884l-.91-.336a20.225,20.225,0,0,1-1.246,2.632c-.14-.14-.28-.266-.42-.392l-.56.658a12.64,12.64,0,0,1,1.736,2.03c-.294.42-.588.812-.868,1.162l-.966.042.1.938,2.2-.14v5.838H116V11.17Zm.882,3.612a10.3,10.3,0,0,0-.742-2.52l-.77.224a9.761,9.761,0,0,1,.7,2.534Zm1.946-2.408a4.237,4.237,0,0,1-2.758,4.074,5.119,5.119,0,0,1,.742.7,4.9,4.9,0,0,0,2.968-4.76V11.45h-.952Zm3.836,3.78c-.28,0-.322-.056-.322-.406V11.436H122.5v4.242c0,1.008.224,1.288,1.148,1.288h1.12c.784,0,1.036-.448,1.106-2.2a2.234,2.234,0,0,1-.84-.406c-.028,1.5-.1,1.722-.378,1.722Zm14.14-9.436a5.564,5.564,0,0,1-.994.658c-.756.434-2.254,1.162-3.556,1.946a31.852,31.852,0,0,1-1.862-4.1l-1.106.448a45.949,45.949,0,0,0,2.016,4.27c-1.484,1.036-2.394,2.17-2.394,3.6,0,2.072,1.89,2.856,4.494,2.856a27.209,27.209,0,0,0,4.382-.336v-1.26a20.421,20.421,0,0,1-4.438.476c-2.184,0-3.276-.714-3.276-1.862,0-1.05.77-1.96,2.058-2.8a46.7,46.7,0,0,1,4.214-2.282c.406-.21.756-.392,1.064-.588Zm9.156-.742a25.583,25.583,0,0,0-2.618-1.442l-.574.742c.854.462,2.016,1.134,2.59,1.54Zm-.714,3.78c-.616-.392-1.778-1.008-2.59-1.414l-.574.756c.854.448,2,1.12,2.576,1.512Zm-1.96,7.2a50.788,50.788,0,0,0,2.534-4.494l-.756-.686a40.43,40.43,0,0,1-2.646,4.48ZM154,15.51h-4.984V12.626H154Zm1.9-6.146V8.356h-3.836V5.934a22.609,22.609,0,0,0,3.248-.784l-.826-.812a34.429,34.429,0,0,1-6.776,1.246,4.965,4.965,0,0,1,.28.882c.994-.1,2.058-.224,3.08-.378V8.356H147.04V9.364h4.032v2.3h-3.01v5.4h.952v-.588H154v.518h.994V11.66h-2.926v-2.3Zm9.044,5.334h2.086V15.79h-2.086Zm2.086-2.534h-2.086V11.156h2.086Zm0,1.792h-2.086v-1.05h2.086Zm-7.28-8.106h2.114V8.384h-2.114Zm11.3,9.94h-3.108V14.7h2.408v-.742h-2.408v-1.05h2.408v-.742h-2.408V11.156h2.8v-.84h-2.6c.2-.336.392-.7.574-1.05l-.756-.21h2.674V4.828h-3.374V5.6h2.464V6.55h-2.24v.77h2.24v.966h-2.478v.77h.5c-.14.364-.364.84-.574,1.26h-1.946a10.948,10.948,0,0,0,.532-1.078l-.63-.182h1.582V4.828h-3.29V5.6h2.366V6.55h-2.17v.77h2.17v.966h-2.408v.77h1.358a10.079,10.079,0,0,1-1.75,2.884v-.63H161.4V9.266h1.372v-4.3h-3.892v4.3h1.638v5.7l-.854.2V10.582h-.812v4.774l-.686.154.2.966c1.372-.35,3.22-.84,4.97-1.3l-.1-.91c-.616.168-1.232.322-1.834.476V12.206h1.344c-.1.1-.2.2-.294.28a4.4,4.4,0,0,1,.686.658,7.918,7.918,0,0,0,.854-.938v4.858h.952v-.42h6.1Zm6.65-5.376-1.344.392V8.048h1.358V7.1h-1.358V4.3h-1.008V7.1h-1.876v.952h1.876V11.1c-.8.238-1.54.448-2.114.588l.238,1.008,1.876-.574V15.8c0,.21-.056.266-.238.266s-.756.014-1.386-.014a4.24,4.24,0,0,1,.308.994,4.688,4.688,0,0,0,1.848-.182c.35-.182.476-.476.476-1.064v-3.99l1.47-.462Zm2.17,3.024h2.282v1.946H179.87Zm2.282-3.71H179.87V7.852h2.282Zm0,2.8H179.87v-1.9h2.282Zm4.046,2.856H183.1V13.438h2.52v-.91H183.1v-1.9h2.52v-.9H183.1V7.852h2.856V6.914h-2.786c.336-.714.714-1.568,1.022-2.338L183.1,4.324a19.529,19.529,0,0,1-.952,2.59H180.01a19.571,19.571,0,0,0,.9-2.394l-.994-.252a12.359,12.359,0,0,1-2.772,5.166,7.609,7.609,0,0,1,.7.868,10.16,10.16,0,0,0,1.036-1.33V17.05h.994v-.714H186.2Zm10.5-6.566h-2.436V7.362H196.7Zm0,2.352h-2.436V9.7H196.7Zm0,2.38h-2.436V12.038H196.7Zm-3.444.91h7.784v-.91h-3.346V12.038h2.73V11.17h-2.73V9.7h2.758V8.818h-2.758V7.362H200.8v-.9h-2.968c.294-.56.588-1.218.854-1.806l-1.106-.238a15.578,15.578,0,0,1-.784,2.044H194.57a12.874,12.874,0,0,0,.938-1.862l-1.022-.28a10.922,10.922,0,0,1-3.262,4.48,7.154,7.154,0,0,1,.8.8,11.7,11.7,0,0,0,1.232-1.26ZM191.8,6.914a10.467,10.467,0,0,0-2.254-2.282l-.8.588a10.343,10.343,0,0,1,2.212,2.338Zm-.42,2.856H188.62v.98H190.4v3.584a23.042,23.042,0,0,1-1.932,1.61l.546.994c.686-.6,1.33-1.19,1.946-1.792A4.885,4.885,0,0,0,194.92,16.8c1.568.07,4.522.042,6.09-.028a3.812,3.812,0,0,1,.336-1.022c-1.68.112-4.9.154-6.44.084a4.052,4.052,0,0,1-3.528-1.568ZM205.546,5.4a8.293,8.293,0,0,1-.1.98,38.508,38.508,0,0,0-.616,5.558,17.364,17.364,0,0,0,.5,4.452l1.008-.07-.042-.49a3.459,3.459,0,0,1,.07-.616,30.106,30.106,0,0,1,.98-3.108l-.6-.448c-.224.546-.532,1.358-.77,1.988a14.476,14.476,0,0,1-.112-1.9,31.9,31.9,0,0,1,.672-5.306c.056-.252.182-.7.266-.938Zm3.416,6.72a8.035,8.035,0,0,0-.224,1.638c0,1.3,1.036,2.072,3.36,2.072a18.424,18.424,0,0,0,3.458-.28l-.014-1.176a15.071,15.071,0,0,1-3.43.364c-1.9,0-2.324-.616-2.324-1.246a5.149,5.149,0,0,1,.182-1.274Zm.476-4.41a35.022,35.022,0,0,0,5.684,0V6.564a24.234,24.234,0,0,1-5.7,0Zm17.472,2.772v2.73H223.4v-2.73Zm.966,3.668V9.546h-5.432v5.6h.952v-.994ZM230.8,6.69h-6.244c.35-.672.714-1.47,1.022-2.212l-1.274-.224a15.7,15.7,0,0,1-.9,2.436h-3.822V17.064h1.022V7.7h9.156v7.98c0,.266-.084.336-.336.35-.294.014-1.26.014-2.268-.028a4.4,4.4,0,0,1,.378,1.064,10.009,10.009,0,0,0,2.618-.182c.49-.168.644-.518.644-1.2Zm4.788-1.484a5.763,5.763,0,0,1-.07.924A37.464,37.464,0,0,0,235,11.66a15.338,15.338,0,0,0,.728,4.4l.952-.112-.042-.476a3.606,3.606,0,0,1,.07-.616,30.732,30.732,0,0,1,.9-3.052l-.616-.378c-.252.686-.532,1.512-.728,2.1a18.889,18.889,0,0,1,.392-7.294c.07-.266.168-.644.252-.9ZM246.132,7.7a16.453,16.453,0,0,1-2.254.322c-.014-.868-.028-1.778-.014-2.086s.014-.574.042-.812h-1.3a8.081,8.081,0,0,1,.126.826c.028.35.056,1.274.084,2.142-.588.028-1.176.042-1.75.042a15.438,15.438,0,0,1-2.226-.154V9.1c.6.056,1.582.1,2.24.1.574,0,1.176-.014,1.764-.042V9.56c0,2.674-.07,4.228-1.554,5.516a4.67,4.67,0,0,1-1.358.868l1.022.812c2.94-1.736,2.94-3.99,2.94-7.182V9.1a21.766,21.766,0,0,0,2.24-.252Zm3.514-.994.126,1.232c1.5-.308,5.278-.672,6.5-.812a5.585,5.585,0,0,0-2.576,4.676c0,3.094,2.926,4.466,5.488,4.564l.406-1.162c-2.254-.084-4.774-.938-4.774-3.654a4.83,4.83,0,0,1,3.164-4.368,11.55,11.55,0,0,1,2.716-.224V5.836c-.924.042-2.226.112-3.738.238-2.548.21-5.166.476-6.076.56C250.612,6.662,250.178,6.69,249.646,6.7ZM87.946,35.082A9.146,9.146,0,0,0,86.462,32.8l-.714.378a9.69,9.69,0,0,1,1.442,2.31Zm-9.6.728H76.8V33.822h1.54ZM76.8,41.788v-2.24h1.54v1.946Zm1.54-3.108H76.8v-2h1.54ZM79.9,33.822v.658h4.368v-.8H82.486V32.31h-.924v1.372H79.91v-.8H75.276v.938h.644v8.134q-.483.1-.882.168l.182.952c.9-.182,2-.42,3.122-.672v2.66h.882V33.822Zm3.276,2.87c.182-.5.42-1.288.644-1.96l-.854-.182a17.413,17.413,0,0,1-.476,1.96Zm-.056,2.492v1.2H81.072v-1.2ZM81.072,42.39V41.144h2.044V42.39Zm2.884.784V38.4H80.232v5.656h.84v-.882Zm-3.64-8.442a7.354,7.354,0,0,1,.42,1.974l.77-.182a6.682,6.682,0,0,0-.476-1.946Zm6.342,3.542a12.209,12.209,0,0,1-.784,2.254c-.1-.868-.168-1.862-.224-2.968h2.282v-.854H85.608c-.056-1.358-.084-2.856-.084-4.4H84.6c.014,1.554.042,3.038.1,4.4H79.49v.854h5.25a39.236,39.236,0,0,0,.406,4.284,8.524,8.524,0,0,1-2.534,2.52,4.881,4.881,0,0,1,.644.7,9.8,9.8,0,0,0,2.128-2.044c.322,1.26.8,2,1.456,2.016.448.014.938-.56,1.19-2.744a2.606,2.606,0,0,1-.686-.546c-.084,1.316-.266,2.1-.476,2.1-.322-.014-.588-.7-.784-1.862A13.513,13.513,0,0,0,87.54,38.47Zm14.42-3.682H96.6V33.486h4.48Zm0,1.848H96.6V35.32h4.48Zm.966-3.738h-6.4v4.522h6.4Zm-7.588,6.874-1.428.644V36.286H94.54v-.98H93.028V32.394h-.966v2.912H90.424v.98h1.638v4.382c-.714.322-1.372.6-1.9.826l.406,1.022c1.176-.56,2.7-1.3,4.116-2.016Zm8.582-.686v-.882H94.274v.882h1.96a7.928,7.928,0,0,1-2.772,2.8,4.564,4.564,0,0,1,.714.644,9.6,9.6,0,0,0,1.82-1.6H97.41a9.239,9.239,0,0,1-3.15,3.136,2.753,2.753,0,0,1,.686.644,10.573,10.573,0,0,0,3.4-3.78h1.358a8.235,8.235,0,0,1-2.73,3.78,3.173,3.173,0,0,1,.742.6,9.74,9.74,0,0,0,2.856-4.382h1.092c-.182,2.2-.392,3.08-.63,3.332-.1.14-.224.154-.42.154s-.672-.014-1.19-.056a1.766,1.766,0,0,1,.238.84c.56.028,1.078.028,1.386.014a1.136,1.136,0,0,0,.784-.35c.392-.406.616-1.5.826-4.382a4,4,0,0,0,.042-.42h-6.02a8.75,8.75,0,0,0,.6-.98Zm13.58-4.018H115.26V33.514h1.358Zm-2.1,0h-1.33V33.514h1.33Zm-2.072,0h-1.288V33.514h1.288Zm5.068-2.128H110.29v2.884h7.224ZM109.926,40.7l-1.82.518V38.2h1.456v-.91h-1.456V34.2h1.666v-.938h-4.34V34.2h1.736v3.094h-1.582v.91h1.582V41.48c-.7.2-1.358.378-1.89.5l.252.98c1.274-.364,2.94-.854,4.508-1.344Zm1.512-1.876h4.788v1.414h-4.788Zm5.642,2.338a16.68,16.68,0,0,1-1.834,1.232,5.706,5.706,0,0,1-.9-1.358h2.856v-3h-6.692v3h2.52a13.524,13.524,0,0,1-4.382,2.464,4.447,4.447,0,0,1,.616.742,15.51,15.51,0,0,0,3.192-1.722v2.548h.994V41.732c.084-.07.168-.154.252-.224a6.776,6.776,0,0,0,3.78,3.556,4.048,4.048,0,0,1,.672-.826,6.157,6.157,0,0,1-2.394-1.316,14.957,14.957,0,0,0,2.058-1.218Zm-7.434-4.76v.868h8.54V36.4Zm20.986-2.17a16.2,16.2,0,0,1-.672,1.5l.434.112h-2.968l.574-.154a5.645,5.645,0,0,0-.6-1.456Zm-5.754,5.628c-.546.252-1.092.5-1.624.742V36.664H124.7v.042h8.568v-.868H130.9c.238-.392.49-.924.756-1.428l-.77-.182h2.058v-.854h-3.486V32.31h-1.008v1.064h-3.29v.854h2l-.658.168a7.036,7.036,0,0,1,.546,1.442h-2.324v-.154h-1.47V32.436h-.966v3.248h-1.624v.98h1.624v4.368c-.714.308-1.358.588-1.89.784l.378,1.036,4.326-2.058Zm1.792.014h4.788v1.036H126.67Zm0-1.722h4.788v1.036H126.67Zm4.284,5.936c-.336,0-.392-.056-.392-.364V41.634h1.918V37.42h-6.79v4.214h1.4c-.308,1.3-1.064,2.114-3.332,2.576a3.388,3.388,0,0,1,.588.868c2.52-.616,3.416-1.722,3.766-3.444h1.456v2.1c0,.966.238,1.232,1.26,1.232h1.358c.826,0,1.092-.364,1.19-1.918a2.731,2.731,0,0,1-.882-.364c-.028,1.232-.1,1.4-.42,1.4Zm12.334-1.974c-.014-.672-.028-1.848-.042-2.646,1.05-.49,2.044-.9,2.828-1.2.364-.14.868-.336,1.218-.434l-.448-1.05c-.392.2-.728.364-1.148.546-.728.336-1.568.672-2.52,1.12a1.743,1.743,0,0,0-1.834-1.26,3.932,3.932,0,0,0-1.918.518,9.948,9.948,0,0,0,1.246-2.128,42.831,42.831,0,0,0,4.592-.392l.014-1.036a37.2,37.2,0,0,1-4.242.42c.2-.63.322-1.2.42-1.6l-1.148-.1a7.513,7.513,0,0,1-.35,1.722c-.322.014-.616.014-.91.014-.63,0-1.6-.056-2.338-.14v1.05c.756.056,1.694.084,2.282.084h.574a14.669,14.669,0,0,1-3.192,4.228l.952.714c.476-.56.868-1.078,1.26-1.456a3.69,3.69,0,0,1,2.394-1.022,1.172,1.172,0,0,1,1.246.854c-1.61.84-3.262,1.876-3.262,3.514,0,1.694,1.6,2.114,3.584,2.114a35.7,35.7,0,0,0,3.794-.224l.028-1.134a24.408,24.408,0,0,1-3.78.336c-1.428,0-2.506-.154-2.506-1.246,0-.91.9-1.624,2.184-2.324,0,.728-.014,1.624-.056,2.156Zm12.18-2.422c-.238-.378-1.274-1.932-1.666-2.45v-.966h1.6v-.966h-1.6V32.282h-.952v3.024h-1.96v.966h1.848a15.2,15.2,0,0,1-2.128,5.25,5.808,5.808,0,0,1,.532.9,14.618,14.618,0,0,0,1.708-3.906V45.05h.952V38.47c.406.686.9,1.54,1.092,1.988Zm4.354,2.282V40.948H161.8V41.97Zm-2.8-1.022h1.848V41.97h-1.848Zm1.848-1.708v.966h-1.848V39.24Zm2.926,0v.966h-1.974V39.24Zm-3.542-3.346h2.254v.938h-2.254Zm0-1.68h2.254v.91h-2.254Zm5.4,7.756h-.9V38.456h-2.94V37.63H163.5v-.8h-2.016v-.938h1.526v-.77h-1.526v-.91h1.736V33.43h-1.736V32.282h-.98V33.43h-2.254V32.282H157.3V33.43h-1.61v.784h1.61v.91h-1.33v.77h1.33v.938H155.37v.8h3.5v.826h-2.8V41.97h-.952v.812h.952v2.24h.952v-2.24H161.8v1.176c0,.168-.056.224-.224.238-.2,0-.8.014-1.47-.014a4.007,4.007,0,0,1,.294.84,6.341,6.341,0,0,0,1.89-.14c.378-.154.476-.42.476-.91v-1.19h.9Zm4.8-7.756A8.381,8.381,0,0,1,169.1,35.6l.854-.252a5.865,5.865,0,0,0-.546-1.134h2.632a6.828,6.828,0,0,1-.938.868,7.894,7.894,0,0,1,.9.518,8.815,8.815,0,0,0,1.288-1.386H174.4a7.87,7.87,0,0,1,.91,1.414l.882-.308a6.3,6.3,0,0,0-.714-1.106H178.6V33.36H173.85c.154-.294.308-.588.434-.9l-.994-.238a6.769,6.769,0,0,1-1.232,1.974v-.84h-3.682q.231-.441.42-.882l-.966-.252a7.7,7.7,0,0,1-2,2.856,6.312,6.312,0,0,1,.84.574,9.746,9.746,0,0,0,1.19-1.442Zm-2.352,5.614c1.372-.238,3.248-.532,5.068-.84l-.042-.812c-.672.112-1.344.21-1.988.308V36.762h1.974v-.756h-4.9v.756h1.974v1.876c-.84.126-1.624.238-2.24.322ZM178.47,41.69v-.854h-5.74V39.772h-.98a2.963,2.963,0,0,0,1.134-2.436V36.65h2.968v2.044c0,.742.056.966.252,1.148a1.177,1.177,0,0,0,.77.238h.644a1.269,1.269,0,0,0,.63-.126.737.737,0,0,0,.392-.448,5.383,5.383,0,0,0,.14-1.316,1.819,1.819,0,0,1-.714-.364c-.014.518-.028.91-.056,1.078s-.084.266-.154.294a.537.537,0,0,1-.28.042h-.364a.418.418,0,0,1-.224-.042c-.07-.056-.07-.21-.07-.462V35.908h-4.9v1.386c0,.9-.322,1.834-2.184,2.52a3.627,3.627,0,0,1,.672.714,4.889,4.889,0,0,0,1.33-.742v1.05h-5.684v.854h4.8a13.462,13.462,0,0,1-5.1,2.184,3.493,3.493,0,0,1,.658.84,13.546,13.546,0,0,0,5.32-2.674v3h.994V42.054a13.7,13.7,0,0,0,5.334,2.618,4.589,4.589,0,0,1,.672-.882,13.841,13.841,0,0,1-5.194-2.1Zm-5.4-3.906a10.177,10.177,0,0,1,1.918,1.512l.616-.63a9.345,9.345,0,0,0-1.946-1.428Zm14.014,2.94a1.333,1.333,0,0,1-1.414-1.372,1.408,1.408,0,0,1,1.4-1.456,1.23,1.23,0,0,1,1.232.854C188.424,40.066,187.892,40.724,187.08,40.724Zm2.142-5.012c2.03,0,3.29.028,4.074.07l.014-1.05c-.672,0-2.38-.014-4.06-.014h-.21c0-.364.014-.686.014-.9l.07-.868H187.85c.028.168.07.574.084.868.014.2.028.518.028.91-2.058.028-4.662.112-6.2.14l.028,1.092c1.736-.126,4.088-.224,6.188-.238.014.476.014.966.014,1.372a2.78,2.78,0,0,0-.924-.154,2.438,2.438,0,0,0-2.45,2.422,2.233,2.233,0,0,0,2.3,2.324,1.991,1.991,0,0,0,1.19-.35c-.574,1.232-1.862,1.988-3.682,2.408l.966.938c3.22-.966,4.13-3.052,4.13-4.928a3.385,3.385,0,0,0-.448-1.778c-.014-.63-.028-1.484-.028-2.268Zm13.244,7.826c-1.036,0-1.834-.392-1.834-1.078,0-.476.476-.854,1.106-.854a1.851,1.851,0,0,1,1.834,1.848A6.829,6.829,0,0,1,202.466,43.538Zm2.856-10.066a4.964,4.964,0,0,1-.756.112c-.728.07-4.018.168-4.732.168a7.872,7.872,0,0,1-.98-.042l.028,1.162a6.675,6.675,0,0,1,.938-.084c.714-.042,3.444-.168,4.172-.2-.686.616-2.408,2.072-3.178,2.716-.812.672-2.59,2.156-3.738,3.108l.812.826c1.764-1.792,3.024-2.758,5.306-2.758,1.75,0,3.122.994,3.122,2.352a2.418,2.418,0,0,1-1.722,2.352,2.737,2.737,0,0,0-2.856-2.45,1.97,1.97,0,0,0-2.142,1.82c0,1.148,1.162,1.988,3.052,1.988,2.926,0,4.788-1.456,4.788-3.7,0-1.876-1.666-3.276-3.976-3.276a5.891,5.891,0,0,0-1.876.294c1.064-.9,2.926-2.534,3.612-3.052.21-.154.518-.364.77-.532Z" transform="translate(142 1545)"/>
    <g id="グループ_137" data-name="グループ 137" transform="translate(209.862 1402.689)">
      <path id="パス_149" data-name="パス 149" d="M14,278.616a17.732,17.732,0,0,1-5.22-12.571V247.751H0v18.294a26.6,26.6,0,0,0,26.575,26.578h12v-8.784h-12A17.711,17.711,0,0,1,14,278.616Z" transform="translate(0 -196.294)" fill="#1778b1"/>
      <path id="パス_150" data-name="パス 150" d="M58.369,109.952A11.591,11.591,0,1,0,46.777,98.36,11.583,11.583,0,0,0,58.369,109.952Z" transform="translate(-32.929 -82.971)" fill="#1778b1"/>
      <path id="パス_151" data-name="パス 151" d="M86.573,213.942H70.312v-24.2a11.34,11.34,0,1,0-22.679,0v27.576a11.339,11.339,0,0,0,11.338,11.341c.851,0,20.731-.058,20.731-.058L80.79,245.38a6.227,6.227,0,1,0,12.45-.274L93.9,221.27A7.324,7.324,0,0,0,86.573,213.942Z" transform="translate(-33.531 -147.47)" fill="#1778b1"/>
      <path id="パス_152" data-name="パス 152" d="M411.5,247.751v18.294a17.828,17.828,0,0,1-17.791,17.794h-12v8.784h12a26.6,26.6,0,0,0,26.572-26.578V247.751Z" transform="translate(-268.701 -196.294)" fill="#1778b1"/>
      <path id="パス_153" data-name="パス 153" d="M354.356,217.313V189.737a11.341,11.341,0,1,0-22.682,0v24.2H315.413a7.324,7.324,0,0,0-7.327,7.327l.661,23.836a6.227,6.227,0,1,0,12.45.274l1.088-16.782s19.88.058,20.731.058A11.341,11.341,0,0,0,354.356,217.313Z" transform="translate(-216.877 -147.47)" fill="#1778b1"/>
      <rect id="長方形_139" data-name="長方形 139" width="62.877" height="10.701" transform="translate(45.488 51.567)" fill="#1778b1"/>
      <rect id="長方形_140" data-name="長方形 140" width="7.317" height="25.903" transform="translate(72.25 68.013)" fill="#1778b1"/>
      <path id="パス_154" data-name="パス 154" d="M457.268,90.275c-1.121,8.207,6.522,9.1,8.7,6.811-2.275-.454-3.017-5.294-1.88-8.479s2.125-9.405-.851-12.225c-3.809-3.614-9.766-3.246-12.345,1.3.758.911,2.447,1.871,3.337,2.883C456.66,79.657,457.995,84.949,457.268,90.275Z" transform="translate(-317.408 -73.939)" fill="#1778b1"/>
      <path id="パス_155" data-name="パス 155" d="M396.081,109.759a11.6,11.6,0,1,0-9.714-13.223A11.607,11.607,0,0,0,396.081,109.759Z" transform="translate(-271.888 -82.913)" fill="#1778b1"/>
    </g>
  </g>
</svg>
