<svg xmlns="http://www.w3.org/2000/svg" xmlns:xlink="http://www.w3.org/1999/xlink" width="320" height="324" viewBox="0 0 320 324">
  <defs>
    <clipPath id="clip-path">
      <rect id="長方形_148" data-name="長方形 148" width="111" height="190" transform="translate(954.621 2897.719)" fill="#fff" stroke="#707070" stroke-width="1"/>
    </clipPath>
  </defs>
  <g id="グループ_598" data-name="グループ 598" transform="translate(-840 -2913)">
    <g id="グループ_965" data-name="グループ 965">
      <rect id="長方形_147" data-name="長方形 147" width="320" height="324" transform="translate(840 2913)" fill="#f7f7f7"/>
      <path id="パス_12499" data-name="パス 12499" d="M-48.72-7.546h2.464v.98H-48.72Zm0-2.254h2.464v.966H-48.72Zm6.65.966h-2.506V-9.8h2.506Zm0,2.268h-2.506v-.98h2.506Zm-2.87,2.338c.056-.322.112-.63.154-.966h4.466v-5.978H-50.386v5.978h3.85c-.042.336-.1.658-.154.966h-4.634v1.5h4.088c-.658,1.12-1.96,1.946-4.69,2.478A4.468,4.468,0,0,1-51.058,1.2c3.528-.77,5.012-2.128,5.712-3.934h3.682c-.154,1.386-.364,2.086-.616,2.3a.92.92,0,0,1-.616.14c-.378,0-1.26-.014-2.128-.084a3.3,3.3,0,0,1,.546,1.526c.882.014,1.736.028,2.226-.014A1.958,1.958,0,0,0-40.866.588c.448-.448.728-1.6.952-4.144.028-.224.056-.672.056-.672ZM-27.076-.812v-2.8h2.562V-5.166h-2.562v-2.3h2.856V-9.03h-2.856v-2.744h-1.666V-9.03h-1.12c.14-.63.252-1.288.35-1.946l-1.624-.224a16.944,16.944,0,0,1-.742,3.416,16.052,16.052,0,0,0-.77-1.764l-.812.336v-2.646h-1.666V-9L-36.3-9.17a16.639,16.639,0,0,1-.686,3.64l1.232.448a17.841,17.841,0,0,0,.63-3.71V1.218h1.666V-8.344a9.735,9.735,0,0,1,.532,1.61l.8-.364c-.14.294-.28.56-.42.812a14.722,14.722,0,0,1,1.484.756,9.563,9.563,0,0,0,.784-1.932h1.54v2.3h-2.7v1.554h2.7v2.8H-32.48V.77h8.708V-.812ZM-18.3-2.52c-.518,0-1.078-.686-1.078-2.086a4.347,4.347,0,0,1,3.514-4.018,22.254,22.254,0,0,1-.742,3.36C-17.164-3.388-17.724-2.52-18.3-2.52ZM-14.49.574C-10.99.042-9.2-2.03-9.2-4.942a5.291,5.291,0,0,0-5.6-5.418,6.183,6.183,0,0,0-6.384,5.936c0,2.338,1.3,4.032,2.828,4.032S-15.638-2.1-14.812-4.9a30.13,30.13,0,0,0,.826-3.766A3.432,3.432,0,0,1-11.088-5a3.753,3.753,0,0,1-3.15,3.71c-.364.084-.756.154-1.288.224ZM-2.646-2.142v-.672H2.66v.672ZM2.66-4.62v.672H-2.646V-4.62ZM4.354-5.964H-4.312V1.218h1.666V-.994H2.66V-.35c0,.2-.07.266-.322.266C2.128-.07,1.232-.07.56-.112a6.608,6.608,0,0,1,.49,1.33,8.741,8.741,0,0,0,2.534-.21c.574-.21.77-.56.77-1.344ZM2.142-9.212l-.672.406c.294.21.6.448.91.7-1.47.028-2.926.042-4.284.07.322-.378.658-.784.966-1.176Zm4.046,0v-1.456H.84v-1.19H-.868v1.19H-6.216v1.456h3.178c-.224.392-.476.812-.742,1.19l-1.946.028.042,1.5c2.45-.056,6.1-.154,9.59-.28a9.331,9.331,0,0,1,.84.9l1.47-.938a18.614,18.614,0,0,0-2.8-2.394Zm6.1,5.5C12.082-1.946,11.676-.8,8.526-.182a4.981,4.981,0,0,1,.938,1.5C13.132.42,13.818-1.246,14.1-3.71Zm3.682-.028v2.87c0,1.512.392,2.03,2,2.03h1.708c1.33,0,1.764-.56,1.946-2.758a5.069,5.069,0,0,1-1.54-.658c-.056,1.61-.126,1.848-.574,1.848H18.228c-.476,0-.546-.07-.546-.49V-3.738Zm-5.936-7.728v7.6h1.624v-7.6Zm3.262.182v7.2h7.042v-7.2Zm1.61,1.428h3.738v1.5H14.91Zm0,2.814h3.738v1.526H14.91Zm21.7.2V-8.47H32.956v-3.164H31.3V-8.47H27.748v1.624h2.9a13.283,13.283,0,0,1-3.458,5.068V-8.3a22.09,22.09,0,0,0,1.442-2.954l-1.652-.532a14.363,14.363,0,0,1-3.542,5.376,12.089,12.089,0,0,1,.966,1.75,12.689,12.689,0,0,0,1.148-1.26V1.19h1.638v-2.8A9.233,9.233,0,0,1,28.322-.378,14.226,14.226,0,0,0,31.3-4.62V1.218h1.652V-4.9A14.311,14.311,0,0,0,35.784-.448a5.934,5.934,0,0,1,1.246-1.33,13.694,13.694,0,0,1-3.346-5.068ZM47.082-8.218c-.154.378-.322.784-.49,1.12H43.974l.238-.042a6.9,6.9,0,0,0-.476-1.078ZM51.6-1.974V-3.346H46.158v-.616h4.2v-1.2h-4.2V-5.8h4.858V-7.1H48.272c.21-.336.434-.714.658-1.12h2.632V-9.576h-1.82c.322-.49.7-1.12,1.092-1.764l-1.75-.42A11.277,11.277,0,0,1,48.2-9.73l.5.154H47.46v-2.282H45.892v2.282H44.856v-2.282H43.3v2.282H42.028l.686-.252A10.594,10.594,0,0,0,41.65-11.8l-1.428.49a12.549,12.549,0,0,1,.868,1.736H39.214v1.358H42.14l-.168.028A6.291,6.291,0,0,1,42.448-7.1h-2.66v1.3H44.52v.63H40.488v1.2H44.52v.616H39.172v1.372H43.19A14.708,14.708,0,0,1,38.766-.336,7.766,7.766,0,0,1,39.83,1.05a13.28,13.28,0,0,0,4.69-2.268V1.218h1.638V-1.3a11.95,11.95,0,0,0,4.7,2.366,7.831,7.831,0,0,1,1.12-1.512,12.507,12.507,0,0,1-4.438-1.526Z" transform="translate(1001 2951.646)"/>
      <path id="パス_12502" data-name="パス 12502" d="M-113.365-2.03V-3.108h6.23V-2.03Zm6.23-2.926v1.078h-6.23V-4.956Zm1.05-.868H-114.4V1.064h1.036v-2.31h6.23v1.2c0,.2-.07.252-.28.266-.238,0-1.05,0-1.862-.014a4.008,4.008,0,0,1,.336.854A9.024,9.024,0,0,0-106.659.91c.434-.126.574-.392.574-.952Zm-1.778-3.6-.784.518c.49.322,1.022.714,1.526,1.106-1.96.042-3.934.084-5.656.112.462-.546.952-1.162,1.372-1.736Zm3.7-.924h-5.614v-1.372h-1.05v1.372h-5.558v.924h3.654a17.381,17.381,0,0,1-1.176,1.75l-1.932.028.042.966c2.45-.042,6.174-.14,9.688-.28a10.149,10.149,0,0,1,.952.938l.868-.616a20.532,20.532,0,0,0-3.528-2.786h3.654Zm6.482,6.72c-.252,1.974-.924,3.206-3.934,3.85a3.265,3.265,0,0,1,.616.91c3.29-.8,4.116-2.324,4.424-4.76Zm3.668,0V-.434c0,1.12.336,1.442,1.61,1.442h2.086c1.12,0,1.428-.5,1.554-2.576a3.161,3.161,0,0,1-.966-.42c-.056,1.75-.154,2.016-.686,2.016h-1.876c-.56,0-.658-.07-.658-.462V-3.626Zm-6.1-7.7v7.5h1.008v-7.5Zm3.15.238v7.07h6.9v-7.07Zm.994.924h4.858v2.17h-4.858Zm0,3.024h4.858v2.2h-4.858Zm13.062-4.48a14.387,14.387,0,0,1-3.794,5.614,5.958,5.958,0,0,1,.63,1.05A14.2,14.2,0,0,0-84.427-6.8V1.05h1.022V-8.3a20.8,20.8,0,0,0,1.526-3Zm9.17,4.466V-8.162h-4.046v-3.36h-1.022v3.36h-3.934v1.008h3.388a14.222,14.222,0,0,1-3.878,5.726,6.04,6.04,0,0,1,.784.8,15.632,15.632,0,0,0,3.64-5.39v7.1h1.022V-6.314A17,17,0,0,0-74.165-.686a3.729,3.729,0,0,1,.784-.84,14.772,14.772,0,0,1-3.808-5.628Zm10.906-1.19a12.8,12.8,0,0,1-.714,1.456l.14.042H-66.7l.448-.1a5.44,5.44,0,0,0-.7-1.4Zm4.018,6.09v-.882h-5.614V-4.172h4.382v-.8h-4.382V-5.992h5.068v-.854h-3.178c.28-.42.588-.966.868-1.5h2.8v-.9h-2.17a19.576,19.576,0,0,0,1.232-2.016l-1.064-.28a15.883,15.883,0,0,1-1.064,2.128l.518.168h-1.694v-2.478h-.98V-9.24h-1.666v-2.478h-.966V-9.24h-1.722l.714-.266a9.65,9.65,0,0,0-1.19-2.058l-.882.294a10.913,10.913,0,0,1,1.106,2.03h-2.226v.9h3.416l-.49.1a5.878,5.878,0,0,1,.686,1.4h-3.052v.854h4.914V-4.97h-4.214v.8h4.214v1.036h-5.53v.882h4.578A13.493,13.493,0,0,1-71.351-.042a4.458,4.458,0,0,1,.672.882,14.069,14.069,0,0,0,5.222-2.758V1.064h1.022V-1.988A13.217,13.217,0,0,0-59.171.882a3.743,3.743,0,0,1,.7-.924,12.809,12.809,0,0,1-5-2.212Zm4.4-8.5a6.114,6.114,0,0,1-.1.98,43.2,43.2,0,0,0-.63,5.824,16.752,16.752,0,0,0,.532,4.4l.994-.084c-.014-.14-.042-.336-.042-.476a2.379,2.379,0,0,1,.07-.616,29.931,29.931,0,0,1,.98-3.066l-.588-.462c-.238.56-.56,1.386-.784,2.016a12.249,12.249,0,0,1-.126-1.89,34.048,34.048,0,0,1,.686-5.586,6.566,6.566,0,0,1,.238-.938Zm7.07,8.6c0,.924-.336,1.5-1.512,1.5-.994,0-1.666-.392-1.666-1.078,0-.644.714-1.106,1.75-1.106a4.335,4.335,0,0,1,1.414.224C-47.355-2.45-47.355-2.282-47.355-2.156Zm3.78.686a9.453,9.453,0,0,0-2.73-1.806c-.056-1.162-.154-2.548-.168-3.934.826-.056,1.638-.14,2.394-.266V-8.568a17.66,17.66,0,0,1-2.394.322c.014-.644.028-1.288.042-1.666a7.854,7.854,0,0,1,.084-.826h-1.274a5.666,5.666,0,0,1,.07.84v1.722c-.434.014-.868.028-1.3.028a21.674,21.674,0,0,1-2.352-.126V-7.21c.812.042,1.54.084,2.324.084.448,0,.882-.014,1.33-.028.014,1.148.1,2.478.14,3.542A6.184,6.184,0,0,0-48.7-3.738c-1.82,0-2.856.952-2.856,2.114,0,1.232,1.022,2,2.884,2A2.1,2.1,0,0,0-46.263-1.89v-.252A10.521,10.521,0,0,1-44.177-.56Zm12.558-.812h-1.022V-8.19h-.882v5.908h-.756v.868H-28.3v-.868h-1.82V-5.936h1.68V-6.8h-1.68v-3.4a15.07,15.07,0,0,0,1.708-.588l-.77-.728a19.281,19.281,0,0,1-4.4,1.2,3.437,3.437,0,0,1,.308.756c.728-.112,1.5-.252,2.254-.42Zm-6.16-8.946h-3.29v.84h3.29Zm.364,1.834H-41.1v.854h4.284Zm-.336,1.89h-3.374v.826h3.374Zm-3.374,2.688h3.374v-.84h-3.374Zm2.534,4.228h-1.75V-2.926h1.75Zm4-6.3-.168.042h-1.106c.5-1.358,1.008-2.828,1.33-3.892l-.644-.154-.154.056h-2.016v.91h1.638c-.42,1.26-1.05,3.024-1.582,4.368l.868.168.238-.616h1.2a13.484,13.484,0,0,1-.784,3.5,8.622,8.622,0,0,1-.686-2.212l-.784.252a9.766,9.766,0,0,0,1.008,2.954A5.251,5.251,0,0,1-37.135.252V-3.78h-3.43V.91h.826V.252h2.6l-.084.056a3.618,3.618,0,0,1,.616.784A6.012,6.012,0,0,0-35.035-.672,4.745,4.745,0,0,0-31.227.658h2.758a3.606,3.606,0,0,1,.336-.966c-.49.028-2.674.028-3.038.028a4.011,4.011,0,0,1-3.4-1.288,15.863,15.863,0,0,0,1.12-5.18Zm14.98,6.51V-3.934h4.494V-4.942h-4.494V-7.994h5.012V-9.016h-5.012V-11.7h-1.064v2.688h-2.842a19.217,19.217,0,0,0,.784-2.24l-1.05-.224a12.763,12.763,0,0,1-2.59,5.152,6.044,6.044,0,0,1,.938.616,11.875,11.875,0,0,0,1.47-2.282h3.29v3.052h-4.158v1.008h4.158V-.378h-5.67V.63h12.4V-.378Zm12.4-10.64a16.291,16.291,0,0,1-.35,3.01c-.84.07-1.652.14-2.114.154a12.054,12.054,0,0,1-1.232,0l.112,1.218c.364-.056.924-.126,1.246-.168.364-.042,1.036-.112,1.75-.182A21.721,21.721,0,0,1-10.1-.112L-8.953.35A27.817,27.817,0,0,0-6.041-7.1c.6-.056,1.148-.1,1.484-.1.882,0,1.456.224,1.456,1.484A11.916,11.916,0,0,1-3.745-1.47a1.166,1.166,0,0,1-1.218.714,6.824,6.824,0,0,1-1.694-.308L-6.475.112a8.291,8.291,0,0,0,1.624.21A1.951,1.951,0,0,0-2.821-.84a13.324,13.324,0,0,0,.812-5c0-1.876-1.022-2.352-2.254-2.352-.336,0-.91.042-1.554.084.154-.742.28-1.554.35-1.96.056-.266.112-.56.168-.812Zm5.04,2.058A16.668,16.668,0,0,1,.917-3.934l1.092-.518A24.351,24.351,0,0,0-.525-9.408ZM8.1-9.87c1.064.294,4.074.91,5.39,1.092l.266-1.092a37.068,37.068,0,0,1-5.362-1.064ZM8.085-8.414l-1.19-.154a49.041,49.041,0,0,1-.7,5.628l1.05.252a2.9,2.9,0,0,1,.42-.7,5.385,5.385,0,0,1,4.284-1.834c1.414,0,2.436.77,2.436,1.876,0,1.89-2.142,3.15-6.51,2.618L8.211.42c5.152.434,7.35-1.246,7.35-3.738,0-1.624-1.414-2.9-3.542-2.9A6.563,6.563,0,0,0,7.539-4.55C7.665-5.446,7.9-7.462,8.085-8.414ZM22.491.182a2.987,2.987,0,0,0,3.29-2.926,2.639,2.639,0,0,0-2.184-2.6V-5.4a2.558,2.558,0,0,0,1.834-2.478c0-1.652-1.26-2.576-2.982-2.576a4.109,4.109,0,0,0-2.87,1.232l.686.812a3.2,3.2,0,0,1,2.128-1.022,1.6,1.6,0,0,1,1.736,1.652c0,1.106-.728,1.96-2.842,1.96v.98c2.366,0,3.192.826,3.192,2.058a1.89,1.89,0,0,1-2.086,1.9,3.393,3.393,0,0,1-2.548-1.176l-.644.84A4.248,4.248,0,0,0,22.491.182Zm8.918-3.458a6.955,6.955,0,0,1-1.12,2.408,4.317,4.317,0,0,1,.672.448,9.106,9.106,0,0,0,1.26-2.674Zm4.158-.672V-4.76H30.933v.812h1.89V-.1c0,.126-.028.154-.168.168s-.518.014-1.008,0A2.911,2.911,0,0,1,31.941.9,3.3,3.3,0,0,0,33.327.728C33.635.588,33.7.35,33.7-.1v-3.85Zm.378,2.772a8.821,8.821,0,0,0-1.05-2.086l-.7.266A9.411,9.411,0,0,1,35.217-.868Zm2.03-6.748-.448.35a12.1,12.1,0,0,1,1.288.938H36.827c-.056-.42-.084-.854-.112-1.288Zm1.176,2.716a9.617,9.617,0,0,1-1.33,2.716,16.12,16.12,0,0,1-.882-3.3h3.808v-.84H39.711l.14-.14A9.133,9.133,0,0,0,38.3-7.924h2.52v-.868H35.385V-9.94h4.1v-.784h-4.1v-.98H34.363v2.912H31.815v-2.282h-.98v2.282h-2.24v.868h7.182c.014.434.056.868.112,1.288h-6.51V-4.3A8.206,8.206,0,0,1,28.2.49a4.748,4.748,0,0,1,.784.616,9.451,9.451,0,0,0,1.358-5.39V-5.8H36a17.914,17.914,0,0,0,1.176,4.144A10.12,10.12,0,0,1,34.643.364a4.877,4.877,0,0,1,.7.728A10.388,10.388,0,0,0,37.625-.77c.658,1.176,1.428,1.89,2.17,1.89.84,0,1.19-.56,1.344-2.506a2.465,2.465,0,0,1-.784-.448C40.3-.42,40.159.182,39.865.182c-.476,0-1.064-.63-1.61-1.708a11.474,11.474,0,0,0,1.834-3.486Zm6.16-5.39a8.292,8.292,0,0,1-.1.98A38.508,38.508,0,0,0,44.6-4.06,17.364,17.364,0,0,0,45.1.392l1.008-.07-.042-.49a3.46,3.46,0,0,1,.07-.616,30.1,30.1,0,0,1,.98-3.108l-.6-.448c-.224.546-.532,1.358-.77,1.988a14.476,14.476,0,0,1-.112-1.9A31.9,31.9,0,0,1,46.3-9.562c.056-.252.182-.7.266-.938Zm3.416,6.72A8.035,8.035,0,0,0,48.5-2.24c0,1.3,1.036,2.072,3.36,2.072a18.424,18.424,0,0,0,3.458-.28l-.014-1.176a15.071,15.071,0,0,1-3.43.364c-1.9,0-2.324-.616-2.324-1.246a5.148,5.148,0,0,1,.182-1.274Zm.476-4.41a35.022,35.022,0,0,0,5.684,0V-9.436a24.235,24.235,0,0,1-5.7,0Zm21.714.952a20.968,20.968,0,0,0-3.248-1.848l-.546.868a16.652,16.652,0,0,1,3.164,1.9Zm-5.04-2.1a14.178,14.178,0,0,1-2.156.5c.224-.8.406-1.638.546-2.142l-1.246-.112a11.363,11.363,0,0,1-.434,2.394c-.532.042-1.05.07-1.54.07a13.059,13.059,0,0,1-1.708-.1l.084,1.05c.518.028,1.092.042,1.61.042q.609,0,1.218-.042a19.887,19.887,0,0,1-2.968,5.18l1.092.56A24.912,24.912,0,0,0,63.4-7.9a16.494,16.494,0,0,0,2.506-.5Zm.728,7.742c0,.686-.378,1.316-1.512,1.316-1.078,0-1.6-.434-1.6-1.078s.672-1.092,1.694-1.092a5.049,5.049,0,0,1,1.4.2C66.605-2.1,66.605-1.876,66.605-1.694Zm-.2-5.1c.028.966.1,2.324.14,3.458a6.561,6.561,0,0,0-1.316-.126c-1.568,0-2.772.826-2.772,2.1,0,1.372,1.246,2,2.772,2,1.708,0,2.436-.91,2.436-2.016,0-.154,0-.35-.014-.56A9.645,9.645,0,0,1,69.881-.35l.6-.952a9.357,9.357,0,0,0-2.87-1.736c-.028-.84-.084-1.75-.1-2.254a13.485,13.485,0,0,1,.014-1.5ZM80.031-.462C78.995-.462,78.2-.854,78.2-1.54c0-.476.476-.854,1.106-.854A1.851,1.851,0,0,1,81.137-.546,6.829,6.829,0,0,1,80.031-.462Zm2.856-10.066a4.964,4.964,0,0,1-.756.112c-.728.07-4.018.168-4.732.168a7.872,7.872,0,0,1-.98-.042l.028,1.162a6.675,6.675,0,0,1,.938-.084c.714-.042,3.444-.168,4.172-.2-.686.616-2.408,2.072-3.178,2.716-.812.672-2.59,2.156-3.738,3.108l.812.826c1.764-1.792,3.024-2.758,5.306-2.758,1.75,0,3.122.994,3.122,2.352A2.418,2.418,0,0,1,82.159-.812,2.737,2.737,0,0,0,79.3-3.262a1.97,1.97,0,0,0-2.142,1.82c0,1.148,1.162,1.988,3.052,1.988C83.139.546,85-.91,85-3.15c0-1.876-1.666-3.276-3.976-3.276a5.891,5.891,0,0,0-1.876.294c1.064-.9,2.926-2.534,3.612-3.052.21-.154.518-.364.77-.532Zm12.292,8.9c0,.952-.672,1.19-1.47,1.19-1.372,0-1.918-.476-1.918-1.12s.714-1.134,2.03-1.134a7.058,7.058,0,0,1,1.344.126C95.165-2.184,95.179-1.862,95.179-1.624Zm5.054.476A11.381,11.381,0,0,0,96.2-3.3c-.028-.658-.07-1.386-.1-2.1,1.316-.056,2.548-.154,3.85-.322l-.014-1.05a37.4,37.4,0,0,1-3.85.364V-8.4c1.3-.07,2.492-.182,3.584-.294l-.014-1.022A30.828,30.828,0,0,1,96.1-9.38c0-.336,0-.6.014-.77a7.135,7.135,0,0,1,.07-.924H95a7.76,7.76,0,0,1,.042.826v.91h-.714A22.1,22.1,0,0,1,91.077-9.6v1.036c.826.1,2.3.21,3.262.21h.686V-6.37h-.742A24.665,24.665,0,0,1,90.8-6.636v1.064c.994.112,2.534.2,3.486.2h.77c.014.574.042,1.232.07,1.848a7.827,7.827,0,0,0-1.162-.084c-2,0-3.22.854-3.22,2.114C90.741-.154,91.847.56,93.835.56c1.806,0,2.45-.994,2.45-1.946,0-.21-.014-.518-.028-.868A10.3,10.3,0,0,1,99.6-.168Zm13.3-6.118-.714.308a13,13,0,0,1,1.148,1.974l.714-.336A16.617,16.617,0,0,0,113.533-7.266Zm1.526-.588-.7.322a12.469,12.469,0,0,1,1.19,1.946l.728-.336A21.147,21.147,0,0,0,115.059-7.854ZM104.447-9.212l.126,1.232c1.5-.308,5.278-.672,6.5-.812a5.6,5.6,0,0,0-2.576,4.676c0,3.094,2.926,4.466,5.488,4.578l.406-1.176c-2.254-.084-4.774-.938-4.774-3.64a4.848,4.848,0,0,1,3.164-4.382,11.488,11.488,0,0,1,2.716-.224v-1.12c-.924.042-2.226.112-3.738.238-2.548.224-5.166.476-6.076.56C105.413-9.254,104.979-9.226,104.447-9.212Z" transform="translate(1000 3208)"/>
      <path id="パス_12355" data-name="パス 12355" d="M-28.455-58.271H-40.188l5.625-9.58h16.348V0H-28.455ZM1.121-34.365q0-16.216,7.559-25.884,6.768-8.745,16.392-8.745t16.392,8.745q7.559,9.668,7.559,26.323,0,16.611-7.559,26.279Q34.695,1.1,25.115,1.1T8.679-7.646Q1.121-17.314,1.121-34.365Zm10.063.044q0,11.294,3.911,18.765,3.911,7.339,9.976,7.339,6.021,0,9.976-7.339Q39-22.852,39-33.97T35.046-52.427q-3.955-7.295-9.976-7.295-5.977,0-9.932,7.295Q11.184-45.176,11.184-34.321Z" transform="translate(1035 3165)" fill="#1778b1"/>
      <path id="パス_12500" data-name="パス 12500" d="M10.514-9.562h-7v-.966h7Zm0,1.68h-7v-.98h7Zm1.022-3.388h-9v4.13h9ZM11.4-3.794A6.641,6.641,0,0,1,9.884-1.736,6.623,6.623,0,0,1,8.512-3.794ZM3.024-2H5.558v.854c-.868.1-1.736.182-2.534.266Zm0-1.764H5.558v.98H3.024ZM5.558-5.488v.938H3.024v-.938Zm6.482.84-.182.028H7.042v.826h1.2l-.6.182a8.066,8.066,0,0,0,1.54,2.464A8.485,8.485,0,0,1,6.552.182v-5.67H13.1v-.868H.868v.868h1.2v4.7c-.49.056-.938.1-1.33.126l.1.924c1.3-.154,3.01-.35,4.718-.56V1.064h.994V.2A3.418,3.418,0,0,1,7.1.98,9.69,9.69,0,0,0,9.884-.49,8.022,8.022,0,0,0,12.81,1.05a3.431,3.431,0,0,1,.63-.812,7.568,7.568,0,0,1-2.828-1.344A8,8,0,0,0,12.67-4.4Zm9.142,1.2c-.168-.2-.616-.658-1.064-1.12.378-.392.826-.938,1.26-1.428l-.686-.56a12.172,12.172,0,0,1-1.05,1.5l-.518-.518A15.008,15.008,0,0,0,20.93-8.806l-.588-.406-.182.056H18.97V-11.7H17.948v2.548H15.932V-8.2h3.71a13.95,13.95,0,0,1-4.1,4.914,4.1,4.1,0,0,1,.574.9,13.783,13.783,0,0,0,1.834-1.722v5.18H18.97v-5.67c.56.644,1.274,1.512,1.582,1.946Zm7.042-6.986H20.916v.98h2.366c-.07,3.654-.294,7.7-3.388,9.744a3.859,3.859,0,0,1,.8.784C23.9-1.19,24.234-5.5,24.346-9.45h2.828c-.14,6.314-.322,8.638-.742,9.128a.554.554,0,0,1-.546.238c-.308,0-1.064,0-1.89-.07A2.618,2.618,0,0,1,24.332.91a15.506,15.506,0,0,0,1.988,0A1.3,1.3,0,0,0,27.384.294c.532-.7.672-3.052.84-10.15ZM42.952-4.9a5.073,5.073,0,0,0-5.362-5.152,5.967,5.967,0,0,0-6.118,5.7c0,2.31,1.246,3.738,2.492,3.738,1.3,0,2.408-1.47,3.262-4.354A27.54,27.54,0,0,0,38.066-9,3.9,3.9,0,0,1,41.8-4.942,4.228,4.228,0,0,1,38.248-.784a10.575,10.575,0,0,1-1.2.182L37.7.434C41.02,0,42.952-1.96,42.952-4.9Zm-10.388.448A4.883,4.883,0,0,1,36.9-8.988a22.874,22.874,0,0,1-.784,3.78c-.714,2.366-1.456,3.3-2.114,3.3C33.376-1.9,32.564-2.688,32.564-4.452Z" transform="translate(998 3079)" fill="#1778b1"/>
      <path id="パス_12501" data-name="パス 12501" d="M3.57-1.022V-4.928h6.944v3.906ZM10.514-9.73v3.78H3.57V-9.73ZM2.52-10.752V.91H3.57V0h6.944V.854h1.092V-10.752Zm23.058,5.8H19.74V-6.37h5.838ZM19.74-2.59V-4.06h5.838v1.47Zm8.5-6.342v-.98H21.112c.21-.5.378-1.036.546-1.554l-1.036-.252a18.33,18.33,0,0,1-.616,1.806H16.058v.98h3.514a11.7,11.7,0,0,1-3.85,4.662,5.08,5.08,0,0,1,.672.8,11.545,11.545,0,0,0,2.324-2.2V1.064H19.74V-1.694h5.838V-.238c0,.21-.084.28-.322.294S24.164.07,23.24.028a3.976,3.976,0,0,1,.336,1.022A8.584,8.584,0,0,0,26.012.868C26.46.7,26.6.392,26.6-.238v-7.07H19.852c.308-.518.588-1.078.854-1.624ZM31.556-3.78a10.061,10.061,0,0,1-.91,3.332,3.637,3.637,0,0,1,.812.392,12.321,12.321,0,0,0,.994-3.556Zm2.884.154a13.728,13.728,0,0,1,.854,2.562l.8-.266a12.979,12.979,0,0,0-.9-2.548ZM34.076-6.9a10.674,10.674,0,0,1,.658,1.26l-2.072.084A48.035,48.035,0,0,0,35.448-9.73l-.882-.392a28.514,28.514,0,0,1-1.414,2.506,11.243,11.243,0,0,0-.812-.91c.518-.784,1.106-1.89,1.582-2.814l-.91-.364a17.7,17.7,0,0,1-1.26,2.6c-.14-.126-.266-.252-.406-.364l-.532.686A13.04,13.04,0,0,1,32.62-6.8c-.308.462-.63.91-.924,1.288l-.924.042.084.924c.644-.042,1.4-.084,2.2-.126V1.092h.924V-4.732l1.106-.07a6.514,6.514,0,0,1,.252.812l.784-.35A11.085,11.085,0,0,0,34.8-7.2Zm7.63,3.332v2.9H37.688v-2.9Zm-4.97,4.62h.952v-.8h4.018V.994H42.7v-5.5H36.736Zm.588-8.19v.966h4.634V-7.14Zm1.652-4.438a14.025,14.025,0,0,1-3.738,4.536,3.841,3.841,0,0,1,.616.882,15.9,15.9,0,0,0,3.682-4.354,19.811,19.811,0,0,0,3.752,4.27,7.561,7.561,0,0,1,.644-.952A16.959,16.959,0,0,1,40-11.578Z" transform="translate(1088 3164)" fill="#1778b1"/>
      <g id="マスクグループ_1" data-name="マスクグループ 1" transform="translate(-84.621 80.281)" clip-path="url(#clip-path)">
        <g id="グループ_146" data-name="グループ 146" transform="translate(964.143 2903.755)">
          <path id="パス_119" data-name="パス 119" d="M203.6,198.929a13.568,13.568,0,1,1,5.256-18.454A13.567,13.567,0,0,1,203.6,198.929Z" transform="translate(-183.427 -149.588)" fill="#1778b1"/>
          <path id="パス_120" data-name="パス 120" d="M237.247,176.826a10.948,10.948,0,1,1,4.178-14.907A10.948,10.948,0,0,1,237.247,176.826Z" transform="translate(-168.69 -156.334)" fill="#1778b1"/>
          <path id="パス_121" data-name="パス 121" d="M234.1,232.444c-.26-3.46,5.481-32.786,5.481-32.786s-1.226-4.324-3.761-12.088c-.586-1.8-1.015-3.227-1.291-4.424l-4.71-.73a3.258,3.258,0,0,1-.456-.077l-11.919-2.006a3.8,3.8,0,0,1,.741-7.5s19.765-.34,19.918-.326c0,0,7.671-1.167,12.566,4.6,3.48,4.1,11.794,19.242,8.135,37.3L258.03,233.7a4.5,4.5,0,0,1-9,.148l-1.607-12.959L242.9,234.038a4.494,4.494,0,0,1-8.8-1.594Z" transform="translate(-171.214 -150.018)" fill="#1778b1"/>
          <path id="パス_122" data-name="パス 122" d="M249.3,181.056a5.278,5.278,0,0,0-7.27-1.709l-22.523,12.624a6.549,6.549,0,0,0-1.249.592l-17.872,9.912c-5.856,3.24-9.588,7.777-5.908,16.728,1.85,4.471,7.569,17.571,12.063,29.726,2.266,6.07,4.239,11.885,5.573,16.178a51.7,51.7,0,0,1,1.549,6.293c.755,3.836,1.305,7.955,1.768,12.112s.826,8.406,1.142,12.669c.837,11.376,1.354,12.727,1.878,24.3a6.885,6.885,0,0,0,13.767,0c.515-11.592,1.042-13.018,1.237-24.778.088-5.664.1-11.357-.1-17.161-.065-5.024-.641-9.905-.656-9.915s-.067-.818-.24-2.307c-.089-.748-.2-1.662-.373-2.741-.084-.542-.181-1.124-.3-1.751l-.4-1.938c-1.007-4.769-2.541-11.16-4.366-17.766-3.152-11.55-6.77-23.414-9.047-29.437l29.618-24.364A5.275,5.275,0,0,0,249.3,181.056Z" transform="translate(-179.66 -147.603)" fill="#1778b1"/>
        </g>
      </g>
    </g>
  </g>
</svg>
