<svg xmlns="http://www.w3.org/2000/svg" width="127.062" height="24.752" viewBox="0 0 127.062 24.752">
  <path id="パス_68" data-name="パス 68" d="M8.112,0a9.418,9.418,0,0,0,6.656-2.626A8,8,0,0,0,17.03-8.632a8.466,8.466,0,0,0-2.418-6.318,9.673,9.673,0,0,0-6.89-2.392H1.82V0ZM6.318-13.52H7.41A5.052,5.052,0,0,1,11-12.428a5.184,5.184,0,0,1,1.352,3.8A4.724,4.724,0,0,1,11.024-5.07a5.179,5.179,0,0,1-3.8,1.248h-.91Zm15.782,1.9V0h4.16V-11.622Zm-.26-4.836a2.33,2.33,0,0,0,2.34,2.34,2.33,2.33,0,0,0,2.34-2.34,2.33,2.33,0,0,0-2.34-2.34A2.33,2.33,0,0,0,21.84-16.458Zm8.424,4.836L36.27,0H39.1l6.058-11.622H40.534L37.7-5.668l-2.782-5.954Zm30.6,6.136a6.507,6.507,0,0,0-1.846-4.888,6.367,6.367,0,0,0-4.472-1.586,6.544,6.544,0,0,0-4.758,1.69,6.2,6.2,0,0,0-1.742,4.5,6.087,6.087,0,0,0,1.716,4.394A6.591,6.591,0,0,0,54.574.39a6.316,6.316,0,0,0,4.732-1.612,5.224,5.224,0,0,0,1.4-2.392H56.732a1.936,1.936,0,0,1-.728.78,3.282,3.282,0,0,1-1.352.312,2.337,2.337,0,0,1-1.716-.572,2.936,2.936,0,0,1-.728-1.95h8.658Zm-8.528-1.95a2.372,2.372,0,0,1,.624-1.248,2.235,2.235,0,0,1,1.69-.624,2.424,2.424,0,0,1,1.716.624,2.789,2.789,0,0,1,.676,1.248ZM65.858,0h4.16V-4.966a3.507,3.507,0,0,1,.936-2.652,2.726,2.726,0,0,1,1.9-.624,3.67,3.67,0,0,1,1.794.416v-3.926c-.546-.026-.728-.052-.832-.052a4.538,4.538,0,0,0-2.158.468,3.75,3.75,0,0,0-1.638,1.612v-1.9h-4.16ZM78.364-.962A8.574,8.574,0,0,0,83.044.39a6.043,6.043,0,0,0,4.29-1.456A3.884,3.884,0,0,0,88.5-3.952a3.287,3.287,0,0,0-.884-2.314,4.911,4.911,0,0,0-1.716-.91l-.754-.208c-.65-.182-.988-.182-1.378-.338a.677.677,0,0,1-.494-.65.623.623,0,0,1,.364-.572,1.757,1.757,0,0,1,.962-.234,5.757,5.757,0,0,1,2.184.572l1.4-2.652a9.592,9.592,0,0,0-3.718-.754,5.868,5.868,0,0,0-4.16,1.4,4.153,4.153,0,0,0-1.092,2.834,2.811,2.811,0,0,0,.754,2A3.739,3.739,0,0,0,82-4.758L83.1-4.5a2.594,2.594,0,0,1,1.092.416.617.617,0,0,1,.208.52.667.667,0,0,1-.208.546,1.764,1.764,0,0,1-1.066.312A5.414,5.414,0,0,1,81.51-2.99a5.952,5.952,0,0,1-1.664-.858Zm14.872-10.66V0H97.4V-11.622Zm-.26-4.836a2.33,2.33,0,0,0,2.34,2.34,2.33,2.33,0,0,0,2.34-2.34,2.33,2.33,0,0,0-2.34-2.34A2.33,2.33,0,0,0,92.976-16.458ZM109.8-8.216v-3.406h-2.366v-3.822h-4.16v3.822h-1.326v3.406h1.326V0h4.16V-8.216Zm5.1,14.17h4.654l9.334-17.576h-4.758l-3.016,5.954-3.094-5.954h-4.836l5.616,10.036Z" transform="translate(-1.82 18.798)" fill="#fff"/>
</svg>
