<svg xmlns="http://www.w3.org/2000/svg" width="259.688" height="19.63" viewBox="0 0 259.688 19.63">
  <path id="パス_70" data-name="パス 70" d="M0-17.342,5.174,0H9.75l3.328-10.036L16.224,0h4.6l5.538-17.342H21.658L18.382-6.136,14.976-17.342H11.388L7.722-6.136,4.706-17.342ZM36.27-8.476a2.862,2.862,0,0,1,1.846.754,2.823,2.823,0,0,1,.806,1.9,2.564,2.564,0,0,1-.806,1.846,2.644,2.644,0,0,1-1.846.78,2.658,2.658,0,0,1-1.872-.78,2.686,2.686,0,0,1-.806-1.846,2.681,2.681,0,0,1,.806-1.9A2.875,2.875,0,0,1,36.27-8.476Zm6.968,2.652a5.744,5.744,0,0,0-1.794-4.264,7.342,7.342,0,0,0-5.2-1.924,7.257,7.257,0,0,0-5.174,1.924,5.744,5.744,0,0,0-1.794,4.264,5.8,5.8,0,0,0,1.794,4.29A6.968,6.968,0,0,0,36.244.39a6.973,6.973,0,0,0,5.2-1.924A5.8,5.8,0,0,0,43.238-5.824ZM48.23,0h4.16V-4.966a3.507,3.507,0,0,1,.936-2.652,2.726,2.726,0,0,1,1.9-.624,3.67,3.67,0,0,1,1.794.416v-3.926c-.546-.026-.728-.052-.832-.052a4.538,4.538,0,0,0-2.158.468A3.75,3.75,0,0,0,52.39-9.724v-1.9H48.23ZM61.464-18.954V0h4.16V-4.758L69.862,0h5.772L69.706-6.266l5.486-5.356H69.55L65.624-7.436V-18.954Zm27.274,1.612V0h9.906V-3.822H93.236v-13.52Zm14.43,5.72V0h4.16V-11.622Zm-.26-4.836a2.33,2.33,0,0,0,2.34,2.34,2.33,2.33,0,0,0,2.34-2.34,2.33,2.33,0,0,0-2.34-2.34A2.33,2.33,0,0,0,102.908-16.458Zm17.238,8.242v-3.406h-2.912V-13.26a3.076,3.076,0,0,1,.468-1.95,1.5,1.5,0,0,1,1.17-.442,2.61,2.61,0,0,1,1.3.39V-18.85a5.28,5.28,0,0,0-2-.39,4.837,4.837,0,0,0-4.03,1.846,5.978,5.978,0,0,0-1.066,3.822v1.95h-1.456v3.406h1.456V0h4.16V-8.216Zm16.51,2.73a6.507,6.507,0,0,0-1.846-4.888,6.367,6.367,0,0,0-4.472-1.586,6.544,6.544,0,0,0-4.758,1.69,6.2,6.2,0,0,0-1.742,4.5,6.087,6.087,0,0,0,1.716,4.394A6.591,6.591,0,0,0,130.364.39,6.317,6.317,0,0,0,135.1-1.222a5.224,5.224,0,0,0,1.4-2.392h-3.978a1.936,1.936,0,0,1-.728.78,3.282,3.282,0,0,1-1.352.312,2.337,2.337,0,0,1-1.716-.572A2.936,2.936,0,0,1,128-5.044h8.658Zm-8.528-1.95a2.372,2.372,0,0,1,.624-1.248,2.235,2.235,0,0,1,1.69-.624,2.424,2.424,0,0,1,1.716.624,2.789,2.789,0,0,1,.676,1.248ZM157.924,0a6.514,6.514,0,0,0,4.706-1.638A4.707,4.707,0,0,0,163.9-5.044a4.362,4.362,0,0,0-1.17-3.172,4.312,4.312,0,0,0-2.366-1.04,2.73,2.73,0,0,0,1.4-1.352,4.5,4.5,0,0,0,.494-2.132,4.692,4.692,0,0,0-1.066-3.25,4.864,4.864,0,0,0-3.8-1.352H150.7V0Zm-2.73-13.884h.832a2.387,2.387,0,0,1,1.716.52,1.783,1.783,0,0,1,.416,1.17,1.68,1.68,0,0,1-.416,1.144,2.376,2.376,0,0,1-1.716.546h-.832Zm0,6.734h.936c1.118,0,2.236.026,2.782.572a1.762,1.762,0,0,1,.442,1.248,1.687,1.687,0,0,1-.364,1.118c-.494.572-1.534.7-2.782.7h-1.014ZM177.97-10.5a4.6,4.6,0,0,0-3.484-1.508,5.982,5.982,0,0,0-4.186,1.638,6.43,6.43,0,0,0-1.794,4.654,5.863,5.863,0,0,0,1.664,4.264A5.565,5.565,0,0,0,174.356.39a4.341,4.341,0,0,0,3.614-1.664V0h4.16V-11.622h-4.16Zm-2.548,2.028a2.663,2.663,0,0,1,1.872.754,2.571,2.571,0,0,1,.806,1.9,2.523,2.523,0,0,1-.78,1.872,2.667,2.667,0,0,1-1.872.806,2.921,2.921,0,0,1-1.872-.78,2.681,2.681,0,0,1-.806-1.9,2.719,2.719,0,0,1,.832-1.9A2.658,2.658,0,0,1,175.422-8.476ZM187.59-18.954V0h4.16V-18.954Zm18.59,8.45a4.6,4.6,0,0,0-3.484-1.508,5.982,5.982,0,0,0-4.186,1.638,6.43,6.43,0,0,0-1.794,4.654,5.863,5.863,0,0,0,1.664,4.264A5.565,5.565,0,0,0,202.566.39a4.341,4.341,0,0,0,3.614-1.664V0h4.16V-11.622h-4.16Zm-2.548,2.028a2.663,2.663,0,0,1,1.872.754,2.571,2.571,0,0,1,.806,1.9,2.523,2.523,0,0,1-.78,1.872,2.667,2.667,0,0,1-1.872.806,2.921,2.921,0,0,1-1.872-.78,2.681,2.681,0,0,1-.806-1.9,2.719,2.719,0,0,1,.832-1.9A2.658,2.658,0,0,1,203.632-8.476ZM215.8,0h4.16V-6.24a2.673,2.673,0,0,1,.676-1.846,2.276,2.276,0,0,1,1.534-.546,1.742,1.742,0,0,1,1.326.494,3.337,3.337,0,0,1,.52,2.262V0h4.16V-7.384a4.005,4.005,0,0,0-1.092-3.25,4.7,4.7,0,0,0-3.432-1.248,4.383,4.383,0,0,0-3.692,1.716v-1.456H215.8Zm26.6-3.744a3.147,3.147,0,0,1-2.132.78,2.824,2.824,0,0,1-2.132-.884,2.985,2.985,0,0,1-.728-1.95,2.829,2.829,0,0,1,.806-2,2.726,2.726,0,0,1,2.028-.806,3.708,3.708,0,0,1,2.158.754v-3.484a5.963,5.963,0,0,0-2.7-.65,6.7,6.7,0,0,0-4.68,1.768,6.329,6.329,0,0,0-1.872,4.5,6.082,6.082,0,0,0,1.794,4.342A6.419,6.419,0,0,0,239.512.39,6.17,6.17,0,0,0,242.4-.26Zm17.29-1.742a6.507,6.507,0,0,0-1.846-4.888,6.367,6.367,0,0,0-4.472-1.586,6.544,6.544,0,0,0-4.758,1.69,6.2,6.2,0,0,0-1.742,4.5,6.087,6.087,0,0,0,1.716,4.394A6.591,6.591,0,0,0,253.4.39a6.316,6.316,0,0,0,4.732-1.612,5.224,5.224,0,0,0,1.4-2.392h-3.978a1.936,1.936,0,0,1-.728.78,3.282,3.282,0,0,1-1.352.312,2.337,2.337,0,0,1-1.716-.572,2.936,2.936,0,0,1-.728-1.95h8.658Zm-8.528-1.95a2.372,2.372,0,0,1,.624-1.248,2.235,2.235,0,0,1,1.69-.624,2.424,2.424,0,0,1,1.716.624,2.789,2.789,0,0,1,.676,1.248Z" transform="translate(0 19.24)" fill="#fff"/>
</svg>
