<svg xmlns="http://www.w3.org/2000/svg" width="185.198" height="19.188" viewBox="0 0 185.198 19.188">
  <path id="パス_69" data-name="パス 69" d="M0-17.342,5.174,0H9.75l3.328-10.036L16.224,0h4.6l5.538-17.342H21.658L18.382-6.136,14.976-17.342H11.388L7.722-6.136,4.706-17.342ZM36.27-8.476a2.862,2.862,0,0,1,1.846.754,2.823,2.823,0,0,1,.806,1.9,2.564,2.564,0,0,1-.806,1.846,2.644,2.644,0,0,1-1.846.78,2.658,2.658,0,0,1-1.872-.78,2.686,2.686,0,0,1-.806-1.846,2.681,2.681,0,0,1,.806-1.9A2.875,2.875,0,0,1,36.27-8.476Zm6.968,2.652a5.744,5.744,0,0,0-1.794-4.264,7.342,7.342,0,0,0-5.2-1.924,7.257,7.257,0,0,0-5.174,1.924,5.744,5.744,0,0,0-1.794,4.264,5.8,5.8,0,0,0,1.794,4.29A6.968,6.968,0,0,0,36.244.39a6.973,6.973,0,0,0,5.2-1.924A5.8,5.8,0,0,0,43.238-5.824ZM48.23,0h4.16V-5.746a3.435,3.435,0,0,1,.728-2.548,1.465,1.465,0,0,1,1.144-.416,1.613,1.613,0,0,1,1.248.468,3.718,3.718,0,0,1,.546,2.5V0h4.16V-5.954a2.971,2.971,0,0,1,.754-2.21,1.684,1.684,0,0,1,1.222-.468,1.517,1.517,0,0,1,1.092.39,3.452,3.452,0,0,1,.6,2.5V0h4.16V-7.566a4.27,4.27,0,0,0-1.092-3.2,4.619,4.619,0,0,0-3.224-1.066,4.714,4.714,0,0,0-2.418.572,4.084,4.084,0,0,0-1.586,1.612A3.63,3.63,0,0,0,58.11-11.31a4.731,4.731,0,0,0-2.236-.52,4.465,4.465,0,0,0-3.484,1.612v-1.4H48.23ZM85.852-5.486a6.507,6.507,0,0,0-1.846-4.888,6.367,6.367,0,0,0-4.472-1.586,6.544,6.544,0,0,0-4.758,1.69,6.2,6.2,0,0,0-1.742,4.5A6.087,6.087,0,0,0,74.75-1.378,6.591,6.591,0,0,0,79.56.39a6.316,6.316,0,0,0,4.732-1.612,5.224,5.224,0,0,0,1.4-2.392H81.718a1.936,1.936,0,0,1-.728.78,3.282,3.282,0,0,1-1.352.312,2.337,2.337,0,0,1-1.716-.572,2.936,2.936,0,0,1-.728-1.95h8.658Zm-8.528-1.95a2.372,2.372,0,0,1,.624-1.248,2.235,2.235,0,0,1,1.69-.624,2.424,2.424,0,0,1,1.716.624,2.789,2.789,0,0,1,.676,1.248ZM90.844,0H95V-6.24a2.673,2.673,0,0,1,.676-1.846,2.276,2.276,0,0,1,1.534-.546,1.742,1.742,0,0,1,1.326.494,3.337,3.337,0,0,1,.52,2.262V0h4.16V-7.384a4.005,4.005,0,0,0-1.092-3.25A4.7,4.7,0,0,0,98.7-11.882,4.383,4.383,0,0,0,95-10.166v-1.456h-4.16ZM115.18-8.476a2.862,2.862,0,0,1,1.846.754,2.823,2.823,0,0,1,.806,1.9,2.564,2.564,0,0,1-.806,1.846,2.644,2.644,0,0,1-1.846.78,2.658,2.658,0,0,1-1.872-.78,2.686,2.686,0,0,1-.806-1.846,2.681,2.681,0,0,1,.806-1.9A2.875,2.875,0,0,1,115.18-8.476Zm6.968,2.652a5.744,5.744,0,0,0-1.794-4.264,7.342,7.342,0,0,0-5.2-1.924,7.257,7.257,0,0,0-5.174,1.924,5.744,5.744,0,0,0-1.794,4.264,5.8,5.8,0,0,0,1.794,4.29A6.968,6.968,0,0,0,115.154.39a6.973,6.973,0,0,0,5.2-1.924A5.8,5.8,0,0,0,122.148-5.824ZM127.14,0h4.16V-5.746a3.435,3.435,0,0,1,.728-2.548,1.465,1.465,0,0,1,1.144-.416,1.613,1.613,0,0,1,1.248.468,3.718,3.718,0,0,1,.546,2.5V0h4.16V-5.954a2.971,2.971,0,0,1,.754-2.21,1.684,1.684,0,0,1,1.222-.468,1.517,1.517,0,0,1,1.092.39,3.452,3.452,0,0,1,.6,2.5V0h4.16V-7.566a4.27,4.27,0,0,0-1.092-3.2,4.619,4.619,0,0,0-3.224-1.066,4.714,4.714,0,0,0-2.418.572,4.084,4.084,0,0,0-1.586,1.612,3.63,3.63,0,0,0-1.612-1.664,4.731,4.731,0,0,0-2.236-.52,4.465,4.465,0,0,0-3.484,1.612v-1.4h-4.16Zm25.3-11.622V0h4.16V-11.622Zm-.26-4.836a2.33,2.33,0,0,0,2.34,2.34,2.33,2.33,0,0,0,2.34-2.34,2.33,2.33,0,0,0-2.34-2.34A2.33,2.33,0,0,0,152.178-16.458ZM170.82-3.744a3.147,3.147,0,0,1-2.132.78,2.824,2.824,0,0,1-2.132-.884,2.985,2.985,0,0,1-.728-1.95,2.829,2.829,0,0,1,.806-2,2.726,2.726,0,0,1,2.028-.806,3.708,3.708,0,0,1,2.158.754v-3.484a5.963,5.963,0,0,0-2.7-.65,6.7,6.7,0,0,0-4.68,1.768,6.329,6.329,0,0,0-1.872,4.5,6.082,6.082,0,0,0,1.794,4.342A6.419,6.419,0,0,0,167.934.39a6.17,6.17,0,0,0,2.886-.65Zm4.238,2.782A8.574,8.574,0,0,0,179.738.39a6.043,6.043,0,0,0,4.29-1.456,3.884,3.884,0,0,0,1.17-2.886,3.287,3.287,0,0,0-.884-2.314,4.911,4.911,0,0,0-1.716-.91l-.754-.208c-.65-.182-.988-.182-1.378-.338a.677.677,0,0,1-.494-.65.623.623,0,0,1,.364-.572,1.757,1.757,0,0,1,.962-.234,5.757,5.757,0,0,1,2.184.572l1.4-2.652a9.592,9.592,0,0,0-3.718-.754,5.868,5.868,0,0,0-4.16,1.4,4.153,4.153,0,0,0-1.092,2.834,2.811,2.811,0,0,0,.754,2A3.739,3.739,0,0,0,178.7-4.758l1.092.26a2.594,2.594,0,0,1,1.092.416.617.617,0,0,1,.208.52.667.667,0,0,1-.208.546,1.764,1.764,0,0,1-1.066.312A5.414,5.414,0,0,1,178.2-2.99a5.952,5.952,0,0,1-1.664-.858Z" transform="translate(0 18.798)" fill="#fff"/>
</svg>
