<svg xmlns="http://www.w3.org/2000/svg" width="270.764" height="25.194" viewBox="0 0 270.764 25.194">
  <path id="パス_71" data-name="パス 71" d="M0-17.342,5.174,0H9.75l3.328-10.036L16.224,0h4.6l5.538-17.342H21.658L18.382-6.136,14.976-17.342H11.388L7.722-6.136,4.706-17.342ZM36.27-8.476a2.862,2.862,0,0,1,1.846.754,2.823,2.823,0,0,1,.806,1.9,2.564,2.564,0,0,1-.806,1.846,2.644,2.644,0,0,1-1.846.78,2.658,2.658,0,0,1-1.872-.78,2.686,2.686,0,0,1-.806-1.846,2.681,2.681,0,0,1,.806-1.9A2.875,2.875,0,0,1,36.27-8.476Zm6.968,2.652a5.744,5.744,0,0,0-1.794-4.264,7.342,7.342,0,0,0-5.2-1.924,7.257,7.257,0,0,0-5.174,1.924,5.744,5.744,0,0,0-1.794,4.264,5.8,5.8,0,0,0,1.794,4.29A6.968,6.968,0,0,0,36.244.39a6.973,6.973,0,0,0,5.2-1.924A5.8,5.8,0,0,0,43.238-5.824ZM48.23,0h4.16V-4.966a3.507,3.507,0,0,1,.936-2.652,2.726,2.726,0,0,1,1.9-.624,3.67,3.67,0,0,1,1.794.416v-3.926c-.546-.026-.728-.052-.832-.052a4.538,4.538,0,0,0-2.158.468A3.75,3.75,0,0,0,52.39-9.724v-1.9H48.23ZM61.464-18.954V0h4.16V-4.758L69.862,0h5.772L69.706-6.266l5.486-5.356H69.55L65.624-7.436V-18.954ZM87.958-1.56A12.108,12.108,0,0,0,90.584-.182,9.269,9.269,0,0,0,93.99.39a6.723,6.723,0,0,0,5.122-1.768,5.875,5.875,0,0,0,1.638-4.368A4.094,4.094,0,0,0,99.632-8.84a6.625,6.625,0,0,0-3.146-1.716l-1.378-.416a2.847,2.847,0,0,1-1.508-.78,1.16,1.16,0,0,1-.234-.78,1.283,1.283,0,0,1,.442-.936,2.16,2.16,0,0,1,1.482-.52,4.575,4.575,0,0,1,2.964,1.17l1.794-3.51a12.181,12.181,0,0,0-5.356-1.4,6.114,6.114,0,0,0-4.446,1.638,5.67,5.67,0,0,0-1.586,4.186,4.364,4.364,0,0,0,.988,3.068,5.664,5.664,0,0,0,2.5,1.4l1.17.364a6.245,6.245,0,0,1,2.236.91,1.355,1.355,0,0,1,.494,1.04A1.551,1.551,0,0,1,95.6-4.03a2.283,2.283,0,0,1-1.742.6A6.076,6.076,0,0,1,89.882-5.2Zm24.8-6.656v-3.406H110.4v-3.822h-4.16v3.822H104.91v3.406h1.326V0h4.16V-8.216Zm5.1,14.17h4.654l9.334-17.576h-4.758l-3.016,5.954-3.094-5.954h-4.836l5.616,10.036Zm18.018-24.908V0h4.16V-18.954ZM157.794-5.486a6.507,6.507,0,0,0-1.846-4.888,6.367,6.367,0,0,0-4.472-1.586,6.544,6.544,0,0,0-4.758,1.69,6.2,6.2,0,0,0-1.742,4.5,6.087,6.087,0,0,0,1.716,4.394A6.591,6.591,0,0,0,151.5.39a6.316,6.316,0,0,0,4.732-1.612,5.224,5.224,0,0,0,1.4-2.392H153.66a1.936,1.936,0,0,1-.728.78,3.282,3.282,0,0,1-1.352.312,2.337,2.337,0,0,1-1.716-.572,2.936,2.936,0,0,1-.728-1.95h8.658Zm-8.528-1.95a2.372,2.372,0,0,1,.624-1.248,2.235,2.235,0,0,1,1.69-.624,2.424,2.424,0,0,1,1.716.624,2.789,2.789,0,0,1,.676,1.248Zm22.568-9.906V0h4.5V-6.656L180.648,0h5.59L180.8-7.1a4.858,4.858,0,0,0,2.392-1.2,5,5,0,0,0,1.378-3.614,5.708,5.708,0,0,0-1.482-3.9,5.6,5.6,0,0,0-4.238-1.534Zm4.5,3.484h.858a3.053,3.053,0,0,1,2.158.676,2.045,2.045,0,0,1,.6,1.456,2.159,2.159,0,0,1-.572,1.456,3.38,3.38,0,0,1-2.184.7h-.858ZM202.67-5.486a6.507,6.507,0,0,0-1.846-4.888,6.367,6.367,0,0,0-4.472-1.586,6.544,6.544,0,0,0-4.758,1.69,6.2,6.2,0,0,0-1.742,4.5,6.087,6.087,0,0,0,1.716,4.394A6.591,6.591,0,0,0,196.378.39a6.316,6.316,0,0,0,4.732-1.612,5.224,5.224,0,0,0,1.4-2.392h-3.978a1.936,1.936,0,0,1-.728.78,3.282,3.282,0,0,1-1.352.312,2.337,2.337,0,0,1-1.716-.572,2.936,2.936,0,0,1-.728-1.95h8.658Zm-8.528-1.95a2.372,2.372,0,0,1,.624-1.248,2.235,2.235,0,0,1,1.69-.624,2.424,2.424,0,0,1,1.716.624,2.789,2.789,0,0,1,.676,1.248Zm20.9-.78v-3.406h-2.912V-13.26a3.076,3.076,0,0,1,.468-1.95,1.5,1.5,0,0,1,1.17-.442,2.61,2.61,0,0,1,1.3.39V-18.85a5.28,5.28,0,0,0-2-.39,4.837,4.837,0,0,0-4.03,1.846,5.977,5.977,0,0,0-1.066,3.822v1.95h-1.456v3.406h1.456V0h4.16V-8.216Zm10.712-.26a2.862,2.862,0,0,1,1.846.754,2.823,2.823,0,0,1,.806,1.9,2.564,2.564,0,0,1-.806,1.846,2.644,2.644,0,0,1-1.846.78,2.658,2.658,0,0,1-1.872-.78,2.686,2.686,0,0,1-.806-1.846,2.681,2.681,0,0,1,.806-1.9A2.875,2.875,0,0,1,225.758-8.476Zm6.968,2.652a5.744,5.744,0,0,0-1.794-4.264,7.342,7.342,0,0,0-5.2-1.924,7.257,7.257,0,0,0-5.174,1.924,5.744,5.744,0,0,0-1.794,4.264,5.8,5.8,0,0,0,1.794,4.29A6.968,6.968,0,0,0,225.732.39a6.973,6.973,0,0,0,5.2-1.924A5.8,5.8,0,0,0,232.726-5.824ZM237.718,0h4.16V-4.966a3.507,3.507,0,0,1,.936-2.652,2.726,2.726,0,0,1,1.9-.624,3.67,3.67,0,0,1,1.794.416v-3.926c-.546-.026-.728-.052-.832-.052a4.538,4.538,0,0,0-2.158.468,3.75,3.75,0,0,0-1.638,1.612v-1.9h-4.16Zm13.234,0h4.16V-5.746a3.435,3.435,0,0,1,.728-2.548,1.465,1.465,0,0,1,1.144-.416,1.613,1.613,0,0,1,1.248.468,3.718,3.718,0,0,1,.546,2.5V0h4.16V-5.954a2.971,2.971,0,0,1,.754-2.21,1.683,1.683,0,0,1,1.222-.468,1.517,1.517,0,0,1,1.092.39,3.452,3.452,0,0,1,.6,2.5V0h4.16V-7.566a4.27,4.27,0,0,0-1.092-3.2,4.619,4.619,0,0,0-3.224-1.066,4.714,4.714,0,0,0-2.418.572,4.084,4.084,0,0,0-1.586,1.612,3.63,3.63,0,0,0-1.612-1.664,4.731,4.731,0,0,0-2.236-.52,4.465,4.465,0,0,0-3.484,1.612v-1.4h-4.16Z" transform="translate(0 19.24)" fill="#fff"/>
</svg>
