<svg xmlns="http://www.w3.org/2000/svg" width="124.046" height="19.344" viewBox="0 0 124.046 19.344">
  <path id="パス_72" data-name="パス 72" d="M1.82-17.342V0h4.5V-17.342ZM12.168,0h4.16V-6.24A2.673,2.673,0,0,1,17-8.086a2.276,2.276,0,0,1,1.534-.546,1.742,1.742,0,0,1,1.326.494,3.337,3.337,0,0,1,.52,2.262V0h4.16V-7.384a4.005,4.005,0,0,0-1.092-3.25,4.7,4.7,0,0,0-3.432-1.248,4.383,4.383,0,0,0-3.692,1.716v-1.456h-4.16Zm26.6-3.744a3.147,3.147,0,0,1-2.132.78A2.824,2.824,0,0,1,34.5-3.848a2.985,2.985,0,0,1-.728-1.95,2.829,2.829,0,0,1,.806-2,2.726,2.726,0,0,1,2.028-.806,3.708,3.708,0,0,1,2.158.754v-3.484a5.963,5.963,0,0,0-2.7-.65,6.7,6.7,0,0,0-4.68,1.768,6.329,6.329,0,0,0-1.872,4.5A6.082,6.082,0,0,0,31.3-1.378,6.419,6.419,0,0,0,35.88.39a6.17,6.17,0,0,0,2.886-.65Zm4.966-15.21V0h4.16V-18.954Zm9.594,7.332v7.254a4.178,4.178,0,0,0,1.092,3.094C55.8.208,57.928.39,59.67.39a6.635,6.635,0,0,0,5.018-1.638,3.99,3.99,0,0,0,1.118-3.12v-7.254h-4.16v6.5a2.155,2.155,0,0,1-.6,1.638,1.945,1.945,0,0,1-1.482.494,2.15,2.15,0,0,1-1.456-.442,2.229,2.229,0,0,1-.624-1.69v-6.5ZM70.538-.962A8.574,8.574,0,0,0,75.218.39a6.043,6.043,0,0,0,4.29-1.456,3.884,3.884,0,0,0,1.17-2.886,3.287,3.287,0,0,0-.884-2.314,4.911,4.911,0,0,0-1.716-.91l-.754-.208c-.65-.182-.988-.182-1.378-.338a.677.677,0,0,1-.494-.65.623.623,0,0,1,.364-.572,1.757,1.757,0,0,1,.962-.234,5.757,5.757,0,0,1,2.184.572l1.4-2.652a9.592,9.592,0,0,0-3.718-.754,5.868,5.868,0,0,0-4.16,1.4A4.153,4.153,0,0,0,71.4-7.774a2.811,2.811,0,0,0,.754,2,3.739,3.739,0,0,0,2.028,1.014l1.092.26a2.594,2.594,0,0,1,1.092.416.617.617,0,0,1,.208.52.667.667,0,0,1-.208.546A1.764,1.764,0,0,1,75.3-2.7a5.414,5.414,0,0,1-1.612-.286,5.952,5.952,0,0,1-1.664-.858ZM85.41-11.622V0h4.16V-11.622Zm-.26-4.836a2.33,2.33,0,0,0,2.34,2.34,2.33,2.33,0,0,0,2.34-2.34,2.33,2.33,0,0,0-2.34-2.34A2.33,2.33,0,0,0,85.15-16.458Zm16.38,7.982a2.862,2.862,0,0,1,1.846.754,2.823,2.823,0,0,1,.806,1.9,2.564,2.564,0,0,1-.806,1.846,2.644,2.644,0,0,1-1.846.78,2.658,2.658,0,0,1-1.872-.78,2.686,2.686,0,0,1-.806-1.846,2.681,2.681,0,0,1,.806-1.9A2.875,2.875,0,0,1,101.53-8.476ZM108.5-5.824a5.744,5.744,0,0,0-1.794-4.264,7.342,7.342,0,0,0-5.2-1.924,7.257,7.257,0,0,0-5.174,1.924,5.744,5.744,0,0,0-1.794,4.264,5.8,5.8,0,0,0,1.794,4.29A6.968,6.968,0,0,0,101.5.39a6.973,6.973,0,0,0,5.2-1.924A5.8,5.8,0,0,0,108.5-5.824ZM113.49,0h4.16V-6.24a2.673,2.673,0,0,1,.676-1.846,2.276,2.276,0,0,1,1.534-.546,1.742,1.742,0,0,1,1.326.494,3.337,3.337,0,0,1,.52,2.262V0h4.16V-7.384a4.005,4.005,0,0,0-1.092-3.25,4.7,4.7,0,0,0-3.432-1.248,4.383,4.383,0,0,0-3.692,1.716v-1.456h-4.16Z" transform="translate(-1.82 18.954)" fill="#fff"/>
</svg>
