<svg height="32.079" viewBox="0 0 120.503 32.079" width="120.503" xmlns="http://www.w3.org/2000/svg"><g fill="#fff"><path d="m77.287 21.625v4.638h-8.277v2.5h8.064c-.764 5.362-5.161 9.392-8.143 10.967v3.06c3.69-1.39 8.445-5.806 9.7-10.3 1.247 4.493 6.005 8.909 9.694 10.3v-3.063c-2.983-1.575-7.378-5.6-8.142-10.967h8.062v-2.5h-8.277v-4.635z" transform="translate(-36.287 -16.33)"/><path d="m101.632 30.646v-1.411h4.553v1.411zm0 3.425v-1.409h4.553v1.409zm7.061 8.787v-6.246a14.9 14.9 0 0 0 8.163 6.13v-2.623a12.6 12.6 0 0 1 -5.382-3.688h3.226a1.029 1.029 0 0 0 1.027-1.029v-7.456a1.029 1.029 0 0 0 -1.027-1.03h-6.088v-1.269h8.141v-2.3h-8.141v-1.568h-2.465v1.571h-8.14v2.3h8.14v1.269h-6.084a1.03 1.03 0 0 0 -1.03 1.03v7.451a1.03 1.03 0 0 0 1.03 1.029h3.221a12.591 12.591 0 0 1 -5.384 3.69v2.623a14.9 14.9 0 0 0 8.163-6.13v6.246zm-.121-12.212v-1.411h4.553v1.411zm0 3.425v-1.409h4.553v1.409z" transform="translate(-41.984 -16.36)"/><path d="m139.757 29.752v-1.028h2.278v1.027zm0-3.2v-1.038h2.278v1.034zm0 13.484v-1.697h4.921v-2.081h-4.921v-1.232h4.7v-2.12h-4.7v-1.064h3.376a1.009 1.009 0 0 0 1.026-1v-2.118h.907v-2.176h-.907v-2.1a1.028 1.028 0 0 0 -1.026-1.027h-3.376v-1.466h-2.543v1.463h-4.087v2.1h4.087v1.034h-4.814v2.176h4.809v1.027h-4.146v2.09h4.146v1.064h-4.375v2.119h4.375v1.232h-4.875v2.081h4.875v1.693h-.579a7.537 7.537 0 0 1 -5.49-2.212 18.231 18.231 0 0 0 1.386-7.381 1.028 1.028 0 0 0 -1.026-1.031h-1.842l2.868-4.021v-1.483a1.023 1.023 0 0 0 -1.026-1.023h-4.582v2.317h2.82l-2.82 4.071v1.529a1.03 1.03 0 0 0 1.024 1.027h2.4a24.709 24.709 0 0 1 -.785 3.6 6.886 6.886 0 0 1 -.543-2.294h-2.14a9.184 9.184 0 0 0 1.417 5.077 6.878 6.878 0 0 1 -1.617 1.82v2.939a9.971 9.971 0 0 0 3.221-2.935 10.991 10.991 0 0 0 7.057 2.5h7.86l.321-2.5z" transform="translate(-47.643 -16.395)"/><path d="m161.288 35.53a1.025 1.025 0 0 1 1.027 1.027v5.2a1.025 1.025 0 0 1 -1.027 1.027h-5.213a1.029 1.029 0 0 1 -1.032-1.027v-5.2a1.029 1.029 0 0 1 1.032-1.027zm-1.288 4.916v-2.638h-2.639v2.637zm5.978.651a1.759 1.759 0 0 0 1.759 1.764h3.773a1.768 1.768 0 0 0 1.77-1.764v-4.497l-2.451-.238v2.738c0 .743-.137 1.332-.809 1.332h-.766c-.365 0-.578-.177-.578-.606v-6.57l5-.247v-2.478l-5 .256v-4.911a32.4 32.4 0 0 0 4.574-.747v-2.476a51.765 51.765 0 0 1 -9.88 1.085v2.339c.561 0 2.208.08 2.608.04v4.8l-2.952.156v2.462l2.952-.146zm-3.818-16.348v-2.223h-6.816v2.222zm.483 3.262v-2.217h-7.823v2.216zm-.483 3.224v-1.974h-6.89v1.973zm-.039 3.227v-2.016h-6.811v2.015z" transform="translate(-53.178 -16.507)"/><path d="m39.985 17.689v5.578c-1.529 2.013-3.218 4.541-3.218 7.135 0 2.556 1.511 4.533 4.185 4.533 5.176 0 12.686-7.188 12.686-13.088 0-1.754-.9-2.629-2.011-2.629-3.916 0-7.993 6.437-8.8 10.3a2.289 2.289 0 0 1 -2.307 1.772 2.243 2.243 0 0 1 -2.119-2.9c1.252-5.946 7.127-13.356 14.055-13.356 3.925 0 5.926 2.5 5.926 6.464 0 8.753-9.163 18.129-17.54 18.129-6.3 0-8.475-4.423-8.475-8.581.001-5.986 4.318-10.888 7.618-13.357z" transform="translate(-29.097 -15.034)"/><path d="m0 26.498h10.834v2.522h-10.834z"/><path d="m12.873 26.498h7.402v2.522h-7.402z"/><path d="m64.034 54.493h-.857v-1.693h.2v1.45h.656z" transform="translate(-35.155 -22.46)"/><path d="m61.773 53.039h-.656v.461h.578v.244h-.578v.746h-.212v-1.69h.868z" transform="translate(-34.709 -22.46)"/><path d="m57.8 54.493h-.929v-1.693h.9v.241h-.7v.448h.639v.232h-.639v.53h.729z" transform="translate(-33.915 -22.46)"/><path d="m56.373 53.987a.48.48 0 0 1 -.492.541.494.494 0 0 1 -.524-.513h.191a.292.292 0 0 0 .316.28c.149 0 .315-.047.315-.26 0-.161-.112-.2-.27-.261l-.141-.047c-.193-.056-.394-.113-.394-.484a.46.46 0 0 1 .473-.5.48.48 0 0 1 .481.495h-.193a.286.286 0 0 0 -.308-.261.24.24 0 0 0 -.26.252.2.2 0 0 0 .165.214l.316.113a.4.4 0 0 1 .325.431z" transform="translate(-33.618 -22.448)"/><path d="m54.894 53.915c0 .44-.2.625-.506.625a.481.481 0 0 1 -.4-.2.9.9 0 0 1 -.1-.409v-1.131h.211v1.109c0 .278.13.391.272.391.21 0 .306-.133.306-.373v-1.127h.209z" transform="translate(-33.33 -22.46)"/><path d="m52.425 54.493h-.925v-1.693h.9v.241h-.7v.448h.639v.232h-.639v.53h.725z" transform="translate(-32.859 -22.46)"/><path d="m50.965 52.8-.428 1.7h-.2l-.428-1.7h.218l.288 1.341h.054l.288-1.341z" transform="translate(-32.546 -22.46)"/><path d="m16.931 30.338h.201v1.695h-.201z"/><path d="m48.853 53.039h-.393v1.454h-.21v-1.454h-.394v-.239h1z" transform="translate(-32.142 -22.46)"/><path d="m47.457 53.288h-.2a.332.332 0 0 0 -.323-.306c-.141 0-.36.12-.36.66 0 .336.114.643.36.643.165 0 .28-.122.323-.336h.2c-.052.345-.237.578-.525.578-.342 0-.57-.309-.57-.893s.246-.9.57-.9a.561.561 0 0 1 .525.554z" transform="translate(-31.849 -22.448)"/><path d="m45.98 54.493h-.938v-1.693h.9v.241h-.7v.448h.639v.232h-.639v.53h.736z" transform="translate(-31.589 -22.46)"/><path d="m44.6 53.039h-.666v.461h.578v.244h-.578v.746h-.21v-1.69h.876z" transform="translate(-31.33 -22.46)"/><path d="m43.272 53.039h-.672v.461h.579v.244h-.579v.746h-.2v-1.69h.868z" transform="translate(-31.07 -22.46)"/><path d="m41.925 54.493h-.93v-1.693h.9v.241h-.7v.448h.639v.232h-.634v.53h.727z" transform="translate(-30.793 -22.46)"/><path d="m39.362 54.481h-.113l-.036-.289c-.112.186-.21.336-.438.336-.3 0-.57-.3-.57-.885 0-.466.185-.9.614-.9a.545.545 0 0 1 .533.525h-.2c-.026-.095-.131-.291-.324-.291-.21 0-.411.186-.411.671 0 .521.219.643.42.643.07 0 .289-.027.359-.456h-.315v-.224h.481z" transform="translate(-30.245 -22.448)"/><path d="m37.676 54.493h-.219l-.534-1.258h-.062v1.258h-.191v-1.693h.237l.516 1.229h.07v-1.229h.184z" transform="translate(-29.943 -22.46)"/><path d="m6.165 30.338h.203v1.695h-.203z"/><path d="m35.293 53.915c0 .44-.193.625-.508.625a.453.453 0 0 1 -.386-.2.718.718 0 0 1 -.1-.409v-1.131h.211v1.109c0 .278.121.391.272.391.209 0 .3-.133.3-.373v-1.127h.21z" transform="translate(-29.477 -22.46)"/><path d="m33.77 53.987a.478.478 0 0 1 -.482.541.5.5 0 0 1 -.534-.513h.193a.291.291 0 0 0 .316.28c.148 0 .315-.047.315-.26 0-.161-.105-.2-.263-.261l-.148-.047a.427.427 0 0 1 -.386-.484.453.453 0 0 1 .464-.5.479.479 0 0 1 .481.495h-.192a.281.281 0 0 0 -.307-.261.241.241 0 0 0 -.263.252.2.2 0 0 0 .165.214l.325.113a.4.4 0 0 1 .316.431z" transform="translate(-29.173 -22.448)"/><path d="m30.681 53.915c0 .44-.192.625-.509.625a.453.453 0 0 1 -.385-.2.725.725 0 0 1 -.1-.409v-1.131h.213v1.109c0 .278.123.391.27.391.21 0 .3-.133.3-.373v-1.127h.21z" transform="translate(-28.57 -22.46)"/><path d="m67.03 54.493h-.21l-.543-1.258h-.062v1.258h-.184v-1.693h.227l.526 1.229h.062v-1.229h.184z" transform="translate(-35.717 -22.46)"/><path d="m65.522 54.493h-.222l-.087-.364h-.543l-.088.364h-.21l.447-1.7h.264zm-.367-.6-.177-.772h-.061l-.183.772z" transform="translate(-35.391 -22.46)"/><path d="m60.353 53.635c0 .791-.43.893-.6.893s-.6-.1-.6-.893.43-.9.6-.9.6.107.6.9zm-.2 0c0-.533-.236-.652-.394-.652s-.394.12-.394.652.235.652.394.652.393-.123.393-.652z" transform="translate(-34.366 -22.448)"/><path d="m32.3 54.5v-.009h-.245a2.544 2.544 0 0 1 -.017-.317c0-.279-.027-.371-.255-.371h-.315v.688h-.2v-1.691h.632c.325 0 .375.327.375.464a.41.41 0 0 1 -.244.411c.157.1.209.148.209.456.002.259.021.342.06.369zm-.227-1.2c0-.112-.035-.269-.227-.269h-.377v.549h.359c.172 0 .249-.08.249-.28z" transform="translate(-28.881 -22.46)"/><path d="m29.232 53.327c0 .149-.061.523-.386.523h-.346v.643h-.2v-1.693h.559c.232 0 .373.2.373.527zm-.2-.017c0-.2-.088-.28-.282-.28h-.25v.594h.29c.231.001.242-.224.242-.313z" transform="translate(-28.296 -22.46)"/><path d="m68.674 53.609c0 .353-.1.884-.516.884h-.535v-1.693h.544c.427 0 .507.482.507.809zm-.21.017c0-.557-.218-.594-.341-.594h-.3v1.228h.3c.246 0 .34-.316.34-.635z" transform="translate(-36.03 -22.46)"/></g></svg>