<svg height="37.919" viewBox="0 0 142.438 37.919" width="142.438" xmlns="http://www.w3.org/2000/svg"><g fill="#1a1311"><path d="m78.808 21.625v5.482h-9.784v2.952h9.532c-.9 6.338-6.1 11.1-9.625 12.963v3.621c4.361-1.643 9.982-6.863 11.462-12.174 1.474 5.311 7.099 10.531 11.459 12.174v-3.621c-3.526-1.861-8.721-6.624-9.624-12.963h9.53v-2.952h-9.781v-5.482z" transform="translate(-30.345 -15.366)"/><path d="m102.311 32.261v-1.669h5.382v1.668zm0 4.048v-1.666h5.382v1.666zm8.346 10.391v-7.388a17.611 17.611 0 0 0 9.649 7.245v-3.1c-2.381-.569-5.219-3-6.362-4.36h3.814a1.217 1.217 0 0 0 1.215-1.216v-8.812a1.217 1.217 0 0 0 -1.215-1.217h-7.2v-1.5h9.623v-2.716h-9.623v-1.857h-2.914v1.857h-9.62v2.715h9.622v1.5h-7.191a1.218 1.218 0 0 0 -1.217 1.217v8.812a1.218 1.218 0 0 0 1.217 1.216h3.808c-1.142 1.358-3.981 3.791-6.361 4.36v3.1a17.608 17.608 0 0 0 9.649-7.245v7.389zm-.142-14.435v-1.673h5.385v1.668zm0 4.048v-1.67h5.385v1.666z" transform="translate(-31.806 -15.374)"/><path d="m142.137 31.171v-1.215h2.693v1.215zm0-3.787v-1.222h2.693v1.222zm0 15.939v-2h5.817v-2.46h-5.817v-1.463h5.552v-2.5h-5.552v-1.258h3.99a1.192 1.192 0 0 0 1.213-1.182v-2.5h1.072v-2.576h-1.072v-2.484a1.215 1.215 0 0 0 -1.213-1.215h-3.99v-1.73h-3.006v1.729h-4.831v2.477h4.831v1.222h-5.684v2.572h5.684v1.215h-4.9v2.471h4.9v1.259h-5.171v2.5h5.171v1.457h-5.762v2.46h5.762v2h-.685a8.909 8.909 0 0 1 -6.489-2.615 21.55 21.55 0 0 0 1.638-8.725 1.215 1.215 0 0 0 -1.213-1.215h-2.182l3.39-4.753v-1.748a1.21 1.21 0 0 0 -1.213-1.209h-5.416v2.737h3.339l-3.334 4.811v1.811a1.217 1.217 0 0 0 1.211 1.215h2.839a29.21 29.21 0 0 1 -.928 4.254 8.14 8.14 0 0 1 -.642-2.711h-2.53a10.856 10.856 0 0 0 1.675 6 8.13 8.13 0 0 1 -1.912 2.152v3.479a11.786 11.786 0 0 0 3.808-3.469 12.991 12.991 0 0 0 8.342 2.951h9.291l.38-2.957z" transform="translate(-33.256 -15.383)"/><path d="m162.464 37.9a1.211 1.211 0 0 1 1.215 1.215v6.147a1.211 1.211 0 0 1 -1.215 1.215h-6.164a1.216 1.216 0 0 1 -1.219-1.215v-6.151a1.216 1.216 0 0 1 1.219-1.211zm-1.516 5.811v-3.121h-3.119v3.117zm7.066.769a2.079 2.079 0 0 0 2.079 2.085h4.46a2.09 2.09 0 0 0 2.092-2.085v-5.322l-2.9-.281v3.236c0 .878-.162 1.574-.956 1.574h-.9c-.431 0-.683-.209-.683-.716v-7.762l5.909-.292v-2.929l-5.909.3v-5.8a38.3 38.3 0 0 0 5.406-.883v-2.929a61.189 61.189 0 0 1 -11.679 1.282v2.765c.663 0 2.609.094 3.083.047v5.675l-3.489.184v2.91l3.489-.173zm-4.514-19.327v-2.627h-8.057v2.627zm.571 3.855v-2.619h-9.247v2.619zm-.571 3.811v-2.333h-8.149v2.332zm-.047 3.814v-2.382h-8.053v2.382z" transform="translate(-34.675 -15.411)"/></g><path d="m41.371 18.172v6.594c-1.807 2.38-3.8 5.368-3.8 8.433 0 3.022 1.786 5.358 4.946 5.358 6.118 0 14.995-8.5 14.995-15.471 0-2.073-1.067-3.108-2.377-3.108-4.629 0-9.447 7.609-10.4 12.173a2.706 2.706 0 0 1 -2.727 2.095 2.652 2.652 0 0 1 -2.508-3.425c1.479-7.028 8.424-15.787 16.614-15.787 4.64 0 7.005 2.959 7.005 7.64 0 10.346-10.831 21.426-20.733 21.426-7.45 0-10.018-5.228-10.018-10.143 0-7.072 5.103-12.867 9.003-15.785z" fill="#cb0023" transform="translate(-28.501 -15.034)"/><path d="m0 31.321h12.806v2.981h-12.806z" fill="#474645"/><path d="m15.217 31.321h8.749v2.981h-8.749z" fill="#474645"/><g fill="#1a1311"><path d="m64.19 54.8h-1.013v-2h.238v1.716h.775z" transform="translate(-30.055 -16.938)"/><path d="m61.931 53.083h-.776v.549h.683v.288h-.683v.88h-.25v-2h1.026z" transform="translate(-29.94 -16.938)"/><path d="m57.97 54.8h-1.1v-2h1.067v.285h-.828v.53h.755v.275h-.755v.627h.859z" transform="translate(-29.737 -16.938)"/><path d="m56.558 54.215a.567.567 0 0 1 -.581.639.584.584 0 0 1 -.619-.606h.226a.346.346 0 0 0 .373.33c.177 0 .372-.055.372-.308 0-.19-.133-.242-.319-.309l-.166-.055c-.228-.066-.465-.134-.465-.573a.544.544 0 0 1 .559-.6.568.568 0 0 1 .569.585h-.228a.339.339 0 0 0 -.364-.309.283.283 0 0 0 -.308.3.23.23 0 0 0 .195.253l.373.134a.467.467 0 0 1 .383.519z" transform="translate(-29.66 -16.935)"/><path d="m55.075 54.118c0 .52-.237.739-.6.739a.568.568 0 0 1 -.468-.232 1.061 1.061 0 0 1 -.113-.483v-1.342h.25v1.31c0 .329.154.462.321.462.249 0 .362-.157.362-.441v-1.331h.247z" transform="translate(-29.587 -16.938)"/><path d="m52.593 54.8h-1.093v-2h1.066v.285h-.828v.53h.755v.275h-.755v.627h.857z" transform="translate(-29.466 -16.938)"/><path d="m51.158 52.8-.506 2h-.238l-.506-2h.257l.341 1.586h.064l.34-1.586z" transform="translate(-29.386 -16.938)"/><path d="m20.013 35.86h.238v2.004h-.238z"/><path d="m49.035 53.083h-.465v1.717h-.248v-1.717h-.466v-.283h1.179z" transform="translate(-29.282 -16.938)"/><path d="m47.656 53.388h-.238a.392.392 0 0 0 -.382-.362c-.167 0-.425.141-.425.781 0 .4.135.761.425.761.2 0 .331-.144.382-.4h.238c-.062.407-.28.683-.62.683-.4 0-.674-.366-.674-1.056s.291-1.06.674-1.06a.663.663 0 0 1 .62.653z" transform="translate(-29.207 -16.935)"/><path d="m46.15 54.8h-1.108v-2h1.067v.285h-.828v.53h.755v.275h-.755v.627h.87z" transform="translate(-29.14 -16.938)"/><path d="m44.758 53.083h-.788v.549h.683v.288h-.683v.88h-.248v-2h1.035z" transform="translate(-29.074 -16.938)"/><path d="m43.43 53.083h-.789v.549h.684v.288h-.684v.88h-.241v-2h1.03z" transform="translate(-29.007 -16.938)"/><path d="m42.094 54.8h-1.094v-2h1.069v.285h-.828v.53h.755v.275h-.755v.627h.859z" transform="translate(-28.936 -16.938)"/><path d="m39.572 54.8h-.134l-.043-.342c-.133.22-.248.4-.518.4-.351 0-.673-.351-.673-1.046 0-.551.218-1.069.725-1.069a.644.644 0 0 1 .631.62h-.237c-.03-.112-.155-.344-.383-.344-.249 0-.486.22-.486.793 0 .616.258.761.5.761.083 0 .342-.032.424-.539h-.378v-.265h.569z" transform="translate(-28.796 -16.935)"/><path d="m37.86 54.8h-.26l-.632-1.487h-.068v1.487h-.226v-2h.28l.61 1.453h.083v-1.453h.218z" transform="translate(-28.718 -16.938)"/><path d="m7.287 35.86h.24v2.004h-.24z"/><path d="m35.473 54.118c0 .52-.228.739-.6.739a.535.535 0 0 1 -.457-.232.849.849 0 0 1 -.114-.483v-1.342h.25v1.31c0 .329.143.462.321.462.247 0 .351-.157.351-.441v-1.331h.249z" transform="translate(-28.599 -16.938)"/><path d="m33.955 54.215a.565.565 0 0 1 -.57.639.588.588 0 0 1 -.631-.606h.228a.344.344 0 0 0 .373.33c.175 0 .372-.055.372-.308 0-.19-.124-.242-.311-.309l-.175-.055a.5.5 0 0 1 -.456-.573.536.536 0 0 1 .549-.6.566.566 0 0 1 .569.585h-.227a.332.332 0 0 0 -.363-.309.285.285 0 0 0 -.311.3.232.232 0 0 0 .2.253l.385.134a.468.468 0 0 1 .368.519z" transform="translate(-28.521 -16.935)"/><path d="m30.861 54.118c0 .52-.227.739-.6.739a.535.535 0 0 1 -.455-.232.857.857 0 0 1 -.114-.483v-1.342h.25v1.31c0 .329.145.462.319.462.249 0 .353-.157.353-.441v-1.331h.249z" transform="translate(-28.366 -16.938)"/><path d="m67.212 54.8h-.248l-.642-1.487h-.073v1.487h-.217v-2h.268l.621 1.453h.073v-1.453h.217z" transform="translate(-30.198 -16.938)"/><path d="m65.731 54.8h-.259l-.1-.43h-.642l-.1.43h-.249l.528-2h.311zm-.434-.7-.209-.913h-.072l-.216.913z" transform="translate(-30.115 -16.938)"/><path d="m60.57 53.8c0 .935-.508 1.056-.7 1.056s-.706-.121-.706-1.056.508-1.06.706-1.06.7.121.7 1.06zm-.237 0c0-.63-.279-.771-.466-.771s-.465.141-.465.771.278.77.465.77.466-.146.466-.77z" transform="translate(-29.852 -16.935)"/><path d="m32.492 54.812v-.012h-.292a3.006 3.006 0 0 1 -.02-.375c0-.33-.031-.439-.3-.439h-.372v.814h-.238v-2h.746c.384 0 .443.386.443.549a.484.484 0 0 1 -.289.486c.186.121.247.175.247.538.002.307.024.405.075.439zm-.269-1.421c0-.132-.041-.318-.269-.318h-.445v.65h.424c.197 0 .29-.099.29-.332z" transform="translate(-28.446 -16.938)"/><path d="m29.4 53.424c0 .177-.072.618-.456.618h-.414v.76h-.23v-2h.661c.275-.002.439.238.439.622zm-.236-.02c0-.233-.1-.33-.333-.33h-.3v.7h.343c.279.002.292-.261.292-.374z" transform="translate(-28.296 -16.938)"/><path d="m68.865 53.756c0 .418-.122 1.045-.61 1.045h-.632v-2h.643c.505-.001.599.57.599.955zm-.249.02c0-.658-.257-.7-.4-.7h-.351v1.453h.351c.284-.003.4-.377.4-.753z" transform="translate(-30.279 -16.938)"/></g></svg>