<svg height="407" viewBox="0 0 894 407" width="894" xmlns="http://www.w3.org/2000/svg"><path d="m.136-.941-.136 84.941" fill="none" stroke="#47763e" stroke-width="4" transform="translate(447.5 156.5)"/><path d="m7212-231.455v-45.483h618.434v45.616" fill="none" stroke="#47763e" stroke-width="4" transform="translate(-7073 472)"/><rect fill="#47763e" height="167" rx="10" width="278" y="240"/><path d="m-54.572-11.228h-4.028v.84h4.032zm.518 1.834h-5.278v.854h5.278zm-1.4 6.468v2.352h-2.338v-2.352zm.91-.854h-4.156v4.69h.91v-.644h3.248zm-4.13-1.036h4.144v-.84h-4.144zm0-1.862h4.144v-.822h-4.144zm12.18 1.75h-3.346v-5.04h3.066v-.966h-6.986v.966h2.9v5.04h-3.444v.98h3.444v5h1.022v-5h3.346zm-6.93-4.046a16.876 16.876 0 0 1 .724 3.444l.9-.224a16 16 0 0 0 -.784-3.446zm5.236 3.43a36.187 36.187 0 0 0 1.12-3.514l-.98-.252a25.422 25.422 0 0 1 -.938 3.528zm6.972-6.132a15.468 15.468 0 0 1 -3.262 5.446 8.064 8.064 0 0 1 .574.98 14.354 14.354 0 0 0 1.3-1.624v7.924h.994v-9.534a22.62 22.62 0 0 0 1.344-2.9zm6.02 4.592h-1.6v-2.282h1.6zm2.534 6.09h-1.624v-5.152h1.624zm-6.594-5.152h1.556v5.152h-1.554zm4.06 0v5.152h-1.6v-5.152zm3.654-3.22v-.934h-8.848v.938h2.618v2.282h-2.436v7.92h.952v-.91h6.594v.826h1.008v-7.84h-2.546v-2.282zm6.93.616h2.828v-.95h-2.828v-1.96h-.994v1.96h-1.484c.154-.476.294-.994.42-1.484l-.98-.2a11.034 11.034 0 0 1 -1.4 3.684 6.107 6.107 0 0 1 .924.392 10.7 10.7 0 0 0 .7-1.442h1.82v1.47h-3.4v.952h3.4v1.4h-2.758v4.858h.952v-3.906h1.806v5.026h.994v-5.026h1.932v2.856c0 .14-.042.182-.2.182s-.6.014-1.2 0a3.179 3.179 0 0 1 .308.91 4.325 4.325 0 0 0 1.624-.172c.35-.168.42-.434.42-.91v-3.818h-2.884v-1.4h3.374v-.952h-3.374zm5.362-1.694h-.98v7.7h.98zm1.5-1.12v11.214c0 .238-.07.294-.294.308s-1.022 0-1.848-.028a6.046 6.046 0 0 1 .336 1.092 6.887 6.887 0 0 0 2.24-.21c.42-.182.574-.49.574-1.176v-11.2zm16.35 2.184v-.952h-5.222v-1.368h-1.064v1.372h-5.138v4c0 2.016-.1 4.844-1.246 6.832a4.025 4.025 0 0 1 .854.588c1.2-2.114 1.372-5.264 1.372-7.42v-3.052zm-3.36 2.422v1.47h-3.388v-1.47zm1.008 2.31v-2.31h2.252v-.854h-2.252v-1.218h-1.008v1.218h-3.388v-1.218h-.994v1.218h-2.226v.854h2.226v2.31zm-.224 1.736a6.434 6.434 0 0 1 -2.366 1.778 6.271 6.271 0 0 1 -2.268-1.778zm.868-.9-.182.042h-7.91v.854h2.156l-.56.21a7.044 7.044 0 0 0 2.2 2 18.991 18.991 0 0 1 -4.312.9 3.6 3.6 0 0 1 .434.868 18.962 18.962 0 0 0 4.926-1.202 15.97 15.97 0 0 0 4.606 1.232 3.086 3.086 0 0 1 .6-.882 17.8 17.8 0 0 1 -4.114-.882 6.915 6.915 0 0 0 2.814-2.786zm16.38-1.088a5.073 5.073 0 0 0 -5.362-5.152 5.967 5.967 0 0 0 -6.118 5.7c0 2.31 1.246 3.738 2.492 3.738 1.3 0 2.408-1.47 3.262-4.354a27.54 27.54 0 0 0 .84-4.032 3.9 3.9 0 0 1 3.738 4.06 4.228 4.228 0 0 1 -3.556 4.156 10.575 10.575 0 0 1 -1.2.182l.654 1.036c3.318-.434 5.25-2.394 5.25-5.334zm-10.388.448a4.883 4.883 0 0 1 4.34-4.536 22.874 22.874 0 0 1 -.784 3.78c-.714 2.366-1.456 3.308-2.114 3.308-.626 0-1.442-.788-1.442-2.552zm16.422-1.218h6.748v1.456h-6.748zm0-2.324h6.748v1.442h-6.748zm0-2.3h6.748v1.428h-6.748zm6.034 10.266c-.6 0-.714-.07-.714-.476v-2.786h2.474v-7.938h-8.8v7.938h1.89c-.296 1.79-1.038 2.884-3.908 3.458a2.9 2.9 0 0 1 .588.91c3.178-.728 4.074-2.128 4.41-4.368h2.3v2.8c0 1.134.35 1.442 1.666 1.442h2.254c1.176 0 1.484-.5 1.61-2.534a2.855 2.855 0 0 1 -.97-.418c-.056 1.722-.168 1.974-.728 1.974zm16-6.384h-5.332v-1.12h5.334zm0 1.89h-5.332v-1.134h5.334zm0 1.932h-5.332v-1.176h5.334zm-6.326-5.74v6.51h7.35v-6.51h-4.172c.056-.35.126-.728.182-1.134h5.558v-.966h-5.418c.056-.42.112-.84.154-1.246l-1.19-.084c-.014.392-.042.854-.084 1.33h-5.67v.966h5.576c-.042.406-.1.784-.154 1.134zm9.044 7.714h-10.598v-7.322h-1.008v9.016h1.008v-.742h10.6zm6.622-10.29-1.414-.014a7.389 7.389 0 0 1 .112 1.428c0 1.47-.14 5.012-.14 7.084 0 2.282 1.386 3.122 3.4 3.122a7.037 7.037 0 0 0 5.854-3.094l-.8-.952a5.833 5.833 0 0 1 -5.012 2.9c-1.33 0-2.3-.546-2.3-2.086 0-2.086.1-5.39.168-6.972a12.053 12.053 0 0 1 .132-1.416z" fill="#fff" transform="translate(139 371)"/><path d="m63.251 55.5 5.93 5.928 21.008-21.006h-18.569l6.312 6.311-8.751 8.749-5.85-5.849-21.425 20.3 2.894 3.051z" fill="#fff" transform="translate(61.961 235.828)"/><path d="m67.279 102.313-31.007 29.956-8.328-8.328-27.944 26.895h67.279z" fill="#fff" transform="translate(98.36 182.07)"/><rect fill="#47763e" height="167" rx="10" width="278" x="616" y="240"/><path d="m-31.626-2.73v-.924h-5.656v-.9h-.6a1.5 1.5 0 0 0 .378-.084c.42-.126.546-.35.546-.9v-1.962h3.528a12.337 12.337 0 0 1 -1.556 1.69l.924.364a18.859 18.859 0 0 0 2.324-2.674l-.8-.294-.2.056h-2.822l.084-.1a8.881 8.881 0 0 0 -1.064-.42 14.293 14.293 0 0 0 3.206-1.806l-.7-.532-.224.056h-8.218v.854h6.986a13.49 13.49 0 0 1 -2.226 1.022 20.582 20.582 0 0 0 -2.268-.56l-.574.616a23.779 23.779 0 0 1 3.108.868h-6.23v.86h4.256a13.466 13.466 0 0 1 -4.466 2.264 5.218 5.218 0 0 1 .658.812 13.609 13.609 0 0 0 5.1-3.08h.132v1.96c0 .154-.056.21-.266.21s-.882.028-1.652-.014a5.308 5.308 0 0 1 .322.854c.5 0 .924 0 1.274-.014v.854h-5.638v.924h4.634a12.613 12.613 0 0 1 -4.874 2.716 5.844 5.844 0 0 1 .686.868 13.283 13.283 0 0 0 5.194-3.318v3.528h1.036v-3.472a12.7 12.7 0 0 0 5.238 3.178 5.278 5.278 0 0 1 .7-.868 11.888 11.888 0 0 1 -4.954-2.632zm7.616-3.47h-1.47v-1.26h1.47zm0 2.03h-1.47v-1.29h1.47zm-3.738-1.29h1.456v1.288h-1.456zm0-2h1.456v1.26h-1.456zm8.414-.742h1.778c-.182.98-.406 2.016-.616 2.716l.84.238a35.929 35.929 0 0 0 .924-3.752l-.686-.2-.182.042h-3.738c.182-.77.336-1.582.462-2.408l-1.022-.154a13.827 13.827 0 0 1 -1.568 5.362v-1.89h-2.258v-1.062h2.478v-.9h-2.478v-1.512h-.98v1.512h-2.478v.9h2.478v1.064h-2.2v4.858h2.2v1.078h-2.688v.938h2.688v2.422h.98v-2.422h2.674v-.938h-2.674v-1.078h2.254v-2.436a7.181 7.181 0 0 1 .616.448 11.246 11.246 0 0 0 1.25-2.824h.938v2.38a7.056 7.056 0 0 1 -3.584 6.044 7.4 7.4 0 0 1 .6.854 7.19 7.19 0 0 0 3.474-4.928 7.437 7.437 0 0 0 3.108 4.928 10.033 10.033 0 0 1 .63-.878 7.287 7.287 0 0 1 -3.22-6.02zm11.088-2.912-1.232-.112a11.614 11.614 0 0 1 -.434 2.422c-.546.042-1.078.07-1.582.07a13.206 13.206 0 0 1 -1.708-.1l.07 1.05c.532.028 1.12.042 1.638.042.406 0 .826-.014 1.246-.042a20.717 20.717 0 0 1 -3 5.236l1.078.56a24.762 24.762 0 0 0 3.056-5.912 18.986 18.986 0 0 0 2.548-.518l-.028-1.05a13.53 13.53 0 0 1 -2.2.518c.226-.808.422-1.662.548-2.166zm-.77 9.714c0-.644.7-1.12 1.722-1.12a4.854 4.854 0 0 1 1.442.21c.014.238.014.448.014.63 0 .77-.392 1.386-1.554 1.386-1.092 0-1.624-.448-1.624-1.106zm4.074-5.39h-1.092c.028.994.1 2.38.154 3.528a6.248 6.248 0 0 0 -1.372-.138c-1.582 0-2.8.812-2.8 2.1 0 1.386 1.26 2.016 2.8 2.016 1.736 0 2.45-.91 2.45-2.03 0-.168 0-.364-.014-.588a10.464 10.464 0 0 1 2.268 1.608l.6-.952a9.605 9.605 0 0 0 -2.91-1.736c-.028-.868-.084-1.778-.1-2.3s-.012-.934.016-1.508zm2.8.378.63-.924a21.147 21.147 0 0 0 -3.262-1.864l-.574.854a16.394 16.394 0 0 1 3.206 1.934zm12.88-.756a13.748 13.748 0 0 1 -1.19 6.4c-.686.07-1.372.14-2.03.2v-1.098h2.182v-.812h-2.182v-.9h2.142v-4.07h-2.128v-.882h2.168v.77h1.036zm-5.432 2.068h1.386v1.022h-1.386zm0-1.652h1.386v.994h-1.386zm2.142.994v-.994h1.452v.994zm0 1.68v-1.022h1.452v1.022zm4.2-4.41v-3.164h-.91v3.164h-.98v-.658h-2.226v-.966a18.671 18.671 0 0 0 2.17-.378l-.56-.756a36.208 36.208 0 0 1 -4.83.672c.1-.266.182-.546.266-.812l-.924-.252a16.3 16.3 0 0 1 -2.744 5.618 7.288 7.288 0 0 1 .518 1.05 14.805 14.805 0 0 0 1.232-1.862v7.91h.94v-9.8q.4-.9.714-1.848a2.9 2.9 0 0 1 .252.742c.658-.042 1.358-.1 2.058-.168v.854h-2.224v.812h2.222v.882h-2.044v4.074h2.044v.9h-2.086v.812h2.086v1.172l-2.436.224.168.882c1.3-.154 3-.336 4.69-.546-.126.182-.266.35-.406.518a3.276 3.276 0 0 1 .77.546c1.974-2.338 2.24-5.614 2.24-8.3v-.394h1.26c-.108 5.222-.238 7.042-.508 7.434a.4.4 0 0 1 -.42.224c-.238 0-.714-.014-1.26-.056a2.226 2.226 0 0 1 .252.91 7.731 7.731 0 0 0 1.4 0 .977.977 0 0 0 .828-.49c.392-.56.49-2.464.616-8.456 0-.126.014-.49.014-.49zm11.06-1.288a3.269 3.269 0 0 0 .1.35 28.05 28.05 0 0 1 -4.62-.168l.07 1.022a33.547 33.547 0 0 0 4.816.1q.168.5.378 1.092c.084.238.182.476.28.728a31.383 31.383 0 0 1 -5.81-.07l.056 1.05a40.736 40.736 0 0 0 6.16-.028 14.811 14.811 0 0 0 1.092 2.016c-.448-.056-1.358-.154-2.1-.238l-.1.854a25.94 25.94 0 0 1 3.066.448l.574-.854a4.206 4.206 0 0 1 -.518-.6 13.906 13.906 0 0 1 -.98-1.736 21.83 21.83 0 0 0 2.534-.5l-.168-1.05a15.468 15.468 0 0 1 -2.8.6c-.112-.28-.224-.574-.322-.84-.1-.294-.21-.616-.308-.966a20.385 20.385 0 0 0 2.758-.56l-.154-1.008a15.579 15.579 0 0 1 -2.87.63 10.648 10.648 0 0 1 -.336-1.666l-1.19.154c.14.39.284.824.392 1.244zm-2.758 6.066-1.092-.224a4.066 4.066 0 0 0 -.546 2c.014 1.792 1.554 2.6 4.3 2.6a21.292 21.292 0 0 0 3.274-.232l.042-1.12a15.853 15.853 0 0 1 -3.328.294c-2.2 0-3.234-.574-3.234-1.736a2.713 2.713 0 0 1 .584-1.582zm24.066-4.606v-.994h-5.74v-2.436h-1.05v2.436h-5.642v.994h4.3c-.17 3.216-.576 6.846-4.44 8.582a3.539 3.539 0 0 1 .742.854 8 8 0 0 0 4.452-6.16h4.62c-.238 3.234-.5 4.606-.924 4.97-.14.14-.336.154-.658.154-.35 0-1.344 0-2.338-.1a2.38 2.38 0 0 1 .362 1.01c.938.056 1.848.07 2.338.042a1.561 1.561 0 0 0 1.192-.462c.546-.56.826-2.1 1.106-6.09.014-.168.028-.5.028-.5h-5.572c.112-.77.168-1.54.21-2.3z" fill="#fff" transform="translate(755 371)"/><path d="m221.158 243.82v18.167h-6.278a4.873 4.873 0 0 0 4.678 5.047h33.511c.042 0-.041-.012 0-.013v-23.2a1.346 1.346 0 0 0 -1.346-1.345h-29.223a1.345 1.345 0 0 0 -1.342 1.344z" fill="#fff" transform="translate(534.666 57.841)"/><path d="m193.3 54.169a9.118 9.118 0 1 0 -9.118-9.118 9.119 9.119 0 0 0 9.118 9.118z" fill="#fff" transform="translate(561.079 235.568)"/><path d="m719.567 327.345h71.432v5.561h-71.432z" fill="#fff"/><path d="m115.465 222.37.15 5.589h6.827a7.057 7.057 0 0 1 -2.093-5.047v-1.854h6.279v-16.313a3.2 3.2 0 0 1 3.2-3.2h15.972c-4.982-4.181-13-4.482-17.427-4.482-6.472 0-18.254.637-19.326 13.155l-1.519 17.74h6.634z" fill="#fff" transform="translate(627.037 96.916)"/><path d="m15.7 321.2 2.146-15.561h-12.528l2.146 15.561z" fill="#fff" transform="translate(714.991 3.488)"/><path d="m17.03 266.412h-10.895l-.817 3.6h12.529z" fill="#fff" transform="translate(714.991 37.244)"/><g transform="translate(-173 -869)"><g fill="#fff" stroke="#47763e"><rect height="156" rx="10" stroke="none" width="370" x="435" y="869"/><rect fill="none" height="155" rx="9.5" width="369" x="435.5" y="869.5"/></g><path d="m-81.011-11.7a11.191 11.191 0 0 1 -2.94 2.912 6.083 6.083 0 0 1 .588.756 14.858 14.858 0 0 0 3.3-3.318zm.336 2.828a13.056 13.056 0 0 1 -3.43 3.864 7.76 7.76 0 0 1 .588.924 14.227 14.227 0 0 0 1.582-1.5v6.69h.966v-7.826a16 16 0 0 0 1.218-1.834zm5.88 5.068h3.122v-.966h-3.122v-2.748h3.5v-1.008h-2.128a29.525 29.525 0 0 0 1.414-2.828l-.991-.364a18.09 18.09 0 0 1 -1.344 2.884l.784.308h-3.3l.7-.336a17.221 17.221 0 0 0 -1.47-2.744l-.854.336a21.052 21.052 0 0 1 1.386 2.744h-2.17v1.008h3.486v6.986a3.869 3.869 0 0 1 -2.118-2.646 24.949 24.949 0 0 0 .3-2.478l-1.036-.084c-.168 2.674-.63 4.816-2 6.146a5.668 5.668 0 0 1 .8.714 7.1 7.1 0 0 0 1.582-2.856c.967 2.03 2.493 2.548 4.607 2.548h2.352a2.719 2.719 0 0 1 .336-.98c-.434 0-2.31.014-2.618 0a8.322 8.322 0 0 1 -1.218-.084zm14.546-4.536a12.8 12.8 0 0 1 -.714 1.456l.14.042h-3.29l.448-.1a5.44 5.44 0 0 0 -.7-1.4zm4.018 6.09v-.882h-5.614v-1.04h4.382v-.8h-4.382v-1.02h5.068v-.854h-3.178c.28-.42.588-.966.868-1.5h2.8v-.9h-2.17a19.576 19.576 0 0 0 1.232-2.016l-1.064-.28a15.883 15.883 0 0 1 -1.064 2.128l.518.168h-1.694v-2.478h-.98v2.484h-1.666v-2.478h-.966v2.478h-1.722l.714-.266a9.65 9.65 0 0 0 -1.19-2.058l-.882.294a10.913 10.913 0 0 1 1.106 2.03h-2.226v.9h3.416l-.49.1a5.878 5.878 0 0 1 .686 1.4h-3.052v.854h4.914v1.016h-4.214v.8h4.214v1.036h-5.533v.882h4.578a13.493 13.493 0 0 1 -4.939 2.21 4.458 4.458 0 0 1 .672.882 14.069 14.069 0 0 0 5.222-2.758v2.982h1.022v-3.052a13.217 13.217 0 0 0 5.264 2.87 3.743 3.743 0 0 1 .7-.924 12.809 12.809 0 0 1 -5-2.212zm12.362-6.622h-6.622v-1.456h6.622zm1.078-2.3h-8.736v3.136h8.736zm-8.288 8.148h7.77v1.008h-7.77zm0-1.722h7.77v.98h-7.77zm0-1.722h7.77v.98h-7.77zm8.834 5.222v-5.992h-9.87v5.992h2.6a15.339 15.339 0 0 1 -4.112 1.554 7.986 7.986 0 0 1 .77.77 17.771 17.771 0 0 0 4.357-1.722l-.924-.6zm-3.836.7a36.747 36.747 0 0 1 4.4 1.638l.9-.756c-1.092-.448-2.954-1.134-4.4-1.554zm11.256-9.52a9.544 9.544 0 0 0 -2.422-1.5l-.6.742a9.463 9.463 0 0 1 2.38 1.554zm-.575 3.584a11.21 11.21 0 0 0 -2.562-1.274l-.574.8a10.3 10.3 0 0 1 2.548 1.372zm-1.847 7.364c.714-1.3 1.54-3.024 2.156-4.494l-.784-.616a39.62 39.62 0 0 1 -2.282 4.466zm5.558-10.234h2.478v1.568h-2.478zm5.922 2.506v-.938h-2.45v-1.568h2.072v-.91h-2.072v-1.438h-.994v1.442h-2.478v-1.442h-.966v1.442h-2v.91h2v1.568h-2.478v.938h4.172v1.172h-3.584v6.72h.938v-5.8h2.744v2.85h-1.12v-2.09h-.7v3.724h.7v-.84h3.108v.644h.686v-3.528h-.686v2.09h-1.176v-2.846h2.87v4.69c0 .168-.056.224-.252.238s-.854 0-1.568-.028a3.775 3.775 0 0 1 .28.882 7.3 7.3 0 0 0 2.03-.136c.378-.154.476-.434.476-.952v-5.618h-3.738v-1.176zm5.208-3.178h7.42v2.744h-7.42zm4.186 6.86h4.69v-.966h-4.69v-2.156h4.312v-4.746h-9.52v4.746h4.158v5.67a4.407 4.407 0 0 1 -2.6-2.758 16.121 16.121 0 0 0 .35-1.75l-1.106-.126c-.2 2-.868 4.354-2.52 5.628a4.287 4.287 0 0 1 .728.7 6.966 6.966 0 0 0 2.142-3.15c1.329 2.422 3.468 2.954 6.436 2.954h3.08a3.647 3.647 0 0 1 .378-1.008c-.588.014-2.968.014-3.4.014a12.057 12.057 0 0 1 -2.436-.21zm20.673-6.216v-.952h-5.217v-1.368h-1.064v1.372h-5.138v4c0 2.016-.1 4.844-1.246 6.832a4.025 4.025 0 0 1 .854.588c1.2-2.114 1.372-5.264 1.372-7.42v-3.052zm-3.355 2.422v1.47h-3.388v-1.47zm1.008 2.31v-2.31h2.254v-.854h-2.254v-1.218h-1.008v1.218h-3.388v-1.218h-.994v1.218h-2.226v.854h2.226v2.31zm-.224 1.736a6.434 6.434 0 0 1 -2.366 1.778 6.271 6.271 0 0 1 -2.268-1.778zm.868-.9-.182.042h-7.915v.854h2.156l-.56.21a7.044 7.044 0 0 0 2.2 2 18.991 18.991 0 0 1 -4.309.906 3.6 3.6 0 0 1 .434.868 18.962 18.962 0 0 0 4.928-1.208 15.97 15.97 0 0 0 4.606 1.232 3.086 3.086 0 0 1 .6-.882 17.8 17.8 0 0 1 -4.114-.882 6.915 6.915 0 0 0 2.814-2.786zm16.184 5.156.84-.434a8.761 8.761 0 0 1 -2.6-6.23 8.761 8.761 0 0 1 2.6-6.23l-.84-.434a9.3 9.3 0 0 0 -2.786 6.664 9.3 9.3 0 0 0 2.786 6.664zm4-1.344h6.076v-1.106h-4.77v-3.738h3.892v-1.106h-3.892v-3.22h4.62v-1.092h-5.922zm12.212.182c2.142 0 3.486-1.288 3.486-2.912 0-1.526-.924-2.226-2.114-2.744l-1.465-.626c-.8-.34-1.7-.718-1.7-1.712 0-.924.756-1.512 1.918-1.512a3.325 3.325 0 0 1 2.338.966l.686-.826a4.208 4.208 0 0 0 -3.024-1.274c-1.862 0-3.234 1.148-3.234 2.73a2.9 2.9 0 0 0 2.087 2.628l1.484.644c.966.434 1.708.77 1.708 1.82 0 1.008-.812 1.68-2.156 1.68a4.032 4.032 0 0 1 -2.842-1.274l-.77.882a4.9 4.9 0 0 0 3.598 1.53zm6.707-12.166-.84.434a8.761 8.761 0 0 1 2.6 6.23 8.761 8.761 0 0 1 -2.6 6.23l.84.434a9.3 9.3 0 0 0 2.785-6.664 9.3 9.3 0 0 0 -2.785-6.664zm18.326.756h-3.445v.84h3.444zm.392 1.834h-4.495v.854h4.494zm-.365 1.894h-3.553v.826h3.556zm-3.553 2.684h3.556v-.84h-3.556zm2.688 1.89v2.338h-1.865v-2.338zm.865 3.178v-4.032h-3.57v4.69h.84v-.658zm2.618-6.86v.8h4.1v-.8h-1.692v-1.344h1.484v-.8h-1.484v-1.2h-.854v1.2h-1.442v.8h1.442v1.344zm3.01 2.674v2h-2.016v-2zm.8 2.8v-3.6h-3.614v4.146h.8v-.546zm1.82-10h-7.184v4.984c0 2.058-.084 4.788-1.176 6.72a3.513 3.513 0 0 1 .812.574c1.162-2.044 1.316-5.12 1.316-7.29v-4.074h5.278v9.968c0 .238-.07.294-.28.294-.238.014-.967.028-1.708-.014a4.983 4.983 0 0 1 .308 1.022 6.407 6.407 0 0 0 2.114-.182c.392-.168.518-.5.518-1.12zm6.314 9.94h5.67v1.026h-5.67zm5.67-3.556v.994h-5.67v-.994zm0 2.786h-5.67v-1.018h5.67zm1.05-3.668h-7.73v5.46h-2.352v.942h12.418v-.938h-2.338zm2.3-3.4v-.924h-5.718v-1.764h-1.008v1.764h-5.6v.924h4.48a12.179 12.179 0 0 1 -4.789 3.11 3.987 3.987 0 0 1 .658.812 13.077 13.077 0 0 0 5.251-3.89v2.94h1.008v-2.928a12.809 12.809 0 0 0 5.306 3.78 3.222 3.222 0 0 1 .686-.826 12.465 12.465 0 0 1 -4.9-3zm-193.647 37.032h2.632c3.094 0 4.788-1.918 4.788-5.166s-1.694-5.1-4.844-5.1h-2.576zm1.3-1.064v-8.148h1.162c2.422 0 3.612 1.442 3.612 4.046s-1.19 4.1-3.612 4.1zm8.68-2.366h3.584v-.98h-3.584zm10.612 3.612a3.967 3.967 0 0 0 3.15-1.47l-.714-.812a3.119 3.119 0 0 1 -2.38 1.148c-1.96 0-3.192-1.624-3.192-4.214 0-2.562 1.288-4.158 3.234-4.158a2.8 2.8 0 0 1 2.1.98l.7-.84a3.8 3.8 0 0 0 -2.814-1.274c-2.6 0-4.55 2.016-4.55 5.334s1.92 5.306 4.468 5.306zm9.52 0c2.576 0 4.382-2.058 4.382-5.348s-1.806-5.292-4.382-5.292-4.382 2-4.382 5.292 1.808 5.348 4.382 5.348zm0-1.134c-1.848 0-3.052-1.652-3.052-4.214s1.2-4.158 3.052-4.158 3.052 1.582 3.052 4.158-1.216 4.214-3.052 4.214zm7.714.952h1.176v-5.684c0-.882-.1-2.128-.154-3.024h.056l.812 2.338 1.946 5.334h.868l1.946-5.334.812-2.338h.056c-.07.9-.168 2.142-.168 3.024v5.684h1.218v-10.262h-1.568l-1.96 5.488c-.238.714-.462 1.428-.7 2.142h-.07c-.252-.714-.49-1.428-.728-2.142l-1.974-5.488h-1.568zm12.486 0h1.3v-4.074h1.7c2.24 0 3.78-1.008 3.78-3.178 0-2.24-1.54-3.01-3.85-3.01h-2.93zm1.3-5.124v-4.088h1.47c1.806 0 2.716.476 2.716 1.96s-.854 2.128-2.66 2.128zm9.156.952.5-1.568c.364-1.162.7-2.268 1.022-3.472h.056c.336 1.19.658 2.31 1.036 3.472l.49 1.568zm4.416 4.172h1.372l-3.486-10.262h-1.442l-3.486 10.262h1.316l.994-3.136h3.752zm6.79.182c2.142 0 3.486-1.288 3.486-2.912 0-1.526-.924-2.226-2.114-2.744l-1.47-.63c-.8-.336-1.694-.714-1.694-1.708 0-.924.756-1.512 1.918-1.512a3.325 3.325 0 0 1 2.338.966l.686-.826a4.208 4.208 0 0 0 -3.024-1.274c-1.862 0-3.234 1.148-3.234 2.73a2.9 2.9 0 0 0 2.086 2.628l1.484.644c.966.434 1.708.77 1.708 1.82 0 1.008-.812 1.68-2.156 1.68a4.032 4.032 0 0 1 -2.842-1.274l-.77.882a4.9 4.9 0 0 0 3.598 1.53zm9.268 0c2.142 0 3.486-1.288 3.486-2.912 0-1.526-.924-2.226-2.114-2.744l-1.47-.63c-.8-.336-1.694-.714-1.694-1.708 0-.924.756-1.512 1.918-1.512a3.325 3.325 0 0 1 2.338.966l.686-.826a4.208 4.208 0 0 0 -3.024-1.274c-1.862 0-3.234 1.148-3.234 2.73a2.9 2.9 0 0 0 2.086 2.628l1.484.644c.966.434 1.708.77 1.708 1.82 0 1.008-.812 1.68-2.156 1.68a4.032 4.032 0 0 1 -2.844-1.27l-.77.882a4.9 4.9 0 0 0 3.6 1.526zm17.738 1.162.84-.434a8.761 8.761 0 0 1 -2.6-6.23 8.761 8.761 0 0 1 2.6-6.23l-.84-.434a9.3 9.3 0 0 0 -2.786 6.664 9.3 9.3 0 0 0 2.786 6.664zm14.742-10.794a19.841 19.841 0 0 0 -1.148-1.918l-.742.322a14.843 14.843 0 0 1 1.134 1.932zm-3.178.336c.406 0 .9.014 1.3.042v-1.162a10.329 10.329 0 0 1 -1.3.084h-4.844a12.165 12.165 0 0 1 -1.274-.084v1.162c.364-.028.826-.042 1.288-.042zm-6.552 2.464c-.434 0-.84-.028-1.218-.056v1.148c.378-.028.784-.028 1.218-.028h4.186a6.778 6.778 0 0 1 -.812 3.472 5.8 5.8 0 0 1 -2.646 2.142l1.036.77a6.832 6.832 0 0 0 2.756-2.562 8.474 8.474 0 0 0 .826-3.822h3.81c.336 0 .784.014 1.092.028v-1.148a10.013 10.013 0 0 1 -1.092.056zm9.38-4.97a13.335 13.335 0 0 1 1.162 1.932l.756-.336a18.412 18.412 0 0 0 -1.176-1.9zm13.426 3.178a14.43 14.43 0 0 1 -3.612 2.884 18.494 18.494 0 0 1 -4.858 1.918l.6 1.022a24.387 24.387 0 0 0 4.4-1.792v4.284c0 .42-.028.994-.056 1.2h1.288a7.016 7.016 0 0 1 -.07-1.2v-4.956a17.191 17.191 0 0 0 3.178-2.534zm6.454 3.752c.434-.042 1.176-.07 1.946-.07h7.686c.63 0 1.218.056 1.5.07v-1.372c-.308.028-.812.07-1.512.07h-7.674c-.784 0-1.526-.042-1.946-.07zm25.578 4.816c-.014-.224-.056-.854-.056-1.358v-7.224c0-.336.028-.77.042-1.092-.28.014-.7.028-1.036.028h-6.9a14.128 14.128 0 0 1 -1.528-.08v1.246c.336-.014 1.022-.042 1.54-.042h6.706v6.608h-6.874c-.588 0-1.19-.042-1.554-.07v1.258c.378-.028 1.008-.056 1.582-.056h6.846c-.014.336-.014.63-.028.784zm6.412-10.388-.8.854a29.076 29.076 0 0 1 3.486 2.926l.882-.882a30.656 30.656 0 0 0 -3.568-2.898zm-1.2 9.38.742 1.148a15.091 15.091 0 0 0 5.5-2.184 13.964 13.964 0 0 0 4.7-4.97l-.672-1.19a13.188 13.188 0 0 1 -4.676 5.152 14.456 14.456 0 0 1 -5.598 2.044zm24.108-8.876a.932.932 0 0 1 .91-.938.947.947 0 0 1 .938.938.935.935 0 0 1 -.938.924.92.92 0 0 1 -.914-.924zm-.644 0a1.568 1.568 0 1 0 3.136 0 1.568 1.568 0 1 0 -3.136 0zm-7.266 5.544a18.389 18.389 0 0 1 -2.156 3.808l1.19.5a20.3 20.3 0 0 0 2.058-3.85 31.119 31.119 0 0 0 1.27-4.364c.056-.308.168-.714.252-1.022l-1.242-.252a21.4 21.4 0 0 1 -1.376 5.18zm6.888-.532a41.955 41.955 0 0 1 1.582 4.816l1.246-.406c-.364-1.26-1.106-3.4-1.68-4.788a45.257 45.257 0 0 0 -2.044-4.424l-1.134.378a35.8 35.8 0 0 1 2.026 4.424zm15.666-5.166a3.729 3.729 0 0 1 -1.05.126h-5.4c-.42 0-1.218-.07-1.414-.1v1.276c.154-.014.924-.07 1.414-.07h5.46a12.475 12.475 0 0 1 -2.324 3.892 16.009 16.009 0 0 1 -5.768 4.158l.9.938a17.748 17.748 0 0 0 5.46-4.088 32.325 32.325 0 0 1 3.85 4.158l.98-.854a40.148 40.148 0 0 0 -4.088-4.172 17.719 17.719 0 0 0 2.352-4.1 4.016 4.016 0 0 1 .35-.616zm6.118-2.072-.84.434a8.755 8.755 0 0 1 0 12.46l.84.434a9.363 9.363 0 0 0 0-13.328z" transform="translate(620 977)"/><g fill="#47763e"><path d="m214.241 11.934a5.967 5.967 0 1 0 -5.967-5.966 5.967 5.967 0 0 0 5.967 5.966z" transform="translate(390.953 888.52)"/><path d="m181.326 119.275h-10.387c-2.87 0-5.993 3.123-5.993 5.994v19.911a2.6 2.6 0 0 0 2.6 2.6h1.814l1.147 19.746h11.246l1.157-19.746h1.814a2.6 2.6 0 0 0 2.6-2.6v-19.911c-.005-2.869-3.124-5.994-5.998-5.994zm-6.788 11.561v-9.465h3.189v9.465l-1.595 2.132z" transform="translate(428.919 784.005)"/><path d="m213.512 11.919a5.96 5.96 0 1 0 -5.96-5.957 5.96 5.96 0 0 0 5.96 5.957z" transform="translate(426.847 888.52)"/><path d="m159.155 137.641 2.047-10.326c.213-3.92-2.736-6.859-5.613-6.859h-8.851c-2.876 0-5.825 2.939-5.613 6.859l2.048 10.326-6.651 17.39h8.917l1.889 13.407h7.592l1.967-13.407h8.917zm-2.054-9.3h-4.557v-1.831h4.556z" transform="translate(489.477 782.826)"/></g></g><rect fill="#1e4a16" height="167" rx="10" width="278" x="308" y="240"/><g fill="#fff"><path d="m-66.164-3.78a10.061 10.061 0 0 1 -.91 3.332 3.637 3.637 0 0 1 .812.392 12.321 12.321 0 0 0 .994-3.556zm3.752-1.02a4.831 4.831 0 0 1 .266.8l.826-.392a11.967 11.967 0 0 0 -1.386-2.842l-.77.336a13.09 13.09 0 0 1 .686 1.246c-.77.028-1.54.07-2.24.1a45.216 45.216 0 0 0 2.9-4.172l-.9-.392c-.392.756-.924 1.666-1.5 2.548a9.853 9.853 0 0 0 -.854-.966 25.19 25.19 0 0 0 1.6-2.814l-.924-.35a19.11 19.11 0 0 1 -1.246 2.6c-.14-.126-.28-.252-.42-.364l-.532.686a12.718 12.718 0 0 1 1.834 2 13.748 13.748 0 0 1 -.938 1.246c-.322.014-.644.028-.924.028l.084.938 2.282-.112v5.768h.938v-5.824zm-.714 1.218a13.943 13.943 0 0 1 .9 2.716l.826-.28a12.128 12.128 0 0 0 -.938-2.688zm3.472.63h3.554v2.672h-3.556zm3.554-7.03v2.576h-3.556v-2.576zm0 6.09h-3.556v-2.576h3.556zm1.024 3.612v-10.64h-5.586v10.64h-1.484v.952h8.146v-.952zm15.946-8.036a14.067 14.067 0 0 0 -1.386-2.464l-.77.322a16.577 16.577 0 0 1 1.344 2.52zm-12.1 4.536a12.052 12.052 0 0 1 -.686 3.332 4.022 4.022 0 0 1 .742.35 13.208 13.208 0 0 0 .756-3.528zm2.506.154a13.826 13.826 0 0 1 .686 2.632l.77-.238a14.287 14.287 0 0 0 -.728-2.618zm-.392-3.3a9.572 9.572 0 0 1 .574 1.2l-1.624.084a44.677 44.677 0 0 0 2.45-4.1l-.84-.35c-.308.7-.728 1.54-1.176 2.352-.182-.266-.406-.56-.644-.854a29.17 29.17 0 0 0 1.3-2.8l-.9-.308a19.313 19.313 0 0 1 -.942 2.502c-.126-.14-.252-.266-.378-.392l-.476.7a12.587 12.587 0 0 1 1.572 1.976c-.28.476-.56.924-.826 1.3l-.868.042.084.938c.574-.042 1.2-.084 1.89-.14v5.84h.868v-5.908l.84-.07a6.805 6.805 0 0 1 .224.826l.784-.322a10.578 10.578 0 0 0 -1.166-2.79zm3.024 5.642v-1.3h2.1v1.3zm2.1-3.332v1.274h-2.1v-1.278zm3.752-.924a10.515 10.515 0 0 1 -.952 2.422c-.126-.9-.21-1.974-.28-3.164h2.394v-.858h-2.432c-.056-1.372-.084-2.9-.084-4.508h-.9c.028 1.61.056 3.122.112 4.508h-1.554c.238-.518.476-1.316.714-2l-.84-.21h1.288v-.812h-1.89v-1.554h-.966v1.554h-1.862v.812h3.374a13.9 13.9 0 0 1 -.56 2.058l.574.154h-2.17l.6-.154a7.275 7.275 0 0 0 -.456-2.018l-.728.168a7.881 7.881 0 0 1 .42 2h-1.362v.854h5.46a35.709 35.709 0 0 0 .42 4.3 8.435 8.435 0 0 1 -1.2 1.344v-4.746h-3.794v5.712h.826v-.822h2.814a8.5 8.5 0 0 1 -1.26.952 4.871 4.871 0 0 1 .658.658 10.357 10.357 0 0 0 2.212-1.992c.364 1.274.868 2 1.61 2.03.49.014.952-.546 1.2-2.6a3.156 3.156 0 0 1 -.686-.518c-.08 1.214-.26 1.97-.486 1.956-.392-.028-.714-.672-.952-1.792a12.152 12.152 0 0 0 1.578-3.514zm8.148-.07h-2.94v-2.93h2.94zm-2.94 4.284v-3.364h2.94v3.36zm1.176-10.416a17.28 17.28 0 0 1 -.56 2.268h-1.564v10.188h.952v-1.106h3.892v-9.086h-2.324c.238-.6.49-1.372.728-2.058zm9.566 2.222h-4.186a19.666 19.666 0 0 0 .6-2.016l-.994-.238a14.205 14.205 0 0 1 -2.14 5.082 7.651 7.651 0 0 1 .854.588 11.788 11.788 0 0 0 1.316-2.45h3.556c-.182 5.572-.392 7.7-.854 8.19-.14.182-.294.21-.574.21-.322 0-1.162 0-2.072-.084a2.408 2.408 0 0 1 .35 1.022 14.755 14.755 0 0 0 2.072.016 1.393 1.393 0 0 0 1.106-.56c.56-.686.742-2.842.966-9.226zm-2.21 6.3a27.391 27.391 0 0 0 -2.2-3.164l-.812.476a24.908 24.908 0 0 1 2.128 3.234zm11.94 2.842v-3.556h4.494v-1.008h-4.494v-3.052h5.012v-1.022h-5.012v-2.684h-1.064v2.688h-2.842a19.217 19.217 0 0 0 .784-2.24l-1.05-.224a12.763 12.763 0 0 1 -2.59 5.152 6.971 6.971 0 0 1 .952.616 12.561 12.561 0 0 0 1.456-2.282h3.29v3.052h-4.158v1.008h4.158v3.552h-5.67v1.008h12.4v-1.008zm16.17-1.512h3.346v-.84h-3.346v-1.47h3.71v-.84h-3.71v-1.246h-1.036v1.246h-2.174a7.72 7.72 0 0 0 .462-1.05l-.938-.224a7.361 7.361 0 0 1 -1.788 2.914 5.716 5.716 0 0 1 .812.5 9.066 9.066 0 0 0 .994-1.3h2.632v1.47h-3.164v.84h3.164v1.764h-4.354v.9h9.94v-.9h-4.55zm.8-7.672a16.264 16.264 0 0 1 -.756 1.834l.49.168h-4.27l.63-.182a6 6 0 0 0 -.77-1.82zm.14 2c.322-.518.7-1.218 1.05-1.876l-.52-.124h2.436v-.9h-5v-1.26h-1.016v1.26h-4.918v.9h2.9l-.714.2a7.7 7.7 0 0 1 .74 1.802h-2.716v2.17a10.913 10.913 0 0 1 -1.274 5.782 4.538 4.538 0 0 1 .8.658c1.232-1.862 1.47-4.606 1.47-6.44v-1.246h10.442v-.924zm6.816 2.354a15.613 15.613 0 0 0 .7-3.752l-.784-.112a14.146 14.146 0 0 1 -.728 3.584zm1.2 6.272h1.036v-12.782h-1.032zm1.134-10.206a13.935 13.935 0 0 1 .966 2.38l.784-.378a13.221 13.221 0 0 0 -1.022-2.338zm6.15 8.736v-3.5h2.856v-.966h-2.856v-2.9h3.164v-.994h-3.164v-2.9h-1.036v2.9h-1.75c.2-.686.364-1.414.5-2.142l-1.008-.168a13.63 13.63 0 0 1 -1.694 5 8.167 8.167 0 0 1 .924.476 10.1 10.1 0 0 0 .98-2.17h2.044v2.9h-2.964v.966h2.968v3.5h-4v.992h8.54v-.994zm18.102-4.494a5.073 5.073 0 0 0 -5.362-5.152 5.967 5.967 0 0 0 -6.118 5.7c0 2.31 1.246 3.738 2.492 3.738 1.3 0 2.408-1.47 3.262-4.354a27.54 27.54 0 0 0 .84-4.032 3.9 3.9 0 0 1 3.734 4.058 4.228 4.228 0 0 1 -3.552 4.158 10.575 10.575 0 0 1 -1.2.182l.652 1.036c3.32-.434 5.252-2.394 5.252-5.334zm-10.388.448a4.883 4.883 0 0 1 4.336-4.536 22.874 22.874 0 0 1 -.784 3.78c-.714 2.366-1.456 3.3-2.114 3.3-.626.008-1.438-.78-1.438-2.544zm23.688-4.928v1.89h-4.652v-1.89zm.56 4.97v2.17h-5.212v-2.17zm-6.2 3.066h7.21v-3.948h-6.222v-1.33h5.66v-3.64h-3.248c.182-.392.378-.854.546-1.3l-1.176-.2a12.642 12.642 0 0 1 -.448 1.5h-2.324zm-1.164-7.868a10.653 10.653 0 0 0 -2.436-2.156l-.77.63a9.659 9.659 0 0 1 2.38 2.212zm-.392 2.982h-2.968v.98h1.946v3.542a23.378 23.378 0 0 1 -2.128 1.6l.56 1.05c.742-.6 1.442-1.2 2.114-1.792a4.989 4.989 0 0 0 3.962 1.65c1.54.056 4.41.028 5.936-.028a4.737 4.737 0 0 1 .336-1.064c-1.638.112-4.746.154-6.272.1a4.075 4.075 0 0 1 -3.486-1.568zm16.7 2.422c-1.708.98-3.514 1.988-4.7 2.6l.63.924c1.246-.7 2.9-1.68 4.4-2.6zm-.5-1.2a12.33 12.33 0 0 0 -2.268-2.534l-.8.532a12.14 12.14 0 0 1 2.226 2.6zm4.044-5.992a16.418 16.418 0 0 1 2.548 1.638l.658-.728a16.873 16.873 0 0 0 -2.59-1.568zm2.772 3.2a20.832 20.832 0 0 1 -2.572 2.8 14.529 14.529 0 0 1 -1.512-3.234v-.14h5.6v-.994h-5.6v-2.31h-1.05v2.31h-5.5v.994h5.5v8.024c0 .28-.1.35-.364.364s-1.18.014-2.146-.014a5.068 5.068 0 0 1 .378 1.092 8.95 8.95 0 0 0 2.52-.2c.476-.182.658-.5.658-1.246v-5.512a11.82 11.82 0 0 0 5.25 5.908 3.907 3.907 0 0 1 .756-.91 9.691 9.691 0 0 1 -3.976-3.346 29.41 29.41 0 0 0 2.954-2.954z" transform="translate(447 371)"/><path d="m203.993 14.221a7.111 7.111 0 1 0 -7.11-7.11 7.111 7.111 0 0 0 7.11 7.11z" transform="translate(243.474 271.5)"/><path d="m188.806 138.383c4.884 0 9.887-1.691 9.106-6.374a13.058 13.058 0 0 0 -3.085-5.761 1.39 1.39 0 0 0 -1.045-.076 9.454 9.454 0 0 1 -9.951 0 1.39 1.39 0 0 0 -1.045.076 13.06 13.06 0 0 0 -3.085 5.761c-.781 4.683 4.221 6.374 9.105 6.374z" transform="translate(258.662 160.563)"/><path d="m43.676 298.023a7.111 7.111 0 1 0 -7.11-7.11 7.111 7.111 0 0 0 7.11 7.11z" transform="translate(384.51 21.831)"/><path d="m34.512 410.052a1.385 1.385 0 0 0 -1.045-.077 9.458 9.458 0 0 1 -9.951 0 1.388 1.388 0 0 0 -1.046.077 13.048 13.048 0 0 0 -3.084 5.76c-.781 4.683 4.222 6.373 9.105 6.373s9.887-1.69 9.106-6.373a13.057 13.057 0 0 0 -3.085-5.76z" transform="translate(399.695 -89.108)"/><path d="m364.3 298.023a7.111 7.111 0 1 0 -7.111-7.11 7.11 7.11 0 0 0 7.111 7.11z" transform="translate(102.449 21.831)"/><path d="m358.222 415.813a13.051 13.051 0 0 0 -3.084-5.76 1.388 1.388 0 0 0 -1.046-.077 9.458 9.458 0 0 1 -9.951 0 1.386 1.386 0 0 0 -1.045.077 13.06 13.06 0 0 0 -3.084 5.76c-.781 4.683 4.221 6.373 9.106 6.373s9.882-1.686 9.104-6.373z" transform="translate(117.631 -89.108)"/><path d="m190.779 255-8.478-4.894v-9.788a1.172 1.172 0 1 0 -2.344 0v9.788l-8.478 4.894a1.173 1.173 0 0 0 1.173 2.032l8.477-4.895 8.478 4.894a1.173 1.173 0 0 0 1.172-2.031z" transform="translate(266.339 61.116)"/></g></svg>