<svg height="75.704" viewBox="0 0 86.37 75.704" width="86.37" xmlns="http://www.w3.org/2000/svg"><g fill="#47763e"><path d="m150.326 64.179a184.234 184.234 0 0 0 11.845 19.038l2.293 3.189 2.29-3.189c.026-.034 4.062-5.656 8.134-12.443a106.646 106.646 0 0 0 5.656-10.582 42.528 42.528 0 0 0 1.94-5.063 16.561 16.561 0 0 0 .807-4.686 18.83 18.83 0 1 0 -37.66 0 16.663 16.663 0 0 0 .809 4.686 54.6 54.6 0 0 0 3.886 9.05zm4.81-23.066a13.188 13.188 0 0 1 22.515 9.328 11.355 11.355 0 0 1 -.567 3.063 49.321 49.321 0 0 1 -3.487 8.068c-2.3 4.415-5.169 9.03-7.451 12.517q-.921 1.4-1.682 2.525c-1.595-2.356-3.809-5.735-5.975-9.391a95.663 95.663 0 0 1 -5.1-9.66 34.405 34.405 0 0 1 -1.584-4.186 11.006 11.006 0 0 1 -.53-2.936 13.136 13.136 0 0 1 3.862-9.327z" transform="translate(-121.065 -31.609)"/><path d="m227.085 119.185a6.124 6.124 0 1 0 -6.126-6.123 6.123 6.123 0 0 0 6.126 6.123z" transform="translate(-183.685 -94.23)"/><path d="m86.339 306.149a3.384 3.384 0 0 0 -.19-.738 4.076 4.076 0 0 0 -.369-.756l-16.486-27.549a1.155 1.155 0 0 0 -.129-.182c-.053-.061-.111-.116-.174-.177s-.134-.113-.211-.171-.161-.111-.248-.161a3.739 3.739 0 0 0 -.422-.224c-.153-.071-.314-.14-.485-.206s-.343-.121-.53-.169-.377-.111-.575-.156-.4-.084-.611-.121-.424-.066-.641-.09-.435-.042-.659-.053-.44-.024-.662-.024h-8.054c-.066.111-.121.211-.187.322q-.609 1.012-1.207 1.979h9.167l2.217 4.831h-12.412l-.482-2.435c-.952 1.481-1.829 2.81-2.575 3.906h.105l1 7.575h-16.677l1-7.575h.1c-.746-1.1-1.624-2.425-2.575-3.906l-.482 2.435h-12.408l2.219-4.831h9.167q-.6-.969-1.21-1.979c-.066-.111-.121-.211-.187-.322h-8.054c-.221 0-.44.011-.662.024s-.443.032-.659.053-.432.055-.641.09-.411.076-.609.121-.39.1-.575.156-.364.111-.532.169-.332.134-.485.206a3.739 3.739 0 0 0 -.422.224c-.087.05-.169.108-.245.161s-.148.116-.214.171a2.148 2.148 0 0 0 -.171.177 1.2 1.2 0 0 0 -.134.182l-16.483 27.549a4.446 4.446 0 0 0 -.369.756 3.368 3.368 0 0 0 -.187.738 2.811 2.811 0 0 0 -.011.712 2.637 2.637 0 0 0 .509 1.271 2.882 2.882 0 0 0 .506.543 3.933 3.933 0 0 0 .67.461 5.388 5.388 0 0 0 .822.377c.2.066.414.132.638.187s.451.1.693.14.493.066.751.09.522.029.8.029h75.562c.271 0 .538-.013.8-.029s.509-.05.751-.09.472-.084.693-.14.435-.121.638-.187a5.635 5.635 0 0 0 .822-.377 4.057 4.057 0 0 0 .67-.461 3.159 3.159 0 0 0 .506-.543 2.669 2.669 0 0 0 .506-1.271 2.918 2.918 0 0 0 -.011-.712zm-57.539-2.991h-17.8l4.367-9.518h15.316zm2.3-11.605h-14.772l3.474-7.575h12.798zm12.085 11.605h-9.877l1.257-9.518h17.235l1.26 9.518zm10.582-19.18h12.791l3.476 7.575h-14.771zm3.8 19.18-1.887-9.518h15.314l4.368 9.518z" transform="translate(.005 -234.254)"/></g></svg>