<svg height="77.748" viewBox="0 0 77.748 77.748" width="77.748" xmlns="http://www.w3.org/2000/svg"><g fill="#47763e"><path d="m87.136 198.8a1.259 1.259 0 0 0 .364.06 1.2 1.2 0 0 0 1.154-.851 1.217 1.217 0 0 0 -.777-1.53 1.234 1.234 0 0 0 -1.532.79 1.213 1.213 0 0 0 .791 1.531z" transform="translate(-73.184 -166.6)"/><path d="m148.622 113.689a1.252 1.252 0 0 0 .73-.243h-.012a1.208 1.208 0 0 0 .267-1.689 1.224 1.224 0 0 0 -1.7-.267 1.209 1.209 0 0 0 -.255 1.7 1.194 1.194 0 0 0 .97.499z" transform="translate(-125.025 -94.363)"/><path d="m248.133 80.649h.012a1.215 1.215 0 0 0 -.012-2.43 1.23 1.23 0 0 0 -1.215 1.228 1.215 1.215 0 0 0 1.215 1.202z" transform="translate(-209.423 -66.341)"/><path d="m348.074 112.484a1.21 1.21 0 0 0 .983-.51 1.21 1.21 0 1 0 -1.688.279 1.184 1.184 0 0 0 .705.231z" transform="translate(-294.191 -93.342)"/><path d="m87.713 301.327a1.2 1.2 0 0 0 -.765 1.53h-.012a1.226 1.226 0 0 0 1.166.839 1.058 1.058 0 0 0 .376-.062 1.216 1.216 0 0 0 -.765-2.308z" transform="translate(-73.689 -255.519)"/><path d="m149.09 386.274a1.225 1.225 0 0 0 .28 1.7 1.264 1.264 0 0 0 .7.218 1.233 1.233 0 0 0 1-.5 1.219 1.219 0 0 0 -1.98-1.421z" transform="translate(-126.259 -327.188)"/><path d="m411.158 299.889a1.213 1.213 0 0 0 -1.53.79 1.2 1.2 0 0 0 .79 1.518.98.98 0 0 0 .376.06 1.212 1.212 0 0 0 .364-2.369z" transform="translate(-347.375 -254.301)"/><path d="m410.249 196.979a1.46 1.46 0 0 0 .376-.06 1.236 1.236 0 0 0 .778-1.543l-.037-.072v-.013a1.216 1.216 0 0 0 -2.309.766.16.16 0 0 1 .025.072c.012 0 .012 0 .012.012a1.212 1.212 0 0 0 1.155.838z" transform="translate(-346.891 -164.935)"/><path d="m348.824 385.14a1.21 1.21 0 0 0 -.267 1.7 1.231 1.231 0 0 0 .983.5 1.178 1.178 0 0 0 .7-.243 1.209 1.209 0 1 0 -1.421-1.956z" transform="translate(-295.427 -326.456)"/><path d="m249.962 417.742a1.215 1.215 0 0 0 .013 2.43 1.215 1.215 0 1 0 -.013-2.43z" transform="translate(-210.986 -354.308)"/><path d="m38.874 0a38.874 38.874 0 1 0 38.874 38.874 38.918 38.918 0 0 0 -38.874-38.874zm0 68.492a29.618 29.618 0 1 1 29.618-29.618 29.651 29.651 0 0 1 -29.618 29.618z"/><path d="m241.36 130.672h-6.352v24.228h21.057v-6.352h-14.705z" transform="translate(-199.322 -110.829)"/></g></svg>