<svg height="61.406" viewBox="0 0 71.432 61.406" width="71.432" xmlns="http://www.w3.org/2000/svg"><g fill="#fff"><path d="m221.158 243.82v18.167h-6.278a4.873 4.873 0 0 0 4.678 5.047h33.511c.042 0-.041-.012 0-.013v-23.2a1.346 1.346 0 0 0 -1.346-1.345h-29.223a1.345 1.345 0 0 0 -1.342 1.344z" transform="translate(-184.901 -213.659)"/><path d="m193.3 54.169a9.118 9.118 0 1 0 -9.118-9.118 9.119 9.119 0 0 0 9.118 9.118z" transform="translate(-158.488 -35.932)"/><path d="m0 55.845h71.432v5.561h-71.432z"/><path d="m115.465 222.37.15 5.589h6.827a7.057 7.057 0 0 1 -2.093-5.047v-1.854h6.279v-16.313a3.2 3.2 0 0 1 3.2-3.2h15.972c-4.982-4.181-13-4.482-17.427-4.482-6.472 0-18.254.637-19.326 13.155l-1.519 17.74h6.634z" transform="translate(-92.53 -174.584)"/><path d="m15.7 321.2 2.146-15.561h-12.528l2.146 15.561z" transform="translate(-4.576 -268.012)"/><path d="m17.03 266.412h-10.895l-.817 3.6h12.529z" transform="translate(-4.576 -234.256)"/></g></svg>