<svg height="63.01" viewBox="0 0 61.417 63.01" width="61.417" xmlns="http://www.w3.org/2000/svg"><g fill="#47763e"><path d="m214.241 11.934a5.967 5.967 0 1 0 -5.967-5.966 5.967 5.967 0 0 0 5.967 5.966z" transform="translate(-202.912)"/><path d="m181.326 119.275h-10.387c-2.87 0-5.993 3.123-5.993 5.994v19.911a2.6 2.6 0 0 0 2.6 2.6h1.814l1.147 19.746h11.246l1.157-19.746h1.814a2.6 2.6 0 0 0 2.6-2.6v-19.911c-.005-2.869-3.124-5.994-5.998-5.994zm-6.788 11.561v-9.465h3.189v9.465l-1.595 2.132z" transform="translate(-164.946 -104.515)"/><path d="m213.512 11.919a5.96 5.96 0 1 0 -5.96-5.957 5.96 5.96 0 0 0 5.96 5.957z" transform="translate(-167.017)"/><path d="m159.155 137.641 2.047-10.326c.213-3.92-2.736-6.859-5.613-6.859h-8.851c-2.876 0-5.825 2.939-5.613 6.859l2.048 10.326-6.651 17.39h8.917l1.889 13.407h7.592l1.967-13.407h8.917zm-2.054-9.3h-4.557v-1.831h4.556z" transform="translate(-104.387 -105.694)"/></g></svg>