<svg height="61.578" viewBox="0 0 56.935 61.578" width="56.935" xmlns="http://www.w3.org/2000/svg"><g fill="#fff"><path d="m203.993 14.221a7.111 7.111 0 1 0 -7.11-7.11 7.111 7.111 0 0 0 7.11 7.11z" transform="translate(-175.526)"/><path d="m188.806 138.383c4.884 0 9.887-1.691 9.106-6.374a13.058 13.058 0 0 0 -3.085-5.761 1.39 1.39 0 0 0 -1.045-.076 9.454 9.454 0 0 1 -9.951 0 1.39 1.39 0 0 0 -1.045.076 13.06 13.06 0 0 0 -3.085 5.761c-.781 4.683 4.221 6.374 9.105 6.374z" transform="translate(-160.338 -110.937)"/><path d="m43.676 298.023a7.111 7.111 0 1 0 -7.11-7.11 7.111 7.111 0 0 0 7.11 7.11z" transform="translate(-34.49 -249.669)"/><path d="m34.512 410.052a1.385 1.385 0 0 0 -1.045-.077 9.458 9.458 0 0 1 -9.951 0 1.388 1.388 0 0 0 -1.046.077 13.048 13.048 0 0 0 -3.084 5.76c-.781 4.683 4.222 6.373 9.105 6.373s9.887-1.69 9.106-6.373a13.057 13.057 0 0 0 -3.085-5.76z" transform="translate(-19.305 -360.608)"/><path d="m364.3 298.023a7.111 7.111 0 1 0 -7.111-7.11 7.11 7.11 0 0 0 7.111 7.11z" transform="translate(-316.551 -249.669)"/><path d="m358.222 415.813a13.051 13.051 0 0 0 -3.084-5.76 1.388 1.388 0 0 0 -1.046-.077 9.458 9.458 0 0 1 -9.951 0 1.386 1.386 0 0 0 -1.045.077 13.06 13.06 0 0 0 -3.084 5.76c-.781 4.683 4.221 6.373 9.106 6.373s9.882-1.686 9.104-6.373z" transform="translate(-301.369 -360.608)"/><path d="m190.779 255-8.478-4.894v-9.788a1.172 1.172 0 1 0 -2.344 0v9.788l-8.478 4.894a1.173 1.173 0 0 0 1.173 2.032l8.477-4.895 8.478 4.894a1.173 1.173 0 0 0 1.172-2.031z" transform="translate(-152.661 -210.384)"/></g></svg>