<svg xmlns="http://www.w3.org/2000/svg" width="840.98" height="67.83" viewBox="0 0 840.98 67.83">
  <path id="パス_12280" data-name="パス 12280" d="M-422.45-46.69-408.52,0h12.32l8.96-27.02L-378.77,0h12.39l14.91-46.69h-12.67l-8.82,30.17-9.17-30.17h-9.66l-9.87,30.17-8.12-30.17ZM-317.8-22.82a7.707,7.707,0,0,1,4.97,2.03,7.6,7.6,0,0,1,2.17,5.11,6.9,6.9,0,0,1-2.17,4.97,7.119,7.119,0,0,1-4.97,2.1,7.157,7.157,0,0,1-5.04-2.1,7.231,7.231,0,0,1-2.17-4.97,7.217,7.217,0,0,1,2.17-5.11A7.74,7.74,0,0,1-317.8-22.82Zm18.76,7.14a15.466,15.466,0,0,0-4.83-11.48,19.766,19.766,0,0,0-14-5.18c-6.79,0-11.34,2.66-13.93,5.18a15.466,15.466,0,0,0-4.83,11.48A15.615,15.615,0,0,0-331.8-4.13c4.34,4.27,9.38,5.18,13.93,5.18,5.04,0,9.87-1.12,14-5.18A15.615,15.615,0,0,0-299.04-15.68ZM-278.6,0h11.2V-13.37c0-1.68.14-4.97,2.52-7.14a7.338,7.338,0,0,1,5.11-1.68,9.88,9.88,0,0,1,4.83,1.12V-31.64c-1.47-.07-1.96-.14-2.24-.14a12.217,12.217,0,0,0-5.81,1.26,10.1,10.1,0,0,0-4.41,4.34v-5.11h-11.2Zm42.63-51.03V0h11.2V-12.81L-213.36,0h15.54l-15.96-16.87,14.77-14.42H-214.2l-10.57,11.27V-51.03ZM-150.64-4.2a32.6,32.6,0,0,0,7.07,3.71,24.956,24.956,0,0,0,9.17,1.54c4.97,0,9.8-.77,13.79-4.76,3.36-3.36,4.41-7.49,4.41-11.76,0-3.22-.63-5.81-3.01-8.33-2.45-2.66-5.53-3.71-8.47-4.62l-3.71-1.12c-2.87-.84-3.71-1.68-4.06-2.1a3.123,3.123,0,0,1-.63-2.1,3.455,3.455,0,0,1,1.19-2.52,5.815,5.815,0,0,1,3.99-1.4c1.61,0,4.34.28,7.98,3.15l4.83-9.45a32.8,32.8,0,0,0-14.42-3.78c-5.67,0-9.59,2.03-11.97,4.41-2.03,2.03-4.27,5.53-4.27,11.27,0,2.38.28,5.67,2.66,8.26,1.89,2.1,4.76,3.15,6.72,3.78l3.15.98c3.01.91,4.83,1.4,6.02,2.45a3.648,3.648,0,0,1,1.33,2.8,4.175,4.175,0,0,1-1.19,2.94c-.77.84-2.24,1.61-4.69,1.61-4.2,0-8.12-2.31-10.71-4.76Zm73.78-17.92v-9.17h-6.37V-41.58h-11.2v10.29H-98v9.17h3.57V0h11.2V-22.12Zm20.72,38.15h12.53l25.13-47.32H-31.29l-8.12,16.03-8.33-16.03H-60.76L-45.64-4.27ZM-.63-51.03V0h11.2V-51.03ZM65.38-14.77c0-3.5-.56-8.96-4.97-13.16-3.71-3.5-8.4-4.27-12.04-4.27-6.16,0-10.22,2.03-12.81,4.55a16.7,16.7,0,0,0-4.69,12.11A16.388,16.388,0,0,0,35.49-3.71C39.34.14,44.31,1.05,48.44,1.05c6.79,0,10.43-2.1,12.74-4.34a14.065,14.065,0,0,0,3.78-6.44H54.25a5.212,5.212,0,0,1-1.96,2.1,8.837,8.837,0,0,1-3.64.84,6.292,6.292,0,0,1-4.62-1.54,7.9,7.9,0,0,1-1.96-5.25H65.38ZM42.42-20.02a6.387,6.387,0,0,1,1.68-3.36,6.018,6.018,0,0,1,4.55-1.68,6.525,6.525,0,0,1,4.62,1.68,7.508,7.508,0,0,1,1.82,3.36Zm74.76-26.67V0h12.11V-17.92L140.91,0h15.05L141.33-19.11a13.079,13.079,0,0,0,6.44-3.22,13.474,13.474,0,0,0,3.71-9.73,15.368,15.368,0,0,0-3.99-10.5c-3.43-3.57-7.91-4.13-11.41-4.13Zm12.11,9.38h2.31c2.66,0,4.69.7,5.81,1.82a5.506,5.506,0,0,1,1.61,3.92,5.813,5.813,0,0,1-1.54,3.92c-1.47,1.4-4.06,1.89-5.88,1.89h-2.31ZM207.2-14.77c0-3.5-.56-8.96-4.97-13.16-3.71-3.5-8.4-4.27-12.04-4.27-6.16,0-10.22,2.03-12.81,4.55a16.7,16.7,0,0,0-4.69,12.11,16.388,16.388,0,0,0,4.62,11.83c3.85,3.85,8.82,4.76,12.95,4.76,6.79,0,10.43-2.1,12.74-4.34a14.065,14.065,0,0,0,3.78-6.44H196.07a5.212,5.212,0,0,1-1.96,2.1,8.837,8.837,0,0,1-3.64.84,6.292,6.292,0,0,1-4.62-1.54,7.9,7.9,0,0,1-1.96-5.25H207.2Zm-22.96-5.25a6.387,6.387,0,0,1,1.68-3.36,6.018,6.018,0,0,1,4.55-1.68,6.525,6.525,0,0,1,4.62,1.68,7.508,7.508,0,0,1,1.82,3.36Zm63.28-2.1v-9.17h-7.84V-35.7c0-1.54.07-3.92,1.26-5.25a4.027,4.027,0,0,1,3.15-1.19,7.028,7.028,0,0,1,3.5,1.05v-9.66a14.216,14.216,0,0,0-5.39-1.05c-3.71,0-7.98,1.12-10.85,4.97-2.52,3.36-2.87,6.93-2.87,10.29v5.25h-3.92v9.17h3.92V0h11.2V-22.12Zm35.84-.7a7.706,7.706,0,0,1,4.97,2.03,7.6,7.6,0,0,1,2.17,5.11,6.9,6.9,0,0,1-2.17,4.97,7.119,7.119,0,0,1-4.97,2.1,7.157,7.157,0,0,1-5.04-2.1,7.231,7.231,0,0,1-2.17-4.97,7.217,7.217,0,0,1,2.17-5.11A7.74,7.74,0,0,1,283.36-22.82Zm18.76,7.14a15.466,15.466,0,0,0-4.83-11.48,19.766,19.766,0,0,0-14-5.18c-6.79,0-11.34,2.66-13.93,5.18a15.466,15.466,0,0,0-4.83,11.48,15.615,15.615,0,0,0,4.83,11.55c4.34,4.27,9.38,5.18,13.93,5.18,5.04,0,9.87-1.12,14-5.18A15.615,15.615,0,0,0,302.12-15.68ZM322.56,0h11.2V-13.37c0-1.68.14-4.97,2.52-7.14a7.338,7.338,0,0,1,5.11-1.68,9.88,9.88,0,0,1,4.83,1.12V-31.64c-1.47-.07-1.96-.14-2.24-.14a12.217,12.217,0,0,0-5.81,1.26,10.1,10.1,0,0,0-4.41,4.34v-5.11h-11.2Zm42.63,0h11.2V-15.47c0-1.96,0-4.97,1.96-6.86a3.943,3.943,0,0,1,3.08-1.12,4.342,4.342,0,0,1,3.36,1.26c1.26,1.33,1.47,3.71,1.47,6.72V0h11.2V-16.03c0-1.54.14-4.13,2.03-5.95a4.533,4.533,0,0,1,3.29-1.26,4.085,4.085,0,0,1,2.94,1.05c1.26,1.19,1.61,3.43,1.61,6.72V0h11.2V-20.37c0-2.17-.14-5.88-2.94-8.61-2.59-2.52-6.37-2.87-8.68-2.87a12.691,12.691,0,0,0-6.51,1.54,11,11,0,0,0-4.27,4.34,9.774,9.774,0,0,0-4.34-4.48,12.737,12.737,0,0,0-6.02-1.4,12.02,12.02,0,0,0-9.38,4.34v-3.78h-11.2Z" transform="translate(422.45 51.8)" fill="#fff"/>
</svg>
