<svg height="23.88" viewBox="0 0 129.45 23.88" width="129.45" xmlns="http://www.w3.org/2000/svg"><path d="m8.25-12.24h1.95q3.24 0 3.24-2.82t-3.24-2.82h-1.95zm0 12.24h-5.88v-22.62h9.36a8.007 8.007 0 0 1 5.835 1.98 7.448 7.448 0 0 1 2.025 5.58 7.448 7.448 0 0 1 -2.025 5.58 8.007 8.007 0 0 1 -5.835 1.98h-3.48zm27.09-11.31a6.027 6.027 0 0 0 .51 2.49 6.3 6.3 0 0 0 1.38 1.98 6.238 6.238 0 0 0 2.025 1.305 6.485 6.485 0 0 0 2.445.465 6.485 6.485 0 0 0 2.445-.465 6.413 6.413 0 0 0 2.04-1.305 6.179 6.179 0 0 0 1.4-1.98 6.027 6.027 0 0 0 .51-2.49 6.027 6.027 0 0 0 -.51-2.49 6.179 6.179 0 0 0 -1.4-1.98 6.413 6.413 0 0 0 -2.04-1.305 6.485 6.485 0 0 0 -2.445-.465 6.485 6.485 0 0 0 -2.445.465 6.238 6.238 0 0 0 -2.025 1.305 6.3 6.3 0 0 0 -1.38 1.98 6.027 6.027 0 0 0 -.51 2.49zm-6.15 0a11.815 11.815 0 0 1 .93-4.7 11.716 11.716 0 0 1 2.58-3.8 11.788 11.788 0 0 1 3.945-2.535 13.533 13.533 0 0 1 5.055-.905 13.566 13.566 0 0 1 5.04.915 11.921 11.921 0 0 1 3.975 2.535 11.6 11.6 0 0 1 2.595 3.8 11.815 11.815 0 0 1 .93 4.7 11.815 11.815 0 0 1 -.93 4.7 11.6 11.6 0 0 1 -2.595 3.8 11.921 11.921 0 0 1 -3.975 2.515 13.566 13.566 0 0 1 -5.04.915 13.533 13.533 0 0 1 -5.055-.915 11.788 11.788 0 0 1 -3.945-2.535 11.716 11.716 0 0 1 -2.58-3.8 11.815 11.815 0 0 1 -.93-4.69zm42.15-11.31v22.62h-5.88v-22.62zm12.24 22.62v-22.62h5.88l10.86 13.83v-13.83h5.85v22.62h-5.85l-10.86-13.83v13.83zm43.41-17.64v17.64h-5.88v-17.64h-4.83v-4.98h15.54v4.98z" fill="#fff" transform="translate(-2.37 23.25)"/></svg>