<svg height="23.91" viewBox="0 0 38.85 23.91" width="38.85" xmlns="http://www.w3.org/2000/svg"><path d="m6.42-11.34a12.756 12.756 0 0 0 .27 2.73 7.941 7.941 0 0 0 .765 2.13 4.119 4.119 0 0 0 1.185 1.395 2.611 2.611 0 0 0 1.56.495 2.631 2.631 0 0 0 1.545-.495 3.909 3.909 0 0 0 1.185-1.395 8.3 8.3 0 0 0 .75-2.13 12.757 12.757 0 0 0 .27-2.73 12.813 12.813 0 0 0 -.27-2.715 8.038 8.038 0 0 0 -.75-2.13 3.941 3.941 0 0 0 -1.185-1.38 2.631 2.631 0 0 0 -1.545-.495 2.611 2.611 0 0 0 -1.56.495 4.157 4.157 0 0 0 -1.185 1.38 7.7 7.7 0 0 0 -.765 2.13 12.813 12.813 0 0 0 -.27 2.715zm-5.82 0a16.053 16.053 0 0 1 .7-4.9 11.33 11.33 0 0 1 1.98-3.765 8.932 8.932 0 0 1 3.03-2.415 8.751 8.751 0 0 1 3.89-.86 8.779 8.779 0 0 1 3.87.855 8.745 8.745 0 0 1 3.03 2.415 11.492 11.492 0 0 1 1.965 3.765 16.053 16.053 0 0 1 .7 4.9 16.053 16.053 0 0 1 -.7 4.905 11.673 11.673 0 0 1 -1.965 3.785 8.674 8.674 0 0 1 -3.03 2.43 8.779 8.779 0 0 1 -3.87.855 8.751 8.751 0 0 1 -3.885-.855 8.858 8.858 0 0 1 -3.03-2.43 11.506 11.506 0 0 1 -1.985-3.78 16.053 16.053 0 0 1 -.7-4.905zm38.85 11.34h-18.21l5.61-5.82q2.22-2.31 3.48-3.915a21.554 21.554 0 0 0 1.875-2.715 7.135 7.135 0 0 0 .765-1.8 5.662 5.662 0 0 0 .15-1.17 3.025 3.025 0 0 0 -.165-.99 2.522 2.522 0 0 0 -.5-.855 2.492 2.492 0 0 0 -.8-.6 2.489 2.489 0 0 0 -1.095-.225 2.348 2.348 0 0 0 -1.875.78 2.874 2.874 0 0 0 -.675 1.95 7.363 7.363 0 0 0 .09.96h-6.41a9.654 9.654 0 0 1 .645-3.6 8.165 8.165 0 0 1 1.815-2.79 8.016 8.016 0 0 1 2.775-1.8 9.567 9.567 0 0 1 3.525-.63 9.9 9.9 0 0 1 3.495.6 8.351 8.351 0 0 1 2.775 1.68 7.714 7.714 0 0 1 1.83 2.565 7.85 7.85 0 0 1 .66 3.225 7.514 7.514 0 0 1 -.795 3.435 12.092 12.092 0 0 1 -2.535 3.225l-3.75 3.51h7.32z" fill="#fff" transform="translate(-.6 23.28)"/></svg>