<svg height="232.316" viewBox="0 0 254.873 232.316" width="254.873" xmlns="http://www.w3.org/2000/svg"><path d="m6.9-7.98a.907.907 0 0 0 -.9-.9.907.907 0 0 0 -.9.9.907.907 0 0 0 .9.9.907.907 0 0 0 .9-.9zm-4.86-.888-.348.348 3.96 3.96-3.972 3.972.348.348 3.972-3.972 3.96 3.96.348-.348-3.96-3.96 3.96-3.96-.348-.348-3.96 3.96zm.54 3.408a.907.907 0 0 0 -.9.9.907.907 0 0 0 .9.9.907.907 0 0 0 .9-.9.907.907 0 0 0 -.9-.9zm6.84 1.8a.907.907 0 0 0 .9-.9.907.907 0 0 0 -.9-.9.907.907 0 0 0 -.9.9.907.907 0 0 0 .9.9zm-4.32 2.52a.907.907 0 0 0 .9.9.907.907 0 0 0 .9-.9.907.907 0 0 0 -.9-.9.907.907 0 0 0 -.9.9zm8.388 1.14h5.532v-.948h-2.436c-.444 0-.984.048-1.44.084 2.064-1.956 3.444-3.744 3.444-5.5a2.413 2.413 0 0 0 -2.556-2.6 3.364 3.364 0 0 0 -2.592 1.3l.636.624a2.463 2.463 0 0 1 1.824-1.024 1.546 1.546 0 0 1 1.62 1.74c0 1.512-1.272 3.264-4.032 5.676zm10.428.156c1.668 0 2.736-1.524 2.736-4.584s-1.068-4.536-2.736-4.536-2.748 1.476-2.748 4.536 1.068 4.584 2.748 4.584zm0-.876c-1.008 0-1.68-1.116-1.68-3.708 0-2.568.672-3.648 1.68-3.648s1.668 1.076 1.668 3.648c0 2.592-.672 3.708-1.668 3.708zm5.34.72h4.824v-.912h-1.764v-7.888h-.84a5.573 5.573 0 0 1 -1.824.624v.7h1.56v6.564h-1.956zm9.912.156c1.656 0 2.76-1 2.76-2.28a2.567 2.567 0 0 0 -1.488-2.3v-.06a2.884 2.884 0 0 0 1.176-2.124 2.225 2.225 0 0 0 -2.416-2.32 2.231 2.231 0 0 0 -2.408 2.228 2.445 2.445 0 0 0 1.188 2.032v.06a2.817 2.817 0 0 0 -1.62 2.424 2.523 2.523 0 0 0 2.808 2.34zm.6-4.932c-1.032-.408-1.98-.864-1.98-1.92a1.352 1.352 0 0 1 1.392-1.428 1.468 1.468 0 0 1 1.5 1.572 2.36 2.36 0 0 1 -.912 1.776zm-.576 4.116a1.687 1.687 0 0 1 -1.836-1.62 2.391 2.391 0 0 1 1.2-1.992c1.248.5 2.328.948 2.328 2.124a1.524 1.524 0 0 1 -1.692 1.488zm7.716-2.028v-2.376h2.692v2.376zm7.932 0h-4.34v-2.376h3.516v-.836h-3.516v-1.828h3.792v-.864h-7.156c.192-.408.384-.84.552-1.26l-.9-.216a10.155 10.155 0 0 1 -2.7 4.14 5.523 5.523 0 0 1 .768.564 11.087 11.087 0 0 0 1.824-2.364h2.92v1.828h-3.58v3.216h-1.968v.864h5.548v2.744h.9v-2.748h4.34zm2.616 2.688h4.824v-.912h-1.764v-7.888h-.84a5.573 5.573 0 0 1 -1.824.624v.7h1.56v6.564h-1.956zm9.9.156c1.668 0 2.736-1.524 2.736-4.584s-1.068-4.536-2.736-4.536-2.748 1.476-2.748 4.536 1.068 4.584 2.748 4.584zm0-.876c-1.008 0-1.68-1.116-1.68-3.708 0-2.568.672-3.648 1.68-3.648s1.668 1.076 1.668 3.648c0 2.592-.672 3.708-1.668 3.708zm7.56-2.952a15.066 15.066 0 0 0 .132-2.016h5.484v2.016zm5.616-4.86v1.992h-5.484v-1.992zm.924-.876h-7.308v3.672c0 1.908-.192 4.344-2.1 6.024a3.377 3.377 0 0 1 .66.648 6.769 6.769 0 0 0 2.064-3.736h5.76v2.4c0 .264-.1.348-.372.36s-1.236.012-2.244-.024a3.779 3.779 0 0 1 .384.928 9.649 9.649 0 0 0 2.532-.164c.444-.144.624-.456.624-1.08zm8.744 7.776c0 .816-.42 1.224-1.3 1.224-1.14 0-1.8-.36-1.8-1.02s.7-1.072 1.928-1.072a5.4 5.4 0 0 1 1.164.12c0 .304.008.556.008.748zm.8-4.488c.972-.024 2.5-.1 3.552-.192l-.036-.912c-1.068.144-2.568.2-3.516.228 0-.468-.012-.888 0-1.212a10.353 10.353 0 0 1 .1-1.176h-1.148a8.709 8.709 0 0 1 .1 1.176c.012.5.012 1.488.012 2.172 0 .708.048 1.8.1 2.76a7.119 7.119 0 0 0 -1.008-.072c-2.052 0-2.988.888-2.988 1.956-.008 1.356 1.204 1.884 2.832 1.884 1.584 0 2.184-.84 2.184-1.812 0-.216-.012-.48-.024-.792a8.3 8.3 0 0 1 3.088 1.956l.576-.888a9.429 9.429 0 0 0 -3.7-2.028c-.06-1.032-.12-2.184-.12-2.964zm9.348-3.348c-.012.288-.048.648-.1 1.02a31.176 31.176 0 0 0 -.36 3.84 14.54 14.54 0 0 0 .12 1.884l.936-.072a4.961 4.961 0 0 1 -.024-1.452c.144-1.56 1.512-3.708 2.988-3.708 1.26 0 1.884 1.344 1.884 3.216 0 2.988-2.016 4.02-4.6 4.416l.564.864c2.968-.54 5.044-1.992 5.044-5.292 0-2.5-1.14-4.08-2.724-4.08-1.5 0-2.748 1.476-3.216 2.7a22.025 22.025 0 0 1 .552-3.3zm12.672 2.82h2.78v1.284h-2.772zm0-1.992h2.78v1.272h-2.772zm6.48 1.272h-2.832v-1.272h2.832zm0 2h-2.832v-1.28h2.832zm-3.192 1.932a9.061 9.061 0 0 0 .2-1.164h3.9v-4.808h-8.28v4.808h3.472a8.356 8.356 0 0 1 -.216 1.164h-4.2v.816h3.916c-.564 1.284-1.7 2.244-4.26 2.772a2.4 2.4 0 0 1 .468.768c2.928-.66 4.164-1.9 4.764-3.54h3.768c-.168 1.644-.36 2.376-.636 2.592a.7.7 0 0 1 -.516.12c-.288 0-1.068-.012-1.848-.072a1.908 1.908 0 0 1 .288.816c.756.036 1.5.048 1.872.036a1.317 1.317 0 0 0 .948-.348c.384-.36.612-1.3.828-3.564a3.832 3.832 0 0 0 .036-.4zm7.992-1.032a13.383 13.383 0 0 0 .6-3.216l-.672-.1a12.125 12.125 0 0 1 -.624 3.072zm1.04 5.38h.888v-10.956h-.888zm.972-8.748a11.945 11.945 0 0 1 .828 2.04l.672-.324a11.332 11.332 0 0 0 -.876-2zm5.268 7.488v-3h2.448v-.828h-2.448v-2.484h2.712v-.852h-2.712v-2.488h-.888v2.484h-1.5c.168-.588.312-1.212.432-1.836l-.864-.144a11.683 11.683 0 0 1 -1.452 4.284 7 7 0 0 1 .792.408 8.653 8.653 0 0 0 .84-1.86h1.752v2.484h-2.544v.828h2.544v3h-3.432v.852h7.32v-.848zm7.572-9.684a9.593 9.593 0 0 1 -2.52 2.5 5.216 5.216 0 0 1 .5.648 12.736 12.736 0 0 0 2.832-2.844zm.288 2.424a11.191 11.191 0 0 1 -2.94 3.308 6.651 6.651 0 0 1 .5.792 12.2 12.2 0 0 0 1.356-1.284v5.74h.828v-6.708a13.719 13.719 0 0 0 1.044-1.572zm5.04 4.344h2.676v-.828h-2.676v-2.352h3v-.864h-1.824a25.307 25.307 0 0 0 1.212-2.424l-.852-.312a15.505 15.505 0 0 1 -1.152 2.472l.672.264h-2.836l.6-.288a14.76 14.76 0 0 0 -1.26-2.352l-.732.288a18.045 18.045 0 0 1 1.192 2.352h-1.86v.864h2.988v5.988a3.317 3.317 0 0 1 -1.812-2.268 21.381 21.381 0 0 0 .264-2.124l-.888-.072c-.144 2.292-.54 4.128-1.716 5.268a4.859 4.859 0 0 1 .684.612 6.082 6.082 0 0 0 1.356-2.448c.828 1.74 2.136 2.188 3.948 2.188h2.016a2.331 2.331 0 0 1 .288-.84c-.372 0-1.98.012-2.244 0a7.134 7.134 0 0 1 -1.044-.072zm12.468-3.888a10.968 10.968 0 0 1 -.612 1.248l.12.036h-2.82l.384-.084a4.662 4.662 0 0 0 -.6-1.2zm3.444 5.22v-.756h-4.812v-.888h3.756v-.684h-3.756v-.876h4.344v-.732h-2.724c.24-.36.5-.828.744-1.284h2.4v-.768h-1.86a16.78 16.78 0 0 0 1.056-1.728l-.912-.24a13.615 13.615 0 0 1 -.912 1.824l.444.144h-1.452v-2.124h-.84v2.124h-1.428v-2.124h-.828v2.124h-1.476l.612-.228a8.271 8.271 0 0 0 -1.02-1.764l-.756.252a9.354 9.354 0 0 1 .948 1.74h-1.908v.768h2.928l-.42.084a5.038 5.038 0 0 1 .588 1.2h-2.616v.732h4.208v.876h-3.612v.684h3.612v.888h-4.74v.756h3.924a11.565 11.565 0 0 1 -4.236 1.9 3.821 3.821 0 0 1 .576.756 12.059 12.059 0 0 0 4.476-2.368v2.556h.876v-2.612a11.329 11.329 0 0 0 4.512 2.46 3.209 3.209 0 0 1 .6-.792 10.979 10.979 0 0 1 -4.284-1.9zm10.6-5.676h-5.676v-1.248h5.676zm.924-1.968h-7.488v2.688h7.488zm-7.1 6.984h6.66v.864h-6.66zm0-1.476h6.66v.84h-6.66zm0-1.476h6.66v.84h-6.66zm7.572 4.476v-5.132h-8.46v5.136h2.232a13.147 13.147 0 0 1 -3.536 1.328 6.845 6.845 0 0 1 .66.66 15.232 15.232 0 0 0 3.732-1.476l-.792-.516zm-3.288.6a31.5 31.5 0 0 1 3.768 1.4l.768-.648c-.936-.384-2.532-.972-3.768-1.332zm9.24-1.212c-.516 0-1.212-.66-1.212-2.16a4.143 4.143 0 0 1 3.672-3.84 19.173 19.173 0 0 1 -.66 3.2c-.62 2.008-1.28 2.8-1.808 2.8zm3.124 1.992c2.832-.372 4.476-2.04 4.476-4.536a4.314 4.314 0 0 0 -4.56-4.368 5.075 5.075 0 0 0 -5.208 4.836c0 1.956 1.068 3.18 2.124 3.18 1.1 0 2.052-1.26 2.784-3.7a25.112 25.112 0 0 0 .708-3.42 3.294 3.294 0 0 1 3.156 3.444 3.562 3.562 0 0 1 -3.012 3.516 7.449 7.449 0 0 1 -1.02.144zm-178.104 17.948v-.924h5.34v.924zm5.34-2.508v.924h-5.34v-.924zm.9-.744h-7.128v5.9h.888v-1.98h5.34v1.032c0 .168-.06.216-.24.228-.2 0-.9 0-1.6-.012a3.436 3.436 0 0 1 .288.732 7.735 7.735 0 0 0 1.956-.132c.372-.108.492-.336.492-.816zm-1.524-3.084-.672.444c.42.276.876.612 1.308.948-1.68.036-3.372.072-4.848.1.4-.468.816-1 1.176-1.488zm3.168-.792h-4.812v-1.176h-.9v1.176h-4.764v.792h3.132a14.9 14.9 0 0 1 -1.008 1.5l-1.656.024.036.828c2.1-.036 5.292-.12 8.3-.24a8.7 8.7 0 0 1 .816.8l.744-.528a17.6 17.6 0 0 0 -3.024-2.388h3.132zm5.556 5.76c-.216 1.692-.792 2.748-3.372 3.3a2.8 2.8 0 0 1 .528.78c2.82-.684 3.528-1.992 3.792-4.08zm3.144 0v2.736c0 .96.288 1.236 1.38 1.236h1.788c.96 0 1.224-.432 1.332-2.208a2.71 2.71 0 0 1 -.828-.36c-.048 1.5-.132 1.728-.588 1.728h-1.608c-.48 0-.564-.06-.564-.4v-2.732zm-5.232-6.6v6.432h.864v-6.432zm2.7.2v6.06h5.916v-6.052zm.852.792h4.164v1.86h-4.164zm0 2.592h4.164v1.884h-4.164zm11.2-3.84a12.331 12.331 0 0 1 -3.252 4.812 5.107 5.107 0 0 1 .54.9 12.175 12.175 0 0 0 1.416-1.584v6.736h.876v-8.016a17.828 17.828 0 0 0 1.308-2.568zm7.86 3.828v-.864h-3.472v-2.88h-.876v2.88h-3.376v.864h2.9a12.191 12.191 0 0 1 -3.324 4.908 5.177 5.177 0 0 1 .672.684 13.4 13.4 0 0 0 3.12-4.62v6.084h.876v-6.332a14.568 14.568 0 0 0 3.108 4.824 3.2 3.2 0 0 1 .672-.72 12.661 12.661 0 0 1 -3.264-4.824zm9.348-1.02a10.97 10.97 0 0 1 -.612 1.248l.12.036h-2.82l.384-.084a4.663 4.663 0 0 0 -.6-1.2zm3.444 5.22v-.756h-4.816v-.888h3.756v-.68h-3.756v-.876h4.344v-.732h-2.724c.24-.36.5-.828.744-1.284h2.4v-.768h-1.864a16.78 16.78 0 0 0 1.056-1.728l-.912-.24a13.614 13.614 0 0 1 -.912 1.824l.444.144h-1.448v-2.124h-.84v2.124h-1.428v-2.124h-.828v2.124h-1.476l.612-.228a8.271 8.271 0 0 0 -1.02-1.764l-.756.252a9.354 9.354 0 0 1 .948 1.74h-1.908v.768h2.928l-.42.084a5.039 5.039 0 0 1 .588 1.2h-2.616v.732h4.212v.876h-3.612v.684h3.612v.888h-4.74v.756h3.924a11.565 11.565 0 0 1 -4.236 1.9 3.821 3.821 0 0 1 .576.756 12.059 12.059 0 0 0 4.476-2.364v2.556h.876v-2.616a11.328 11.328 0 0 0 4.512 2.46 3.208 3.208 0 0 1 .6-.792 10.979 10.979 0 0 1 -4.284-1.9zm6.456-4.932h-2.34v-1.6h2.34zm-2.34 3.276h2.34v1.476c-.8.12-1.608.24-2.34.336zm2.34-.816h-2.34v-1.664h2.34zm1.7-4.056v-.828h-5.82v.828h.936v6.8c-.432.06-.828.108-1.164.144l.156.9c1.14-.192 2.676-.42 4.188-.672v2.172h.864v-9.34zm4.152.024-.168.036h-4.284v.876h4.044a13.166 13.166 0 0 1 -1.488 4.488 15.456 15.456 0 0 1 -1.476-4.44l-.852.156a16.713 16.713 0 0 0 1.788 5.124 7.321 7.321 0 0 1 -2.52 2.22 3.428 3.428 0 0 1 .588.72 8.564 8.564 0 0 0 2.444-2.132 7.507 7.507 0 0 0 2.388 2.172 3.719 3.719 0 0 1 .636-.732 6.665 6.665 0 0 1 -2.472-2.232 14.594 14.594 0 0 0 1.948-6.084zm12.108.408h-3.948v-.96h3.948zm0 1.62h-3.948v-.968h3.948zm.888-3.252h-5.7v3.936h5.7zm-7.584-.336a9.2 9.2 0 0 1 -2.544 2.448 3.889 3.889 0 0 1 .468.72 12 12 0 0 0 2.928-2.844zm.216 2.616a11.262 11.262 0 0 1 -2.952 3.244 5.589 5.589 0 0 1 .468.852 11.583 11.583 0 0 0 1.4-1.3v5.5h.876v-6.5a13.714 13.714 0 0 0 .984-1.476zm1.692 5.628a10.754 10.754 0 0 1 1.476 1.74l.684-.48a10.562 10.562 0 0 0 -1.524-1.664zm6.456-1.38h-1.788v-1.02h1.572v-.764h-7v.768h4.536v1.02h-4.808v.768h4.812v2.28c0 .156-.048.2-.24.216-.168.012-.768.012-1.44-.012a3.015 3.015 0 0 1 .288.816 6.146 6.146 0 0 0 1.824-.144c.348-.144.456-.372.456-.852v-2.3h1.788zm8.664 1.512c-.012-.576-.024-1.584-.036-2.268.9-.42 1.752-.768 2.424-1.032.312-.12.744-.288 1.044-.372l-.384-.9c-.336.168-.624.312-.984.468-.624.288-1.344.576-2.16.96a1.494 1.494 0 0 0 -1.572-1.08 3.371 3.371 0 0 0 -1.644.444 8.527 8.527 0 0 0 1.068-1.824 36.713 36.713 0 0 0 3.936-.336l.012-.888a31.889 31.889 0 0 1 -3.636.36c.168-.54.276-1.032.36-1.368l-.984-.084a6.439 6.439 0 0 1 -.3 1.476c-.276.012-.528.012-.78.012-.54 0-1.368-.048-2-.12v.9c.648.048 1.452.072 1.956.072h.492a12.574 12.574 0 0 1 -2.736 3.624l.816.612c.408-.48.744-.924 1.08-1.248a3.163 3.163 0 0 1 2.052-.876 1 1 0 0 1 1.068.732c-1.38.72-2.8 1.608-2.8 3.012 0 1.452 1.368 1.812 3.072 1.812a30.6 30.6 0 0 0 3.252-.192l.02-.972a20.921 20.921 0 0 1 -3.24.288c-1.224 0-2.148-.132-2.148-1.068 0-.78.768-1.392 1.872-1.992 0 .624-.012 1.392-.048 1.848zm17.16-4.284h-4.872v-.768h3.732v-.672h-3.732v-.732h4.368v-.7h-2.472c.216-.3.48-.684.72-1.044l-.948-.252a11.251 11.251 0 0 1 -.684 1.3h-2.868l.084-.036a4.384 4.384 0 0 0 -.84-1.224l-.768.264a6.507 6.507 0 0 1 .66 1h-2.46v.7h4.308v.732h-3.672v.672h3.672v.768h-4.824v.7h10.6zm-.648 1.932a7.4 7.4 0 0 0 -1.944-1.056l-.48.528a7.845 7.845 0 0 1 1.908 1.116zm-1.008 1.56a5.418 5.418 0 0 1 -1.284 1.14 6.491 6.491 0 0 1 -.6-1.3h3.576v-.7h-3.768a9.823 9.823 0 0 1 -.228-1.752h-.864a11.44 11.44 0 0 0 .228 1.752h-2.616v-.924a17.044 17.044 0 0 0 1.944-.336l-.54-.564a29.285 29.285 0 0 1 -4.656.588 2.012 2.012 0 0 1 .2.588c.7-.036 1.452-.1 2.2-.168v.816h-2.544v.7h2.544v.876c-.984.072-1.884.132-2.592.18l.084.72 2.508-.228v1.032c0 .168-.06.2-.24.2s-.8.012-1.452-.012a4.311 4.311 0 0 1 .276.708 6.715 6.715 0 0 0 1.812-.12c.336-.1.456-.3.456-.756v-1.116c.708-.072 1.428-.132 2.148-.2v-.636l-2.148.168v-.8h2.8a7.255 7.255 0 0 0 .744 1.716 12.893 12.893 0 0 1 -2.712 1.02 6 6 0 0 1 .468.708 15.366 15.366 0 0 0 2.676-1.116 2.923 2.923 0 0 0 2.232 1.152c.756-.012 1.068-.336 1.2-1.608a2.05 2.05 0 0 1 -.684-.348c-.06.852-.156 1.128-.48 1.14a2.09 2.09 0 0 1 -1.536-.78 6.528 6.528 0 0 0 1.608-1.464zm12.768-5.616a4.505 4.505 0 0 1 -1.164 1.548 5.325 5.325 0 0 1 -1.356-1.548zm-4.8 5.208a10.391 10.391 0 0 0 .708-1.872 3.356 3.356 0 0 1 .324.468 9.379 9.379 0 0 0 2.616-1.224 8.614 8.614 0 0 0 2.724 1.272 3.957 3.957 0 0 1 .564-.768 7.958 7.958 0 0 1 -2.6-1.044 5.572 5.572 0 0 0 1.44-2.04h.924v-.756h-3.984a9.524 9.524 0 0 0 .552-1.032l-.852-.228a7.374 7.374 0 0 1 -2.28 2.928 5.662 5.662 0 0 1 .732.516 9.574 9.574 0 0 0 .864-.852 6.843 6.843 0 0 0 1.236 1.464 7.951 7.951 0 0 1 -2.148.924c.06-.216.12-.432.18-.636l-.54-.192-.132.048h-.888l.456-.516a6.893 6.893 0 0 0 -1.008-.72 8.984 8.984 0 0 0 1.956-2.04l-.576-.36-.156.036h-4.032v.78h3.4a8.441 8.441 0 0 1 -1.26 1.188c-.384-.2-.792-.4-1.164-.552l-.552.576a12.247 12.247 0 0 1 2.664 1.608h-3.224v.78h1.812a9.042 9.042 0 0 1 -1.932 3.216 4.72 4.72 0 0 1 .468.828 9.61 9.61 0 0 0 1.752-2.952v3.856c0 .132-.048.168-.192.18s-.624 0-1.14-.012a3.277 3.277 0 0 1 .276.816 4.709 4.709 0 0 0 1.5-.132c.3-.156.4-.4.4-.852v-4.944h1.152a12.507 12.507 0 0 1 -.648 1.932zm3.624-.528c.072-.384.132-.78.168-1.188h-.9c-.036.408-.084.8-.156 1.188h-2.064v.752h1.872a4.114 4.114 0 0 1 -2.784 2.832 2.9 2.9 0 0 1 .528.684 4.868 4.868 0 0 0 3.176-3.516h2.016c-.18 1.644-.36 2.316-.588 2.544a.508.508 0 0 1 -.408.12c-.192 0-.672-.012-1.188-.06a2.333 2.333 0 0 1 .24.828 12.682 12.682 0 0 0 1.332.012 1.082 1.082 0 0 0 .744-.312c.348-.348.576-1.26.792-3.492.012-.144.024-.384.024-.384zm8.46-6.5a13.271 13.271 0 0 1 -3.48 4.836 5.954 5.954 0 0 1 .54.9 14.317 14.317 0 0 0 1.56-1.692v6.7h.9v-7.96a16.115 16.115 0 0 0 1.332-2.5zm3.744 9.756c-.66 0-.792-.144-.792-.816v-3.48a28.239 28.239 0 0 0 4.224-2.616l-.636-.768a21 21 0 0 1 -3.588 2.484v-4.464h-.9v8.832c0 1.308.384 1.668 1.632 1.668h2.46c1.236 0 1.5-.684 1.644-2.628a2.864 2.864 0 0 1 -.852-.384c-.084 1.74-.192 2.172-.852 2.172zm16.164 1.248.72-.372a7.5 7.5 0 0 1 0-10.68l-.72-.372a8.025 8.025 0 0 0 0 11.424zm8.052-1.008a3.027 3.027 0 0 0 3.228-3.024 2.72 2.72 0 0 0 -2.988-2.8 3.3 3.3 0 0 0 -1.812.444l.216-2.64h4.236v-.944h-5.184l-.276 4.22.588.36a3.128 3.128 0 0 1 1.98-.6 1.946 1.946 0 0 1 2.124 1.992 2.069 2.069 0 0 1 -2.208 2.064 3.352 3.352 0 0 1 -2.532-1.092l-.552.708a4.219 4.219 0 0 0 3.18 1.312zm10.2-1.02v-3.348h5.952v3.348zm5.952-7.464v3.24h-5.952v-3.24zm-6.852-.876v10h.9v-.784h5.952v.732h.936v-9.948zm15.4.384v1h-2.592v-1zm-2.592 2.712v-1.056h2.592v1.056zm3.444.684v-4.092h-4.332v10.452h.888v-6.36zm1.932 1.584v1.116h-2.82v-1.116zm-2.824 2.952v-1.164h2.82v1.164zm3.648.708v-4.344h-4.452v4.944h.8v-.6zm-.84-5.916v-1.068h2.688v1.068zm2.688-2.724v1h-2.688v-1zm.9-.7h-4.436v4.1h3.54v5.148c0 .216-.072.288-.276.288s-.948.024-1.68-.012a3.287 3.287 0 0 1 .312.912 6.83 6.83 0 0 0 2.016-.156c.4-.156.528-.456.528-1.02zm6.924-.744-.72.372a7.5 7.5 0 0 1 0 10.68l.72.372a8.025 8.025 0 0 0 0-11.424z" transform="translate(64.146 211.164)"/><path d="m-54.72-6.468h2.112v.84h-2.112zm0-1.932h2.112v.828h-2.112zm5.7.828h-2.148v-.828h2.148zm0 1.944h-2.148v-.84h2.148zm-2.46 2c.048-.276.1-.54.132-.828h3.828v-5.12h-8.628v5.124h3.3c-.036.288-.084.564-.132.828h-3.972v1.284h3.5c-.564.96-1.68 1.668-4.02 2.124a3.83 3.83 0 0 1 .744 1.248c3.024-.66 4.3-1.824 4.9-3.372h3.156c-.128 1.188-.312 1.788-.528 1.968a.789.789 0 0 1 -.528.12c-.324 0-1.08-.012-1.824-.072a2.829 2.829 0 0 1 .468 1.308c.756.012 1.488.024 1.908-.012a1.678 1.678 0 0 0 1.188-.472c.384-.384.624-1.368.816-3.552.024-.192.048-.576.048-.576zm15.312 2.928v-2.4h2.2v-1.328h-2.2v-1.972h2.448v-1.34h-2.448v-2.352h-1.432v2.352h-.96c.12-.54.216-1.1.3-1.668l-1.388-.192a14.524 14.524 0 0 1 -.636 2.928 13.759 13.759 0 0 0 -.66-1.512l-.7.288v-2.268h-1.428v2.448l-1.008-.144a14.262 14.262 0 0 1 -.588 3.12l1.056.384a15.292 15.292 0 0 0 .54-3.18v8.58h1.428v-8.2a8.344 8.344 0 0 1 .456 1.38l.684-.312c-.12.252-.24.48-.36.7a12.619 12.619 0 0 1 1.272.648 8.2 8.2 0 0 0 .676-1.66h1.32v1.968h-2.316v1.332h2.312v2.4h-3.2v1.36h7.464v-1.36zm7.98-1.14v-.576h4.548v.576zm4.548-2.12v.576h-4.548v-.576zm1.452-1.152h-7.428v6.156h1.428v-1.9h4.548v.556c0 .168-.06.228-.276.228-.18.012-.948.012-1.524-.024a5.664 5.664 0 0 1 .42 1.14 7.492 7.492 0 0 0 2.172-.18c.492-.18.66-.48.66-1.152zm-1.9-2.784-.576.348c.252.18.516.384.78.6-1.26.024-2.508.036-3.672.06.276-.324.564-.672.828-1.008zm3.468 0v-1.248h-4.58v-1.02h-1.464v1.02h-4.584v1.244h2.724c-.192.336-.408.7-.636 1.02l-1.668.024.036 1.284c2.1-.048 5.232-.132 8.22-.24a8 8 0 0 1 .72.768l1.26-.8a15.955 15.955 0 0 0 -2.4-2.052zm5.232 4.716c-.18 1.512-.528 2.5-3.228 3.024a4.269 4.269 0 0 1 .8 1.284c3.144-.768 3.732-2.2 3.972-4.308zm3.156-.024v2.46c0 1.3.336 1.74 1.716 1.74h1.464c1.14 0 1.512-.48 1.668-2.364a4.345 4.345 0 0 1 -1.316-.564c-.048 1.38-.108 1.584-.492 1.584h-1.1c-.408 0-.468-.06-.468-.42v-2.432zm-5.088-6.624v6.516h1.392v-6.516zm2.8.156v6.172h6.036v-6.172zm1.38 1.224h3.2v1.284h-3.2zm0 2.412h3.2v1.308h-3.2zm18.6.168v-1.392h-3.132v-2.712h-1.416v2.712h-3.048v1.392h2.484a11.386 11.386 0 0 1 -2.964 4.344v-5.592a18.935 18.935 0 0 0 1.236-2.532l-1.42-.452a12.312 12.312 0 0 1 -3.032 4.6 10.362 10.362 0 0 1 .832 1.5 10.877 10.877 0 0 0 .984-1.08v6.1h1.4v-2.4a7.914 7.914 0 0 1 .972 1.056 12.194 12.194 0 0 0 2.556-3.636v5h1.416v-5.24a12.267 12.267 0 0 0 2.424 3.816 5.087 5.087 0 0 1 1.068-1.14 11.737 11.737 0 0 1 -2.868-4.344zm8.976-1.176c-.132.324-.276.672-.42.96h-2.244l.2-.036a5.91 5.91 0 0 0 -.408-.924zm3.876 5.352v-1.176h-4.668v-.532h3.6v-1.028h-3.6v-.54h4.164v-1.116h-2.352c.18-.288.372-.612.564-.96h2.256v-1.164h-1.56c.276-.42.6-.96.936-1.512l-1.5-.36a9.666 9.666 0 0 1 -.752 1.74l.432.132h-1.072v-1.956h-1.344v1.956h-.888v-1.956h-1.328v1.956h-1.1l.588-.216a9.08 9.08 0 0 0 -.912-1.692l-1.22.416a10.756 10.756 0 0 1 .744 1.492h-1.608v1.164h2.508l-.144.024a5.392 5.392 0 0 1 .408.936h-2.28v1.116h4.056v.54h-3.456v1.028h3.456v.528h-4.584v1.176h3.444a12.607 12.607 0 0 1 -3.792 1.4 6.656 6.656 0 0 1 .912 1.196 11.383 11.383 0 0 0 4.02-1.944v2.088h1.4v-2.16a10.243 10.243 0 0 0 4.036 2.028 6.713 6.713 0 0 1 .96-1.3 10.721 10.721 0 0 1 -3.8-1.308zm7.416-6.48h.42v.936h3.54a13.611 13.611 0 0 1 -1.032 3.576 14.471 14.471 0 0 1 -1.1-3.552l-1.368.276a17 17 0 0 0 1.612 4.752 6.506 6.506 0 0 1 -2.072 1.908zm-3.084 4.9h1.7v1.072c-.576.072-1.152.156-1.7.228zm0-2.472h1.7v1.2h-1.7zm1.7-2.424v1.14h-1.7v-1.14zm5.976-.5-.24.036h-3.58v-.852h-6.028v1.32h.816v6.364c-.408.048-.78.084-1.1.12l.272 1.428c1.1-.168 2.508-.384 3.888-.624v1.92h1.38v-1.128a5.708 5.708 0 0 1 .792 1.044 8.221 8.221 0 0 0 2.136-1.836 7.57 7.57 0 0 0 2.064 1.836 5.18 5.18 0 0 1 .98-1.176 6.6 6.6 0 0 1 -2.168-1.944 15.928 15.928 0 0 0 1.728-6.288zm11.92.448h-3.12v-.6h3.12zm0 1.56h-3.12v-.624h3.12zm1.44-3.156h-5.94v4.152h5.94zm-8-.336a8.559 8.559 0 0 1 -2.5 2.352 8.855 8.855 0 0 1 .708 1.212 12.7 12.7 0 0 0 3.144-3.012zm.312 2.616a10.772 10.772 0 0 1 -2.94 3.084 10.649 10.649 0 0 1 .684 1.476 11.273 11.273 0 0 0 1.08-.972v4.98h1.38v-6.516a12.671 12.671 0 0 0 1.04-1.516zm8.328 4.248h-1.636v-.684h1.392v-1.164h-6.948v1.164h4.1v.684h-4.388v1.212h1.68l-.888.588a10.108 10.108 0 0 1 1.38 1.668l1.068-.756a12.617 12.617 0 0 0 -1.368-1.5h2.52v1.668c0 .132-.048.18-.216.192s-.72 0-1.224-.024a5.014 5.014 0 0 1 .444 1.272 4.75 4.75 0 0 0 1.86-.2c.468-.2.588-.54.588-1.2v-1.7h1.644zm5.24-.972-.216-.888c-1.1.432-2.256.876-3.012 1.116l.668 1.152c.648-.288 1.44-.66 2.2-1.032l.144.828c1.152-.084 2.616-.192 4.068-.324a4.646 4.646 0 0 1 .252.6l1.08-.48a4.957 4.957 0 0 0 -.408-.864 13.239 13.239 0 0 1 1.908 1.308l1.032-.856a15.249 15.249 0 0 0 -2.508-1.536l-.732.588c-.192-.288-.408-.576-.6-.828l-1.008.42c.144.2.3.42.432.648l-1.236.06a29.176 29.176 0 0 0 2.232-2.34l-1.116-.512c-.3.432-.672.912-1.092 1.4-.18-.144-.384-.288-.6-.444.348-.408.744-.9 1.116-1.38l-.264-.1h4.968v-1.264h-4.332v-1.164h-1.464v1.164h-4.224v1.272h3.924c-.168.3-.36.624-.564.924l-.288-.18-.552.672a11.965 11.965 0 0 0 -1.728-1.14l-.948.78a9.456 9.456 0 0 1 1.8 1.32l.876-.732a14.479 14.479 0 0 1 1.512 1.116c-.228.228-.456.456-.684.672zm5.54-1.212a17.707 17.707 0 0 0 1.848-1.476l-1.268-.612a10.9 10.9 0 0 1 -1.62 1.524zm-2.564 2.292h-1.464v.768h-4.608v1.32h4.608v2.136h1.464v-2.136h4.7v-1.32h-4.7z" transform="translate(127.146 10.164)"/><g fill="#e61050"><path d="m-78.719-81.58h-16.427l7.875-13.412h22.887v94.992h-14.335zm41.405 33.469q0-22.7 10.582-36.237 9.475-12.243 22.948-12.243t22.949 12.242q10.582 13.536 10.582 36.849 0 23.256-10.582 36.791-9.475 12.247-22.887 12.247t-23.01-12.243q-10.582-13.535-10.582-37.406zm14.089.062q0 15.812 5.476 26.271 5.475 10.278 13.965 10.278 8.429 0 13.966-10.274 5.537-10.213 5.537-25.778t-5.537-25.848q-5.537-10.21-13.966-10.21-8.367 0-13.9 10.213-5.541 10.151-5.541 25.347zm63.677-.062q0-22.7 10.582-36.237 9.475-12.243 22.948-12.243t22.948 12.242q10.582 13.536 10.582 36.849 0 23.256-10.582 36.791-9.474 12.247-22.887 12.247t-23.009-12.243q-10.582-13.535-10.582-37.406zm14.089.062q0 15.812 5.476 26.271 5.475 10.278 13.965 10.278 8.429 0 13.966-10.274 5.537-10.213 5.537-25.778t-5.537-25.848q-5.537-10.21-13.966-10.21-8.367 0-13.9 10.213-5.541 10.151-5.541 25.347z" transform="translate(95.146 128.515)"/><path d="m10.84-25.9h-5.215l2.5-4.258h7.266v30.158h-4.551zm13.144 10.627q0-7.207 3.359-11.5a8.955 8.955 0 0 1 7.285-3.887 8.955 8.955 0 0 1 7.285 3.887q3.359 4.3 3.359 11.7 0 7.383-3.359 11.68a8.939 8.939 0 0 1 -7.265 3.881 9.042 9.042 0 0 1 -7.3-3.887q-3.364-4.301-3.364-11.874zm4.473.02a17.869 17.869 0 0 0 1.743 8.339q1.738 3.262 4.434 3.262 2.676 0 4.434-3.262a17.04 17.04 0 0 0 1.752-8.186 17.158 17.158 0 0 0 -1.758-8.2q-1.758-3.242-4.434-3.242-2.656 0-4.414 3.242a16.648 16.648 0 0 0 -1.757 8.046zm20.215-.02q0-7.207 3.359-11.5a8.955 8.955 0 0 1 7.285-3.887 8.955 8.955 0 0 1 7.284 3.883q3.359 4.3 3.359 11.7.002 7.377-3.359 11.677a8.939 8.939 0 0 1 -7.264 3.888 9.042 9.042 0 0 1 -7.3-3.887q-3.364-4.301-3.364-11.874zm4.473.02a17.869 17.869 0 0 0 1.738 8.34q1.738 3.262 4.434 3.262 2.676 0 4.434-3.262a17.04 17.04 0 0 0 1.757-8.187 17.158 17.158 0 0 0 -1.758-8.2q-1.758-3.242-4.434-3.242-2.656 0-4.414 3.242a16.648 16.648 0 0 0 -1.757 8.046z" transform="translate(163.146 182.551)"/><path d="m-22.7-31.667a8.934 8.934 0 0 1 2.927-6.645 9.711 9.711 0 0 1 6.882-2.821 9.52 9.52 0 0 1 6.908 2.848 9.087 9.087 0 0 1 2.9 6.75 9.117 9.117 0 0 1 -2.9 6.776 9.66 9.66 0 0 1 -6.987 2.821 9.389 9.389 0 0 1 -6.882-2.874 9.4 9.4 0 0 1 -2.848-6.855zm4.588.079a5.092 5.092 0 0 0 1.529 3.744 5.061 5.061 0 0 0 3.718 1.529 5 5 0 0 0 3.665-1.529 5.03 5.03 0 0 0 1.529-3.691 5 5 0 0 0 -1.529-3.665 5.03 5.03 0 0 0 -3.691-1.529 5.03 5.03 0 0 0 -3.694 1.529 4.94 4.94 0 0 0 -1.529 3.612zm28.342-9.835 2.87 1.635-23.3 40.447-2.9-1.74zm-7.171 32.063a8.906 8.906 0 0 1 2.927-6.618 9.711 9.711 0 0 1 6.881-2.822 9.551 9.551 0 0 1 6.933 2.848 9.087 9.087 0 0 1 2.9 6.752 9.023 9.023 0 0 1 -2.927 6.776 9.65 9.65 0 0 1 -6.985 2.793 9.432 9.432 0 0 1 -6.882-2.848 9.376 9.376 0 0 1 -2.847-6.881zm4.614.105a5.138 5.138 0 0 0 1.5 3.744 5.061 5.061 0 0 0 3.718 1.529 4.944 4.944 0 0 0 3.665-1.529 5.03 5.03 0 0 0 1.532-3.689 5.03 5.03 0 0 0 -1.529-3.691 4.974 4.974 0 0 0 -3.691-1.529 5 5 0 0 0 -3.668 1.526 4.969 4.969 0 0 0 -1.527 3.639z" transform="translate(232.146 117.319)"/><path d="m-6.727-9.383a2.647 2.647 0 0 1 .867-1.969 2.877 2.877 0 0 1 2.039-.836 2.821 2.821 0 0 1 2.047.844 2.692 2.692 0 0 1 .859 2 2.7 2.7 0 0 1 -.859 2.008 2.862 2.862 0 0 1 -2.07.836 2.782 2.782 0 0 1 -2.039-.852 2.786 2.786 0 0 1 -.844-2.031zm1.359.023a1.509 1.509 0 0 0 .454 1.11 1.5 1.5 0 0 0 1.1.453 1.481 1.481 0 0 0 1.087-.453 1.49 1.49 0 0 0 .453-1.094 1.481 1.481 0 0 0 -.453-1.086 1.49 1.49 0 0 0 -1.094-.453 1.49 1.49 0 0 0 -1.094.453 1.464 1.464 0 0 0 -.452 1.071zm8.4-2.914.852.484-6.907 11.99-.86-.52zm-2.126 9.501a2.639 2.639 0 0 1 .867-1.961 2.877 2.877 0 0 1 2.04-.836 2.83 2.83 0 0 1 2.055.844 2.692 2.692 0 0 1 .859 2 2.673 2.673 0 0 1 -.868 2.007 2.859 2.859 0 0 1 -2.07.828 2.8 2.8 0 0 1 -2.039-.843 2.778 2.778 0 0 1 -.844-2.039zm1.367.031a1.522 1.522 0 0 0 .445 1.109 1.5 1.5 0 0 0 1.1.453 1.465 1.465 0 0 0 1.086-.453 1.49 1.49 0 0 0 .453-1.094 1.49 1.49 0 0 0 -.451-1.093 1.474 1.474 0 0 0 -1.094-.453 1.481 1.481 0 0 0 -1.086.453 1.472 1.472 0 0 0 -.453 1.078z" transform="translate(248.146 180.875)"/><path d="m-28.152 0h5.7v-1.176h-2.208c-.432 0-.984.036-1.44.084 1.872-1.788 3.228-3.552 3.228-5.256a2.5 2.5 0 0 0 -2.664-2.652 3.466 3.466 0 0 0 -2.688 1.32l.78.768a2.4 2.4 0 0 1 1.744-.988 1.44 1.44 0 0 1 1.5 1.62c0 1.452-1.344 3.168-3.948 5.472zm10.932.156c1.728 0 2.856-1.536 2.856-4.608 0-3.048-1.128-4.548-2.856-4.548s-2.856 1.488-2.856 4.548 1.116 4.608 2.856 4.608zm0-1.092c-.9 0-1.536-.96-1.536-3.516 0-2.532.636-3.456 1.536-3.456s1.536.924 1.536 3.456c0 2.552-.636 3.516-1.536 3.516zm5.652.936h5.04v-1.14h-1.728v-7.692h-1.044a5.425 5.425 0 0 1 -1.92.672v.876h1.584v6.144h-1.932zm10.236-4.32c-.924 0-1.428-.648-1.428-1.776 0-1.152.6-1.836 1.356-1.836.96 0 1.62.792 1.752 2.532a2.118 2.118 0 0 1 -1.68 1.08zm-2.568 3.54a3.031 3.031 0 0 0 2.256.936c1.7 0 3.288-1.392 3.288-4.872 0-2.916-1.368-4.284-3.06-4.284a2.7 2.7 0 0 0 -2.628 2.9c0 1.848 1 2.772 2.472 2.772a2.655 2.655 0 0 0 1.944-1.028c-.084 2.52-1.008 3.384-2.072 3.384a1.969 1.969 0 0 1 -1.452-.66zm11.016-2v-2.128h2.412v2.124zm7.776 0h-4.212v-2.128h3.348v-1.044h-3.348v-1.656h3.62v-1.08h-6.944c.156-.36.324-.756.468-1.128l-1.128-.3a9.709 9.709 0 0 1 -2.616 4.068 8.874 8.874 0 0 1 .972.72 10.917 10.917 0 0 0 1.728-2.28h2.748v1.656h-3.528v3.168h-1.932v1.084h5.46v2.648h1.152v-2.648h4.212zm4.308-5.164h8.784v-1h-4.368v-1.128h-1.164v1.132h-4.32v3.384c0 1.74-.084 4.176-1.056 5.88a5.051 5.051 0 0 1 .912.612c1.044-1.824 1.212-4.608 1.212-6.492zm5.772 2.112v1.056h-2.592v-1.056zm1.092 1.92v-1.92h1.836v-.912h-1.836v-.912h-1.092v.912h-2.592v-.912h-1.056v.912h-1.776v.912h1.776v1.92zm-.5 1.524a5.531 5.531 0 0 1 -1.776 1.3 5.162 5.162 0 0 1 -1.74-1.3zm.936-.936-.2.036h-6.62v.9h1.836l-.54.2a6.388 6.388 0 0 0 1.656 1.552 16.731 16.731 0 0 1 -3.432.66 3.421 3.421 0 0 1 .468.936 15.753 15.753 0 0 0 4.08-.984 13.58 13.58 0 0 0 3.8 1 3.974 3.974 0 0 1 .652-.964 15.778 15.778 0 0 1 -3.252-.636 5.788 5.788 0 0 0 2.232-2.328z" transform="translate(225.146 131.631)"/><path d="m.528 0h5.7v-1.176h-2.208c-.432 0-.984.036-1.44.084 1.872-1.788 3.228-3.552 3.228-5.256a2.5 2.5 0 0 0 -2.664-2.652 3.466 3.466 0 0 0 -2.688 1.32l.78.768a2.4 2.4 0 0 1 1.74-.988 1.44 1.44 0 0 1 1.5 1.62c0 1.456-1.344 3.172-3.948 5.48zm10.932.156c1.728 0 2.856-1.536 2.856-4.608 0-3.048-1.128-4.548-2.856-4.548s-2.86 1.488-2.86 4.548 1.12 4.608 2.86 4.608zm0-1.092c-.9 0-1.536-.96-1.536-3.516 0-2.532.636-3.456 1.536-3.456s1.54.924 1.54 3.456c0 2.552-.64 3.516-1.54 3.516zm5.148.936h5.7v-1.176h-2.208c-.432 0-.984.036-1.44.084 1.872-1.788 3.228-3.552 3.228-5.256a2.5 2.5 0 0 0 -2.664-2.652 3.466 3.466 0 0 0 -2.688 1.32l.78.768a2.4 2.4 0 0 1 1.74-.984 1.44 1.44 0 0 1 1.5 1.62c0 1.452-1.344 3.168-3.948 5.472zm10.728.156c1.62 0 2.952-.936 2.952-2.532a2.236 2.236 0 0 0 -1.824-2.208v-.06a2.135 2.135 0 0 0 1.524-2.076c0-1.464-1.116-2.28-2.7-2.28a3.722 3.722 0 0 0 -2.532 1.068l.72.864a2.586 2.586 0 0 1 1.764-.84 1.236 1.236 0 0 1 1.36 1.284c0 .888-.576 1.548-2.316 1.548v1.02c1.992 0 2.616.636 2.616 1.62a1.483 1.483 0 0 1 -1.68 1.464 2.854 2.854 0 0 1 -2.088-.972l-.672.888a3.666 3.666 0 0 0 2.876 1.212zm-23.7 15.06v-2.124h2.412v2.124zm7.776 0h-4.212v-2.124h3.348v-1.044h-3.348v-1.656h3.624v-1.08h-6.948c.156-.36.324-.756.468-1.128l-1.128-.3a9.709 9.709 0 0 1 -2.616 4.068 8.874 8.874 0 0 1 .972.72 10.917 10.917 0 0 0 1.728-2.28h2.748v1.656h-3.528v3.168h-1.932v1.084h5.46v2.652h1.152v-2.652h4.212zm4.308-5.16h8.78v-1h-4.364v-1.124h-1.164v1.128h-4.32v3.384c0 1.74-.084 4.176-1.056 5.88a5.051 5.051 0 0 1 .912.612c1.044-1.824 1.212-4.608 1.212-6.492zm5.772 2.112v1.056h-2.592v-1.056zm1.092 1.92v-1.92h1.836v-.912h-1.836v-.912h-1.092v.912h-2.592v-.912h-1.056v.912h-1.776v.912h1.776v1.92zm-.5 1.524a5.531 5.531 0 0 1 -1.776 1.3 5.162 5.162 0 0 1 -1.74-1.3zm.936-.936-.2.036h-6.62v.9h1.836l-.54.2a6.388 6.388 0 0 0 1.656 1.548 16.731 16.731 0 0 1 -3.432.66 3.421 3.421 0 0 1 .468.936 15.753 15.753 0 0 0 4.08-.984 13.58 13.58 0 0 0 3.8 1 3.974 3.974 0 0 1 .648-.96 15.778 15.778 0 0 1 -3.252-.636 5.788 5.788 0 0 0 2.236-2.328z" transform="translate(128.146 163.118)"/></g><path d="m145.508 0h55.5" fill="none" stroke="#e61050" transform="translate(-81.362 158.227)"/><path d="m192.641 185.118a6.2 6.2 0 1 1 2.4-8.43 6.2 6.2 0 0 1 -2.4 8.43z" fill="#e61050" transform="translate(-178.281 -13.46)"/><path d="m228.384 165.7a5 5 0 1 1 1.908-6.81 5 5 0 0 1 -1.908 6.81z" fill="#e61050" transform="translate(-191.92 -7.216)"/><path d="m223.457 199.833c-.119-1.581 2.5-14.977 2.5-14.977s-.56-1.975-1.718-5.522c-.268-.82-.464-1.474-.59-2.021l-2.151-.333a1.493 1.493 0 0 1 -.208-.035l-5.445-.916a1.737 1.737 0 0 1 .339-3.428s9.029-.155 9.1-.149a6.727 6.727 0 0 1 5.74 2.1 22 22 0 0 1 3.716 17.041l-.354 8.814a2.055 2.055 0 0 1 -4.109.067l-.734-5.92-2.069 6.007a2.053 2.053 0 0 1 -4.019-.728z" fill="#e61050" transform="translate(-189.584 -13.062)"/><path d="m218.727 179.7a2.411 2.411 0 0 0 -3.321-.781l-10.289 5.767a2.994 2.994 0 0 0 -.571.27l-8.164 4.528c-2.675 1.48-4.38 3.553-2.7 7.642.845 2.043 3.458 8.027 5.511 13.579 1.035 2.773 1.936 5.429 2.546 7.39a23.623 23.623 0 0 1 .708 2.875c.345 1.752.6 3.634.807 5.533s.377 3.84.522 5.787c.382 5.2.618 5.814.858 11.1a3.145 3.145 0 0 0 6.289 0c.235-5.3.476-5.947.565-11.319.04-2.587.046-5.188-.047-7.839-.03-2.3-.293-4.525-.3-4.529s-.031-.374-.109-1.054c-.041-.342-.094-.759-.171-1.252-.038-.248-.083-.513-.137-.8l-.181-.885c-.46-2.179-1.161-5.1-1.994-8.116-1.44-5.276-3.093-10.7-4.133-13.447l13.53-11.13a2.41 2.41 0 0 0 .781-3.319z" fill="#e61050" transform="translate(-181.768 -15.297)"/></svg>