<svg xmlns="http://www.w3.org/2000/svg" width="229.14" height="213.24" viewBox="0 0 229.14 213.24">
  <g id="グループ_958" data-name="グループ 958" transform="translate(-164.861 -7234.482)">
    <g id="グループ_957" data-name="グループ 957">
      <path id="パス_12472" data-name="パス 12472" d="M-30.348-6.012a7.679,7.679,0,0,1-1.476,3.276c-.9-.4-1.8-.744-2.616-1.032.3-.708.624-1.464.936-2.244Zm3.408,0V-7.464h-5.976c.336-.828.648-1.656.936-2.424l-1.572-.264c-.288.828-.636,1.752-1,2.688h-3.276v1.452h2.688c-.528,1.284-1.068,2.5-1.524,3.432l1.44.528.2-.444q.954.378,1.944.828A11.333,11.333,0,0,1-37.728-.36a4.811,4.811,0,0,1,.756,1.428A11.5,11.5,0,0,0-31.464-.888,20.328,20.328,0,0,1-28.224,1.1L-27.132-.24a21.821,21.821,0,0,0-3.192-1.824,9.99,9.99,0,0,0,1.608-3.948ZM-16.728-.7V-3.1h2.2V-4.428h-2.2V-6.4h2.448V-7.74h-2.448v-2.352h-1.428V-7.74h-.96c.12-.54.216-1.1.3-1.668L-20.208-9.6a14.524,14.524,0,0,1-.636,2.928,13.759,13.759,0,0,0-.66-1.512l-.7.288v-2.268h-1.428v2.448l-1.008-.144a14.262,14.262,0,0,1-.588,3.12l1.056.384a15.292,15.292,0,0,0,.54-3.18v8.58H-22.2v-8.2a8.344,8.344,0,0,1,.456,1.38l.684-.312c-.12.252-.24.48-.36.7a12.619,12.619,0,0,1,1.272.648A8.2,8.2,0,0,0-19.476-6.4h1.32v1.968h-2.316V-3.1h2.316V-.7h-3.2V.66H-13.9V-.7Zm14.52-9.384a32.217,32.217,0,0,1-6.036.9,4.874,4.874,0,0,1,.372,1.14A33.917,33.917,0,0,0-1.26-8.964Zm-.36,5.124A26.566,26.566,0,0,0-.936-7.8l-1.356-.492A15.68,15.68,0,0,1-3.672-5.4ZM-4.032-5.9a7.3,7.3,0,0,0-.552-2.184l-1.188.228a7.9,7.9,0,0,1,.48,2.208Zm-2.1.36a9.146,9.146,0,0,0-.816-2.244L-8.076-7.5a10.513,10.513,0,0,1,.732,2.3Zm-2.34.408-.972.276V-6.588h1.092V-7.9H-9.444v-2.256h-1.3V-7.9H-12v1.308h1.26v2.076c-.54.132-1.044.264-1.452.348L-11.88-2.8c.348-.1.744-.2,1.14-.324V-.468c0,.156-.06.2-.2.2a9.7,9.7,0,0,1-1-.012,5.308,5.308,0,0,1,.36,1.32A3.112,3.112,0,0,0-9.912.78c.36-.228.468-.588.468-1.248V-3.5c.384-.108.768-.228,1.152-.348Zm7.44,2.172V-4.2H-3.924V-5.412H-5.268V-4.2h-2.82v1.236h2.064A7.163,7.163,0,0,1-8.856-.588,6.481,6.481,0,0,1-7.908.528a8.317,8.317,0,0,0,2.64-2.472V.96h1.344V-1.884A8.756,8.756,0,0,0-1.632.468,5.361,5.361,0,0,1-.7-.612,7.324,7.324,0,0,1-3.24-2.964ZM7.32-3.8V-5.28H9.852V-3.8Zm-3.732,0c.024-.444.036-.876.036-1.26V-5.28H5.88V-3.8ZM5.88-8v1.392H3.624V-8ZM9.852-6.612H7.32V-8H9.852ZM11.268-9.36H2.208v4.284C2.208-3.4,2.1-1.26.792.18A5.271,5.271,0,0,1,1.92,1.1,6.872,6.872,0,0,0,3.432-2.46H5.88V.888H7.32V-2.46H9.852v1.8c0,.216-.084.288-.312.288S8.532-.36,7.86-.4A5.4,5.4,0,0,1,8.316.972,5.573,5.573,0,0,0,10.62.72c.48-.216.648-.6.648-1.368Zm7.02,7.776v1.02H15.9v-1.02ZM14.616,1.032H15.9V.5h2.388V.912h1.356V-2.652H14.616Zm4.344-8.16H17.736v-.648H16.428v.648H15.2v-.888H18.96Zm-1.2-2.964H16.392v1H13.944v2.064h.588v.912h1.9v.5H14.652v.948h1.776v.516H13.98V-3.06h6.168V-4.152H17.736v-.516h1.752v-.948H17.736v-.5h1.92v-.912h.624V-9.1H17.76Zm4.38,1.2H20.784v6.708H22.14Zm1.128-1.056v9.24c0,.192-.084.264-.288.264-.24,0-.924.012-1.62-.024a5.846,5.846,0,0,1,.468,1.476,5.278,5.278,0,0,0,2.2-.288C24.5.492,24.648.1,24.648-.7V-9.948ZM34.788-2.6V-.648h-4.74V-2.6Zm-6.144,3.66h1.4V.612h4.74v.444h1.464v-4.92H28.644Zm1.332-7.368a12.261,12.261,0,0,0,2.388-2.436,13.146,13.146,0,0,0,2.46,2.436Zm1.584-3.84A12.7,12.7,0,0,1,26.676-5.88a5.827,5.827,0,0,1,.9,1.164,16.719,16.719,0,0,0,1.86-1.176v.84h5.976V-5.88a14.394,14.394,0,0,0,1.836,1.14,6.975,6.975,0,0,1,.924-1.284,12.055,12.055,0,0,1-5.136-4.128Z" transform="translate(279 7244.646)"/>
      <g id="グループ_76" data-name="グループ 76" transform="translate(-346 1310)">
        <path id="パス_12291" data-name="パス 12291" d="M-85.787-84.39H-99.139l6.4-10.9h18.6v77.213H-85.787ZM-45.35-58.235a18.979,18.979,0,0,1-8.5-16.353,21.057,21.057,0,0,1,6.451-15.7,22.3,22.3,0,0,1,16.153-6.3,21.893,21.893,0,0,1,16,6.3,21.1,21.1,0,0,1,6.4,15.753q0,9.952-8.451,16.253a17.908,17.908,0,0,1,7.3,7.3,21.647,21.647,0,0,1,2.7,10.8q0,10.252-6.7,16.8t-17.153,6.551q-10.7,0-17.653-6.6a21.855,21.855,0,0,1-7-16.6Q-55.8-53.034-45.35-58.235Zm2.45-16.4a11.274,11.274,0,0,0,3.351,8.3,11.177,11.177,0,0,0,8.2,3.4,11.119,11.119,0,0,0,8.151-3.4,11.119,11.119,0,0,0,3.4-8.151,11.119,11.119,0,0,0-3.4-8.151,11.119,11.119,0,0,0-8.151-3.4,11.119,11.119,0,0,0-8.151,3.4A10.949,10.949,0,0,0-42.9-74.638Zm-1.45,34.206a12.816,12.816,0,0,0,3.7,9.2,12.311,12.311,0,0,0,9.1,3.8A12.334,12.334,0,0,0-22.5-31.18a12.5,12.5,0,0,0,3.751-9.1,12.393,12.393,0,0,0-3.751-9.1,12.334,12.334,0,0,0-9.052-3.751A12.442,12.442,0,0,0-40.6-49.384,12.219,12.219,0,0,0-44.349-40.432ZM3.789-23.679a6.631,6.631,0,0,1,2.05-4.851,6.688,6.688,0,0,1,4.9-2.05,6.688,6.688,0,0,1,4.9,2.05,6.688,6.688,0,0,1,2.05,4.9,6.746,6.746,0,0,1-2.05,4.951,6.665,6.665,0,0,1-4.9,2,6.724,6.724,0,0,1-4.951-2A6.785,6.785,0,0,1,3.789-23.679ZM40.975-84.39H27.623l6.4-10.9h18.6v77.213H40.975Z" transform="translate(610 6154.4)" fill="#a21b43"/>
        <path id="パス_12292" data-name="パス 12292" d="M10.352-14v-3.887a7.925,7.925,0,0,0,3.887-.645,3.987,3.987,0,0,0,1.777-3.633,4.118,4.118,0,0,0-1.289-3.145,4.543,4.543,0,0,0-3.3-1.23,4.271,4.271,0,0,0-2.93.918,6.082,6.082,0,0,0-1.484,3.164H2.48q.7-4.258,2.891-6.24a8.777,8.777,0,0,1,6.113-1.982,9.072,9.072,0,0,1,6.465,2.344,7.817,7.817,0,0,1,2.5,6A7.43,7.43,0,0,1,17.168-15.9q3.75,2.207,3.75,7.168A8.718,8.718,0,0,1,18.184-2.09,9.809,9.809,0,0,1,11.172.488q-5.449,0-8.086-4A10.392,10.392,0,0,1,1.7-8.164H6.094A5.343,5.343,0,0,0,7.8-4.814a5.261,5.261,0,0,0,3.545,1.162A4.916,4.916,0,0,0,15-5.117a5.274,5.274,0,0,0,1.445-3.809,4.638,4.638,0,0,0-2.168-4.336A8.027,8.027,0,0,0,10.352-14Zm24.688,0v-3.887a7.925,7.925,0,0,0,3.887-.645A3.987,3.987,0,0,0,40.7-22.168a4.118,4.118,0,0,0-1.289-3.145,4.543,4.543,0,0,0-3.3-1.23,4.271,4.271,0,0,0-2.93.918A6.082,6.082,0,0,0,31.7-22.461H27.168q.7-4.258,2.891-6.24a8.777,8.777,0,0,1,6.113-1.982,9.072,9.072,0,0,1,6.465,2.344,7.817,7.817,0,0,1,2.5,6A7.43,7.43,0,0,1,41.855-15.9q3.75,2.207,3.75,7.168A8.718,8.718,0,0,1,42.871-2.09,9.809,9.809,0,0,1,35.859.488q-5.449,0-8.086-4a10.392,10.392,0,0,1-1.387-4.648h4.395a5.343,5.343,0,0,0,1.709,3.35,5.261,5.261,0,0,0,3.545,1.162,4.916,4.916,0,0,0,3.652-1.465,5.274,5.274,0,0,0,1.445-3.809,4.638,4.638,0,0,0-2.168-4.336A8.027,8.027,0,0,0,35.039-14ZM52.832-2.187a2.59,2.59,0,0,1,.8-1.895,2.612,2.612,0,0,1,1.914-.8,2.612,2.612,0,0,1,1.914.8,2.612,2.612,0,0,1,.8,1.914,2.635,2.635,0,0,1-.8,1.934,2.6,2.6,0,0,1-1.914.781,2.626,2.626,0,0,1-1.934-.781A2.65,2.65,0,0,1,52.832-2.187Zm24.59-29.023,3.34,2.5-7.207,9.8q.586-.078,1-.117t.645-.039a8.471,8.471,0,0,1,6.348,2.813A9.311,9.311,0,0,1,84.2-9.57,9.7,9.7,0,0,1,81.23-2.461,9.667,9.667,0,0,1,74.141.488a10.15,10.15,0,0,1-7.187-2.91,9.247,9.247,0,0,1-3.027-6.895,12.978,12.978,0,0,1,2.949-7.578ZM79.766-9.277a5.525,5.525,0,0,0-1.66-4.062,5.511,5.511,0,0,0-4.043-1.68,5.5,5.5,0,0,0-4.043,1.66,5.479,5.479,0,0,0-1.66,4.023,5.479,5.479,0,0,0,1.66,4.023,5.525,5.525,0,0,0,4.063,1.66,5.457,5.457,0,0,0,4-1.66A5.422,5.422,0,0,0,79.766-9.277Z" transform="translate(547 6002)" fill="#a21b43"/>
        <path id="パス_12298" data-name="パス 12298" d="M-15.135-21.111a5.956,5.956,0,0,1,1.951-4.43A6.474,6.474,0,0,1-8.6-27.422a6.347,6.347,0,0,1,4.605,1.9,6.058,6.058,0,0,1,1.934,4.5A6.078,6.078,0,0,1-3.99-16.506a6.44,6.44,0,0,1-4.658,1.881,6.259,6.259,0,0,1-4.588-1.916A6.268,6.268,0,0,1-15.135-21.111Zm3.059.053a3.4,3.4,0,0,0,1.02,2.5,3.374,3.374,0,0,0,2.479,1.02,3.333,3.333,0,0,0,2.443-1.02,3.353,3.353,0,0,0,1.02-2.461,3.333,3.333,0,0,0-1.02-2.443A3.353,3.353,0,0,0-8.6-24.486a3.353,3.353,0,0,0-2.461,1.02A3.293,3.293,0,0,0-12.076-21.059Zm18.9-6.557,1.916,1.09L-6.8.439-8.736-.721ZM2.039-6.24A5.937,5.937,0,0,1,3.99-10.652a6.474,6.474,0,0,1,4.588-1.881,6.367,6.367,0,0,1,4.623,1.9,6.058,6.058,0,0,1,1.934,4.5,6.015,6.015,0,0,1-1.951,4.518A6.433,6.433,0,0,1,8.525.246a6.288,6.288,0,0,1-4.588-1.9A6.251,6.251,0,0,1,2.039-6.24Zm3.076.07a3.425,3.425,0,0,0,1,2.5A3.374,3.374,0,0,0,8.6-2.654a3.3,3.3,0,0,0,2.443-1.02,3.353,3.353,0,0,0,1.02-2.461A3.353,3.353,0,0,0,11.039-8.6a3.316,3.316,0,0,0-2.461-1.02A3.333,3.333,0,0,0,6.135-8.6,3.313,3.313,0,0,0,5.115-6.17Z" transform="translate(722 6118)" fill="#a21b43"/>
        <path id="パス_12297" data-name="パス 12297" d="M-6.727-9.383a2.647,2.647,0,0,1,.867-1.969,2.877,2.877,0,0,1,2.039-.836,2.821,2.821,0,0,1,2.047.844,2.692,2.692,0,0,1,.859,2,2.7,2.7,0,0,1-.859,2.008,2.862,2.862,0,0,1-2.07.836,2.782,2.782,0,0,1-2.039-.852A2.786,2.786,0,0,1-6.727-9.383Zm1.359.023A1.509,1.509,0,0,0-4.914-8.25a1.5,1.5,0,0,0,1.1.453A1.481,1.481,0,0,0-2.727-8.25a1.49,1.49,0,0,0,.453-1.094,1.481,1.481,0,0,0-.453-1.086,1.49,1.49,0,0,0-1.094-.453,1.49,1.49,0,0,0-1.094.453A1.464,1.464,0,0,0-5.367-9.359Zm8.4-2.914.852.484L-3.023.2-3.883-.32ZM.906-2.773a2.639,2.639,0,0,1,.867-1.961A2.877,2.877,0,0,1,3.813-5.57a2.83,2.83,0,0,1,2.055.844,2.692,2.692,0,0,1,.859,2A2.673,2.673,0,0,1,5.859-.719a2.859,2.859,0,0,1-2.07.828A2.8,2.8,0,0,1,1.75-.734,2.778,2.778,0,0,1,.906-2.773Zm1.367.031a1.522,1.522,0,0,0,.445,1.109,1.5,1.5,0,0,0,1.1.453,1.465,1.465,0,0,0,1.086-.453,1.49,1.49,0,0,0,.453-1.094A1.49,1.49,0,0,0,4.906-3.82a1.474,1.474,0,0,0-1.094-.453,1.481,1.481,0,0,0-1.086.453A1.472,1.472,0,0,0,2.273-2.742Z" transform="translate(646 6001)" fill="#a21b43"/>
        <path id="パス_12474" data-name="パス 12474" d="M-28.152,0h5.7V-1.176H-24.66c-.432,0-.984.036-1.44.084,1.872-1.788,3.228-3.552,3.228-5.256A2.5,2.5,0,0,0-25.536-9a3.466,3.466,0,0,0-2.688,1.32l.78.768A2.4,2.4,0,0,1-25.7-7.9a1.44,1.44,0,0,1,1.5,1.62c0,1.452-1.344,3.168-3.948,5.472ZM-17.22.156c1.728,0,2.856-1.536,2.856-4.608C-14.364-7.5-15.492-9-17.22-9s-2.856,1.488-2.856,4.548S-18.96.156-17.22.156Zm0-1.092c-.9,0-1.536-.96-1.536-3.516,0-2.532.636-3.456,1.536-3.456s1.536.924,1.536,3.456C-15.684-1.9-16.32-.936-17.22-.936ZM-11.568,0h5.04V-1.14H-8.256V-8.832H-9.3a5.425,5.425,0,0,1-1.92.672v.876h1.584V-1.14h-1.932ZM-1.332-4.32c-.924,0-1.428-.648-1.428-1.776,0-1.152.6-1.836,1.356-1.836.96,0,1.62.792,1.752,2.532A2.118,2.118,0,0,1-1.332-4.32ZM-3.9-.78A3.031,3.031,0,0,0-1.644.156c1.7,0,3.288-1.392,3.288-4.872C1.644-7.632.276-9-1.416-9A2.7,2.7,0,0,0-4.044-6.1c0,1.848,1,2.772,2.472,2.772A2.655,2.655,0,0,0,.372-4.356C.288-1.836-.636-.972-1.7-.972a1.969,1.969,0,0,1-1.452-.66Zm11.016-2V-4.908H9.528v2.124Zm7.776,0H10.68V-4.908h3.348V-5.952H10.68V-7.608H14.3v-1.08H7.356c.156-.36.324-.756.468-1.128l-1.128-.3A9.709,9.709,0,0,1,4.08-6.048a8.874,8.874,0,0,1,.972.72A10.917,10.917,0,0,0,6.78-7.608H9.528v1.656H6v3.168H4.068V-1.7h5.46V.948H10.68V-1.7h4.212ZM19.2-7.944h8.784v-1H23.616v-1.128H22.452V-8.94h-4.32v3.384c0,1.74-.084,4.176-1.056,5.88a5.051,5.051,0,0,1,.912.612C19.032-.888,19.2-3.672,19.2-5.556Zm5.772,2.112v1.056H22.38V-5.832Zm1.092,1.92v-1.92H27.9v-.912H26.064v-.912H24.972v.912H22.38v-.912H21.324v.912H19.548v.912h1.776v1.92Zm-.5,1.524a5.531,5.531,0,0,1-1.776,1.3,5.162,5.162,0,0,1-1.74-1.3Zm.936-.936-.2.036H19.68v.9h1.836l-.54.2A6.388,6.388,0,0,0,22.632-.636,16.731,16.731,0,0,1,19.2.024a3.421,3.421,0,0,1,.468.936,15.753,15.753,0,0,0,4.08-.984,13.58,13.58,0,0,0,3.8,1A3.974,3.974,0,0,1,28.2.012a15.778,15.778,0,0,1-3.252-.636A5.788,5.788,0,0,0,27.18-2.952Z" transform="translate(709 6134.646)" fill="#a21b43"/>
        <path id="パス_12473" data-name="パス 12473" d="M.528,0h5.7V-1.176H4.02c-.432,0-.984.036-1.44.084C4.452-2.88,5.808-4.644,5.808-6.348A2.5,2.5,0,0,0,3.144-9,3.429,3.429,0,0,0,.456-7.68l.78.768A2.4,2.4,0,0,1,2.976-7.9a1.434,1.434,0,0,1,1.5,1.62C4.476-4.824,3.132-3.108.528-.8ZM11.46.156c1.728,0,2.856-1.536,2.856-4.608C14.316-7.5,13.188-9,11.46-9S8.6-7.512,8.6-4.452,9.732.156,11.46.156Zm0-1.092c-.9,0-1.536-.96-1.536-3.516,0-2.532.636-3.456,1.536-3.456S13-6.984,13-4.452C13-1.9,12.36-.936,11.46-.936ZM16.608,0h5.7V-1.176H20.1c-.432,0-.984.036-1.44.084,1.872-1.788,3.228-3.552,3.228-5.256A2.5,2.5,0,0,0,19.224-9a3.429,3.429,0,0,0-2.688,1.32l.78.768a2.4,2.4,0,0,1,1.74-.984,1.434,1.434,0,0,1,1.5,1.62c0,1.452-1.344,3.168-3.948,5.472ZM27.336.156c1.62,0,2.952-.936,2.952-2.532a2.236,2.236,0,0,0-1.824-2.208v-.06A2.135,2.135,0,0,0,29.988-6.72c0-1.452-1.116-2.28-2.7-2.28a3.722,3.722,0,0,0-2.532,1.068l.72.864A2.572,2.572,0,0,1,27.24-7.9,1.227,1.227,0,0,1,28.6-6.624c0,.888-.576,1.548-2.316,1.548v1.02c1.992,0,2.616.636,2.616,1.608a1.485,1.485,0,0,1-1.68,1.476,2.854,2.854,0,0,1-2.088-.972l-.672.888A3.666,3.666,0,0,0,27.336.156Zm-23.7,15.06V13.092H6.048v2.124Zm7.776,0H7.2V13.092h3.348V12.048H7.2V10.392h3.624V9.312H3.876c.156-.36.324-.756.468-1.128l-1.128-.3A9.709,9.709,0,0,1,.6,11.952a8.874,8.874,0,0,1,.972.72A10.917,10.917,0,0,0,3.3,10.392H6.048v1.656H2.52v3.168H.588V16.3h5.46v2.652H7.2V16.3h4.212Zm4.308-5.16H24.5v-1H20.136V7.932H18.972V9.06h-4.32v3.384c0,1.74-.084,4.176-1.056,5.88a5.051,5.051,0,0,1,.912.612c1.044-1.824,1.212-4.608,1.212-6.492Zm5.772,2.112v1.056H18.9V12.168Zm1.092,1.92v-1.92H24.42v-.912H22.584v-.912H21.492v.912H18.9v-.912H17.844v.912H16.068v.912h1.776v1.92Zm-.5,1.524a5.531,5.531,0,0,1-1.776,1.3,5.162,5.162,0,0,1-1.74-1.3Zm.936-.936-.2.036H16.2v.9h1.836l-.54.2a6.388,6.388,0,0,0,1.656,1.548,16.731,16.731,0,0,1-3.432.66,3.421,3.421,0,0,1,.468.936,15.753,15.753,0,0,0,4.08-.984,13.58,13.58,0,0,0,3.8,1,3.974,3.974,0,0,1,.648-.96,15.778,15.778,0,0,1-3.252-.636A5.788,5.788,0,0,0,23.7,15.048Z" transform="translate(512 5982.646)" fill="#a21b43"/>
        <path id="パス_83" data-name="パス 83" d="M23.566,0H170.561" transform="translate(488.506 6021.5)" fill="none" stroke="#a21b43" stroke-width="1"/>
      </g>
    </g>
    <g id="グループ_595" data-name="グループ 595" transform="translate(203.559 7267.844)">
      <path id="パス_111" data-name="パス 111" d="M218.178,21.251a10.625,10.625,0,1,0-10.626-10.621A10.626,10.626,0,0,0,218.178,21.251Z" transform="translate(-53.347)" fill="#a21b43"/>
      <path id="パス_112" data-name="パス 112" d="M190.141,177.1l-11.01-25.889,3.663-18.48c.381-7.016-4.9-12.276-10.045-12.276H156.91c-5.146,0-10.424,5.26-10.045,12.276l3.665,18.48L139.518,177.1a3.762,3.762,0,0,0,3.462,5.232h11.606l3,20.378a3.618,3.618,0,0,0,3.617,3.616h7.249a3.617,3.617,0,0,0,3.617-3.616l3-20.378h11.606a3.761,3.761,0,0,0,3.462-5.232Z" transform="translate(0 -94.038)" fill="#a21b43"/>
    </g>
  </g>
</svg>
