<svg xmlns="http://www.w3.org/2000/svg" width="260.49" height="220.136" viewBox="0 0 260.49 220.136">
  <g id="グループ_955" data-name="グループ 955" transform="translate(-876.01 -6594.482)">
    <g id="グループ_949" data-name="グループ 949">
      <path id="パス_12465" data-name="パス 12465" d="M-36.828-6.012A7.679,7.679,0,0,1-38.3-2.736c-.9-.4-1.8-.744-2.616-1.032.3-.708.624-1.464.936-2.244Zm3.408,0V-7.464H-39.4c.336-.828.648-1.656.936-2.424l-1.572-.264c-.288.828-.636,1.752-1,2.688H-44.3v1.452h2.688c-.528,1.284-1.068,2.5-1.524,3.432l1.44.528.2-.444q.954.378,1.944.828A11.333,11.333,0,0,1-44.208-.36a4.811,4.811,0,0,1,.756,1.428A11.5,11.5,0,0,0-37.944-.888,20.328,20.328,0,0,1-34.7,1.1L-33.612-.24A21.821,21.821,0,0,0-36.8-2.064,9.99,9.99,0,0,0-35.2-6.012ZM-23.208-.7V-3.1h2.2V-4.428h-2.2V-6.4h2.448V-7.74h-2.448v-2.352h-1.428V-7.74h-.96c.12-.54.216-1.1.3-1.668L-26.688-9.6a14.524,14.524,0,0,1-.636,2.928,13.759,13.759,0,0,0-.66-1.512l-.7.288v-2.268h-1.428v2.448l-1.008-.144A14.262,14.262,0,0,1-31.7-4.74l1.056.384a15.292,15.292,0,0,0,.54-3.18v8.58h1.428v-8.2a8.344,8.344,0,0,1,.456,1.38l.684-.312c-.12.252-.24.48-.36.7a12.619,12.619,0,0,1,1.272.648A8.2,8.2,0,0,0-25.956-6.4h1.32v1.968h-2.316V-3.1h2.316V-.7h-3.2V.66h7.464V-.7Zm11.124-7.5a7.179,7.179,0,0,0-.96-1.956l-1.272.42a7.476,7.476,0,0,1,.864,1.992Zm-.564,3.648c.048-.492.072-1.008.1-1.56h-1.56c-.024.564-.036,1.08-.084,1.56h-3.156v1.332h2.94c-.4,1.452-1.368,2.4-4,2.952a4.963,4.963,0,0,1,.828,1.32c3.2-.78,4.32-2.184,4.752-4.272h2.58c-.108,1.764-.252,2.568-.48,2.784a.7.7,0,0,1-.5.132c-.312,0-1.056-.012-1.764-.06a3.108,3.108,0,0,1,.5,1.4,15.353,15.353,0,0,0,1.884-.024A1.516,1.516,0,0,0-9.48.5c.408-.444.576-1.632.708-4.476.024-.18.036-.576.036-.576Zm3-3.168A22.558,22.558,0,0,0-8.232-9.624l-1.6-.48a12.2,12.2,0,0,1-1.344,2.292l.264.1h-4.908l.852-.4A7.256,7.256,0,0,0-16.2-9.972l-1.236.576a7.863,7.863,0,0,1,1.068,1.68h-1.7v2.784H-16.7V-6.4h7.476v1.464h1.44V-7.716Zm12.12,1.74a12.969,12.969,0,0,1-.684,4.668v-1H.168V-2.88h1.62V-6.444H.18V-6.96H1.836v.744h.636ZM.168-1.284H1.776c-.072.18-.144.348-.228.516L.168-.66ZM-1.656-4.26h.744v.528h-.744Zm0-1.32h.744v.528h-.744Zm1.7.528V-5.58h.78v.528Zm0,1.32V-4.26h.78v.528ZM3.672-7.44v-2.688h-1.2V-7.44H1.884v-.552H.18v-.564a16.194,16.194,0,0,0,1.728-.288l-.7-1.008a31.027,31.027,0,0,1-3.78.54c.048-.156.084-.312.132-.456l-1.272-.36A13.393,13.393,0,0,1-5.8-5.58,9.07,9.07,0,0,1-5.16-4.044a10.079,10.079,0,0,0,.66-.948v6.06h1.272V-7.524c.216-.5.408-1.032.576-1.548a4.1,4.1,0,0,1,.216.732c.456-.024.936-.048,1.416-.1v.444H-2.7V-6.96h1.68v.516H-2.568V-2.88h1.536V-2.3h-1.56v1.02h1.56v.72c-.684.06-1.308.108-1.824.144l.18,1.164C-1.668.636-.408.516.864.36a5.5,5.5,0,0,1,.948.732c1.644-1.884,1.86-4.8,1.86-7.068v-.24h.612C4.212-2.16,4.14-.744,3.936-.432a.326.326,0,0,1-.348.2,8.423,8.423,0,0,1-.864-.036A3.317,3.317,0,0,1,3.048.972,5.811,5.811,0,0,0,4.224.924,1.07,1.07,0,0,0,5,.384c.348-.5.4-2.244.48-7.236,0-.168.012-.588.012-.588Zm9.18-.192h1.956a16.387,16.387,0,0,1-1.3,1.092h-.66Zm2.616,5.244H11.34v-.768h4.128ZM11.34-.492v-.816h4.128v.816Zm7-4.788V-6.54H15.552a17.552,17.552,0,0,0,2.364-2.64L16.692-9.8A14.613,14.613,0,0,1,15.456-8.28v-.588h-2.6v-1.3H11.436v1.3H8.616v1.236h2.82V-6.54H7.584v1.26h4.08A21.36,21.36,0,0,1,7.2-3.288a7.863,7.863,0,0,1,.876,1.176c.612-.228,1.236-.492,1.836-.756V1.056H11.34V.7h4.128v.312h1.488V-4.32H12.6c.492-.312.948-.624,1.416-.96Zm6.432,3.7v1.02H22.38v-1.02ZM21.1,1.032H22.38V.5h2.388V.912h1.356V-2.652H21.1Zm4.344-8.16H24.216v-.648H22.908v.648H21.684v-.888H25.44Zm-1.2-2.964H22.872v1H20.424v2.064h.588v.912h1.9v.5H21.132v.948h1.776v.516H20.46V-3.06h6.168V-4.152H24.216v-.516h1.752v-.948H24.216v-.5h1.92v-.912h.624V-9.1H24.24Zm4.38,1.2H27.264v6.708H28.62Zm1.128-1.056v9.24c0,.192-.084.264-.288.264-.24,0-.924.012-1.62-.024a5.846,5.846,0,0,1,.468,1.476A5.278,5.278,0,0,0,30.5.72c.48-.228.624-.624.624-1.416V-9.948ZM41.268-2.6V-.648h-4.74V-2.6Zm-6.144,3.66h1.4V.612h4.74v.444h1.464v-4.92H35.124Zm1.332-7.368a12.261,12.261,0,0,0,2.388-2.436A13.146,13.146,0,0,0,41.3-6.312Zm1.584-3.84A12.7,12.7,0,0,1,33.156-5.88a5.827,5.827,0,0,1,.9,1.164,16.719,16.719,0,0,0,1.86-1.176v.84h5.976V-5.88a14.394,14.394,0,0,0,1.836,1.14,6.975,6.975,0,0,1,.924-1.284,12.055,12.055,0,0,1-5.136-4.128Z" transform="translate(1000 6604.646)"/>
      <g id="グループ_954" data-name="グループ 954">
        <g id="グループ_82" data-name="グループ 82" transform="translate(716 626)">
          <path id="パス_12320" data-name="パス 12320" d="M-76.953-64.746H-89.99l6.25-10.645h18.164V0H-76.953Zm76.025,43.7H7.08v10.352H-.928V0H-12.3V-10.693H-49.316L-.928-81.006Zm-11.377,0V-46.289L-29.687-21.045ZM20.117-5.469a6.475,6.475,0,0,1,2-4.736,6.53,6.53,0,0,1,4.785-2,6.53,6.53,0,0,1,4.785,2,6.53,6.53,0,0,1,2,4.785,6.587,6.587,0,0,1-2,4.834A6.507,6.507,0,0,1,26.9,1.367,6.566,6.566,0,0,1,22.07-.586,6.625,6.625,0,0,1,20.117-5.469Zm48.1-29.541v-9.717q7.227,0,9.717-1.611,4.443-2.832,4.443-9.082a10.3,10.3,0,0,0-3.223-7.861A11.358,11.358,0,0,0,70.9-66.357q-4.736,0-7.324,2.295-2.49,2.344-3.711,7.91H48.535q1.758-10.645,7.227-15.6t15.283-4.956q9.912,0,16.162,5.859a19.542,19.542,0,0,1,6.25,14.99q0,10.352-8.2,16.113,9.375,5.518,9.375,17.92,0,10.156-6.836,16.6T70.264,1.221q-13.623,0-20.215-10.01-2.734-4.2-3.467-11.621H57.568a13.359,13.359,0,0,0,4.272,8.374A13.151,13.151,0,0,0,70.7-9.131a12.289,12.289,0,0,0,9.131-3.662,13.185,13.185,0,0,0,3.613-9.521q0-7.617-5.42-10.84Q74.854-35.01,68.213-35.01Z" transform="translate(250 6186)" fill="#a21b43"/>
          <path id="パス_12317" data-name="パス 12317" d="M10.02-4.277H21.25V0H1L11.465-12.676q1.543-1.895,2.588-3.281a24.942,24.942,0,0,0,1.592-2.324,6.533,6.533,0,0,0,1.113-3.3,4.7,4.7,0,0,0-1.484-3.535A5.1,5.1,0,0,0,11.6-26.543q-4.57,0-5.234,5.41H1.836q1.094-9.531,9.629-9.531a9.726,9.726,0,0,1,6.914,2.617,8.5,8.5,0,0,1,2.813,6.484,9.851,9.851,0,0,1-1.309,4.824,23.634,23.634,0,0,1-1.943,2.92q-1.279,1.689-3.232,3.994Zm16.367-11q0-7.207,3.359-11.5a8.955,8.955,0,0,1,7.285-3.887,8.955,8.955,0,0,1,7.285,3.887q3.359,4.3,3.359,11.7,0,7.383-3.359,11.68A8.939,8.939,0,0,1,37.051.488a9.042,9.042,0,0,1-7.3-3.887Q26.387-7.7,26.387-15.273Zm4.473.02A17.869,17.869,0,0,0,32.6-6.914q1.738,3.262,4.434,3.262,2.676,0,4.434-3.262A17.04,17.04,0,0,0,43.223-15.1a17.158,17.158,0,0,0-1.758-8.2q-1.758-3.242-4.434-3.242-2.656,0-4.414,3.242A16.648,16.648,0,0,0,30.859-15.254ZM52.832-2.187a2.59,2.59,0,0,1,.8-1.895,2.612,2.612,0,0,1,1.914-.8,2.612,2.612,0,0,1,1.914.8,2.612,2.612,0,0,1,.8,1.914,2.635,2.635,0,0,1-.8,1.934,2.6,2.6,0,0,1-1.914.781,2.626,2.626,0,0,1-1.934-.781A2.65,2.65,0,0,1,52.832-2.187ZM63.418-15.273q0-7.207,3.359-11.5a8.955,8.955,0,0,1,7.285-3.887,8.955,8.955,0,0,1,7.285,3.887q3.359,4.3,3.359,11.7,0,7.383-3.359,11.68A8.939,8.939,0,0,1,74.082.488a9.042,9.042,0,0,1-7.3-3.887Q63.418-7.7,63.418-15.273Zm4.473.02a17.869,17.869,0,0,0,1.738,8.34q1.738,3.262,4.434,3.262,2.676,0,4.434-3.262A17.04,17.04,0,0,0,80.254-15.1,17.158,17.158,0,0,0,78.5-23.3q-1.758-3.242-4.434-3.242-2.656,0-4.414,3.242A16.648,16.648,0,0,0,67.891-15.254Z" transform="translate(316 6060)" fill="#a21b43"/>
          <path id="パス_12319" data-name="パス 12319" d="M-15.135-21.111a5.956,5.956,0,0,1,1.951-4.43A6.474,6.474,0,0,1-8.6-27.422a6.347,6.347,0,0,1,4.605,1.9,6.058,6.058,0,0,1,1.934,4.5A6.078,6.078,0,0,1-3.99-16.506a6.44,6.44,0,0,1-4.658,1.881,6.259,6.259,0,0,1-4.588-1.916A6.268,6.268,0,0,1-15.135-21.111Zm3.059.053a3.4,3.4,0,0,0,1.02,2.5,3.374,3.374,0,0,0,2.479,1.02,3.333,3.333,0,0,0,2.443-1.02,3.353,3.353,0,0,0,1.02-2.461,3.333,3.333,0,0,0-1.02-2.443A3.353,3.353,0,0,0-8.6-24.486a3.353,3.353,0,0,0-2.461,1.02A3.293,3.293,0,0,0-12.076-21.059Zm18.9-6.557,1.916,1.09L-6.8.439-8.736-.721ZM2.039-6.24A5.937,5.937,0,0,1,3.99-10.652a6.474,6.474,0,0,1,4.588-1.881,6.367,6.367,0,0,1,4.623,1.9,6.058,6.058,0,0,1,1.934,4.5,6.015,6.015,0,0,1-1.951,4.518A6.433,6.433,0,0,1,8.525.246a6.288,6.288,0,0,1-4.588-1.9A6.251,6.251,0,0,1,2.039-6.24Zm3.076.07a3.425,3.425,0,0,0,1,2.5A3.374,3.374,0,0,0,8.6-2.654a3.3,3.3,0,0,0,2.443-1.02,3.353,3.353,0,0,0,1.02-2.461A3.353,3.353,0,0,0,11.039-8.6a3.316,3.316,0,0,0-2.461-1.02A3.333,3.333,0,0,0,6.135-8.6,3.313,3.313,0,0,0,5.115-6.17Z" transform="translate(404 6171)" fill="#a21b43"/>
          <path id="パス_12318" data-name="パス 12318" d="M-6.727-9.383a2.647,2.647,0,0,1,.867-1.969,2.877,2.877,0,0,1,2.039-.836,2.821,2.821,0,0,1,2.047.844,2.692,2.692,0,0,1,.859,2,2.7,2.7,0,0,1-.859,2.008,2.862,2.862,0,0,1-2.07.836,2.782,2.782,0,0,1-2.039-.852A2.786,2.786,0,0,1-6.727-9.383Zm1.359.023A1.509,1.509,0,0,0-4.914-8.25a1.5,1.5,0,0,0,1.1.453A1.481,1.481,0,0,0-2.727-8.25a1.49,1.49,0,0,0,.453-1.094,1.481,1.481,0,0,0-.453-1.086,1.49,1.49,0,0,0-1.094-.453,1.49,1.49,0,0,0-1.094.453A1.464,1.464,0,0,0-5.367-9.359Zm8.4-2.914.852.484L-3.023.2-3.883-.32ZM.906-2.773a2.639,2.639,0,0,1,.867-1.961A2.877,2.877,0,0,1,3.813-5.57a2.83,2.83,0,0,1,2.055.844,2.692,2.692,0,0,1,.859,2A2.673,2.673,0,0,1,5.859-.719a2.859,2.859,0,0,1-2.07.828A2.8,2.8,0,0,1,1.75-.734,2.778,2.778,0,0,1,.906-2.773Zm1.367.031a1.522,1.522,0,0,0,.445,1.109,1.5,1.5,0,0,0,1.1.453,1.465,1.465,0,0,0,1.086-.453,1.49,1.49,0,0,0,.453-1.094A1.49,1.49,0,0,0,4.906-3.82a1.474,1.474,0,0,0-1.094-.453,1.481,1.481,0,0,0-1.086.453A1.472,1.472,0,0,0,2.273-2.742Z" transform="translate(413 6059)" fill="#a21b43"/>
          <path id="パス_12467" data-name="パス 12467" d="M-28.152,0h5.7V-1.176H-24.66c-.432,0-.984.036-1.44.084,1.872-1.788,3.228-3.552,3.228-5.256A2.5,2.5,0,0,0-25.536-9a3.466,3.466,0,0,0-2.688,1.32l.78.768A2.4,2.4,0,0,1-25.7-7.9a1.44,1.44,0,0,1,1.5,1.62c0,1.452-1.344,3.168-3.948,5.472ZM-17.22.156c1.728,0,2.856-1.536,2.856-4.608C-14.364-7.5-15.492-9-17.22-9s-2.856,1.488-2.856,4.548S-18.96.156-17.22.156Zm0-1.092c-.9,0-1.536-.96-1.536-3.516,0-2.532.636-3.456,1.536-3.456s1.536.924,1.536,3.456C-15.684-1.9-16.32-.936-17.22-.936ZM-11.568,0h5.04V-1.14H-8.256V-8.832H-9.3a5.425,5.425,0,0,1-1.92.672v.876h1.584V-1.14h-1.932ZM-1.332-4.32c-.924,0-1.428-.648-1.428-1.776,0-1.152.6-1.836,1.356-1.836.96,0,1.62.792,1.752,2.532A2.118,2.118,0,0,1-1.332-4.32ZM-3.9-.78A3.031,3.031,0,0,0-1.644.156c1.7,0,3.288-1.392,3.288-4.872C1.644-7.632.276-9-1.416-9A2.7,2.7,0,0,0-4.044-6.1c0,1.848,1,2.772,2.472,2.772A2.655,2.655,0,0,0,.372-4.356C.288-1.836-.636-.972-1.7-.972a1.969,1.969,0,0,1-1.452-.66Zm11.016-2V-4.908H9.528v2.124Zm7.776,0H10.68V-4.908h3.348V-5.952H10.68V-7.608H14.3v-1.08H7.356c.156-.36.324-.756.468-1.128l-1.128-.3A9.709,9.709,0,0,1,4.08-6.048a8.874,8.874,0,0,1,.972.72A10.917,10.917,0,0,0,6.78-7.608H9.528v1.656H6v3.168H4.068V-1.7h5.46V.948H10.68V-1.7h4.212ZM19.2-7.944h8.784v-1H23.616v-1.128H22.452V-8.94h-4.32v3.384c0,1.74-.084,4.176-1.056,5.88a5.051,5.051,0,0,1,.912.612C19.032-.888,19.2-3.672,19.2-5.556Zm5.772,2.112v1.056H22.38V-5.832Zm1.092,1.92v-1.92H27.9v-.912H26.064v-.912H24.972v.912H22.38v-.912H21.324v.912H19.548v.912h1.776v1.92Zm-.5,1.524a5.531,5.531,0,0,1-1.776,1.3,5.162,5.162,0,0,1-1.74-1.3Zm.936-.936-.2.036H19.68v.9h1.836l-.54.2A6.388,6.388,0,0,0,22.632-.636,16.731,16.731,0,0,1,19.2.024a3.421,3.421,0,0,1,.468.936,15.753,15.753,0,0,0,4.08-.984,13.58,13.58,0,0,0,3.8,1A3.974,3.974,0,0,1,28.2.012a15.778,15.778,0,0,1-3.252-.636A5.788,5.788,0,0,0,27.18-2.952Z" transform="translate(391 6187.646)" fill="#a21b43"/>
          <path id="パス_12466" data-name="パス 12466" d="M.528,0h5.7V-1.176H4.02c-.432,0-.984.036-1.44.084C4.452-2.88,5.808-4.644,5.808-6.348A2.5,2.5,0,0,0,3.144-9,3.466,3.466,0,0,0,.456-7.68l.78.768A2.4,2.4,0,0,1,2.976-7.9a1.44,1.44,0,0,1,1.5,1.62C4.476-4.824,3.132-3.108.528-.8ZM11.46.156c1.728,0,2.856-1.536,2.856-4.608C14.316-7.5,13.188-9,11.46-9S8.6-7.512,8.6-4.452,9.72.156,11.46.156Zm0-1.092c-.9,0-1.536-.96-1.536-3.516,0-2.532.636-3.456,1.536-3.456S13-6.984,13-4.452C13-1.9,12.36-.936,11.46-.936ZM16.608,0h5.7V-1.176H20.1c-.432,0-.984.036-1.44.084,1.872-1.788,3.228-3.552,3.228-5.256A2.5,2.5,0,0,0,19.224-9a3.466,3.466,0,0,0-2.688,1.32l.78.768a2.4,2.4,0,0,1,1.74-.984,1.44,1.44,0,0,1,1.5,1.62c0,1.452-1.344,3.168-3.948,5.472ZM27.336.156c1.62,0,2.952-.936,2.952-2.532a2.236,2.236,0,0,0-1.824-2.208v-.06A2.135,2.135,0,0,0,29.988-6.72c0-1.464-1.116-2.28-2.7-2.28a3.722,3.722,0,0,0-2.532,1.068l.72.864a2.586,2.586,0,0,1,1.764-.84A1.236,1.236,0,0,1,28.6-6.624c0,.888-.576,1.548-2.316,1.548v1.02c1.992,0,2.616.636,2.616,1.62a1.483,1.483,0,0,1-1.68,1.464,2.854,2.854,0,0,1-2.088-.972l-.672.888A3.666,3.666,0,0,0,27.336.156Zm-23.7,15.06V13.092H6.048v2.124Zm7.776,0H7.2V13.092h3.348V12.048H7.2V10.392h3.624V9.312H3.876c.156-.36.324-.756.468-1.128l-1.128-.3A9.709,9.709,0,0,1,.6,11.952a8.874,8.874,0,0,1,.972.72A10.917,10.917,0,0,0,3.3,10.392H6.048v1.656H2.52v3.168H.588V16.3h5.46v2.652H7.2V16.3h4.212Zm4.308-5.16H24.5v-1H20.136V7.932H18.972V9.06h-4.32v3.384c0,1.74-.084,4.176-1.056,5.88a5.051,5.051,0,0,1,.912.612c1.044-1.824,1.212-4.608,1.212-6.492Zm5.772,2.112v1.056H18.9V12.168Zm1.092,1.92v-1.92H24.42v-.912H22.584v-.912H21.492v.912H18.9v-.912H17.844v.912H16.068v.912h1.776v1.92Zm-.5,1.524a5.531,5.531,0,0,1-1.776,1.3,5.162,5.162,0,0,1-1.74-1.3Zm.936-.936-.2.036H16.2v.9h1.836l-.54.2a6.388,6.388,0,0,0,1.656,1.548,16.731,16.731,0,0,1-3.432.66,3.421,3.421,0,0,1,.468.936,15.753,15.753,0,0,0,4.08-.984,13.58,13.58,0,0,0,3.8,1,3.974,3.974,0,0,1,.648-.96,15.778,15.778,0,0,1-3.252-.636A5.788,5.788,0,0,0,23.7,15.048Z" transform="translate(281 6040.646)" fill="#a21b43"/>
          <line id="線_21" data-name="線 21" x2="139" transform="translate(281.5 6076.5)" fill="none" stroke="#a21b43" stroke-width="1"/>
        </g>
      </g>
    </g>
    <g id="グループ_83" data-name="グループ 83" transform="translate(866.765 6628.443)">
      <path id="パス_105" data-name="パス 105" d="M89.954,374.168h-.008l-1.359.458Z" transform="translate(-62.267 -311.789)" fill="#a21b43"/>
      <path id="パス_106" data-name="パス 106" d="M87.415,40.726C98.953,23.516,95.491,9,84.819,2.94,74.8-2.747,68.994,2.416,62.608,4.153c-8.076-5.4-19.373-6.041-33.458,1.093C22.227,4.959,13.862,11.881,15.3,18.513a17.733,17.733,0,0,0,3.276,6.461c0,.13-.014.262-.014.389A10.92,10.92,0,0,0,18.685,27a26.78,26.78,0,0,1,.356,3.976c0,.159-.006.311-.01.465a13.384,13.384,0,0,1-5.17.919,10.823,10.823,0,0,0,4.717,1.927,9.794,9.794,0,0,1-.386,1.02,17.911,17.911,0,0,1-3.012,4.372,5.448,5.448,0,0,0-.914,1.392,3.618,3.618,0,0,0-.322,1.469,3.335,3.335,0,0,0,.385,1.549,4.641,4.641,0,0,0,1.248,1.458,9.884,9.884,0,0,0,1.081.732,1.232,1.232,0,0,1,.243.428,2.242,2.242,0,0,1,.146.768A1.108,1.108,0,0,1,17,47.81l-.028.065,0,.007,0-.006v0l0,0h0a3.04,3.04,0,0,0-.57.77,2.235,2.235,0,0,0-.251,1.016,2.2,2.2,0,0,0,.3,1.088,3.344,3.344,0,0,0,.788.9c.066.054.126.1.189.148l-.065.178c-.054.148-.116.317-.169.519a2.761,2.761,0,0,0-.106.736,2.02,2.02,0,0,0,.2.888,1.938,1.938,0,0,0,.7.791l.062.04-.057-.036a1.371,1.371,0,0,1,.585.649,2.547,2.547,0,0,1,.146.977c0,.519-.077,1.143-.083,1.85a5.279,5.279,0,0,0,.04.676,4.724,4.724,0,0,0,.359,1.317,4.35,4.35,0,0,0,1.63,1.924,5.593,5.593,0,0,0,3.07.81,12.493,12.493,0,0,0,3.937-.747l.01,0a9.959,9.959,0,0,1,3.172-.578,6.051,6.051,0,0,1,3.251.895,7.929,7.929,0,0,1,1.93,1.723,16.649,16.649,0,0,1,2.319,3.952,44.186,44.186,0,0,1,1.716,4.8,9.539,9.539,0,0,1-1.128,8.124,10.886,10.886,0,0,1-1.086,1.454c-.145.166-.264.287-.344.364l-.084.083-.013.011,0,0,.585.652,1.335,1.5a12.511,12.511,0,0,0,2.054-2.535,12.43,12.43,0,0,0,1.443-10.5,31.712,31.712,0,0,0-3.856-8.8,11.539,11.539,0,0,0-3.357-3.281,8.942,8.942,0,0,0-4.761-1.321,12.849,12.849,0,0,0-4.095.73h0a9.658,9.658,0,0,1-3.026.6,3.282,3.282,0,0,1-1.168-.18,1.491,1.491,0,0,1-.757-.58,1.81,1.81,0,0,1-.275-.765,3.155,3.155,0,0,1-.015-.317c-.006-.435.079-1.088.083-1.85a5.358,5.358,0,0,0-.371-2.089A4.132,4.132,0,0,0,20.1,52.9c.019-.05.036-.1.058-.153.054-.15.113-.322.169-.525a2.9,2.9,0,0,0,.1-.739,2.081,2.081,0,0,0-.17-.838,1.939,1.939,0,0,0-.624-.786c-.128-.1-.243-.179-.345-.257a3.129,3.129,0,0,0,.458-.89,4.011,4.011,0,0,0,.189-1.238,5.126,5.126,0,0,0-.426-2.018,4.251,4.251,0,0,0-.518-.886,3.022,3.022,0,0,0-.827-.754c-.17-.1-.351-.211-.527-.333a2.955,2.955,0,0,1-.645-.569.952.952,0,0,1-.132-.221.389.389,0,0,1-.029-.153.729.729,0,0,1,.077-.306,2.677,2.677,0,0,1,.445-.654,20.611,20.611,0,0,0,3.478-5.1,13.108,13.108,0,0,0,1.1-5.5c0-.711-.043-1.451-.117-2.229a47.011,47.011,0,0,0,3.878,3.614s-1.153-9.807,1.443-11.825c0,0,10.1,19.324,19.326,17.6L52.8,43.608s1.443-9.23,5.771-10.094,4.037,7.212-1.154,13.845v8.606A21,21,0,0,0,56.29,58.12a5.347,5.347,0,0,0-.358,1.269A9.884,9.884,0,0,0,55.811,61a22.262,22.262,0,0,0,2.927,10.108,20.351,20.351,0,0,0,5.032,6.027A20.132,20.132,0,0,0,66.731,79.2l1.128-2.087.246-.45,0,0a17.718,17.718,0,0,1-2.562-1.81,17.469,17.469,0,0,1-4.252-5.1A19.461,19.461,0,0,1,58.7,61a7.147,7.147,0,0,1,.083-1.139,2.491,2.491,0,0,1,.151-.573,31.015,31.015,0,0,1,3.237-5.24c2.112-2.921,4.777-6.215,7.148-9.788A35.132,35.132,0,0,0,74.69,32.668a24.466,24.466,0,0,0,.555-5.263A26.672,26.672,0,0,0,70.56,12.24c4.759,1.033,10.85,4.3,7.626,14.544-3.269,10.383-11.536,25-4.327,35.285,6.026,8.6,15.575,5.771,15.575,5.771C85.106,62.646,78.056,54.683,87.415,40.726Z" transform="translate(0 0)" fill="#a21b43"/>
    </g>
  </g>
</svg>
