<svg xmlns="http://www.w3.org/2000/svg" width="280.536" height="240.112" viewBox="0 0 280.536 240.112">
  <g id="グループ_952" data-name="グループ 952" transform="translate(-53.68 -7456.471)">
    <g id="グループ_947" data-name="グループ 947">
      <path id="パス_12460" data-name="パス 12460" d="M-36.276-4.416h-4.332v-.768h4.332Zm-4.332,1.968v-.78h4.332v.78ZM-33.54-7.38V-8.724H-39.4c.144-.372.264-.744.384-1.116l-1.476-.336a11.972,11.972,0,0,1-.468,1.452h-3.228V-7.38h2.628a9.319,9.319,0,0,1-2.988,3.5,8.042,8.042,0,0,1,.936,1.092,8.8,8.8,0,0,0,1.584-1.4v5.22h1.416V-1.26h4.332v.72c0,.168-.072.228-.276.24s-.9,0-1.512-.036a5.923,5.923,0,0,1,.432,1.38A5.285,5.285,0,0,0-35.508.8c.492-.216.624-.6.624-1.308V-6.432H-40.44a10.033,10.033,0,0,0,.48-.948Zm2.472,4.236A8.725,8.725,0,0,1-31.7-.36a7.054,7.054,0,0,1,1.092.516,11.1,11.1,0,0,0,.72-3.1Zm2.6.216a14.2,14.2,0,0,1,.7,2.232l1.056-.384a13.23,13.23,0,0,0-.744-2.16Zm-.252-2.964c.144.264.288.564.42.864l-1.152.048c.756-.972,1.584-2.184,2.244-3.228l-1.164-.54A21.762,21.762,0,0,1-29.436-6.8c-.12-.156-.264-.312-.408-.48.432-.66.912-1.6,1.344-2.412l-1.236-.456a15.212,15.212,0,0,1-.876,2.088c-.1-.084-.192-.168-.276-.24l-.684.972A11.775,11.775,0,0,1-30.156-5.7c-.192.276-.384.54-.564.768l-.864.036.12,1.236,1.74-.108V1.056h1.236V-3.852l.612-.048a5.753,5.753,0,0,1,.156.612l1.008-.456a10.173,10.173,0,0,0-1.056-2.544Zm6.252,3.168V-.852H-25.1V-2.724Zm-3.96,3.756h1.32V.4h2.64V.984H-21.1V-3.984h-5.328Zm.852-7.368A13.91,13.91,0,0,0-23.9-8.556a16.735,16.735,0,0,0,1.764,2.22Zm.948-3.66A11.545,11.545,0,0,1-27.648-6.42a6.569,6.569,0,0,1,.816,1.248,9.422,9.422,0,0,0,1.044-.936V-5.04h3.948v-.984a10.236,10.236,0,0,0,.876.78,8.814,8.814,0,0,1,.876-1.332A11.776,11.776,0,0,1-23.268-10ZM-7.5-5.868V-7.26h-3.132V-9.972h-1.416V-7.26H-15.1v1.392h2.484a11.386,11.386,0,0,1-2.964,4.344V-7.116A18.935,18.935,0,0,0-14.34-9.648l-1.416-.456A12.312,12.312,0,0,1-18.792-5.5,10.362,10.362,0,0,1-17.964-4a10.877,10.877,0,0,0,.984-1.08v6.1h1.4v-2.4A7.914,7.914,0,0,1-14.6-.324,12.194,12.194,0,0,0-12.048-3.96v5h1.416V-4.2A12.267,12.267,0,0,0-8.208-.384,5.087,5.087,0,0,1-7.14-1.524a11.737,11.737,0,0,1-2.868-4.344ZM5.328-9.708H2.112v1.2H4.1v1.692H2.112v1.2H5.328ZM-3.264-8.04v2.28H-4.08V-8.04ZM-4.08-2.184V-4.536h.816v2.352Zm1.956-7.1h-3.06v9.3h1.1V-.936h1.956ZM.5-8.532v1.788H-.324V-8.532ZM1.656-1.3V-2.472H-.324V-3.5H1.512V-4.668H-.324V-5.58H1.74V-9.708H-1.632V1.02H-.324V-1.3ZM4.032-3.852a7.513,7.513,0,0,1-.564,1.488,8.367,8.367,0,0,1-.516-1.488Zm.66-1.188L4.464-5H1.8v1.152h.9l-.816.168a11.523,11.523,0,0,0,.84,2.4A4.894,4.894,0,0,1,.828.024a4.447,4.447,0,0,1,.708,1.044,6.538,6.538,0,0,0,1.9-1.26A4.639,4.639,0,0,0,4.824,1.02a4.716,4.716,0,0,1,.84-1.032A4.207,4.207,0,0,1,4.212-1.164,9.042,9.042,0,0,0,5.484-4.836Zm8.076-3.132h.42v.936h3.54A13.611,13.611,0,0,1,15.7-3.66a14.471,14.471,0,0,1-1.1-3.552l-1.368.276a17,17,0,0,0,1.62,4.752A6.506,6.506,0,0,1,12.768-.276Zm-3.084,4.9h1.7V-2.2c-.576.072-1.152.156-1.7.228Zm0-2.472h1.7v1.2h-1.7Zm1.7-2.424v1.14h-1.7v-1.14Zm5.976-.5-.24.036H13.536v-.852H7.512v1.32h.816V-1.8c-.408.048-.78.084-1.1.12L7.5-.252c1.1-.168,2.508-.384,3.888-.624v1.92h1.38V-.084A5.708,5.708,0,0,1,13.56.96,8.221,8.221,0,0,0,15.7-.876,7.57,7.57,0,0,0,17.76.96a5.18,5.18,0,0,1,.984-1.176A6.6,6.6,0,0,1,16.572-2.16,15.928,15.928,0,0,0,18.3-8.448ZM29.28-8.22H26.16v-.6h3.12Zm0,1.56H26.16v-.624h3.12Zm1.44-3.156H24.78v4.152h5.94Zm-8-.336A8.559,8.559,0,0,1,20.22-7.8a8.855,8.855,0,0,1,.708,1.212A12.7,12.7,0,0,0,24.072-9.6Zm.312,2.616a10.772,10.772,0,0,1-2.94,3.084,10.649,10.649,0,0,1,.684,1.476,11.273,11.273,0,0,0,1.08-.972v4.98h1.38V-5.484A12.671,12.671,0,0,0,24.276-7Zm8.328,4.248H29.724v-.684h1.392V-5.136H24.168v1.164h4.1v.684H23.88v1.212h1.68l-.888.588A10.108,10.108,0,0,1,26.052.18L27.12-.576a12.617,12.617,0,0,0-1.368-1.5h2.52V-.408c0,.132-.048.18-.216.192s-.72,0-1.224-.024a5.014,5.014,0,0,1,.444,1.272,4.75,4.75,0,0,0,1.86-.2c.468-.2.588-.54.588-1.2v-1.7h1.644ZM36.6-4.26l-.216-.888c-1.1.432-2.256.876-3.012,1.116l.672,1.152c.648-.288,1.44-.66,2.2-1.032l.144.828c1.152-.084,2.616-.192,4.068-.324a4.646,4.646,0,0,1,.252.6l1.08-.48a4.957,4.957,0,0,0-.408-.864,13.239,13.239,0,0,1,1.908,1.308L44.316-3.7a15.249,15.249,0,0,0-2.508-1.536l-.732.588c-.192-.288-.408-.576-.6-.828l-1.008.42c.144.2.3.42.432.648l-1.236.06A29.176,29.176,0,0,0,40.9-6.684L39.78-7.2c-.3.432-.672.912-1.092,1.4-.18-.144-.384-.288-.6-.444.348-.408.744-.9,1.116-1.38l-.264-.1h4.968V-8.988H39.576v-1.164H38.112v1.164H33.888v1.272h3.924c-.168.3-.36.624-.564.924l-.288-.18-.552.672A11.965,11.965,0,0,0,34.68-7.44l-.948.78a9.456,9.456,0,0,1,1.8,1.32l.876-.732A14.479,14.479,0,0,1,37.92-4.956c-.228.228-.456.456-.684.672Zm5.544-1.212a17.707,17.707,0,0,0,1.848-1.476L42.72-7.56A10.9,10.9,0,0,1,41.1-6.036ZM39.576-3.18H38.112v.768H33.5v1.32h4.608V1.044h1.464V-1.092h4.7v-1.32h-4.7Z" transform="translate(194 7466.646)"/>
      <g id="グループ_946" data-name="グループ 946">
        <path id="パス_12463" data-name="パス 12463" d="M6.9-7.98a.907.907,0,0,0-.9-.9.907.907,0,0,0-.9.9.907.907,0,0,0,.9.9A.907.907,0,0,0,6.9-7.98ZM2.04-8.868l-.348.348,3.96,3.96L1.68-.588l.348.348L6-4.212,9.96-.252,10.308-.6,6.348-4.56l3.96-3.96L9.96-8.868,6-4.908ZM2.58-5.46a.907.907,0,0,0-.9.9.907.907,0,0,0,.9.9.907.907,0,0,0,.9-.9A.907.907,0,0,0,2.58-5.46Zm6.84,1.8a.907.907,0,0,0,.9-.9.907.907,0,0,0-.9-.9.907.907,0,0,0-.9.9A.907.907,0,0,0,9.42-3.66ZM5.1-1.14a.907.907,0,0,0,.9.9.907.907,0,0,0,.9-.9.907.907,0,0,0-.9-.9A.907.907,0,0,0,5.1-1.14ZM18.264-6.528a7.214,7.214,0,0,1,.048.864c0,2-.264,3.72-2.124,4.86a4.639,4.639,0,0,1-1.068.528L16,.444c3.06-1.524,3.348-3.72,3.348-6.972Zm5.28-2.148a5.926,5.926,0,0,1-.84.072H15.816a12.656,12.656,0,0,1-1.368-.1v1.08a13.589,13.589,0,0,1,1.368-.072h6.828A8.1,8.1,0,0,1,20.028-5l.792.636A11.57,11.57,0,0,0,23.808-7.68c.084-.132.24-.312.324-.432ZM26.784-.72c.408-.024.828-.06,1.26-.06h7.188c.324,0,.732.024,1.092.06V-1.872a8.215,8.215,0,0,1-1.092.06H28.044c-.432,0-.852-.024-1.26-.06Zm1.032-6.012q.558-.036,1.188-.036H34.14c.4,0,.852.012,1.188.036v-1.08a11.528,11.528,0,0,1-1.188.06H28.992c-.384,0-.792-.024-1.176-.06Zm20-2.616-.636.264a13.713,13.713,0,0,1,.972,1.668L48.8-7.7A13.848,13.848,0,0,0,47.82-9.348Zm1.32-.48-.636.264a11.43,11.43,0,0,1,1,1.656l.648-.288A13.953,13.953,0,0,0,49.14-9.828ZM41.256-3.612A15.762,15.762,0,0,1,39.408-.348l1.02.432a17.4,17.4,0,0,0,1.764-3.3A26.675,26.675,0,0,0,43.284-6.96c.048-.264.144-.612.216-.876l-1.068-.216A18.343,18.343,0,0,1,41.256-3.612Zm5.9-.456A35.959,35.959,0,0,1,48.516.06l1.068-.348c-.312-1.08-.948-2.916-1.44-4.1a38.792,38.792,0,0,0-1.752-3.792l-.972.324A30.687,30.687,0,0,1,47.16-4.068Zm5.664.048c.372-.036,1.008-.06,1.668-.06H61.08c.54,0,1.044.048,1.284.06V-5.2c-.264.024-.7.06-1.3.06H54.492c-.672,0-1.308-.036-1.668-.06ZM72.96-6.852v-1.5a9.1,9.1,0,0,1,.06-.984H71.94a6.691,6.691,0,0,1,.06.984v1.5H68.58V-8.388a7.407,7.407,0,0,1,.06-.876H67.572c.012.12.048.492.048.876v1.536H66.336a8.854,8.854,0,0,1-1.212-.084v1.044c.144-.012.684-.048,1.212-.048H67.62V-4c0,.456-.036.972-.048,1.092h1.056c-.012-.12-.048-.648-.048-1.092V-5.94H72v.5c0,3.36-1.092,4.392-3.276,5.232l.8.756C72.276-.672,72.96-2.316,72.96-5.52v-.42h1.32c.528,0,.972.024,1.092.036V-6.912a8.416,8.416,0,0,1-1.092.06Zm6.972-2.16c.024.228.048.648.048.864v4c0,.36-.036.744-.048.924h1.1C81.012-3.444,81-3.84,81-4.14V-8.148c0-.288.012-.636.036-.864ZM85.488-9.1c.024.288.06.636.06,1.032v1.9c0,2.268-.144,3.24-1.008,4.236a5.536,5.536,0,0,1-2.88,1.6l.78.828A6.409,6.409,0,0,0,85.3-1.26c.864-1.032,1.248-1.98,1.248-4.86V-8.064c0-.4.024-.744.048-1.032ZM91.464-4.02c.372-.036,1.008-.06,1.668-.06H99.72c.54,0,1.044.048,1.284.06V-5.2c-.264.024-.7.06-1.3.06H93.132c-.672,0-1.308-.036-1.668-.06ZM106.74-9.96a12.331,12.331,0,0,1-3.252,4.812,5.107,5.107,0,0,1,.54.9,12.175,12.175,0,0,0,1.416-1.584V.9h.876V-7.116a17.828,17.828,0,0,0,1.308-2.568Zm7.86,3.828V-7h-3.468v-2.88h-.876V-7h-3.372v.864h2.9a12.191,12.191,0,0,1-3.324,4.908,5.177,5.177,0,0,1,.672.684,13.4,13.4,0,0,0,3.12-4.62V.924h.876V-5.412A14.568,14.568,0,0,0,114.24-.588a3.2,3.2,0,0,1,.672-.72,12.661,12.661,0,0,1-3.264-4.824ZM127.3-9.5h-3.048v.768H126.5v2.16h-2.256v.768H127.3Zm-8.088,1.092V-5.7h-1.38V-8.412Zm-1.38,6.3v-2.8h1.38v2.8ZM119.952-9.2H117.1V-.372h.732v-.936h2.124Zm3.036.456v2.2h-1.464v-2.2Zm.744,7.248v-.756h-2.208V-3.744h2V-4.5h-2V-5.784h2.256V-9.5H120.7V.888h.828V-1.5Zm2.76-2.628a7.693,7.693,0,0,1-.876,2.184,8.453,8.453,0,0,1-.8-2.184Zm.42-.78-.132.024h-2.892v.756h.864L124.14-4a10.915,10.915,0,0,0,.984,2.724A5.259,5.259,0,0,1,123.072.252a2.436,2.436,0,0,1,.456.648,6.14,6.14,0,0,0,2.04-1.464,4.765,4.765,0,0,0,1.548,1.44,3.215,3.215,0,0,1,.552-.648,4.377,4.377,0,0,1-1.6-1.416,8.709,8.709,0,0,0,1.356-3.576ZM133.464-7.5h2.424v-.816h-2.424V-10h-.852v1.68H131.34c.132-.408.252-.852.36-1.272l-.84-.168a9.458,9.458,0,0,1-1.2,3.156,5.235,5.235,0,0,1,.792.336,9.172,9.172,0,0,0,.6-1.236h1.56v1.26H129.7v.816h2.916v1.2h-2.364V-.06h.816V-3.408h1.548V.9h.852V-3.408h1.656V-.96c0,.12-.036.156-.168.156s-.516.012-1.032,0a2.725,2.725,0,0,1,.264.78,3.707,3.707,0,0,0,1.392-.144c.3-.144.36-.372.36-.78V-4.224h-2.472v-1.2h2.892V-6.24h-2.892Zm4.6-1.452h-.84v6.6h.84Zm1.284-.96V-.3c0,.2-.06.252-.252.264s-.876,0-1.584-.024a5.181,5.181,0,0,1,.288.936,5.9,5.9,0,0,0,1.92-.18c.36-.156.492-.42.492-1.008v-9.6ZM153.36-8.04v-.816h-4.476v-1.176h-.912v1.176h-4.4v3.432c0,1.728-.084,4.152-1.068,5.856a3.449,3.449,0,0,1,.732.5c1.032-1.812,1.176-4.512,1.176-6.36V-8.04Zm-2.88,2.076V-4.7h-2.9v-1.26Zm.864,1.98v-1.98h1.932V-6.7h-1.932V-7.74h-.864V-6.7h-2.9V-7.74h-.852V-6.7h-1.908v.732h1.908v1.98ZM151.152-2.5a5.515,5.515,0,0,1-2.028,1.524A5.375,5.375,0,0,1,147.18-2.5Zm.744-.768-.156.036h-6.78V-2.5h1.848l-.48.18A6.038,6.038,0,0,0,148.212-.6a16.278,16.278,0,0,1-3.7.768,3.084,3.084,0,0,1,.372.744A16.253,16.253,0,0,0,149.112-.12,13.688,13.688,0,0,0,153.06.936a2.646,2.646,0,0,1,.516-.756,15.259,15.259,0,0,1-3.528-.756,5.927,5.927,0,0,0,2.412-2.388Zm5.184-5.952a5.24,5.24,0,0,1-.084.84,37.03,37.03,0,0,0-.54,4.992,14.36,14.36,0,0,0,.456,3.768l.852-.072c-.012-.12-.036-.288-.036-.408a2.039,2.039,0,0,1,.06-.528,25.654,25.654,0,0,1,.84-2.628l-.5-.4c-.2.48-.48,1.188-.672,1.728a10.5,10.5,0,0,1-.108-1.62,29.183,29.183,0,0,1,.588-4.788,5.629,5.629,0,0,1,.2-.8Zm6.06,7.368c0,.792-.288,1.284-1.3,1.284-.852,0-1.428-.336-1.428-.924,0-.552.612-.948,1.5-.948a3.716,3.716,0,0,1,1.212.192C163.14-2.1,163.14-1.956,163.14-1.848Zm3.24.588a8.1,8.1,0,0,0-2.34-1.548c-.048-1-.132-2.184-.144-3.372.708-.048,1.4-.12,2.052-.228v-.936a15.137,15.137,0,0,1-2.052.276c.012-.552.024-1.1.036-1.428A6.732,6.732,0,0,1,164-9.2h-1.092a4.855,4.855,0,0,1,.06.72v1.476c-.372.012-.744.024-1.116.024a18.578,18.578,0,0,1-2.016-.108v.912c.7.036,1.32.072,1.992.072.384,0,.756-.012,1.14-.024.012.984.084,2.124.12,3.036a5.3,5.3,0,0,0-1.1-.108c-1.56,0-2.448.816-2.448,1.812,0,1.056.876,1.716,2.472,1.716a1.8,1.8,0,0,0,2.064-1.944v-.216A9.018,9.018,0,0,1,165.864-.48ZM168.528,0h5.532V-.948h-2.436c-.444,0-.984.048-1.44.084,2.064-1.956,3.444-3.744,3.444-5.5a2.413,2.413,0,0,0-2.556-2.6,3.364,3.364,0,0,0-2.592,1.3l.636.624a2.463,2.463,0,0,1,1.824-1.02,1.546,1.546,0,0,1,1.62,1.74c0,1.512-1.272,3.264-4.032,5.676Zm10.428.156c1.668,0,2.736-1.524,2.736-4.584s-1.068-4.536-2.736-4.536-2.748,1.476-2.748,4.536S177.276.156,178.956.156Zm0-.876c-1.008,0-1.68-1.116-1.68-3.708,0-2.568.672-3.648,1.68-3.648s1.668,1.08,1.668,3.648C180.624-1.836,179.952-.72,178.956-.72ZM184.3,0h4.824V-.912h-1.764V-8.8h-.84a5.573,5.573,0,0,1-1.824.624v.7h1.56V-.912H184.3Zm10.176-.7c-1.1,0-1.764-1-1.9-2.82a2.293,2.293,0,0,1,1.8-1.128c1.068,0,1.584.756,1.584,1.944S195.312-.7,194.472-.7Zm2.364-7.368a2.7,2.7,0,0,0-2.052-.9c-1.7,0-3.252,1.32-3.252,4.764,0,2.9,1.248,4.356,2.94,4.356a2.641,2.641,0,0,0,2.52-2.856c0-1.836-.948-2.76-2.436-2.76a2.736,2.736,0,0,0-2,1.068c.048-2.736,1.068-3.66,2.268-3.66a1.86,1.86,0,0,1,1.416.672Zm5.112,5.376V-5.064h2.688v2.376Zm7.932,0h-4.344V-5.064h3.516V-5.9h-3.516V-7.728h3.792v-.864h-7.152c.192-.408.384-.84.552-1.26l-.9-.216a10.155,10.155,0,0,1-2.7,4.14,5.522,5.522,0,0,1,.768.564,11.088,11.088,0,0,0,1.824-2.364h2.916V-5.9H201.06v3.216h-1.968v.864h5.544V.924h.9V-1.824h4.344ZM214.608.156a2.561,2.561,0,0,0,2.82-2.508,2.262,2.262,0,0,0-1.872-2.232v-.048a2.193,2.193,0,0,0,1.572-2.124c0-1.416-1.08-2.208-2.556-2.208a3.522,3.522,0,0,0-2.46,1.056l.588.7a2.745,2.745,0,0,1,1.824-.876,1.374,1.374,0,0,1,1.488,1.416c0,.948-.624,1.68-2.436,1.68v.84c2.028,0,2.736.708,2.736,1.764a1.62,1.62,0,0,1-1.788,1.632,2.908,2.908,0,0,1-2.184-1.008l-.552.72A3.641,3.641,0,0,0,214.608.156Zm7.728-3.828a15.067,15.067,0,0,0,.132-2.016h5.484v2.016Zm5.616-4.86V-6.54h-5.484V-8.532Zm.924-.876h-7.308v3.672c0,1.908-.192,4.344-2.1,6.024a3.377,3.377,0,0,1,.66.648A6.769,6.769,0,0,0,222.192-2.8h5.76V-.4c0,.264-.1.348-.372.36s-1.236.012-2.244-.024a3.778,3.778,0,0,1,.384.924A9.649,9.649,0,0,0,228.252.7c.444-.144.624-.456.624-1.08Zm8.748,7.776c0,.816-.42,1.224-1.3,1.224-1.14,0-1.8-.36-1.8-1.02s.7-1.068,1.92-1.068a5.4,5.4,0,0,1,1.164.12C237.612-2.076,237.624-1.824,237.624-1.632Zm.8-4.488c.972-.024,2.5-.1,3.552-.192l-.036-.912c-1.068.144-2.568.2-3.516.228,0-.468-.012-.888,0-1.212a10.349,10.349,0,0,1,.1-1.176h-1.152a8.711,8.711,0,0,1,.1,1.176c.012.5.012,1.488.012,2.172,0,.708.048,1.8.1,2.76a7.119,7.119,0,0,0-1.008-.072c-2.052,0-2.988.888-2.988,1.956,0,1.356,1.212,1.884,2.844,1.884,1.584,0,2.184-.84,2.184-1.812,0-.216-.012-.48-.024-.792a8.3,8.3,0,0,1,3.084,1.956l.576-.888a9.429,9.429,0,0,0-3.7-2.028c-.06-1.032-.12-2.184-.12-2.964Zm9.348-3.348c-.012.288-.048.648-.1,1.02a31.177,31.177,0,0,0-.36,3.84,14.54,14.54,0,0,0,.12,1.884l.936-.072a4.961,4.961,0,0,1-.024-1.452c.144-1.56,1.512-3.708,2.988-3.708,1.26,0,1.884,1.344,1.884,3.216,0,2.988-2.016,4.02-4.6,4.416l.564.864c2.952-.54,5.028-1.992,5.028-5.292,0-2.5-1.14-4.08-2.724-4.08-1.5,0-2.748,1.476-3.216,2.7a22.027,22.027,0,0,1,.552-3.3ZM267.2-6.7h-4.14v-.516h4.14Zm0,1.008h-4.14v-.54h4.14Zm0,1.02h-4.14v-.54h4.14ZM262.224-7.7v3.528h5.844V-7.7h-2.88l.216-.6h3.648v-.648h-2.04c.2-.264.444-.576.66-.912l-.84-.192a8.5,8.5,0,0,1-.672,1.1h-2.016a4.017,4.017,0,0,0-.672-1.08l-.72.18a4.59,4.59,0,0,1,.54.9h-2.016V-8.3h3.288c-.048.192-.1.408-.144.6Zm-1.284-.612A7.688,7.688,0,0,0,259.3-9.792l-.6.48A7.112,7.112,0,0,1,260.3-7.764Zm-.6,7.332A7.835,7.835,0,0,1,262.092.444l.648-.564a9.322,9.322,0,0,0-1.788-1.38ZM266.5-2.94c.936,0,1.836-.024,2.46-.048a3.169,3.169,0,0,1,.24-.72c-1.524.084-4.62.12-6,.072a2.89,2.89,0,0,1-2.448-1.032V-6.924h-2.4v.7h1.584v1.692a17.6,17.6,0,0,1-1.656.96l.36.744c.636-.408,1.224-.8,1.812-1.212a3.454,3.454,0,0,0,2.76,1.08c.6.024,1.5.036,2.436.024v.732H258.3v.7h7.344V-.048c0,.156-.048.2-.252.2s-.864.024-1.632,0a2.687,2.687,0,0,1,.3.756A7.154,7.154,0,0,0,266.028.78c.372-.12.468-.348.468-.816V-1.512h2.616v-.7H266.5Zm6.924-6.372v.888h2.952c.024.456.072.984.156,1.536L276-6.972c-.732,3.36-2.208,5.772-4.86,7.152a5.841,5.841,0,0,1,.8.708,10.608,10.608,0,0,0,4.788-6.7A10.356,10.356,0,0,0,281.5.876a4.24,4.24,0,0,1,.72-.744,10.271,10.271,0,0,1-4.98-9.444Z" transform="translate(52 7695.646)"/>
        <g id="グループ_691" data-name="グループ 691" transform="translate(-85 1464)">
          <path id="パス_12313" data-name="パス 12313" d="M-59.277-64.746H-96.484V-75.391h56.2L-87.842,2.588l-9.033-5.713Zm63.135,0H-33.35V-75.391h56.2L-24.707,2.588-33.74-3.125ZM17.725-5.469a6.475,6.475,0,0,1,2-4.736,6.53,6.53,0,0,1,4.785-2,6.53,6.53,0,0,1,4.785,2,6.53,6.53,0,0,1,2,4.785,6.587,6.587,0,0,1-2,4.834,6.507,6.507,0,0,1-4.785,1.953A6.566,6.566,0,0,1,19.678-.586,6.625,6.625,0,0,1,17.725-5.469ZM89.258-21.045h8.008v10.352H89.258V0H77.881V-10.693H40.869L89.258-81.006Zm-11.377,0V-46.289L60.5-21.045Z" transform="translate(250 6186)" fill="#a21b43"/>
          <path id="パス_12311" data-name="パス 12311" d="M6.953-15.684a7.412,7.412,0,0,1-3.32-6.387A8.224,8.224,0,0,1,6.152-28.2a8.708,8.708,0,0,1,6.309-2.461,8.551,8.551,0,0,1,6.25,2.461,8.239,8.239,0,0,1,2.5,6.152,7.583,7.583,0,0,1-3.3,6.348,6.994,6.994,0,0,1,2.852,2.852,8.455,8.455,0,0,1,1.055,4.219A8.779,8.779,0,0,1,19.2-2.07,9.183,9.183,0,0,1,12.5.488,9.61,9.61,0,0,1,5.605-2.09,8.536,8.536,0,0,1,2.871-8.574Q2.871-13.652,6.953-15.684ZM7.91-22.09a4.4,4.4,0,0,0,1.309,3.242,4.365,4.365,0,0,0,3.2,1.328,4.343,4.343,0,0,0,3.184-1.328,4.343,4.343,0,0,0,1.328-3.184,4.343,4.343,0,0,0-1.328-3.184,4.343,4.343,0,0,0-3.184-1.328,4.343,4.343,0,0,0-3.184,1.328A4.276,4.276,0,0,0,7.91-22.09ZM7.344-8.73A5.005,5.005,0,0,0,8.789-5.137a4.808,4.808,0,0,0,3.555,1.484,4.817,4.817,0,0,0,3.535-1.465,4.882,4.882,0,0,0,1.465-3.555,4.84,4.84,0,0,0-1.465-3.555,4.817,4.817,0,0,0-3.535-1.465,4.859,4.859,0,0,0-3.535,1.465A4.772,4.772,0,0,0,7.344-8.73Zm19.043-6.543q0-7.207,3.359-11.5a8.955,8.955,0,0,1,7.285-3.887,8.955,8.955,0,0,1,7.285,3.887q3.359,4.3,3.359,11.7,0,7.383-3.359,11.68A8.939,8.939,0,0,1,37.051.488a9.042,9.042,0,0,1-7.3-3.887Q26.387-7.7,26.387-15.273Zm4.473.02A17.869,17.869,0,0,0,32.6-6.914q1.738,3.262,4.434,3.262,2.676,0,4.434-3.262A17.04,17.04,0,0,0,43.223-15.1a17.158,17.158,0,0,0-1.758-8.2q-1.758-3.242-4.434-3.242-2.656,0-4.414,3.242A16.648,16.648,0,0,0,30.859-15.254ZM52.832-2.187a2.59,2.59,0,0,1,.8-1.895,2.612,2.612,0,0,1,1.914-.8,2.612,2.612,0,0,1,1.914.8,2.612,2.612,0,0,1,.8,1.914,2.635,2.635,0,0,1-.8,1.934,2.6,2.6,0,0,1-1.914.781,2.626,2.626,0,0,1-1.934-.781A2.65,2.65,0,0,1,52.832-2.187ZM63.418-15.273q0-7.207,3.359-11.5a8.955,8.955,0,0,1,7.285-3.887,8.955,8.955,0,0,1,7.285,3.887q3.359,4.3,3.359,11.7,0,7.383-3.359,11.68A8.939,8.939,0,0,1,74.082.488a9.042,9.042,0,0,1-7.3-3.887Q63.418-7.7,63.418-15.273Zm4.473.02a17.869,17.869,0,0,0,1.738,8.34q1.738,3.262,4.434,3.262,2.676,0,4.434-3.262A17.04,17.04,0,0,0,80.254-15.1,17.158,17.158,0,0,0,78.5-23.3q-1.758-3.242-4.434-3.242-2.656,0-4.414,3.242A16.648,16.648,0,0,0,67.891-15.254Z" transform="translate(183 6060)" fill="#a21b43"/>
          <path id="パス_12314" data-name="パス 12314" d="M-15.135-21.111a5.956,5.956,0,0,1,1.951-4.43A6.474,6.474,0,0,1-8.6-27.422a6.347,6.347,0,0,1,4.605,1.9,6.058,6.058,0,0,1,1.934,4.5A6.078,6.078,0,0,1-3.99-16.506a6.44,6.44,0,0,1-4.658,1.881,6.259,6.259,0,0,1-4.588-1.916A6.268,6.268,0,0,1-15.135-21.111Zm3.059.053a3.4,3.4,0,0,0,1.02,2.5,3.374,3.374,0,0,0,2.479,1.02,3.333,3.333,0,0,0,2.443-1.02,3.353,3.353,0,0,0,1.02-2.461,3.333,3.333,0,0,0-1.02-2.443A3.353,3.353,0,0,0-8.6-24.486a3.353,3.353,0,0,0-2.461,1.02A3.293,3.293,0,0,0-12.076-21.059Zm18.9-6.557,1.916,1.09L-6.8.439-8.736-.721ZM2.039-6.24A5.937,5.937,0,0,1,3.99-10.652a6.474,6.474,0,0,1,4.588-1.881,6.367,6.367,0,0,1,4.623,1.9,6.058,6.058,0,0,1,1.934,4.5,6.015,6.015,0,0,1-1.951,4.518A6.433,6.433,0,0,1,8.525.246a6.288,6.288,0,0,1-4.588-1.9A6.251,6.251,0,0,1,2.039-6.24Zm3.076.07a3.425,3.425,0,0,0,1,2.5A3.374,3.374,0,0,0,8.6-2.654a3.3,3.3,0,0,0,2.443-1.02,3.353,3.353,0,0,0,1.02-2.461A3.353,3.353,0,0,0,11.039-8.6a3.316,3.316,0,0,0-2.461-1.02A3.333,3.333,0,0,0,6.135-8.6,3.313,3.313,0,0,0,5.115-6.17Z" transform="translate(404 6171)" fill="#a21b43"/>
          <path id="パス_12312" data-name="パス 12312" d="M-6.727-9.383a2.647,2.647,0,0,1,.867-1.969,2.877,2.877,0,0,1,2.039-.836,2.821,2.821,0,0,1,2.047.844,2.692,2.692,0,0,1,.859,2,2.7,2.7,0,0,1-.859,2.008,2.862,2.862,0,0,1-2.07.836,2.782,2.782,0,0,1-2.039-.852A2.786,2.786,0,0,1-6.727-9.383Zm1.359.023A1.509,1.509,0,0,0-4.914-8.25a1.5,1.5,0,0,0,1.1.453A1.481,1.481,0,0,0-2.727-8.25a1.49,1.49,0,0,0,.453-1.094,1.481,1.481,0,0,0-.453-1.086,1.49,1.49,0,0,0-1.094-.453,1.49,1.49,0,0,0-1.094.453A1.464,1.464,0,0,0-5.367-9.359Zm8.4-2.914.852.484L-3.023.2-3.883-.32ZM.906-2.773a2.639,2.639,0,0,1,.867-1.961A2.877,2.877,0,0,1,3.813-5.57a2.83,2.83,0,0,1,2.055.844,2.692,2.692,0,0,1,.859,2A2.673,2.673,0,0,1,5.859-.719a2.859,2.859,0,0,1-2.07.828A2.8,2.8,0,0,1,1.75-.734,2.778,2.778,0,0,1,.906-2.773Zm1.367.031a1.522,1.522,0,0,0,.445,1.109,1.5,1.5,0,0,0,1.1.453,1.465,1.465,0,0,0,1.086-.453,1.49,1.49,0,0,0,.453-1.094A1.49,1.49,0,0,0,4.906-3.82a1.474,1.474,0,0,0-1.094-.453,1.481,1.481,0,0,0-1.086.453A1.472,1.472,0,0,0,2.273-2.742Z" transform="translate(280 6059)" fill="#a21b43"/>
          <path id="パス_12462" data-name="パス 12462" d="M-27.192,0h5.532V-.948H-24.1c-.444,0-.984.048-1.44.084,2.064-1.956,3.444-3.744,3.444-5.5a2.413,2.413,0,0,0-2.556-2.6,3.364,3.364,0,0,0-2.592,1.3l.636.624a2.463,2.463,0,0,1,1.824-1.02,1.546,1.546,0,0,1,1.62,1.74c0,1.512-1.272,3.264-4.032,5.676Zm10.428.156c1.668,0,2.736-1.524,2.736-4.584S-15.1-8.964-16.764-8.964s-2.748,1.476-2.748,4.536S-18.444.156-16.764.156Zm0-.876c-1.008,0-1.68-1.116-1.68-3.708,0-2.568.672-3.648,1.68-3.648S-15.1-7-15.1-4.428C-15.1-1.836-15.768-.72-16.764-.72Zm5.34.72H-6.6V-.912H-8.364V-8.8H-9.2a5.573,5.573,0,0,1-1.824.624v.7h1.56V-.912h-1.956Zm9.7-4.152C-2.772-4.152-3.3-4.92-3.3-6.108S-2.652-8.1-1.812-8.1c1.128,0,1.8.96,1.92,2.772A2.325,2.325,0,0,1-1.728-4.152ZM-4.164-.744a2.8,2.8,0,0,0,2.112.9C-.4.156,1.14-1.212,1.14-4.776c0-2.8-1.26-4.188-2.952-4.188a2.641,2.641,0,0,0-2.52,2.856c0,1.824.96,2.772,2.424,2.772A2.712,2.712,0,0,0,.12-4.428C.036-1.692-.948-.756-2.088-.756a1.985,1.985,0,0,1-1.476-.672ZM6.228-2.688V-5.064H8.916v2.376Zm7.932,0H9.816V-5.064h3.516V-5.9H9.816V-7.728h3.792v-.864H6.456c.192-.408.384-.84.552-1.26l-.9-.216a10.155,10.155,0,0,1-2.7,4.14,5.523,5.523,0,0,1,.768.564A11.087,11.087,0,0,0,6-7.728H8.916V-5.9H5.34v3.216H3.372v.864H8.916V.924h.9V-1.824H14.16ZM27-8.04v-.816H22.524v-1.176h-.912v1.176h-4.4v3.432c0,1.728-.084,4.152-1.068,5.856a3.45,3.45,0,0,1,.732.5c1.032-1.812,1.176-4.512,1.176-6.36V-8.04ZM24.12-5.964V-4.7h-2.9v-1.26Zm.864,1.98v-1.98h1.932V-6.7H24.984V-7.74H24.12V-6.7h-2.9V-7.74h-.852V-6.7H18.456v.732h1.908v1.98ZM24.792-2.5A5.515,5.515,0,0,1,22.764-.972,5.375,5.375,0,0,1,20.82-2.5Zm.744-.768-.156.036H18.6V-2.5h1.848l-.48.18A6.038,6.038,0,0,0,21.852-.6a16.278,16.278,0,0,1-3.7.768,3.084,3.084,0,0,1,.372.744A16.253,16.253,0,0,0,22.752-.12,13.688,13.688,0,0,0,26.7.936,2.645,2.645,0,0,1,27.216.18a15.259,15.259,0,0,1-3.528-.756A5.927,5.927,0,0,0,26.1-2.964Z" transform="translate(391 6187.646)" fill="#a21b43"/>
          <path id="パス_12461" data-name="パス 12461" d="M.528,0H6.06V-.948H3.624c-.444,0-.984.048-1.44.084C4.248-2.82,5.628-4.608,5.628-6.36a2.413,2.413,0,0,0-2.556-2.6A3.364,3.364,0,0,0,.48-7.668l.636.624A2.463,2.463,0,0,1,2.94-8.064a1.546,1.546,0,0,1,1.62,1.74C4.56-4.812,3.288-3.06.528-.648ZM10.956.156c1.668,0,2.736-1.524,2.736-4.584s-1.068-4.536-2.736-4.536S8.208-7.488,8.208-4.428,9.276.156,10.956.156Zm0-.876c-1.008,0-1.68-1.116-1.68-3.708,0-2.568.672-3.648,1.68-3.648S12.624-7,12.624-4.428C12.624-1.836,11.952-.72,10.956-.72ZM15.768,0H21.3V-.948H18.864c-.444,0-.984.048-1.44.084,2.064-1.956,3.444-3.744,3.444-5.5a2.413,2.413,0,0,0-2.556-2.6,3.364,3.364,0,0,0-2.592,1.3l.636.624a2.463,2.463,0,0,1,1.824-1.02,1.546,1.546,0,0,1,1.62,1.74c0,1.512-1.272,3.264-4.032,5.676Zm10.26.156a2.561,2.561,0,0,0,2.82-2.508,2.262,2.262,0,0,0-1.872-2.232v-.048a2.193,2.193,0,0,0,1.572-2.124c0-1.416-1.08-2.208-2.556-2.208a3.522,3.522,0,0,0-2.46,1.056l.588.7a2.745,2.745,0,0,1,1.824-.876,1.374,1.374,0,0,1,1.488,1.416c0,.948-.624,1.68-2.436,1.68v.84c2.028,0,2.736.708,2.736,1.764A1.62,1.62,0,0,1,25.944-.756,2.908,2.908,0,0,1,23.76-1.764l-.552.72A3.641,3.641,0,0,0,26.028.156ZM3.468,21.312V18.936H6.156v2.376Zm7.932,0H7.056V18.936h3.516V18.1H7.056V16.272h3.792v-.864H3.7c.192-.408.384-.84.552-1.26l-.9-.216a10.155,10.155,0,0,1-2.7,4.14,5.523,5.523,0,0,1,.768.564A11.087,11.087,0,0,0,3.24,16.272H6.156V18.1H2.58v3.216H.612v.864H6.156v2.748h.9V22.176H11.4ZM24.24,15.96v-.816H19.764V13.968h-.912v1.176h-4.4v3.432c0,1.728-.084,4.152-1.068,5.856a3.45,3.45,0,0,1,.732.5c1.032-1.812,1.176-4.512,1.176-6.36V15.96Zm-2.88,2.076V19.3h-2.9v-1.26Zm.864,1.98v-1.98h1.932V17.3H22.224V16.26H21.36V17.3h-2.9V16.26H17.6V17.3H15.7v.732H17.6v1.98ZM22.032,21.5A5.515,5.515,0,0,1,20,23.028,5.375,5.375,0,0,1,18.06,21.5Zm.744-.768-.156.036H15.84V21.5h1.848l-.48.18A6.038,6.038,0,0,0,19.092,23.4a16.278,16.278,0,0,1-3.7.768,3.084,3.084,0,0,1,.372.744,16.253,16.253,0,0,0,4.224-1.032,13.688,13.688,0,0,0,3.948,1.056,2.645,2.645,0,0,1,.516-.756,15.26,15.26,0,0,1-3.528-.756,5.927,5.927,0,0,0,2.412-2.388Z" transform="translate(148 6040.646)" fill="#a21b43"/>
          <line id="線_21" data-name="線 21" x2="139" transform="translate(148.5 6076.5)" fill="none" stroke="#a21b43" stroke-width="1"/>
        </g>
      </g>
    </g>
    <g id="グループ_692" data-name="グループ 692" transform="translate(246 7482)">
      <rect id="長方形_81" data-name="長方形 81" width="10.775" height="5.029" transform="translate(0 37.486)" fill="#a21b43"/>
      <rect id="長方形_82" data-name="長方形 82" width="10.772" height="5.029" transform="translate(69.228 37.486)" fill="#a21b43"/>
      <path id="パス_84" data-name="パス 84" d="M26.248,340.972l2.515,4.357,9.33-5.387-2.514-4.356Z" transform="translate(-22.147 -283.151)" fill="#a21b43"/>
      <path id="パス_85" data-name="パス 85" d="M421.792,118.413l-2.515-4.356-9.33,5.387,2.514,4.356Z" transform="translate(-345.893 -96.236)" fill="#a21b43"/>
      <path id="パス_86" data-name="パス 86" d="M114.065,419.277l4.356,2.515,5.387-9.33-4.356-2.514Z" transform="translate(-96.242 -345.893)" fill="#a21b43"/>
      <path id="パス_87" data-name="パス 87" d="M345.339,28.763l-4.359-2.515-5.385,9.33,4.356,2.514Z" transform="translate(-283.159 -22.147)" fill="#a21b43"/>
      <rect id="長方形_83" data-name="長方形 83" width="5.029" height="10.773" transform="translate(37.487 69.227)" fill="#a21b43"/>
      <rect id="長方形_84" data-name="長方形 84" width="5.029" height="10.773" transform="translate(37.487 0)" fill="#a21b43"/>
      <path id="パス_88" data-name="パス 88" d="M335.6,412.461l5.385,9.33,4.359-2.515-5.387-9.33Z" transform="translate(-283.159 -345.893)" fill="#a21b43"/>
      <path id="パス_89" data-name="パス 89" d="M123.808,35.578l-5.387-9.33-4.356,2.515,5.387,9.33Z" transform="translate(-96.242 -22.147)" fill="#a21b43"/>
      <path id="パス_90" data-name="パス 90" d="M409.947,339.942l9.33,5.387,2.515-4.357-9.33-5.386Z" transform="translate(-345.893 -283.151)" fill="#a21b43"/>
      <path id="パス_91" data-name="パス 91" d="M38.093,119.444l-9.33-5.387-2.515,4.356,9.33,5.387Z" transform="translate(-22.147 -96.236)" fill="#a21b43"/>
      <path id="パス_92" data-name="パス 92" d="M124.322,99.926a24.387,24.387,0,1,0,24.387,24.387A24.386,24.386,0,0,0,124.322,99.926Z" transform="translate(-84.32 -84.312)" fill="#a21b43"/>
    </g>
  </g>
</svg>
