<svg height="221.9" viewBox="0 0 254.062 221.9" width="254.062" xmlns="http://www.w3.org/2000/svg"><path d="m-36.828-6.012a7.679 7.679 0 0 1 -1.472 3.276c-.9-.4-1.8-.744-2.616-1.032.3-.708.624-1.464.936-2.244zm3.408 0v-1.452h-5.98c.336-.828.648-1.656.936-2.424l-1.572-.264c-.288.828-.636 1.752-1 2.688h-3.264v1.452h2.688c-.528 1.284-1.068 2.5-1.524 3.432l1.44.528.2-.444q.954.378 1.944.828a11.333 11.333 0 0 1 -4.656 1.308 4.811 4.811 0 0 1 .756 1.428 11.5 11.5 0 0 0 5.508-1.956 20.328 20.328 0 0 1 3.244 1.988l1.088-1.34a21.821 21.821 0 0 0 -3.188-1.824 9.99 9.99 0 0 0 1.6-3.948zm10.212 5.312v-2.4h2.2v-1.328h-2.2v-1.972h2.448v-1.34h-2.448v-2.352h-1.428v2.352h-.96c.12-.54.216-1.1.3-1.668l-1.392-.192a14.524 14.524 0 0 1 -.636 2.928 13.759 13.759 0 0 0 -.66-1.512l-.7.288v-2.268h-1.428v2.448l-1.008-.144a14.262 14.262 0 0 1 -.58 3.12l1.056.384a15.292 15.292 0 0 0 .54-3.18v8.58h1.428v-8.2a8.344 8.344 0 0 1 .456 1.38l.684-.312c-.12.252-.24.48-.36.7a12.619 12.619 0 0 1 1.272.648 8.2 8.2 0 0 0 .668-1.66h1.32v1.968h-2.316v1.332h2.316v2.4h-3.2v1.36h7.464v-1.36zm13.092-.3v.672h-4.752v-.672zm-.912-3.24v.624h-3.84v-.624zm-3.84 1.644h5.256v-2.672h-6.624v6.324h1.368v-.324h4.752v.324h1.416v-3.1h-6.168zm7.428-6.728h-3.48q.162-.306.288-.612l-1.356-.324a5.532 5.532 0 0 1 -1.14 1.74v-.8h-2.664c.1-.192.192-.384.276-.576l-1.332-.36a6.442 6.442 0 0 1 -1.764 2.436 7.507 7.507 0 0 1 1.164.768 8.863 8.863 0 0 0 .96-1.152h.2a6.816 6.816 0 0 1 .54 1.152l1.284-.36a6.05 6.05 0 0 0 -.4-.792h1.4c-.1.084-.2.168-.3.24.156.072.384.18.6.3h-.528v.84h-4.408v2.376h1.344v-1.312h7.644v1.308h1.392v-2.376h-4.6v-.648a6.6 6.6 0 0 0 .66-.732h.7a7.074 7.074 0 0 1 .72 1.176l1.32-.372a6.037 6.037 0 0 0 -.5-.8h1.98zm5.748 6.624c-.384.132-.78.252-1.176.372v-2.4h1.08v-1.308h-1.08v-2.112h1.284v-1.332h-3.96v1.332h1.32v2.112h-1.212v1.308h1.212v2.82c-.552.156-1.044.288-1.464.4l.324 1.448c1.152-.372 2.592-.828 3.912-1.3zm1.848-3.624h1.236v1.032h-1.236zm0-2.124h1.236v1h-1.236zm3.624 1h-1.188v-1h1.188zm0 2.16h-1.188v-1.036h1.188zm-1.056 4.664v-1.14h2.544v-1.284h-2.544v-1.032h2.412v-5.58h-6.264v5.58h2.4v1.032h-2.484v1.284h2.484v1.14h-3.312v1.3h7.716v-1.3zm10.164-.816v-.72h1.1v.72zm1.1-2.364v.72h-1.1v-.716zm-.036-4.212a11.553 11.553 0 0 1 -.312 1.452l.624.144h-1.724l.54-.132a5.348 5.348 0 0 0 -.312-1.464zm-4.008.852h-.788v-1.3h.792zm-.788 5.052v-1.452h.792v1.308zm.792-2.6h-.792v-1.3h.792zm7.368-.156a11.327 11.327 0 0 1 -.432 1.32q-.072-.81-.108-1.764h1.8v-1.1h-1.848c-.024-.8-.036-1.644-.036-2.532a8.23 8.23 0 0 1 .948 1.744l1-.552a7.991 7.991 0 0 0 -1.18-1.908l-.768.408v-.9h-1.248c.012 1.332.036 2.58.072 3.732h-.96c.132-.384.3-.924.48-1.44l-.816-.156h1.032v-1.044h-1.224v-1.08h-1.212v1.08h-1.176v-.648h-4.116v1.248h.468v6.54c-.252.048-.492.084-.708.108l.24 1.312c.72-.144 1.572-.324 2.424-.5v2.044h1.188v-9.5h.456v.444h.948l-.7.168a6.445 6.445 0 0 1 .264 1.428h-.756v1.1h4.212a31.766 31.766 0 0 0 .324 3.552 6.553 6.553 0 0 1 -.784.924v-3.948h-3.3v5.016h1.092v-.7h1.8a7.225 7.225 0 0 1 -.852.6 6.413 6.413 0 0 1 .816.936 8.29 8.29 0 0 0 1.572-1.4c.288.876.684 1.356 1.224 1.368.408 0 .972-.42 1.272-2.364a4.174 4.174 0 0 1 -.924-.792c-.048.948-.144 1.5-.288 1.5s-.276-.336-.384-.912a11.8 11.8 0 0 0 1.328-3.084zm7.452 3.288v1.02h-2.388v-1.02zm-3.668 2.612h1.28v-.532h2.388v.412h1.356v-3.564h-5.024zm4.344-8.16h-1.228v-.648h-1.308v.648h-1.224v-.888h3.756zm-1.2-2.964h-1.372v1h-2.448v2.064h.588v.912h1.9v.5h-1.78v.948h1.776v.516h-2.448v1.092h6.168v-1.092h-2.412v-.516h1.752v-.948h-1.752v-.5h1.92v-.912h.624v-2.072h-2.52zm4.38 1.2h-1.36v6.708h1.356zm1.128-1.056v9.24c0 .192-.084.264-.288.264-.24 0-.924.012-1.62-.024a5.846 5.846 0 0 1 .468 1.476 5.278 5.278 0 0 0 2.188-.288c.48-.228.624-.624.624-1.416v-9.252zm11.516 7.348v1.952h-4.74v-1.952zm-6.144 3.66h1.4v-.448h4.74v.444h1.464v-4.92h-7.604zm1.332-7.368a12.261 12.261 0 0 0 2.388-2.436 13.146 13.146 0 0 0 2.456 2.432zm1.584-3.84a12.7 12.7 0 0 1 -4.884 4.268 5.827 5.827 0 0 1 .9 1.164 16.719 16.719 0 0 0 1.86-1.176v.84h5.976v-.828a14.394 14.394 0 0 0 1.836 1.14 6.975 6.975 0 0 1 .924-1.284 12.055 12.055 0 0 1 -5.136-4.128z" transform="translate(114.544 14)"/><g fill="#e61050"><path d="m-30.023-26.517h10.09v13.043h-10.09v13.474h-14.335v-13.474h-46.635l60.97-88.594zm-14.335 0v-31.807l-21.9 31.808zm40.851 19.626a8.158 8.158 0 0 1 2.523-5.967 8.228 8.228 0 0 1 6.029-2.522 8.228 8.228 0 0 1 6.029 2.522 8.228 8.228 0 0 1 2.526 6.029 8.3 8.3 0 0 1 -2.526 6.091 8.2 8.2 0 0 1 -6.029 2.461 8.273 8.273 0 0 1 -6.091-2.461 8.347 8.347 0 0 1 -2.461-6.153zm52.049-74.689h-16.427l7.875-13.412h22.887v94.992h-14.335z" transform="translate(91.544 158.354)"/><path d="m15.7-31.211 3.34 2.5-7.207 9.8q.586-.078 1-.117t.645-.039a8.471 8.471 0 0 1 6.348 2.813 9.311 9.311 0 0 1 2.654 6.684 9.7 9.7 0 0 1 -2.969 7.109 9.667 9.667 0 0 1 -7.089 2.949 10.15 10.15 0 0 1 -7.187-2.91 9.247 9.247 0 0 1 -3.028-6.894 12.978 12.978 0 0 1 2.949-7.578zm2.347 21.934a5.525 5.525 0 0 0 -1.66-4.062 5.511 5.511 0 0 0 -4.043-1.68 5.5 5.5 0 0 0 -4.044 1.66 5.479 5.479 0 0 0 -1.66 4.023 5.479 5.479 0 0 0 1.66 4.024 5.525 5.525 0 0 0 4.063 1.66 5.457 5.457 0 0 0 4-1.66 5.422 5.422 0 0 0 1.684-3.965zm10.1 7.09a2.59 2.59 0 0 1 .8-1.895 2.612 2.612 0 0 1 1.914-.8 2.612 2.612 0 0 1 1.914.8 2.612 2.612 0 0 1 .8 1.914 2.635 2.635 0 0 1 -.8 1.934 2.6 2.6 0 0 1 -1.914.781 2.626 2.626 0 0 1 -1.934-.781 2.65 2.65 0 0 1 -.782-1.953zm10.583-13.086q0-7.207 3.359-11.5a8.955 8.955 0 0 1 7.285-3.887 8.955 8.955 0 0 1 7.285 3.887q3.359 4.3 3.359 11.7.002 7.373-3.358 11.673a8.939 8.939 0 0 1 -7.265 3.888 9.042 9.042 0 0 1 -7.305-3.888q-3.36-4.3-3.36-11.873zm4.473.02a17.869 17.869 0 0 0 1.738 8.34q1.738 3.262 4.434 3.262 2.676 0 4.434-3.262a17.04 17.04 0 0 0 1.757-8.187 17.158 17.158 0 0 0 -1.758-8.2q-1.758-3.242-4.434-3.242-2.656 0-4.414 3.242a16.648 16.648 0 0 0 -1.76 8.046z" transform="translate(38.544 221.354)"/><path d="m-22.7-31.667a8.934 8.934 0 0 1 2.927-6.645 9.711 9.711 0 0 1 6.882-2.821 9.52 9.52 0 0 1 6.908 2.848 9.087 9.087 0 0 1 2.9 6.75 9.117 9.117 0 0 1 -2.9 6.776 9.66 9.66 0 0 1 -6.987 2.821 9.389 9.389 0 0 1 -6.882-2.874 9.4 9.4 0 0 1 -2.848-6.855zm4.588.079a5.092 5.092 0 0 0 1.529 3.744 5.061 5.061 0 0 0 3.718 1.529 5 5 0 0 0 3.665-1.529 5.03 5.03 0 0 0 1.529-3.691 5 5 0 0 0 -1.529-3.665 5.03 5.03 0 0 0 -3.691-1.529 5.03 5.03 0 0 0 -3.694 1.529 4.94 4.94 0 0 0 -1.529 3.612zm28.342-9.835 2.87 1.635-23.3 40.447-2.9-1.74zm-7.171 32.063a8.906 8.906 0 0 1 2.927-6.618 9.711 9.711 0 0 1 6.881-2.822 9.551 9.551 0 0 1 6.933 2.848 9.087 9.087 0 0 1 2.9 6.752 9.023 9.023 0 0 1 -2.927 6.776 9.65 9.65 0 0 1 -6.985 2.793 9.432 9.432 0 0 1 -6.882-2.848 9.376 9.376 0 0 1 -2.847-6.881zm4.614.105a5.138 5.138 0 0 0 1.5 3.744 5.061 5.061 0 0 0 3.718 1.529 4.944 4.944 0 0 0 3.665-1.529 5.03 5.03 0 0 0 1.532-3.689 5.03 5.03 0 0 0 -1.529-3.691 4.974 4.974 0 0 0 -3.691-1.529 5 5 0 0 0 -3.668 1.526 4.969 4.969 0 0 0 -1.527 3.639z" transform="translate(208.544 140.354)"/><path d="m-6.727-9.383a2.647 2.647 0 0 1 .867-1.969 2.877 2.877 0 0 1 2.039-.836 2.821 2.821 0 0 1 2.047.844 2.692 2.692 0 0 1 .859 2 2.7 2.7 0 0 1 -.859 2.008 2.862 2.862 0 0 1 -2.07.836 2.782 2.782 0 0 1 -2.039-.852 2.786 2.786 0 0 1 -.844-2.031zm1.359.023a1.509 1.509 0 0 0 .454 1.11 1.5 1.5 0 0 0 1.1.453 1.481 1.481 0 0 0 1.087-.453 1.49 1.49 0 0 0 .453-1.094 1.481 1.481 0 0 0 -.453-1.086 1.49 1.49 0 0 0 -1.094-.453 1.49 1.49 0 0 0 -1.094.453 1.464 1.464 0 0 0 -.452 1.071zm8.4-2.914.852.484-6.907 11.99-.86-.52zm-2.126 9.501a2.639 2.639 0 0 1 .867-1.961 2.877 2.877 0 0 1 2.04-.836 2.83 2.83 0 0 1 2.055.844 2.692 2.692 0 0 1 .859 2 2.673 2.673 0 0 1 -.868 2.007 2.859 2.859 0 0 1 -2.07.828 2.8 2.8 0 0 1 -2.039-.843 2.778 2.778 0 0 1 -.844-2.039zm1.367.031a1.522 1.522 0 0 0 .445 1.109 1.5 1.5 0 0 0 1.1.453 1.465 1.465 0 0 0 1.086-.453 1.49 1.49 0 0 0 .453-1.094 1.49 1.49 0 0 0 -.451-1.093 1.474 1.474 0 0 0 -1.094-.453 1.481 1.481 0 0 0 -1.086.453 1.472 1.472 0 0 0 -.453 1.078z" transform="translate(112.544 220.354)"/><path d="m-28.152 0h5.7v-1.176h-2.208c-.432 0-.984.036-1.44.084 1.872-1.788 3.228-3.552 3.228-5.256a2.5 2.5 0 0 0 -2.664-2.652 3.466 3.466 0 0 0 -2.688 1.32l.78.768a2.4 2.4 0 0 1 1.744-.988 1.44 1.44 0 0 1 1.5 1.62c0 1.452-1.344 3.168-3.948 5.472zm10.932.156c1.728 0 2.856-1.536 2.856-4.608 0-3.048-1.128-4.548-2.856-4.548s-2.856 1.488-2.856 4.548 1.116 4.608 2.856 4.608zm0-1.092c-.9 0-1.536-.96-1.536-3.516 0-2.532.636-3.456 1.536-3.456s1.536.924 1.536 3.456c0 2.552-.636 3.516-1.536 3.516zm5.652.936h5.04v-1.14h-1.728v-7.692h-1.044a5.425 5.425 0 0 1 -1.92.672v.876h1.584v6.144h-1.932zm10.236-4.32c-.924 0-1.428-.648-1.428-1.776 0-1.152.6-1.836 1.356-1.836.96 0 1.62.792 1.752 2.532a2.118 2.118 0 0 1 -1.68 1.08zm-2.568 3.54a3.031 3.031 0 0 0 2.256.936c1.7 0 3.288-1.392 3.288-4.872 0-2.916-1.368-4.284-3.06-4.284a2.7 2.7 0 0 0 -2.628 2.9c0 1.848 1 2.772 2.472 2.772a2.655 2.655 0 0 0 1.944-1.028c-.084 2.52-1.008 3.384-2.072 3.384a1.969 1.969 0 0 1 -1.452-.66zm11.016-2v-2.128h2.412v2.124zm7.776 0h-4.212v-2.128h3.348v-1.044h-3.348v-1.656h3.62v-1.08h-6.944c.156-.36.324-.756.468-1.128l-1.128-.3a9.709 9.709 0 0 1 -2.616 4.068 8.874 8.874 0 0 1 .972.72 10.917 10.917 0 0 0 1.728-2.28h2.748v1.656h-3.528v3.168h-1.932v1.084h5.46v2.648h1.152v-2.648h4.212zm4.308-5.164h8.784v-1h-4.368v-1.128h-1.164v1.132h-4.32v3.384c0 1.74-.084 4.176-1.056 5.88a5.051 5.051 0 0 1 .912.612c1.044-1.824 1.212-4.608 1.212-6.492zm5.772 2.112v1.056h-2.592v-1.056zm1.092 1.92v-1.92h1.836v-.912h-1.836v-.912h-1.092v.912h-2.592v-.912h-1.056v.912h-1.776v.912h1.776v1.92zm-.5 1.524a5.531 5.531 0 0 1 -1.776 1.3 5.162 5.162 0 0 1 -1.74-1.3zm.936-.936-.2.036h-6.62v.9h1.836l-.54.2a6.388 6.388 0 0 0 1.656 1.552 16.731 16.731 0 0 1 -3.432.66 3.421 3.421 0 0 1 .468.936 15.753 15.753 0 0 0 4.08-.984 13.58 13.58 0 0 0 3.8 1 3.974 3.974 0 0 1 .652-.964 15.778 15.778 0 0 1 -3.252-.636 5.788 5.788 0 0 0 2.232-2.328z" transform="translate(201.544 160)"/></g><path d="m0 0h103.787" fill="none" stroke="#e61050" transform="translate(126.544 194.854)"/><path d="m.528 0h5.7v-1.176h-2.208c-.432 0-.984.036-1.44.084 1.872-1.788 3.228-3.552 3.228-5.256a2.5 2.5 0 0 0 -2.664-2.652 3.466 3.466 0 0 0 -2.688 1.32l.78.768a2.4 2.4 0 0 1 1.74-.988 1.44 1.44 0 0 1 1.5 1.62c0 1.456-1.344 3.172-3.948 5.48zm10.932.156c1.728 0 2.856-1.536 2.856-4.608 0-3.048-1.128-4.548-2.856-4.548s-2.86 1.488-2.86 4.548 1.12 4.608 2.86 4.608zm0-1.092c-.9 0-1.536-.96-1.536-3.516 0-2.532.636-3.456 1.536-3.456s1.54.924 1.54 3.456c0 2.552-.64 3.516-1.54 3.516zm5.148.936h5.7v-1.176h-2.208c-.432 0-.984.036-1.44.084 1.872-1.788 3.228-3.552 3.228-5.256a2.5 2.5 0 0 0 -2.664-2.652 3.466 3.466 0 0 0 -2.688 1.32l.78.768a2.4 2.4 0 0 1 1.74-.984 1.44 1.44 0 0 1 1.5 1.62c0 1.452-1.344 3.168-3.948 5.472zm10.728.156c1.62 0 2.952-.936 2.952-2.532a2.236 2.236 0 0 0 -1.824-2.208v-.06a2.135 2.135 0 0 0 1.524-2.076c0-1.464-1.116-2.28-2.7-2.28a3.722 3.722 0 0 0 -2.532 1.068l.72.864a2.586 2.586 0 0 1 1.764-.84 1.236 1.236 0 0 1 1.36 1.284c0 .888-.576 1.548-2.316 1.548v1.02c1.992 0 2.616.636 2.616 1.62a1.483 1.483 0 0 1 -1.68 1.464 2.854 2.854 0 0 1 -2.088-.972l-.672.888a3.666 3.666 0 0 0 2.876 1.212zm-23.7 15.06v-2.124h2.412v2.124zm7.776 0h-4.212v-2.124h3.348v-1.044h-3.348v-1.656h3.624v-1.08h-6.948c.156-.36.324-.756.468-1.128l-1.128-.3a9.709 9.709 0 0 1 -2.616 4.068 8.874 8.874 0 0 1 .972.72 10.917 10.917 0 0 0 1.728-2.28h2.748v1.656h-3.528v3.168h-1.932v1.084h5.46v2.652h1.152v-2.652h4.212zm4.308-5.16h8.78v-1h-4.364v-1.124h-1.164v1.128h-4.32v3.384c0 1.74-.084 4.176-1.056 5.88a5.051 5.051 0 0 1 .912.612c1.044-1.824 1.212-4.608 1.212-6.492zm5.772 2.112v1.056h-2.592v-1.056zm1.092 1.92v-1.92h1.836v-.912h-1.836v-.912h-1.092v.912h-2.592v-.912h-1.056v.912h-1.776v.912h1.776v1.92zm-.5 1.524a5.531 5.531 0 0 1 -1.776 1.3 5.162 5.162 0 0 1 -1.74-1.3zm.936-.936-.2.036h-6.62v.9h1.836l-.54.2a6.388 6.388 0 0 0 1.656 1.548 16.731 16.731 0 0 1 -3.432.66 3.421 3.421 0 0 1 .468.936 15.753 15.753 0 0 0 4.08-.984 13.58 13.58 0 0 0 3.8 1 3.974 3.974 0 0 1 .648-.96 15.778 15.778 0 0 1 -3.252-.636 5.788 5.788 0 0 0 2.236-2.328z" fill="#e61050" transform="translate(-.456 202)"/><g fill="#e61050" transform="translate(136.199)"><path d="m126.267 384.62h-.007l-1.165.392z" transform="translate(-58.384 -325.159)"/><path d="m101.767 57.465c35.1-25.71 6.564-72.184-26.294-52.9-8.762 1.48-17.963 6.92-15.773 15.82a8.78 8.78 0 0 0 1.246 2.747 13.649 13.649 0 0 0 -.881 4.6 9.428 9.428 0 0 0 .1 1.4 23.072 23.072 0 0 1 .305 3.407c0 .136 0 .267-.008.4a11.474 11.474 0 0 1 -4.431.788 9.263 9.263 0 0 0 4.043 1.652 8.247 8.247 0 0 1 -.331.874 15.35 15.35 0 0 1 -2.581 3.747 4.674 4.674 0 0 0 -.784 1.192 3.085 3.085 0 0 0 -.277 1.26 2.849 2.849 0 0 0 .331 1.327 3.985 3.985 0 0 0 1.071 1.251 8.342 8.342 0 0 0 .926.626 1.073 1.073 0 0 1 .207.367 1.922 1.922 0 0 1 .126.657.931.931 0 0 1 -.038.29l-.023.055a2.636 2.636 0 0 0 -.489.66 1.862 1.862 0 0 0 .038 1.8 2.865 2.865 0 0 0 .676.772c.058.048.109.085.162.128-.017.047-.035.1-.055.152-.046.128-.1.272-.145.445a2.468 2.468 0 0 0 -.091.63 1.755 1.755 0 0 0 .171.762 1.664 1.664 0 0 0 .6.678l.053.034-.048-.03a1.186 1.186 0 0 1 .5.556 2.173 2.173 0 0 1 .125.838c0 .444-.067.98-.07 1.585a4.591 4.591 0 0 0 .034.578v-.03.032a4.12 4.12 0 0 0 .308 1.127 3.712 3.712 0 0 0 1.4 1.648 4.776 4.776 0 0 0 2.632.7 10.775 10.775 0 0 0 3.375-.64h.008a8.557 8.557 0 0 1 2.718-.5 5.19 5.19 0 0 1 2.787.768 6.8 6.8 0 0 1 1.654 1.475 14.275 14.275 0 0 1 1.987 3.387 37.976 37.976 0 0 1 1.469 4.12 8.373 8.373 0 0 1 .382 2.47 8.465 8.465 0 0 1 -1.347 4.494 9.392 9.392 0 0 1 -.93 1.245c-.126.142-.227.247-.3.314l-.073.069-.012.01.479.532 1.167 1.313a10.768 10.768 0 0 0 1.76-2.172 10.658 10.658 0 0 0 1.236-9 27.2 27.2 0 0 0 -3.3-7.543 9.911 9.911 0 0 0 -2.878-2.813 7.66 7.66 0 0 0 -4.084-1.127 10.986 10.986 0 0 0 -3.509.626 8.3 8.3 0 0 1 -2.594.512 2.8 2.8 0 0 1 -1-.155 1.29 1.29 0 0 1 -.649-.5 1.563 1.563 0 0 1 -.235-.655 2.441 2.441 0 0 1 -.014-.274c0-.373.069-.931.071-1.585a4.606 4.606 0 0 0 -.317-1.79 3.565 3.565 0 0 0 -.98-1.339l.047-.13c.047-.129.1-.275.146-.449a2.476 2.476 0 0 0 .089-.634 1.779 1.779 0 0 0 -.147-.718 1.663 1.663 0 0 0 -.535-.672l-.3-.22a2.684 2.684 0 0 0 .393-.763 3.42 3.42 0 0 0 .162-1.063 4.387 4.387 0 0 0 -.365-1.728 3.66 3.66 0 0 0 -.444-.761 2.584 2.584 0 0 0 -.709-.646c-.146-.086-.3-.181-.453-.285a2.5 2.5 0 0 1 -.552-.488.812.812 0 0 1 -.114-.19.34.34 0 0 1 -.025-.13.629.629 0 0 1 .067-.262 2.3 2.3 0 0 1 .382-.563 17.65 17.65 0 0 0 2.985-4.367 11.212 11.212 0 0 0 .942-4.718 25.628 25.628 0 0 0 -.333-3.777 6.742 6.742 0 0 1 -.075-1.032 10.111 10.111 0 0 1 .309-2.364 29.477 29.477 0 0 0 8.683 5.393l1.314-9.393s1.28 18.367 8.66 27.687a23.017 23.017 0 0 0 10.589 7.889 8.371 8.371 0 0 0 -.1 1.33 19.072 19.072 0 0 0 2.508 8.664 17.442 17.442 0 0 0 4.312 5.164 17.17 17.17 0 0 0 2.538 1.773l.983-1.819.194-.355a15.253 15.253 0 0 1 -2.2-1.552 14.964 14.964 0 0 1 -3.644-4.369 16.675 16.675 0 0 1 -2.222-7.506 6.611 6.611 0 0 1 .035-.686 15.955 15.955 0 0 0 7.274-.127z"/></g></svg>