<svg xmlns="http://www.w3.org/2000/svg" width="320" height="278" viewBox="0 0 320 278">
  <g id="グループ_885" data-name="グループ 885" transform="translate(-210 -6893)">
    <rect id="長方形_67" data-name="長方形 67" width="320" height="278" transform="translate(210 6893)" fill="#fff"/>
    <path id="パス_12309" data-name="パス 12309" d="M10.84-25.9H5.625l2.5-4.258h7.266V0H10.84ZM23.984-15.273q0-7.207,3.359-11.5a8.955,8.955,0,0,1,7.285-3.887,8.955,8.955,0,0,1,7.285,3.887q3.359,4.3,3.359,11.7,0,7.383-3.359,11.68A8.939,8.939,0,0,1,34.648.488a9.042,9.042,0,0,1-7.3-3.887Q23.984-7.7,23.984-15.273Zm4.473.02A17.869,17.869,0,0,0,30.2-6.914q1.738,3.262,4.434,3.262,2.676,0,4.434-3.262A17.04,17.04,0,0,0,40.82-15.1a17.158,17.158,0,0,0-1.758-8.2q-1.758-3.242-4.434-3.242-2.656,0-4.414,3.242A16.648,16.648,0,0,0,28.457-15.254Zm20.215-.02q0-7.207,3.359-11.5a8.955,8.955,0,0,1,7.285-3.887A8.955,8.955,0,0,1,66.6-26.777q3.359,4.3,3.359,11.7Q69.961-7.7,66.6-3.4A8.939,8.939,0,0,1,59.336.488a9.042,9.042,0,0,1-7.3-3.887Q48.672-7.7,48.672-15.273Zm4.473.02a17.869,17.869,0,0,0,1.738,8.34q1.738,3.262,4.434,3.262,2.676,0,4.434-3.262A17.04,17.04,0,0,0,65.508-15.1a17.158,17.158,0,0,0-1.758-8.2q-1.758-3.242-4.434-3.242-2.656,0-4.414,3.242A16.648,16.648,0,0,0,53.145-15.254Z" transform="translate(405 7100.033)" fill="#e61050"/>
    <path id="パス_12308" data-name="パス 12308" d="M-22.7-31.667a8.934,8.934,0,0,1,2.927-6.645,9.711,9.711,0,0,1,6.882-2.821,9.52,9.52,0,0,1,6.908,2.848,9.087,9.087,0,0,1,2.9,6.75,9.117,9.117,0,0,1-2.9,6.776,9.66,9.66,0,0,1-6.987,2.821,9.389,9.389,0,0,1-6.882-2.874A9.4,9.4,0,0,1-22.7-31.667Zm4.588.079a5.092,5.092,0,0,0,1.529,3.744,5.061,5.061,0,0,0,3.718,1.529A5,5,0,0,0-9.2-27.844a5.03,5.03,0,0,0,1.529-3.691A5,5,0,0,0-9.2-35.2a5.03,5.03,0,0,0-3.691-1.529A5.03,5.03,0,0,0-16.585-35.2,4.94,4.94,0,0,0-18.114-31.588ZM10.23-41.423,13.1-39.788-10.2.659l-2.9-1.74ZM3.059-9.36a8.906,8.906,0,0,1,2.927-6.618A9.711,9.711,0,0,1,12.867-18.8,9.551,9.551,0,0,1,19.8-15.952,9.087,9.087,0,0,1,22.7-9.2a9.023,9.023,0,0,1-2.927,6.776A9.65,9.65,0,0,1,12.788.369,9.432,9.432,0,0,1,5.906-2.479,9.376,9.376,0,0,1,3.059-9.36Zm4.614.105a5.138,5.138,0,0,0,1.5,3.744,5.061,5.061,0,0,0,3.718,1.529,4.944,4.944,0,0,0,3.665-1.529A5.03,5.03,0,0,0,18.088-9.2a5.03,5.03,0,0,0-1.529-3.691,4.974,4.974,0,0,0-3.691-1.529A5,5,0,0,0,9.2-12.894,4.969,4.969,0,0,0,7.673-9.255Z" transform="translate(474 7034.8)" fill="#e61050"/>
    <path id="パス_12310" data-name="パス 12310" d="M-6.727-9.383a2.647,2.647,0,0,1,.867-1.969,2.877,2.877,0,0,1,2.039-.836,2.821,2.821,0,0,1,2.047.844,2.692,2.692,0,0,1,.859,2,2.7,2.7,0,0,1-.859,2.008,2.862,2.862,0,0,1-2.07.836,2.782,2.782,0,0,1-2.039-.852A2.786,2.786,0,0,1-6.727-9.383Zm1.359.023A1.509,1.509,0,0,0-4.914-8.25a1.5,1.5,0,0,0,1.1.453A1.481,1.481,0,0,0-2.727-8.25a1.49,1.49,0,0,0,.453-1.094,1.481,1.481,0,0,0-.453-1.086,1.49,1.49,0,0,0-1.094-.453,1.49,1.49,0,0,0-1.094.453A1.464,1.464,0,0,0-5.367-9.359Zm8.4-2.914.852.484L-3.023.2-3.883-.32ZM.906-2.773a2.639,2.639,0,0,1,.867-1.961A2.877,2.877,0,0,1,3.813-5.57a2.83,2.83,0,0,1,2.055.844,2.692,2.692,0,0,1,.859,2A2.673,2.673,0,0,1,5.859-.719a2.859,2.859,0,0,1-2.07.828A2.8,2.8,0,0,1,1.75-.734,2.778,2.778,0,0,1,.906-2.773Zm1.367.031a1.522,1.522,0,0,0,.445,1.109,1.5,1.5,0,0,0,1.1.453,1.465,1.465,0,0,0,1.086-.453,1.49,1.49,0,0,0,.453-1.094A1.49,1.49,0,0,0,4.906-3.82a1.474,1.474,0,0,0-1.094-.453,1.481,1.481,0,0,0-1.086.453A1.472,1.472,0,0,0,2.273-2.742Z" transform="translate(490 7098.357)" fill="#e61050"/>
    <path id="パス_12516" data-name="パス 12516" d="M-28.152,0h5.7V-1.176H-24.66c-.432,0-.984.036-1.44.084,1.872-1.788,3.228-3.552,3.228-5.256A2.5,2.5,0,0,0-25.536-9a3.466,3.466,0,0,0-2.688,1.32l.78.768A2.4,2.4,0,0,1-25.7-7.9a1.44,1.44,0,0,1,1.5,1.62c0,1.452-1.344,3.168-3.948,5.472ZM-17.22.156c1.728,0,2.856-1.536,2.856-4.608C-14.364-7.5-15.492-9-17.22-9s-2.856,1.488-2.856,4.548S-18.96.156-17.22.156Zm0-1.092c-.9,0-1.536-.96-1.536-3.516,0-2.532.636-3.456,1.536-3.456s1.536.924,1.536,3.456C-15.684-1.9-16.32-.936-17.22-.936ZM-11.568,0h5.04V-1.14H-8.256V-8.832H-9.3a5.425,5.425,0,0,1-1.92.672v.876h1.584V-1.14h-1.932ZM-1.332-4.32c-.924,0-1.428-.648-1.428-1.776,0-1.152.6-1.836,1.356-1.836.96,0,1.62.792,1.752,2.532A2.118,2.118,0,0,1-1.332-4.32ZM-3.9-.78A3.031,3.031,0,0,0-1.644.156c1.7,0,3.288-1.392,3.288-4.872C1.644-7.632.276-9-1.416-9A2.7,2.7,0,0,0-4.044-6.1c0,1.848,1,2.772,2.472,2.772A2.655,2.655,0,0,0,.372-4.356C.288-1.836-.636-.972-1.7-.972a1.969,1.969,0,0,1-1.452-.66Zm11.016-2V-4.908H9.528v2.124Zm7.776,0H10.68V-4.908h3.348V-5.952H10.68V-7.608H14.3v-1.08H7.356c.156-.36.324-.756.468-1.128l-1.128-.3A9.709,9.709,0,0,1,4.08-6.048a8.874,8.874,0,0,1,.972.72A10.917,10.917,0,0,0,6.78-7.608H9.528v1.656H6v3.168H4.068V-1.7h5.46V.948H10.68V-1.7h4.212ZM19.2-7.944h8.784v-1H23.616v-1.128H22.452V-8.94h-4.32v3.384c0,1.74-.084,4.176-1.056,5.88a5.051,5.051,0,0,1,.912.612C19.032-.888,19.2-3.672,19.2-5.556Zm5.772,2.112v1.056H22.38V-5.832Zm1.092,1.92v-1.92H27.9v-.912H26.064v-.912H24.972v.912H22.38v-.912H21.324v.912H19.548v.912h1.776v1.92Zm-.5,1.524a5.531,5.531,0,0,1-1.776,1.3,5.162,5.162,0,0,1-1.74-1.3Zm.936-.936-.2.036H19.68v.9h1.836l-.54.2A6.388,6.388,0,0,0,22.632-.636,16.731,16.731,0,0,1,19.2.024a3.421,3.421,0,0,1,.468.936,15.753,15.753,0,0,0,4.08-.984,13.58,13.58,0,0,0,3.8,1A3.974,3.974,0,0,1,28.2.012a15.778,15.778,0,0,1-3.252-.636A5.788,5.788,0,0,0,27.18-2.952Z" transform="translate(467 7049.113)" fill="#e61050"/>
    <path id="パス_12517" data-name="パス 12517" d="M.528,0h5.7V-1.176H4.02c-.432,0-.984.036-1.44.084C4.452-2.88,5.808-4.644,5.808-6.348A2.5,2.5,0,0,0,3.144-9,3.466,3.466,0,0,0,.456-7.68l.78.768A2.4,2.4,0,0,1,2.976-7.9a1.44,1.44,0,0,1,1.5,1.62C4.476-4.824,3.132-3.108.528-.8ZM11.46.156c1.728,0,2.856-1.536,2.856-4.608C14.316-7.5,13.188-9,11.46-9S8.6-7.512,8.6-4.452,9.72.156,11.46.156Zm0-1.092c-.9,0-1.536-.96-1.536-3.516,0-2.532.636-3.456,1.536-3.456S13-6.984,13-4.452C13-1.9,12.36-.936,11.46-.936ZM16.608,0h5.7V-1.176H20.1c-.432,0-.984.036-1.44.084,1.872-1.788,3.228-3.552,3.228-5.256A2.5,2.5,0,0,0,19.224-9a3.466,3.466,0,0,0-2.688,1.32l.78.768a2.4,2.4,0,0,1,1.74-.984,1.44,1.44,0,0,1,1.5,1.62c0,1.452-1.344,3.168-3.948,5.472ZM27.336.156c1.62,0,2.952-.936,2.952-2.532a2.236,2.236,0,0,0-1.824-2.208v-.06A2.135,2.135,0,0,0,29.988-6.72c0-1.464-1.116-2.28-2.7-2.28a3.722,3.722,0,0,0-2.532,1.068l.72.864a2.586,2.586,0,0,1,1.764-.84A1.236,1.236,0,0,1,28.6-6.624c0,.888-.576,1.548-2.316,1.548v1.02c1.992,0,2.616.636,2.616,1.62a1.483,1.483,0,0,1-1.68,1.464,2.854,2.854,0,0,1-2.088-.972l-.672.888A3.666,3.666,0,0,0,27.336.156Zm-23.7,15.06V13.092H6.048v2.124Zm7.776,0H7.2V13.092h3.348V12.048H7.2V10.392h3.624V9.312H3.876c.156-.36.324-.756.468-1.128l-1.128-.3A9.709,9.709,0,0,1,.6,11.952a8.874,8.874,0,0,1,.972.72A10.917,10.917,0,0,0,3.3,10.392H6.048v1.656H2.52v3.168H.588V16.3h5.46v2.652H7.2V16.3h4.212Zm4.308-5.16H24.5v-1H20.136V7.932H18.972V9.06h-4.32v3.384c0,1.74-.084,4.176-1.056,5.88a5.051,5.051,0,0,1,.912.612c1.044-1.824,1.212-4.608,1.212-6.492Zm5.772,2.112v1.056H18.9V12.168Zm1.092,1.92v-1.92H24.42v-.912H22.584v-.912H21.492v.912H18.9v-.912H17.844v.912H16.068v.912h1.776v1.92Zm-.5,1.524a5.531,5.531,0,0,1-1.776,1.3,5.162,5.162,0,0,1-1.74-1.3Zm.936-.936-.2.036H16.2v.9h1.836l-.54.2a6.388,6.388,0,0,0,1.656,1.548,16.731,16.731,0,0,1-3.432.66,3.421,3.421,0,0,1,.468.936,15.753,15.753,0,0,0,4.08-.984,13.58,13.58,0,0,0,3.8,1,3.974,3.974,0,0,1,.648-.96,15.778,15.778,0,0,1-3.252-.636A5.788,5.788,0,0,0,23.7,15.048Z" transform="translate(370 7080.6)" fill="#e61050"/>
    <g id="グループ_950" data-name="グループ 950">
      <path id="パス_12518" data-name="パス 12518" d="M6.9-7.98a.907.907,0,0,0-.9-.9.907.907,0,0,0-.9.9.907.907,0,0,0,.9.9A.907.907,0,0,0,6.9-7.98ZM2.04-8.868l-.348.348,3.96,3.96L1.68-.588l.348.348L6-4.212,9.96-.252,10.308-.6,6.348-4.56l3.96-3.96L9.96-8.868,6-4.908ZM2.58-5.46a.907.907,0,0,0-.9.9.907.907,0,0,0,.9.9.907.907,0,0,0,.9-.9A.907.907,0,0,0,2.58-5.46Zm6.84,1.8a.907.907,0,0,0,.9-.9.907.907,0,0,0-.9-.9.907.907,0,0,0-.9.9A.907.907,0,0,0,9.42-3.66ZM5.1-1.14a.907.907,0,0,0,.9.9.907.907,0,0,0,.9-.9.907.907,0,0,0-.9-.9A.907.907,0,0,0,5.1-1.14ZM13.488,0H19.02V-.948H16.584c-.444,0-.984.048-1.44.084,2.064-1.956,3.444-3.744,3.444-5.5a2.413,2.413,0,0,0-2.556-2.6,3.364,3.364,0,0,0-2.592,1.3l.636.624A2.463,2.463,0,0,1,15.9-8.064a1.546,1.546,0,0,1,1.62,1.74c0,1.512-1.272,3.264-4.032,5.676ZM23.916.156c1.668,0,2.736-1.524,2.736-4.584s-1.068-4.536-2.736-4.536-2.748,1.476-2.748,4.536S22.236.156,23.916.156Zm0-.876c-1.008,0-1.68-1.116-1.68-3.708,0-2.568.672-3.648,1.68-3.648S25.584-7,25.584-4.428C25.584-1.836,24.912-.72,23.916-.72Zm5.34.72H34.08V-.912H32.316V-8.8h-.84a5.573,5.573,0,0,1-1.824.624v.7h1.56V-.912H29.256Zm9.912.156c1.656,0,2.76-1,2.76-2.28a2.567,2.567,0,0,0-1.488-2.3v-.06a2.884,2.884,0,0,0,1.176-2.124A2.225,2.225,0,0,0,39.2-8.928,2.231,2.231,0,0,0,36.792-6.7,2.445,2.445,0,0,0,37.98-4.668v.06a2.817,2.817,0,0,0-1.62,2.424A2.523,2.523,0,0,0,39.168.156Zm.6-4.932c-1.032-.408-1.98-.864-1.98-1.92A1.352,1.352,0,0,1,39.18-8.124a1.468,1.468,0,0,1,1.5,1.572A2.36,2.36,0,0,1,39.768-4.776ZM39.192-.66a1.687,1.687,0,0,1-1.836-1.62,2.391,2.391,0,0,1,1.2-1.992c1.248.5,2.328.948,2.328,2.124A1.524,1.524,0,0,1,39.192-.66Zm7.716-2.028V-5.064H49.6v2.376Zm7.932,0H50.5V-5.064h3.516V-5.9H50.5V-7.728h3.792v-.864H47.136c.192-.408.384-.84.552-1.26l-.9-.216a10.155,10.155,0,0,1-2.7,4.14,5.523,5.523,0,0,1,.768.564A11.087,11.087,0,0,0,46.68-7.728H49.6V-5.9H46.02v3.216H44.052v.864H49.6V.924h.9V-1.824H54.84ZM57.456,0H62.28V-.912H60.516V-8.8h-.84a5.573,5.573,0,0,1-1.824.624v.7h1.56V-.912H57.456Zm9.9.156c1.668,0,2.736-1.524,2.736-4.584s-1.068-4.536-2.736-4.536-2.748,1.476-2.748,4.536S65.676.156,67.356.156Zm0-.876c-1.008,0-1.68-1.116-1.68-3.708,0-2.568.672-3.648,1.68-3.648S69.024-7,69.024-4.428C69.024-1.836,68.352-.72,67.356-.72Zm7.56-2.952a15.066,15.066,0,0,0,.132-2.016h5.484v2.016Zm5.616-4.86V-6.54H75.048V-8.532Zm.924-.876H74.148v3.672c0,1.908-.192,4.344-2.1,6.024a3.377,3.377,0,0,1,.66.648A6.769,6.769,0,0,0,74.772-2.8h5.76V-.4c0,.264-.1.348-.372.36s-1.236.012-2.244-.024A3.779,3.779,0,0,1,78.3.864,9.649,9.649,0,0,0,80.832.7c.444-.144.624-.456.624-1.08ZM90.2-1.632c0,.816-.42,1.224-1.3,1.224-1.14,0-1.8-.36-1.8-1.02S87.8-2.5,89.028-2.5a5.4,5.4,0,0,1,1.164.12C90.192-2.076,90.2-1.824,90.2-1.632Zm.8-4.488c.972-.024,2.5-.1,3.552-.192l-.036-.912c-1.068.144-2.568.2-3.516.228,0-.468-.012-.888,0-1.212a10.353,10.353,0,0,1,.1-1.176H89.952a8.709,8.709,0,0,1,.1,1.176c.012.5.012,1.488.012,2.172,0,.708.048,1.8.1,2.76a7.119,7.119,0,0,0-1.008-.072c-2.052,0-2.988.888-2.988,1.956C86.16-.036,87.372.492,89,.492c1.584,0,2.184-.84,2.184-1.812,0-.216-.012-.48-.024-.792A8.3,8.3,0,0,1,94.248-.156l.576-.888a9.429,9.429,0,0,0-3.7-2.028c-.06-1.032-.12-2.184-.12-2.964Zm9.348-3.348c-.012.288-.048.648-.1,1.02a31.176,31.176,0,0,0-.36,3.84,14.54,14.54,0,0,0,.12,1.884l.936-.072a4.961,4.961,0,0,1-.024-1.452c.144-1.56,1.512-3.708,2.988-3.708,1.26,0,1.884,1.344,1.884,3.216,0,2.988-2.016,4.02-4.6,4.416l.564.864C104.724,0,106.8-1.452,106.8-4.752c0-2.5-1.14-4.08-2.724-4.08-1.5,0-2.748,1.476-3.216,2.7a22.025,22.025,0,0,1,.552-3.3Zm12.672,2.82H115.8v1.284h-2.772Zm0-1.992H115.8v1.272h-2.772Zm6.48,1.272h-2.832V-8.64h2.832Zm0,2h-2.832V-6.648h2.832Zm-3.192,1.932a9.061,9.061,0,0,0,.2-1.164h3.9V-9.408h-8.28V-4.6H115.6a8.356,8.356,0,0,1-.216,1.164h-4.2v.816H115.1c-.564,1.284-1.7,2.244-4.26,2.772a2.4,2.4,0,0,1,.468.768c2.928-.66,4.164-1.9,4.764-3.54h3.768c-.168,1.644-.36,2.376-.636,2.592a.7.7,0,0,1-.516.12c-.288,0-1.068-.012-1.848-.072a1.908,1.908,0,0,1,.288.816c.756.036,1.5.048,1.872.036a1.317,1.317,0,0,0,.948-.348c.384-.36.612-1.3.828-3.564a3.832,3.832,0,0,0,.036-.4Zm7.992-1.032a13.383,13.383,0,0,0,.6-3.216l-.672-.1a12.125,12.125,0,0,1-.624,3.072ZM125.34.912h.888V-10.044h-.888Zm.972-8.748a11.945,11.945,0,0,1,.828,2.04l.672-.324a11.332,11.332,0,0,0-.876-2ZM131.58-.348v-3h2.448v-.828H131.58V-6.66h2.712v-.852H131.58V-10h-.888v2.484h-1.5c.168-.588.312-1.212.432-1.836l-.864-.144a11.683,11.683,0,0,1-1.452,4.284,7,7,0,0,1,.792.408,8.653,8.653,0,0,0,.84-1.86h1.752v2.484h-2.544v.828h2.544v3H127.26V.5h7.32V-.348Zm7.572-9.684a9.593,9.593,0,0,1-2.52,2.5,5.216,5.216,0,0,1,.5.648,12.736,12.736,0,0,0,2.832-2.844Zm.288,2.424A11.191,11.191,0,0,1,136.5-4.3a6.651,6.651,0,0,1,.5.792,12.2,12.2,0,0,0,1.356-1.284V.948h.828V-5.76a13.719,13.719,0,0,0,1.044-1.572Zm5.04,4.344h2.676v-.828H144.48V-6.444h3v-.864h-1.824a25.307,25.307,0,0,0,1.212-2.424l-.852-.312a15.505,15.505,0,0,1-1.152,2.472l.672.264H142.7l.6-.288a14.76,14.76,0,0,0-1.26-2.352l-.732.288A18.045,18.045,0,0,1,142.5-7.308h-1.86v.864h2.988V-.456a3.317,3.317,0,0,1-1.812-2.268,21.381,21.381,0,0,0,.264-2.124l-.888-.072c-.144,2.292-.54,4.128-1.716,5.268a4.859,4.859,0,0,1,.684.612,6.082,6.082,0,0,0,1.356-2.448C142.344.252,143.652.7,145.464.7h2.016a2.331,2.331,0,0,1,.288-.84c-.372,0-1.98.012-2.244,0a7.134,7.134,0,0,1-1.044-.072Zm12.468-3.888a10.968,10.968,0,0,1-.612,1.248l.12.036h-2.82l.384-.084a4.662,4.662,0,0,0-.6-1.2Zm3.444,5.22v-.756H155.58v-.888h3.756V-4.26H155.58v-.876h4.344v-.732H157.2c.24-.36.5-.828.744-1.284h2.4V-7.92h-1.86a16.78,16.78,0,0,0,1.056-1.728l-.912-.24a13.615,13.615,0,0,1-.912,1.824l.444.144h-1.452v-2.124h-.84V-7.92H154.44v-2.124h-.828V-7.92h-1.476l.612-.228a8.271,8.271,0,0,0-1.02-1.764l-.756.252a9.354,9.354,0,0,1,.948,1.74h-1.908v.768h2.928l-.42.084a5.038,5.038,0,0,1,.588,1.2h-2.616v.732H154.7v.876h-3.612v.684H154.7v.888h-4.74v.756h3.924a11.565,11.565,0,0,1-4.236,1.9,3.821,3.821,0,0,1,.576.756A12.059,12.059,0,0,0,154.7-1.644V.912h.876V-1.7a11.329,11.329,0,0,0,4.512,2.46,3.209,3.209,0,0,1,.6-.792,10.979,10.979,0,0,1-4.284-1.9Zm10.6-5.676h-5.676V-8.856h5.676Zm.924-1.968h-7.488v2.688h7.488Zm-7.1,6.984h6.66v.864h-6.66Zm0-1.476h6.66v.84h-6.66Zm0-1.476h6.66v.84h-6.66Zm7.572,4.476V-6.2h-8.46v5.136h2.232A13.147,13.147,0,0,1,162.624.264a6.845,6.845,0,0,1,.66.66,15.232,15.232,0,0,0,3.732-1.476l-.792-.516Zm-3.288.6a31.5,31.5,0,0,1,3.768,1.4l.768-.648c-.936-.384-2.532-.972-3.768-1.332Zm9.24-1.212c-.516,0-1.212-.66-1.212-2.16a4.143,4.143,0,0,1,3.672-3.84,19.173,19.173,0,0,1-.66,3.2C179.52-2.472,178.86-1.68,178.332-1.68ZM181.464.312c2.832-.372,4.476-2.04,4.476-4.536a4.314,4.314,0,0,0-4.56-4.368,5.075,5.075,0,0,0-5.208,4.836c0,1.956,1.068,3.18,2.124,3.18,1.1,0,2.052-1.26,2.784-3.7a25.112,25.112,0,0,0,.708-3.42,3.294,3.294,0,0,1,3.156,3.444,3.562,3.562,0,0,1-3.012,3.516,7.449,7.449,0,0,1-1.02.144ZM3.36,18.26v-.924H8.7v.924ZM8.7,15.752v.924H3.36v-.924Zm.9-.744H2.472v5.9H3.36v-1.98H8.7v1.032c0,.168-.06.216-.24.228-.2,0-.9,0-1.6-.012a3.436,3.436,0,0,1,.288.732,7.735,7.735,0,0,0,1.956-.132c.372-.108.492-.336.492-.816ZM8.076,11.924l-.672.444c.42.276.876.612,1.308.948-1.68.036-3.372.072-4.848.1.4-.468.816-1,1.176-1.488Zm3.168-.792H6.432V9.956h-.9v1.176H.768v.792H3.9a14.9,14.9,0,0,1-1.008,1.5l-1.656.024.036.828c2.1-.036,5.292-.12,8.3-.24a8.7,8.7,0,0,1,.816.8l.744-.528a17.6,17.6,0,0,0-3.024-2.388h3.132Zm5.556,5.76c-.216,1.692-.792,2.748-3.372,3.3a2.8,2.8,0,0,1,.528.78c2.82-.684,3.528-1.992,3.792-4.08Zm3.144,0v2.736c0,.96.288,1.236,1.38,1.236h1.788c.96,0,1.224-.432,1.332-2.208a2.71,2.71,0,0,1-.828-.36c-.048,1.5-.132,1.728-.588,1.728H21.42c-.48,0-.564-.06-.564-.4V16.892Zm-5.232-6.6v6.432h.864V10.292Zm2.7.2v6.06h5.916V10.5Zm.852.792h4.164v1.86H18.264Zm0,2.592h4.164v1.884H18.264Zm11.2-3.84a12.331,12.331,0,0,1-3.252,4.812,5.107,5.107,0,0,1,.54.9,12.175,12.175,0,0,0,1.416-1.584V20.9h.876V12.884a17.828,17.828,0,0,0,1.308-2.568Zm7.86,3.828V13H33.852v-2.88h-.876V13H29.6v.864h2.9a12.191,12.191,0,0,1-3.324,4.908,5.177,5.177,0,0,1,.672.684,13.4,13.4,0,0,0,3.12-4.62v6.084h.876V14.588a14.568,14.568,0,0,0,3.108,4.824,3.2,3.2,0,0,1,.672-.72,12.661,12.661,0,0,1-3.264-4.824Zm9.348-1.02a10.97,10.97,0,0,1-.612,1.248l.12.036h-2.82l.384-.084a4.663,4.663,0,0,0-.6-1.2Zm3.444,5.22v-.756H45.3v-.888h3.756V15.74H45.3v-.876h4.344v-.732H46.92c.24-.36.5-.828.744-1.284h2.4V12.08H48.2a16.78,16.78,0,0,0,1.056-1.728l-.912-.24a13.614,13.614,0,0,1-.912,1.824l.444.144H46.428V9.956h-.84V12.08H44.16V9.956h-.828V12.08H41.856l.612-.228a8.271,8.271,0,0,0-1.02-1.764l-.756.252a9.354,9.354,0,0,1,.948,1.74H39.732v.768H42.66l-.42.084a5.039,5.039,0,0,1,.588,1.2H40.212v.732h4.212v.876H40.812v.684h3.612v.888h-4.74v.756h3.924a11.565,11.565,0,0,1-4.236,1.9,3.821,3.821,0,0,1,.576.756,12.059,12.059,0,0,0,4.476-2.364v2.556H45.3V18.3a11.328,11.328,0,0,0,4.512,2.46,3.208,3.208,0,0,1,.6-.792,10.979,10.979,0,0,1-4.284-1.9Zm6.456-4.932h-2.34v-1.6h2.34Zm-2.34,3.276h2.34v1.476c-.8.12-1.608.24-2.34.336Zm2.34-.816h-2.34V13.928h2.34Zm1.7-4.056v-.828h-5.82v.828h.936v6.8c-.432.06-.828.108-1.164.144l.156.9c1.14-.192,2.676-.42,4.188-.672v2.172h.864V11.54Zm4.152.024-.168.036H57.972v.876h4.044a13.166,13.166,0,0,1-1.488,4.488,15.456,15.456,0,0,1-1.476-4.44l-.852.156A16.713,16.713,0,0,0,59.988,17.8a7.321,7.321,0,0,1-2.52,2.22,3.428,3.428,0,0,1,.588.72A8.564,8.564,0,0,0,60.5,18.608a7.507,7.507,0,0,0,2.388,2.172,3.719,3.719,0,0,1,.636-.732,6.665,6.665,0,0,1-2.472-2.232A14.594,14.594,0,0,0,63,11.732Zm12.108.408H70.584v-.96h3.948Zm0,1.62H70.584V12.62h3.948Zm.888-3.252h-5.7v3.936h5.7ZM67.836,10a9.2,9.2,0,0,1-2.544,2.448,3.889,3.889,0,0,1,.468.72,12,12,0,0,0,2.928-2.844Zm.216,2.616A11.262,11.262,0,0,1,65.1,15.86a5.589,5.589,0,0,1,.468.852,11.583,11.583,0,0,0,1.4-1.3v5.5h.876v-6.5a13.714,13.714,0,0,0,.984-1.476Zm1.692,5.628a10.754,10.754,0,0,1,1.476,1.74l.684-.48A10.562,10.562,0,0,0,70.38,17.84Zm6.456-1.38H74.412v-1.02h1.572V15.08h-7v.768h4.536v1.02H68.712v.768h4.812v2.28c0,.156-.048.2-.24.216-.168.012-.768.012-1.44-.012a3.015,3.015,0,0,1,.288.816,6.146,6.146,0,0,0,1.824-.144c.348-.144.456-.372.456-.852v-2.3H76.2Zm8.664,1.512c-.012-.576-.024-1.584-.036-2.268.9-.42,1.752-.768,2.424-1.032.312-.12.744-.288,1.044-.372l-.384-.9c-.336.168-.624.312-.984.468-.624.288-1.344.576-2.16.96a1.494,1.494,0,0,0-1.572-1.08,3.371,3.371,0,0,0-1.644.444,8.527,8.527,0,0,0,1.068-1.824,36.713,36.713,0,0,0,3.936-.336l.012-.888a31.889,31.889,0,0,1-3.636.36c.168-.54.276-1.032.36-1.368l-.984-.084a6.439,6.439,0,0,1-.3,1.476c-.276.012-.528.012-.78.012-.54,0-1.368-.048-2-.12v.9c.648.048,1.452.072,1.956.072h.492a12.574,12.574,0,0,1-2.736,3.624l.816.612c.408-.48.744-.924,1.08-1.248a3.163,3.163,0,0,1,2.052-.876,1,1,0,0,1,1.068.732c-1.38.72-2.8,1.608-2.8,3.012,0,1.452,1.368,1.812,3.072,1.812a30.6,30.6,0,0,0,3.252-.192L87.5,19.3a20.921,20.921,0,0,1-3.24.288c-1.224,0-2.148-.132-2.148-1.068,0-.78.768-1.392,1.872-1.992,0,.624-.012,1.392-.048,1.848Zm17.16-4.284H97.152v-.768h3.732v-.672H97.152v-.732h4.368v-.7H99.048c.216-.3.48-.684.72-1.044l-.948-.252a11.251,11.251,0,0,1-.684,1.3H95.268l.084-.036a4.384,4.384,0,0,0-.84-1.224l-.768.264a6.507,6.507,0,0,1,.66,1h-2.46v.7h4.308v.732H92.58v.672h3.672V14.1H91.428V14.8h10.6Zm-.648,1.932a7.4,7.4,0,0,0-1.944-1.056l-.48.528a7.845,7.845,0,0,1,1.908,1.116Zm-1.008,1.56a5.418,5.418,0,0,1-1.284,1.14,6.491,6.491,0,0,1-.6-1.3h3.576v-.7H98.292a9.823,9.823,0,0,1-.228-1.752H97.2a11.44,11.44,0,0,0,.228,1.752H94.812v-.924a17.044,17.044,0,0,0,1.944-.336l-.54-.564a29.285,29.285,0,0,1-4.656.588,2.012,2.012,0,0,1,.2.588c.7-.036,1.452-.1,2.2-.168v.816H91.416v.7H93.96v.876c-.984.072-1.884.132-2.592.18l.084.72,2.508-.228v1.032c0,.168-.06.2-.24.2s-.8.012-1.452-.012a4.311,4.311,0,0,1,.276.708,6.715,6.715,0,0,0,1.812-.12c.336-.1.456-.3.456-.756V18.908c.708-.072,1.428-.132,2.148-.2v-.636l-2.148.168v-.8h2.8a7.255,7.255,0,0,0,.744,1.716,12.893,12.893,0,0,1-2.712,1.02,6,6,0,0,1,.468.708,15.366,15.366,0,0,0,2.676-1.116,2.923,2.923,0,0,0,2.232,1.152c.756-.012,1.068-.336,1.2-1.608a2.05,2.05,0,0,1-.684-.348c-.06.852-.156,1.128-.48,1.14a2.09,2.09,0,0,1-1.536-.78,6.528,6.528,0,0,0,1.608-1.464Zm12.768-5.616a4.505,4.505,0,0,1-1.164,1.548,5.325,5.325,0,0,1-1.356-1.548Zm-4.8,5.208a10.391,10.391,0,0,0,.708-1.872,3.356,3.356,0,0,1,.324.468,9.379,9.379,0,0,0,2.616-1.224,8.614,8.614,0,0,0,2.724,1.272,3.957,3.957,0,0,1,.564-.768,7.958,7.958,0,0,1-2.6-1.044,5.572,5.572,0,0,0,1.44-2.04h.924v-.756h-3.984a9.524,9.524,0,0,0,.552-1.032l-.852-.228a7.374,7.374,0,0,1-2.28,2.928,5.662,5.662,0,0,1,.732.516,9.574,9.574,0,0,0,.864-.852,6.843,6.843,0,0,0,1.236,1.464,7.951,7.951,0,0,1-2.148.924c.06-.216.12-.432.18-.636l-.54-.192-.132.048h-.888l.456-.516a6.893,6.893,0,0,0-1.008-.72,8.984,8.984,0,0,0,1.956-2.04l-.576-.36-.156.036h-4.032v.78h3.4a8.441,8.441,0,0,1-1.26,1.188c-.384-.2-.792-.4-1.164-.552l-.552.576a12.247,12.247,0,0,1,2.664,1.608H104.28v.78h1.812a9.042,9.042,0,0,1-1.932,3.216,4.72,4.72,0,0,1,.468.828,9.61,9.61,0,0,0,1.752-2.952V19.88c0,.132-.048.168-.192.18s-.624,0-1.14-.012a3.277,3.277,0,0,1,.276.816,4.709,4.709,0,0,0,1.5-.132c.3-.156.4-.4.4-.852V14.936h1.152a12.507,12.507,0,0,1-.648,1.932Zm3.624-.528c.072-.384.132-.78.168-1.188h-.9c-.036.408-.084.8-.156,1.188h-2.064V17.4h1.872a4.114,4.114,0,0,1-2.784,2.832,2.9,2.9,0,0,1,.528.684A4.868,4.868,0,0,0,111.8,17.4h2.016c-.18,1.644-.36,2.316-.588,2.544a.508.508,0,0,1-.408.12c-.192,0-.672-.012-1.188-.06a2.333,2.333,0,0,1,.24.828,12.682,12.682,0,0,0,1.332.012,1.082,1.082,0,0,0,.744-.312c.348-.348.576-1.26.792-3.492.012-.144.024-.384.024-.384Zm8.46-6.5a13.271,13.271,0,0,1-3.48,4.836,5.954,5.954,0,0,1,.54.9,14.317,14.317,0,0,0,1.56-1.692v6.7h.9V12.932a16.115,16.115,0,0,0,1.332-2.5Zm3.744,9.756c-.66,0-.792-.144-.792-.816v-3.48a28.239,28.239,0,0,0,4.224-2.616l-.636-.768a21,21,0,0,1-3.588,2.484V10.244h-.9v8.832c0,1.308.384,1.668,1.632,1.668h2.46c1.236,0,1.5-.684,1.644-2.628a2.864,2.864,0,0,1-.852-.384c-.084,1.74-.192,2.172-.852,2.172Zm16.164,1.248.72-.372a7.5,7.5,0,0,1,0-10.68l-.72-.372a8.025,8.025,0,0,0,0,11.424Zm8.052-1.008a3.027,3.027,0,0,0,3.228-3.024,2.72,2.72,0,0,0-2.988-2.8,3.3,3.3,0,0,0-1.812.444l.216-2.64h4.236V11.18h-5.184L145.8,15.4l.588.36a3.128,3.128,0,0,1,1.98-.6,1.946,1.946,0,0,1,2.124,1.992,2.069,2.069,0,0,1-2.208,2.064,3.352,3.352,0,0,1-2.532-1.092l-.552.708A4.219,4.219,0,0,0,148.38,20.144Zm10.2-1.02V15.776h5.952v3.348Zm5.952-7.464V14.9H158.58V11.66Zm-6.852-.876v10h.9V20h5.952v.732h.936V10.784Zm15.4.384v1h-2.592v-1Zm-2.592,2.712V12.824h2.592V13.88Zm3.444.684V10.472H169.6V20.924h.888v-6.36Zm1.932,1.584v1.116h-2.82V16.148ZM173.04,19.1V17.936h2.82V19.1Zm3.648.708V15.464h-4.452v4.944h.8v-.6Zm-.84-5.916V12.824h2.688v1.068Zm2.688-2.724v1h-2.688v-1Zm.9-.7H175v4.1h3.54v5.148c0,.216-.072.288-.276.288s-.948.024-1.68-.012a3.287,3.287,0,0,1,.312.912,6.83,6.83,0,0,0,2.016-.156c.4-.156.528-.456.528-1.02Zm6.924-.744-.72.372a7.5,7.5,0,0,1,0,10.68l.72.372a8.025,8.025,0,0,0,0-11.424Z" transform="translate(306 7128.646)"/>
      <path id="パス_12515" data-name="パス 12515" d="M-54.72-6.468h2.112v.84H-54.72Zm0-1.932h2.112v.828H-54.72Zm5.7.828h-2.148V-8.4h2.148Zm0,1.944h-2.148v-.84h2.148Zm-2.46,2c.048-.276.1-.54.132-.828h3.828V-9.576h-8.628v5.124h3.3c-.036.288-.084.564-.132.828h-3.972V-2.34h3.5c-.564.96-1.68,1.668-4.02,2.124a3.83,3.83,0,0,1,.744,1.248c3.024-.66,4.3-1.824,4.9-3.372h3.156C-48.8-1.152-48.984-.552-49.2-.372a.789.789,0,0,1-.528.12c-.324,0-1.08-.012-1.824-.072A2.829,2.829,0,0,1-51.084.984c.756.012,1.488.024,1.908-.012A1.678,1.678,0,0,0-47.988.5c.384-.384.624-1.368.816-3.552.024-.192.048-.576.048-.576ZM-36.168-.7V-3.1h2.2V-4.428h-2.2V-6.4h2.448V-7.74h-2.448v-2.352H-37.6V-7.74h-.96c.12-.54.216-1.1.3-1.668L-39.648-9.6a14.524,14.524,0,0,1-.636,2.928,13.759,13.759,0,0,0-.66-1.512l-.7.288v-2.268h-1.428v2.448l-1.008-.144a14.262,14.262,0,0,1-.588,3.12l1.056.384a15.292,15.292,0,0,0,.54-3.18v8.58h1.428v-8.2a8.344,8.344,0,0,1,.456,1.38l.684-.312c-.12.252-.24.48-.36.7a12.619,12.619,0,0,1,1.272.648A8.2,8.2,0,0,0-38.916-6.4h1.32v1.968h-2.316V-3.1H-37.6V-.7h-3.2V.66h7.464V-.7Zm7.98-1.14v-.576h4.548v.576ZM-23.64-3.96v.576h-4.548V-3.96Zm1.452-1.152h-7.428V1.044h1.428v-1.9h4.548V-.3c0,.168-.06.228-.276.228-.18.012-.948.012-1.524-.024a5.664,5.664,0,0,1,.42,1.14,7.492,7.492,0,0,0,2.172-.18c.492-.18.66-.48.66-1.152Zm-1.9-2.784-.576.348c.252.18.516.384.78.6-1.26.024-2.508.036-3.672.06.276-.324.564-.672.828-1.008Zm3.468,0V-9.144H-25.2v-1.02h-1.464v1.02h-4.584V-7.9h2.724c-.192.336-.408.7-.636,1.02l-1.668.024.036,1.284c2.1-.048,5.232-.132,8.22-.24a8,8,0,0,1,.72.768l1.26-.8a15.955,15.955,0,0,0-2.4-2.052Zm5.232,4.716c-.18,1.512-.528,2.5-3.228,3.024a4.269,4.269,0,0,1,.8,1.284c3.144-.768,3.732-2.2,3.972-4.308Zm3.156-.024v2.46c0,1.3.336,1.74,1.716,1.74h1.464c1.14,0,1.512-.48,1.668-2.364A4.345,4.345,0,0,1-8.7-1.932c-.048,1.38-.108,1.584-.492,1.584h-1.1c-.408,0-.468-.06-.468-.42V-3.2Zm-5.088-6.624v6.516h1.392V-9.828Zm2.8.156V-3.5h6.036V-9.672Zm1.38,1.224h3.2v1.284h-3.2Zm0,2.412h3.2v1.308h-3.2Zm18.6.168V-7.26H2.328V-9.972H.912V-7.26H-2.136v1.392H.348A11.386,11.386,0,0,1-2.616-1.524V-7.116A18.935,18.935,0,0,0-1.38-9.648L-2.8-10.1A12.312,12.312,0,0,1-5.832-5.5,10.362,10.362,0,0,1-5-4a10.877,10.877,0,0,0,.984-1.08v6.1h1.4v-2.4A7.914,7.914,0,0,1-1.644-.324,12.194,12.194,0,0,0,.912-3.96v5H2.328V-4.2A12.267,12.267,0,0,0,4.752-.384,5.087,5.087,0,0,1,5.82-1.524,11.737,11.737,0,0,1,2.952-5.868Zm8.976-1.176c-.132.324-.276.672-.42.96H11.772l.2-.036a5.91,5.91,0,0,0-.408-.924Zm3.876,5.352V-2.868H13.644V-3.4h3.6V-4.428h-3.6v-.54h4.164V-6.084H15.456c.18-.288.372-.612.564-.96h2.256V-8.208h-1.56c.276-.42.6-.96.936-1.512l-1.5-.36A9.666,9.666,0,0,1,15.4-8.34l.432.132H14.76v-1.956H13.416v1.956h-.888v-1.956H11.2v1.956H10.1l.588-.216a9.08,9.08,0,0,0-.912-1.692L8.556-9.7A10.756,10.756,0,0,1,9.3-8.208H7.692v1.164H10.2l-.144.024a5.392,5.392,0,0,1,.408.936H8.184v1.116H12.24v.54H8.784V-3.4H12.24v.528H7.656v1.176H11.1a12.607,12.607,0,0,1-3.792,1.4A6.656,6.656,0,0,1,8.22.9a11.383,11.383,0,0,0,4.02-1.944V1.044h1.4v-2.16A10.243,10.243,0,0,0,17.676.912a6.713,6.713,0,0,1,.96-1.3,10.721,10.721,0,0,1-3.8-1.308Zm7.416-6.48h.42v.936h3.54A13.611,13.611,0,0,1,28.656-3.66a14.471,14.471,0,0,1-1.1-3.552l-1.368.276A17,17,0,0,0,27.8-2.184,6.506,6.506,0,0,1,25.728-.276Zm-3.084,4.9h1.7V-2.2c-.576.072-1.152.156-1.7.228Zm0-2.472h1.7v1.2h-1.7Zm1.7-2.424v1.14h-1.7v-1.14Zm5.976-.5-.24.036H26.5v-.852H20.472v1.32h.816V-1.8c-.408.048-.78.084-1.1.12L20.46-.252c1.1-.168,2.508-.384,3.888-.624v1.92h1.38V-.084A5.708,5.708,0,0,1,26.52.96,8.221,8.221,0,0,0,28.656-.876,7.57,7.57,0,0,0,30.72.96,5.18,5.18,0,0,1,31.7-.216,6.6,6.6,0,0,1,29.532-2.16,15.928,15.928,0,0,0,31.26-8.448ZM42.24-8.22H39.12v-.6h3.12Zm0,1.56H39.12v-.624h3.12Zm1.44-3.156H37.74v4.152h5.94Zm-8-.336A8.559,8.559,0,0,1,33.18-7.8a8.855,8.855,0,0,1,.708,1.212A12.7,12.7,0,0,0,37.032-9.6Zm.312,2.616a10.772,10.772,0,0,1-2.94,3.084,10.649,10.649,0,0,1,.684,1.476,11.273,11.273,0,0,0,1.08-.972v4.98h1.38V-5.484A12.671,12.671,0,0,0,37.236-7Zm8.328,4.248H42.684v-.684h1.392V-5.136H37.128v1.164h4.1v.684H36.84v1.212h1.68l-.888.588A10.108,10.108,0,0,1,39.012.18L40.08-.576a12.617,12.617,0,0,0-1.368-1.5h2.52V-.408c0,.132-.048.18-.216.192s-.72,0-1.224-.024a5.014,5.014,0,0,1,.444,1.272,4.75,4.75,0,0,0,1.86-.2c.468-.2.588-.54.588-1.2v-1.7h1.644ZM49.56-4.26l-.216-.888c-1.1.432-2.256.876-3.012,1.116L47-2.88c.648-.288,1.44-.66,2.2-1.032l.144.828c1.152-.084,2.616-.192,4.068-.324a4.646,4.646,0,0,1,.252.6l1.08-.48a4.957,4.957,0,0,0-.408-.864,13.239,13.239,0,0,1,1.908,1.308L57.276-3.7a15.249,15.249,0,0,0-2.508-1.536l-.732.588c-.192-.288-.408-.576-.6-.828l-1.008.42c.144.2.3.42.432.648l-1.236.06a29.176,29.176,0,0,0,2.232-2.34L52.74-7.2c-.3.432-.672.912-1.092,1.4-.18-.144-.384-.288-.6-.444.348-.408.744-.9,1.116-1.38l-.264-.1h4.968V-8.988H52.536v-1.164H51.072v1.164H46.848v1.272h3.924c-.168.3-.36.624-.564.924l-.288-.18-.552.672A11.965,11.965,0,0,0,47.64-7.44l-.948.78a9.456,9.456,0,0,1,1.8,1.32l.876-.732A14.479,14.479,0,0,1,50.88-4.956c-.228.228-.456.456-.684.672ZM55.1-5.472a17.707,17.707,0,0,0,1.848-1.476L55.68-7.56a10.9,10.9,0,0,1-1.62,1.524ZM52.536-3.18H51.072v.768H46.464v1.32h4.608V1.044h1.464V-1.092h4.7v-1.32h-4.7Z" transform="translate(369 6927.646)"/>
      <path id="パス_12307" data-name="パス 12307" d="M-78.719-81.58H-95.146l7.875-13.412h22.887V0H-78.719Zm41.405,33.469q0-22.7,10.582-36.237,9.475-12.243,22.948-12.243T19.165-84.349Q29.747-70.813,29.747-47.5q0,23.256-10.582,36.791Q9.69,1.538-3.722,1.538t-23.01-12.243Q-37.314-24.24-37.314-48.111Zm14.089.062q0,15.812,5.476,26.271Q-12.274-11.5-3.784-11.5q8.429,0,13.966-10.274,5.537-10.213,5.537-25.778T10.182-73.4Q4.645-83.61-3.784-83.61q-8.367,0-13.9,10.213Q-23.225-63.246-23.225-48.05Zm63.677-.062q0-22.7,10.582-36.237,9.475-12.243,22.948-12.243T96.93-84.349Q107.512-70.813,107.512-47.5q0,23.256-10.582,36.791Q87.456,1.538,74.043,1.538T51.034-10.705Q40.452-24.24,40.452-48.111Zm14.089.062q0,15.812,5.476,26.271Q65.492-11.5,73.982-11.5q8.429,0,13.966-10.274,5.537-10.213,5.537-25.778T87.948-73.4Q82.411-83.61,73.982-83.61q-8.367,0-13.9,10.213Q54.541-63.246,54.541-48.05Z" transform="translate(337 7045.997)" fill="#e61050"/>
      <path id="パス_110" data-name="パス 110" d="M145.508,0h55.5" transform="translate(160.492 7075.709)" fill="none" stroke="#e61050" stroke-width="1"/>
      <g id="グループ_92" data-name="グループ 92" transform="translate(247 7066.6)">
        <path id="パス_119" data-name="パス 119" d="M192.641,185.118a6.2,6.2,0,1,1,2.4-8.43A6.2,6.2,0,0,1,192.641,185.118Z" transform="translate(-183.427 -162.578)" fill="#e61050"/>
        <path id="パス_120" data-name="パス 120" d="M228.384,165.7a5,5,0,1,1,1.908-6.81A5,5,0,0,1,228.384,165.7Z" transform="translate(-197.066 -156.334)" fill="#e61050"/>
        <path id="パス_121" data-name="パス 121" d="M223.457,199.833c-.119-1.581,2.5-14.977,2.5-14.977s-.56-1.975-1.718-5.522c-.268-.82-.464-1.474-.59-2.021l-2.151-.333a1.493,1.493,0,0,1-.208-.035l-5.445-.916a1.737,1.737,0,0,1,.339-3.428s9.029-.155,9.1-.149a6.727,6.727,0,0,1,5.74,2.1,22,22,0,0,1,3.716,17.041l-.354,8.814a2.055,2.055,0,0,1-4.109.067l-.734-5.92-2.069,6.007a2.053,2.053,0,0,1-4.019-.728Z" transform="translate(-194.73 -162.18)" fill="#e61050"/>
        <path id="パス_122" data-name="パス 122" d="M218.727,179.7a2.411,2.411,0,0,0-3.321-.781l-10.289,5.767a2.994,2.994,0,0,0-.571.27l-8.164,4.528c-2.675,1.48-4.38,3.553-2.7,7.642.845,2.043,3.458,8.027,5.511,13.579,1.035,2.773,1.936,5.429,2.546,7.39a23.623,23.623,0,0,1,.708,2.875c.345,1.752.6,3.634.807,5.533s.377,3.84.522,5.787c.382,5.2.618,5.814.858,11.1a3.145,3.145,0,0,0,6.289,0c.235-5.3.476-5.947.565-11.319.04-2.587.046-5.188-.047-7.839-.03-2.3-.293-4.525-.3-4.529s-.031-.374-.109-1.054c-.041-.342-.094-.759-.171-1.252-.038-.248-.083-.513-.137-.8l-.181-.885c-.46-2.179-1.161-5.1-1.994-8.116-1.44-5.276-3.093-10.7-4.133-13.447l13.53-11.13A2.41,2.41,0,0,0,218.727,179.7Z" transform="translate(-186.914 -164.415)" fill="#e61050"/>
      </g>
    </g>
  </g>
</svg>
