<svg xmlns="http://www.w3.org/2000/svg" width="320" height="278" viewBox="0 0 320 278">
  <g id="グループ_942" data-name="グループ 942" transform="translate(-28 -7623)">
    <g id="グループ_694" data-name="グループ 694" transform="translate(-452 1048)">
      <rect id="長方形_75" data-name="長方形 75" width="320" height="278" transform="translate(480 6575)" fill="#fff"/>
    </g>
    <g id="グループ_948" data-name="グループ 948">
      <path id="パス_12455" data-name="パス 12455" d="M11.46-4.368H6.744V-8h4.02V-9.42H1.212V-8H5.256v3.636H.588v1.452H5.256v3.96H6.744v-3.96H11.46ZM1.944-7.236a12.034,12.034,0,0,1,.876,2.5l1.392-.432a10.946,10.946,0,0,0-.96-2.448ZM8.952-4.764a23.479,23.479,0,0,0,1.32-2.508L8.748-7.656A14.22,14.22,0,0,1,7.7-5.124ZM21.876-3.588c-1.56.564-3.216,1.14-4.272,1.464L18.168-.78c1.14-.456,2.6-1.044,3.948-1.608ZM19.728-8.256a14.09,14.09,0,0,0,.552-1.608l-1.452-.324a10.81,10.81,0,0,1-1.512,3.4v-.7H16.188V-10.02h-1.38v2.532H13.524v1.344h1.284v3.3c-.576.216-1.116.408-1.548.552l.5,1.452c1.14-.48,2.6-1.1,3.948-1.7L17.4-3.864c-.4.168-.8.324-1.212.492V-6.144H16.8l-.132.132a8.771,8.771,0,0,1,1.224.912c.12-.132.228-.276.348-.432v1h3.5V-5.808h-3.3c.228-.336.444-.7.66-1.092h3.8c-.132,4.212-.3,5.952-.648,6.324a.545.545,0,0,1-.492.216c-.312,0-.948,0-1.644-.06a3.459,3.459,0,0,1,.48,1.452A10.745,10.745,0,0,0,22.416,1,1.492,1.492,0,0,0,23.544.324c.48-.636.648-2.556.8-7.9,0-.192.012-.684.012-.684Zm9.9,2.328A15.286,15.286,0,0,1,29.256-4.1a12.062,12.062,0,0,0-1.068-.828c.132-.312.252-.648.36-1Zm.588-1.308-.228.036H28.9c.084-.348.168-.72.228-1.08H31.14v-1.3H26.508v1.3h1.248A10.59,10.59,0,0,1,26.1-3.948a11.836,11.836,0,0,1,1.068.924,5.619,5.619,0,0,0,.468-.744,9.659,9.659,0,0,1,1.14,1.044A6.588,6.588,0,0,1,26.676.06a4.78,4.78,0,0,1,.984.984c1.764-1.38,2.952-4.116,3.372-8.052ZM36.1-4.008a6.614,6.614,0,0,1-1.164,1.32c-.1-.36-.18-.744-.264-1.164Zm.264-.024,1-.108-.1-1.116-2.784.276c-.024-.192-.048-.408-.084-.612l2.46-.228-.108-1.092L34.272-6.7c-.012-.2-.036-.408-.048-.612l2.748-.24-.1-1.128-.684.06L36.84-9.3a6.014,6.014,0,0,0-1.572-1.008l-.78.792a7.478,7.478,0,0,1,1.356.924l-1.68.144c-.024-.588-.036-1.176-.024-1.764H32.724c0,.624.024,1.248.048,1.884l-1.752.144.1,1.152,1.728-.156c.012.216.024.42.048.624l-1.536.132.108,1.116,1.548-.144c.024.2.048.42.084.624l-2.052.2.12,1.152,2.112-.228a15.149,15.149,0,0,0,.48,1.932A10.925,10.925,0,0,1,30.348-.3,5.4,5.4,0,0,1,31.116.888,13.151,13.151,0,0,0,34.224-.588C34.7.384,35.328.984,36.1.984c.96,0,1.332-.42,1.56-1.944a3.278,3.278,0,0,1-1-.78c-.06,1.02-.18,1.356-.408,1.356-.312,0-.624-.384-.9-1.032a9.1,9.1,0,0,0,1.86-2.016Zm10-3.012c-.132.324-.276.672-.42.96H43.692l.2-.036a5.91,5.91,0,0,0-.408-.924Zm3.876,5.352V-2.868H45.564V-3.4h3.6V-4.428h-3.6v-.54h4.164V-6.084H47.376c.18-.288.372-.612.564-.96H50.2V-8.208h-1.56c.276-.42.6-.96.936-1.512l-1.5-.36a9.667,9.667,0,0,1-.756,1.74l.432.132H46.68v-1.956H45.336v1.956h-.888v-1.956H43.116v1.956H42.024l.588-.216a9.08,9.08,0,0,0-.912-1.692l-1.224.42a10.756,10.756,0,0,1,.744,1.488H39.612v1.164H42.12l-.144.024a5.393,5.393,0,0,1,.408.936H40.1v1.116H44.16v.54H40.7V-3.4H44.16v.528H39.576v1.176H43.02a12.607,12.607,0,0,1-3.792,1.4A6.656,6.656,0,0,1,40.14.9a11.383,11.383,0,0,0,4.02-1.944V1.044h1.4v-2.16A10.243,10.243,0,0,0,49.6.912a6.713,6.713,0,0,1,.96-1.3,10.721,10.721,0,0,1-3.8-1.308ZM55.044-8.16v2.112h-1.1V-8.16Zm-1.1,5.616V-4.8h1.1v2.256Zm2.436-6.888H52.62V-.216h1.32V-1.272h2.436Zm.708,7.152A8.442,8.442,0,0,1,58.452-.264l1.224-.708A8.28,8.28,0,0,0,58.224-2.94Zm6.348-3.072V-6.6H60.7V-7.656h2.4V-8.9H60.7v-1.26h-1.4V-8.9h-2.3v1.248h2.3V-6.6H56.58v1.248h4.236V-4.32H56.6v1.236h4.212V-.5c0,.168-.06.216-.252.216s-.852,0-1.428-.024a4.813,4.813,0,0,1,.456,1.344,5.313,5.313,0,0,0,2-.24c.468-.216.6-.576.6-1.26V-3.084h1.152V-4.32H62.2V-5.352Zm5.6-3.324v.636H67.188v-.636ZM67.188-6.4V-7.08h1.848V-6.4Zm3.18,1.02V-9.708h-4.6V1.044h1.416v-6.42Zm2.184-1V-7.08H74.46v.708Zm1.908-2.3v.636H72.552v-.636Zm-4.68,7.56V-1.86h1.98v.744ZM71.76-3.6v.72H69.78V-3.6ZM75.9-9.708H71.2v4.356H74.46V-.66c0,.192-.072.264-.288.264-.156.012-.6.012-1.068,0v-4.26h-4.62V.54h1.3V-.072h2.976a5.284,5.284,0,0,1,.312,1.116,5.185,5.185,0,0,0,2.2-.276C75.744.54,75.9.12,75.9-.648Z" transform="translate(143 7652.646)"/>
      <g id="グループ_933" data-name="グループ 933" transform="translate(-452 1025)">
        <path id="パス_12315" data-name="パス 12315" d="M-72.852-64.746H-85.889l6.25-10.645h18.164V0H-72.852ZM-23.877,2.588l-8.35-6.2,18.018-24.561q-1.465.2-2.49.293t-1.66.1a21.194,21.194,0,0,1-15.82-6.982,23.276,23.276,0,0,1-6.641-16.7,24.224,24.224,0,0,1,7.373-17.773A24.248,24.248,0,0,1-15.674-76.66a25.01,25.01,0,0,1,17.92,7.324A23,23,0,0,1,9.863-52.148q0,8.789-7.422,18.994Zm-5.859-54.883a13.93,13.93,0,0,0,4.15,10.254,13.779,13.779,0,0,0,10.107,4.2A13.7,13.7,0,0,0-5.42-41.992,13.779,13.779,0,0,0-1.221-52.1a13.779,13.779,0,0,0-4.2-10.107,13.756,13.756,0,0,0-10.107-4.15,13.641,13.641,0,0,0-10.01,4.15A13.556,13.556,0,0,0-29.736-52.295ZM24.023-5.469a6.475,6.475,0,0,1,2-4.736,6.53,6.53,0,0,1,4.785-2,6.53,6.53,0,0,1,4.785,2,6.53,6.53,0,0,1,2,4.785,6.587,6.587,0,0,1-2,4.834,6.507,6.507,0,0,1-4.785,1.953A6.566,6.566,0,0,1,25.977-.586,6.625,6.625,0,0,1,24.023-5.469ZM65.332-64.746H52.295l6.25-10.645H76.709V0H65.332Z" transform="translate(614 6728)" fill="#a21b43"/>
        <path id="パス_12316" data-name="パス 12316" d="M10.84-25.9H5.625l2.5-4.258h7.266V0H10.84Zm26.035-5.312,3.34,2.5-7.207,9.8q.586-.078,1-.117t.645-.039A8.471,8.471,0,0,1,41-16.25a9.311,9.311,0,0,1,2.656,6.68,9.7,9.7,0,0,1-2.969,7.109A9.667,9.667,0,0,1,33.594.488a10.15,10.15,0,0,1-7.187-2.91,9.247,9.247,0,0,1-3.027-6.895,12.978,12.978,0,0,1,2.949-7.578ZM39.219-9.277a5.525,5.525,0,0,0-1.66-4.062,5.511,5.511,0,0,0-4.043-1.68,5.5,5.5,0,0,0-4.043,1.66,5.479,5.479,0,0,0-1.66,4.023,5.479,5.479,0,0,0,1.66,4.023,5.525,5.525,0,0,0,4.063,1.66,5.457,5.457,0,0,0,4-1.66A5.422,5.422,0,0,0,39.219-9.277Z" transform="translate(546 6817)" fill="#a21b43"/>
        <path id="パス_12456" data-name="パス 12456" d="M-22.258-21.452v6.231h-3.72v-6.231Zm-3.72,15.314v-6.541h3.72v6.541Zm6.448-17.918h-9.114V-.961h2.666v-2.6h6.448ZM-17.3-6.293a22.994,22.994,0,0,1,3.751,5.3L-11.1-2.48a22.83,22.83,0,0,0-3.875-5.146Zm16.089-7.75v-2.542H-8.742v-3.41h6.386v-2.511H-8.742V-26.04h-2.883v3.534h-6.2v2.511h6.2v3.41H-19v2.542H-7.626v3.1H-18.91V-8.4H-7.626V-.837c0,.434-.155.558-.651.589-.465,0-2.17,0-3.906-.062a10.732,10.732,0,0,1,.93,2.7c2.418,0,4-.031,5.084-.465C-5.146,1.488-4.8.713-4.8-.775V-8.4h3.317v-2.542H-4.8v-3.1ZM11.5-22.6v2.139H5.642V-22.6ZM5.642-16.12v-2.294H11.5v2.294Zm8.587,2.139V-24.769H2.79V2.449H5.642v-16.43Zm5.208-2.077v-2.356h6.045v2.356ZM25.482-22.6v2.139H19.437V-22.6ZM12.276-2.573V-5.146h6.293v2.573Zm6.293-7.1v2.418H12.276V-9.672Zm9.827-15.1H16.678v10.85h8.8V-1.178c0,.527-.155.682-.713.713-.5,0-1.984.031-3.5-.031V-11.842H9.641V1.147h2.635V-.4h8.37a12.913,12.913,0,0,1,.9,2.821c2.6,0,4.309-.031,5.394-.5C28.055,1.426,28.4.5,28.4-1.147Z" transform="translate(734 6712)" fill="#a21b43"/>
        <path id="パス_12459" data-name="パス 12459" d="M-11.488-11.072v3.216h-1.92v-3.216Zm-1.92,7.9V-6.544h1.92v3.376Zm3.328-9.248h-4.7V-.5h1.376V-1.84h3.328Zm1.152,9.168A11.868,11.868,0,0,1-6.992-.512l1.264-.768a11.783,11.783,0,0,0-2-2.656Zm8.3-4V-8.56H-4.512v-1.76h3.3v-1.3h-3.3V-13.44H-6v1.824H-9.2v1.3H-6v1.76H-9.808v1.312h5.872v1.6H-9.76v1.312h5.824v3.9c0,.224-.08.288-.336.3-.24,0-1.12,0-2.016-.032a5.539,5.539,0,0,1,.48,1.392A7.867,7.867,0,0,0-3.184.992c.528-.224.7-.624.7-1.392V-4.336H-.768V-5.648H-2.48v-1.6Zm6.56-4.416v1.1H2.912v-1.1ZM2.912-8.32V-9.5H5.936V-8.32Zm4.432,1.1v-5.568H1.44V1.264H2.912v-8.48Zm2.688-1.072V-9.5h3.12v1.216Zm3.12-3.376v1.1h-3.12v-1.1ZM6.336-1.328V-2.656H9.584v1.328ZM9.584-4.992v1.248H6.336V-4.992Zm5.072-7.792H8.608v5.6h4.544V-.608c0,.272-.08.352-.368.368-.256,0-1.024.016-1.808-.016V-6.112h-6v6.7h1.36v-.8h4.32a6.665,6.665,0,0,1,.464,1.456A8.1,8.1,0,0,0,13.9.992c.576-.256.752-.736.752-1.584Z" transform="translate(612 6816)" fill="#a21b43"/>
        <path id="パス_12457" data-name="パス 12457" d="M-28.152,0h5.7V-1.176H-24.66c-.432,0-.984.036-1.44.084,1.872-1.788,3.228-3.552,3.228-5.256A2.5,2.5,0,0,0-25.536-9a3.466,3.466,0,0,0-2.688,1.32l.78.768A2.4,2.4,0,0,1-25.7-7.9a1.44,1.44,0,0,1,1.5,1.62c0,1.452-1.344,3.168-3.948,5.472ZM-17.22.156c1.728,0,2.856-1.536,2.856-4.608C-14.364-7.5-15.492-9-17.22-9s-2.856,1.488-2.856,4.548S-18.96.156-17.22.156Zm0-1.092c-.9,0-1.536-.96-1.536-3.516,0-2.532.636-3.456,1.536-3.456s1.536.924,1.536,3.456C-15.684-1.9-16.32-.936-17.22-.936ZM-11.568,0h5.04V-1.14H-8.256V-8.832H-9.3a5.425,5.425,0,0,1-1.92.672v.876h1.584V-1.14h-1.932ZM-1.332-4.32c-.924,0-1.428-.648-1.428-1.776,0-1.152.6-1.836,1.356-1.836.96,0,1.62.792,1.752,2.532A2.118,2.118,0,0,1-1.332-4.32ZM-3.9-.78A3.031,3.031,0,0,0-1.644.156c1.7,0,3.288-1.392,3.288-4.872C1.644-7.632.276-9-1.416-9A2.7,2.7,0,0,0-4.044-6.1c0,1.848,1,2.772,2.472,2.772A2.655,2.655,0,0,0,.372-4.356C.288-1.836-.636-.972-1.7-.972a1.969,1.969,0,0,1-1.452-.66Zm11.016-2V-4.908H9.528v2.124Zm7.776,0H10.68V-4.908h3.348V-5.952H10.68V-7.608H14.3v-1.08H7.356c.156-.36.324-.756.468-1.128l-1.128-.3A9.709,9.709,0,0,1,4.08-6.048a8.874,8.874,0,0,1,.972.72A10.917,10.917,0,0,0,6.78-7.608H9.528v1.656H6v3.168H4.068V-1.7h5.46V.948H10.68V-1.7h4.212ZM19.2-7.944h8.784v-1H23.616v-1.128H22.452V-8.94h-4.32v3.384c0,1.74-.084,4.176-1.056,5.88a5.051,5.051,0,0,1,.912.612C19.032-.888,19.2-3.672,19.2-5.556Zm5.772,2.112v1.056H22.38V-5.832Zm1.092,1.92v-1.92H27.9v-.912H26.064v-.912H24.972v.912H22.38v-.912H21.324v.912H19.548v.912h1.776v1.92Zm-.5,1.524a5.531,5.531,0,0,1-1.776,1.3,5.162,5.162,0,0,1-1.74-1.3Zm.936-.936-.2.036H19.68v.9h1.836l-.54.2A6.388,6.388,0,0,0,22.632-.636,16.731,16.731,0,0,1,19.2.024a3.421,3.421,0,0,1,.468.936,15.753,15.753,0,0,0,4.08-.984,13.58,13.58,0,0,0,3.8,1A3.974,3.974,0,0,1,28.2.012a15.778,15.778,0,0,1-3.252-.636A5.788,5.788,0,0,0,27.18-2.952Z" transform="translate(734 6729.646)" fill="#a21b43"/>
        <path id="パス_12458" data-name="パス 12458" d="M.528,0h5.7V-1.176H4.02c-.432,0-.984.036-1.44.084C4.452-2.88,5.808-4.644,5.808-6.348A2.5,2.5,0,0,0,3.144-9,3.466,3.466,0,0,0,.456-7.68l.78.768A2.4,2.4,0,0,1,2.976-7.9a1.44,1.44,0,0,1,1.5,1.62C4.476-4.824,3.132-3.108.528-.8ZM11.46.156c1.728,0,2.856-1.536,2.856-4.608C14.316-7.5,13.188-9,11.46-9S8.6-7.512,8.6-4.452,9.72.156,11.46.156Zm0-1.092c-.9,0-1.536-.96-1.536-3.516,0-2.532.636-3.456,1.536-3.456S13-6.984,13-4.452C13-1.9,12.36-.936,11.46-.936ZM16.608,0h5.7V-1.176H20.1c-.432,0-.984.036-1.44.084,1.872-1.788,3.228-3.552,3.228-5.256A2.5,2.5,0,0,0,19.224-9a3.466,3.466,0,0,0-2.688,1.32l.78.768a2.4,2.4,0,0,1,1.74-.984,1.44,1.44,0,0,1,1.5,1.62c0,1.452-1.344,3.168-3.948,5.472ZM27.336.156c1.62,0,2.952-.936,2.952-2.532a2.236,2.236,0,0,0-1.824-2.208v-.06A2.135,2.135,0,0,0,29.988-6.72c0-1.464-1.116-2.28-2.7-2.28a3.722,3.722,0,0,0-2.532,1.068l.72.864a2.586,2.586,0,0,1,1.764-.84A1.236,1.236,0,0,1,28.6-6.624c0,.888-.576,1.548-2.316,1.548v1.02c1.992,0,2.616.636,2.616,1.62a1.483,1.483,0,0,1-1.68,1.464,2.854,2.854,0,0,1-2.088-.972l-.672.888A3.666,3.666,0,0,0,27.336.156Zm-23.7,15.06V13.092H6.048v2.124Zm7.776,0H7.2V13.092h3.348V12.048H7.2V10.392h3.624V9.312H3.876c.156-.36.324-.756.468-1.128l-1.128-.3A9.709,9.709,0,0,1,.6,11.952a8.874,8.874,0,0,1,.972.72A10.917,10.917,0,0,0,3.3,10.392H6.048v1.656H2.52v3.168H.588V16.3h5.46v2.652H7.2V16.3h4.212Zm4.308-5.16H24.5v-1H20.136V7.932H18.972V9.06h-4.32v3.384c0,1.74-.084,4.176-1.056,5.88a5.051,5.051,0,0,1,.912.612c1.044-1.824,1.212-4.608,1.212-6.492Zm5.772,2.112v1.056H18.9V12.168Zm1.092,1.92v-1.92H24.42v-.912H22.584v-.912H21.492v.912H18.9v-.912H17.844v.912H16.068v.912h1.776v1.92Zm-.5,1.524a5.531,5.531,0,0,1-1.776,1.3,5.162,5.162,0,0,1-1.74-1.3Zm.936-.936-.2.036H16.2v.9h1.836l-.54.2a6.388,6.388,0,0,0,1.656,1.548,16.731,16.731,0,0,1-3.432.66,3.421,3.421,0,0,1,.468.936,15.753,15.753,0,0,0,4.08-.984,13.58,13.58,0,0,0,3.8,1,3.974,3.974,0,0,1,.648-.96,15.778,15.778,0,0,1-3.252-.636A5.788,5.788,0,0,0,23.7,15.048Z" transform="translate(511 6797.646)" fill="#a21b43"/>
        <line id="線_22" data-name="線 22" x2="145" transform="translate(511.5 6759.5)" fill="none" stroke="#a21b43" stroke-width="1"/>
        <g id="グループ_80" data-name="グループ 80" transform="translate(698.5 6761.252)">
          <path id="パス_93" data-name="パス 93" d="M87,198.42a1.057,1.057,0,0,0,.306.051,1,1,0,0,0,.969-.714,1.021,1.021,0,0,0-.652-1.284,1.035,1.035,0,0,0-1.285.663A1.018,1.018,0,0,0,87,198.42Z" transform="translate(-75.291 -171.396)" fill="#a21b43"/>
          <path id="パス_94" data-name="パス 94" d="M148.427,113.3a1.05,1.05,0,0,0,.612-.2h-.01a1.014,1.014,0,0,0,.224-1.418,1.027,1.027,0,0,0-1.428-.224,1.014,1.014,0,0,0-.214,1.428A1,1,0,0,0,148.427,113.3Z" transform="translate(-128.624 -97.08)" fill="#a21b43"/>
          <path id="パス_95" data-name="パス 95" d="M247.937,80.258h.01a1.02,1.02,0,0,0-.01-2.039,1.032,1.032,0,0,0-1.02,1.03A1.02,1.02,0,0,0,247.937,80.258Z" transform="translate(-215.452 -68.251)" fill="#a21b43"/>
          <path id="パス_96" data-name="パス 96" d="M347.879,112.094a1.016,1.016,0,0,0,.825-.428,1.016,1.016,0,1,0-1.417.234A.993.993,0,0,0,347.879,112.094Z" transform="translate(-302.66 -96.029)" fill="#a21b43"/>
          <path id="パス_97" data-name="パス 97" d="M87.58,301.318a1,1,0,0,0-.642,1.284h-.01a1.029,1.029,0,0,0,.979.7.888.888,0,0,0,.316-.052,1.02,1.02,0,0,0-.642-1.937Z" transform="translate(-75.81 -262.875)" fill="#a21b43"/>
          <path id="パス_98" data-name="パス 98" d="M149.054,386.192a1.028,1.028,0,0,0,.235,1.428,1.06,1.06,0,0,0,.591.183,1.035,1.035,0,0,0,.835-.418,1.023,1.023,0,0,0-1.662-1.193Z" transform="translate(-129.893 -336.606)" fill="#a21b43"/>
          <path id="パス_99" data-name="パス 99" d="M410.9,299.88a1.018,1.018,0,0,0-1.284.663,1.007,1.007,0,0,0,.663,1.274.822.822,0,0,0,.316.051,1.017,1.017,0,0,0,.306-1.988Z" transform="translate(-357.374 -261.621)" fill="#a21b43"/>
          <path id="パス_100" data-name="パス 100" d="M410.048,196.574a1.225,1.225,0,0,0,.316-.051,1.037,1.037,0,0,0,.653-1.3l-.031-.061v-.011a1.021,1.021,0,0,0-1.937.643.134.134,0,0,1,.021.061c.01,0,.01,0,.01.01A1.017,1.017,0,0,0,410.048,196.574Z" transform="translate(-356.876 -169.682)" fill="#a21b43"/>
          <path id="パス_101" data-name="パス 101" d="M348.743,385.1a1.016,1.016,0,0,0-.224,1.428,1.033,1.033,0,0,0,.825.418.989.989,0,0,0,.591-.2,1.015,1.015,0,1,0-1.193-1.642Z" transform="translate(-303.931 -335.853)" fill="#a21b43"/>
          <path id="パス_102" data-name="パス 102" d="M249.769,417.742a1.02,1.02,0,0,0,.011,2.039,1.02,1.02,0,1,0-.011-2.039Z" transform="translate(-217.059 -364.506)" fill="#a21b43"/>
          <path id="パス_103" data-name="パス 103" d="M32.624,0A32.624,32.624,0,1,0,65.248,32.624,32.661,32.661,0,0,0,32.624,0Zm0,57.48A24.856,24.856,0,1,1,57.48,32.624,24.884,24.884,0,0,1,32.624,57.48Z" fill="#a21b43"/>
          <path id="パス_104" data-name="パス 104" d="M240.338,130.672h-5.33v20.336h17.671v-5.33H240.338Z" transform="translate(-205.059 -114.02)" fill="#a21b43"/>
        </g>
      </g>
      <g id="グループ_941" data-name="グループ 941">
        <path id="パス_12511" data-name="パス 12511" d="M6.9-7.98a.907.907,0,0,0-.9-.9.907.907,0,0,0-.9.9.907.907,0,0,0,.9.9A.907.907,0,0,0,6.9-7.98ZM2.04-8.868l-.348.348,3.96,3.96L1.68-.588l.348.348L6-4.212,9.96-.252,10.308-.6,6.348-4.56l3.96-3.96L9.96-8.868,6-4.908ZM2.58-5.46a.907.907,0,0,0-.9.9.907.907,0,0,0,.9.9.907.907,0,0,0,.9-.9A.907.907,0,0,0,2.58-5.46Zm6.84,1.8a.907.907,0,0,0,.9-.9.907.907,0,0,0-.9-.9.907.907,0,0,0-.9.9A.907.907,0,0,0,9.42-3.66ZM5.1-1.14a.907.907,0,0,0,.9.9.907.907,0,0,0,.9-.9.907.907,0,0,0-.9-.9A.907.907,0,0,0,5.1-1.14ZM23.652-9.168a6.127,6.127,0,0,0-1.764-1l-.48.516a6.241,6.241,0,0,1,1.728,1.056ZM16.968-6.24a15.332,15.332,0,0,1-.564,2.5,10.815,10.815,0,0,0-1.572-1.14,13.84,13.84,0,0,0,.516-1.356Zm.384-.84-.156.036H15.588c.132-.528.264-1.068.36-1.632h2.268v-.816H13.584v.816h1.5a11.278,11.278,0,0,1-1.812,4.764,4.74,4.74,0,0,1,.684.588,7.562,7.562,0,0,0,.54-.864A11.5,11.5,0,0,1,16.1-2.88,7.243,7.243,0,0,1,13.74.312a2.85,2.85,0,0,1,.636.624C16.14-.408,17.412-3,17.868-6.912Zm5.916,3.168A7.676,7.676,0,0,1,21.7-2.136a15.722,15.722,0,0,1-.432-1.692l3.084-.324-.084-.732-3.132.324c-.06-.372-.12-.744-.168-1.14l2.868-.288L23.748-6.7l-2.856.276c-.036-.348-.072-.72-.1-1.092l3.192-.276L23.94-8.52l-3.18.276c-.024-.6-.036-1.212-.036-1.848h-.876c.012.648.024,1.3.06,1.932L18.072-8l.06.732,1.824-.156c.024.372.048.732.084,1.092l-1.68.168.072.72,1.692-.168c.036.4.1.768.156,1.14l-2.22.228.072.744,2.28-.24a14.748,14.748,0,0,0,.576,2.16A11.222,11.222,0,0,1,17.5.06,2.718,2.718,0,0,1,18,.8,12.128,12.128,0,0,0,21.3-.84c.5,1.068,1.164,1.7,1.992,1.7S24.384.42,24.54-1.08a1.937,1.937,0,0,1-.636-.468C23.832-.36,23.7.024,23.364.024c-.516,0-.972-.5-1.368-1.392a9.426,9.426,0,0,0,1.92-2.088Zm10.44-3.24A10.97,10.97,0,0,1,33.1-5.9l.12.036H30.4l.384-.084a4.663,4.663,0,0,0-.6-1.2Zm3.444,5.22v-.756H32.34v-.888H36.1V-4.26H32.34v-.876h4.344v-.732H33.96c.24-.36.5-.828.744-1.284h2.4V-7.92h-1.86A16.779,16.779,0,0,0,36.3-9.648l-.912-.24a13.614,13.614,0,0,1-.912,1.824l.444.144H33.468v-2.124h-.84V-7.92H31.2v-2.124h-.828V-7.92H28.9l.612-.228a8.271,8.271,0,0,0-1.02-1.764l-.756.252a9.354,9.354,0,0,1,.948,1.74H26.772v.768H29.7l-.42.084a5.039,5.039,0,0,1,.588,1.2H27.252v.732h4.212v.876H27.852v.684h3.612v.888h-4.74v.756h3.924a11.565,11.565,0,0,1-4.236,1.9,3.822,3.822,0,0,1,.576.756,12.059,12.059,0,0,0,4.476-2.364V.912h.876V-1.7A11.328,11.328,0,0,0,36.852.756a3.209,3.209,0,0,1,.6-.792,10.979,10.979,0,0,1-4.284-1.9ZM42.4-8.448v2.664h-1.74V-8.448Zm-1.74,6.216V-5H42.4v2.772Zm2.58-7.02h-3.4v8.8h.816v-.972h2.58Zm.984,6.72A9.256,9.256,0,0,1,45.744-.42L46.5-.9a8.484,8.484,0,0,0-1.56-2.04Zm6.192-2.976V-6.3h-3.1V-7.824H49.9v-.792h-2.58v-1.428H46.44v1.428h-2.5v.792h2.5V-6.3H43.428v.792h4.6v1.356H43.488v.792h4.536v3.2c0,.18-.06.228-.264.24s-.852.012-1.6-.012A2.725,2.725,0,0,1,46.452.9,6.866,6.866,0,0,0,48.4.756c.36-.132.492-.4.492-.9V-3.36H50.28v-.792H48.888V-5.508Zm6.024-3.324v1H53.844v-1ZM53.844-6.12V-7.176h2.592V-6.12Zm3.444.684V-9.528H52.956V.924h.888v-6.36ZM59.22-3.852v1.116H56.4V-3.852ZM56.4-.9V-2.064h2.82V-.9Zm3.648.708V-4.536H55.6V.408h.8v-.6Zm-.84-5.916V-7.176H61.9v1.068ZM61.9-8.832v1H59.208v-1Zm.9-.7h-4.44v4.1H61.9V-.276c0,.216-.072.288-.276.288S60.672.036,59.94,0a3.287,3.287,0,0,1,.312.912A6.83,6.83,0,0,0,62.268.756C62.664.6,62.8.3,62.8-.264Zm3.648,3.18v.828h8.712v-.828Zm0,3.54h8.712v-.828H66.444ZM81.732-8.724A8.81,8.81,0,0,0,79.38-9.96l-.48.66a9.575,9.575,0,0,1,2.328,1.308Zm-.624,3.132a10.173,10.173,0,0,0-2.376-1.1l-.468.684a10.086,10.086,0,0,1,2.364,1.176ZM80.832-3.66A36.1,36.1,0,0,1,78.684.192l.756.576C80.112-.348,80.9-1.824,81.5-3.084Zm8.5,4.128a16.307,16.307,0,0,0-2.292-3.444l-.756.4a20.692,20.692,0,0,1,1.236,1.7c-1.416.1-2.844.18-4.08.24.528-1.044,1.092-2.412,1.536-3.552h4.152V-5.04H85.716v-2.2H88.56v-.84H85.716v-1.956H84.8v1.956H82.068v.84H84.8v2.2H81.468v.852h2.448a28.313,28.313,0,0,1-1.44,3.612l-1,.048.132.888C83.268.252,85.68.1,88-.084a7.934,7.934,0,0,1,.5,1.02Zm3.288-8.292h8.172v1.752h.912V-8.664H97.164v-1.368H96.24v1.368h-4.5v2.592h.876Zm4.548,5.1h3.552v-.828H97.164V-5.544h3.06v-.84H93.276v.84h2.976V-.516a3.6,3.6,0,0,1-2.208-2.316,15.146,15.146,0,0,0,.288-1.6l-.912-.084C93.156-2.364,92.508-.66,91.176.372a4.659,4.659,0,0,1,.732.6A6.574,6.574,0,0,0,93.7-1.7C94.788.324,96.576.756,99.06.756h2.784a2.63,2.63,0,0,1,.336-.9c-.576.012-2.64.012-3.072.012a10.955,10.955,0,0,1-1.944-.144Zm12.1-4.656a14.7,14.7,0,0,1-.984,3.24,15.068,15.068,0,0,0-2.244-1.572,13.613,13.613,0,0,0,.888-1.668Zm3.42-2.652h-.912V-5.46a10.276,10.276,0,0,1-1.224-1.752l-.468.18c.06-.324.132-.66.18-1.008l-.576-.216-.168.048h-2.256c.2-.528.384-1.092.54-1.656l-.876-.18a11.214,11.214,0,0,1-2.868,5.352,5.175,5.175,0,0,1,.732.576,8.629,8.629,0,0,0,.792-.924,14.774,14.774,0,0,1,2.292,1.7A8.654,8.654,0,0,1,104.316.192a3.355,3.355,0,0,1,.708.66c2.28-1.272,4.08-3.66,4.956-7.44a13.682,13.682,0,0,0,1.788,2.352V.888h.912V-3.36a10.908,10.908,0,0,0,2.136,1.488,3.93,3.93,0,0,1,.636-.756,10.466,10.466,0,0,1-2.772-1.9Zm10.572,2.064a8.274,8.274,0,0,0-.948-2.04l-.78.252a8.108,8.108,0,0,1,.888,2.088Zm-2.856.06a8.62,8.62,0,0,0-1.3-1.9l-.756.36a8.279,8.279,0,0,1,1.248,1.956Zm2.2,3.408c.06-.54.108-1.128.132-1.752h-.96c-.024.636-.06,1.212-.108,1.752H118.3v.84h3.228c-.372,1.9-1.344,3.12-4.212,3.792a2.653,2.653,0,0,1,.516.792c3.192-.8,4.248-2.316,4.644-4.584h3.36c-.12,2.4-.288,3.372-.552,3.636-.12.12-.264.132-.528.132S123.66.1,122.844.024a2.017,2.017,0,0,1,.3.864,19.463,19.463,0,0,0,1.968.036,1.226,1.226,0,0,0,.936-.384c.384-.408.552-1.584.708-4.632.012-.132.012-.408.012-.408Zm2.964-2.976a24.385,24.385,0,0,0,1.56-2.124l-.948-.324a15.163,15.163,0,0,1-1.5,2.34l.264.108h-7.26v2.532h.864V-6.66h8.244v1.716h.888V-7.476Zm12.768,1.332A11.784,11.784,0,0,1,137.3-.66c-.588.06-1.176.12-1.74.168v-.936h1.872v-.7h-1.872v-.768H137.4V-6.384h-1.824V-7.14h1.86v.66h.888Zm-4.656,1.776h1.188v.876h-1.188Zm0-1.416h1.188v.852h-1.188Zm1.836.852v-.852h1.248v.852Zm0,1.44v-.876h1.248v.876Zm3.6-3.78V-9.984h-.78v2.712h-.84v-.564h-1.908v-.828a16,16,0,0,0,1.86-.324l-.48-.648a31.036,31.036,0,0,1-4.14.576c.084-.228.156-.468.228-.7l-.792-.216A13.972,13.972,0,0,1,129.9-5.16a6.247,6.247,0,0,1,.444.9,12.691,12.691,0,0,0,1.056-1.6V.924h.8v-8.4q.342-.774.612-1.584a2.491,2.491,0,0,1,.216.636c.564-.036,1.164-.084,1.764-.144v.732h-1.908v.7H134.8v.756h-1.752v3.492H134.8v.768h-1.788v.7H134.8V-.42l-2.088.192.144.756C133.968.4,135.42.24,136.872.06c-.108.156-.228.3-.348.444a2.808,2.808,0,0,1,.66.468c1.692-2,1.92-4.812,1.92-7.116V-6.48h1.08c-.1,4.476-.2,6.036-.432,6.372a.347.347,0,0,1-.36.192c-.192,0-.612-.012-1.08-.048a1.908,1.908,0,0,1,.216.78,6.627,6.627,0,0,0,1.2,0,.837.837,0,0,0,.708-.42c.336-.48.42-2.112.528-7.248,0-.108.012-.42.012-.42Zm6.972-1.176v2.664h-1.74V-8.448Zm-1.74,6.216V-5h1.74v2.772Zm2.58-7.02h-3.4v8.8h.816v-.972h2.58Zm.984,6.72A9.256,9.256,0,0,1,149.424-.42l.756-.48a8.484,8.484,0,0,0-1.56-2.04Zm6.192-2.976V-6.3H151V-7.824h2.58v-.792H151v-1.428h-.876v1.428h-2.5v.792h2.5V-6.3h-3.012v.792h4.6v1.356h-4.536v.792H151.7v3.2c0,.18-.06.228-.264.24s-.852.012-1.6-.012a2.725,2.725,0,0,1,.288.828,6.866,6.866,0,0,0,1.944-.144c.36-.132.492-.4.492-.9V-3.36h1.392v-.792h-1.392V-5.508Zm6.024-3.324v1h-2.592v-1ZM157.524-6.12V-7.176h2.592V-6.12Zm3.444.684V-9.528h-4.332V.924h.888v-6.36ZM162.9-3.852v1.116h-2.82V-3.852ZM160.08-.9V-2.064h2.82V-.9Zm3.648.708V-4.536h-4.452V.408h.8v-.6Zm-.84-5.916V-7.176h2.688v1.068Zm2.688-2.724v1h-2.688v-1Zm.9-.7h-4.44v4.1h3.54V-.276c0,.216-.072.288-.276.288s-.948.024-1.68-.012a3.287,3.287,0,0,1,.312.912,6.83,6.83,0,0,0,2.016-.156c.4-.156.528-.456.528-1.02Zm12.36,4.608h-3.948V-8.868h-.816V-4.92h-3.948v.828h3.948V-.144h.816V-4.092h3.948Zm6.144-5.04a12.331,12.331,0,0,1-3.252,4.812,5.107,5.107,0,0,1,.54.9,12.175,12.175,0,0,0,1.416-1.584V.9h.876V-7.116a17.828,17.828,0,0,0,1.308-2.568Zm7.86,3.828V-7h-3.468v-2.88H188.5V-7h-3.372v.864h2.9A12.191,12.191,0,0,1,184.7-1.224a5.178,5.178,0,0,1,.672.684,13.4,13.4,0,0,0,3.12-4.62V.924h.876V-5.412A14.568,14.568,0,0,0,192.48-.588a3.2,3.2,0,0,1,.672-.72,12.661,12.661,0,0,1-3.264-4.824Zm4.62,5.256V-4.224h5.952V-.876Zm5.952-7.464V-5.1H197.46V-8.34Zm-6.852-.876v10h.9V0h5.952V.732h.936V-9.216Zm17.412,1.248a8.274,8.274,0,0,0-.948-2.04l-.78.252a8.108,8.108,0,0,1,.888,2.088Zm-2.856.06a8.62,8.62,0,0,0-1.3-1.9l-.756.36a8.278,8.278,0,0,1,1.248,1.956Zm2.2,3.408c.06-.54.108-1.128.132-1.752h-.96c-.024.636-.06,1.212-.108,1.752h-3.36v.84h3.228c-.372,1.9-1.344,3.12-4.212,3.792a2.653,2.653,0,0,1,.516.792c3.192-.8,4.248-2.316,4.644-4.584h3.36c-.12,2.4-.288,3.372-.552,3.636-.12.12-.264.132-.528.132S214.38.1,213.564.024a2.017,2.017,0,0,1,.3.864,19.463,19.463,0,0,0,1.968.036,1.226,1.226,0,0,0,.936-.384c.384-.408.552-1.584.708-4.632.012-.132.012-.408.012-.408Zm2.964-2.976a24.383,24.383,0,0,0,1.56-2.124l-.948-.324a15.162,15.162,0,0,1-1.5,2.34l.264.108h-7.26v2.532h.864V-6.66H217.5v1.716h.888V-7.476Zm12.768,1.332a11.784,11.784,0,0,1-1.02,5.484c-.588.06-1.176.12-1.74.168v-.936h1.872v-.7h-1.872v-.768h1.836V-6.384H226.3V-7.14h1.86v.66h.888Zm-4.656,1.776h1.188v.876h-1.188Zm0-1.416h1.188v.852h-1.188Zm1.836.852v-.852h1.248v.852Zm0,1.44v-.876h1.248v.876Zm3.6-3.78V-9.984h-.78v2.712h-.84v-.564H226.3v-.828a16,16,0,0,0,1.86-.324l-.48-.648a31.035,31.035,0,0,1-4.14.576c.084-.228.156-.468.228-.7l-.792-.216A13.972,13.972,0,0,1,220.62-5.16a6.247,6.247,0,0,1,.444.9,12.691,12.691,0,0,0,1.056-1.6V.924h.8v-8.4q.342-.774.612-1.584a2.491,2.491,0,0,1,.216.636c.564-.036,1.164-.084,1.764-.144v.732h-1.908v.7h1.908v.756h-1.752v3.492h1.752v.768h-1.788v.7h1.788V-.42l-2.088.192.144.756C224.688.4,226.14.24,227.592.06c-.108.156-.228.3-.348.444a2.808,2.808,0,0,1,.66.468c1.692-2,1.92-4.812,1.92-7.116V-6.48h1.08c-.1,4.476-.2,6.036-.432,6.372a.347.347,0,0,1-.36.192c-.192,0-.612-.012-1.08-.048a1.908,1.908,0,0,1,.216.78,6.627,6.627,0,0,0,1.2,0,.837.837,0,0,0,.708-.42c.336-.48.42-2.112.528-7.248,0-.108.012-.42.012-.42ZM236.8-8.448v2.664h-1.74V-8.448Zm-1.74,6.216V-5h1.74v2.772Zm2.58-7.02h-3.4v8.8h.816v-.972h2.58Zm.984,6.72A9.256,9.256,0,0,1,240.144-.42L240.9-.9a8.484,8.484,0,0,0-1.56-2.04Zm6.192-2.976V-6.3h-3.1V-7.824h2.58v-.792h-2.58v-1.428h-.876v1.428h-2.5v.792h2.5V-6.3h-3.012v.792h4.6v1.356h-4.536v.792h4.536v3.2c0,.18-.06.228-.264.24s-.852.012-1.6-.012a2.725,2.725,0,0,1,.288.828A6.866,6.866,0,0,0,242.8.756c.36-.132.492-.4.492-.9V-3.36h1.392v-.792h-1.392V-5.508Zm6.024-3.324v1h-2.592v-1ZM248.244-6.12V-7.176h2.592V-6.12Zm3.444.684V-9.528h-4.332V.924h.888v-6.36Zm1.932,1.584v1.116H250.8V-3.852ZM250.8-.9V-2.064h2.82V-.9Zm3.648.708V-4.536H250V.408h.8v-.6Zm-.84-5.916V-7.176H256.3v1.068ZM256.3-8.832v1h-2.688v-1Zm.9-.7h-4.44v4.1h3.54V-.276c0,.216-.072.288-.276.288s-.948.024-1.68-.012a3.287,3.287,0,0,1,.312.912,6.83,6.83,0,0,0,2.016-.156c.4-.156.528-.456.528-1.02Z" transform="translate(59 7881.646)"/>
      </g>
    </g>
  </g>
</svg>
