<svg xmlns="http://www.w3.org/2000/svg" width="320" height="278" viewBox="0 0 320 278">
  <g id="グループ_964" data-name="グループ 964" transform="translate(-28 -8487)">
    <rect id="長方形_845" data-name="長方形 845" width="320" height="278" transform="translate(28 8487)" fill="#fff"/>
    <path id="パス_12519" data-name="パス 12519" d="M-36.828-6.012A7.679,7.679,0,0,1-38.3-2.736c-.9-.4-1.8-.744-2.616-1.032.3-.708.624-1.464.936-2.244Zm3.408,0V-7.464H-39.4c.336-.828.648-1.656.936-2.424l-1.572-.264c-.288.828-.636,1.752-1,2.688H-44.3v1.452h2.688c-.528,1.284-1.068,2.5-1.524,3.432l1.44.528.2-.444q.954.378,1.944.828A11.333,11.333,0,0,1-44.208-.36a4.811,4.811,0,0,1,.756,1.428A11.5,11.5,0,0,0-37.944-.888,20.328,20.328,0,0,1-34.7,1.1L-33.612-.24A21.821,21.821,0,0,0-36.8-2.064,9.99,9.99,0,0,0-35.2-6.012ZM-23.208-.7V-3.1h2.2V-4.428h-2.2V-6.4h2.448V-7.74h-2.448v-2.352h-1.428V-7.74h-.96c.12-.54.216-1.1.3-1.668L-26.688-9.6a14.524,14.524,0,0,1-.636,2.928,13.759,13.759,0,0,0-.66-1.512l-.7.288v-2.268h-1.428v2.448l-1.008-.144A14.262,14.262,0,0,1-31.7-4.74l1.056.384a15.292,15.292,0,0,0,.54-3.18v8.58h1.428v-8.2a8.344,8.344,0,0,1,.456,1.38l.684-.312c-.12.252-.24.48-.36.7a12.619,12.619,0,0,1,1.272.648A8.2,8.2,0,0,0-25.956-6.4h1.32v1.968h-2.316V-3.1h2.316V-.7h-3.2V.66h7.464V-.7ZM-10.116-1v.672h-4.752V-1Zm-.912-3.24v.624h-3.84v-.624Zm-3.84,1.644h5.256V-5.268h-6.624V1.056h1.368V.732h4.752v.324H-8.7v-3.1h-6.168ZM-7.44-9.324h-3.48q.162-.306.288-.612l-1.356-.324a5.532,5.532,0,0,1-1.14,1.74v-.8h-2.664c.1-.192.192-.384.276-.576l-1.332-.36a6.442,6.442,0,0,1-1.764,2.436,7.507,7.507,0,0,1,1.164.768,8.863,8.863,0,0,0,.96-1.152h.2a6.816,6.816,0,0,1,.54,1.152l1.284-.36a6.05,6.05,0,0,0-.4-.792h1.4c-.1.084-.2.168-.3.24.156.072.384.18.6.3h-.528v.84H-18.1v2.376h1.344V-5.76h7.644v1.308h1.392V-6.828h-4.6v-.648a6.6,6.6,0,0,0,.66-.732h.7a7.074,7.074,0,0,1,.72,1.176l1.32-.372a6.037,6.037,0,0,0-.5-.8h1.98ZM-1.692-2.7c-.384.132-.78.252-1.176.372v-2.4h1.08V-6.036h-1.08V-8.148h1.284V-9.48h-3.96v1.332h1.32v2.112H-5.436v1.308h1.212v2.82c-.552.156-1.044.288-1.464.4L-5.364-.06c1.152-.372,2.592-.828,3.912-1.3ZM.156-6.324H1.392v1.032H.156Zm0-2.124H1.392v1H.156Zm3.624,1H2.592v-1H3.78Zm0,2.16H2.592V-6.324H3.78ZM2.724-.624v-1.14H5.268V-3.048H2.724V-4.08H5.136V-9.66H-1.128v5.58h2.4v1.032H-1.212v1.284H1.272v1.14H-2.04v1.3H5.676v-1.3ZM12.888-1.44v-.72h1.1v.72Zm1.1-2.364v.72h-1.1V-3.8Zm-.036-4.212a11.553,11.553,0,0,1-.312,1.452l.624.144H12.54l.54-.132a5.348,5.348,0,0,0-.312-1.464Zm-4.008.852H9.156v-1.3h.792ZM9.156-2.112V-3.564h.792v1.308Zm.792-2.6H9.156v-1.3h.792Zm7.368-.156a11.327,11.327,0,0,1-.432,1.32q-.072-.81-.108-1.764h1.8v-1.1H16.728c-.024-.8-.036-1.644-.036-2.532A8.23,8.23,0,0,1,17.64-7.2l1-.552A7.991,7.991,0,0,0,17.46-9.66l-.768.408v-.9H15.444c.012,1.332.036,2.58.072,3.732h-.96c.132-.384.3-.924.48-1.44l-.816-.156h1.032V-9.06H14.028v-1.08H12.816v1.08H11.64v-.648H7.524V-8.46h.468v6.54c-.252.048-.492.084-.708.108L7.524-.5c.72-.144,1.572-.324,2.424-.5V1.044h1.188v-9.5h.456v.444h.948l-.7.168a6.445,6.445,0,0,1,.264,1.428h-.756v1.1h4.212a31.766,31.766,0,0,0,.324,3.552A6.553,6.553,0,0,1,15.1-.84V-4.788H11.8V.228h1.092v-.7h1.8a7.225,7.225,0,0,1-.852.6,6.413,6.413,0,0,1,.816.936,8.29,8.29,0,0,0,1.572-1.4c.288.876.684,1.356,1.224,1.368.408,0,.972-.42,1.272-2.364a4.174,4.174,0,0,1-.924-.792c-.048.948-.144,1.5-.288,1.5s-.276-.336-.384-.912A11.8,11.8,0,0,0,18.456-4.62Zm7.452,3.288v1.02H22.38v-1.02ZM21.1,1.032H22.38V.5h2.388V.912h1.356V-2.652H21.1Zm4.344-8.16H24.216v-.648H22.908v.648H21.684v-.888H25.44Zm-1.2-2.964H22.872v1H20.424v2.064h.588v.912h1.9v.5H21.132v.948h1.776v.516H20.46V-3.06h6.168V-4.152H24.216v-.516h1.752v-.948H24.216v-.5h1.92v-.912h.624V-9.1H24.24Zm4.38,1.2H27.264v6.708H28.62Zm1.128-1.056v9.24c0,.192-.084.264-.288.264-.24,0-.924.012-1.62-.024a5.846,5.846,0,0,1,.468,1.476A5.278,5.278,0,0,0,30.5.72c.48-.228.624-.624.624-1.416V-9.948ZM41.268-2.6V-.648h-4.74V-2.6Zm-6.144,3.66h1.4V.612h4.74v.444h1.464v-4.92H35.124Zm1.332-7.368a12.261,12.261,0,0,0,2.388-2.436A13.146,13.146,0,0,0,41.3-6.312Zm1.584-3.84A12.7,12.7,0,0,1,33.156-5.88a5.827,5.827,0,0,1,.9,1.164,16.719,16.719,0,0,0,1.86-1.176v.84h5.976V-5.88a14.394,14.394,0,0,0,1.836,1.14,6.975,6.975,0,0,1,.924-1.284,12.055,12.055,0,0,1-5.136-4.128Z" transform="translate(187 8521.646)"/>
    <g id="グループ_886" data-name="グループ 886" transform="translate(-798 2209)">
      <path id="パス_12306" data-name="パス 12306" d="M-30.023-26.517h10.09v13.043h-10.09V0H-44.358V-13.474H-90.993l60.97-88.594Zm-14.335,0V-58.324l-21.9,31.808ZM-3.507-6.891A8.158,8.158,0,0,1-.984-12.858a8.228,8.228,0,0,1,6.029-2.522,8.228,8.228,0,0,1,6.029,2.522A8.228,8.228,0,0,1,13.6-6.829,8.3,8.3,0,0,1,11.074-.738,8.2,8.2,0,0,1,5.045,1.723,8.273,8.273,0,0,1-1.046-.738,8.347,8.347,0,0,1-3.507-6.891ZM48.542-81.58H32.115L39.99-94.992H62.877V0H48.542Z" transform="translate(962 6457)" fill="#e61050"/>
      <path id="パス_12303" data-name="パス 12303" d="M15.7-31.211l3.34,2.5-7.207,9.8q.586-.078,1-.117t.645-.039a8.471,8.471,0,0,1,6.348,2.813A9.311,9.311,0,0,1,22.48-9.57a9.7,9.7,0,0,1-2.969,7.109A9.667,9.667,0,0,1,12.422.488a10.15,10.15,0,0,1-7.187-2.91A9.247,9.247,0,0,1,2.207-9.316a12.978,12.978,0,0,1,2.949-7.578ZM18.047-9.277a5.525,5.525,0,0,0-1.66-4.062,5.511,5.511,0,0,0-4.043-1.68A5.5,5.5,0,0,0,8.3-13.359a5.479,5.479,0,0,0-1.66,4.023A5.479,5.479,0,0,0,8.3-5.312a5.525,5.525,0,0,0,4.063,1.66,5.457,5.457,0,0,0,4-1.66A5.422,5.422,0,0,0,18.047-9.277Zm10.1,7.09a2.59,2.59,0,0,1,.8-1.895,2.612,2.612,0,0,1,1.914-.8,2.612,2.612,0,0,1,1.914.8,2.612,2.612,0,0,1,.8,1.914,2.635,2.635,0,0,1-.8,1.934,2.6,2.6,0,0,1-1.914.781,2.626,2.626,0,0,1-1.934-.781A2.65,2.65,0,0,1,28.145-2.187ZM38.73-15.273q0-7.207,3.359-11.5a8.955,8.955,0,0,1,7.285-3.887,8.955,8.955,0,0,1,7.285,3.887q3.359,4.3,3.359,11.7Q60.02-7.7,56.66-3.4A8.939,8.939,0,0,1,49.395.488,9.042,9.042,0,0,1,42.09-3.4Q38.73-7.7,38.73-15.273Zm4.473.02a17.869,17.869,0,0,0,1.738,8.34q1.738,3.262,4.434,3.262,2.676,0,4.434-3.262A17.04,17.04,0,0,0,55.566-15.1a17.158,17.158,0,0,0-1.758-8.2q-1.758-3.242-4.434-3.242-2.656,0-4.414,3.242A16.648,16.648,0,0,0,43.2-15.254Z" transform="translate(909 6520)" fill="#e61050"/>
      <path id="パス_12305" data-name="パス 12305" d="M-22.7-31.667a8.934,8.934,0,0,1,2.927-6.645,9.711,9.711,0,0,1,6.882-2.821,9.52,9.52,0,0,1,6.908,2.848,9.087,9.087,0,0,1,2.9,6.75,9.117,9.117,0,0,1-2.9,6.776,9.66,9.66,0,0,1-6.987,2.821,9.389,9.389,0,0,1-6.882-2.874A9.4,9.4,0,0,1-22.7-31.667Zm4.588.079a5.092,5.092,0,0,0,1.529,3.744,5.061,5.061,0,0,0,3.718,1.529A5,5,0,0,0-9.2-27.844a5.03,5.03,0,0,0,1.529-3.691A5,5,0,0,0-9.2-35.2a5.03,5.03,0,0,0-3.691-1.529A5.03,5.03,0,0,0-16.585-35.2,4.94,4.94,0,0,0-18.114-31.588ZM10.23-41.423,13.1-39.788-10.2.659l-2.9-1.74ZM3.059-9.36a8.906,8.906,0,0,1,2.927-6.618A9.711,9.711,0,0,1,12.867-18.8,9.551,9.551,0,0,1,19.8-15.952,9.087,9.087,0,0,1,22.7-9.2a9.023,9.023,0,0,1-2.927,6.776A9.65,9.65,0,0,1,12.788.369,9.432,9.432,0,0,1,5.906-2.479,9.376,9.376,0,0,1,3.059-9.36Zm4.614.105a5.138,5.138,0,0,0,1.5,3.744,5.061,5.061,0,0,0,3.718,1.529,4.944,4.944,0,0,0,3.665-1.529A5.03,5.03,0,0,0,18.088-9.2a5.03,5.03,0,0,0-1.529-3.691,4.974,4.974,0,0,0-3.691-1.529A5,5,0,0,0,9.2-12.894,4.969,4.969,0,0,0,7.673-9.255Z" transform="translate(1079 6439)" fill="#e61050"/>
      <path id="パス_12304" data-name="パス 12304" d="M-6.727-9.383a2.647,2.647,0,0,1,.867-1.969,2.877,2.877,0,0,1,2.039-.836,2.821,2.821,0,0,1,2.047.844,2.692,2.692,0,0,1,.859,2,2.7,2.7,0,0,1-.859,2.008,2.862,2.862,0,0,1-2.07.836,2.782,2.782,0,0,1-2.039-.852A2.786,2.786,0,0,1-6.727-9.383Zm1.359.023A1.509,1.509,0,0,0-4.914-8.25a1.5,1.5,0,0,0,1.1.453A1.481,1.481,0,0,0-2.727-8.25a1.49,1.49,0,0,0,.453-1.094,1.481,1.481,0,0,0-.453-1.086,1.49,1.49,0,0,0-1.094-.453,1.49,1.49,0,0,0-1.094.453A1.464,1.464,0,0,0-5.367-9.359Zm8.4-2.914.852.484L-3.023.2-3.883-.32ZM.906-2.773a2.639,2.639,0,0,1,.867-1.961A2.877,2.877,0,0,1,3.813-5.57a2.83,2.83,0,0,1,2.055.844,2.692,2.692,0,0,1,.859,2A2.673,2.673,0,0,1,5.859-.719a2.859,2.859,0,0,1-2.07.828A2.8,2.8,0,0,1,1.75-.734,2.778,2.778,0,0,1,.906-2.773Zm1.367.031a1.522,1.522,0,0,0,.445,1.109,1.5,1.5,0,0,0,1.1.453,1.465,1.465,0,0,0,1.086-.453,1.49,1.49,0,0,0,.453-1.094A1.49,1.49,0,0,0,4.906-3.82a1.474,1.474,0,0,0-1.094-.453,1.481,1.481,0,0,0-1.086.453A1.472,1.472,0,0,0,2.273-2.742Z" transform="translate(983 6519)" fill="#e61050"/>
      <path id="パス_12520" data-name="パス 12520" d="M-28.152,0h5.7V-1.176H-24.66c-.432,0-.984.036-1.44.084,1.872-1.788,3.228-3.552,3.228-5.256A2.5,2.5,0,0,0-25.536-9a3.466,3.466,0,0,0-2.688,1.32l.78.768A2.4,2.4,0,0,1-25.7-7.9a1.44,1.44,0,0,1,1.5,1.62c0,1.452-1.344,3.168-3.948,5.472ZM-17.22.156c1.728,0,2.856-1.536,2.856-4.608C-14.364-7.5-15.492-9-17.22-9s-2.856,1.488-2.856,4.548S-18.96.156-17.22.156Zm0-1.092c-.9,0-1.536-.96-1.536-3.516,0-2.532.636-3.456,1.536-3.456s1.536.924,1.536,3.456C-15.684-1.9-16.32-.936-17.22-.936ZM-11.568,0h5.04V-1.14H-8.256V-8.832H-9.3a5.425,5.425,0,0,1-1.92.672v.876h1.584V-1.14h-1.932ZM-1.332-4.32c-.924,0-1.428-.648-1.428-1.776,0-1.152.6-1.836,1.356-1.836.96,0,1.62.792,1.752,2.532A2.118,2.118,0,0,1-1.332-4.32ZM-3.9-.78A3.031,3.031,0,0,0-1.644.156c1.7,0,3.288-1.392,3.288-4.872C1.644-7.632.276-9-1.416-9A2.7,2.7,0,0,0-4.044-6.1c0,1.848,1,2.772,2.472,2.772A2.655,2.655,0,0,0,.372-4.356C.288-1.836-.636-.972-1.7-.972a1.969,1.969,0,0,1-1.452-.66Zm11.016-2V-4.908H9.528v2.124Zm7.776,0H10.68V-4.908h3.348V-5.952H10.68V-7.608H14.3v-1.08H7.356c.156-.36.324-.756.468-1.128l-1.128-.3A9.709,9.709,0,0,1,4.08-6.048a8.874,8.874,0,0,1,.972.72A10.917,10.917,0,0,0,6.78-7.608H9.528v1.656H6v3.168H4.068V-1.7h5.46V.948H10.68V-1.7h4.212ZM19.2-7.944h8.784v-1H23.616v-1.128H22.452V-8.94h-4.32v3.384c0,1.74-.084,4.176-1.056,5.88a5.051,5.051,0,0,1,.912.612C19.032-.888,19.2-3.672,19.2-5.556Zm5.772,2.112v1.056H22.38V-5.832Zm1.092,1.92v-1.92H27.9v-.912H26.064v-.912H24.972v.912H22.38v-.912H21.324v.912H19.548v.912h1.776v1.92Zm-.5,1.524a5.531,5.531,0,0,1-1.776,1.3,5.162,5.162,0,0,1-1.74-1.3Zm.936-.936-.2.036H19.68v.9h1.836l-.54.2A6.388,6.388,0,0,0,22.632-.636,16.731,16.731,0,0,1,19.2.024a3.421,3.421,0,0,1,.468.936,15.753,15.753,0,0,0,4.08-.984,13.58,13.58,0,0,0,3.8,1A3.974,3.974,0,0,1,28.2.012a15.778,15.778,0,0,1-3.252-.636A5.788,5.788,0,0,0,27.18-2.952Z" transform="translate(1072 6458.646)" fill="#e61050"/>
      <path id="パス_82" data-name="パス 82" d="M0,0H103.787" transform="translate(997 6493.5)" fill="none" stroke="#e61050" stroke-width="1"/>
      <path id="パス_12521" data-name="パス 12521" d="M.528,0h5.7V-1.176H4.02c-.432,0-.984.036-1.44.084C4.452-2.88,5.808-4.644,5.808-6.348A2.5,2.5,0,0,0,3.144-9,3.466,3.466,0,0,0,.456-7.68l.78.768A2.4,2.4,0,0,1,2.976-7.9a1.44,1.44,0,0,1,1.5,1.62C4.476-4.824,3.132-3.108.528-.8ZM11.46.156c1.728,0,2.856-1.536,2.856-4.608C14.316-7.5,13.188-9,11.46-9S8.6-7.512,8.6-4.452,9.72.156,11.46.156Zm0-1.092c-.9,0-1.536-.96-1.536-3.516,0-2.532.636-3.456,1.536-3.456S13-6.984,13-4.452C13-1.9,12.36-.936,11.46-.936ZM16.608,0h5.7V-1.176H20.1c-.432,0-.984.036-1.44.084,1.872-1.788,3.228-3.552,3.228-5.256A2.5,2.5,0,0,0,19.224-9a3.466,3.466,0,0,0-2.688,1.32l.78.768a2.4,2.4,0,0,1,1.74-.984,1.44,1.44,0,0,1,1.5,1.62c0,1.452-1.344,3.168-3.948,5.472ZM27.336.156c1.62,0,2.952-.936,2.952-2.532a2.236,2.236,0,0,0-1.824-2.208v-.06A2.135,2.135,0,0,0,29.988-6.72c0-1.464-1.116-2.28-2.7-2.28a3.722,3.722,0,0,0-2.532,1.068l.72.864a2.586,2.586,0,0,1,1.764-.84A1.236,1.236,0,0,1,28.6-6.624c0,.888-.576,1.548-2.316,1.548v1.02c1.992,0,2.616.636,2.616,1.62a1.483,1.483,0,0,1-1.68,1.464,2.854,2.854,0,0,1-2.088-.972l-.672.888A3.666,3.666,0,0,0,27.336.156Zm-23.7,15.06V13.092H6.048v2.124Zm7.776,0H7.2V13.092h3.348V12.048H7.2V10.392h3.624V9.312H3.876c.156-.36.324-.756.468-1.128l-1.128-.3A9.709,9.709,0,0,1,.6,11.952a8.874,8.874,0,0,1,.972.72A10.917,10.917,0,0,0,3.3,10.392H6.048v1.656H2.52v3.168H.588V16.3h5.46v2.652H7.2V16.3h4.212Zm4.308-5.16H24.5v-1H20.136V7.932H18.972V9.06h-4.32v3.384c0,1.74-.084,4.176-1.056,5.88a5.051,5.051,0,0,1,.912.612c1.044-1.824,1.212-4.608,1.212-6.492Zm5.772,2.112v1.056H18.9V12.168Zm1.092,1.92v-1.92H24.42v-.912H22.584v-.912H21.492v.912H18.9v-.912H17.844v.912H16.068v.912h1.776v1.92Zm-.5,1.524a5.531,5.531,0,0,1-1.776,1.3,5.162,5.162,0,0,1-1.74-1.3Zm.936-.936-.2.036H16.2v.9h1.836l-.54.2a6.388,6.388,0,0,0,1.656,1.548,16.731,16.731,0,0,1-3.432.66,3.421,3.421,0,0,1,.468.936,15.753,15.753,0,0,0,4.08-.984,13.58,13.58,0,0,0,3.8,1,3.974,3.974,0,0,1,.648-.96,15.778,15.778,0,0,1-3.252-.636A5.788,5.788,0,0,0,23.7,15.048Z" transform="translate(870 6500.646)" fill="#e61050"/>
    </g>
    <g id="グループ_889" data-name="グループ 889" transform="translate(208.655 8507.646)">
      <path id="パス_113" data-name="パス 113" d="M126.267,384.62h-.007l-1.165.392Z" transform="translate(-58.384 -325.159)" fill="#e61050"/>
      <path id="パス_114" data-name="パス 114" d="M88.014,315.2h0Z" transform="translate(-27.035 -266.474)" fill="#e61050"/>
      <path id="パス_115" data-name="パス 115" d="M101.767,57.465c35.1-25.71,6.564-72.184-26.294-52.9C66.711,6.045,57.51,11.485,59.7,20.385a8.78,8.78,0,0,0,1.246,2.747,13.649,13.649,0,0,0-.881,4.6,9.428,9.428,0,0,0,.1,1.4,23.072,23.072,0,0,1,.305,3.407c0,.136,0,.267-.008.4a11.474,11.474,0,0,1-4.431.788,9.263,9.263,0,0,0,4.043,1.652,8.247,8.247,0,0,1-.331.874,15.35,15.35,0,0,1-2.581,3.747,4.674,4.674,0,0,0-.784,1.192,3.085,3.085,0,0,0-.277,1.26,2.849,2.849,0,0,0,.331,1.327,3.985,3.985,0,0,0,1.071,1.251,8.342,8.342,0,0,0,.926.626,1.073,1.073,0,0,1,.207.367,1.922,1.922,0,0,1,.126.657.931.931,0,0,1-.038.29l-.023.055,0,0,0,0h0l0,0h0a2.636,2.636,0,0,0-.489.66,1.862,1.862,0,0,0,.038,1.8,2.865,2.865,0,0,0,.676.772c.058.048.109.085.162.128-.017.047-.035.1-.055.152-.046.128-.1.272-.145.445a2.468,2.468,0,0,0-.091.63,1.755,1.755,0,0,0,.171.762,1.664,1.664,0,0,0,.6.678l.053.034-.048-.03a1.186,1.186,0,0,1,.5.556,2.173,2.173,0,0,1,.125.838c0,.444-.067.98-.07,1.585a4.591,4.591,0,0,0,.034.578l0-.03,0,.032h0a4.12,4.12,0,0,0,.308,1.127,3.712,3.712,0,0,0,1.4,1.648,4.776,4.776,0,0,0,2.632.7,10.775,10.775,0,0,0,3.375-.64l.008,0a8.557,8.557,0,0,1,2.718-.5,5.19,5.19,0,0,1,2.787.768,6.8,6.8,0,0,1,1.654,1.475,14.275,14.275,0,0,1,1.987,3.387A37.976,37.976,0,0,1,78.5,68.7a8.373,8.373,0,0,1,.382,2.47,8.465,8.465,0,0,1-1.347,4.494,9.392,9.392,0,0,1-.93,1.245c-.126.142-.227.247-.3.314l-.073.069-.012.01,0,0,.479.532,1.167,1.313a10.768,10.768,0,0,0,1.76-2.172,10.658,10.658,0,0,0,1.236-9,27.2,27.2,0,0,0-3.3-7.543,9.911,9.911,0,0,0-2.878-2.813A7.66,7.66,0,0,0,70.6,56.492a10.986,10.986,0,0,0-3.509.626h0a8.3,8.3,0,0,1-2.594.512,2.8,2.8,0,0,1-1-.155,1.29,1.29,0,0,1-.649-.5,1.563,1.563,0,0,1-.235-.655,2.441,2.441,0,0,1-.014-.274c0-.373.069-.931.071-1.585a4.606,4.606,0,0,0-.317-1.79,3.565,3.565,0,0,0-.98-1.339l.047-.13c.047-.129.1-.275.146-.449a2.476,2.476,0,0,0,.089-.634,1.779,1.779,0,0,0-.147-.718,1.663,1.663,0,0,0-.535-.672l-.3-.22a2.684,2.684,0,0,0,.393-.763,3.42,3.42,0,0,0,.162-1.063,4.387,4.387,0,0,0-.365-1.728,3.66,3.66,0,0,0-.444-.761,2.584,2.584,0,0,0-.709-.646h0c-.146-.086-.3-.181-.453-.285a2.5,2.5,0,0,1-.552-.488.812.812,0,0,1-.114-.19.34.34,0,0,1-.025-.13.629.629,0,0,1,.067-.262,2.3,2.3,0,0,1,.382-.563A17.65,17.65,0,0,0,62,37.263a11.212,11.212,0,0,0,.942-4.718,25.628,25.628,0,0,0-.333-3.777,6.742,6.742,0,0,1-.075-1.032,10.111,10.111,0,0,1,.309-2.364,29.477,29.477,0,0,0,8.683,5.393l1.314-9.393S74.12,39.739,81.5,49.059a23.017,23.017,0,0,0,10.589,7.889,8.371,8.371,0,0,0-.1,1.33,19.072,19.072,0,0,0,2.508,8.664,17.442,17.442,0,0,0,4.312,5.164,17.17,17.17,0,0,0,2.538,1.773l.983-1.819.194-.355a15.253,15.253,0,0,1-2.2-1.552,14.964,14.964,0,0,1-3.644-4.369,16.675,16.675,0,0,1-2.222-7.506,6.611,6.611,0,0,1,.035-.686A15.955,15.955,0,0,0,101.767,57.465Z" transform="translate(0 0)" fill="#e61050"/>
    </g>
  </g>
</svg>
