<svg xmlns="http://www.w3.org/2000/svg" width="320" height="278" viewBox="0 0 320 278">
  <g id="グループ_887" data-name="グループ 887" transform="translate(-840 -7211)">
    <g id="グループ_952" data-name="グループ 952">
      <rect id="長方形_80" data-name="長方形 80" width="320" height="278" transform="translate(840 7211)" fill="#fff"/>
      <path id="パス_12461" data-name="パス 12461" d="M-74.592-10.152a10.027,10.027,0,0,1-2.352,2.376A10.919,10.919,0,0,1-76.2-6.732,14.753,14.753,0,0,0-73.332-9.66Zm.216,2.556a10.236,10.236,0,0,1-2.676,3.084,8.668,8.668,0,0,1,.744,1.332,10.624,10.624,0,0,0,.936-.888V1.068h1.332V-5.676a16.079,16.079,0,0,0,.912-1.452ZM-68.6-2.9h2.352V-4.212H-68.6v-1.86h2.676V-7.428h-1.44c.372-.612.8-1.452,1.2-2.256l-1.392-.48a13.621,13.621,0,0,1-1.116,2.388l.924.348H-70.62l.768-.372a13.018,13.018,0,0,0-1.272-2.28l-1.176.516a15.292,15.292,0,0,1,1.128,2.136h-1.644v1.356H-70V-1.08A3.465,3.465,0,0,1-71.2-2.7a19.37,19.37,0,0,0,.228-1.992l-1.428-.1C-72.492-2.7-72.84-.924-73.944.12a6.691,6.691,0,0,1,1.092.972A5.671,5.671,0,0,0-71.628-.984,4.216,4.216,0,0,0-67.692.864h1.68a4.66,4.66,0,0,1,.42-1.332c-.42,0-1.668.012-1.992,0A7.039,7.039,0,0,1-68.6-.54Zm11.76-4.14c-.132.324-.276.672-.42.96h-2.244l.2-.036a5.91,5.91,0,0,0-.408-.924Zm3.876,5.352V-2.868h-4.668V-3.4h3.6V-4.428h-3.6v-.54h4.164V-6.084h-2.352c.18-.288.372-.612.564-.96H-53V-8.208h-1.56c.276-.42.6-.96.936-1.512l-1.5-.36a9.667,9.667,0,0,1-.756,1.74l.432.132H-56.52v-1.956h-1.344v1.956h-.888v-1.956h-1.332v1.956h-1.092l.588-.216a9.08,9.08,0,0,0-.912-1.692l-1.224.42a10.756,10.756,0,0,1,.744,1.488h-1.608v1.164h2.508l-.144.024a5.393,5.393,0,0,1,.408.936H-63.1v1.116h4.056v.54H-62.5V-3.4h3.456v.528h-4.584v1.176h3.444a12.607,12.607,0,0,1-3.792,1.4A6.656,6.656,0,0,1-63.06.9a11.383,11.383,0,0,0,4.02-1.944V1.044h1.4v-2.16A10.243,10.243,0,0,0-53.6.912a6.712,6.712,0,0,1,.96-1.3,10.721,10.721,0,0,1-3.8-1.308Zm10.056-6.2H-47.76v-.78h4.848Zm1.524-1.9H-49.2v3h7.812Zm-6.936,7.26h5.88V-2h-5.88Zm0-1.428h5.88v.516h-5.88Zm0-1.416h5.88v.516h-5.88Zm7.356,4.344V-6.348H-49.74v5.316h1.86A14.658,14.658,0,0,1-50.952.024a12.552,12.552,0,0,1,1.08,1.02A15.989,15.989,0,0,0-46.152-.4l-.912-.636h3.252l-1,.708a31.94,31.94,0,0,1,3.852,1.392L-39.7.06c-.828-.324-2.052-.756-3.168-1.092ZM-30.9-8.424c-.1.252-.24.552-.348.78l.168.036h-2.664l.156-.036a7.311,7.311,0,0,0-.288-.78Zm3.708.816h-2.652c.144-.216.324-.468.5-.78l-.18-.036h1.692v-1.1H-31.7v-.636H-33.12v.636h-3.864v1.1h1.74l-.06.012a7.283,7.283,0,0,1,.3.8h-2.568v1.1h10.38ZM-36.924.8A4.579,4.579,0,0,0-35.268-1.56l-1.2-.42A3.968,3.968,0,0,1-38.04.048Zm1.968-4.6h5.184v.54h-5.184Zm0-1.344h5.184v.516h-5.184Zm2.028,4.908c-.54,0-.636-.036-.636-.36v-1.2A7.488,7.488,0,0,1-31.872-.756l.864-.888a7.63,7.63,0,0,0-1.248-.732h3.9V-6.012h-7.956v3.636h3l-.492.48.144.06h-1.3v1.26c0,1.14.372,1.488,1.884,1.488h1.932c1.116,0,1.5-.336,1.656-1.668A3.85,3.85,0,0,1-30.7-1.212c-.06.852-.132.984-.576.984Zm3.1-1.284A9.947,9.947,0,0,1-27.948.732l1.176-.684a8.812,8.812,0,0,0-1.956-2.172Zm8.256-8.28h-2.94v1.08h2.94Zm.3,1.608h-3.768v1.128h3.768Zm-.288,1.668h-3.012v1.092h3.012ZM-24.576-3.8h3.012V-4.872h-3.012Zm1.932,1.7V-.72h-.888V-2.1Zm1.116-1.116h-3.084V.876h1.08V.4h2Zm1.692,1.944v-.636h1.176v.636Zm1.176-2.2v.6h-1.176v-.6Zm3.54-1.02a10.511,10.511,0,0,1-.6,1.452c-.048-.576-.1-1.224-.12-1.956h1.932v-1.14h-1.956c-.024-.864-.024-1.8-.012-2.808a7.2,7.2,0,0,1,.936,2.124l1.14-.468a7.459,7.459,0,0,0-1.068-2.148l-1.008.384.012-1.1h-1.212c0,1.476.012,2.82.036,4.02h-.924c.12-.432.264-1.032.42-1.608l-1.08-.168h1.332V-8.976H-18.54v-1.176h-1.308v1.176H-21.12v1.068H-18.7c-.048.48-.156,1.176-.252,1.644l.624.132h-1.944l.8-.192a5.185,5.185,0,0,0-.348-1.548l-.948.2a6.749,6.749,0,0,1,.288,1.536h-.9v1.14H-17a26.543,26.543,0,0,0,.324,3.444,9.779,9.779,0,0,1-.828.888V-4.452h-3.4V.168h1.068V-.288h1.9a6.488,6.488,0,0,1-.78.54,4.578,4.578,0,0,1,.8.792A9.107,9.107,0,0,0-16.344-.24c.312.816.768,1.26,1.4,1.308.456.024.972-.4,1.272-2.1a4.1,4.1,0,0,1-.876-.8c-.048.852-.168,1.38-.324,1.368-.24-.024-.432-.324-.576-.84A10.681,10.681,0,0,0-14.064-3.9Zm6.672-5.3H-11.52v1.08h3.072Zm.324,1.608h-3.96v1.128h3.96Zm-.288,1.668h-3.18v1.092h3.18ZM-11.592-3.8h3.18V-4.872h-3.18Zm5.58-1.956v1.044h3.12V-5.76H-3.924v-.816h.948V-7.608h-.948v-.78H-5.04v.78h-.924v1.032h.924v.816ZM-4.02-3.072v1.128h-.912V-3.072ZM-2.988-.924V-4.1H-5.94V-.516h1.008V-.924Zm-6.588.2h-.948V-2.1h.948Zm8.364-9.012H-7.656v4.464A13.738,13.738,0,0,1-8.436.12V-3.216h-3.192V.876h1.1V.4h2.088a4.481,4.481,0,0,1,1,.708C-6.5-.624-6.36-3.36-6.36-5.268V-8.52h3.828V-.576c0,.18-.048.228-.216.228S-3.48-.336-3.972-.36a4.95,4.95,0,0,1,.4,1.392A3.824,3.824,0,0,0-1.728.768c.408-.228.516-.636.516-1.332ZM3.132-5.04A10.036,10.036,0,0,0,5.736-7.3v1.932h1.4V-7.248A9.971,9.971,0,0,0,9.816-5.04ZM4.44-.42v-.5H8.472v.5Zm0-1.992H8.472v.5H4.44ZM8.472-3.4H4.44v-.48H8.472Zm3.36-4.2V-8.832H7.14v-1.332h-1.4v1.332H1.14V-7.6H4.368A9.363,9.363,0,0,1,.8-5.436a5.973,5.973,0,0,1,.888,1.1,10.09,10.09,0,0,0,1.356-.66V-.42H1.068V.828H11.916V-.42H9.948V-4.968a8.562,8.562,0,0,0,1.26.588,5.41,5.41,0,0,1,.924-1.14A9.609,9.609,0,0,1,8.46-7.6Zm4.56,1.752a13.824,13.824,0,0,0,3-2.976,14.462,14.462,0,0,0,3.1,2.976Zm3.756,3.888h3.36V-3.2h-3.36v-1.38h2.808V-5.52a15.213,15.213,0,0,0,1.3.8A6.953,6.953,0,0,1,25.2-6a12.682,12.682,0,0,1-5.136-4.2H18.588a13.1,13.1,0,0,1-4.872,4.344,5.272,5.272,0,0,1,.9,1.152,15.354,15.354,0,0,0,1.332-.828v.948H18.66V-3.2H15.336v1.248H18.66V-.528H14.376V.756H24.588V-.528h-4.44Zm8.928-8.16a12.637,12.637,0,0,1-2.484,4.488,8.554,8.554,0,0,1,.792,1.488c.24-.288.492-.612.732-.936v6.1h1.356V-7.392a21.016,21.016,0,0,0,.96-2.316Zm5.508,7.872V-5.376A17.552,17.552,0,0,0,36.06-2.244Zm-2.856,0a15.593,15.593,0,0,0,1.464-3.048v3.048ZM37.9-6.672V-8.028H34.584V-10.1H33.192v2.076H30.156v1.356H32.52A12.271,12.271,0,0,1,29.532-1.8a5.816,5.816,0,0,1,1.02,1.08A8.885,8.885,0,0,0,31.62-2.076v1.1h1.572V.96h1.392V-.972h1.608V-2.028a11,11,0,0,0,.96,1.272,5.841,5.841,0,0,1,1.068-1.1,12.964,12.964,0,0,1-2.928-4.812ZM41.268.9c.624-1.164,1.248-2.544,1.788-3.828L41.928-3.78A40.65,40.65,0,0,1,40.008.06Zm1.356-6.66a7.79,7.79,0,0,0-2.172-1.056L39.7-5.736A9.078,9.078,0,0,1,41.832-4.56ZM40.272-9.036a8.434,8.434,0,0,1,2.016,1.368L43.176-8.8a9.175,9.175,0,0,0-2.064-1.272Zm5.772,1.092h1.608v.888H46.044Zm4.884,2.136V-7.056h-1.9v-.888h1.56V-9.18h-1.56v-.972h-1.38v.972H46.044v-.972H44.712v.972H43.176v1.236h1.536v.888H42.8v1.248H46.14v.72H43.164v6.12h1.26V-3.852h1.884v1.908h-.54V-3.36h-.852V-.216h.852v-.7H47.94v.4h.828V-3.36H47.94v1.416h-.588V-3.852h1.98V-.336c0,.132-.048.18-.2.192s-.672,0-1.116-.024a3.9,3.9,0,0,1,.324,1.188,4.551,4.551,0,0,0,1.8-.2c.408-.192.528-.516.528-1.14V-5.088H47.508v-.72Zm4.728-2.484h5.5v1.644h-5.5Zm3.492,5.8H63.06v-1.32H59.148V-5.292h3.528V-9.66H54.228v4.368h3.444v4.248a3.634,3.634,0,0,1-1.728-1.932c.12-.48.216-.96.288-1.428l-1.488-.168c-.168,1.632-.7,3.588-1.992,4.608a5.955,5.955,0,0,1,1.008.972A6.038,6.038,0,0,0,55.4-1.344C56.652.492,58.512.924,60.924.924h2.544a5.239,5.239,0,0,1,.492-1.38c-.66.012-2.436.024-2.952.012a11.5,11.5,0,0,1-1.86-.132ZM68-7.812h8.652V-9.084H72.4v-1.068H70.908v1.068H66.636v3.36c0,1.752-.072,4.248-1.068,5.952a5.2,5.2,0,0,1,1.164.78C67.824-.84,68-3.78,68-5.724Zm5.448,2.136v.792H71.268v-.792ZM74.868-3.8V-5.676H76.6V-6.8H74.868V-7.6H73.452V-6.8H71.268V-7.6H69.924V-6.8H68.3v1.128h1.62V-3.8Zm-.972,1.6a5.451,5.451,0,0,1-1.44.984,4.8,4.8,0,0,1-1.4-.984Zm1.212-1.176-.252.06H68.388v1.116h1.788l-.564.2a6.06,6.06,0,0,0,1.38,1.332,16.281,16.281,0,0,1-3.108.54,4.812,4.812,0,0,1,.576,1.2A16.264,16.264,0,0,0,72.408.132a12.672,12.672,0,0,0,3.648.948A5.684,5.684,0,0,1,76.9-.144,15.861,15.861,0,0,1,73.944-.66,5.885,5.885,0,0,0,76-2.94Z" transform="translate(1000 7244.646)"/>
      <g id="グループ_78" data-name="グループ 78" transform="translate(359 1219)">
        <path id="パス_12299" data-name="パス 12299" d="M-68.75-78.027l8.35,6.25L-78.418-47.266q1.465-.2,2.49-.293t1.611-.1a21.179,21.179,0,0,1,15.869,7.031,23.276,23.276,0,0,1,6.641,16.7A24.248,24.248,0,0,1-59.229-6.152,24.167,24.167,0,0,1-76.953,1.221,25.374,25.374,0,0,1-94.922-6.055a23.118,23.118,0,0,1-7.568-17.236q0-8.936,7.373-18.945Zm5.859,54.834a13.813,13.813,0,0,0-4.15-10.156,13.779,13.779,0,0,0-10.107-4.2A13.756,13.756,0,0,0-87.256-33.4a13.7,13.7,0,0,0-4.15,10.059,13.7,13.7,0,0,0,4.15,10.059A13.813,13.813,0,0,0-77.1-9.131a13.641,13.641,0,0,0,10.01-4.15A13.556,13.556,0,0,0-62.891-23.193ZM-7.031-78.027l8.35,6.25L-16.7-47.266q1.465-.2,2.49-.293t1.611-.1A21.179,21.179,0,0,1,3.271-40.625a23.276,23.276,0,0,1,6.641,16.7A24.248,24.248,0,0,1,2.49-6.152,24.167,24.167,0,0,1-15.234,1.221,25.374,25.374,0,0,1-33.2-6.055a23.118,23.118,0,0,1-7.568-17.236q0-8.936,7.373-18.945Zm5.859,54.834A13.813,13.813,0,0,0-5.322-33.35a13.779,13.779,0,0,0-10.107-4.2A13.756,13.756,0,0,0-25.537-33.4a13.7,13.7,0,0,0-4.15,10.059,13.7,13.7,0,0,0,4.15,10.059,13.813,13.813,0,0,0,10.156,4.15,13.641,13.641,0,0,0,10.01-4.15A13.556,13.556,0,0,0-1.172-23.193ZM24.072-5.469a6.475,6.475,0,0,1,2-4.736,6.53,6.53,0,0,1,4.785-2,6.53,6.53,0,0,1,4.785,2,6.53,6.53,0,0,1,2,4.785,6.587,6.587,0,0,1-2,4.834,6.507,6.507,0,0,1-4.785,1.953A6.566,6.566,0,0,1,26.025-.586,6.625,6.625,0,0,1,24.072-5.469Zm47.266-5.225H99.414V0H48.779L74.951-31.689q3.857-4.736,6.47-8.2A62.356,62.356,0,0,0,85.4-45.7a16.332,16.332,0,0,0,2.783-8.252,11.761,11.761,0,0,0-3.711-8.838,12.738,12.738,0,0,0-9.18-3.564q-11.426,0-13.086,13.525H50.879Q53.613-76.66,74.951-76.66a24.315,24.315,0,0,1,17.285,6.543,21.252,21.252,0,0,1,7.031,16.211A24.627,24.627,0,0,1,96-41.846a59.085,59.085,0,0,1-4.858,7.3q-3.2,4.224-8.081,9.985Z" transform="translate(596 6199)" fill="#a21b43"/>
        <path id="パス_12300" data-name="パス 12300" d="M16.953-25.9H2.07v-4.258h22.48L5.527,1.035,1.914-1.25Zm28.77,0h-9.3l-1.484,5q.332-.039.635-.059t.557-.02a9.489,9.489,0,0,1,7.207,2.969,10.465,10.465,0,0,1,2.832,7.559,10.433,10.433,0,0,1-3.2,7.852A11.159,11.159,0,0,1,34.9.488q-6,0-9.453-5.625l3.438-2.91a10.653,10.653,0,0,0,2.871,3.418,6.168,6.168,0,0,0,3.535.977,6.137,6.137,0,0,0,4.59-1.914,6.73,6.73,0,0,0,1.855-4.785A6.4,6.4,0,0,0,39.9-15.078a6.128,6.128,0,0,0-4.59-1.895A6.694,6.694,0,0,0,30.02-14.3h-1.5l4.746-15.859H45.723ZM52.832-2.187a2.59,2.59,0,0,1,.8-1.895,2.612,2.612,0,0,1,1.914-.8,2.612,2.612,0,0,1,1.914.8,2.612,2.612,0,0,1,.8,1.914,2.635,2.635,0,0,1-.8,1.934,2.6,2.6,0,0,1-1.914.781,2.626,2.626,0,0,1-1.934-.781A2.65,2.65,0,0,1,52.832-2.187ZM63.418-15.273q0-7.207,3.359-11.5a8.955,8.955,0,0,1,7.285-3.887,8.955,8.955,0,0,1,7.285,3.887q3.359,4.3,3.359,11.7,0,7.383-3.359,11.68A8.939,8.939,0,0,1,74.082.488a9.042,9.042,0,0,1-7.3-3.887Q63.418-7.7,63.418-15.273Zm4.473.02a17.869,17.869,0,0,0,1.738,8.34q1.738,3.262,4.434,3.262,2.676,0,4.434-3.262A17.04,17.04,0,0,0,80.254-15.1,17.158,17.158,0,0,0,78.5-23.3q-1.758-3.242-4.434-3.242-2.656,0-4.414,3.242A16.648,16.648,0,0,0,67.891-15.254Z" transform="translate(672 6085)" fill="#a21b43"/>
        <path id="パス_12302" data-name="パス 12302" d="M-15.135-21.111a5.956,5.956,0,0,1,1.951-4.43A6.474,6.474,0,0,1-8.6-27.422a6.347,6.347,0,0,1,4.605,1.9,6.058,6.058,0,0,1,1.934,4.5A6.078,6.078,0,0,1-3.99-16.506a6.44,6.44,0,0,1-4.658,1.881,6.259,6.259,0,0,1-4.588-1.916A6.268,6.268,0,0,1-15.135-21.111Zm3.059.053a3.4,3.4,0,0,0,1.02,2.5,3.374,3.374,0,0,0,2.479,1.02,3.333,3.333,0,0,0,2.443-1.02,3.353,3.353,0,0,0,1.02-2.461,3.333,3.333,0,0,0-1.02-2.443A3.353,3.353,0,0,0-8.6-24.486a3.353,3.353,0,0,0-2.461,1.02A3.293,3.293,0,0,0-12.076-21.059Zm18.9-6.557,1.916,1.09L-6.8.439-8.736-.721ZM2.039-6.24A5.937,5.937,0,0,1,3.99-10.652a6.474,6.474,0,0,1,4.588-1.881,6.367,6.367,0,0,1,4.623,1.9,6.058,6.058,0,0,1,1.934,4.5,6.015,6.015,0,0,1-1.951,4.518A6.433,6.433,0,0,1,8.525.246a6.288,6.288,0,0,1-4.588-1.9A6.251,6.251,0,0,1,2.039-6.24Zm3.076.07a3.425,3.425,0,0,0,1,2.5A3.374,3.374,0,0,0,8.6-2.654a3.3,3.3,0,0,0,2.443-1.02,3.353,3.353,0,0,0,1.02-2.461A3.353,3.353,0,0,0,11.039-8.6a3.316,3.316,0,0,0-2.461-1.02A3.333,3.333,0,0,0,6.135-8.6,3.313,3.313,0,0,0,5.115-6.17Z" transform="translate(754 6182)" fill="#a21b43"/>
        <path id="パス_12301" data-name="パス 12301" d="M-6.727-9.383a2.647,2.647,0,0,1,.867-1.969,2.877,2.877,0,0,1,2.039-.836,2.821,2.821,0,0,1,2.047.844,2.692,2.692,0,0,1,.859,2,2.7,2.7,0,0,1-.859,2.008,2.862,2.862,0,0,1-2.07.836,2.782,2.782,0,0,1-2.039-.852A2.786,2.786,0,0,1-6.727-9.383Zm1.359.023A1.509,1.509,0,0,0-4.914-8.25a1.5,1.5,0,0,0,1.1.453A1.481,1.481,0,0,0-2.727-8.25a1.49,1.49,0,0,0,.453-1.094,1.481,1.481,0,0,0-.453-1.086,1.49,1.49,0,0,0-1.094-.453,1.49,1.49,0,0,0-1.094.453A1.464,1.464,0,0,0-5.367-9.359Zm8.4-2.914.852.484L-3.023.2-3.883-.32ZM.906-2.773a2.639,2.639,0,0,1,.867-1.961A2.877,2.877,0,0,1,3.813-5.57a2.83,2.83,0,0,1,2.055.844,2.692,2.692,0,0,1,.859,2A2.673,2.673,0,0,1,5.859-.719a2.859,2.859,0,0,1-2.07.828A2.8,2.8,0,0,1,1.75-.734,2.778,2.778,0,0,1,.906-2.773Zm1.367.031a1.522,1.522,0,0,0,.445,1.109,1.5,1.5,0,0,0,1.1.453,1.465,1.465,0,0,0,1.086-.453,1.49,1.49,0,0,0,.453-1.094A1.49,1.49,0,0,0,4.906-3.82a1.474,1.474,0,0,0-1.094-.453,1.481,1.481,0,0,0-1.086.453A1.472,1.472,0,0,0,2.273-2.742Z" transform="translate(769 6084)" fill="#a21b43"/>
        <text id="_2019年度" data-name="2019年度" transform="translate(741 6198.646)" fill="#a21b43" font-size="12" font-family="NotoSansCJKjp-Medium, Noto Sans CJK JP" font-weight="500" letter-spacing="0.1em"><tspan x="-28.68" y="0">2019年度</tspan></text>
        <path id="パス_12462" data-name="パス 12462" d="M.528,0h5.7V-1.176H4.02c-.432,0-.984.036-1.44.084C4.452-2.88,5.808-4.644,5.808-6.348A2.5,2.5,0,0,0,3.144-9,3.466,3.466,0,0,0,.456-7.68l.78.768A2.4,2.4,0,0,1,2.976-7.9a1.44,1.44,0,0,1,1.5,1.62C4.476-4.824,3.132-3.108.528-.8ZM11.46.156c1.728,0,2.856-1.536,2.856-4.608C14.316-7.5,13.188-9,11.46-9S8.6-7.512,8.6-4.452,9.72.156,11.46.156Zm0-1.092c-.9,0-1.536-.96-1.536-3.516,0-2.532.636-3.456,1.536-3.456S13-6.984,13-4.452C13-1.9,12.36-.936,11.46-.936ZM16.608,0h5.7V-1.176H20.1c-.432,0-.984.036-1.44.084,1.872-1.788,3.228-3.552,3.228-5.256A2.5,2.5,0,0,0,19.224-9a3.466,3.466,0,0,0-2.688,1.32l.78.768a2.4,2.4,0,0,1,1.74-.984,1.44,1.44,0,0,1,1.5,1.62c0,1.452-1.344,3.168-3.948,5.472ZM27.336.156c1.62,0,2.952-.936,2.952-2.532a2.236,2.236,0,0,0-1.824-2.208v-.06A2.135,2.135,0,0,0,29.988-6.72c0-1.464-1.116-2.28-2.7-2.28a3.722,3.722,0,0,0-2.532,1.068l.72.864a2.586,2.586,0,0,1,1.764-.84A1.236,1.236,0,0,1,28.6-6.624c0,.888-.576,1.548-2.316,1.548v1.02c1.992,0,2.616.636,2.616,1.62a1.483,1.483,0,0,1-1.68,1.464,2.854,2.854,0,0,1-2.088-.972l-.672.888A3.666,3.666,0,0,0,27.336.156Zm-23.7,15.06V13.092H6.048v2.124Zm7.776,0H7.2V13.092h3.348V12.048H7.2V10.392h3.624V9.312H3.876c.156-.36.324-.756.468-1.128l-1.128-.3A9.709,9.709,0,0,1,.6,11.952a8.874,8.874,0,0,1,.972.72A10.917,10.917,0,0,0,3.3,10.392H6.048v1.656H2.52v3.168H.588V16.3h5.46v2.652H7.2V16.3h4.212Zm4.308-5.16H24.5v-1H20.136V7.932H18.972V9.06h-4.32v3.384c0,1.74-.084,4.176-1.056,5.88a5.051,5.051,0,0,1,.912.612c1.044-1.824,1.212-4.608,1.212-6.492Zm5.772,2.112v1.056H18.9V12.168Zm1.092,1.92v-1.92H24.42v-.912H22.584v-.912H21.492v.912H18.9v-.912H17.844v.912H16.068v.912h1.776v1.92Zm-.5,1.524a5.531,5.531,0,0,1-1.776,1.3,5.162,5.162,0,0,1-1.74-1.3Zm.936-.936-.2.036H16.2v.9h1.836l-.54.2a6.388,6.388,0,0,0,1.656,1.548,16.731,16.731,0,0,1-3.432.66,3.421,3.421,0,0,1,.468.936,15.753,15.753,0,0,0,4.08-.984,13.58,13.58,0,0,0,3.8,1,3.974,3.974,0,0,1,.648-.96,15.778,15.778,0,0,1-3.252-.636A5.788,5.788,0,0,0,23.7,15.048Z" transform="translate(637 6065.646)" fill="#a21b43"/>
        <line id="線_22" data-name="線 22" x2="139" transform="translate(637.5 6101.5)" fill="none" stroke="#a21b43" stroke-width="1"/>
      </g>
      <g id="グループ_93" data-name="グループ 93" transform="translate(885 7237.829)">
        <path id="パス_123" data-name="パス 123" d="M47.324,32.174c-9.7.187-14.442,7.049-15.5,13.288-1.053-6.239-5.8-13.1-15.5-13.288C7.393,32,0,38.879,0,51.43,0,67.542,18.225,74.985,30.687,87.02c.434.419.332.408.332.408a1.044,1.044,0,0,0,.809.4h0a1.044,1.044,0,0,0,.809-.4s-.1.011.332-.408C45.433,74.985,63.658,67.542,63.658,51.43,63.658,38.879,56.265,32,47.324,32.174Z" transform="translate(0 0)" fill="#a21b43"/>
      </g>
      <path id="パス_12460" data-name="パス 12460" d="M6.9,6.02a.9.9,0,1,0-.9.9A.907.907,0,0,0,6.9,6.02ZM2.04,5.132l-.348.348,3.96,3.96L1.68,13.412l.348.348L6,9.788l3.96,3.96.348-.348L6.348,9.44l3.96-3.96L9.96,5.132,6,9.092ZM2.58,8.54a.9.9,0,1,0,.9.9A.907.907,0,0,0,2.58,8.54Zm6.84,1.8a.9.9,0,1,0-.9-.9A.907.907,0,0,0,9.42,10.34ZM5.1,12.86a.9.9,0,1,0,.9-.9A.907.907,0,0,0,5.1,12.86ZM14.16,14h2.256c2.652,0,4.1-1.644,4.1-4.428S19.068,5.2,16.368,5.2H14.16Zm1.116-.912V6.1h1c2.076,0,3.1,1.236,3.1,3.468s-1.02,3.516-3.1,3.516Zm7.44-2.028h3.072v-.84H22.716Zm9.1,3.1a3.4,3.4,0,0,0,2.7-1.26l-.612-.7a2.674,2.674,0,0,1-2.04.984c-1.68,0-2.736-1.392-2.736-3.612,0-2.2,1.1-3.564,2.772-3.564a2.4,2.4,0,0,1,1.8.84l.6-.72a3.252,3.252,0,0,0-2.412-1.092c-2.232,0-3.9,1.728-3.9,4.572S29.628,14.156,31.812,14.156Zm8.16,0c2.208,0,3.756-1.764,3.756-4.584S42.18,5.036,39.972,5.036s-3.756,1.716-3.756,4.536S37.764,14.156,39.972,14.156Zm0-.972c-1.584,0-2.616-1.416-2.616-3.612s1.032-3.564,2.616-3.564,2.616,1.356,2.616,3.564S41.544,13.184,39.972,13.184ZM46.584,14h1.008V9.128c0-.756-.084-1.824-.132-2.592h.048l.7,2,1.668,4.572h.744L52.284,8.54l.7-2h.048c-.06.768-.144,1.836-.144,2.592V14h1.044V5.2H52.584l-1.68,4.7c-.2.612-.4,1.224-.6,1.836h-.06c-.216-.612-.42-1.224-.624-1.836L47.928,5.2H46.584Zm10.7,0H58.4V10.508h1.452c1.92,0,3.24-.864,3.24-2.724,0-1.92-1.32-2.58-3.3-2.58H57.288ZM58.4,9.608V6.1h1.26c1.548,0,2.328.408,2.328,1.68s-.732,1.824-2.28,1.824Zm7.848.816.432-1.344c.312-1,.6-1.944.876-2.976h.048c.288,1.02.564,1.98.888,2.976l.42,1.344ZM70.032,14h1.176L68.22,5.2H66.984L64,14h1.128l.852-2.688h3.216Zm5.82.156c1.836,0,2.988-1.1,2.988-2.5a2.45,2.45,0,0,0-1.812-2.352l-1.26-.54c-.684-.288-1.452-.612-1.452-1.464,0-.792.648-1.3,1.644-1.3a2.85,2.85,0,0,1,2,.828l.588-.708A3.607,3.607,0,0,0,75.96,5.036a2.5,2.5,0,0,0-2.772,2.34,2.485,2.485,0,0,0,1.788,2.256l1.272.552c.828.372,1.464.66,1.464,1.56,0,.864-.7,1.44-1.848,1.44a3.456,3.456,0,0,1-2.436-1.092l-.66.756A4.2,4.2,0,0,0,75.852,14.156Zm7.944,0c1.836,0,2.988-1.1,2.988-2.5a2.45,2.45,0,0,0-1.812-2.352l-1.26-.54C83.028,8.48,82.26,8.156,82.26,7.3c0-.792.648-1.3,1.644-1.3a2.85,2.85,0,0,1,2,.828l.588-.708A3.607,3.607,0,0,0,83.9,5.036a2.5,2.5,0,0,0-2.772,2.34A2.485,2.485,0,0,0,82.92,9.632l1.272.552c.828.372,1.464.66,1.464,1.56,0,.864-.7,1.44-1.848,1.44a3.456,3.456,0,0,1-2.436-1.092l-.66.756A4.2,4.2,0,0,0,83.8,14.156ZM89.94,9.32a.841.841,0,1,0-.792-.828A.8.8,0,0,0,89.94,9.32Zm0,4.836a.793.793,0,0,0,.792-.828.794.794,0,1,0-1.584,0A.793.793,0,0,0,89.94,14.156ZM98.028,3.944A14.313,14.313,0,0,1,93.06,8.516a3.658,3.658,0,0,1,.552.708,16.014,16.014,0,0,0,4.908-4.4,17.809,17.809,0,0,0,5.016,4.344,3.981,3.981,0,0,1,.588-.792,15.243,15.243,0,0,1-5.208-4.428Zm.96,7.872h3.636v-.792H98.988V9.152h3.18v-.8H95.04v.8h3.036v1.872H94.5v.792h3.576v1.956H93.528v.816h10.14v-.816h-4.68Zm9.492-7.848a9.593,9.593,0,0,1-2.52,2.5,5.214,5.214,0,0,1,.5.648A12.736,12.736,0,0,0,109.3,4.268Zm.288,2.424a11.191,11.191,0,0,1-2.94,3.312,6.65,6.65,0,0,1,.5.792,12.194,12.194,0,0,0,1.356-1.284v5.736h.828V8.24a13.717,13.717,0,0,0,1.044-1.572Zm5.04,4.344h2.676V9.908h-2.676V7.556h3V6.692h-1.824A25.309,25.309,0,0,0,116.2,4.268l-.852-.312a15.506,15.506,0,0,1-1.152,2.472l.672.264h-2.832l.6-.288a14.761,14.761,0,0,0-1.26-2.352l-.732.288a18.046,18.046,0,0,1,1.188,2.352h-1.86v.864h2.988v5.988a3.317,3.317,0,0,1-1.812-2.268,21.384,21.384,0,0,0,.264-2.124l-.888-.072c-.144,2.292-.54,4.128-1.716,5.268a4.858,4.858,0,0,1,.684.612,6.082,6.082,0,0,0,1.356-2.448c.828,1.74,2.136,2.184,3.948,2.184h2.016a2.33,2.33,0,0,1,.288-.84c-.372,0-1.98.012-2.244,0a7.134,7.134,0,0,1-1.044-.072Zm12.468-3.888a10.971,10.971,0,0,1-.612,1.248l.12.036h-2.82l.384-.084a4.663,4.663,0,0,0-.6-1.2Zm3.444,5.22v-.756h-4.812v-.888h3.756V9.74h-3.756V8.864h4.344V8.132h-2.724c.24-.36.5-.828.744-1.284h2.4V6.08h-1.86a16.78,16.78,0,0,0,1.056-1.728l-.912-.24a13.614,13.614,0,0,1-.912,1.824l.444.144h-1.452V3.956h-.84V6.08h-1.428V3.956h-.828V6.08h-1.476l.612-.228a8.271,8.271,0,0,0-1.02-1.764l-.756.252a9.354,9.354,0,0,1,.948,1.74H119.34v.768h2.928l-.42.084a5.039,5.039,0,0,1,.588,1.2H119.82v.732h4.212V9.74H120.42v.684h3.612v.888h-4.74v.756h3.924a11.565,11.565,0,0,1-4.236,1.9,3.822,3.822,0,0,1,.576.756,12.059,12.059,0,0,0,4.476-2.364v2.556h.876V12.3a11.328,11.328,0,0,0,4.512,2.46,3.208,3.208,0,0,1,.6-.792,10.979,10.979,0,0,1-4.284-1.9Zm10.6-5.676H134.64V5.144h5.676Zm.924-1.968h-7.488V7.112h7.488Zm-7.1,6.984h6.66v.864h-6.66Zm0-1.476h6.66v.84h-6.66Zm0-1.476h6.66V9.3h-6.66Zm7.572,4.476V7.8h-8.46v5.136h2.232a13.147,13.147,0,0,1-3.528,1.332,6.845,6.845,0,0,1,.66.66,15.232,15.232,0,0,0,3.732-1.476l-.792-.516Zm-3.288.6a31.5,31.5,0,0,1,3.768,1.4l.768-.648c-.936-.384-2.532-.972-3.768-1.332Zm13.092-1.152c-.012-.576-.024-1.584-.036-2.268.9-.42,1.752-.768,2.424-1.032.312-.12.744-.288,1.044-.372l-.384-.9c-.336.168-.624.312-.984.468-.624.288-1.344.576-2.16.96a1.494,1.494,0,0,0-1.572-1.08A3.371,3.371,0,0,0,148.2,8.6a8.528,8.528,0,0,0,1.068-1.824A36.713,36.713,0,0,0,153.2,6.44l.012-.888a31.889,31.889,0,0,1-3.636.36c.168-.54.276-1.032.36-1.368l-.984-.084a6.44,6.44,0,0,1-.3,1.476c-.276.012-.528.012-.78.012-.54,0-1.368-.048-2-.12v.9c.648.048,1.452.072,1.956.072h.492a12.574,12.574,0,0,1-2.736,3.624l.816.612c.408-.48.744-.924,1.08-1.248a3.163,3.163,0,0,1,2.052-.876,1,1,0,0,1,1.068.732c-1.38.72-2.8,1.608-2.8,3.012,0,1.452,1.368,1.812,3.072,1.812a30.6,30.6,0,0,0,3.252-.192l.024-.972a20.921,20.921,0,0,1-3.24.288c-1.224,0-2.148-.132-2.148-1.068,0-.78.768-1.392,1.872-1.992,0,.624-.012,1.392-.048,1.848ZM163.62,5.936h-2.412V3.98h-.852V5.936h-2.28v.828h5.544Zm-1.908,1.1a15.551,15.551,0,0,1-.756,3.072c-.6-.744-1.26-1.5-1.884-2.148l-.624.5a30.369,30.369,0,0,1,2.124,2.556,7.137,7.137,0,0,1-2.784,3.108,4.081,4.081,0,0,1,.624.684,8.194,8.194,0,0,0,2.712-3.012,14.172,14.172,0,0,1,1.044,1.752l.72-.612a14.538,14.538,0,0,0-1.332-2.052,17,17,0,0,0,1.02-3.732Zm7.116-.2H167.4V3.956h-.876v2.88h-3.276v.852h3.276V13.7c0,.216-.084.276-.288.288s-.864.012-1.62-.012a3.7,3.7,0,0,1,.288.924,6.3,6.3,0,0,0,1.992-.168c.36-.168.5-.432.5-1.032V7.688h1.428Zm-3.384,4.74a9.347,9.347,0,0,0-1.32-2.64l-.732.336a10.5,10.5,0,0,1,1.3,2.688Zm7.668-4.524h2.748V8.42h-2.748Zm3.768-1.6a5.631,5.631,0,0,1-.7.9H173.22a11.391,11.391,0,0,0,.948-.9Zm2.748,2.964h-2.9V7.052h2.9Zm1.068.828a19.142,19.142,0,0,1-2.52,1.68,8.172,8.172,0,0,1-.84-1.824H180.5V6.356h-3.276a8.6,8.6,0,0,0,.9-1.248l-.6-.384-.144.048h-2.628c.18-.216.348-.444.5-.66l-.924-.192a10.022,10.022,0,0,1-3.36,3.024,2.376,2.376,0,0,1,.6.6c.24-.144.48-.3.708-.456V9.1h2.964a18.373,18.373,0,0,1-4.08,1.26,5.722,5.722,0,0,1,.48.66,22.085,22.085,0,0,0,2.88-.912,7.582,7.582,0,0,1,.648.48,12.836,12.836,0,0,1-3.948,1.488,5,5,0,0,1,.492.636,13.9,13.9,0,0,0,3.924-1.68,3.9,3.9,0,0,1,.456.588A13.946,13.946,0,0,1,171.012,14a4.468,4.468,0,0,1,.528.672,15.444,15.444,0,0,0,4.9-2.424,1.446,1.446,0,0,1-.252,1.728,1.229,1.229,0,0,1-.768.192,9.183,9.183,0,0,1-1.08-.048,2.025,2.025,0,0,1,.252.8c.348.012.708.024.972.024a2.049,2.049,0,0,0,1.188-.336c1.152-.756,1-3.18-1.44-4.824a9.972,9.972,0,0,0,1.236-.66,7.857,7.857,0,0,0,4.68,5.424,2.835,2.835,0,0,1,.564-.744,6.482,6.482,0,0,1-3.228-2.316A23.036,23.036,0,0,0,181.4,9.764Zm11.568-3.264a4.769,4.769,0,0,1-.852.564c-.648.372-1.932,1-3.048,1.668a27.3,27.3,0,0,1-1.6-3.516l-.948.384a39.385,39.385,0,0,0,1.728,3.66c-1.272.888-2.052,1.86-2.052,3.084,0,1.776,1.62,2.448,3.852,2.448a23.322,23.322,0,0,0,3.756-.288v-1.08a17.5,17.5,0,0,1-3.8.408c-1.872,0-2.808-.612-2.808-1.6,0-.9.66-1.68,1.764-2.4a40.031,40.031,0,0,1,3.612-1.956c.348-.18.648-.336.912-.5Zm6.876-1.308a6.107,6.107,0,0,1,.108,1.2c0,1.26-.12,4.26-.12,6.024,0,1.932,1.176,2.652,2.88,2.652a5.921,5.921,0,0,0,4.956-2.616l-.66-.828a4.965,4.965,0,0,1-4.272,2.46c-1.1,0-1.944-.456-1.944-1.764,0-1.776.1-4.584.144-5.928.024-.384.06-.8.12-1.188Zm20.952,1.3V5.156h-7.068c.2-.348.372-.7.528-1.032l-.96-.168a9.051,9.051,0,0,1-2.568,3.564,3.207,3.207,0,0,1,.732.54,10.659,10.659,0,0,0,1.776-2.088Zm-4.752,6.54c.1-.576.18-1.272.264-1.992h2.472c-.06.828-.132,1.476-.2,1.992Zm-.552-1.992c-.084.72-.18,1.416-.276,1.992h-2.376c.108-.624.216-1.3.324-1.992Zm.276-2.676c-.048.588-.12,1.224-.192,1.872H212.58c.108-.636.2-1.272.288-1.872Zm.636,1.872c.072-.636.144-1.284.2-1.872h2.34c-.036.7-.072,1.308-.108,1.872Zm4.98.8v-.8H219c.048-.648.1-1.392.132-2.22,0-.12.012-.432.012-.432h-7.056c-.1.8-.216,1.716-.36,2.652H209.76v.8H211.6c-.216,1.3-.444,2.556-.648,3.468l.9.06c.048-.228.1-.48.144-.744h5.736a1.727,1.727,0,0,1-.324.78.55.55,0,0,1-.48.18c-.264,0-.852-.012-1.536-.072a1.792,1.792,0,0,1,.216.7,13.916,13.916,0,0,0,1.668.036,1.16,1.16,0,0,0,.912-.444,2.782,2.782,0,0,0,.444-1.176h1.728v-.792h-1.608c.072-.528.144-1.188.2-1.992Zm4.956.792V8.936h2.688v2.376Zm7.932,0h-4.344V8.936h3.516V8.1h-3.516V6.272h3.792V5.408h-7.152c.192-.408.384-.84.552-1.26l-.9-.216a10.155,10.155,0,0,1-2.7,4.14,5.522,5.522,0,0,1,.768.564,11.088,11.088,0,0,0,1.824-2.364h2.916V8.1h-3.576v3.216H222.78v.864h5.544v2.748h.9V12.176h4.344Zm12.84.492v-.792H241.32a5.285,5.285,0,0,0,.192-1.128h3.564V9.14h-3.54V8.072h3.708V7.436h.9v-2.3H241.56V3.968h-.888V5.132H236.1v2.3h.864v-1.5h8.28v1.38h-3.708v-1h-.888v1h-3.54v.756h3.54V9.14H237.3v.744h3.324a3.775,3.775,0,0,1-.228,1.128H235.92V11.8h4.068c-.624.9-1.848,1.74-4.188,2.388a3.522,3.522,0,0,1,.54.72c2.736-.816,4.044-1.92,4.668-3.108h.108A6.323,6.323,0,0,0,246,14.936a3.413,3.413,0,0,1,.54-.768,6.125,6.125,0,0,1-4.476-2.364Zm4.356-3.42c.024-.54.036-1.092.048-1.644h2.88V5.912H251.6V3.98h-.84V5.912h-2.112V6.74h1.308c-.048,2.952-.192,5.928-1.44,7.584a2.471,2.471,0,0,1,.672.588c1.008-1.356,1.38-3.432,1.524-5.712h1.44c-.072,3.336-.144,4.5-.348,4.776a.366.366,0,0,1-.372.168c-.168,0-.612,0-1.1-.048a1.93,1.93,0,0,1,.228.792,8.871,8.871,0,0,0,1.272,0,.849.849,0,0,0,.7-.384c.3-.4.372-1.74.456-5.712.012-.12.012-.408.012-.408ZM259.5,6.452V5.636h-4.284a14.515,14.515,0,0,0,.444-1.5l-.864-.18a8.746,8.746,0,0,1-1.764,3.8,6.939,6.939,0,0,1,.684.624,8.337,8.337,0,0,0,1.164-1.932ZM255.852,14.1c-.66,0-.768-.1-.768-.552V10.208l1.128-.54V12.9h.768V9.308l1.284-.612c0,1.428-.024,2.484-.06,2.664-.036.2-.108.228-.252.228a5.9,5.9,0,0,1-.624-.012,2.306,2.306,0,0,1,.192.7,3.224,3.224,0,0,0,.9-.072.652.652,0,0,0,.54-.648c.048-.336.072-1.848.072-3.552l.036-.144-.564-.2-.144.108-.06.06-1.32.612V6.9h-.768v1.9l-1.128.528V7.832h-.8V9.7l-1.056.492.336.732.72-.336v2.94c0,1.056.324,1.32,1.512,1.32h2.436c1.008,0,1.272-.4,1.38-1.812a2.485,2.485,0,0,1-.756-.324c-.048,1.152-.144,1.38-.672,1.38Zm8.088-9.42a6.108,6.108,0,0,1,.108,1.2c0,1.26-.12,4.26-.12,6.024,0,1.932,1.176,2.652,2.88,2.652a5.921,5.921,0,0,0,4.956-2.616l-.66-.828a4.965,4.965,0,0,1-4.272,2.46c-1.1,0-1.944-.456-1.944-1.764,0-1.776.1-4.584.144-5.928.024-.384.06-.8.12-1.188Zm10.776,1.356.108,1.056c1.284-.264,4.524-.576,5.568-.7a4.787,4.787,0,0,0-2.208,4.008c0,2.652,2.508,3.828,4.7,3.912l.348-1c-1.932-.072-4.092-.8-4.092-3.132a4.14,4.14,0,0,1,2.712-3.744,9.9,9.9,0,0,1,2.328-.192v-.96c-.792.036-1.908.1-3.2.2-2.184.18-4.428.408-5.208.48C275.544,6,275.172,6.02,274.716,6.032Zm-272,19.616L1.56,25.624a6.335,6.335,0,0,1,.072,1.056,31.457,31.457,0,0,0,.132,3.168c.324,3.084,1.4,4.2,2.52,4.2.816,0,1.548-.684,2.256-2.7l-.756-.864c-.312,1.2-.864,2.424-1.476,2.424-.84,0-1.416-1.308-1.608-3.3-.084-.972-.1-2.064-.084-2.808C2.628,26.488,2.664,25.936,2.712,25.648Zm6.192.324-.936.324a11.752,11.752,0,0,1,2.052,5.88l.972-.384A12.232,12.232,0,0,0,8.9,25.972ZM18.948,33.6c-.888,0-1.572-.336-1.572-.924,0-.408.408-.732.948-.732A1.587,1.587,0,0,1,19.9,33.532,5.853,5.853,0,0,1,18.948,33.6ZM21.4,24.976a4.255,4.255,0,0,1-.648.1c-.624.06-3.444.144-4.056.144a6.747,6.747,0,0,1-.84-.036l.024,1a5.722,5.722,0,0,1,.8-.072c.612-.036,2.952-.144,3.576-.168-.588.528-2.064,1.776-2.724,2.328-.7.576-2.22,1.848-3.2,2.664l.7.708c1.512-1.536,2.592-2.364,4.548-2.364,1.5,0,2.676.852,2.676,2.016A2.072,2.072,0,0,1,20.772,33.3a2.346,2.346,0,0,0-2.448-2.1,1.688,1.688,0,0,0-1.836,1.56c0,.984,1,1.7,2.616,1.7,2.508,0,4.1-1.248,4.1-3.168,0-1.608-1.428-2.808-3.408-2.808a5.05,5.05,0,0,0-1.608.252c.912-.768,2.508-2.172,3.1-2.616.18-.132.444-.312.66-.456Zm7.476-1.008a9.593,9.593,0,0,1-2.52,2.5,5.214,5.214,0,0,1,.5.648,12.736,12.736,0,0,0,2.832-2.844Zm.288,2.424A11.191,11.191,0,0,1,26.22,29.7a6.65,6.65,0,0,1,.5.792,12.194,12.194,0,0,0,1.356-1.284v5.736h.828V28.24a13.718,13.718,0,0,0,1.044-1.572Zm5.04,4.344h2.676v-.828H34.2V27.556h3v-.864H35.376a25.309,25.309,0,0,0,1.212-2.424l-.852-.312a15.506,15.506,0,0,1-1.152,2.472l.672.264H32.424l.6-.288a14.761,14.761,0,0,0-1.26-2.352l-.732.288a18.045,18.045,0,0,1,1.188,2.352H30.36v.864h2.988v5.988a3.317,3.317,0,0,1-1.812-2.268,21.385,21.385,0,0,0,.264-2.124l-.888-.072c-.144,2.292-.54,4.128-1.716,5.268a4.859,4.859,0,0,1,.684.612,6.082,6.082,0,0,0,1.356-2.448c.828,1.74,2.136,2.184,3.948,2.184H37.2a2.33,2.33,0,0,1,.288-.84c-.372,0-1.98.012-2.244,0a7.134,7.134,0,0,1-1.044-.072Zm12.468-3.888a10.97,10.97,0,0,1-.612,1.248l.12.036h-2.82l.384-.084a4.663,4.663,0,0,0-.6-1.2Zm3.444,5.22v-.756H45.3v-.888h3.756V29.74H45.3v-.876h4.344v-.732H46.92c.24-.36.5-.828.744-1.284h2.4V26.08H48.2a16.779,16.779,0,0,0,1.056-1.728l-.912-.24a13.614,13.614,0,0,1-.912,1.824l.444.144H46.428V23.956h-.84V26.08H44.16V23.956h-.828V26.08H41.856l.612-.228a8.271,8.271,0,0,0-1.02-1.764l-.756.252a9.354,9.354,0,0,1,.948,1.74H39.732v.768H42.66l-.42.084a5.039,5.039,0,0,1,.588,1.2H40.212v.732h4.212v.876H40.812v.684h3.612v.888h-4.74v.756h3.924a11.565,11.565,0,0,1-4.236,1.9,3.821,3.821,0,0,1,.576.756,12.059,12.059,0,0,0,4.476-2.364v2.556H45.3V32.3a11.328,11.328,0,0,0,4.512,2.46,3.208,3.208,0,0,1,.6-.792,10.979,10.979,0,0,1-4.284-1.9Zm10.6-5.676H55.032V25.144h5.676Zm.924-1.968H54.144v2.688h7.488Zm-7.1,6.984h6.66v.864h-6.66Zm0-1.476h6.66v.84h-6.66Zm0-1.476h6.66v.84h-6.66ZM62.1,32.932V27.8H53.64v5.136h2.232a13.148,13.148,0,0,1-3.528,1.332,6.845,6.845,0,0,1,.66.66,15.232,15.232,0,0,0,3.732-1.476l-.792-.516Zm-3.288.6a31.5,31.5,0,0,1,3.768,1.4l.768-.648c-.936-.384-2.532-.972-3.768-1.332Zm9.648-8.16a8.18,8.18,0,0,0-2.076-1.284l-.516.636a8.111,8.111,0,0,1,2.04,1.332Zm-.492,3.072a9.608,9.608,0,0,0-2.2-1.092l-.492.684a8.825,8.825,0,0,1,2.184,1.176Zm-1.584,6.312C67,33.64,67.7,32.164,68.232,30.9l-.672-.528A33.962,33.962,0,0,1,65.6,34.2Zm4.764-8.772h2.124v1.344H71.148Zm5.076,2.148v-.8h-2.1V25.984H75.9V25.2H74.124V23.968h-.852V25.2H71.148V23.968H70.32V25.2H68.6v.78H70.32v1.344H68.2v.8h3.576V29.14H68.7V34.9h.8V29.932h2.352v2.436H70.9V30.58h-.6v3.192h.6v-.72H73.56V33.6h.588V30.58H73.56v1.788H72.552V29.932h2.46v4.02c0,.144-.048.192-.216.2s-.732,0-1.344-.024a3.235,3.235,0,0,1,.24.756,6.255,6.255,0,0,0,1.74-.12c.324-.132.408-.372.408-.816V29.14h-3.2V28.132Zm4.464-2.724h6.36V27.76h-6.36Zm3.588,5.88H88.3V30.46h-4.02V28.612h3.7V24.544h-8.16v4.068h3.564v4.86a3.777,3.777,0,0,1-2.232-2.364,13.819,13.819,0,0,0,.3-1.5L80.5,29.5c-.168,1.716-.744,3.732-2.16,4.824a3.674,3.674,0,0,1,.624.6,5.971,5.971,0,0,0,1.836-2.7c1.14,2.076,2.976,2.532,5.52,2.532h2.64a3.126,3.126,0,0,1,.324-.864c-.5.012-2.544.012-2.916.012a10.335,10.335,0,0,1-2.088-.18ZM102,25.96v-.816H97.524V23.968h-.912v1.176h-4.4v3.432c0,1.728-.084,4.152-1.068,5.856a3.449,3.449,0,0,1,.732.5c1.032-1.812,1.176-4.512,1.176-6.36V25.96Zm-2.88,2.076V29.3h-2.9v-1.26Zm.864,1.98v-1.98h1.932V27.3H99.984V26.26H99.12V27.3h-2.9V26.26h-.852V27.3H93.456v.732h1.908v1.98ZM99.792,31.5a5.515,5.515,0,0,1-2.028,1.524A5.375,5.375,0,0,1,95.82,31.5Zm.744-.768-.156.036H93.6V31.5h1.848l-.48.18A6.038,6.038,0,0,0,96.852,33.4a16.278,16.278,0,0,1-3.7.768,3.083,3.083,0,0,1,.372.744,16.253,16.253,0,0,0,4.224-1.032,13.688,13.688,0,0,0,3.948,1.056,2.645,2.645,0,0,1,.516-.756,15.259,15.259,0,0,1-3.528-.756,5.927,5.927,0,0,0,2.412-2.388Zm7.164-6.36h-2.952v.72H107.7Zm.336,1.572h-3.852v.732h3.852Zm-.312,1.62h-3.048v.708h3.048Zm-3.048,2.3h3.048v-.72h-3.048Zm2.3,1.62v2h-1.6v-2Zm.744,2.724V30.76h-3.06v4.02h.72v-.564Zm2.244-5.88v.684h3.516v-.684h-1.452V27.184H113.3V26.5h-1.272V25.468H111.3V26.5h-1.236v.684H111.3v1.152Zm2.58,2.292v1.716H110.82V30.628Zm.684,2.4V29.944h-3.1V33.5h.684v-.468Zm1.56-8.568h-6.156v4.272c0,1.764-.072,4.1-1.008,5.76a3.011,3.011,0,0,1,.7.492c1-1.752,1.128-4.392,1.128-6.252V25.24h4.524v8.544c0,.2-.06.252-.24.252-.2.012-.828.024-1.464-.012a4.271,4.271,0,0,1,.264.876,5.492,5.492,0,0,0,1.812-.156c.336-.144.444-.432.444-.96Zm5.412,8.52h4.86v.876H120.2Zm4.86-3.048v.852H120.2v-.852Zm0,2.388H120.2v-.876h4.86Zm.9-3.144H119.34v4.68h-2.016v.8h10.644v-.8h-2Zm1.968-2.916v-.792h-4.9V23.956h-.864v1.512h-4.8v.792h3.84a10.439,10.439,0,0,1-4.1,2.664,3.417,3.417,0,0,1,.564.7,11.209,11.209,0,0,0,4.5-3.336V28.8h.864V26.3a10.979,10.979,0,0,0,4.548,3.24,2.762,2.762,0,0,1,.588-.708,10.684,10.684,0,0,1-4.2-2.568Zm4,4.812a1.83,1.83,0,1,0,1.836,1.824A1.831,1.831,0,0,0,131.928,31.072Zm0,3.048A1.218,1.218,0,1,1,133.14,32.9,1.2,1.2,0,0,1,131.928,34.12Zm11.16-.12h5.532v-.948h-2.436c-.444,0-.984.048-1.44.084,2.064-1.956,3.444-3.744,3.444-5.5a2.413,2.413,0,0,0-2.556-2.6,3.364,3.364,0,0,0-2.592,1.3l.636.624a2.463,2.463,0,0,1,1.824-1.02,1.546,1.546,0,0,1,1.62,1.74c0,1.512-1.272,3.264-4.032,5.676Zm10.428.156c1.668,0,2.736-1.524,2.736-4.584s-1.068-4.536-2.736-4.536-2.748,1.476-2.748,4.536S151.836,34.156,153.516,34.156Zm0-.876c-1.008,0-1.68-1.116-1.68-3.708,0-2.568.672-3.648,1.68-3.648s1.668,1.08,1.668,3.648C155.184,32.164,154.512,33.28,153.516,33.28Zm5.34.72h4.824v-.912h-1.764V25.2h-.84a5.573,5.573,0,0,1-1.824.624v.7h1.56v6.564h-1.956Zm9.7-4.152c-1.044,0-1.572-.768-1.572-1.956s.648-1.992,1.488-1.992c1.128,0,1.8.96,1.92,2.772A2.325,2.325,0,0,1,168.552,29.848Zm-2.436,3.408a2.8,2.8,0,0,0,2.112.9c1.656,0,3.192-1.368,3.192-4.932,0-2.8-1.26-4.188-2.952-4.188a2.641,2.641,0,0,0-2.52,2.856c0,1.824.96,2.772,2.424,2.772a2.712,2.712,0,0,0,2.028-1.092c-.084,2.736-1.068,3.672-2.208,3.672a1.985,1.985,0,0,1-1.476-.672Zm10.392-1.944V28.936H179.2v2.376Zm7.932,0H180.1V28.936h3.516V28.1H180.1V26.272h3.792v-.864h-7.152c.192-.408.384-.84.552-1.26l-.9-.216a10.155,10.155,0,0,1-2.7,4.14,5.522,5.522,0,0,1,.768.564,11.088,11.088,0,0,0,1.824-2.364H179.2V28.1H175.62v3.216h-1.968v.864H179.2v2.748h.9V32.176h4.344Zm8.976-.564h-2.9V28.012h2.9Zm-3.756-3.54V31.54h4.632V27.208Zm-1.728,6.216V25.348h8.1v8.076Zm-.9-8.964V34.912h.9v-.648h8.1v.648h.948V24.46Zm14.7,1.3a9.884,9.884,0,0,1,.72,1.608l.8-.264a7.8,7.8,0,0,0-.636-1.344H204.7v-.768h-3.012c.144-.324.288-.648.408-.984l-.852-.228a8.235,8.235,0,0,1-1.872,3.132,5.56,5.56,0,0,1,.732.492,9.482,9.482,0,0,0,1.176-1.644Zm5.844,6.168v1.824h-5.2V31.924Zm-6.048,2.988h.852v-.384h5.2v.348h.876v-3.72h-6.924Zm1.344-5.556a11,11,0,0,0,2.064-1.86,11.3,11.3,0,0,0,2.22,1.86Zm2.2-2.64a7.692,7.692,0,0,0,.768-.96h.912a7.131,7.131,0,0,1,.936,1.584l.828-.288a8.249,8.249,0,0,0-.768-1.3h2.544v-.768H206.3a8.057,8.057,0,0,0,.432-1l-.864-.216a6.316,6.316,0,0,1-1.824,2.7c.108.06.264.156.408.252a12.512,12.512,0,0,1-5.076,3.6,3.481,3.481,0,0,1,.5.708,16.183,16.183,0,0,0,2.652-1.452v.528h4.932V29.56a16.4,16.4,0,0,0,2.58,1.32,3.978,3.978,0,0,1,.54-.756,12.868,12.868,0,0,1-5.268-3.408Zm18.192,3.816a17.91,17.91,0,0,0-2.736-1.644l-.624.5a15.96,15.96,0,0,1,2.7,1.7Zm-1.284-4.08a13.662,13.662,0,0,1-1.848,1.512l.636.384a14.55,14.55,0,0,0,1.992-1.488Zm-6.048.708-.444.528a16.752,16.752,0,0,1,1.74,1.284c-.336.36-.672.7-.984,1-.324.012-.636.024-.9.036l.12.756c1.152-.084,2.676-.18,4.2-.288a6.094,6.094,0,0,1,.348.672l.684-.36a9.745,9.745,0,0,0-1.512-2.16l-.648.288a11.423,11.423,0,0,1,.708.912l-2.064.108a29.779,29.779,0,0,0,2.508-2.76l-.708-.336a20.074,20.074,0,0,1-1.26,1.584c-.252-.216-.576-.456-.912-.7a17.5,17.5,0,0,0,1.2-1.488l-.312-.12h5.22v-.8h-4.584V23.968h-.888v1.344h-4.476v.8h4.164a12.45,12.45,0,0,1-.864,1.26Zm-.444.744a10.33,10.33,0,0,0-1.908-1.284l-.6.492a10.643,10.643,0,0,1,1.884,1.332Zm.084,1.116c-1.116.468-2.244.948-3.012,1.224l.444.72c.8-.348,1.788-.828,2.736-1.272Zm2.76,1.74h-.888v.924H212.6v.828h4.836v2.436h.888V32.512h4.92v-.828h-4.92Zm8.592-5.976a5.24,5.24,0,0,1-.084.84,37.03,37.03,0,0,0-.54,4.992,14.359,14.359,0,0,0,.456,3.768l.852-.072c-.012-.12-.036-.288-.036-.408a2.039,2.039,0,0,1,.06-.528,25.653,25.653,0,0,1,.84-2.628l-.5-.4c-.2.48-.48,1.188-.672,1.728a10.5,10.5,0,0,1-.108-1.62,29.183,29.183,0,0,1,.588-4.788,5.629,5.629,0,0,1,.2-.8Zm6.06,7.368c0,.792-.288,1.284-1.3,1.284-.852,0-1.428-.336-1.428-.924,0-.552.612-.948,1.5-.948a3.716,3.716,0,0,1,1.212.192C232.98,31.9,232.98,32.044,232.98,32.152Zm3.24.588a8.1,8.1,0,0,0-2.34-1.548c-.048-1-.132-2.184-.144-3.372.708-.048,1.4-.12,2.052-.228v-.936a15.137,15.137,0,0,1-2.052.276c.012-.552.024-1.1.036-1.428a6.728,6.728,0,0,1,.072-.708h-1.092a4.855,4.855,0,0,1,.06.72v1.476c-.372.012-.744.024-1.116.024a18.578,18.578,0,0,1-2.016-.108v.912c.7.036,1.32.072,1.992.072.384,0,.756-.012,1.14-.024.012.984.084,2.124.12,3.036a5.3,5.3,0,0,0-1.1-.108c-1.56,0-2.448.816-2.448,1.812,0,1.056.876,1.716,2.472,1.716a1.8,1.8,0,0,0,2.064-1.944v-.216A9.018,9.018,0,0,1,235.7,33.52Zm4.752-2.892c-1.044,0-1.572-.768-1.572-1.956s.648-1.992,1.488-1.992c1.128,0,1.8.96,1.92,2.772A2.325,2.325,0,0,1,240.972,29.848Zm-2.436,3.408a2.8,2.8,0,0,0,2.112.9c1.656,0,3.192-1.368,3.192-4.932,0-2.8-1.26-4.188-2.952-4.188a2.641,2.641,0,0,0-2.52,2.856c0,1.824.96,2.772,2.424,2.772a2.712,2.712,0,0,0,2.028-1.092c-.084,2.736-1.068,3.672-2.208,3.672a1.985,1.985,0,0,1-1.476-.672Zm10.536.048c-1.1,0-1.764-1-1.9-2.82a2.293,2.293,0,0,1,1.8-1.128c1.068,0,1.584.756,1.584,1.944S249.912,33.3,249.072,33.3Zm2.364-7.368a2.7,2.7,0,0,0-2.052-.9c-1.7,0-3.252,1.32-3.252,4.764,0,2.9,1.248,4.356,2.94,4.356a2.641,2.641,0,0,0,2.52-2.856c0-1.836-.948-2.76-2.436-2.76a2.736,2.736,0,0,0-2,1.068c.048-2.736,1.068-3.66,2.268-3.66a1.86,1.86,0,0,1,1.416.672Zm3.312,8.22a.793.793,0,0,0,.792-.828.794.794,0,1,0-1.584,0A.793.793,0,0,0,254.748,34.156Zm4.008-3.456,2-3c.252-.432.492-.864.708-1.3h.048c-.024.456-.072,1.164-.072,1.6v2.7Zm4.9,0h-1.164V25.2h-1.212l-3.66,5.652v.72h3.828V34h1.044V31.576h1.164Zm3.8-.108c1.212,0,2-1.02,2-2.8s-.792-2.76-2-2.76-1.992,1-1.992,2.76S266.256,30.592,267.456,30.592Zm0-.684c-.684,0-1.164-.708-1.164-2.112s.48-2.088,1.164-2.088,1.176.684,1.176,2.088S268.152,29.908,267.456,29.908Zm.264,4.248h.732l4.86-9.12h-.744Zm5.868,0c1.2,0,1.992-1.008,1.992-2.784s-.792-2.76-1.992-2.76-2,1-2,2.76S272.388,34.156,273.588,34.156Zm0-.672c-.7,0-1.176-.708-1.176-2.112s.48-2.088,1.176-2.088,1.164.684,1.164,2.088S274.272,33.484,273.588,33.484Z" transform="translate(858 7434)"/>
    </g>
  </g>
</svg>
