<svg xmlns="http://www.w3.org/2000/svg" width="320" height="278" viewBox="0 0 320 278">
  <g id="グループ_891" data-name="グループ 891" transform="translate(-480 -7211)">
    <rect id="長方形_79" data-name="長方形 79" width="320" height="278" transform="translate(480 7211)" fill="#fff"/>
    <path id="パス_12525" data-name="パス 12525" d="M-37.74-7.56a3.925,3.925,0,0,0-.228-.744h1.98c-.1.252-.216.528-.312.744Zm-2.82,0v1.116h7.2V-7.56h-1.62c.12-.2.252-.456.4-.744h1V-9.42H-36.3v-.744h-1.38v.744h-2.472V-8.3h.888a4.18,4.18,0,0,1,.252.744Zm-.624-2.148-.2.06h-2.6V1.044h1.236v-9.42h.936c-.192.816-.444,1.86-.684,2.616a3.212,3.212,0,0,1,.828,2.1c0,.336-.048.576-.18.672a.621.621,0,0,1-.336.108c-.144,0-.312,0-.528-.012a3.026,3.026,0,0,1,.312,1.212A5.072,5.072,0,0,0-41.64-1.7a1.714,1.714,0,0,0,.7-.252,1.761,1.761,0,0,0,.528-1.536A3.694,3.694,0,0,0-41.292-5.9c.336-.936.732-2.244,1.044-3.264Zm2.544,5.94h3.348v.5H-38.64Zm0-1.32h3.348v.5H-38.64Zm5.34,3.3h-3V-2.4h2.328V-5.952h-5.94V-2.4h2.232v.612h-2.976V-.66h2.976v1.7h1.38V-.66h3ZM-20.16-8.76a14.2,14.2,0,0,0-.972-1.632l-.948.4a11.973,11.973,0,0,1,.972,1.656Zm-8.064-.78a13.157,13.157,0,0,1-.252,2.52c-.6.048-1.164.084-1.536.1a11.034,11.034,0,0,1-1.26,0l.132,1.608c.372-.06.984-.144,1.32-.18.228-.036.6-.084,1.02-.132A17.626,17.626,0,0,1-31.188-.072l1.548.624A25.751,25.751,0,0,0-27.216-5.8c.336-.024.624-.048.816-.048.744,0,1.152.132,1.152,1.08a9.073,9.073,0,0,1-.48,3.252A.874.874,0,0,1-26.616-1a6.934,6.934,0,0,1-1.464-.252l.264,1.572A6.728,6.728,0,0,0-26.4.492,1.9,1.9,0,0,0-24.444-.6a11.617,11.617,0,0,0,.672-4.332c0-1.7-.888-2.268-2.148-2.268-.24,0-.6.024-1,.048.084-.432.18-.864.252-1.224.06-.3.132-.672.2-.984Zm6.636,1.332c-.24-.444-.66-1.2-.96-1.644l-.948.4A13.267,13.267,0,0,1-22.68-8.04l-1.1.468a13.458,13.458,0,0,1,2,4.476l1.512-.708A23.613,23.613,0,0,0-22.2-7.944Zm5.772-.336-1.824-.024a6.887,6.887,0,0,1,.084,1.2c0,.732.024,2.112.132,3.2C-17.088-.972-15.948.2-14.652.2c.96,0,1.7-.732,2.5-2.8l-1.2-1.44c-.228.936-.7,2.328-1.26,2.328-.744,0-1.1-1.164-1.272-2.88-.072-.852-.084-1.752-.072-2.52A9.417,9.417,0,0,1-15.816-8.544Zm5.94.252-1.512.5c1.3,1.464,1.932,4.26,2.112,6.168l1.572-.6A12.951,12.951,0,0,0-9.876-8.292Zm9.768.66H1.848A16.387,16.387,0,0,1,.552-6.54h-.66ZM2.508-2.388H-1.62v-.768H2.508ZM-1.62-.492v-.816H2.508v.816Zm7-4.788V-6.54H2.592A17.552,17.552,0,0,0,4.956-9.18L3.732-9.8A14.614,14.614,0,0,1,2.5-8.28v-.588h-2.6v-1.3H-1.524v1.3h-2.82v1.236h2.82V-6.54H-5.376v1.26H-1.3A21.36,21.36,0,0,1-5.76-3.288a7.863,7.863,0,0,1,.876,1.176c.612-.228,1.236-.492,1.836-.756V1.056H-1.62V.7H2.508v.312H4V-4.32H-.36c.492-.312.948-.624,1.416-.96Zm12.78-4.356H7.812v1.2H18.156ZM11.988-.852h1.776v.528H11.988Zm-.7-4.4A6.847,6.847,0,0,1,9.948-3.648c.06-.576.084-1.116.1-1.608Zm4.968-1.68v.648H10.044v-.648ZM12.492-4.56c.132-.216.252-.444.36-.66l-.12-.036h1.44c-.084.228-.2.468-.312.7ZM13.764-3.1H11.988v-.5h1.776Zm0,1.356H11.988v-.48h1.776Zm4.5,1.416H15.108V-.852h2.52V-1.74h-2.52v-.48h2.52V-3.1h-2.52v-.5h2.82v-.96H15.264c.156-.228.324-.456.48-.7h1.92V-7.968H8.628V-5.6c0,1.62-.108,3.948-1.344,5.58A5.212,5.212,0,0,1,8.484.8,7.873,7.873,0,0,0,9.792-2.484c.156.192.312.4.4.528.144-.108.3-.228.444-.36v3.36h1.356V.672h6.276Zm8.5-3.48V-5.28h2.532V-3.8Zm-3.732,0c.024-.444.036-.876.036-1.26V-5.28H25.32V-3.8ZM25.32-8v1.392H23.064V-8Zm3.972,1.392H26.76V-8h2.532ZM30.708-9.36h-9.06v4.284c0,1.68-.108,3.816-1.416,5.256A5.271,5.271,0,0,1,21.36,1.1,6.872,6.872,0,0,0,22.872-2.46H25.32V.888h1.44V-2.46h2.532v1.8c0,.216-.084.288-.312.288S27.972-.36,27.3-.4A5.4,5.4,0,0,1,27.756.972,5.573,5.573,0,0,0,30.06.72c.48-.216.648-.6.648-1.368ZM36.6-4.26l-.216-.888c-1.1.432-2.256.876-3.012,1.116l.672,1.152c.648-.288,1.44-.66,2.2-1.032l.144.828c1.152-.084,2.616-.192,4.068-.324a4.646,4.646,0,0,1,.252.6l1.08-.48a4.957,4.957,0,0,0-.408-.864,13.239,13.239,0,0,1,1.908,1.308L44.316-3.7a15.249,15.249,0,0,0-2.508-1.536l-.732.588c-.192-.288-.408-.576-.6-.828l-1.008.42c.144.2.3.42.432.648l-1.236.06A29.176,29.176,0,0,0,40.9-6.684L39.78-7.2c-.3.432-.672.912-1.092,1.4-.18-.144-.384-.288-.6-.444.348-.408.744-.9,1.116-1.38l-.264-.1h4.968V-8.988H39.576v-1.164H38.112v1.164H33.888v1.272h3.924c-.168.3-.36.624-.564.924l-.288-.18-.552.672A11.965,11.965,0,0,0,34.68-7.44l-.948.78a9.456,9.456,0,0,1,1.8,1.32l.876-.732A14.479,14.479,0,0,1,37.92-4.956c-.228.228-.456.456-.684.672Zm5.544-1.212a17.707,17.707,0,0,0,1.848-1.476L42.72-7.56A10.9,10.9,0,0,1,41.1-6.036ZM39.576-3.18H38.112v.768H33.5v1.32h4.608V1.044h1.464V-1.092h4.7v-1.32h-4.7Z" transform="translate(639 7244.646)"/>
    <g id="グループ_77" data-name="グループ 77" transform="translate(0 1235)">
      <path id="パス_12293" data-name="パス 12293" d="M-110.08-29.707h28.467v10.842h-51.339L-106.416-51q3.911-4.8,6.56-8.317A63.223,63.223,0,0,0-95.822-65.2,16.559,16.559,0,0,0-93-73.571a11.924,11.924,0,0,0-3.763-8.961,12.916,12.916,0,0,0-9.307-3.614q-11.585,0-13.268,13.714h-11.486q2.772-24.16,24.407-24.16a24.654,24.654,0,0,1,17.526,6.634,21.548,21.548,0,0,1,7.129,16.436,24.969,24.969,0,0,1-3.317,12.228A59.908,59.908,0,0,1-90-53.892q-3.243,4.282-8.193,10.124Zm45.943,5.3a6.565,6.565,0,0,1,2.03-4.8,6.621,6.621,0,0,1,4.852-2.03,6.621,6.621,0,0,1,4.852,2.03,6.621,6.621,0,0,1,2.03,4.852,6.678,6.678,0,0,1-2.03,4.9,6.6,6.6,0,0,1-4.852,1.98,6.657,6.657,0,0,1-4.9-1.98A6.717,6.717,0,0,1-64.137-24.41Zm45.3,8.169L-27.3-22.529l18.268-24.9q-1.485.2-2.525.3t-1.683.1a21.488,21.488,0,0,1-16.04-7.08,23.6,23.6,0,0,1-6.733-16.932,24.561,24.561,0,0,1,7.476-18.021A24.585,24.585,0,0,1-10.52-96.592,25.358,25.358,0,0,1,7.649-89.166a23.318,23.318,0,0,1,7.723,17.427q0,8.911-7.525,19.258Zm-5.941-55.646a14.124,14.124,0,0,0,4.208,10.4,13.97,13.97,0,0,0,10.248,4.258,13.889,13.889,0,0,0,10.2-4.208A13.97,13.97,0,0,0,4.134-71.69,13.97,13.97,0,0,0-.124-81.938a13.947,13.947,0,0,0-10.248-4.208,13.831,13.831,0,0,0-10.149,4.208A13.744,13.744,0,0,0-24.778-71.888ZM38.591-58.62a18.789,18.789,0,0,1-8.416-16.189,20.846,20.846,0,0,1,6.386-15.545,22.073,22.073,0,0,1,15.991-6.238,21.674,21.674,0,0,1,15.842,6.238,20.884,20.884,0,0,1,6.337,15.595q0,9.852-8.367,16.09a17.728,17.728,0,0,1,7.228,7.228,21.43,21.43,0,0,1,2.673,10.694q0,10.149-6.634,16.635T52.651-17.627q-10.595,0-17.476-6.535A21.636,21.636,0,0,1,28.244-40.6Q28.244-53.471,38.591-58.62Zm2.426-16.238a11.161,11.161,0,0,0,3.317,8.218,11.065,11.065,0,0,0,8.119,3.367,11.008,11.008,0,0,0,8.07-3.367,11.008,11.008,0,0,0,3.367-8.07,11.008,11.008,0,0,0-3.367-8.07,11.008,11.008,0,0,0-8.07-3.367,11.008,11.008,0,0,0-8.07,3.367A10.839,10.839,0,0,0,41.017-74.858ZM39.581-40.995a12.687,12.687,0,0,0,3.664,9.109,12.187,12.187,0,0,0,9.01,3.763,12.211,12.211,0,0,0,8.961-3.713,12.375,12.375,0,0,0,3.713-9.01,12.269,12.269,0,0,0-3.713-9.01,12.211,12.211,0,0,0-8.961-3.713,12.317,12.317,0,0,0-8.961,3.713A12.1,12.1,0,0,0,39.581-40.995Z" transform="translate(665.78 6147.502)" fill="#a21b43"/>
      <path id="パス_12295" data-name="パス 12295" d="M10.352-14v-3.887a7.925,7.925,0,0,0,3.887-.645,3.987,3.987,0,0,0,1.777-3.633,4.118,4.118,0,0,0-1.289-3.145,4.543,4.543,0,0,0-3.3-1.23,4.271,4.271,0,0,0-2.93.918,6.082,6.082,0,0,0-1.484,3.164H2.48q.7-4.258,2.891-6.24a8.777,8.777,0,0,1,6.113-1.982,9.072,9.072,0,0,1,6.465,2.344,7.817,7.817,0,0,1,2.5,6A7.43,7.43,0,0,1,17.168-15.9q3.75,2.207,3.75,7.168A8.718,8.718,0,0,1,18.184-2.09,9.809,9.809,0,0,1,11.172.488q-5.449,0-8.086-4A10.392,10.392,0,0,1,1.7-8.164H6.094A5.343,5.343,0,0,0,7.8-4.814a5.261,5.261,0,0,0,3.545,1.162A4.916,4.916,0,0,0,15-5.117a5.274,5.274,0,0,0,1.445-3.809,4.638,4.638,0,0,0-2.168-4.336A8.027,8.027,0,0,0,10.352-14ZM28.145-2.187a2.59,2.59,0,0,1,.8-1.895,2.612,2.612,0,0,1,1.914-.8,2.612,2.612,0,0,1,1.914.8,2.612,2.612,0,0,1,.8,1.914,2.635,2.635,0,0,1-.8,1.934,2.6,2.6,0,0,1-1.914.781,2.626,2.626,0,0,1-1.934-.781A2.65,2.65,0,0,1,28.145-2.187ZM44.668-25.9H39.453l2.5-4.258h7.266V0H44.668Z" transform="translate(604 6201)" fill="#a21b43"/>
      <path id="パス_12294" data-name="パス 12294" d="M-15.135-21.111a5.956,5.956,0,0,1,1.951-4.43A6.474,6.474,0,0,1-8.6-27.422a6.347,6.347,0,0,1,4.605,1.9,6.058,6.058,0,0,1,1.934,4.5A6.078,6.078,0,0,1-3.99-16.506a6.44,6.44,0,0,1-4.658,1.881,6.259,6.259,0,0,1-4.588-1.916A6.268,6.268,0,0,1-15.135-21.111Zm3.059.053a3.4,3.4,0,0,0,1.02,2.5,3.374,3.374,0,0,0,2.479,1.02,3.333,3.333,0,0,0,2.443-1.02,3.353,3.353,0,0,0,1.02-2.461,3.333,3.333,0,0,0-1.02-2.443A3.353,3.353,0,0,0-8.6-24.486a3.353,3.353,0,0,0-2.461,1.02A3.293,3.293,0,0,0-12.076-21.059Zm18.9-6.557,1.916,1.09L-6.8.439-8.736-.721ZM2.039-6.24A5.937,5.937,0,0,1,3.99-10.652a6.474,6.474,0,0,1,4.588-1.881,6.367,6.367,0,0,1,4.623,1.9,6.058,6.058,0,0,1,1.934,4.5,6.015,6.015,0,0,1-1.951,4.518A6.433,6.433,0,0,1,8.525.246a6.288,6.288,0,0,1-4.588-1.9A6.251,6.251,0,0,1,2.039-6.24Zm3.076.07a3.425,3.425,0,0,0,1,2.5A3.374,3.374,0,0,0,8.6-2.654a3.3,3.3,0,0,0,2.443-1.02,3.353,3.353,0,0,0,1.02-2.461A3.353,3.353,0,0,0,11.039-8.6a3.316,3.316,0,0,0-2.461-1.02A3.333,3.333,0,0,0,6.135-8.6,3.313,3.313,0,0,0,5.115-6.17Z" transform="translate(747 6182)" fill="#a21b43"/>
      <path id="パス_12296" data-name="パス 12296" d="M-6.727-9.383a2.647,2.647,0,0,1,.867-1.969,2.877,2.877,0,0,1,2.039-.836,2.821,2.821,0,0,1,2.047.844,2.692,2.692,0,0,1,.859,2,2.7,2.7,0,0,1-.859,2.008,2.862,2.862,0,0,1-2.07.836,2.782,2.782,0,0,1-2.039-.852A2.786,2.786,0,0,1-6.727-9.383Zm1.359.023A1.509,1.509,0,0,0-4.914-8.25a1.5,1.5,0,0,0,1.1.453A1.481,1.481,0,0,0-2.727-8.25a1.49,1.49,0,0,0,.453-1.094,1.481,1.481,0,0,0-.453-1.086,1.49,1.49,0,0,0-1.094-.453,1.49,1.49,0,0,0-1.094.453A1.464,1.464,0,0,0-5.367-9.359Zm8.4-2.914.852.484L-3.023.2-3.883-.32ZM.906-2.773a2.639,2.639,0,0,1,.867-1.961A2.877,2.877,0,0,1,3.813-5.57a2.83,2.83,0,0,1,2.055.844,2.692,2.692,0,0,1,.859,2A2.673,2.673,0,0,1,5.859-.719a2.859,2.859,0,0,1-2.07.828A2.8,2.8,0,0,1,1.75-.734,2.778,2.778,0,0,1,.906-2.773Zm1.367.031a1.522,1.522,0,0,0,.445,1.109,1.5,1.5,0,0,0,1.1.453,1.465,1.465,0,0,0,1.086-.453,1.49,1.49,0,0,0,.453-1.094A1.49,1.49,0,0,0,4.906-3.82a1.474,1.474,0,0,0-1.094-.453,1.481,1.481,0,0,0-1.086.453A1.472,1.472,0,0,0,2.273-2.742Z" transform="translate(670 6200)" fill="#a21b43"/>
      <path id="パス_12527" data-name="パス 12527" d="M-28.152,0h5.7V-1.176H-24.66c-.432,0-.984.036-1.44.084,1.872-1.788,3.228-3.552,3.228-5.256A2.5,2.5,0,0,0-25.536-9a3.429,3.429,0,0,0-2.688,1.32l.78.768A2.4,2.4,0,0,1-25.7-7.9a1.434,1.434,0,0,1,1.5,1.62c0,1.452-1.344,3.168-3.948,5.472ZM-17.22.156c1.728,0,2.856-1.536,2.856-4.608C-14.364-7.5-15.492-9-17.22-9s-2.856,1.488-2.856,4.548S-18.948.156-17.22.156Zm0-1.092c-.9,0-1.536-.96-1.536-3.516,0-2.532.636-3.456,1.536-3.456s1.536.924,1.536,3.456C-15.684-1.9-16.32-.936-17.22-.936ZM-11.568,0h5.04V-1.14H-8.256v-7.7H-9.3a5.194,5.194,0,0,1-1.92.684v.876h1.584V-1.14h-1.932ZM-2.76-6.1c0-1.152.6-1.836,1.356-1.836.96,0,1.62.792,1.752,2.532a2.1,2.1,0,0,1-1.68,1.08C-2.256-4.32-2.76-4.968-2.76-6.1ZM-1.644.156c1.7,0,3.288-1.392,3.288-4.872C1.644-7.644.276-9-1.416-9A2.7,2.7,0,0,0-4.044-6.1c0,1.848,1,2.772,2.472,2.772A2.655,2.655,0,0,0,.372-4.356C.288-1.836-.636-.972-1.7-.972a1.963,1.963,0,0,1-1.44-.66L-3.9-.78A3.031,3.031,0,0,0-1.644.156Zm8.76-2.94V-4.908H9.528v2.124Zm7.776,0H10.68V-4.908h3.348V-5.952H10.68V-7.608H14.3v-1.08H7.356c.156-.36.324-.756.468-1.128l-1.128-.3A9.709,9.709,0,0,1,4.08-6.048a8.874,8.874,0,0,1,.972.72A10.917,10.917,0,0,0,6.78-7.608H9.528v1.656H6v3.168H4.068V-1.7h5.46V.948H10.68V-1.7h4.212ZM19.2-7.944h8.784v-1H23.616v-1.128H22.452V-8.94h-4.32v3.384c0,1.74-.084,4.176-1.056,5.88a5.051,5.051,0,0,1,.912.612C19.032-.888,19.2-3.672,19.2-5.556Zm5.772,2.112v1.056H22.38V-5.832Zm1.092,1.92v-1.92H27.9v-.912H26.064v-.912H24.972v.912H22.38v-.912H21.324v.912H19.548v.912h1.776v1.92Zm-.5,1.524a5.531,5.531,0,0,1-1.776,1.3,5.162,5.162,0,0,1-1.74-1.3Zm.936-.936-.2.036H19.68v.9h1.836l-.54.2A6.388,6.388,0,0,0,22.632-.636,16.731,16.731,0,0,1,19.2.024a3.421,3.421,0,0,1,.468.936,15.753,15.753,0,0,0,4.08-.984,13.58,13.58,0,0,0,3.8,1A3.974,3.974,0,0,1,28.2.012a15.778,15.778,0,0,1-3.252-.636A5.788,5.788,0,0,0,27.18-2.952Z" transform="translate(734 6198.646)" fill="#a21b43"/>
      <path id="パス_12526" data-name="パス 12526" d="M.528,0h5.7V-1.176H4.02c-.432,0-.984.036-1.44.084C4.452-2.88,5.808-4.644,5.808-6.348A2.5,2.5,0,0,0,3.144-9,3.429,3.429,0,0,0,.456-7.68l.78.768A2.4,2.4,0,0,1,2.976-7.9a1.434,1.434,0,0,1,1.5,1.62C4.476-4.824,3.132-3.108.528-.8ZM11.46.156c1.728,0,2.856-1.536,2.856-4.608C14.316-7.5,13.188-9,11.46-9S8.6-7.512,8.6-4.452,9.732.156,11.46.156Zm0-1.092c-.9,0-1.536-.96-1.536-3.516,0-2.532.636-3.456,1.536-3.456S13-6.984,13-4.452C13-1.9,12.36-.936,11.46-.936ZM16.608,0h5.7V-1.176H20.1c-.432,0-.984.036-1.44.084,1.872-1.788,3.228-3.552,3.228-5.256A2.5,2.5,0,0,0,19.224-9a3.429,3.429,0,0,0-2.688,1.32l.78.768a2.4,2.4,0,0,1,1.74-.984,1.434,1.434,0,0,1,1.5,1.62c0,1.452-1.344,3.168-3.948,5.472ZM27.336.156c1.62,0,2.952-.936,2.952-2.532a2.236,2.236,0,0,0-1.824-2.208v-.06A2.135,2.135,0,0,0,29.988-6.72c0-1.452-1.116-2.28-2.7-2.28a3.722,3.722,0,0,0-2.532,1.068l.72.864A2.572,2.572,0,0,1,27.24-7.9,1.227,1.227,0,0,1,28.6-6.624c0,.888-.576,1.548-2.316,1.548v1.02c1.992,0,2.616.636,2.616,1.608a1.485,1.485,0,0,1-1.68,1.476,2.854,2.854,0,0,1-2.088-.972l-.672.888A3.666,3.666,0,0,0,27.336.156Zm-23.7,15.06V13.092H6.048v2.124Zm7.776,0H7.2V13.092h3.348V12.048H7.2V10.392h3.624V9.312H3.876c.156-.36.324-.756.468-1.128l-1.128-.3A9.709,9.709,0,0,1,.6,11.952a8.874,8.874,0,0,1,.972.72A10.917,10.917,0,0,0,3.3,10.392H6.048v1.656H2.52v3.168H.588V16.3h5.46v2.652H7.2V16.3h4.212Zm4.308-5.16H24.5v-1H20.136V7.932H18.972V9.06h-4.32v3.384c0,1.74-.084,4.176-1.056,5.88a5.051,5.051,0,0,1,.912.612c1.044-1.824,1.212-4.608,1.212-6.492Zm5.772,2.112v1.056H18.9V12.168Zm1.092,1.92v-1.92H24.42v-.912H22.584v-.912H21.492v.912H18.9v-.912H17.844v.912H16.068v.912h1.776v1.92Zm-.5,1.524a5.531,5.531,0,0,1-1.776,1.3,5.162,5.162,0,0,1-1.74-1.3Zm.936-.936-.2.036H16.2v.9h1.836l-.54.2a6.388,6.388,0,0,0,1.656,1.548,16.731,16.731,0,0,1-3.432.66,3.421,3.421,0,0,1,.468.936,15.753,15.753,0,0,0,4.08-.984,13.58,13.58,0,0,0,3.8,1,3.974,3.974,0,0,1,.648-.96,15.778,15.778,0,0,1-3.252-.636A5.788,5.788,0,0,0,23.7,15.048Z" transform="translate(569 6181.646)" fill="#a21b43"/>
      <line id="線_22" data-name="線 22" x2="136" transform="translate(569.5 6154.5)" fill="none" stroke="#a21b43" stroke-width="1"/>
    </g>
    <g id="グループ_91" data-name="グループ 91" transform="translate(434.929 7387.118)">
      <path id="パス_116" data-name="パス 116" d="M253.44,11.954a6.072,6.072,0,1,0-7.386-4.378A6.07,6.07,0,0,0,253.44,11.954Z" transform="translate(-151.413 0)" fill="#a21b43"/>
      <path id="パス_117" data-name="パス 117" d="M179.262,222.955l-.5,5.229a14.156,14.156,0,0,1,2.267,1.828,13.99,13.99,0,1,1-23.489,13.138L154.8,249.2a18.8,18.8,0,1,0,24.465-26.248Z" transform="translate(-71.614 -195.37)" fill="#a21b43"/>
      <path id="パス_118" data-name="パス 118" d="M95.415,145.558c5.316-.058,7.829-2.29,8.374-7.433l1.542-16.148a4.665,4.665,0,0,0-4.117-5.361A6.142,6.142,0,0,0,96.5,118.5l-7.584,7.463-7.934.667a2.461,2.461,0,0,0-2.256,2.453v.148a2.462,2.462,0,0,0,2.461,2.461h9.358L94.8,128.55l-.711,7.875-10.366.756c-3.008.119-4.335,1.325-5.468,4.027l-4.892,13.44a3.273,3.273,0,0,0,5.971,2.684l5.514-11.775h10.57Z" transform="translate(0 -102.171)" fill="#a21b43"/>
    </g>
  </g>
</svg>
