<svg height="354" viewBox="0 0 335 354" width="335" xmlns="http://www.w3.org/2000/svg"><path d="m.136-.941-.136 84.941" fill="none" stroke="#47763e" stroke-width="4" transform="translate(167.5 102.5)"/><path d="m7212-244.1v-32.841h235v32.941" fill="none" stroke="#47763e" stroke-width="4" transform="translate(-7162 418)"/><g transform="translate(-20 -701)"><g fill="#fff" stroke="#47763e"><rect height="102" rx="10" stroke="none" width="320" x="28" y="701"/><rect fill="none" height="101" rx="9.5" width="319" x="28.5" y="701.5"/></g><path d="m2.952-10.032a9.593 9.593 0 0 1 -2.52 2.5 5.214 5.214 0 0 1 .5.648 12.736 12.736 0 0 0 2.836-2.848zm.288 2.424a11.191 11.191 0 0 1 -2.94 3.308 6.65 6.65 0 0 1 .5.8 12.194 12.194 0 0 0 1.36-1.288v5.736h.828v-6.708a13.718 13.718 0 0 0 1.044-1.572zm5.04 4.344h2.676v-.828h-2.676v-2.352h3v-.864h-1.824a25.309 25.309 0 0 0 1.212-2.424l-.852-.312a15.506 15.506 0 0 1 -1.152 2.472l.672.264h-2.836l.6-.292a14.76 14.76 0 0 0 -1.26-2.352l-.732.288a18.045 18.045 0 0 1 1.192 2.356h-1.86v.864h2.988v5.988a3.317 3.317 0 0 1 -1.812-2.268 21.385 21.385 0 0 0 .264-2.124l-.888-.072c-.144 2.292-.54 4.128-1.716 5.268a4.858 4.858 0 0 1 .684.612 6.082 6.082 0 0 0 1.356-2.448c.828 1.74 2.136 2.188 3.948 2.188h2.016a2.33 2.33 0 0 1 .288-.84c-.372 0-1.98.012-2.244 0a7.134 7.134 0 0 1 -1.044-.076zm12.468-3.888a10.97 10.97 0 0 1 -.612 1.252l.12.036h-2.82l.384-.084a4.663 4.663 0 0 0 -.6-1.2zm3.444 5.22v-.756h-4.812v-.888h3.756v-.684h-3.756v-.876h4.344v-.732h-2.724c.24-.36.5-.828.744-1.284h2.4v-.768h-1.86a16.78 16.78 0 0 0 1.056-1.728l-.912-.24a13.614 13.614 0 0 1 -.912 1.824l.444.144h-1.452v-2.124h-.84v2.124h-1.428v-2.124h-.828v2.124h-1.476l.612-.228a8.271 8.271 0 0 0 -1.02-1.764l-.756.252a9.354 9.354 0 0 1 .948 1.74h-1.908v.768h2.928l-.42.084a5.039 5.039 0 0 1 .588 1.2h-2.616v.732h4.208v.876h-3.608v.684h3.608v.888h-4.74v.756h3.924a11.565 11.565 0 0 1 -4.236 1.9 3.821 3.821 0 0 1 .576.756 12.059 12.059 0 0 0 4.476-2.368v2.556h.876v-2.612a11.328 11.328 0 0 0 4.516 2.456 3.209 3.209 0 0 1 .6-.792 10.979 10.979 0 0 1 -4.284-1.9zm10.6-5.676h-5.68v-1.248h5.676zm.924-1.968h-7.492v2.688h7.488zm-7.1 6.984h6.66v.864h-6.66zm0-1.476h6.66v.84h-6.66zm0-1.476h6.66v.84h-6.66zm7.564 4.476v-5.132h-8.46v5.136h2.232a13.148 13.148 0 0 1 -3.528 1.328 6.845 6.845 0 0 1 .66.66 15.232 15.232 0 0 0 3.732-1.476l-.792-.516zm-3.288.6a31.5 31.5 0 0 1 3.768 1.404l.768-.648c-.936-.388-2.528-.972-3.768-1.332zm9.648-8.16a8.181 8.181 0 0 0 -2.076-1.284l-.516.636a8.111 8.111 0 0 1 2.04 1.332zm-.492 3.072a9.608 9.608 0 0 0 -2.2-1.092l-.492.684a8.825 8.825 0 0 1 2.184 1.176zm-1.584 6.312c.612-1.116 1.32-2.592 1.848-3.852l-.672-.528a33.96 33.96 0 0 1 -1.956 3.824zm4.764-8.772h2.124v1.344h-2.124zm5.072 2.148v-.8h-2.1v-1.348h1.78v-.784h-1.78v-1.236h-.852v1.236h-2.12v-1.236h-.828v1.236h-1.716v.78h1.716v1.344h-2.124v.8h3.576v1.016h-3.072v5.76h.8v-4.968h2.352v2.436h-.96v-1.788h-.6v3.192h.6v-.72h2.668v.548h.588v-3.02h-.588v1.788h-1.008v-2.436h2.46v4.02c0 .144-.048.192-.216.2s-.732 0-1.344-.024a3.236 3.236 0 0 1 .24.756 6.255 6.255 0 0 0 1.74-.12c.324-.132.408-.372.408-.816v-4.808h-3.2v-1.008zm4.464-2.724h6.36v2.352h-6.36zm3.588 5.88h4.02v-.828h-4.02v-1.848h3.7v-4.068h-8.16v4.068h3.564v4.86a3.777 3.777 0 0 1 -2.232-2.364 13.819 13.819 0 0 0 .3-1.5l-.948-.108c-.168 1.716-.744 3.732-2.16 4.824a3.675 3.675 0 0 1 .624.6 5.971 5.971 0 0 0 1.836-2.7c1.14 2.076 2.976 2.532 5.524 2.532h2.64a3.126 3.126 0 0 1 .324-.864c-.5.012-2.544.012-2.916.012a10.335 10.335 0 0 1 -2.088-.18zm17.728-5.328v-.816h-4.48v-1.176h-.912v1.176h-4.4v3.432c0 1.728-.084 4.152-1.068 5.856a3.449 3.449 0 0 1 .732.5c1.032-1.812 1.176-4.512 1.176-6.36v-2.612zm-2.88 2.076v1.264h-2.9v-1.26zm.864 1.98v-1.98h1.936v-.736h-1.936v-1.04h-.864v1.04h-2.9v-1.04h-.852v1.04h-1.912v.732h1.908v1.98zm-.192 1.484a5.515 5.515 0 0 1 -2.028 1.528 5.375 5.375 0 0 1 -1.944-1.528zm.744-.768-.156.036h-6.78v.732h1.848l-.48.18a6.038 6.038 0 0 0 1.884 1.72 16.278 16.278 0 0 1 -3.7.768 3.083 3.083 0 0 1 .372.744 16.253 16.253 0 0 0 4.228-1.032 13.688 13.688 0 0 0 3.948 1.056 2.645 2.645 0 0 1 .52-.756 15.259 15.259 0 0 1 -3.528-.756 5.927 5.927 0 0 0 2.408-2.388zm13.872 4.42.72-.372a7.509 7.509 0 0 1 -2.232-5.34 7.509 7.509 0 0 1 2.232-5.34l-.72-.372a7.973 7.973 0 0 0 -2.388 5.712 7.973 7.973 0 0 0 2.388 5.712zm3.432-1.152h5.208v-.948h-4.092v-3.2h3.336v-.952h-3.336v-2.76h3.964v-.94h-5.08zm10.464.156c1.836 0 2.988-1.1 2.988-2.5a2.45 2.45 0 0 0 -1.812-2.352l-1.26-.54c-.684-.288-1.452-.612-1.452-1.464 0-.792.648-1.3 1.644-1.3a2.85 2.85 0 0 1 2 .828l.588-.708a3.607 3.607 0 0 0 -2.592-1.092 2.5 2.5 0 0 0 -2.772 2.34 2.485 2.485 0 0 0 1.788 2.256l1.272.552c.828.372 1.464.66 1.464 1.56 0 .864-.7 1.44-1.848 1.44a3.456 3.456 0 0 1 -2.432-1.084l-.66.756a4.2 4.2 0 0 0 3.084 1.308zm5.748-10.428-.72.372a7.509 7.509 0 0 1 2.232 5.34 7.509 7.509 0 0 1 -2.232 5.34l.72.372a7.973 7.973 0 0 0 2.388-5.712 7.973 7.973 0 0 0 -2.388-5.712zm15.708.648h-2.952v.72h2.952zm.336 1.572h-3.852v.732h3.852zm-.312 1.62h-3.048v.708h3.048zm-3.048 2.3h3.048v-.72h-3.048zm2.3 1.62v2h-1.6v-2zm.744 2.724v-3.452h-3.06v4.02h.72v-.564zm2.244-5.88v.684h3.516v-.684h-1.452v-1.148h1.272v-.684h-1.272v-1.032h-.732v1.032h-1.236v.684h1.236v1.152zm2.58 2.292v1.716h-1.724v-1.712zm.684 2.4v-3.08h-3.1v3.556h.684v-.472zm1.56-8.568h-6.156v4.272c0 1.764-.072 4.1-1.008 5.76a3.011 3.011 0 0 1 .7.492c1-1.752 1.128-4.392 1.128-6.252v-3.488h4.524v8.544c0 .2-.06.252-.24.252-.2.012-.828.024-1.464-.012a4.27 4.27 0 0 1 .264.876 5.492 5.492 0 0 0 1.812-.156c.336-.144.444-.432.444-.96zm5.412 8.52h4.86v.876h-4.86zm4.86-3.048v.852h-4.86v-.852zm0 2.388h-4.86v-.876h4.86zm.9-3.144h-6.62v4.68h-2.016v.8h10.644v-.8h-2zm1.968-2.916v-.792h-4.9v-1.512h-.864v1.512h-4.8v.792h3.84a10.439 10.439 0 0 1 -4.1 2.664 3.417 3.417 0 0 1 .564.7 11.209 11.209 0 0 0 4.5-3.336v2.516h.864v-2.5a10.979 10.979 0 0 0 4.548 3.24 2.762 2.762 0 0 1 .588-.708 10.684 10.684 0 0 1 -4.2-2.568zm-142.868 31.744h2.256c2.652 0 4.1-1.644 4.1-4.428s-1.448-4.372-4.148-4.372h-2.208zm1.116-.912v-6.988h1c2.076 0 3.1 1.236 3.1 3.468s-1.02 3.516-3.1 3.516zm7.44-2.028h3.072v-.84h-3.072zm9.1 3.1a3.4 3.4 0 0 0 2.7-1.26l-.612-.7a2.674 2.674 0 0 1 -2.04.984c-1.68 0-2.736-1.392-2.736-3.612 0-2.2 1.1-3.564 2.772-3.564a2.4 2.4 0 0 1 1.8.84l.6-.72a3.252 3.252 0 0 0 -2.412-1.092c-2.232 0-3.9 1.728-3.9 4.572s1.64 4.548 3.824 4.548zm8.16 0c2.208 0 3.756-1.764 3.756-4.584s-1.548-4.536-3.756-4.536-3.756 1.716-3.756 4.536 1.54 4.58 3.752 4.58zm0-.972c-1.584 0-2.616-1.416-2.616-3.612s1.032-3.564 2.616-3.564 2.616 1.356 2.616 3.564-1.048 3.608-2.62 3.608zm6.608.812h1.008v-4.872c0-.756-.084-1.824-.132-2.592h.048l.7 2 1.668 4.572h.744l1.668-4.572.7-2h.048c-.06.768-.144 1.836-.144 2.592v4.872h1.044v-8.8h-1.352l-1.68 4.7c-.2.612-.4 1.224-.6 1.836h-.06c-.216-.612-.42-1.224-.624-1.836l-1.692-4.7h-1.344zm10.7 0h1.116v-3.492h1.46c1.92 0 3.24-.864 3.24-2.724 0-1.92-1.32-2.58-3.3-2.58h-2.512zm1.116-4.392v-3.508h1.26c1.548 0 2.328.408 2.328 1.68s-.732 1.824-2.28 1.824zm7.848.816.432-1.344c.312-1 .6-1.944.876-2.976h.048c.288 1.02.564 1.98.888 2.976l.42 1.344zm3.784 3.576h1.176l-2.988-8.8h-1.236l-2.988 8.8h1.128l.852-2.688h3.216zm5.82.156c1.836 0 2.988-1.1 2.988-2.5a2.45 2.45 0 0 0 -1.812-2.352l-1.26-.54c-.684-.288-1.452-.612-1.452-1.464 0-.792.648-1.3 1.644-1.3a2.85 2.85 0 0 1 2 .828l.588-.708a3.607 3.607 0 0 0 -2.588-1.084 2.5 2.5 0 0 0 -2.772 2.34 2.485 2.485 0 0 0 1.788 2.256l1.272.552c.828.372 1.464.66 1.464 1.56 0 .864-.7 1.44-1.848 1.44a3.456 3.456 0 0 1 -2.436-1.092l-.66.756a4.2 4.2 0 0 0 3.084 1.308zm7.944 0c1.836 0 2.988-1.1 2.988-2.5a2.45 2.45 0 0 0 -1.812-2.352l-1.26-.54c-.684-.288-1.452-.612-1.452-1.464 0-.792.648-1.3 1.644-1.3a2.85 2.85 0 0 1 2 .828l.588-.708a3.607 3.607 0 0 0 -2.592-1.092 2.5 2.5 0 0 0 -2.772 2.34 2.485 2.485 0 0 0 1.788 2.256l1.272.552c.828.372 1.464.66 1.464 1.56 0 .864-.7 1.44-1.848 1.44a3.456 3.456 0 0 1 -2.436-1.092l-.66.756a4.2 4.2 0 0 0 3.088 1.316zm15.2 1 .72-.372a7.5 7.5 0 0 1 0-10.68l-.72-.372a8.025 8.025 0 0 0 0 11.424zm12.64-9.256a17.006 17.006 0 0 0 -.984-1.644l-.636.276a12.722 12.722 0 0 1 .972 1.656zm-2.724.288c.348 0 .768.012 1.116.036v-1a8.854 8.854 0 0 1 -1.116.072h-4.152a10.428 10.428 0 0 1 -1.092-.072v1c.312-.024.708-.036 1.1-.036zm-5.616 2.112c-.372 0-.72-.024-1.044-.048v.984c.324-.024.672-.024 1.044-.024h3.588a5.809 5.809 0 0 1 -.7 2.976 4.968 4.968 0 0 1 -2.268 1.836l.888.66a5.856 5.856 0 0 0 2.364-2.2 7.264 7.264 0 0 0 .708-3.276h3.264c.288 0 .672.012.936.024v-.984a8.582 8.582 0 0 1 -.936.048zm8.04-4.26a11.431 11.431 0 0 1 1 1.656l.648-.288a15.782 15.782 0 0 0 -1.008-1.632zm11.508 2.724a12.368 12.368 0 0 1 -3.1 2.472 15.852 15.852 0 0 1 -4.164 1.644l.516.876a20.9 20.9 0 0 0 3.768-1.536v3.672c0 .36-.024.852-.048 1.032h1.1a6.013 6.013 0 0 1 -.06-1.032v-4.248a14.735 14.735 0 0 0 2.724-2.172zm5.532 3.216c.372-.036 1.008-.06 1.668-.06h6.588c.54 0 1.044.048 1.284.06v-1.18c-.264.024-.7.06-1.3.06h-6.576c-.672 0-1.308-.036-1.668-.06zm21.924 4.128c-.012-.192-.048-.732-.048-1.164v-6.192c0-.288.024-.66.036-.936-.24.012-.6.024-.888.024h-5.916a12.109 12.109 0 0 1 -1.308-.072v1.068c.288-.012.876-.036 1.32-.036h5.748v5.664h-5.892c-.5 0-1.02-.036-1.332-.06v1.08c.324-.024.864-.048 1.356-.048h5.868c-.012.288-.012.54-.024.672zm5.5-8.9-.684.732a24.923 24.923 0 0 1 2.988 2.508l.756-.756a26.276 26.276 0 0 0 -3.064-2.492zm-1.032 8.04.636.984a12.936 12.936 0 0 0 4.716-1.872 11.969 11.969 0 0 0 4.032-4.26l-.576-1.02a11.3 11.3 0 0 1 -4.008 4.416 12.39 12.39 0 0 1 -4.808 1.748zm20.664-7.608a.8.8 0 0 1 .78-.8.812.812 0 0 1 .8.8.8.8 0 0 1 -.8.792.789.789 0 0 1 -.784-.796zm-.552 0a1.344 1.344 0 1 0 2.688 0 1.344 1.344 0 1 0 -2.688 0zm-6.228 4.752a15.762 15.762 0 0 1 -1.848 3.264l1.02.432a17.4 17.4 0 0 0 1.764-3.3 26.675 26.675 0 0 0 1.092-3.744c.048-.264.144-.612.216-.876l-1.068-.216a18.343 18.343 0 0 1 -1.18 4.436zm5.9-.456a35.961 35.961 0 0 1 1.356 4.128l1.068-.348c-.312-1.08-.948-2.916-1.44-4.1a38.794 38.794 0 0 0 -1.752-3.792l-.972.324a30.689 30.689 0 0 1 1.74 3.784zm13.428-4.436a3.2 3.2 0 0 1 -.9.108h-4.632c-.36 0-1.044-.06-1.212-.084v1.096c.132-.012.792-.06 1.212-.06h4.68a10.693 10.693 0 0 1 -1.992 3.336 13.722 13.722 0 0 1 -4.944 3.564l.768.8a15.213 15.213 0 0 0 4.68-3.5 27.707 27.707 0 0 1 3.3 3.564l.84-.732a34.413 34.413 0 0 0 -3.5-3.576 15.187 15.187 0 0 0 2.016-3.516 3.441 3.441 0 0 1 .3-.528zm5.244-1.776-.72.372a7.5 7.5 0 0 1 0 10.68l.72.372a8.025 8.025 0 0 0 0-11.424z" transform="translate(134 745)"/><g fill="#47763e"><path d="m214.241 11.934a5.967 5.967 0 1 0 -5.967-5.966 5.967 5.967 0 0 0 5.967 5.966z" transform="translate(-153.047 720.52)"/><path d="m181.326 119.275h-10.387c-2.87 0-5.993 3.123-5.993 5.994v19.911a2.6 2.6 0 0 0 2.6 2.6h1.814l1.147 19.746h11.246l1.157-19.746h1.814a2.6 2.6 0 0 0 2.6-2.6v-19.911c-.005-2.869-3.124-5.994-5.998-5.994zm-6.788 11.561v-9.465h3.189v9.465l-1.595 2.132z" transform="translate(-115.081 616.005)"/><path d="m213.512 11.919a5.96 5.96 0 1 0 -5.96-5.957 5.96 5.96 0 0 0 5.96 5.957z" transform="translate(-117.153 720.52)"/><path d="m159.155 137.641 2.047-10.326c.213-3.92-2.736-6.859-5.613-6.859h-8.851c-2.876 0-5.825 2.939-5.613 6.859l2.048 10.326-6.651 17.39h8.917l1.889 13.407h7.592l1.967-13.407h8.917zm-2.054-9.3h-4.557v-1.831h4.556z" transform="translate(-54.523 614.826)"/></g></g><g transform="translate(118 174)"><rect fill="#1e4a16" height="180" rx="10" width="100"/><g fill="#fff"><path d="m-17.832-3.24a8.624 8.624 0 0 1 -.78 2.856 3.117 3.117 0 0 1 .7.336 10.561 10.561 0 0 0 .848-3.052zm3.216-.876a4.14 4.14 0 0 1 .228.684l.708-.336a9.816 9.816 0 0 0 -1.188-2.432l-.66.288a11.22 11.22 0 0 1 .588 1.068c-.66.024-1.32.06-1.92.084a38.757 38.757 0 0 0 2.484-3.58l-.768-.336c-.336.648-.792 1.428-1.284 2.184a8.445 8.445 0 0 0 -.732-.828 21.593 21.593 0 0 0 1.368-2.412l-.792-.3a16.379 16.379 0 0 1 -1.068 2.232c-.12-.108-.24-.216-.36-.312l-.456.576a10.407 10.407 0 0 1 1.568 1.728c-.264.384-.54.756-.8 1.068-.276.012-.552.024-.792.024l.072.8 1.956-.1v4.952h.816v-4.992zm-.612 1.044a11.951 11.951 0 0 1 .768 2.328l.708-.24a10.4 10.4 0 0 0 -.8-2.3zm2.976.54h3.052v2.292h-3.048zm3.052-6.024v2.208h-3.048v-2.208zm0 5.22h-3.048v-2.208h3.048zm.876 3.1v-9.124h-4.788v9.12h-1.272v.816h6.984v-.816zm13.664-6.892a12.057 12.057 0 0 0 -1.188-2.112l-.66.276a14.208 14.208 0 0 1 1.152 2.164zm-10.368 3.888a10.331 10.331 0 0 1 -.588 2.856 3.448 3.448 0 0 1 .636.3 11.321 11.321 0 0 0 .648-3.024zm2.148.132a11.851 11.851 0 0 1 .588 2.256l.66-.2a12.246 12.246 0 0 0 -.624-2.248zm-.336-2.832a8.2 8.2 0 0 1 .492 1.032l-1.392.072a38.3 38.3 0 0 0 2.1-3.516l-.72-.3c-.264.6-.624 1.32-1.008 2.016-.156-.228-.348-.48-.552-.732a25 25 0 0 0 1.116-2.4l-.768-.264a16.554 16.554 0 0 1 -.816 2.148c-.108-.12-.216-.228-.324-.336l-.408.588a11.448 11.448 0 0 1 1.344 1.7c-.24.408-.48.792-.708 1.116l-.744.036.072.8c.492-.036 1.032-.072 1.62-.12v5h.744v-5.052l.72-.06a5.833 5.833 0 0 1 .192.708l.672-.276a9.067 9.067 0 0 0 -1-2.388zm2.592 4.84v-1.12h1.8v1.12zm1.8-2.856v1.092h-1.8v-1.096zm3.216-.792a9.013 9.013 0 0 1 -.816 2.076c-.108-.768-.18-1.692-.24-2.712h2.052v-.736h-2.088c-.048-1.18-.072-2.48-.072-3.864h-.768c.024 1.38.048 2.676.1 3.864h-1.336c.2-.444.408-1.128.612-1.716l-.72-.18h1.1v-.7h-1.616v-1.332h-.828v1.332h-1.6v.7h2.896a11.911 11.911 0 0 1 -.48 1.764l.492.132h-1.86l.516-.132a6.236 6.236 0 0 0 -.396-1.728l-.624.144a6.755 6.755 0 0 1 .36 1.716h-1.164v.732h4.68a30.608 30.608 0 0 0 .36 3.688 7.23 7.23 0 0 1 -1.032 1.148v-4.068h-3.252v4.9h.708v-.712h2.412a7.283 7.283 0 0 1 -1.08.816 4.175 4.175 0 0 1 .564.564 8.877 8.877 0 0 0 1.9-1.7c.308 1.088.74 1.712 1.376 1.736.42.016.816-.468 1.032-2.232a2.7 2.7 0 0 1 -.588-.444c-.072 1.044-.228 1.692-.42 1.68-.336-.024-.612-.576-.816-1.536a10.416 10.416 0 0 0 1.356-3.012zm6.984-.06h-2.52v-2.512h2.52zm-2.52 3.668v-2.88h2.52v2.88zm1.008-8.928a14.811 14.811 0 0 1 -.48 1.944h-1.344v8.736h.816v-.948h3.336v-7.788h-1.992c.2-.516.42-1.176.624-1.764zm8.2 1.908h-3.592a16.856 16.856 0 0 0 .516-1.728l-.852-.2a12.176 12.176 0 0 1 -1.836 4.352 6.558 6.558 0 0 1 .732.5 10.1 10.1 0 0 0 1.128-2.1h3.048c-.156 4.776-.336 6.6-.732 7.02-.12.156-.252.18-.492.18-.276 0-1 0-1.776-.072a2.064 2.064 0 0 1 .3.876 12.647 12.647 0 0 0 1.776.012 1.194 1.194 0 0 0 .948-.48c.48-.588.636-2.436.828-7.908zm-1.9 5.4a23.478 23.478 0 0 0 -1.884-2.712l-.7.408a21.35 21.35 0 0 1 1.824 2.772zm-35.124 26.436v-3.048h3.852v-.864h-3.852v-2.616h4.3v-.876h-4.3v-2.3h-.912v2.3h-2.436a16.471 16.471 0 0 0 .672-1.92l-.9-.192a10.939 10.939 0 0 1 -2.22 4.416 5.18 5.18 0 0 1 .8.528 10.178 10.178 0 0 0 1.26-1.956h2.82v2.616h-3.564v.864h3.564v3.048h-4.86v.864h10.636v-.864zm13.86-1.3h2.868v-.72h-2.868v-1.256h3.18v-.72h-3.18v-1.068h-.888v1.068h-1.86a6.617 6.617 0 0 0 .4-.9l-.8-.192a6.309 6.309 0 0 1 -1.536 2.5 4.9 4.9 0 0 1 .7.432 7.771 7.771 0 0 0 .84-1.12h2.256v1.26h-2.712v.72h2.712v1.512h-3.732v.768h8.52v-.768h-3.9zm.684-6.576a13.94 13.94 0 0 1 -.648 1.572l.42.144h-3.656l.54-.156a5.14 5.14 0 0 0 -.66-1.56zm.12 1.716c.276-.444.6-1.044.9-1.608l-.444-.108h2.088v-.768h-4.284v-1.08h-.876v1.08h-4.212v.768h2.484l-.612.168a6.6 6.6 0 0 1 .636 1.548h-2.328v1.86a9.354 9.354 0 0 1 -1.092 4.956 3.424 3.424 0 0 1 .684.564 10.614 10.614 0 0 0 1.26-5.52v-1.064h8.952v-.792zm5.844 2.016a13.383 13.383 0 0 0 .6-3.216l-.672-.1a12.125 12.125 0 0 1 -.624 3.084zm1.032 5.38h.888v-10.956h-.888zm.972-8.748a11.944 11.944 0 0 1 .828 2.036l.672-.324a11.332 11.332 0 0 0 -.876-2zm5.268 7.488v-3h2.448v-.828h-2.448v-2.484h2.712v-.852h-2.712v-2.488h-.888v2.484h-1.5c.168-.588.312-1.212.432-1.836l-.864-.14a11.683 11.683 0 0 1 -1.452 4.284 7 7 0 0 1 .792.408 8.653 8.653 0 0 0 .84-1.86h1.752v2.484h-2.544v.828h2.544v3h-3.432v.848h7.32v-.852zm7.872-1.332c-.516 0-1.212-.66-1.212-2.16a4.143 4.143 0 0 1 3.672-3.84 19.173 19.173 0 0 1 -.66 3.2c-.612 2.008-1.272 2.8-1.8 2.8zm3.132 1.992c2.832-.372 4.476-2.04 4.476-4.536a4.314 4.314 0 0 0 -4.56-4.368 5.075 5.075 0 0 0 -5.208 4.836c0 1.956 1.068 3.18 2.124 3.18 1.1 0 2.052-1.26 2.784-3.7a25.114 25.114 0 0 0 .708-3.42 3.294 3.294 0 0 1 3.152 3.448 3.562 3.562 0 0 1 -3.012 3.516 7.449 7.449 0 0 1 -1.02.144zm-22.932 15.648v1.62h-3.816v-1.62zm.468 4.26v1.86h-4.284v-1.86zm-5.148 2.628h6.024v-3.384h-5.16v-1.14h4.692v-3.124h-2.652c.144-.336.312-.732.456-1.116l-1.008-.168a10.836 10.836 0 0 1 -.384 1.284h-1.968zm-1.188-6.748a9.131 9.131 0 0 0 -2.088-1.848l-.66.528a8.306 8.306 0 0 1 2.04 1.908zm-.336 2.556h-2.544v.84h1.668v3.036a20.038 20.038 0 0 1 -1.824 1.368l.48.9c.636-.516 1.236-1.032 1.812-1.536a4.276 4.276 0 0 0 3.4 1.416c1.32.048 3.78.024 5.088-.024a4.06 4.06 0 0 1 .288-.912c-1.4.1-4.068.132-5.376.084a3.493 3.493 0 0 1 -2.988-1.344zm14.312 2.08c-1.464.84-3.012 1.7-4.032 2.232l.54.792c1.072-.6 2.492-1.44 3.772-2.232zm-.428-1.036a10.569 10.569 0 0 0 -1.944-2.172l-.684.456a10.406 10.406 0 0 1 1.908 2.236zm3.468-5.132a14.072 14.072 0 0 1 2.184 1.4l.564-.624a14.462 14.462 0 0 0 -2.22-1.344zm2.376 2.748a17.966 17.966 0 0 1 -2.22 2.4 12.964 12.964 0 0 1 -1.284-2.736v-.156h4.8v-.852h-4.8v-1.98h-.9v1.98h-4.712v.852h4.712v6.876c0 .24-.084.3-.312.312s-1.008.012-1.836-.012a4.344 4.344 0 0 1 .324.936 7.672 7.672 0 0 0 2.16-.168c.408-.156.564-.432.564-1.068v-4.728a10.131 10.131 0 0 0 4.5 5.064 3.349 3.349 0 0 1 .648-.78 8.307 8.307 0 0 1 -3.408-2.868 26.531 26.531 0 0 0 2.532-2.532z" transform="translate(50 111)"/><path d="m203.993 14.221a7.111 7.111 0 1 0 -7.11-7.11 7.111 7.111 0 0 0 7.11 7.11z" transform="translate(-153.526 20.5)"/><path d="m188.806 138.383c4.884 0 9.887-1.691 9.106-6.374a13.058 13.058 0 0 0 -3.085-5.761 1.39 1.39 0 0 0 -1.045-.076 9.454 9.454 0 0 1 -9.951 0 1.39 1.39 0 0 0 -1.045.076 13.06 13.06 0 0 0 -3.085 5.761c-.781 4.683 4.221 6.374 9.105 6.374z" transform="translate(-138.338 -90.437)"/><path d="m43.676 298.023a7.111 7.111 0 1 0 -7.11-7.11 7.111 7.111 0 0 0 7.11 7.11z" transform="translate(-12.49 -229.169)"/><path d="m34.512 410.052a1.385 1.385 0 0 0 -1.045-.077 9.458 9.458 0 0 1 -9.951 0 1.388 1.388 0 0 0 -1.046.077 13.048 13.048 0 0 0 -3.084 5.76c-.781 4.683 4.222 6.373 9.105 6.373s9.887-1.69 9.106-6.373a13.057 13.057 0 0 0 -3.085-5.76z" transform="translate(2.695 -340.108)"/><path d="m364.3 298.023a7.111 7.111 0 1 0 -7.111-7.11 7.11 7.11 0 0 0 7.111 7.11z" transform="translate(-294.551 -229.169)"/><path d="m358.222 415.813a13.051 13.051 0 0 0 -3.084-5.76 1.388 1.388 0 0 0 -1.046-.077 9.458 9.458 0 0 1 -9.951 0 1.386 1.386 0 0 0 -1.045.077 13.06 13.06 0 0 0 -3.084 5.76c-.781 4.683 4.221 6.373 9.106 6.373s9.882-1.686 9.104-6.373z" transform="translate(-279.369 -340.108)"/><path d="m190.779 255-8.478-4.894v-9.788a1.172 1.172 0 1 0 -2.344 0v9.788l-8.478 4.894a1.173 1.173 0 0 0 1.173 2.032l8.477-4.895 8.478 4.894a1.173 1.173 0 0 0 1.172-2.031z" transform="translate(-130.661 -189.884)"/></g></g><g transform="translate(0 174)"><rect fill="#47763e" height="180" rx="10" width="100"/><g fill="#fff"><path d="m-27.336-9.624h-3.456v.72h3.456zm.444 1.572h-4.524v.732h4.524zm-1.2 5.544v2.016h-2v-2.016zm.78-.732h-3.564v4.02h.78v-.552h2.784zm-3.54-.888h3.552v-.72h-3.552zm0-1.6h3.552v-.708h-3.552zm10.44 1.5h-2.868v-4.32h2.628v-.828h-5.988v.828h2.484v4.32h-2.952v.84h2.952v4.288h.876v-4.284h2.868zm-5.94-3.468a14.465 14.465 0 0 1 .624 2.952l.768-.192a13.719 13.719 0 0 0 -.672-2.952zm4.488 2.94a31.018 31.018 0 0 0 .96-3.012l-.84-.216a21.791 21.791 0 0 1 -.8 3.024zm5.976-5.256a13.259 13.259 0 0 1 -2.8 4.668 6.913 6.913 0 0 1 .492.84 12.3 12.3 0 0 0 1.116-1.392v6.796h.852v-8.172a19.388 19.388 0 0 0 1.152-2.484zm5.16 3.936h-1.372v-1.952h1.368zm2.172 5.22h-1.392v-4.412h1.392zm-5.652-4.416h1.332v4.42h-1.332zm3.48 0v4.42h-1.372v-4.416zm3.128-2.756v-.8h-7.58v.8h2.244v1.956h-2.088v6.792h.816v-.78h5.652v.708h.864v-6.72h-2.184v-1.956zm5.94.528h2.428v-.816h-2.424v-1.684h-.852v1.68h-1.272c.132-.408.252-.852.36-1.272l-.84-.168a9.458 9.458 0 0 1 -1.2 3.16 5.234 5.234 0 0 1 .792.336 9.172 9.172 0 0 0 .6-1.236h1.56v1.26h-2.916v.816h2.916v1.2h-2.364v4.164h.816v-3.348h1.548v4.308h.852v-4.308h1.656v2.448c0 .12-.036.16-.168.16s-.516.008-1.032 0a2.725 2.725 0 0 1 .264.78 3.707 3.707 0 0 0 1.392-.148c.3-.144.36-.372.36-.78v-3.276h-2.472v-1.2h2.892v-.816h-2.892zm4.6-1.452h-.84v6.6h.84zm1.284-.96v9.612c0 .2-.06.252-.252.264s-.872 0-1.584-.024a5.182 5.182 0 0 1 .288.936 5.9 5.9 0 0 0 1.924-.176c.36-.156.492-.42.492-1.008v-9.6zm14.016 1.872v-.816h-4.476v-1.176h-.912v1.176h-4.4v3.432c-.004 1.724-.088 4.152-1.072 5.856a3.45 3.45 0 0 1 .732.5c1.032-1.808 1.176-4.508 1.176-6.356v-2.616zm-2.88 2.076v1.264h-2.9v-1.26zm.864 1.98v-1.98h1.932v-.736h-1.932v-1.04h-.864v1.04h-2.9v-1.04h-.86v1.04h-1.9v.732h1.9v1.98zm-.192 1.484a5.515 5.515 0 0 1 -2.032 1.528 5.375 5.375 0 0 1 -1.94-1.528zm.744-.768-.156.036h-6.78v.732h1.848l-.48.18a6.038 6.038 0 0 0 1.884 1.72 16.278 16.278 0 0 1 -3.692.768 3.084 3.084 0 0 1 .372.744 16.253 16.253 0 0 0 4.22-1.032 13.688 13.688 0 0 0 3.948 1.056 2.645 2.645 0 0 1 .516-.756 15.259 15.259 0 0 1 -3.528-.756 5.927 5.927 0 0 0 2.412-2.388zm6.4 1.584c-.516 0-1.212-.66-1.212-2.16a4.143 4.143 0 0 1 3.672-3.84 19.173 19.173 0 0 1 -.66 3.2c-.616 2.012-1.276 2.804-1.804 2.804zm3.124 1.996c2.832-.372 4.476-2.04 4.476-4.536a4.314 4.314 0 0 0 -4.56-4.368 5.075 5.075 0 0 0 -5.208 4.836c0 1.956 1.068 3.18 2.124 3.18 1.1 0 2.052-1.26 2.784-3.7a25.114 25.114 0 0 0 .708-3.42 3.294 3.294 0 0 1 3.156 3.444 3.562 3.562 0 0 1 -3.008 3.52 7.449 7.449 0 0 1 -1.02.144zm-42.152 18.828h5.784v1.248h-5.784zm0-1.992h5.784v1.236h-5.784zm0-1.968h5.784v1.22h-5.784zm5.172 8.8c-.516 0-.612-.06-.612-.408v-2.392h2.124v-6.8h-7.548v6.8h1.62c-.252 1.536-.888 2.472-3.348 2.964a2.483 2.483 0 0 1 .5.78c2.724-.624 3.492-1.824 3.78-3.744h1.968v2.4c0 .972.3 1.236 1.428 1.236h1.932c1.008 0 1.272-.432 1.38-2.172a2.448 2.448 0 0 1 -.828-.36c-.048 1.476-.144 1.692-.624 1.692zm13.716-5.48h-4.572v-.96h4.572zm0 1.62h-4.572v-.972h4.572zm0 1.656h-4.572v-1.004h4.572zm-5.424-4.92v5.58h6.3v-5.576h-3.576c.048-.3.108-.624.156-.972h4.764v-.828h-4.644c.048-.36.1-.72.132-1.068l-1.02-.072c-.012.336-.036.732-.072 1.14h-4.86v.828h4.776c-.036.348-.084.672-.132.972zm7.752 6.612h-9.084v-6.268h-.864v7.728h.864v-.636h9.084zm4.488-8.8a6.108 6.108 0 0 1 .108 1.2c0 1.26-.12 4.26-.12 6.024 0 1.932 1.176 2.652 2.88 2.652a5.921 5.921 0 0 0 4.956-2.616l-.66-.828a4.965 4.965 0 0 1 -4.272 2.46c-1.1 0-1.944-.456-1.944-1.764 0-1.776.1-4.584.144-5.928.024-.384.06-.8.12-1.188z" transform="translate(50 113)"/><path d="m60.942 53.871 5.288 5.286 18.735-18.735h-16.565l5.629 5.629-7.8 7.8-5.217-5.217-19.107 18.1 2.578 2.725z" transform="translate(-18.995 -15.107)"/><path d="m60 102.313-27.653 26.715-7.426-7.428-24.921 23.986h60z" transform="translate(18 -69.745)"/></g></g><g transform="translate(235 174)"><rect fill="#1e4a16" height="180" rx="10" width="100"/><g fill="#fff"><path d="m-7.668-2.34v-.792h-4.848v-.768h-.516a1.286 1.286 0 0 0 .324-.072c.36-.108.468-.3.468-.768v-1.692h3.024a10.575 10.575 0 0 1 -1.332 1.452l.792.312a16.165 16.165 0 0 0 1.992-2.292l-.684-.252-.168.048h-2.424l.072-.084c-.264-.12-.564-.24-.912-.36a11.385 11.385 0 0 0 2.748-1.548l-.588-.456-.2.048h-7.044v.732h6a11.693 11.693 0 0 1 -1.92.876 17.642 17.642 0 0 0 -1.944-.48l-.492.528a21.093 21.093 0 0 1 2.676.744h-5.356v.732h3.648a11.542 11.542 0 0 1 -3.828 1.944 4.473 4.473 0 0 1 .564.7 11.665 11.665 0 0 0 4.368-2.64h.108v1.68c0 .132-.048.18-.216.18s-.768.024-1.428-.012a3.7 3.7 0 0 1 .288.732c.432 0 .792 0 1.092-.012v.732h-4.836v.792h3.972a10.811 10.811 0 0 1 -4.176 2.324 5.009 5.009 0 0 1 .588.744 11.386 11.386 0 0 0 4.456-2.844v3.024h.888v-2.976a10.886 10.886 0 0 0 4.484 2.724 4.524 4.524 0 0 1 .6-.744 10.19 10.19 0 0 1 -4.248-2.256zm6.528-2.976h-1.26v-1.084h1.26zm0 1.74h-1.26v-1.1h1.26zm-3.2-1.1h1.24v1.1h-1.244zm0-1.716h1.24v1.08h-1.244zm7.212-.636h1.52c-.156.84-.348 1.728-.528 2.328l.72.2a30.8 30.8 0 0 0 .792-3.216l-.588-.168-.156.036h-3.2c.156-.66.288-1.356.4-2.064l-.876-.132a11.852 11.852 0 0 1 -1.356 4.596v-1.62h-1.928v-.912h2.128v-.768h-2.128v-1.3h-.84v1.3h-2.124v.768h2.124v.912h-1.884v4.168h1.884v.924h-2.3v.8h2.3v2.076h.84v-2.076h2.292v-.8h-2.292v-.924h1.928v-2.092a6.156 6.156 0 0 1 .528.384 9.639 9.639 0 0 0 1.072-2.424h.8v2.04a6.048 6.048 0 0 1 -3.068 5.184 6.346 6.346 0 0 1 .516.732 6.163 6.163 0 0 0 2.976-4.224 6.375 6.375 0 0 0 2.664 4.224 8.6 8.6 0 0 1 .54-.756 6.233 6.233 0 0 1 -2.76-5.16zm15.228.74a17.973 17.973 0 0 0 -2.784-1.584l-.468.744a14.273 14.273 0 0 1 2.708 1.628zm-4.32-1.8a12.153 12.153 0 0 1 -1.848.432c.192-.684.348-1.4.468-1.836l-1.068-.1a9.74 9.74 0 0 1 -.372 2.052c-.456.036-.9.06-1.32.06a11.194 11.194 0 0 1 -1.468-.08l.072.9c.444.024.936.036 1.38.036q.522 0 1.044-.036a17.046 17.046 0 0 1 -2.544 4.44l.936.48a21.353 21.353 0 0 0 2.592-5.028 14.138 14.138 0 0 0 2.148-.432zm.62 6.636c0 .588-.324 1.128-1.3 1.128-.924 0-1.368-.372-1.368-.924s.576-.936 1.452-.936a4.327 4.327 0 0 1 1.2.168c.016.216.016.408.016.564zm-.168-4.368c.024.828.084 1.992.12 2.964a5.624 5.624 0 0 0 -1.128-.108c-1.344 0-2.376.708-2.376 1.8 0 1.176 1.068 1.716 2.376 1.716 1.464 0 2.088-.78 2.088-1.728 0-.132 0-.3-.012-.48a8.267 8.267 0 0 1 1.908 1.356l.516-.816a8.021 8.021 0 0 0 -2.46-1.484c-.024-.72-.072-1.5-.084-1.932a11.558 11.558 0 0 1 .012-1.284zm-24.468 23.676a11.784 11.784 0 0 1 -1.02 5.484c-.588.06-1.176.12-1.74.168v-.936h1.872v-.7h-1.876v-.768h1.836v-3.488h-1.824v-.756h1.86v.66h.888zm-4.656 1.776h1.192v.876h-1.188zm0-1.416h1.192v.852h-1.188zm1.836.852v-.852h1.248v.852zm0 1.44v-.876h1.248v.876zm3.6-3.78v-2.712h-.78v2.712h-.84v-.564h-1.908v-.828a16 16 0 0 0 1.86-.324l-.48-.648a31.035 31.035 0 0 1 -4.14.576c.084-.228.156-.468.228-.7l-.792-.216a13.972 13.972 0 0 1 -2.352 4.816 6.247 6.247 0 0 1 .444.9 12.69 12.69 0 0 0 1.056-1.6v6.78h.8v-8.4q.342-.774.612-1.584a2.49 2.49 0 0 1 .216.636c.564-.036 1.164-.084 1.764-.144v.732h-1.908v.7h1.908v.756h-1.752v3.492h1.752v.768h-1.788v.7h1.788v1.004l-2.088.192.144.756c1.116-.132 2.568-.288 4.02-.468-.108.156-.228.3-.348.444a2.808 2.808 0 0 1 .66.468c1.692-2 1.92-4.812 1.92-7.116v-.336h1.08c-.1 4.476-.2 6.036-.432 6.372a.347.347 0 0 1 -.36.192c-.192 0-.612-.012-1.08-.048a1.908 1.908 0 0 1 .216.78 6.627 6.627 0 0 0 1.2 0 .837.837 0 0 0 .708-.42c.336-.48.42-2.112.528-7.248 0-.108.012-.42.012-.42zm5.988 4.056a5.366 5.366 0 0 0 -.276 1.488c0 1.488 1.248 2.22 3.372 2.22a18.406 18.406 0 0 0 2.872-.228l.024-.972a14.272 14.272 0 0 1 -2.928.276c-1.692 0-2.412-.576-2.412-1.488a4.065 4.065 0 0 1 .276-1.212zm7.568-3.252a12.393 12.393 0 0 1 -2.2.588c-.2-.444-.372-.816-.468-1.068l-.216-.492a16.414 16.414 0 0 0 2.208-.5l-.16-.86a13.376 13.376 0 0 1 -2.364.568 12.206 12.206 0 0 1 -.444-1.32l-1.08.228a8.565 8.565 0 0 1 .444.84c.048.108.1.228.156.36a21.609 21.609 0 0 1 -3.888-.1l.06.876a24.368 24.368 0 0 0 4.176.024c.084.192.168.408.264.612l.42.972a23.724 23.724 0 0 1 -4.992.024l.036.876a28.568 28.568 0 0 0 5.316-.108c.276.624.552 1.248.78 1.716-.372-.036-.936-.1-1.512-.168l-.084.732c.756.1 1.716.228 2.316.336l.468-.588c-.336-.62-.72-1.424-1.068-2.18a15.829 15.829 0 0 0 2.016-.5zm14.184-.66v-.852h-4.92v-2.088h-.9v2.088h-4.832v.852h3.684c-.144 2.76-.492 5.868-3.8 7.356a3.034 3.034 0 0 1 .636.732 6.86 6.86 0 0 0 3.816-5.28h3.96c-.2 2.772-.432 3.948-.792 4.26-.12.12-.288.132-.564.132-.3 0-1.152 0-2-.084a2.04 2.04 0 0 1 .312.864c.8.048 1.584.06 2 .036a1.338 1.338 0 0 0 1.02-.4c.468-.48.708-1.8.948-5.22.012-.144.024-.432.024-.432h-4.776c.1-.66.144-1.32.18-1.968z" transform="translate(50 113)"/><path d="m220.024 243.577v14.887h-5.144a3.993 3.993 0 0 0 3.833 4.135h27.46c.035 0-.034-.01 0-.011v-19.011a1.1 1.1 0 0 0 -1.1-1.1h-23.946a1.1 1.1 0 0 0 -1.103 1.1z" transform="translate(-169.297 -194.819)"/><path d="m191.656 50.876a7.472 7.472 0 1 0 -7.471-7.471 7.472 7.472 0 0 0 7.471 7.471z" transform="translate(-142.112 -11.888)"/><path d="m21.017 69.805h58.533v4.557h-58.533z"/><path d="m114.033 217.8.123 4.58h5.594a5.783 5.783 0 0 1 -1.715-4.135v-1.519h5.145v-13.368a2.624 2.624 0 0 1 2.621-2.621h13.092c-4.082-3.426-10.655-3.673-14.28-3.673-5.3 0-14.958.522-15.836 10.779l-1.245 14.537h5.436z" transform="translate(-74.223 -154.599)"/><path d="m13.827 318.391 1.759-12.751h-10.268l1.758 12.751z" transform="translate(16.307 -250.762)"/><path d="m14.915 266.412h-8.928l-.669 2.949h10.267z" transform="translate(16.307 -216.019)"/></g></g></svg>