<svg xmlns="http://www.w3.org/2000/svg" width="209.07" height="56.42" viewBox="0 0 209.07 56.42">
  <path id="パス_12382" data-name="パス 12382" d="M-105.09-20.01-99.12,0h5.28L-90-11.58-86.37,0h5.31l6.39-20.01H-80.1L-83.88-7.08l-3.93-12.93h-4.14L-96.18-7.08l-3.48-12.93ZM-60.24-9.78a3.3,3.3,0,0,1,2.13.87,3.257,3.257,0,0,1,.93,2.19,2.959,2.959,0,0,1-.93,2.13,3.051,3.051,0,0,1-2.13.9,3.067,3.067,0,0,1-2.16-.9,3.1,3.1,0,0,1-.93-2.13,3.093,3.093,0,0,1,.93-2.19A3.317,3.317,0,0,1-60.24-9.78Zm8.04,3.06a6.628,6.628,0,0,0-2.07-4.92,8.471,8.471,0,0,0-6-2.22,8.373,8.373,0,0,0-5.97,2.22,6.628,6.628,0,0,0-2.07,4.92,6.692,6.692,0,0,0,2.07,4.95A8.04,8.04,0,0,0-60.27.45a8.046,8.046,0,0,0,6-2.22A6.692,6.692,0,0,0-52.2-6.72ZM-43.44,0h4.8V-5.73a4.047,4.047,0,0,1,1.08-3.06,3.145,3.145,0,0,1,2.19-.72,4.234,4.234,0,0,1,2.07.48v-4.53c-.63-.03-.84-.06-.96-.06a5.236,5.236,0,0,0-2.49.54,4.327,4.327,0,0,0-1.89,1.86v-2.19h-4.8Zm18.27-21.87V0h4.8V-5.49L-15.48,0h6.66l-6.84-7.23,6.33-6.18h-6.51l-4.53,4.83V-21.87ZM11.4-1.8A13.97,13.97,0,0,0,14.43-.21a10.7,10.7,0,0,0,3.93.66,7.757,7.757,0,0,0,5.91-2.04,6.779,6.779,0,0,0,1.89-5.04,4.724,4.724,0,0,0-1.29-3.57,7.644,7.644,0,0,0-3.63-1.98l-1.59-.48a3.285,3.285,0,0,1-1.74-.9,1.339,1.339,0,0,1-.27-.9,1.481,1.481,0,0,1,.51-1.08,2.492,2.492,0,0,1,1.71-.6,5.279,5.279,0,0,1,3.42,1.35l2.07-4.05a14.055,14.055,0,0,0-6.18-1.62,7.055,7.055,0,0,0-5.13,1.89,6.542,6.542,0,0,0-1.83,4.83,5.035,5.035,0,0,0,1.14,3.54,6.535,6.535,0,0,0,2.88,1.62l1.35.42a7.206,7.206,0,0,1,2.58,1.05,1.563,1.563,0,0,1,.57,1.2,1.789,1.789,0,0,1-.51,1.26,2.634,2.634,0,0,1-2.01.69A7.01,7.01,0,0,1,13.62-6ZM43.02-9.48v-3.93H40.29v-4.41h-4.8v4.41H33.96v3.93h1.53V0h4.8V-9.48ZM51.9,6.87h5.37L68.04-13.41H62.55L59.07-6.54,55.5-13.41H49.92L56.4-1.83ZM75.69-21.87V0h4.8V-21.87ZM103.98-6.33a7.508,7.508,0,0,0-2.13-5.64,7.346,7.346,0,0,0-5.16-1.83,7.551,7.551,0,0,0-5.49,1.95,7.157,7.157,0,0,0-2.01,5.19,7.023,7.023,0,0,0,1.98,5.07A7.605,7.605,0,0,0,96.72.45c2.91,0,4.47-.9,5.46-1.86a6.028,6.028,0,0,0,1.62-2.76H99.21a2.234,2.234,0,0,1-.84.9,3.787,3.787,0,0,1-1.56.36,2.7,2.7,0,0,1-1.98-.66,3.387,3.387,0,0,1-.84-2.25h9.99ZM94.14-8.58a2.737,2.737,0,0,1,.72-1.44,2.579,2.579,0,0,1,1.95-.72,2.8,2.8,0,0,1,1.98.72,3.218,3.218,0,0,1,.78,1.44Zm-158.5,22.67V34.1h5.19V26.42l4.98,7.68h6.45l-6.27-8.19a5.605,5.605,0,0,0,2.76-1.38,5.774,5.774,0,0,0,1.59-4.17,6.586,6.586,0,0,0-1.71-4.5,6.465,6.465,0,0,0-4.89-1.77Zm5.19,4.02h.99a3.523,3.523,0,0,1,2.49.78A2.36,2.36,0,0,1-55,20.57a2.491,2.491,0,0,1-.66,1.68,3.9,3.9,0,0,1-2.52.81h-.99Zm33.39,9.66a7.508,7.508,0,0,0-2.13-5.64,7.346,7.346,0,0,0-5.16-1.83,7.551,7.551,0,0,0-5.49,1.95,7.157,7.157,0,0,0-2.01,5.19,7.023,7.023,0,0,0,1.98,5.07,7.605,7.605,0,0,0,5.55,2.04c2.91,0,4.47-.9,5.46-1.86a6.028,6.028,0,0,0,1.62-2.76h-4.59a2.234,2.234,0,0,1-.84.9,3.787,3.787,0,0,1-1.56.36,2.7,2.7,0,0,1-1.98-.66,3.387,3.387,0,0,1-.84-2.25h9.99Zm-9.84-2.25a2.737,2.737,0,0,1,.72-1.44,2.579,2.579,0,0,1,1.95-.72,2.8,2.8,0,0,1,1.98.72,3.218,3.218,0,0,1,.78,1.44Zm27.12-.9V20.69h-3.36V18.8a3.549,3.549,0,0,1,.54-2.25,1.726,1.726,0,0,1,1.35-.51,3.012,3.012,0,0,1,1.5.45V12.35a6.093,6.093,0,0,0-2.31-.45,5.581,5.581,0,0,0-4.65,2.13,6.9,6.9,0,0,0-1.23,4.41v2.25h-1.68v3.93h1.68V34.1h4.8V24.62Zm15.36-.3a3.3,3.3,0,0,1,2.13.87,3.257,3.257,0,0,1,.93,2.19,2.959,2.959,0,0,1-.93,2.13,3.006,3.006,0,0,1-4.29,0,2.973,2.973,0,0,1,0-4.32A3.317,3.317,0,0,1,6.855,24.32Zm8.04,3.06a6.628,6.628,0,0,0-2.07-4.92,8.471,8.471,0,0,0-6-2.22,8.373,8.373,0,0,0-5.97,2.22,6.628,6.628,0,0,0-2.07,4.92,6.692,6.692,0,0,0,2.07,4.95,8.04,8.04,0,0,0,5.97,2.22,8.046,8.046,0,0,0,6-2.22A6.692,6.692,0,0,0,14.9,27.38Zm8.76,6.72h4.8V28.37a4.047,4.047,0,0,1,1.08-3.06,3.145,3.145,0,0,1,2.19-.72,4.234,4.234,0,0,1,2.07.48V20.54c-.63-.03-.84-.06-.96-.06a5.236,5.236,0,0,0-2.49.54,4.327,4.327,0,0,0-1.89,1.86V20.69h-4.8Zm18.27,0h4.8V27.47a3.964,3.964,0,0,1,.84-2.94,1.69,1.69,0,0,1,1.32-.48,1.861,1.861,0,0,1,1.44.54,4.29,4.29,0,0,1,.63,2.88V34.1h4.8V27.23a3.428,3.428,0,0,1,.87-2.55,1.943,1.943,0,0,1,1.41-.54,1.751,1.751,0,0,1,1.26.45c.54.51.69,1.47.69,2.88V34.1h4.8V25.37a4.927,4.927,0,0,0-1.26-3.69,5.33,5.33,0,0,0-3.72-1.23,5.439,5.439,0,0,0-2.79.66,4.712,4.712,0,0,0-1.83,1.86,4.189,4.189,0,0,0-1.86-1.92,5.459,5.459,0,0,0-2.58-.6,5.152,5.152,0,0,0-4.02,1.86V20.69h-4.8Z" transform="translate(105.09 21.87)" fill="#fff"/>
</svg>
