<svg xmlns="http://www.w3.org/2000/svg" width="336.78" height="338.5" viewBox="0 0 336.78 338.5">
  <g id="グループ_953" data-name="グループ 953" transform="translate(-22.5 -7302)">
    <line id="線_110" data-name="線 110" y2="156" transform="translate(188.5 7484.5)" fill="none" stroke="#707070" stroke-width="1"/>
    <g id="グループ_952" data-name="グループ 952">
      <path id="パス_12460" data-name="パス 12460" d="M10.38-8.22a2.441,2.441,0,0,1-.768.1H2.46a9.221,9.221,0,0,1-1.224-.1v1.08c.24-.024.756-.072,1.224-.072H9.516A14.717,14.717,0,0,1,5.772-3.048C4.956-3.78,3.972-4.572,3.528-4.9l-.78.624A28.316,28.316,0,0,1,5.5-1.908,28.787,28.787,0,0,1,7.656.54l.876-.7C8.052-.744,7.2-1.644,6.48-2.364a18.784,18.784,0,0,0,4.368-4.872,3.4,3.4,0,0,1,.3-.372Zm12.264.048a2.116,2.116,0,0,1-.792.12H18.576c.1-.156.18-.3.252-.444.12-.228.336-.636.528-.948l-1.08-.348a5.156,5.156,0,0,1-.384.96A10.7,10.7,0,0,1,14.04-4.668l.8.624A13.02,13.02,0,0,0,18.024-7.2H22.1A10.034,10.034,0,0,1,20.556-4c-.936-.564-1.944-1.14-2.64-1.5l-.612.708c.672.372,1.68.972,2.628,1.584a10.516,10.516,0,0,1-4.74,2.988l.864.744a11.37,11.37,0,0,0,4.7-3.192c.456.312.852.6,1.14.828l.66-.864c-.3-.216-.708-.492-1.164-.78a12.208,12.208,0,0,0,1.752-3.564,5.257,5.257,0,0,1,.276-.648ZM27.024-.72c.408-.024.828-.06,1.26-.06h7.188c.324,0,.732.024,1.092.06V-1.872a8.215,8.215,0,0,1-1.092.06H28.284c-.432,0-.852-.024-1.26-.06Zm1.032-6.012q.558-.036,1.188-.036H34.38c.4,0,.852.012,1.188.036v-1.08a11.528,11.528,0,0,1-1.188.06H29.232c-.384,0-.792-.024-1.176-.06ZM47.4-7.92c.348,0,.768.012,1.116.036v-1a8.854,8.854,0,0,1-1.116.072H42.54a9.982,9.982,0,0,1-1.08-.072v1c.3-.024.7-.036,1.092-.036ZM41.076-5.808a9.417,9.417,0,0,1-1.044-.06v1c.324-.024.672-.024,1.044-.024h3.588a5.809,5.809,0,0,1-.7,2.976A4.968,4.968,0,0,1,41.7-.084l.888.648A5.753,5.753,0,0,0,44.952-1.62,7.264,7.264,0,0,0,45.66-4.9h3.264c.288,0,.672.012.936.024v-1a6.433,6.433,0,0,1-.936.06Zm18.7-1.428a12.369,12.369,0,0,1-3.1,2.472A15.852,15.852,0,0,1,52.512-3.12l.516.876A20.9,20.9,0,0,0,56.8-3.78V-.108c0,.36-.024.852-.048,1.032h1.1a6.014,6.014,0,0,1-.06-1.032V-4.356a14.735,14.735,0,0,0,2.724-2.172ZM65.3-4.02c.372-.036,1.008-.06,1.668-.06H73.56c.54,0,1.044.048,1.284.06V-5.2c-.264.024-.7.06-1.3.06H66.972c-.672,0-1.308-.036-1.668-.06ZM80.58-9.96a12.331,12.331,0,0,1-3.252,4.812,5.107,5.107,0,0,1,.54.9,12.175,12.175,0,0,0,1.416-1.584V.9h.876V-7.116a17.828,17.828,0,0,0,1.308-2.568Zm7.86,3.828V-7H84.972v-2.88H84.1V-7H80.724v.864h2.9A12.191,12.191,0,0,1,80.3-1.224a5.177,5.177,0,0,1,.672.684A13.4,13.4,0,0,0,84.1-5.16V.924h.876V-5.412A14.568,14.568,0,0,0,88.08-.588a3.2,3.2,0,0,1,.672-.72,12.661,12.661,0,0,1-3.264-4.824Zm12.7-3.372H98.088v.768h2.256v2.16H98.088v.768h3.048ZM93.048-8.412V-5.7h-1.38V-8.412Zm-1.38,6.3v-2.8h1.38v2.8ZM93.792-9.2H90.936V-.372h.732v-.936h2.124Zm3.036.456v2.2H95.364v-2.2ZM97.572-1.5v-.756H95.364V-3.744h2V-4.5h-2V-5.784H97.62V-9.5H94.536V.888h.828V-1.5Zm2.76-2.628a7.693,7.693,0,0,1-.876,2.184,8.453,8.453,0,0,1-.8-2.184Zm.42-.78-.132.024H97.728v.756h.864L97.98-4a10.915,10.915,0,0,0,.984,2.724A5.259,5.259,0,0,1,96.912.252,2.435,2.435,0,0,1,97.368.9a6.14,6.14,0,0,0,2.04-1.464,4.764,4.764,0,0,0,1.548,1.44,3.215,3.215,0,0,1,.552-.648,4.377,4.377,0,0,1-1.6-1.416,8.709,8.709,0,0,0,1.356-3.576ZM109.86-7.98a.907.907,0,0,0-.9-.9.907.907,0,0,0-.9.9.907.907,0,0,0,.9.9A.907.907,0,0,0,109.86-7.98ZM105-8.868l-.348.348,3.96,3.96L104.64-.588l.348.348,3.972-3.972,3.96,3.96.348-.348-3.96-3.96,3.96-3.96-.348-.348-3.96,3.96Zm.54,3.408a.907.907,0,0,0-.9.9.907.907,0,0,0,.9.9.907.907,0,0,0,.9-.9A.907.907,0,0,0,105.54-5.46Zm6.84,1.8a.907.907,0,0,0,.9-.9.907.907,0,0,0-.9-.9.907.907,0,0,0-.9.9A.907.907,0,0,0,112.38-3.66Zm-4.32,2.52a.907.907,0,0,0,.9.9.907.907,0,0,0,.9-.9.907.907,0,0,0-.9-.9A.907.907,0,0,0,108.06-1.14Z" transform="translate(246 7318)"/>
      <path id="パス_12461" data-name="パス 12461" d="M3.516-8.448v2.664H1.776V-8.448ZM1.776-2.232V-5h1.74v2.772Zm2.58-7.02H.96v8.8h.816v-.972h2.58Zm.984,6.72A9.256,9.256,0,0,1,6.864-.42L7.62-.9A8.484,8.484,0,0,0,6.06-2.94Zm6.192-2.976V-6.3h-3.1V-7.824h2.58v-.792H8.436v-1.428H7.56v1.428h-2.5v.792h2.5V-6.3H4.548v.792h4.6v1.356H4.608v.792H9.144v3.2c0,.18-.06.228-.264.24S8.028.1,7.284.072A2.725,2.725,0,0,1,7.572.9,6.866,6.866,0,0,0,9.516.756c.36-.132.492-.4.492-.9V-3.36H11.4v-.792H10.008V-5.508Zm6.024-3.324v1H14.964v-1ZM14.964-6.12V-7.176h2.592V-6.12Zm3.444.684V-9.528H14.076V.924h.888v-6.36ZM20.34-3.852v1.116H17.52V-3.852ZM17.52-.9V-2.064h2.82V-.9Zm3.648.708V-4.536H16.716V.408h.8v-.6Zm-.84-5.916V-7.176h2.688v1.068Zm2.688-2.724v1H20.328v-1Zm.9-.7h-4.44v4.1h3.54V-.276c0,.216-.072.288-.276.288S21.792.036,21.06,0a3.287,3.287,0,0,1,.312.912A6.83,6.83,0,0,0,23.388.756c.4-.156.528-.456.528-1.02ZM28.608-3.9V-5.184H31.44V-3.9Zm0-3.276H31.44v1.284H28.608Zm6.708,1.284H32.34V-7.176h2.976Zm0,1.992H32.34V-5.184h2.976ZM37.26-2.052H32.34V-3.144h3.888V-7.932h-1.26c.4-.516.84-1.176,1.212-1.776l-.96-.312a12.546,12.546,0,0,1-1.26,2.088H31.824l.684-.276a8.209,8.209,0,0,0-.984-1.848l-.792.3a7.913,7.913,0,0,1,.924,1.824h-2.58l.612-.312a9.781,9.781,0,0,0-1.224-1.668l-.756.336a9.161,9.161,0,0,1,1.128,1.644h-1.1v4.788H31.44v1.092H26.6v.828H31.44V.924h.9V-1.224h4.92Zm5.568-5.64v.84h7.284v-.84H46.836V-9.9h-.9v2.208Zm2.76,6.456a30.48,30.48,0,0,0-.972-4.812l-.792.144a29.687,29.687,0,0,1,.888,4.86Zm-3.36-8.772a13.185,13.185,0,0,1-3.072,4.7,7.557,7.557,0,0,1,.516.876,12.357,12.357,0,0,0,1.32-1.56V.876h.84V-7.272a18.2,18.2,0,0,0,1.224-2.472ZM47.544-.48a50.219,50.219,0,0,0,1.584-5.508l-.96-.168A39.617,39.617,0,0,1,46.68-.48H42.54V.36h7.872V-.48Zm13.08-5.748-.612.264A11.14,11.14,0,0,1,61-4.272l.612-.288A14.243,14.243,0,0,0,60.624-6.228Zm1.308-.5-.6.276a10.689,10.689,0,0,1,1.02,1.668l.624-.288A18.126,18.126,0,0,0,61.932-6.732ZM52.836-7.9l.108,1.056c1.284-.264,4.524-.576,5.568-.7A4.8,4.8,0,0,0,56.3-3.528C56.3-.876,58.812.3,61.008.4l.348-1.008c-1.932-.072-4.092-.8-4.092-3.12a4.155,4.155,0,0,1,2.712-3.756A9.847,9.847,0,0,1,62.3-7.68v-.96c-.792.036-1.908.1-3.2.2-2.184.192-4.428.408-5.208.48C53.664-7.932,53.292-7.908,52.836-7.9ZM69.528-6.864h-2.34v-1.6h2.34Zm-2.34,3.276h2.34v1.476c-.8.12-1.608.24-2.34.336Zm2.34-.816h-2.34V-6.072h2.34Zm1.7-4.056v-.828h-5.82v.828h.936v6.8c-.432.06-.828.108-1.164.144l.156.9c1.14-.192,2.676-.42,4.188-.672V.888h.864V-8.46Zm4.152.024-.168.036H70.932v.876h4.044a13.166,13.166,0,0,1-1.488,4.488,15.456,15.456,0,0,1-1.476-4.44l-.852.156A16.712,16.712,0,0,0,72.948-2.2a7.321,7.321,0,0,1-2.52,2.22,3.428,3.428,0,0,1,.588.72,8.564,8.564,0,0,0,2.448-2.136A7.507,7.507,0,0,0,75.852.78a3.719,3.719,0,0,1,.636-.732,6.665,6.665,0,0,1-2.472-2.232A14.594,14.594,0,0,0,75.96-8.268Zm12.108.408H83.544v-.96h3.948Zm0,1.62H83.544V-7.38h3.948ZM88.38-9.66h-5.7v3.936h5.7ZM80.8-10a9.2,9.2,0,0,1-2.544,2.448,3.889,3.889,0,0,1,.468.72,12,12,0,0,0,2.928-2.844Zm.216,2.616A11.262,11.262,0,0,1,78.06-4.14a5.589,5.589,0,0,1,.468.852,11.583,11.583,0,0,0,1.4-1.3v5.5h.876v-6.5a13.714,13.714,0,0,0,.984-1.476ZM82.7-1.752A10.755,10.755,0,0,1,84.18-.012l.684-.48A10.562,10.562,0,0,0,83.34-2.16Zm6.456-1.38H87.372v-1.02h1.572V-4.92h-7v.768h4.536v1.02H81.672v.768h4.812v2.28c0,.156-.048.2-.24.216-.168.012-.768.012-1.44-.012a3.015,3.015,0,0,1,.288.816A6.146,6.146,0,0,0,86.916.792c.348-.144.456-.372.456-.852v-2.3H89.16ZM99.5-6.228l-.612.264a11.14,11.14,0,0,1,.984,1.692l.612-.288A14.243,14.243,0,0,0,99.5-6.228Zm1.308-.5-.6.276a10.689,10.689,0,0,1,1.02,1.668l.624-.288A18.128,18.128,0,0,0,100.812-6.732ZM91.716-7.9l.108,1.056c1.284-.264,4.524-.576,5.568-.7a4.8,4.8,0,0,0-2.208,4.008C95.184-.876,97.692.3,99.888.4l.348-1.008c-1.932-.072-4.092-.8-4.092-3.12a4.155,4.155,0,0,1,2.712-3.756,9.846,9.846,0,0,1,2.328-.192v-.96c-.792.036-1.908.1-3.2.2-2.184.192-4.428.408-5.208.48C92.544-7.932,92.172-7.908,91.716-7.9Zm14.5,4.68a5.366,5.366,0,0,0-.276,1.488c0,1.488,1.248,2.22,3.372,2.22a18.406,18.406,0,0,0,2.868-.228l.024-.972a14.272,14.272,0,0,1-2.928.276c-1.692,0-2.412-.576-2.412-1.488a4.065,4.065,0,0,1,.276-1.212Zm7.572-3.252a12.392,12.392,0,0,1-2.2.588c-.2-.444-.372-.816-.468-1.068L110.9-7.44a16.414,16.414,0,0,0,2.208-.5l-.168-.852a13.376,13.376,0,0,1-2.364.564,12.206,12.206,0,0,1-.444-1.32l-1.08.228a8.566,8.566,0,0,1,.444.84c.048.108.1.228.156.36a21.609,21.609,0,0,1-3.888-.1l.06.876A24.367,24.367,0,0,0,110-7.32c.084.192.168.408.264.612l.42.972a23.724,23.724,0,0,1-4.992.024l.036.876a28.568,28.568,0,0,0,5.316-.108c.276.624.552,1.248.78,1.716-.372-.036-.936-.1-1.512-.168l-.084.732c.756.1,1.716.228,2.316.336l.468-.588c-.336-.624-.72-1.428-1.068-2.184a15.829,15.829,0,0,0,2.016-.5ZM122.628-.4c-.888,0-1.572-.336-1.572-.924,0-.408.408-.732.948-.732a1.587,1.587,0,0,1,1.572,1.584A5.853,5.853,0,0,1,122.628-.4Zm2.448-8.628a4.255,4.255,0,0,1-.648.1c-.624.06-3.444.144-4.056.144a6.747,6.747,0,0,1-.84-.036l.024,1a5.721,5.721,0,0,1,.8-.072c.612-.036,2.952-.144,3.576-.168-.588.528-2.064,1.776-2.724,2.328-.7.576-2.22,1.848-3.2,2.664l.7.708c1.512-1.536,2.592-2.364,4.548-2.364,1.5,0,2.676.852,2.676,2.016A2.072,2.072,0,0,1,124.452-.7,2.346,2.346,0,0,0,122-2.8a1.688,1.688,0,0,0-1.836,1.56c0,.984,1,1.7,2.616,1.7,2.508,0,4.1-1.248,4.1-3.168,0-1.608-1.428-2.808-3.408-2.808a5.049,5.049,0,0,0-1.608.252c.912-.768,2.508-2.172,3.1-2.616.18-.132.444-.312.66-.456Z" transform="translate(210 7454)"/>
      <g id="グループ_779" data-name="グループ 779" transform="translate(-286 1323)">
        <path id="パス_12358" data-name="パス 12358" d="M19.556-58.271H-1.362L-4.7-47.021q.747-.088,1.428-.132t1.252-.044a21.351,21.351,0,0,1,16.216,6.68q6.372,6.636,6.372,17.007,0,10.723-7.207,17.666T-4.79,1.1q-13.491,0-21.27-12.656l7.734-6.548q3.208,5.449,6.46,7.69a13.878,13.878,0,0,0,7.954,2.2A13.809,13.809,0,0,0,6.416-12.524a15.142,15.142,0,0,0,4.175-10.767A14.394,14.394,0,0,0,6.46-33.926,13.788,13.788,0,0,0-3.867-38.188q-6.9,0-11.909,6.021H-19.16L-8.481-67.852H19.556Z" transform="translate(562 6092)" fill="#1778b1"/>
        <text id="年" transform="translate(509 6089)" fill="#1778b1" font-size="14" font-family="NotoSansCJKjp-Bold, Noto Sans CJK JP" font-weight="700" letter-spacing="0.08em"><tspan x="0" y="0">年</tspan></text>
        <text id="日間" transform="translate(592 6089)" fill="#1778b1" font-size="14" font-family="NotoSansCJKjp-Bold, Noto Sans CJK JP" font-weight="700" letter-spacing="0.08em"><tspan x="0" y="0">日間</tspan></text>
      </g>
      <g id="グループ_780" data-name="グループ 780" transform="translate(202 7302)">
        <rect id="長方形_81" data-name="長方形 81" width="5.753" height="2.685" transform="translate(0 20.015)" fill="#1778b1"/>
        <rect id="長方形_82" data-name="長方形 82" width="5.752" height="2.685" transform="translate(36.964 20.015)" fill="#1778b1"/>
        <path id="パス_84" data-name="パス 84" d="M26.248,338.462l1.343,2.327,4.982-2.877-1.343-2.326Z" transform="translate(-24.058 -307.588)" fill="#1778b1"/>
        <path id="パス_85" data-name="パス 85" d="M416.271,116.383l-1.343-2.326-4.982,2.877,1.343,2.326Z" transform="translate(-375.745 -104.541)" fill="#1778b1"/>
        <path id="パス_86" data-name="パス 86" d="M114.065,414.929l2.326,1.343,2.877-4.982-2.326-1.343Z" transform="translate(-104.549 -375.745)" fill="#1778b1"/>
        <path id="パス_87" data-name="パス 87" d="M340.8,27.591l-2.327-1.343L335.6,31.23l2.326,1.343Z" transform="translate(-307.597 -24.058)" fill="#1778b1"/>
        <rect id="長方形_83" data-name="長方形 83" width="2.685" height="5.752" transform="translate(20.016 36.964)" fill="#1778b1"/>
        <rect id="長方形_84" data-name="長方形 84" width="2.685" height="5.752" transform="translate(20.016 0)" fill="#1778b1"/>
        <path id="パス_88" data-name="パス 88" d="M335.6,411.29l2.875,4.982,2.327-1.343-2.877-4.982Z" transform="translate(-307.597 -375.745)" fill="#1778b1"/>
        <path id="パス_89" data-name="パス 89" d="M119.267,31.23l-2.877-4.982-2.326,1.343,2.877,4.982Z" transform="translate(-104.549 -24.058)" fill="#1778b1"/>
        <path id="パス_90" data-name="パス 90" d="M409.947,337.912l4.982,2.877,1.343-2.327-4.982-2.876Z" transform="translate(-375.745 -307.588)" fill="#1778b1"/>
        <path id="パス_91" data-name="パス 91" d="M32.572,116.934l-4.982-2.877-1.343,2.326,4.982,2.877Z" transform="translate(-24.058 -104.541)" fill="#1778b1"/>
        <path id="パス_92" data-name="パス 92" d="M112.956,99.926a13.021,13.021,0,1,0,13.021,13.021A13.021,13.021,0,0,0,112.956,99.926Z" transform="translate(-91.597 -91.589)" fill="#1778b1"/>
      </g>
      <line id="線_109" data-name="線 109" y2="156" transform="translate(188.5 7302.5)" fill="none" stroke="#707070" stroke-width="1"/>
      <g id="グループ_766" data-name="グループ 766" transform="translate(-96.659 7304)">
        <path id="パス_173" data-name="パス 173" d="M182.177,128.33a48.91,48.91,0,0,0-13.46,23.053s-22.3,14.022-13.581,44.987h26.212l3.867,29.281a8.46,8.46,0,0,0,8.389,7.355h1.481a8.462,8.462,0,0,0,8.463-8.462V196.37h3.44V129.64C206.987,119.608,192.188,118.72,182.177,128.33Z" transform="translate(0 -86.896)" fill="#1778b1"/>
        <path id="パス_174" data-name="パス 174" d="M267.17,0a15.265,15.265,0,1,0,15.264,15.265A15.267,15.267,0,0,0,267.17,0Z" transform="translate(-70.601)" fill="#1778b1"/>
      </g>
      <g id="グループ_781" data-name="グループ 781" transform="translate(-739 1379)">
        <path id="パス_12462" data-name="パス 12462" d="M10.38-8.22a2.441,2.441,0,0,1-.768.1H2.46a9.221,9.221,0,0,1-1.224-.1v1.08c.24-.024.756-.072,1.224-.072H9.516A14.717,14.717,0,0,1,5.772-3.048C4.956-3.78,3.972-4.572,3.528-4.9l-.78.624A28.316,28.316,0,0,1,5.5-1.908,28.787,28.787,0,0,1,7.656.54l.876-.7C8.052-.744,7.2-1.644,6.48-2.364a18.784,18.784,0,0,0,4.368-4.872,3.4,3.4,0,0,1,.3-.372Zm12.264.048a2.116,2.116,0,0,1-.792.12H18.576c.1-.156.18-.3.252-.444.12-.228.336-.636.528-.948l-1.08-.348a5.156,5.156,0,0,1-.384.96A10.7,10.7,0,0,1,14.04-4.668l.8.624A13.02,13.02,0,0,0,18.024-7.2H22.1A10.034,10.034,0,0,1,20.556-4c-.936-.564-1.944-1.14-2.64-1.5l-.612.708c.672.372,1.68.972,2.628,1.584a10.516,10.516,0,0,1-4.74,2.988l.864.744a11.37,11.37,0,0,0,4.7-3.192c.456.312.852.6,1.14.828l.66-.864c-.3-.216-.708-.492-1.164-.78a12.208,12.208,0,0,0,1.752-3.564,5.257,5.257,0,0,1,.276-.648ZM27.024-.72c.408-.024.828-.06,1.26-.06h7.188c.324,0,.732.024,1.092.06V-1.872a8.215,8.215,0,0,1-1.092.06H28.284c-.432,0-.852-.024-1.26-.06Zm1.032-6.012q.558-.036,1.188-.036H34.38c.4,0,.852.012,1.188.036v-1.08a11.528,11.528,0,0,1-1.188.06H29.232c-.384,0-.792-.024-1.176-.06ZM47.4-7.92c.348,0,.768.012,1.116.036v-1a8.854,8.854,0,0,1-1.116.072H42.54a9.982,9.982,0,0,1-1.08-.072v1c.3-.024.7-.036,1.092-.036ZM41.076-5.808a9.417,9.417,0,0,1-1.044-.06v1c.324-.024.672-.024,1.044-.024h3.588a5.809,5.809,0,0,1-.7,2.976A4.968,4.968,0,0,1,41.7-.084l.888.648A5.753,5.753,0,0,0,44.952-1.62,7.264,7.264,0,0,0,45.66-4.9h3.264c.288,0,.672.012.936.024v-1a6.433,6.433,0,0,1-.936.06Zm18.7-1.428a12.369,12.369,0,0,1-3.1,2.472A15.852,15.852,0,0,1,52.512-3.12l.516.876A20.9,20.9,0,0,0,56.8-3.78V-.108c0,.36-.024.852-.048,1.032h1.1a6.014,6.014,0,0,1-.06-1.032V-4.356a14.735,14.735,0,0,0,2.724-2.172ZM65.3-4.02c.372-.036,1.008-.06,1.668-.06H73.56c.54,0,1.044.048,1.284.06V-5.2c-.264.024-.7.06-1.3.06H66.972c-.672,0-1.308-.036-1.668-.06ZM3.54,10.04A12.331,12.331,0,0,1,.288,14.852a5.107,5.107,0,0,1,.54.9,12.175,12.175,0,0,0,1.416-1.584V20.9H3.12V12.884a17.828,17.828,0,0,0,1.308-2.568Zm7.86,3.828V13H7.932v-2.88H7.056V13H3.684v.864h2.9a12.191,12.191,0,0,1-3.324,4.908,5.177,5.177,0,0,1,.672.684,13.4,13.4,0,0,0,3.12-4.62v6.084h.876V14.588a14.568,14.568,0,0,0,3.108,4.824,3.2,3.2,0,0,1,.672-.72,12.661,12.661,0,0,1-3.264-4.824Zm9.348-1.02a10.97,10.97,0,0,1-.612,1.248l.12.036h-2.82l.384-.084a4.663,4.663,0,0,0-.6-1.2Zm3.444,5.22v-.756H19.38v-.888h3.756V15.74H19.38v-.876h4.344v-.732H21c.24-.36.5-.828.744-1.284h2.4V12.08h-1.86a16.78,16.78,0,0,0,1.056-1.728l-.912-.24a13.614,13.614,0,0,1-.912,1.824l.444.144H20.508V9.956h-.84V12.08H18.24V9.956h-.828V12.08H15.936l.612-.228a8.271,8.271,0,0,0-1.02-1.764l-.756.252a9.354,9.354,0,0,1,.948,1.74H13.812v.768H16.74l-.42.084a5.039,5.039,0,0,1,.588,1.2H14.292v.732H18.5v.876H14.892v.684H18.5v.888h-4.74v.756h3.924a11.565,11.565,0,0,1-4.236,1.9,3.821,3.821,0,0,1,.576.756A12.059,12.059,0,0,0,18.5,18.356v2.556h.876V18.3a11.328,11.328,0,0,0,4.512,2.46,3.209,3.209,0,0,1,.6-.792,10.979,10.979,0,0,1-4.284-1.9Z" transform="translate(998 6121)"/>
        <path id="パス_12467" data-name="パス 12467" d="M6.012-1.392c0,.816-.576,1.02-1.26,1.02-1.176,0-1.644-.408-1.644-.96S3.72-2.3,4.848-2.3A6.05,6.05,0,0,1,6-2.2C6-1.872,6.012-1.6,6.012-1.392Zm4.332.408A9.755,9.755,0,0,0,6.888-2.832c-.024-.564-.06-1.188-.084-1.8,1.128-.048,2.184-.132,3.3-.276l-.012-.9a32.058,32.058,0,0,1-3.3.312V-7.2c1.116-.06,2.136-.156,3.072-.252l-.012-.876A26.424,26.424,0,0,1,6.8-8.04c0-.288,0-.516.012-.66a6.116,6.116,0,0,1,.06-.792H5.856a6.652,6.652,0,0,1,.036.708V-8H5.28A18.945,18.945,0,0,1,2.5-8.232v.888c.708.084,1.968.18,2.8.18H5.88v1.7H5.244a21.141,21.141,0,0,1-2.988-.228v.912c.852.1,2.172.168,2.988.168H5.9c.012.492.036,1.056.06,1.584a6.709,6.709,0,0,0-1-.072c-1.716,0-2.76.732-2.76,1.812C2.208-.132,3.156.48,4.86.48c1.548,0,2.1-.852,2.1-1.668,0-.18-.012-.444-.024-.744A8.826,8.826,0,0,1,9.8-.144Zm11.4-5.244-.612.264a11.14,11.14,0,0,1,.984,1.692l.612-.288A14.243,14.243,0,0,0,21.744-6.228Zm1.308-.5-.6.276a10.688,10.688,0,0,1,1.02,1.668l.624-.288A18.127,18.127,0,0,0,23.052-6.732ZM13.956-7.9l.108,1.056c1.284-.264,4.524-.576,5.568-.7a4.8,4.8,0,0,0-2.208,4.008C17.424-.876,19.932.3,22.128.4l.348-1.008c-1.932-.072-4.092-.8-4.092-3.12A4.155,4.155,0,0,1,21.1-7.488a9.847,9.847,0,0,1,2.328-.192v-.96c-.792.036-1.908.1-3.2.2-2.184.192-4.428.408-5.208.48C14.784-7.932,14.412-7.908,13.956-7.9ZM4.008,9.348a14.643,14.643,0,0,0,2.16-.636l-.66-.684A23.421,23.421,0,0,1,.552,9.192,2.554,2.554,0,0,1,.828,9.9c.744-.108,1.536-.228,2.316-.372v2.028H.636v.816H2.964A12.477,12.477,0,0,1,.372,16.428a5.787,5.787,0,0,1,.492.828,12.873,12.873,0,0,0,2.28-3.54v5.172h.864V14.16c.612.564,1.38,1.332,1.74,1.728l.516-.732c-.348-.312-1.716-1.488-2.256-1.908v-.876H6.3v-.816H4.008Zm3.96.036H7.1v6.564h.864ZM10.032,8.2v9.54c0,.228-.1.3-.312.3s-.984.012-1.824-.012a3.548,3.548,0,0,1,.324.9,8.154,8.154,0,0,0,2.16-.156c.372-.156.54-.432.54-1.044V8.2Zm9.432,6.216V12.42h3.228v1.992Zm-3.8,0c.036-.444.048-.888.048-1.284V12.42h2.868v1.992ZM18.576,9.66v1.92H15.708V9.66Zm4.116,1.92H19.464V9.66h3.228Zm.876-2.772H14.832v4.32c0,1.668-.12,3.78-1.44,5.268a2.912,2.912,0,0,1,.684.588,6.89,6.89,0,0,0,1.5-3.72h3V18.8h.888v-3.54h3.228V17.7c0,.228-.084.3-.324.312-.216,0-1.032.012-1.872-.024a3.527,3.527,0,0,1,.3.864,7.83,7.83,0,0,0,2.232-.144c.384-.156.54-.42.54-1ZM34.7,11.772l-.612.264a11.14,11.14,0,0,1,.984,1.692l.612-.288A14.243,14.243,0,0,0,34.7,11.772Zm1.308-.5-.6.276a10.688,10.688,0,0,1,1.02,1.668l.624-.288A18.127,18.127,0,0,0,36.012,11.268Zm-9.1-1.164.108,1.056c1.284-.264,4.524-.576,5.568-.7a4.8,4.8,0,0,0-2.208,4.008c0,2.652,2.508,3.828,4.7,3.924l.348-1.008c-1.932-.072-4.092-.8-4.092-3.12a4.155,4.155,0,0,1,2.712-3.756,9.847,9.847,0,0,1,2.328-.192V9.36c-.792.036-1.908.1-3.2.2-2.184.192-4.428.408-5.208.48C27.744,10.068,27.372,10.092,26.916,10.1Zm14.5,4.68a5.366,5.366,0,0,0-.276,1.488c0,1.488,1.248,2.22,3.372,2.22a18.406,18.406,0,0,0,2.868-.228l.024-.972a14.272,14.272,0,0,1-2.928.276c-1.692,0-2.412-.576-2.412-1.488a4.065,4.065,0,0,1,.276-1.212Zm7.572-3.252a12.393,12.393,0,0,1-2.2.588c-.2-.444-.372-.816-.468-1.068L46.1,10.56a16.414,16.414,0,0,0,2.208-.5L48.144,9.2a13.376,13.376,0,0,1-2.364.564,12.206,12.206,0,0,1-.444-1.32l-1.08.228a8.565,8.565,0,0,1,.444.84c.048.108.1.228.156.36a21.609,21.609,0,0,1-3.888-.1l.06.876a24.368,24.368,0,0,0,4.176.024c.084.192.168.408.264.612l.42.972a23.724,23.724,0,0,1-4.992.024l.036.876a28.568,28.568,0,0,0,5.316-.108c.276.624.552,1.248.78,1.716-.372-.036-.936-.1-1.512-.168l-.084.732c.756.1,1.716.228,2.316.336l.468-.588c-.336-.624-.72-1.428-1.068-2.184a15.829,15.829,0,0,0,2.016-.5ZM57.828,17.6c-.888,0-1.572-.336-1.572-.924,0-.408.408-.732.948-.732a1.587,1.587,0,0,1,1.572,1.584A5.853,5.853,0,0,1,57.828,17.6Zm2.448-8.628a4.255,4.255,0,0,1-.648.1c-.624.06-3.444.144-4.056.144a6.747,6.747,0,0,1-.84-.036l.024,1a5.721,5.721,0,0,1,.8-.072c.612-.036,2.952-.144,3.576-.168-.588.528-2.064,1.776-2.724,2.328-.7.576-2.22,1.848-3.2,2.664l.7.708c1.512-1.536,2.592-2.364,4.548-2.364,1.5,0,2.676.852,2.676,2.016A2.072,2.072,0,0,1,59.652,17.3,2.346,2.346,0,0,0,57.2,15.2a1.688,1.688,0,0,0-1.836,1.56c0,.984,1,1.7,2.616,1.7,2.508,0,4.1-1.248,4.1-3.168,0-1.608-1.428-2.808-3.408-2.808a5.05,5.05,0,0,0-1.608.252c.912-.768,2.508-2.172,3.1-2.616.18-.132.444-.312.66-.456Z" transform="translate(1022 6223)"/>
        <path id="パス_12466" data-name="パス 12466" d="M9.93-16.56A33.31,33.31,0,0,1,7.86-7.47C6.9-8.16,5.88-8.79,4.92-9.39c.54-2.22,1.14-4.68,1.68-7.17ZM11.1-19.2l-.51.06H7.14c.42-1.98.84-3.93,1.17-5.73l-2.67-.3c-.3,1.86-.69,3.93-1.11,6.03H1.38v2.58H3.99C3.21-12.93,2.4-9.42,1.68-6.9L3.96-5.67l.3-1.14c.84.54,1.65,1.14,2.46,1.74A12.884,12.884,0,0,1,1.56.21,9.528,9.528,0,0,1,3.27,2.43,15.606,15.606,0,0,0,8.85-3.33,21.634,21.634,0,0,1,11.73-.42l1.68-2.22a21.448,21.448,0,0,0-3.33-3.15A40.591,40.591,0,0,0,12.75-18.9Zm17.73,9.06v-2.64h-6.9v-8.49a41.321,41.321,0,0,0,5.94-1.77l-2.25-2.07c-3,1.32-8.34,2.43-13.05,3.06a9.468,9.468,0,0,1,.81,2.22c1.86-.21,3.84-.51,5.76-.87v7.92H12.48v2.64h6.66V-.96H12.87V1.68H28.32V-.96H21.93v-9.18Zm11.91-6.45a39.167,39.167,0,0,1-1.53,8.88c-.78-.69-1.59-1.35-2.4-1.95.45-2.16.93-4.56,1.35-6.93Zm3,13.71a21.022,21.022,0,0,0-2.43-2.88,47.426,47.426,0,0,0,2.1-13.23l-1.59-.21-.48.06H38.61c.36-2.01.69-3.99.96-5.79l-2.55-.24c-.24,1.83-.54,3.93-.9,6.03H33.66v2.55H35.7c-.63,3.54-1.29,7.02-1.89,9.48l2.16,1.38.27-1.2q.99.855,1.98,1.8A11.826,11.826,0,0,1,33.72.21a10.564,10.564,0,0,1,1.65,2.16,14.339,14.339,0,0,0,4.8-5.49A18.677,18.677,0,0,1,42.06-.69Zm15.54-6.9a29.181,29.181,0,0,1-2.7,2.88,29.212,29.212,0,0,1-.93-3.87H60.9V-13.2H47.58v-8.04H60.54v-2.49H45v9.66c0,4.5-.21,10.62-2.79,14.91a12.551,12.551,0,0,1,2.16,1.5c2.19-3.6,2.94-8.73,3.15-13.11h1.65v9.66c-.87.15-1.68.3-2.4.39l.72,2.61c2.43-.51,5.49-1.2,8.43-1.83l-.18-2.34-4.08.75v-9.24h1.77c.9,5.91,2.67,10.71,6.36,13.14A8.872,8.872,0,0,1,61.56.18a10.66,10.66,0,0,1-4.23-5.13c1.17-.9,2.52-2.07,3.75-3.21Zm.3-6.33v-2.4H48.87v2.4Zm15.18-7.68a32.65,32.65,0,0,1-.69,6.36c-1.68.15-3.27.27-4.23.3-.99.03-1.86.06-2.85,0l.27,3.24c.84-.15,2.19-.33,2.97-.42.66-.09,1.86-.21,3.21-.36C72.39-10.65,70.26-4.26,67.32-.3L70.41.93C73.32-3.81,75.42-10.62,76.53-15c1.11-.09,2.1-.15,2.7-.15,1.89,0,3.03.42,3.03,2.97,0,3.09-.42,6.81-1.32,8.67A2.349,2.349,0,0,1,78.51-2.1a15.855,15.855,0,0,1-3.66-.63L75.36.39a16.272,16.272,0,0,0,3.51.45c2.1,0,3.63-.57,4.59-2.58C84.72-4.29,85.17-9,85.17-12.51c0-4.14-2.19-5.34-5.07-5.34-.69,0-1.74.06-2.97.15.27-1.35.54-2.79.72-3.69.12-.66.27-1.41.42-2.04Zm10.95,4.53c2.1,2.55,4.35,7.86,5.19,11.01l2.94-1.41a53.173,53.173,0,0,0-5.34-10.8Zm20.82-1.59c2.28.6,8.82,1.95,11.73,2.34l.69-2.91a86.108,86.108,0,0,1-11.67-2.28Zm.48,2.79-3.18-.42a110.457,110.457,0,0,1-1.5,12.21l2.76.66a6.8,6.8,0,0,1,.99-1.59,11.147,11.147,0,0,1,8.76-3.72c2.85,0,4.89,1.53,4.89,3.72,0,3.93-4.65,6.39-13.83,5.22l.93,3.09c11.58.96,16.14-2.88,16.14-8.25,0-3.51-3.06-6.48-7.89-6.48a14.341,14.341,0,0,0-9.21,3.24C106.11-12.21,106.62-16.2,107.01-18.06ZM18.84,41.1h6.87V38.94H18.84V36.18h7.68V33.96H18.84V31.5H16.11v2.46h-3.9c.3-.63.57-1.29.81-1.95l-2.49-.57a14.729,14.729,0,0,1-3.81,6.03,16.182,16.182,0,0,1,2.22,1.35,16.079,16.079,0,0,0,2.04-2.64h5.13v2.76H9.57V41.1h6.54v3.3h-9v2.37H28.23V44.4H18.84Zm.84-16.41A34.21,34.21,0,0,1,18.3,28.2l.75.24H10.98l1.08-.3a12.73,12.73,0,0,0-1.38-3.45Zm1.2,3.75c.63-1.02,1.38-2.37,2.13-3.66l-.39-.09h4.26V22.26H16.44V19.8H13.65v2.46H3.33v2.43h5.7l-1.08.27A16.275,16.275,0,0,1,9.3,28.44H3.69v4.74c0,3.54-.27,8.67-2.67,12.36a13.081,13.081,0,0,1,2.13,1.77c2.7-4.02,3.21-10.11,3.21-14.13V30.87H28.38V28.44Zm20.07-8.43a31.236,31.236,0,0,1-7.89,11.73,18.661,18.661,0,0,1,1.65,2.88,28.1,28.1,0,0,0,3.06-3.39V47.28h2.76V27.24a44.934,44.934,0,0,0,3.18-6.36Zm19.92,9.96V27.24H52.62V20.28H49.86v6.96H41.85v2.73H48.6c-1.83,4.62-4.8,9.21-7.98,11.67a13.171,13.171,0,0,1,2.07,2.22,32.588,32.588,0,0,0,7.17-10.38V47.37h2.76V32.73c1.86,4.35,4.32,8.43,6.99,10.95a10.694,10.694,0,0,1,2.1-2.25c-2.97-2.46-5.85-6.96-7.65-11.46Z" transform="translate(950 6194)" fill="#1778b1"/>
        <g id="グループ_172" data-name="グループ 172" transform="translate(945 6105)">
          <rect id="長方形_81-2" data-name="長方形 81" width="5.753" height="2.685" transform="translate(0 20.015)" fill="#1778b1"/>
          <rect id="長方形_82-2" data-name="長方形 82" width="5.752" height="2.685" transform="translate(36.964 20.015)" fill="#1778b1"/>
          <path id="パス_84-2" data-name="パス 84" d="M26.248,338.462l1.343,2.327,4.982-2.877-1.343-2.326Z" transform="translate(-24.058 -307.588)" fill="#1778b1"/>
          <path id="パス_85-2" data-name="パス 85" d="M416.271,116.383l-1.343-2.326-4.982,2.877,1.343,2.326Z" transform="translate(-375.745 -104.541)" fill="#1778b1"/>
          <path id="パス_86-2" data-name="パス 86" d="M114.065,414.929l2.326,1.343,2.877-4.982-2.326-1.343Z" transform="translate(-104.549 -375.745)" fill="#1778b1"/>
          <path id="パス_87-2" data-name="パス 87" d="M340.8,27.591l-2.327-1.343L335.6,31.23l2.326,1.343Z" transform="translate(-307.597 -24.058)" fill="#1778b1"/>
          <rect id="長方形_83-2" data-name="長方形 83" width="2.685" height="5.752" transform="translate(20.016 36.964)" fill="#1778b1"/>
          <rect id="長方形_84-2" data-name="長方形 84" width="2.685" height="5.752" transform="translate(20.016 0)" fill="#1778b1"/>
          <path id="パス_88-2" data-name="パス 88" d="M335.6,411.29l2.875,4.982,2.327-1.343-2.877-4.982Z" transform="translate(-307.597 -375.745)" fill="#1778b1"/>
          <path id="パス_89-2" data-name="パス 89" d="M119.267,31.23l-2.877-4.982-2.326,1.343,2.877,4.982Z" transform="translate(-104.549 -24.058)" fill="#1778b1"/>
          <path id="パス_90-2" data-name="パス 90" d="M409.947,337.912l4.982,2.877,1.343-2.327-4.982-2.876Z" transform="translate(-375.745 -307.588)" fill="#1778b1"/>
          <path id="パス_91-2" data-name="パス 91" d="M32.572,116.934l-4.982-2.877-1.343,2.326,4.982,2.877Z" transform="translate(-24.058 -104.541)" fill="#1778b1"/>
          <path id="パス_92-2" data-name="パス 92" d="M112.956,99.926a13.021,13.021,0,1,0,13.021,13.021A13.021,13.021,0,0,0,112.956,99.926Z" transform="translate(-91.597 -91.589)" fill="#1778b1"/>
        </g>
      </g>
      <g id="グループ_773" data-name="グループ 773" transform="translate(-936 1379)">
        <path id="パス_12463" data-name="パス 12463" d="M10.38-8.22a2.441,2.441,0,0,1-.768.1H2.46a9.221,9.221,0,0,1-1.224-.1v1.08c.24-.024.756-.072,1.224-.072H9.516A14.717,14.717,0,0,1,5.772-3.048C4.956-3.78,3.972-4.572,3.528-4.9l-.78.624A28.316,28.316,0,0,1,5.5-1.908,28.787,28.787,0,0,1,7.656.54l.876-.7C8.052-.744,7.2-1.644,6.48-2.364a18.784,18.784,0,0,0,4.368-4.872,3.4,3.4,0,0,1,.3-.372Zm12.264.048a2.116,2.116,0,0,1-.792.12H18.576c.1-.156.18-.3.252-.444.12-.228.336-.636.528-.948l-1.08-.348a5.156,5.156,0,0,1-.384.96A10.7,10.7,0,0,1,14.04-4.668l.8.624A13.02,13.02,0,0,0,18.024-7.2H22.1A10.034,10.034,0,0,1,20.556-4c-.936-.564-1.944-1.14-2.64-1.5l-.612.708c.672.372,1.68.972,2.628,1.584a10.516,10.516,0,0,1-4.74,2.988l.864.744a11.37,11.37,0,0,0,4.7-3.192c.456.312.852.6,1.14.828l.66-.864c-.3-.216-.708-.492-1.164-.78a12.208,12.208,0,0,0,1.752-3.564,5.257,5.257,0,0,1,.276-.648ZM27.024-.72c.408-.024.828-.06,1.26-.06h7.188c.324,0,.732.024,1.092.06V-1.872a8.215,8.215,0,0,1-1.092.06H28.284c-.432,0-.852-.024-1.26-.06Zm1.032-6.012q.558-.036,1.188-.036H34.38c.4,0,.852.012,1.188.036v-1.08a11.528,11.528,0,0,1-1.188.06H29.232c-.384,0-.792-.024-1.176-.06ZM47.4-7.92c.348,0,.768.012,1.116.036v-1a8.854,8.854,0,0,1-1.116.072H42.54a9.982,9.982,0,0,1-1.08-.072v1c.3-.024.7-.036,1.092-.036ZM41.076-5.808a9.417,9.417,0,0,1-1.044-.06v1c.324-.024.672-.024,1.044-.024h3.588a5.809,5.809,0,0,1-.7,2.976A4.968,4.968,0,0,1,41.7-.084l.888.648A5.753,5.753,0,0,0,44.952-1.62,7.264,7.264,0,0,0,45.66-4.9h3.264c.288,0,.672.012.936.024v-1a6.433,6.433,0,0,1-.936.06Zm18.7-1.428a12.369,12.369,0,0,1-3.1,2.472A15.852,15.852,0,0,1,52.512-3.12l.516.876A20.9,20.9,0,0,0,56.8-3.78V-.108c0,.36-.024.852-.048,1.032h1.1a6.014,6.014,0,0,1-.06-1.032V-4.356a14.735,14.735,0,0,0,2.724-2.172ZM65.3-4.02c.372-.036,1.008-.06,1.668-.06H73.56c.54,0,1.044.048,1.284.06V-5.2c-.264.024-.7.06-1.3.06H66.972c-.672,0-1.308-.036-1.668-.06Zm-53.94,18.5H5.292v.828h6.072ZM10,19.512H6.6v-2.1H10Zm.864-2.892H5.772v3.7H10.86Zm-1.344,7c.3-.66.672-1.776.972-2.688l-.888-.2a16.88,16.88,0,0,1-.84,2.7ZM7.548,23.34a11.906,11.906,0,0,0-.66-2.544l-.756.192a13.3,13.3,0,0,1,.612,2.556ZM5.4,22.584c-.288-.348-1.464-1.68-1.944-2.184q.072-.414.108-.828H5.316v-.828h-1.7V16.332h1.56v-.816H2.3c.12-.432.228-.888.312-1.344l-.852-.156A9.205,9.205,0,0,1,.432,17.772,5.827,5.827,0,0,1,1.2,18.2a9.391,9.391,0,0,0,.864-1.872h.7v2.412H.564v.828H2.712A6.589,6.589,0,0,1,.492,24.24a2.473,2.473,0,0,1,.6.624A6.7,6.7,0,0,0,3.264,21.3a22.832,22.832,0,0,1,1.56,2.016ZM4.764,23.82v.84h6.708v-.84Zm11.712-8.268v2.664h-1.74V15.552Zm-1.74,6.216V19h1.74v2.772Zm2.58-7.02h-3.4v8.8h.816v-.972h2.58Zm.984,6.72a9.256,9.256,0,0,1,1.524,2.112l.756-.48a8.484,8.484,0,0,0-1.56-2.04Zm6.192-2.976V17.7H21.4V16.176h2.58v-.792H21.4V13.956H20.52v1.428h-2.5v.792h2.5V17.7H17.508v.792h4.6v1.356H17.568v.792H22.1v3.2c0,.18-.06.228-.264.24s-.852.012-1.6-.012a2.725,2.725,0,0,1,.288.828,6.866,6.866,0,0,0,1.944-.144c.36-.132.492-.4.492-.9V20.64H24.36v-.792H22.968V18.492Zm6.024-3.324v1H27.924v-1ZM27.924,17.88V16.824h2.592V17.88Zm3.444.684V14.472H27.036V24.924h.888v-6.36ZM33.3,20.148v1.116H30.48V20.148ZM30.48,23.1V21.936H33.3V23.1Zm3.648.708V19.464H29.676v4.944h.8v-.6Zm-.84-5.916V16.824h2.688v1.068Zm2.688-2.724v1H33.288v-1Zm.9-.7h-4.44v4.1h3.54v5.148c0,.216-.072.288-.276.288s-.948.024-1.68-.012a3.287,3.287,0,0,1,.312.912,6.83,6.83,0,0,0,2.016-.156c.4-.156.528-.456.528-1.02Zm3.948,2.136h.816v-.924h1.608v.924h.816v-.924H45.48v-.7H44.064v-1.02h-.816v1.02H41.64v-1.02h-.816v1.02H39.468v.7h1.356Zm-.144,2.16V17.52h1.356v1.248Zm3.576,0h-1.4V17.52h1.4Zm5.94-2H47.64c.012-.864.024-1.764.024-2.7h-.828c0,.936,0,1.848-.024,2.7H45.42v.828h1.368c-.084,2.484-.408,4.536-1.512,5.964l-.012-.42c-.8.1-1.632.192-2.412.276v-1h2.292v-.66H42.852v-.912h2.4V20.16h-2.4v-.744h2.232V16.86H39.9v2.556h2.136v.744H39.672v.684h2.364v.912H39.852v.66h2.184v1.092c-1,.108-1.908.2-2.628.264l.12.78c1.428-.168,3.468-.408,5.448-.648a3.883,3.883,0,0,1-.456.432,2.913,2.913,0,0,1,.648.624C47,23.376,47.472,20.8,47.6,17.592h1.74c-.1,4.356-.228,5.916-.516,6.264a.388.388,0,0,1-.4.192,11.778,11.778,0,0,1-1.272-.06,2.132,2.132,0,0,1,.252.828,8.863,8.863,0,0,0,1.392,0,.954.954,0,0,0,.78-.432c.372-.492.48-2.16.612-7.188Zm11.1-.792a4.505,4.505,0,0,1-1.164,1.548,5.325,5.325,0,0,1-1.356-1.548ZM56.5,21.18a10.39,10.39,0,0,0,.708-1.872,3.356,3.356,0,0,1,.324.468,9.379,9.379,0,0,0,2.616-1.224,8.614,8.614,0,0,0,2.724,1.272,3.956,3.956,0,0,1,.564-.768,7.958,7.958,0,0,1-2.6-1.044,5.572,5.572,0,0,0,1.44-2.04h.924v-.756H59.208a9.524,9.524,0,0,0,.552-1.032l-.852-.228a7.374,7.374,0,0,1-2.28,2.928,5.662,5.662,0,0,1,.732.516,9.574,9.574,0,0,0,.864-.852,6.843,6.843,0,0,0,1.236,1.464,7.951,7.951,0,0,1-2.148.924c.06-.216.12-.432.18-.636l-.54-.192-.132.048h-.888l.456-.516a6.893,6.893,0,0,0-1.008-.72,8.984,8.984,0,0,0,1.956-2.04l-.576-.36-.156.036H52.572v.78h3.4a8.441,8.441,0,0,1-1.26,1.188c-.384-.2-.792-.4-1.164-.552l-.552.576a12.247,12.247,0,0,1,2.664,1.608H52.44v.78h1.812a9.042,9.042,0,0,1-1.932,3.216,4.72,4.72,0,0,1,.468.828,9.611,9.611,0,0,0,1.752-2.952V23.88c0,.132-.048.168-.192.18s-.624,0-1.14-.012a3.277,3.277,0,0,1,.276.816,4.709,4.709,0,0,0,1.5-.132c.3-.156.4-.4.4-.852V18.936h1.152a12.507,12.507,0,0,1-.648,1.932Zm3.624-.528c.072-.384.132-.78.168-1.188h-.9c-.036.408-.084.8-.156,1.188H57.168V21.4H59.04a4.114,4.114,0,0,1-2.784,2.832,2.9,2.9,0,0,1,.528.684,4.868,4.868,0,0,0,3.18-3.516H61.98c-.18,1.644-.36,2.316-.588,2.544a.508.508,0,0,1-.408.12c-.192,0-.672-.012-1.188-.06a2.333,2.333,0,0,1,.24.828,12.682,12.682,0,0,0,1.332.012,1.082,1.082,0,0,0,.744-.312c.348-.348.576-1.26.792-3.492.012-.144.024-.384.024-.384Z" transform="translate(1014 6121)"/>
        <path id="パス_12464" data-name="パス 12464" d="M4.008-8.652a14.643,14.643,0,0,0,2.16-.636l-.66-.684A23.421,23.421,0,0,1,.552-8.808,2.554,2.554,0,0,1,.828-8.1c.744-.108,1.536-.228,2.316-.372v2.028H.636v.816H2.964A12.477,12.477,0,0,1,.372-1.572a5.787,5.787,0,0,1,.492.828,12.873,12.873,0,0,0,2.28-3.54V.888h.864V-3.84c.612.564,1.38,1.332,1.74,1.728l.516-.732c-.348-.312-1.716-1.488-2.256-1.908v-.876H6.3v-.816H4.008Zm3.96.036H7.1v6.564h.864ZM10.032-9.8v9.54c0,.228-.1.3-.312.3S8.736.048,7.9.024a3.548,3.548,0,0,1,.324.9A8.154,8.154,0,0,0,10.38.768c.372-.156.54-.432.54-1.044V-9.8Zm9.432,6.216V-5.58h3.228v1.992Zm-3.8,0c.036-.444.048-.888.048-1.284V-5.58h2.868v1.992ZM18.576-8.34v1.92H15.708V-8.34Zm4.116,1.92H19.464V-8.34h3.228Zm.876-2.772H14.832v4.32c0,1.668-.12,3.78-1.44,5.268a2.912,2.912,0,0,1,.684.588,6.89,6.89,0,0,0,1.5-3.72h3V.8h.888v-3.54h3.228V-.3c0,.228-.084.3-.324.312-.216,0-1.032.012-1.872-.024a3.527,3.527,0,0,1,.3.864A7.83,7.83,0,0,0,23.028.708c.384-.156.54-.42.54-1ZM34.7-6.228l-.612.264a11.14,11.14,0,0,1,.984,1.692l.612-.288A14.243,14.243,0,0,0,34.7-6.228Zm1.308-.5-.6.276a10.688,10.688,0,0,1,1.02,1.668l.624-.288A18.127,18.127,0,0,0,36.012-6.732ZM26.916-7.9l.108,1.056c1.284-.264,4.524-.576,5.568-.7a4.8,4.8,0,0,0-2.208,4.008C30.384-.876,32.892.3,35.088.4l.348-1.008c-1.932-.072-4.092-.8-4.092-3.12a4.155,4.155,0,0,1,2.712-3.756,9.847,9.847,0,0,1,2.328-.192v-.96c-.792.036-1.908.1-3.2.2-2.184.192-4.428.408-5.208.48C27.744-7.932,27.372-7.908,26.916-7.9Zm14.5,4.68a5.366,5.366,0,0,0-.276,1.488c0,1.488,1.248,2.22,3.372,2.22A18.406,18.406,0,0,0,47.376.264L47.4-.708a14.272,14.272,0,0,1-2.928.276c-1.692,0-2.412-.576-2.412-1.488a4.065,4.065,0,0,1,.276-1.212Zm7.572-3.252a12.393,12.393,0,0,1-2.2.588c-.2-.444-.372-.816-.468-1.068L46.1-7.44a16.414,16.414,0,0,0,2.208-.5L48.144-8.8a13.376,13.376,0,0,1-2.364.564,12.206,12.206,0,0,1-.444-1.32l-1.08.228a8.565,8.565,0,0,1,.444.84c.048.108.1.228.156.36a21.609,21.609,0,0,1-3.888-.1l.06.876A24.368,24.368,0,0,0,45.2-7.32c.084.192.168.408.264.612l.42.972a23.723,23.723,0,0,1-4.992.024l.036.876a28.568,28.568,0,0,0,5.316-.108c.276.624.552,1.248.78,1.716-.372-.036-.936-.1-1.512-.168l-.084.732c.756.1,1.716.228,2.316.336l.468-.588C47.88-3.54,47.5-4.344,47.148-5.1a15.829,15.829,0,0,0,2.016-.5ZM57.828-.4c-.888,0-1.572-.336-1.572-.924,0-.408.408-.732.948-.732A1.587,1.587,0,0,1,58.776-.468,5.853,5.853,0,0,1,57.828-.4Zm2.448-8.628a4.255,4.255,0,0,1-.648.1c-.624.06-3.444.144-4.056.144a6.747,6.747,0,0,1-.84-.036l.024,1a5.721,5.721,0,0,1,.8-.072c.612-.036,2.952-.144,3.576-.168-.588.528-2.064,1.776-2.724,2.328-.7.576-2.22,1.848-3.2,2.664l.7.708C55.416-3.9,56.5-4.728,58.452-4.728c1.5,0,2.676.852,2.676,2.016A2.072,2.072,0,0,1,59.652-.7,2.346,2.346,0,0,0,57.2-2.8a1.688,1.688,0,0,0-1.836,1.56c0,.984,1,1.7,2.616,1.7,2.508,0,4.1-1.248,4.1-3.168,0-1.608-1.428-2.808-3.408-2.808a5.05,5.05,0,0,0-1.608.252c.912-.768,2.508-2.172,3.1-2.616.18-.132.444-.312.66-.456Z" transform="translate(997 6243)"/>
        <path id="パス_12465" data-name="パス 12465" d="M9.93-16.56A33.31,33.31,0,0,1,7.86-7.47C6.9-8.16,5.88-8.79,4.92-9.39c.54-2.22,1.14-4.68,1.68-7.17ZM11.1-19.2l-.51.06H7.14c.42-1.98.84-3.93,1.17-5.73l-2.67-.3c-.3,1.86-.69,3.93-1.11,6.03H1.38v2.58H3.99C3.21-12.93,2.4-9.42,1.68-6.9L3.96-5.67l.3-1.14c.84.54,1.65,1.14,2.46,1.74A12.884,12.884,0,0,1,1.56.21,9.528,9.528,0,0,1,3.27,2.43,15.606,15.606,0,0,0,8.85-3.33,21.634,21.634,0,0,1,11.73-.42l1.68-2.22a21.448,21.448,0,0,0-3.33-3.15A40.591,40.591,0,0,0,12.75-18.9Zm17.73,9.06v-2.64h-6.9v-8.49a41.321,41.321,0,0,0,5.94-1.77l-2.25-2.07c-3,1.32-8.34,2.43-13.05,3.06a9.468,9.468,0,0,1,.81,2.22c1.86-.21,3.84-.51,5.76-.87v7.92H12.48v2.64h6.66V-.96H12.87V1.68H28.32V-.96H21.93v-9.18Zm11.91-6.45a39.167,39.167,0,0,1-1.53,8.88c-.78-.69-1.59-1.35-2.4-1.95.45-2.16.93-4.56,1.35-6.93Zm3,13.71a21.022,21.022,0,0,0-2.43-2.88,47.426,47.426,0,0,0,2.1-13.23l-1.59-.21-.48.06H38.61c.36-2.01.69-3.99.96-5.79l-2.55-.24c-.24,1.83-.54,3.93-.9,6.03H33.66v2.55H35.7c-.63,3.54-1.29,7.02-1.89,9.48l2.16,1.38.27-1.2q.99.855,1.98,1.8A11.826,11.826,0,0,1,33.72.21a10.564,10.564,0,0,1,1.65,2.16,14.339,14.339,0,0,0,4.8-5.49A18.677,18.677,0,0,1,42.06-.69Zm15.54-6.9a29.181,29.181,0,0,1-2.7,2.88,29.212,29.212,0,0,1-.93-3.87H60.9V-13.2H47.58v-8.04H60.54v-2.49H45v9.66c0,4.5-.21,10.62-2.79,14.91a12.551,12.551,0,0,1,2.16,1.5c2.19-3.6,2.94-8.73,3.15-13.11h1.65v9.66c-.87.15-1.68.3-2.4.39l.72,2.61c2.43-.51,5.49-1.2,8.43-1.83l-.18-2.34-4.08.75v-9.24h1.77c.9,5.91,2.67,10.71,6.36,13.14A8.872,8.872,0,0,1,61.56.18a10.66,10.66,0,0,1-4.23-5.13c1.17-.9,2.52-2.07,3.75-3.21Zm.3-6.33v-2.4H48.87v2.4Zm21.6,6.18v-7.26h7.8v7.26Zm-10.68,0v-7.26h7.77v7.26Zm10.68-9.99v-5.22H78.27v5.22H67.71V-5.43H70.5V-7.2h7.77V2.34h2.91V-7.2h7.8v1.62h2.91V-19.92Z" transform="translate(978 6197)" fill="#1778b1"/>
        <g id="グループ_167" data-name="グループ 167" transform="translate(958.5 6107)">
          <path id="パス_93" data-name="パス 93" d="M86.708,197.6a.624.624,0,0,0,.18.03.592.592,0,0,0,.572-.421.6.6,0,0,0-.385-.758.611.611,0,0,0-.758.391A.6.6,0,0,0,86.708,197.6Z" transform="translate(-79.799 -181.657)" fill="#1778b1"/>
          <path id="パス_94" data-name="パス 94" d="M148.01,112.462a.62.62,0,0,0,.361-.12h-.006a.6.6,0,0,0,.132-.837.606.606,0,0,0-.842-.132.6.6,0,0,0-.126.842A.592.592,0,0,0,148.01,112.462Z" transform="translate(-136.325 -102.892)" fill="#1778b1"/>
          <path id="パス_95" data-name="パス 95" d="M247.52,79.422h.006a.6.6,0,0,0-.006-1.2.609.609,0,0,0-.6.608A.6.6,0,0,0,247.52,79.422Z" transform="translate(-228.351 -72.337)" fill="#1778b1"/>
          <path id="パス_96" data-name="パス 96" d="M347.462,111.257a.6.6,0,0,0,.487-.253.6.6,0,1,0-.836.138A.586.586,0,0,0,347.462,111.257Z" transform="translate(-320.78 -101.778)" fill="#1778b1"/>
          <path id="パス_97" data-name="パス 97" d="M87.294,301.3a.592.592,0,0,0-.379.758h-.006a.607.607,0,0,0,.578.415.523.523,0,0,0,.186-.031.6.6,0,0,0-.379-1.143Z" transform="translate(-80.349 -278.613)" fill="#1778b1"/>
          <path id="パス_98" data-name="パス 98" d="M148.976,386.018a.606.606,0,0,0,.139.842.626.626,0,0,0,.349.108.611.611,0,0,0,.493-.247.6.6,0,0,0-.98-.7Z" transform="translate(-137.67 -356.759)" fill="#1778b1"/>
          <path id="パス_99" data-name="パス 99" d="M410.355,299.859a.6.6,0,0,0-.758.391.594.594,0,0,0,.391.752.485.485,0,0,0,.186.03.6.6,0,0,0,.18-1.173Z" transform="translate(-378.771 -277.284)" fill="#1778b1"/>
          <path id="パス_100" data-name="パス 100" d="M409.617,195.709a.723.723,0,0,0,.186-.03.612.612,0,0,0,.385-.764l-.018-.036v-.006a.6.6,0,0,0-1.143.38.079.079,0,0,1,.012.036c.006,0,.006,0,.006.006A.6.6,0,0,0,409.617,195.709Z" transform="translate(-378.243 -179.841)" fill="#1778b1"/>
          <path id="パス_101" data-name="パス 101" d="M348.569,385.021a.6.6,0,0,0-.132.842.61.61,0,0,0,.487.247.583.583,0,0,0,.349-.12.6.6,0,1,0-.7-.969Z" transform="translate(-322.128 -355.961)" fill="#1778b1"/>
          <path id="パス_102" data-name="パス 102" d="M249.356,417.742a.6.6,0,0,0,.006,1.2.6.6,0,1,0-.006-1.2Z" transform="translate(-230.055 -386.33)" fill="#1778b1"/>
          <path id="パス_103" data-name="パス 103" d="M19.25,0A19.25,19.25,0,1,0,38.5,19.25,19.272,19.272,0,0,0,19.25,0Zm0,33.917A14.667,14.667,0,1,1,33.917,19.25,14.683,14.683,0,0,1,19.25,33.917Z" fill="#1778b1"/>
          <path id="パス_104" data-name="パス 104" d="M238.153,130.672h-3.145v12h10.427v-3.145h-7.282Z" transform="translate(-217.337 -120.846)" fill="#1778b1"/>
        </g>
      </g>
    </g>
  </g>
</svg>
