<svg height="329.576" viewBox="0 0 313.542 329.576" width="313.542" xmlns="http://www.w3.org/2000/svg"><path d="m3.36-1.74v-.924h5.34v.924zm5.34-2.508v.924h-5.34v-.924zm.9-.744h-7.128v5.9h.888v-1.98h5.34v1.036c0 .168-.06.216-.24.228-.2 0-.9 0-1.6-.012a3.436 3.436 0 0 1 .288.732 7.735 7.735 0 0 0 1.96-.132c.372-.108.492-.336.492-.816zm-1.524-3.084-.676.444c.42.276.876.612 1.308.948-1.68.036-3.372.072-4.848.1.4-.468.816-1 1.176-1.488zm3.168-.792h-4.812v-1.176h-.9v1.176h-4.764v.792h3.132a14.9 14.9 0 0 1 -1.008 1.5l-1.656.024.036.828c2.1-.036 5.292-.12 8.3-.24a8.7 8.7 0 0 1 .816.8l.744-.528a17.6 17.6 0 0 0 -3.02-2.384h3.132zm5.556 5.76c-.216 1.692-.792 2.748-3.372 3.3a2.8 2.8 0 0 1 .528.78c2.82-.684 3.528-1.992 3.792-4.08zm3.144 0v2.736c0 .96.288 1.236 1.38 1.236h1.788c.96 0 1.224-.432 1.332-2.208a2.71 2.71 0 0 1 -.828-.36c-.048 1.504-.132 1.728-.588 1.728h-1.608c-.48 0-.564-.06-.564-.4v-2.732zm-5.232-6.6v6.432h.864v-6.432zm2.7.2v6.06h5.916v-6.052zm.852.792h4.164v1.86h-4.164zm0 2.592h4.164v1.884h-4.164zm11.2-3.84a12.331 12.331 0 0 1 -3.252 4.812 5.107 5.107 0 0 1 .54.9 12.175 12.175 0 0 0 1.416-1.584v6.736h.876v-8.016a17.828 17.828 0 0 0 1.308-2.568zm7.86 3.828v-.864h-3.472v-2.88h-.876v2.88h-3.376v.864h2.9a12.191 12.191 0 0 1 -3.324 4.908 5.178 5.178 0 0 1 .672.684 13.4 13.4 0 0 0 3.12-4.62v6.088h.876v-6.336a14.568 14.568 0 0 0 3.116 4.824 3.2 3.2 0 0 1 .672-.72 12.661 12.661 0 0 1 -3.264-4.824zm9.348-1.02a10.97 10.97 0 0 1 -.616 1.256l.12.036h-2.82l.384-.084a4.663 4.663 0 0 0 -.6-1.2zm3.444 5.22v-.756h-4.816v-.888h3.756v-.68h-3.756v-.876h4.344v-.732h-2.724c.24-.36.5-.828.744-1.284h2.4v-.768h-1.864a16.78 16.78 0 0 0 1.06-1.728l-.912-.24a13.614 13.614 0 0 1 -.912 1.824l.444.144h-1.452v-2.124h-.84v2.124h-1.428v-2.124h-.828v2.124h-1.476l.612-.228a8.271 8.271 0 0 0 -1.02-1.764l-.756.252a9.354 9.354 0 0 1 .948 1.74h-1.908v.768h2.928l-.42.084a5.039 5.039 0 0 1 .588 1.2h-2.616v.732h4.212v.876h-3.612v.684h3.612v.888h-4.74v.756h3.924a11.565 11.565 0 0 1 -4.236 1.9 3.821 3.821 0 0 1 .576.756 12.059 12.059 0 0 0 4.476-2.364v2.552h.876v-2.612a11.328 11.328 0 0 0 4.512 2.456 3.208 3.208 0 0 1 .6-.792 10.979 10.979 0 0 1 -4.284-1.9zm6.068-5.564h2.424v-.816h-2.424v-1.684h-.852v1.68h-1.272c.132-.408.252-.852.36-1.272l-.84-.168a9.458 9.458 0 0 1 -1.2 3.16 5.234 5.234 0 0 1 .792.336 9.172 9.172 0 0 0 .6-1.236h1.56v1.26h-2.916v.816h2.916v1.2h-2.364v4.164h.816v-3.348h1.548v4.308h.852v-4.308h1.656v2.448c0 .12-.036.156-.168.156s-.516.012-1.032 0a2.725 2.725 0 0 1 .264.78 3.707 3.707 0 0 0 1.396-.144c.3-.144.36-.372.36-.78v-3.276h-2.476v-1.2h2.892v-.816h-2.892zm4.6-1.452h-.84v6.6h.84zm1.284-.96v9.612c0 .2-.06.252-.252.264s-.876 0-1.584-.024a5.182 5.182 0 0 1 .288.936 5.9 5.9 0 0 0 1.916-.176c.36-.156.492-.42.492-1.008v-9.6zm14.012 1.872v-.816h-4.48v-1.176h-.912v1.176h-4.4v3.432c0 1.728-.084 4.152-1.068 5.856a3.449 3.449 0 0 1 .732.5c1.032-1.812 1.176-4.512 1.176-6.36v-2.612zm-2.88 2.076v1.264h-2.9v-1.26zm.864 1.98v-1.98h1.936v-.736h-1.936v-1.04h-.864v1.04h-2.9v-1.04h-.852v1.04h-1.912v.732h1.908v1.98zm-.192 1.484a5.515 5.515 0 0 1 -2.028 1.528 5.375 5.375 0 0 1 -1.944-1.528zm.744-.768-.156.036h-6.78v.732h1.848l-.48.18a6.038 6.038 0 0 0 1.884 1.72 16.278 16.278 0 0 1 -3.7.768 3.083 3.083 0 0 1 .372.744 16.253 16.253 0 0 0 4.228-1.032 13.688 13.688 0 0 0 3.948 1.056 2.645 2.645 0 0 1 .52-.756 15.259 15.259 0 0 1 -3.528-.756 5.927 5.927 0 0 0 2.408-2.388z" transform="translate(222.5 169.076)"/><g fill="#1778b1"><path d="m-4.482-31.509v-8.745q6.5 0 8.745-1.45 4-2.549 4-8.174a9.265 9.265 0 0 0 -2.9-7.075 10.222 10.222 0 0 0 -7.427-2.769 9.609 9.609 0 0 0 -6.592 2.065q-2.244 2.11-3.344 7.12h-10.2q1.582-9.58 6.5-14.041t13.755-4.46q8.921 0 14.546 5.273a17.588 17.588 0 0 1 5.625 13.491 16.718 16.718 0 0 1 -7.383 14.5q8.438 4.966 8.438 16.128a19.616 19.616 0 0 1 -6.141 14.946q-6.153 5.8-15.777 5.8-12.263 0-18.193-9.01-2.461-3.779-3.12-10.459h9.888a12.023 12.023 0 0 0 3.845 7.537 11.836 11.836 0 0 0 7.976 2.614 11.06 11.06 0 0 0 8.218-3.3 11.866 11.866 0 0 0 3.252-8.569q0-6.855-4.878-9.756-2.857-1.666-8.833-1.666z" transform="translate(255.5 253.076)"/><path d="m10.892-4.718v3.486h-3.122v-4.228h4.3v-5.082h-1.75v3.458h-2.55v-4.634h-1.708v4.634h-2.408v-3.458h-1.654v5.082h4.06v4.228h-2.924v-3.486h-1.694v5.936h1.694v-.812h7.756v.8h1.736v-5.924zm12.124 3.906v-2.814h4.184v-1.61h-4.184v-2.464h4.718v-1.624h-4.718v-2.52h-1.75v2.52h-2.156c.238-.644.462-1.3.658-1.974l-1.722-.378a12.045 12.045 0 0 1 -2.478 5.012 13.239 13.239 0 0 1 1.5.994 11.539 11.539 0 0 0 1.3-2.03h2.9v2.464h-3.796v1.61h3.794v2.814h-5.4v1.638h12.582v-1.638zm11.634-10.416a15.35 15.35 0 0 1 -.294 2.94c-.7.056-1.358.1-1.792.112a12.873 12.873 0 0 1 -1.47 0l.154 1.876c.434-.07 1.148-.168 1.54-.21.266-.042.7-.1 1.19-.154a20.608 20.608 0 0 1 -2.8 6.482l1.822.728a29.446 29.446 0 0 0 2.812-7.406c.392-.028.728-.056.952-.056.882 0 1.358.154 1.358 1.26a10.254 10.254 0 0 1 -.574 3.794 1.008 1.008 0 0 1 -1.036.6 7.978 7.978 0 0 1 -1.694-.294l.308 1.836a7.739 7.739 0 0 0 1.652.2 2.226 2.226 0 0 0 2.282-1.28 13.553 13.553 0 0 0 .784-5.054c0-1.988-1.036-2.646-2.506-2.646-.28 0-.7.028-1.162.056.1-.5.21-1.008.28-1.428.07-.35.168-.784.252-1.148zm5.166 2.212a16.012 16.012 0 0 1 2.352 5.278l1.75-.826a24.989 24.989 0 0 0 -2.418-5.152zm9.8-.532c1.078.28 4.172.924 5.572 1.106l.42-1.708a43.892 43.892 0 0 1 -5.544-1.078zm.532 1.106-1.876-.252a50.48 50.48 0 0 1 -.686 5.782l1.61.406a3 3 0 0 1 .518-.812 4.86 4.86 0 0 1 3.822-1.624c1.218 0 2.072.658 2.072 1.554 0 1.764-2.2 2.786-6.356 2.2l.532 1.818c5.768.5 7.77-1.442 7.77-3.976 0-1.68-1.414-3.178-3.85-3.178a6.8 6.8 0 0 0 -4.074 1.316c.098-.798.336-2.464.518-3.234z" transform="translate(167.5 250.076)"/><path d="m3.668-3.066a6.042 6.042 0 0 1 -1.008 2.212 6.792 6.792 0 0 1 1.04.63 8.678 8.678 0 0 0 1.162-2.59zm4.2-.5v-1.222h-4.4v1.218h1.532v3.234c0 .126-.028.168-.168.168-.1 0-.434 0-.8-.014a4.813 4.813 0 0 1 .406 1.246 2.708 2.708 0 0 0 1.442-.238c.378-.2.448-.532.448-1.12v-3.276zm.49 2.408a9.287 9.287 0 0 0 -.882-1.932l-1.05.378a9.306 9.306 0 0 1 .812 1.984zm2.226-6.642-.532.392c.224.154.49.364.742.574h-1.316c-.028-.322-.056-.644-.07-.966zm.644 2.646a9.153 9.153 0 0 1 -.98 2.154 21.128 21.128 0 0 1 -.6-2.534h3.552v-1.3h-.728l.056-.042a9.126 9.126 0 0 0 -1.104-.924h1.834v-1.33h-5.124v-.756h3.976v-1.174h-3.976v-.8h-1.61v2.73h-2.114v-2.114h-1.54v2.114h-2.086v1.33h7.126c.014.322.042.644.07.966h-6.5v2.394a8.083 8.083 0 0 1 -1.102 4.706 5.514 5.514 0 0 1 1.246.966c1.162-1.554 1.386-3.976 1.386-5.656v-1.106h5.138a17.165 17.165 0 0 0 1.036 3.92 8.592 8.592 0 0 1 -2.24 1.694 10.57 10.57 0 0 1 1.12 1.116 10.35 10.35 0 0 0 1.836-1.41 2.53 2.53 0 0 0 1.93 1.442c1.036 0 1.526-.49 1.75-2.534a4.391 4.391 0 0 1 -1.19-.728c-.056 1.246-.182 1.806-.448 1.806-.294 0-.658-.42-1.036-1.134a11.927 11.927 0 0 0 1.806-3.458zm7.714 2.634c-.518 0-1.078-.686-1.078-2.086a4.347 4.347 0 0 1 3.514-4.018 22.254 22.254 0 0 1 -.742 3.36c-.56 1.876-1.12 2.744-1.694 2.744zm3.808 3.094c3.5-.532 5.292-2.6 5.292-5.516a5.291 5.291 0 0 0 -5.6-5.418 6.183 6.183 0 0 0 -6.384 5.936c0 2.338 1.3 4.032 2.828 4.032s2.714-1.708 3.542-4.508a30.13 30.13 0 0 0 .826-3.766 3.432 3.432 0 0 1 2.898 3.666 3.753 3.753 0 0 1 -3.152 3.712c-.364.084-.756.154-1.288.224z" transform="translate(285.5 250.076)"/><path d="m10.64-2.73h-.6v-5.5h-1.332v5.5h-.644v1.344h5.436v-1.344h-1.46v-2.97h1.316v-1.33h-1.316v-3.038a12.294 12.294 0 0 0 1.484-.49l-1.106-1.19a17.347 17.347 0 0 1 -4.284 1.148 5.7 5.7 0 0 1 .448 1.2c.658-.084 1.358-.2 2.058-.336zm-6.132-8.694h-3.43v1.26h3.43zm.35 1.876h-4.396v1.316h4.4zm-.336 1.948h-3.514v1.274h3.514zm-3.514 3.162h3.514v-1.246h-3.514zm2.254 3.598h-1.036v-1.61h1.036zm4.238-6.216-.252.028h-.49c.462-1.344.924-2.744 1.232-3.878l-1.004-.224-.224.056h-1.834v1.442h1.26c-.388 1.26-.938 2.856-1.414 4.116l1.344.266.182-.49h.616a14.607 14.607 0 0 1 -.476 2.38 10.383 10.383 0 0 1 -.406-1.5l-1.234.366a11.423 11.423 0 0 0 .94 2.842 4.744 4.744 0 0 1 -1.176 1.5v-3.6h-3.598v4.774h1.26v-.56h2.338v-.322a5.053 5.053 0 0 1 .756 1.078 5.961 5.961 0 0 0 1.344-1.582 5.06 5.06 0 0 0 3.85 1.274h2.7a5.531 5.531 0 0 1 .49-1.5c-.63.028-2.576.028-3.08.028a4 4 0 0 1 -3.276-1.2 18.668 18.668 0 0 0 .994-5.11zm15.516 6.244v-2.814h4.184v-1.61h-4.184v-2.464h4.718v-1.624h-4.718v-2.52h-1.75v2.52h-2.156c.238-.644.462-1.3.658-1.974l-1.722-.378a12.045 12.045 0 0 1 -2.478 5.012 13.239 13.239 0 0 1 1.5.994 11.539 11.539 0 0 0 1.3-2.03h2.9v2.464h-3.796v1.61h3.794v2.814h-5.4v1.638h12.582v-1.638zm11.116-.728v-3.136h6.216v3.136zm6.216-7.8v3.01h-6.216v-3.01zm-7.938-1.68v12.07h1.722v-.91h6.216v.882h1.792v-12.04zm15.96 8.108v-.91h2.338v.91zm2.338-3.01v.868h-2.338v-.868zm1.61-1.4h-5.53v8.456h1.582v-2.828h2.338v1.246c0 .168-.056.224-.224.224s-.742.014-1.26-.014a5.757 5.757 0 0 1 .532 1.414 4.39 4.39 0 0 0 1.944-.266c.476-.238.616-.63.616-1.344zm3.99 6.678c0 .2-.07.252-.294.252s-.966.014-1.68-.014a5.838 5.838 0 0 1 .6 1.568 5.494 5.494 0 0 0 2.3-.28c.56-.266.714-.672.714-1.5v-6.956h-1.64zm-1.26-6.538h-1.526v5.712h1.526zm.8-2.6c.35-.49.728-1.036 1.064-1.582l-1.812-.536a15.7 15.7 0 0 1 -1.148 2.114h-3.888l.77-.266a7.736 7.736 0 0 0 -1.3-1.82l-1.582.546a9.389 9.389 0 0 1 1.048 1.54h-2.982v1.5h12.67v-1.5zm8.524 8.242v-3.136h6.216v3.136zm6.216-7.8v3.01h-6.216v-3.01zm-7.938-1.68v12.07h1.722v-.91h6.216v.882h1.792v-12.04zm19.628 9.186c0 .8-.476 1.022-1.218 1.022-.952 0-1.442-.336-1.442-.854 0-.476.532-.854 1.512-.854a7.429 7.429 0 0 1 1.134.1c.014.236.014.432.014.586zm5.544.35a10.724 10.724 0 0 0 -3.878-2.1c-.042-.532-.07-1.092-.1-1.61 1.344-.042 2.422-.14 3.668-.28v-1.638c-1.134.14-2.3.266-3.7.322l.014-1.442c1.33-.07 2.45-.182 3.36-.266l-.042-1.6a29.05 29.05 0 0 1 -3.3.336l.014-.546a9.267 9.267 0 0 1 .1-.98h-1.89a5.55 5.55 0 0 1 .07.952v.63h-.686a18.352 18.352 0 0 1 -3.01-.266l.014 1.582a23.087 23.087 0 0 0 3.01.21h.658v1.442h-.658a25.15 25.15 0 0 1 -3.346-.252l-.014 1.638c.924.112 2.52.182 3.332.182h.714c.014.406.028.84.056 1.26a8.509 8.509 0 0 0 -.854-.042c-2.142 0-3.43.98-3.43 2.38 0 1.47 1.176 2.31 3.388 2.31 1.834 0 2.73-.91 2.73-2.1 0-.14 0-.308-.014-.49a10.5 10.5 0 0 1 2.8 1.922zm13.258-5.8-1.036.434a10.8 10.8 0 0 1 1.092 1.95l1.064-.476a18.348 18.348 0 0 0 -1.12-1.904zm1.568-.644-1.022.476a12.316 12.316 0 0 1 1.148 1.89l1.05-.5a20.943 20.943 0 0 0 -1.176-1.862zm-10.906-1.648.182 1.9c1.61-.35 4.522-.658 5.726-.784a5.5 5.5 0 0 0 -2.044 4.27c0 3.01 2.744 4.578 5.656 4.76l.644-1.918c-2.352-.112-4.48-.938-4.48-3.22a4.208 4.208 0 0 1 2.926-3.878 14.317 14.317 0 0 1 2.674-.182l-.014-1.792c-.98.042-2.492.126-3.92.238-2.534.224-4.83.434-5.992.532-.266.032-.8.06-1.358.074z" transform="translate(209.5 276.076)"/><path d="m164.5 173.091h5.753v2.685h-5.753z"/><path d="m201.464 173.091h5.752v2.685h-5.752z"/><path d="m26.248 338.462 1.343 2.327 4.982-2.877-1.343-2.326z" transform="translate(140.442 -154.512)"/><path d="m416.271 116.383-1.343-2.326-4.982 2.877 1.343 2.326z" transform="translate(-211.245 48.535)"/><path d="m114.065 414.929 2.326 1.343 2.877-4.982-2.326-1.343z" transform="translate(59.951 -222.669)"/><path d="m340.8 27.591-2.327-1.343-2.873 4.982 2.326 1.343z" transform="translate(-143.097 129.018)"/><path d="m184.516 190.04h2.685v5.752h-2.685z"/><path d="m184.516 153.076h2.685v5.752h-2.685z"/><path d="m335.6 411.29 2.875 4.982 2.327-1.343-2.877-4.982z" transform="translate(-143.097 -222.669)"/><path d="m119.267 31.23-2.877-4.982-2.326 1.343 2.877 4.982z" transform="translate(59.951 129.018)"/><path d="m409.947 337.912 4.982 2.877 1.343-2.327-4.982-2.876z" transform="translate(-211.245 -154.512)"/><path d="m32.572 116.934-4.982-2.877-1.343 2.326 4.982 2.877z" transform="translate(140.442 48.535)"/><path d="m112.956 99.926a13.021 13.021 0 1 0 13.021 13.021 13.021 13.021 0 0 0 -13.021-13.021z" transform="translate(72.903 61.487)"/></g><path d="m149 153.576v176" fill="none" stroke="#707070"/><path d="m48.457 58.568a11.236 11.236 0 1 0 -11.237-11.235 11.235 11.235 0 0 0 11.237 11.235z" fill="#1778b1" transform="translate(52.931 -36.096)"/><path d="m235.242 186.99v.017c.027 0 .052-.008.08-.008s.053.008.08.008v-.017a7.762 7.762 0 0 0 0-15.522v-.017c-.027 0-.052.008-.08.008s-.052-.008-.08-.008v.017a7.762 7.762 0 0 0 0 15.522z" fill="#1778b1" transform="translate(-85.821 -134.733)"/><path d="m403.179 58.568a11.236 11.236 0 1 0 -11.235-11.235 11.236 11.236 0 0 0 11.235 11.235z" fill="#1778b1" transform="translate(-205.566 -36.096)"/><path d="m138.893 187.687v-37.765c0-5.446-5.923-11.369-11.367-11.369h-1.573l-7.818 7.818-7.654-7.654a15.245 15.245 0 0 0 -11.371 8.143l-9.086 26.576a2.195 2.195 0 0 1 -3.447.609l-5.652-4.894a9.145 9.145 0 0 0 -6.213-2.434h-10.531a9.147 9.147 0 0 0 -6.213 2.434l-5.652 4.894a2.195 2.195 0 0 1 -3.447-.609l-9.086-26.576a15.242 15.242 0 0 0 -13.572-8.307h-14.844c-5.444 0-11.367 5.923-11.367 11.369v37.764a4.928 4.928 0 0 0 4.928 4.93h3.44l1.873 32.207a5.247 5.247 0 0 0 5.247 5.245h11.46a5.247 5.247 0 0 0 5.247-5.245l1.873-32.207-.023-22.995a.786.786 0 0 1 1.487-.357l7.209 17.742a6.1 6.1 0 0 0 9.565 1.7l6.9-5.081a.8.8 0 0 1 .851-.147.793.793 0 0 1 .473.722l.026 19.941 1.3 22.3a3.632 3.632 0 0 0 3.634 3.629h7.931a3.632 3.632 0 0 0 3.633-3.629l1.3-22.3.025-19.941a.792.792 0 0 1 .473-.722.8.8 0 0 1 .851.147l6.9 5.081a6.1 6.1 0 0 0 9.565-1.7l7.208-17.742a.786.786 0 0 1 1.487.357l-.008 8.771-7.579 23.508a1.829 1.829 0 0 0 1.741 2.39h6.483l1.195 20.535a5.246 5.246 0 0 0 5.247 5.245h11.458a5.246 5.246 0 0 0 5.246-5.245l1.2-20.535h7.167a1.829 1.829 0 0 0 1.741-2.39l-3.09-9.6a4.917 4.917 0 0 0 3.229-4.613z" fill="#1778b1" transform="translate(80.054 -110.759)"/><path d="m3.36-1.74v-.924h5.34v.924zm5.34-2.508v.924h-5.34v-.924zm.9-.744h-7.128v5.9h.888v-1.98h5.34v1.036c0 .168-.06.216-.24.228-.2 0-.9 0-1.6-.012a3.436 3.436 0 0 1 .288.732 7.735 7.735 0 0 0 1.96-.132c.372-.108.492-.336.492-.816zm-1.524-3.084-.676.444c.42.276.876.612 1.308.948-1.68.036-3.372.072-4.848.1.4-.468.816-1 1.176-1.488zm3.168-.792h-4.812v-1.176h-.9v1.176h-4.764v.792h3.132a14.9 14.9 0 0 1 -1.008 1.5l-1.656.024.036.828c2.1-.036 5.292-.12 8.3-.24a8.7 8.7 0 0 1 .816.8l.744-.528a17.6 17.6 0 0 0 -3.02-2.384h3.132zm5.556 5.76c-.216 1.692-.792 2.748-3.372 3.3a2.8 2.8 0 0 1 .528.78c2.82-.684 3.528-1.992 3.792-4.08zm3.144 0v2.736c0 .96.288 1.236 1.38 1.236h1.788c.96 0 1.224-.432 1.332-2.208a2.71 2.71 0 0 1 -.828-.36c-.048 1.504-.132 1.728-.588 1.728h-1.608c-.48 0-.564-.06-.564-.4v-2.732zm-5.232-6.6v6.432h.864v-6.432zm2.7.2v6.06h5.916v-6.052zm.852.792h4.164v1.86h-4.164zm0 2.592h4.164v1.884h-4.164zm19.02-3.4h-6.072v.828h6.072zm-1.368 5.036h-3.4v-2.1h3.4zm.864-2.892h-5.088v3.7h5.088zm-1.344 7c.3-.66.672-1.776.972-2.688l-.888-.2a16.88 16.88 0 0 1 -.84 2.7zm-1.968-.28a11.906 11.906 0 0 0 -.66-2.544l-.756.192a13.3 13.3 0 0 1 .612 2.556zm-2.148-.756c-.288-.348-1.464-1.68-1.944-2.184q.072-.414.108-.828h1.752v-.828h-1.7v-2.412h1.56v-.816h-2.872c.12-.432.228-.888.312-1.344l-.852-.156a9.205 9.205 0 0 1 -1.332 3.756 5.827 5.827 0 0 1 .768.432 9.391 9.391 0 0 0 .864-1.872h.7v2.412h-2.2v.828h2.148a6.589 6.589 0 0 1 -2.22 4.668 2.473 2.473 0 0 1 .6.624 6.7 6.7 0 0 0 2.172-3.564 22.832 22.832 0 0 1 1.56 2.016zm-.636 1.236v.84h6.708v-.84zm11.716-8.268v2.664h-1.74v-2.664zm-1.74 6.216v-2.768h1.74v2.772zm2.58-7.02h-3.4v8.8h.816v-.972h2.58zm.984 6.72a9.256 9.256 0 0 1 1.52 2.112l.756-.48a8.484 8.484 0 0 0 -1.56-2.04zm6.192-2.976v-.792h-3.1v-1.524h2.584v-.792h-2.58v-1.428h-.88v1.428h-2.5v.792h2.5v1.524h-3.012v.792h4.6v1.356h-4.54v.792h4.536v3.2c0 .18-.06.228-.264.24s-.852.012-1.6-.012a2.725 2.725 0 0 1 .292.832 6.866 6.866 0 0 0 1.948-.144c.36-.132.492-.4.492-.9v-3.216h1.388v-.792h-1.392v-1.356zm6.024-3.324v1h-2.596v-1zm-2.596 2.712v-1.056h2.592v1.056zm3.444.684v-4.092h-4.332v10.452h.888v-6.36zm1.932 1.584v1.116h-2.82v-1.116zm-2.82 2.952v-1.164h2.82v1.164zm3.648.708v-4.344h-4.448v4.944h.8v-.6zm-.84-5.916v-1.068h2.692v1.068zm2.692-2.724v1h-2.692v-1zm.9-.7h-4.44v4.1h3.54v5.156c0 .216-.072.288-.276.288s-.952.024-1.684-.012a3.287 3.287 0 0 1 .312.912 6.83 6.83 0 0 0 2.016-.156c.396-.156.532-.456.532-1.02zm-60.856 22.14h.816v-.924h1.608v.924h.816v-.924h1.416v-.7h-1.416v-1.016h-.816v1.02h-1.608v-1.02h-.816v1.02h-1.356v.7h1.356zm-.144 2.16v-1.248h1.356v1.248zm3.576 0h-1.4v-1.248h1.4zm5.94-2h-2.556c.012-.864.024-1.764.024-2.7h-.828c0 .936 0 1.848-.024 2.7h-1.392v.828h1.368c-.084 2.48-.408 4.532-1.508 5.96l-.012-.42c-.8.1-1.632.192-2.412.276v-1h2.288v-.66h-2.292v-.912h2.4v-.68h-2.4v-.744h2.228v-2.556h-5.18v2.556h2.136v.744h-2.364v.684h2.364v.912h-2.184v.66h2.184v1.092c-1 .108-1.908.2-2.628.264l.12.78c1.428-.168 3.468-.408 5.448-.648a3.883 3.883 0 0 1 -.456.432 2.913 2.913 0 0 1 .648.624c1.836-1.584 2.3-4.164 2.436-7.368h1.74c-.1 4.356-.228 5.916-.516 6.264a.388.388 0 0 1 -.4.192 11.778 11.778 0 0 1 -1.272-.06 2.132 2.132 0 0 1 .252.828 8.863 8.863 0 0 0 1.392 0 .954.954 0 0 0 .78-.432c.372-.492.48-2.16.612-7.188zm11.1-.792a4.505 4.505 0 0 1 -1.164 1.548 5.325 5.325 0 0 1 -1.352-1.552zm-4.8 5.208a10.39 10.39 0 0 0 .708-1.872 3.356 3.356 0 0 1 .324.468 9.379 9.379 0 0 0 2.616-1.224 8.614 8.614 0 0 0 2.724 1.272 3.957 3.957 0 0 1 .564-.768 7.958 7.958 0 0 1 -2.6-1.044 5.572 5.572 0 0 0 1.44-2.04h.924v-.756h-3.988a9.523 9.523 0 0 0 .552-1.032l-.852-.228a7.374 7.374 0 0 1 -2.28 2.928 5.662 5.662 0 0 1 .732.516 9.574 9.574 0 0 0 .864-.852 6.843 6.843 0 0 0 1.236 1.464 7.951 7.951 0 0 1 -2.148.924c.06-.216.12-.432.18-.636l-.54-.192-.132.048h-.888l.456-.516a6.893 6.893 0 0 0 -1.008-.72 8.984 8.984 0 0 0 1.956-2.04l-.576-.36-.156.036h-4.032v.78h3.4a8.441 8.441 0 0 1 -1.26 1.188c-.384-.2-.792-.4-1.164-.552l-.552.576a12.247 12.247 0 0 1 2.664 1.608h-3.22v.78h1.812a9.042 9.042 0 0 1 -1.932 3.216 4.72 4.72 0 0 1 .468.828 9.61 9.61 0 0 0 1.752-2.952v3.848c0 .132-.048.168-.192.18s-.624 0-1.14-.012a3.277 3.277 0 0 1 .276.816 4.709 4.709 0 0 0 1.5-.132c.3-.156.4-.4.4-.852v-4.944h1.152a12.507 12.507 0 0 1 -.656 1.932zm3.624-.528c.072-.384.132-.78.168-1.188h-.9c-.036.408-.084.8-.156 1.188h-2.064v.744h1.872a4.114 4.114 0 0 1 -2.784 2.832 2.9 2.9 0 0 1 .528.684 4.868 4.868 0 0 0 3.18-3.516h2.016c-.18 1.644-.36 2.316-.588 2.544a.508.508 0 0 1 -.408.12c-.192 0-.672-.012-1.188-.06a2.333 2.333 0 0 1 .24.828 12.682 12.682 0 0 0 1.332.012 1.082 1.082 0 0 0 .744-.312c.348-.348.576-1.26.792-3.492.012-.144.024-.384.024-.384z" transform="translate(55.5 171.076)"/><path d="m6.012-1.392c0 .816-.576 1.02-1.26 1.02-1.176 0-1.644-.408-1.644-.96s.612-.968 1.74-.968a6.05 6.05 0 0 1 1.152.1c0 .328.012.6.012.808zm4.332.408a9.755 9.755 0 0 0 -3.456-1.848c-.024-.564-.06-1.188-.084-1.8 1.128-.048 2.184-.132 3.3-.276l-.012-.9a32.058 32.058 0 0 1 -3.3.312v-1.704c1.116-.06 2.136-.156 3.072-.252l-.012-.876a26.424 26.424 0 0 1 -3.052.288c0-.288 0-.516.012-.66a6.116 6.116 0 0 1 .06-.792h-1.016a6.652 6.652 0 0 1 .036.708v.784h-.612a18.945 18.945 0 0 1 -2.78-.232v.888c.708.084 1.968.18 2.8.18h.58v1.7h-.636a21.141 21.141 0 0 1 -2.988-.228v.912c.852.1 2.172.168 2.988.168h.656c.012.492.036 1.056.06 1.584a6.709 6.709 0 0 0 -1-.072c-1.716 0-2.76.732-2.76 1.812.008 1.156.956 1.768 2.66 1.768 1.548 0 2.1-.852 2.1-1.668 0-.18-.012-.444-.024-.744a8.826 8.826 0 0 1 2.864 1.788zm11.4-5.244-.612.264a11.14 11.14 0 0 1 .984 1.692l.612-.288a14.243 14.243 0 0 0 -.984-1.668zm1.308-.5-.6.276a10.688 10.688 0 0 1 1.02 1.668l.624-.288a18.127 18.127 0 0 0 -1.044-1.66zm-9.096-1.172.108 1.056c1.284-.264 4.524-.576 5.568-.7a4.8 4.8 0 0 0 -2.208 4.008c0 2.66 2.508 3.836 4.704 3.936l.348-1.008c-1.932-.072-4.092-.8-4.092-3.12a4.155 4.155 0 0 1 2.716-3.76 9.847 9.847 0 0 1 2.328-.192v-.96c-.792.036-1.908.1-3.2.2-2.184.192-4.428.408-5.208.48-.236.028-.608.052-1.064.06z" transform="translate(102.5 273.076)"/><path d="m16.38-9.93v-7.26h7.8v7.26zm-10.68 0v-7.26h7.77v7.26zm10.68-9.99v-5.22h-2.91v5.22h-10.56v14.49h2.79v-1.77h7.77v9.54h2.91v-9.54h7.8v1.62h2.91v-14.34zm21.03 2.07h20.04v4.41h2.76v-6.87h-4.35c.93-1.14 1.92-2.46 2.79-3.75l-2.94-.93a31.527 31.527 0 0 1 -2.91 4.68h-5.07l1.47-.57a17.785 17.785 0 0 0 -2.43-4.44l-2.43.9a22.219 22.219 0 0 1 2.1 4.11h-5.55l1.08-.51a18.409 18.409 0 0 0 -2.79-4.02l-2.4 1.08a18.928 18.928 0 0 1 2.34 3.45h-4.32v6.87h2.61zm23.25 9.48h-11.82v-.39a26.926 26.926 0 0 0 7.02-5.16l-1.8-1.35-.6.15h-14.07v2.43h11.4a23.734 23.734 0 0 1 -3.39 2.25h-1.41v2.07h-11.7v2.58h11.7v4.92c0 .45-.15.57-.75.6s-2.7.03-4.8-.06a15.009 15.009 0 0 1 1.17 2.7 20.852 20.852 0 0 0 5.61-.42c1.23-.42 1.62-1.2 1.62-2.73v-5.01h11.82zm31.62-13.14h-11.16v-3.66h-2.88v3.66h-10.95v2.67h24.99zm-13.44 9.09a36.944 36.944 0 0 0 -3.87-2.91 22.658 22.658 0 0 0 1.14-2.79l-2.82-.63a15.684 15.684 0 0 1 -6.54 8.79 17.67 17.67 0 0 1 2.25 1.86 19.244 19.244 0 0 0 4.8-5.13 33.719 33.719 0 0 1 3.36 2.79zm14.31 5.19h-12.03v-1.98h-.03a17.164 17.164 0 0 0 3.75-3.63 52.522 52.522 0 0 1 5.64 4.53l1.95-2.07a53.513 53.513 0 0 0 -6.15-4.65 17.178 17.178 0 0 0 1.35-3.12l-2.82-.54a13.741 13.741 0 0 1 -6.51 7.95 13.5 13.5 0 0 1 1.86 1.53h-1.92v1.98h-11.73v2.67h11.73v6.9h2.88v-6.9h12.03zm23.16-10.5a27.992 27.992 0 0 1 -1.32 2.85h-6.33l.87-.18a12.621 12.621 0 0 0 -1.29-2.67zm9.03 13.14v-2.34h-11.82v-1.83h9.21v-2.1h-9.21v-1.8h10.62v-2.22h-6.36c.51-.84 1.11-1.83 1.68-2.85h5.79v-2.34h-4.32a46.938 46.938 0 0 0 2.49-4.08l-2.88-.72a26.147 26.147 0 0 1 -2.1 4.44l1.14.36h-3.24v-5.13h-2.64v5.13h-2.97v-5.13h-2.61v5.13h-3.3l1.53-.57a20.852 20.852 0 0 0 -2.4-4.29l-2.43.81a22.492 22.492 0 0 1 2.19 4.05h-4.44v2.34h6.81l-.72.12a14.862 14.862 0 0 1 1.26 2.73h-6.15v2.22h10.32v1.8h-8.85v2.1h8.85v1.83h-11.64v2.34h9.27a29.107 29.107 0 0 1 -10.11 4.17 12.52 12.52 0 0 1 1.83 2.37 29.8 29.8 0 0 0 10.65-5.4v5.82h2.73v-6.03a26.761 26.761 0 0 0 10.74 5.64 12.528 12.528 0 0 1 1.86-2.49 27.551 27.551 0 0 1 -10.17-4.08z" fill="#1778b1" transform="translate(2.5 243.076)"/><path d="m-93.408-8.724a8.81 8.81 0 0 0 -2.352-1.236l-.48.66a9.575 9.575 0 0 1 2.328 1.308zm-.624 3.132a10.173 10.173 0 0 0 -2.376-1.1l-.468.684a10.086 10.086 0 0 1 2.364 1.176zm-.276 1.932a36.1 36.1 0 0 1 -2.148 3.852l.756.576c.672-1.116 1.464-2.592 2.064-3.852zm8.5 4.128a16.307 16.307 0 0 0 -2.292-3.444l-.756.4a20.692 20.692 0 0 1 1.236 1.7c-1.416.1-2.844.18-4.08.24.528-1.044 1.092-2.412 1.536-3.552h4.152v-.852h-3.408v-2.2h2.844v-.84h-2.844v-1.956h-.912v1.956h-2.736v.84h2.736v2.2h-3.336v.852h2.448a28.313 28.313 0 0 1 -1.44 3.612l-1 .048.132.888c1.656-.108 4.068-.26 6.384-.444a7.934 7.934 0 0 1 .5 1.02zm3.288-8.292h8.172v1.752h.912v-2.592h-4.536v-1.368h-.928v1.368h-4.5v2.592h.876zm4.548 5.1h3.552v-.828h-3.552v-1.992h3.06v-.84h-6.948v.84h2.976v5.028a3.6 3.6 0 0 1 -2.216-2.316 15.146 15.146 0 0 0 .288-1.6l-.912-.084c-.264 2.148-.912 3.852-2.244 4.884a4.659 4.659 0 0 1 .732.6 6.574 6.574 0 0 0 1.792-2.668c1.092 2.024 2.88 2.456 5.364 2.456h2.78a2.63 2.63 0 0 1 .336-.9c-.576.012-2.64.012-3.072.012a10.955 10.955 0 0 1 -1.944-.144zm15.3-3.5-.612.264a11.14 11.14 0 0 1 .984 1.688l.612-.288a14.243 14.243 0 0 0 -.988-1.668zm1.308-.5-.6.276a10.689 10.689 0 0 1 1.02 1.668l.624-.288a18.126 18.126 0 0 0 -1.048-1.664zm-9.1-1.164.108 1.056c1.284-.264 4.524-.576 5.568-.7a4.8 4.8 0 0 0 -2.212 4.004c0 2.652 2.512 3.828 4.708 3.928l.348-1.008c-1.932-.072-4.092-.8-4.092-3.12a4.155 4.155 0 0 1 2.712-3.756 9.846 9.846 0 0 1 2.324-.196v-.96c-.792.036-1.908.1-3.2.2-2.184.192-4.428.408-5.208.48-.228.028-.6.052-1.056.06zm14-1.32a5.241 5.241 0 0 1 -.084.84 37.029 37.029 0 0 0 -.54 4.992 14.359 14.359 0 0 0 .46 3.76l.852-.072c-.012-.12-.036-.288-.036-.408a2.039 2.039 0 0 1 .06-.528 25.655 25.655 0 0 1 .84-2.628l-.5-.4c-.2.48-.48 1.188-.672 1.728a10.5 10.5 0 0 1 -.116-1.616 29.184 29.184 0 0 1 .588-4.788 5.628 5.628 0 0 1 .2-.8zm6.06 7.368c0 .792-.288 1.284-1.3 1.284-.852 0-1.428-.336-1.428-.924 0-.552.612-.948 1.5-.948a3.716 3.716 0 0 1 1.212.192c.02.136.02.28.02.388zm3.24.588a8.1 8.1 0 0 0 -2.336-1.556c-.048-1-.132-2.184-.144-3.372.708-.048 1.4-.12 2.052-.228v-.936a15.137 15.137 0 0 1 -2.052.276c.012-.552.024-1.1.036-1.428a6.732 6.732 0 0 1 .072-.708h-1.092a4.857 4.857 0 0 1 .06.72v1.476c-.372.012-.744.024-1.116.024a18.578 18.578 0 0 1 -2.016-.108v.912c.7.036 1.32.072 1.992.072.384 0 .756-.012 1.14-.024.012.984.084 2.124.12 3.036a5.3 5.3 0 0 0 -1.1-.108c-1.564.004-2.452.816-2.452 1.812 0 1.056.876 1.716 2.472 1.716a1.8 1.8 0 0 0 2.064-1.944v-.216a9.018 9.018 0 0 1 1.788 1.356zm4.792 1.408a2.561 2.561 0 0 0 2.82-2.508 2.262 2.262 0 0 0 -1.872-2.232v-.048a2.193 2.193 0 0 0 1.572-2.124c0-1.416-1.08-2.208-2.556-2.208a3.522 3.522 0 0 0 -2.46 1.056l.588.7a2.745 2.745 0 0 1 1.824-.876 1.374 1.374 0 0 1 1.488 1.416c0 .948-.624 1.68-2.436 1.68v.84c2.028 0 2.736.708 2.736 1.764a1.62 1.62 0 0 1 -1.788 1.628 2.908 2.908 0 0 1 -2.184-1.008l-.552.72a3.641 3.641 0 0 0 2.82 1.2zm7.644-2.964a5.961 5.961 0 0 1 -.96 2.064 3.7 3.7 0 0 1 .576.384 7.805 7.805 0 0 0 1.08-2.292zm3.564-.576v-.7h-3.972v.7h1.62v3.3c0 .108-.024.132-.144.144s-.444.012-.864 0a2.5 2.5 0 0 1 .252.708 2.831 2.831 0 0 0 1.188-.144c.264-.12.324-.324.324-.708v-3.3zm.324 2.376a7.561 7.561 0 0 0 -.9-1.788l-.6.228a8.066 8.066 0 0 1 .876 1.824zm1.74-5.784-.384.3a10.375 10.375 0 0 1 1.1.8h-1.7c-.048-.36-.072-.732-.1-1.1zm1.008 2.328a8.243 8.243 0 0 1 -1.14 2.328 13.817 13.817 0 0 1 -.756-2.832h3.264v-.72h-.888l.12-.12a7.828 7.828 0 0 0 -1.332-.984h2.16v-.744h-4.656v-.984h3.52v-.672h-3.52v-.84h-.88v2.5h-2.18v-1.96h-.84v1.956h-1.92v.744h6.156c.012.372.048.744.1 1.1h-5.58v2a7.034 7.034 0 0 1 -1.012 4.112 4.07 4.07 0 0 1 .676.528 8.1 8.1 0 0 0 1.164-4.62v-1.3h4.848a15.355 15.355 0 0 0 1.008 3.552 8.674 8.674 0 0 1 -2.176 1.732 4.181 4.181 0 0 1 .6.624 8.9 8.9 0 0 0 1.956-1.596c.564 1.008 1.224 1.62 1.86 1.62.72 0 1.02-.48 1.152-2.148a2.113 2.113 0 0 1 -.672-.384c-.048 1.212-.168 1.728-.42 1.728-.408 0-.912-.54-1.38-1.464a9.835 9.835 0 0 0 1.572-2.992zm9.144 3.072c0 .816-.576 1.02-1.26 1.02-1.176 0-1.644-.408-1.644-.96s.612-.972 1.74-.972a6.05 6.05 0 0 1 1.152.104c0 .328.012.6.012.808zm4.332.408a9.755 9.755 0 0 0 -3.456-1.848c-.024-.564-.06-1.188-.084-1.8 1.128-.048 2.184-.132 3.3-.276l-.012-.9a32.058 32.058 0 0 1 -3.3.312v-1.704c1.116-.06 2.136-.156 3.072-.252l-.012-.876a26.424 26.424 0 0 1 -3.048.288c0-.288 0-.516.012-.66a6.116 6.116 0 0 1 .06-.792h-1.016a6.651 6.651 0 0 1 .036.708v.784h-.612a18.945 18.945 0 0 1 -2.784-.228v.888c.708.084 1.968.18 2.8.18h.588v1.7h-.636a21.141 21.141 0 0 1 -2.992-.228v.912c.852.1 2.172.168 2.988.168h.66c.012.492.036 1.056.06 1.584a6.709 6.709 0 0 0 -1-.072c-1.716 0-2.76.732-2.76 1.812 0 1.152.952 1.764 2.652 1.764 1.548 0 2.1-.852 2.1-1.668 0-.18-.012-.444-.024-.744a8.826 8.826 0 0 1 2.868 1.788zm11.4-5.244-.612.264a11.14 11.14 0 0 1 .984 1.692l.612-.288a14.243 14.243 0 0 0 -.984-1.668zm1.308-.5-.6.276a10.688 10.688 0 0 1 1.02 1.668l.624-.288a18.126 18.126 0 0 0 -1.044-1.66zm-9.092-1.172.1 1.06c1.284-.264 4.524-.576 5.568-.7a4.8 4.8 0 0 0 -2.204 4.012c0 2.652 2.508 3.828 4.704 3.928l.348-1.008c-1.932-.072-4.092-.8-4.092-3.12a4.155 4.155 0 0 1 2.712-3.76 9.847 9.847 0 0 1 2.328-.192v-.96c-.792.036-1.908.1-3.2.2-2.184.192-4.428.408-5.208.48-.232.028-.604.052-1.056.06z" transform="translate(114.5 300.076)"/><g fill="#1778b1" transform="translate(0 157.076)"><path d="m86.708 197.6a.624.624 0 0 0 .18.03.592.592 0 0 0 .572-.421.6.6 0 0 0 -.385-.758.611.611 0 0 0 -.758.391.6.6 0 0 0 .391.758z" transform="translate(-79.799 -181.657)"/><path d="m148.01 112.462a.62.62 0 0 0 .361-.12h-.006a.6.6 0 0 0 .132-.837.606.606 0 0 0 -.842-.132.6.6 0 0 0 -.126.842.592.592 0 0 0 .481.247z" transform="translate(-136.325 -102.892)"/><path d="m247.52 79.422h.006a.6.6 0 0 0 -.006-1.2.609.609 0 0 0 -.6.608.6.6 0 0 0 .6.592z" transform="translate(-228.351 -72.337)"/><path d="m347.462 111.257a.6.6 0 0 0 .487-.253.6.6 0 1 0 -.836.138.586.586 0 0 0 .349.115z" transform="translate(-320.78 -101.778)"/><path d="m87.294 301.3a.592.592 0 0 0 -.379.758h-.006a.607.607 0 0 0 .578.415.523.523 0 0 0 .186-.031.6.6 0 0 0 -.379-1.143z" transform="translate(-80.349 -278.613)"/><path d="m148.976 386.018a.606.606 0 0 0 .139.842.626.626 0 0 0 .349.108.611.611 0 0 0 .493-.247.6.6 0 0 0 -.98-.7z" transform="translate(-137.67 -356.759)"/><path d="m410.355 299.859a.6.6 0 0 0 -.758.391.594.594 0 0 0 .391.752.485.485 0 0 0 .186.03.6.6 0 0 0 .18-1.173z" transform="translate(-378.771 -277.284)"/><path d="m409.617 195.709a.723.723 0 0 0 .186-.03.612.612 0 0 0 .385-.764l-.018-.036v-.006a.6.6 0 0 0 -1.143.38.079.079 0 0 1 .012.036c.006 0 .006 0 .006.006a.6.6 0 0 0 .572.414z" transform="translate(-378.243 -179.841)"/><path d="m348.569 385.021a.6.6 0 0 0 -.132.842.61.61 0 0 0 .487.247.583.583 0 0 0 .349-.12.6.6 0 1 0 -.7-.969z" transform="translate(-322.128 -355.961)"/><path d="m249.356 417.742a.6.6 0 0 0 .006 1.2.6.6 0 1 0 -.006-1.2z" transform="translate(-230.055 -386.33)"/><path d="m19.25 0a19.25 19.25 0 1 0 19.25 19.25 19.272 19.272 0 0 0 -19.25-19.25zm0 33.917a14.667 14.667 0 1 1 14.667-14.667 14.683 14.683 0 0 1 -14.667 14.667z"/><path d="m238.153 130.672h-3.145v12h10.427v-3.145h-7.282z" transform="translate(-217.337 -120.846)"/></g><path d="m-44.718-8.724a8.81 8.81 0 0 0 -2.352-1.236l-.48.66a9.574 9.574 0 0 1 2.328 1.308zm-.624 3.132a10.173 10.173 0 0 0 -2.376-1.1l-.468.684a10.086 10.086 0 0 1 2.364 1.176zm-.276 1.932a36.1 36.1 0 0 1 -2.148 3.852l.756.576c.672-1.116 1.464-2.592 2.064-3.852zm8.5 4.128a16.307 16.307 0 0 0 -2.292-3.444l-.756.4a20.694 20.694 0 0 1 1.236 1.7c-1.416.1-2.844.18-4.08.24.528-1.044 1.092-2.412 1.536-3.552h4.152v-.852h-3.408v-2.2h2.844v-.84h-2.844v-1.956h-.912v1.956h-2.736v.84h2.736v2.2h-3.336v.852h2.448a28.313 28.313 0 0 1 -1.44 3.612l-1 .048.132.888c1.656-.108 4.068-.26 6.384-.444a7.936 7.936 0 0 1 .5 1.02zm3.288-8.292h8.172v1.752h.912v-2.592h-4.536v-1.368h-.924v1.368h-4.5v2.592h.876zm4.548 5.1h3.552v-.828h-3.552v-1.992h3.06v-.84h-6.948v.84h2.97v5.028a3.6 3.6 0 0 1 -2.208-2.316 15.147 15.147 0 0 0 .288-1.6l-.912-.084c-.264 2.148-.912 3.852-2.244 4.884a4.658 4.658 0 0 1 .732.6 6.574 6.574 0 0 0 1.79-2.668c1.092 2.024 2.88 2.456 5.364 2.456h2.784a2.63 2.63 0 0 1 .336-.9c-.576.012-2.64.012-3.072.012a10.955 10.955 0 0 1 -1.944-.144zm15.3-3.5-.612.264a11.14 11.14 0 0 1 .984 1.692l.61-.292a14.243 14.243 0 0 0 -.986-1.668zm1.308-.5-.6.276a10.688 10.688 0 0 1 1.02 1.668l.624-.288a18.126 18.126 0 0 0 -1.048-1.664zm-9.1-1.164.108 1.056c1.284-.264 4.524-.576 5.568-.7a4.8 4.8 0 0 0 -2.208 4.008c0 2.648 2.506 3.824 4.706 3.924l.348-1.008c-1.932-.072-4.092-.8-4.092-3.12a4.155 4.155 0 0 1 2.712-3.756 9.847 9.847 0 0 1 2.328-.192v-.96c-.792.036-1.908.1-3.2.2-2.184.192-4.428.408-5.208.48-.234.024-.606.048-1.062.056zm14-1.32a5.241 5.241 0 0 1 -.084.84 37.029 37.029 0 0 0 -.54 4.992 14.359 14.359 0 0 0 .46 3.76l.852-.072c-.014-.12-.036-.288-.036-.412a2.039 2.039 0 0 1 .06-.528 25.656 25.656 0 0 1 .84-2.628l-.5-.4c-.2.48-.48 1.188-.672 1.728a10.5 10.5 0 0 1 -.108-1.62 29.184 29.184 0 0 1 .588-4.788 5.628 5.628 0 0 1 .2-.8zm6.06 7.368c0 .792-.288 1.284-1.3 1.284-.852 0-1.428-.336-1.428-.924 0-.552.612-.948 1.5-.948a3.716 3.716 0 0 1 1.212.192c.02.136.02.28.02.388zm3.24.588a8.1 8.1 0 0 0 -2.336-1.556c-.048-1-.132-2.184-.144-3.372.708-.048 1.404-.12 2.054-.228v-.936a15.137 15.137 0 0 1 -2.052.276c.012-.552.024-1.1.036-1.428a6.732 6.732 0 0 1 .07-.704h-1.092a4.857 4.857 0 0 1 .06.72v1.476c-.372.012-.744.024-1.116.024a18.578 18.578 0 0 1 -2.016-.112v.912c.7.036 1.32.072 1.992.072.384 0 .756-.012 1.14-.024.012.984.084 2.124.12 3.036a5.3 5.3 0 0 0 -1.1-.108c-1.56 0-2.448.816-2.448 1.812 0 1.056.876 1.716 2.472 1.716a1.8 1.8 0 0 0 2.06-1.944v-.216a9.018 9.018 0 0 1 1.788 1.356zm2.68 1.252h4.824v-.912h-1.764v-7.888h-.84a5.573 5.573 0 0 1 -1.826.628v.7h1.56v6.56h-1.954zm9.756-2.808a5.961 5.961 0 0 1 -.962 2.064 3.7 3.7 0 0 1 .576.384 7.805 7.805 0 0 0 1.08-2.292zm3.564-.576v-.7h-3.972v.7h1.62v3.3c0 .108-.024.132-.144.144s-.444.012-.864 0a2.5 2.5 0 0 1 .252.708 2.831 2.831 0 0 0 1.188-.144c.264-.124.324-.324.324-.708v-3.3zm.324 2.376a7.561 7.561 0 0 0 -.9-1.788l-.6.228a8.066 8.066 0 0 1 .876 1.824zm1.74-5.784-.384.3a10.375 10.375 0 0 1 1.1.8h-1.7c-.048-.36-.072-.732-.1-1.1zm1.01 2.328a8.243 8.243 0 0 1 -1.14 2.328 13.817 13.817 0 0 1 -.76-2.832h3.264v-.72h-.888l.12-.12a7.828 7.828 0 0 0 -1.332-.984h2.16v-.744h-4.654v-.984h3.516v-.672h-3.516v-.84h-.876v2.5h-2.184v-1.96h-.84v1.956h-1.92v.744h6.156c.012.372.048.744.1 1.1h-5.58v2a7.034 7.034 0 0 1 -1.012 4.112 4.07 4.07 0 0 1 .672.528 8.1 8.1 0 0 0 1.164-4.62v-1.3h4.85a15.355 15.355 0 0 0 1.008 3.552 8.674 8.674 0 0 1 -2.174 1.732 4.181 4.181 0 0 1 .6.624 8.9 8.9 0 0 0 1.956-1.596c.564 1.008 1.224 1.62 1.86 1.62.72 0 1.02-.48 1.152-2.148a2.113 2.113 0 0 1 -.672-.384c-.048 1.212-.168 1.728-.42 1.728-.408 0-.912-.54-1.38-1.464a9.835 9.835 0 0 0 1.57-2.992zm9.144 3.072c0 .816-.576 1.02-1.26 1.02-1.176 0-1.644-.408-1.644-.96s.612-.972 1.74-.972a6.05 6.05 0 0 1 1.15.104c0 .328.012.6.012.808zm4.332.408a9.755 9.755 0 0 0 -3.456-1.848c-.024-.564-.06-1.188-.084-1.8 1.128-.048 2.184-.132 3.3-.276l-.012-.9a32.058 32.058 0 0 1 -3.3.312v-1.704c1.116-.06 2.136-.156 3.072-.252l-.012-.876a26.424 26.424 0 0 1 -3.048.288c0-.288 0-.516.012-.66a6.116 6.116 0 0 1 .06-.792h-1.02a6.651 6.651 0 0 1 .036.708v.784h-.614a18.945 18.945 0 0 1 -2.784-.228v.888c.708.084 1.968.18 2.8.18h.588v1.7h-.636a21.141 21.141 0 0 1 -2.988-.228v.912c.852.1 2.172.168 2.988.168h.66c.012.492.036 1.056.06 1.584a6.709 6.709 0 0 0 -1-.072c-1.716 0-2.76.732-2.76 1.812 0 1.152.948 1.764 2.652 1.764 1.548 0 2.1-.852 2.1-1.668 0-.18-.012-.444-.024-.744a8.826 8.826 0 0 1 2.868 1.788zm11.4-5.244-.612.264a11.14 11.14 0 0 1 .984 1.692l.612-.288a14.243 14.243 0 0 0 -.986-1.668zm1.308-.5-.6.276a10.689 10.689 0 0 1 1.016 1.664l.624-.288a18.126 18.126 0 0 0 -1.042-1.656zm-9.098-1.172.108 1.056c1.284-.264 4.524-.576 5.568-.7a4.8 4.8 0 0 0 -2.208 4.008c0 2.66 2.508 3.836 4.704 3.936l.348-1.008c-1.932-.072-4.092-.8-4.092-3.12a4.155 4.155 0 0 1 2.712-3.756 9.847 9.847 0 0 1 2.328-.192v-.96c-.792.036-1.908.1-3.2.2-2.184.192-4.428.408-5.208.48-.232.024-.604.048-1.06.056zm-82.128 29.052.72-.372a7.509 7.509 0 0 1 -2.232-5.34 7.509 7.509 0 0 1 2.232-5.34l-.72-.372a7.973 7.973 0 0 0 -2.388 5.712 7.973 7.973 0 0 0 2.388 5.712zm11.242-9.352h-6v-.828h6zm0 1.44h-6v-.84h6zm.876-2.9h-7.716v3.54h7.716zm-.12 6.408a5.692 5.692 0 0 1 -1.3 1.764 5.677 5.677 0 0 1 -1.176-1.764zm-7.176 1.536h2.172v.732c-.744.084-1.488.156-2.172.228zm0-1.512h2.172v.84h-2.172zm2.172-1.476v.8h-2.172v-.8zm5.556.72-.156.024h-4.128v.708h1.032l-.516.156a6.913 6.913 0 0 0 1.32 2.112 7.273 7.273 0 0 1 -2.256 1.14v-4.856h5.616v-.744h-10.486v.744h1.032v4.032c-.42.048-.8.084-1.14.108l.084.792c1.116-.132 2.58-.3 4.044-.48v1.164h.852v-.744a2.93 2.93 0 0 1 .468.672 8.306 8.306 0 0 0 2.388-1.26 6.876 6.876 0 0 0 2.508 1.316 2.94 2.94 0 0 1 .54-.7 6.486 6.486 0 0 1 -2.424-1.152 6.855 6.855 0 0 0 1.764-2.82zm12.708.564a18.441 18.441 0 0 1 -2.532 1.62 6.072 6.072 0 0 1 -1.236-1.728h5.028v-.8h-7.644v-1.02h6.12v-.732h-6.12v-1h6.12v-.732h-6.12v-1h6.48v-.756h-7.392v5.232h-2.1v.8h2.1v3.312c-.564.084-1.092.168-1.524.228l.228.816c1.428-.24 3.48-.588 5.388-.924l-.036-.792c-1.056.18-2.148.36-3.144.528v-3.16h1.7a7.5 7.5 0 0 0 5.58 4.476 2.784 2.784 0 0 1 .552-.78 8.1 8.1 0 0 1 -3.42-1.476 18.782 18.782 0 0 0 2.7-1.632zm4.932-5.8a5.241 5.241 0 0 1 -.084.84 37.029 37.029 0 0 0 -.54 4.992 14.359 14.359 0 0 0 .456 3.768l.852-.072c-.012-.12-.036-.288-.036-.408a2.039 2.039 0 0 1 .06-.528 25.656 25.656 0 0 1 .84-2.628l-.5-.4c-.2.48-.48 1.188-.672 1.728a10.5 10.5 0 0 1 -.108-1.62 29.184 29.184 0 0 1 .588-4.788 5.628 5.628 0 0 1 .2-.8zm6.06 7.368c0 .792-.288 1.284-1.3 1.284-.852 0-1.428-.336-1.428-.924 0-.552.612-.948 1.5-.948a3.716 3.716 0 0 1 1.212.192c.018.148.018.292.018.4zm3.24.588a8.1 8.1 0 0 0 -2.34-1.548c-.048-1-.132-2.184-.144-3.372.708-.048 1.4-.12 2.052-.228v-.936a15.137 15.137 0 0 1 -2.052.276c.012-.552.024-1.1.036-1.428a6.732 6.732 0 0 1 .072-.708h-1.09a4.857 4.857 0 0 1 .06.72v1.476c-.372.012-.744.024-1.116.024a18.578 18.578 0 0 1 -2.016-.108v.912c.7.036 1.32.072 1.992.072.384 0 .756-.012 1.14-.024.012.984.084 2.124.12 3.036a5.3 5.3 0 0 0 -1.1-.108c-1.56 0-2.448.816-2.448 1.812 0 1.056.876 1.716 2.472 1.716a1.8 1.8 0 0 0 2.06-1.94v-.216a9.018 9.018 0 0 1 1.788 1.356zm2.152 1.264h5.53v-.948h-2.436c-.444 0-.984.048-1.44.084 2.064-1.956 3.446-3.744 3.446-5.496a2.413 2.413 0 0 0 -2.556-2.6 3.364 3.364 0 0 0 -2.592 1.3l.636.624a2.463 2.463 0 0 1 1.822-1.028 1.546 1.546 0 0 1 1.62 1.74c0 1.512-1.272 3.264-4.032 5.676zm10.282-2.808a5.961 5.961 0 0 1 -.96 2.064 3.7 3.7 0 0 1 .576.384 7.805 7.805 0 0 0 1.08-2.292zm3.564-.576v-.7h-3.972v.7h1.62v3.3c0 .108-.024.132-.144.144s-.444.012-.864 0a2.5 2.5 0 0 1 .252.708 2.831 2.831 0 0 0 1.188-.144c.264-.12.324-.324.324-.708v-3.3zm.324 2.376a7.561 7.561 0 0 0 -.9-1.788l-.6.228a8.066 8.066 0 0 1 .876 1.824zm1.74-5.784-.384.3a10.375 10.375 0 0 1 1.1.8h-1.7c-.048-.36-.072-.732-.1-1.1zm1.008 2.328a8.243 8.243 0 0 1 -1.14 2.328 13.817 13.817 0 0 1 -.756-2.832h3.264v-.72h-.886l.12-.12a7.828 7.828 0 0 0 -1.332-.984h2.16v-.744h-4.658v-.984h3.516v-.672h-3.516v-.84h-.876v2.5h-2.184v-1.96h-.84v1.956h-1.92v.744h6.156c.012.372.048.744.1 1.1h-5.584v2a7.034 7.034 0 0 1 -1.008 4.1 4.07 4.07 0 0 1 .672.528 8.1 8.1 0 0 0 1.164-4.62v-1.3h4.848a15.355 15.355 0 0 0 1.008 3.552 8.674 8.674 0 0 1 -2.172 1.728 4.181 4.181 0 0 1 .6.624 8.9 8.9 0 0 0 1.956-1.6c.564 1.008 1.224 1.62 1.86 1.62.72 0 1.02-.48 1.152-2.148a2.113 2.113 0 0 1 -.672-.384c-.048 1.212-.168 1.728-.42 1.728-.408 0-.912-.54-1.38-1.464a9.835 9.835 0 0 0 1.572-2.972zm9.144 3.072c0 .816-.576 1.02-1.26 1.02-1.176 0-1.644-.408-1.644-.96s.612-.972 1.74-.972a6.05 6.05 0 0 1 1.152.108c0 .324.012.596.012.804zm4.332.408a9.755 9.755 0 0 0 -3.456-1.848c-.024-.564-.06-1.188-.084-1.8 1.128-.048 2.184-.132 3.3-.276l-.012-.9a32.058 32.058 0 0 1 -3.3.312v-1.704c1.116-.06 2.136-.156 3.072-.252l-.012-.876a26.424 26.424 0 0 1 -3.048.288c0-.288 0-.516.012-.66a6.116 6.116 0 0 1 .06-.792h-1.02a6.651 6.651 0 0 1 .036.708v.784h-.612a18.945 18.945 0 0 1 -2.784-.228v.888c.708.084 1.968.18 2.8.18h.588v1.7h-.636a21.141 21.141 0 0 1 -2.988-.228v.912c.852.1 2.172.168 2.988.168h.66c.012.492.036 1.056.06 1.584a6.709 6.709 0 0 0 -1-.072c-1.716 0-2.76.732-2.76 1.812 0 1.152.948 1.764 2.652 1.764 1.548 0 2.1-.852 2.1-1.668 0-.18-.012-.444-.024-.744a8.826 8.826 0 0 1 2.868 1.788zm11.4-5.244-.612.264a11.14 11.14 0 0 1 .984 1.692l.612-.288a14.243 14.243 0 0 0 -.984-1.668zm1.308-.5-.6.276a10.689 10.689 0 0 1 1.02 1.668l.624-.288a18.126 18.126 0 0 0 -1.046-1.66zm-9.1-1.164.108 1.056c1.284-.264 4.524-.576 5.568-.7a4.8 4.8 0 0 0 -2.208 4.008c0 2.652 2.508 3.828 4.7 3.924l.348-1.008c-1.932-.072-4.092-.8-4.092-3.12a4.155 4.155 0 0 1 2.712-3.756 9.846 9.846 0 0 1 2.328-.192v-.96c-.792.036-1.908.1-3.2.2-2.184.192-4.428.408-5.208.48-.224.028-.596.052-1.052.06zm13.24-2.38-.72.372a7.5 7.5 0 0 1 0 10.68l.72.372a8.025 8.025 0 0 0 0-11.424z" transform="translate(240.5 305.076)"/></svg>