<svg height="212.49" viewBox="0 0 251.956 212.49" width="251.956" xmlns="http://www.w3.org/2000/svg"><path d="m-54.276-7.512h-.492v-.96h.492zm1.068 3.312a.262.262 0 0 1 -.06-.048c-.024.036-.048.036-.156.036h-.216c-.1 0-.108-.012-.108-.168v-1.944h.54zm-2.784 3.312v-.812h2.784v.816zm.528-5.436v.936a2.445 2.445 0 0 1 -.528 1.716v-2.652zm2.148 2.808h.108v.828h-2.784v-.948a3.6 3.6 0 0 1 .5.444 3.31 3.31 0 0 0 .672-2.184v-.948h.42v1.944c0 .708.156.864.672.864zm-4-4.956h1.62v.96h-1.392v8.484h1.092v-.756h2.784v.6h1.14v-8.328h-1.268v-.96h1.488v-1.26h-5.448zm7.916 8.016c-.468 0-.54-.06-.54-.564v-3.612h1.932v.744h1.38v-5.736h-4.776v1.38h3.4v2.256h-3.356v4.98c0 1.476.42 1.884 1.752 1.884h1.668c1.236 0 1.62-.612 1.764-2.64a4.043 4.043 0 0 1 -1.272-.564c-.072 1.584-.144 1.872-.612 1.872zm7.44-9.672a12.675 12.675 0 0 1 -2.676 4.5 9.227 9.227 0 0 1 .768 1.488c.228-.264.468-.54.708-.852v6.024h1.36v-8.148a22.512 22.512 0 0 0 1.18-2.584zm5.66 7.476a5.836 5.836 0 0 1 .276.612l-.6.072v-1.152h1.8v1.72a11.941 11.941 0 0 0 -.648-1.512zm-2.8-3.432v-.756h1.224v.756zm0-2.5h1.224v.756h-1.224zm3.756.756h-1.284v-.752h1.284zm0 1.74h-1.284v-.752h1.284zm1.844 1.78h-3.12v-.708h2.664v-4.632h-6.456v4.632h2.544v.708h-3.132v5.352h1.344v-4.164h1.788v1.284c-.6.06-1.164.12-1.62.156l.264 1.188c1-.132 2.292-.324 3.564-.5.06.2.108.4.144.552l.7-.24v.4c0 .144-.06.192-.24.192-.156 0-.756.012-1.3-.024a4.387 4.387 0 0 1 .4 1.176 5.106 5.106 0 0 0 1.9-.192c.444-.192.564-.516.564-1.14zm7.476-3.324h1.956a16.387 16.387 0 0 1 -1.3 1.092h-.66zm2.616 5.244h-4.132v-.768h4.128zm-4.128 1.9v-.816h4.128v.816zm7-4.788v-1.264h-2.784a17.552 17.552 0 0 0 2.364-2.64l-1.232-.62a14.614 14.614 0 0 1 -1.236 1.52v-.588h-2.6v-1.3h-1.416v1.3h-2.82v1.236h2.82v1.092h-3.86v1.26h4.08a21.36 21.36 0 0 1 -4.46 1.992 7.863 7.863 0 0 1 .88 1.176c.612-.228 1.236-.492 1.836-.756v3.924h1.428v-.356h4.128v.312h1.488v-5.332h-4.36c.492-.312.948-.624 1.416-.96zm10.92 1.236v2.988h-2.684v-3.628h3.684v-4.356h-1.5v2.964h-2.184v-3.972h-1.464v3.972h-2.064v-2.964h-1.416v4.356h3.48v3.624h-2.508v-2.988h-1.452v5.088h1.452v-.7h6.648v.684h1.488v-5.072zm7.504 1.52a7.055 7.055 0 0 0 .684-.9h1.812v.9zm3.9 1.092h2.568v-1.092h-2.568v-.9h2.912v-1.092h-2.912v-.888h-1.404v.888h-1.212c.1-.216.192-.432.264-.648l-1.26-.288a5.648 5.648 0 0 1 -1.512 2.34 6.276 6.276 0 0 1 1.128.684l.084-.084v1.08h2.508v1.056h-3.444v1.172h8.412v-1.172h-3.564zm-.144-6.648a10.212 10.212 0 0 1 -.432 1.212l.216.06h-2.82l.36-.1a5.365 5.365 0 0 0 -.444-1.176zm.936 1.276c.228-.36.492-.816.768-1.272h1.488v-1.216h-4.092v-.876h-1.428v.876h-4.056v1.212h2.076l-.264.076a6.136 6.136 0 0 1 .456 1.2h-2.172v1.932a9.24 9.24 0 0 1 -1.08 4.976 5.663 5.663 0 0 1 1.1.9c1.132-1.644 1.348-4.188 1.348-5.868v-.72h8.7v-1.22zm13.236 2.42h-3.852l-.1-.648-1.1.312v-1.836h.792v1.092h4.26zm2.724-1.08v-1.32h-2.724v-1.02h2.208v-1.3h-2.208v-1.068h-1.416v1.068h-2.124v1.3h2.124v1.02h-2.64v-1.128h-1v-2.244h-1.304v2.244h-.564q.108-.72.18-1.44l-1.188-.192a14.593 14.593 0 0 1 -.684 3.864 7.64 7.64 0 0 1 1.008.648 9.708 9.708 0 0 0 .444-1.524h.8v2.208c-.8.216-1.548.408-2.136.54l.336 1.368c.54-.156 1.152-.336 1.8-.528v4.008h1.308v-4.4c.348-.108.708-.228 1.056-.336v.636h1.452l-1.032.636a9.6 9.6 0 0 1 1.372 1.88l1.14-.732a9.411 9.411 0 0 0 -1.44-1.788h2.508v2.484c0 .156-.048.192-.252.2s-.84 0-1.44-.024a5.2 5.2 0 0 1 .432 1.416 5.447 5.447 0 0 0 2.064-.236c.48-.228.6-.612.6-1.332v-2.508h1.212v-1.32h-1.212v-1.08zm3.708-2.892h2.252v1.644h-2.252zm1.224 3.9c.024-.324.048-.66.072-.984h2.34v-4.176h-4.932v4.176h1.2c-.1 1.992-.336 4.152-1.908 5.448a3.749 3.749 0 0 1 .948 1.044 6.808 6.808 0 0 0 2.108-4.256h1.332c-.084 1.9-.192 2.664-.372 2.868a.432.432 0 0 1 -.4.156 9.668 9.668 0 0 1 -1.176-.06 2.926 2.926 0 0 1 .368 1.236 8.855 8.855 0 0 0 1.448-.04 1.255 1.255 0 0 0 .9-.444c.336-.408.456-1.56.576-4.452 0-.168.012-.516.012-.516zm4.7-4.26h-1.388v6.756h1.392zm1.428-1.212v9.24c0 .216-.1.288-.324.288-.252 0-1.02 0-1.8-.024a5.214 5.214 0 0 1 .492 1.476 6.374 6.374 0 0 0 2.392-.276c.492-.228.66-.624.66-1.464v-9.24zm14.74 4.056v-1.392h-3.132v-2.712h-1.416v2.712h-3.048v1.392h2.484a11.386 11.386 0 0 1 -2.964 4.344v-5.592a18.935 18.935 0 0 0 1.236-2.532l-1.416-.452a12.311 12.311 0 0 1 -3.036 4.6 10.361 10.361 0 0 1 .828 1.5 10.877 10.877 0 0 0 .984-1.08v6.1h1.4v-2.4a7.914 7.914 0 0 1 .972 1.056 12.194 12.194 0 0 0 2.56-3.636v5h1.416v-5.24a12.267 12.267 0 0 0 2.424 3.816 5.087 5.087 0 0 1 1.068-1.14 11.737 11.737 0 0 1 -2.868-4.344zm12.828-3.84h-3.216v1.2h1.992v1.692h-1.992v1.2h3.216zm-8.592 1.668v2.28h-.816v-2.28zm-.816 5.856v-2.352h.816v2.352zm1.956-7.1h-3.06v9.3h1.1v-.952h1.956zm2.628.756v1.788h-.828v-1.792zm1.156 7.228v-1.172h-1.98v-1.028h1.836v-1.168h-1.84v-.912h2.064v-4.128h-3.372v10.728h1.308v-2.32zm2.376-2.556a7.513 7.513 0 0 1 -.564 1.488 8.367 8.367 0 0 1 -.516-1.488zm.66-1.188-.236.044h-2.66v1.152h.9l-.816.168a11.523 11.523 0 0 0 .84 2.4 4.894 4.894 0 0 1 -1.9 1.308 4.447 4.447 0 0 1 .708 1.044 6.538 6.538 0 0 0 1.9-1.26 4.639 4.639 0 0 0 1.392 1.208 4.716 4.716 0 0 1 .836-1.032 4.207 4.207 0 0 1 -1.452-1.152 9.042 9.042 0 0 0 1.272-3.672z" transform="translate(138 10.164)"/><path d="m10.371-58.271h-33.486v-9.58h50.581l-42.8 70.181-8.13-5.142z" fill="#1778b1" transform="translate(189 158.518)"/><path d="m40.948 9.968v3.324h-3.372v-4.092h3.8v-4.1h-.924v3.24h-2.88v-4.312h-.912v4.308h-2.744v-3.236h-.888v4.1h3.636v4.092h-3.2v-3.324h-.888v4.944h.888v-.744h7.488v.72h.912v-4.92zm10.572 2.412h2.868v-.72h-2.868v-1.26h3.18v-.72h-3.18v-1.068h-.888v1.068h-1.86a6.617 6.617 0 0 0 .4-.9l-.8-.192a6.309 6.309 0 0 1 -1.536 2.5 4.9 4.9 0 0 1 .7.432 7.771 7.771 0 0 0 .852-1.116h2.256v1.26h-2.724v.72h2.712v1.512h-3.732v.768h8.52v-.768h-3.9zm.68-6.58a13.94 13.94 0 0 1 -.648 1.572l.42.144h-3.66l.54-.156a5.14 5.14 0 0 0 -.652-1.56zm.12 1.716c.276-.444.6-1.044.9-1.608l-.44-.108h2.088v-.764h-4.284v-1.08h-.876v1.08h-4.208v.764h2.48l-.612.168a6.6 6.6 0 0 1 .632 1.552h-2.324v1.86a9.354 9.354 0 0 1 -1.092 4.956 3.424 3.424 0 0 1 .684.564 10.614 10.614 0 0 0 1.26-5.52v-1.068h8.952v-.792zm15.468.828-.18.072h-2.468l.2-.312c-.336-.18-.8-.408-1.3-.624a18.558 18.558 0 0 0 3.12-2.436l-.648-.492-.2.048h-7.4v.828h6.54a13.919 13.919 0 0 1 -2.28 1.644c-.732-.32-1.512-.644-2.172-.908l-.456.66c1.068.456 2.436 1.076 3.456 1.596h-6.216v.852h4.944v4.512c0 .18-.072.228-.288.24-.24.012-1.044.024-1.872-.012a5.131 5.131 0 0 1 .336.864 8.646 8.646 0 0 0 2.16-.144c.42-.132.564-.384.564-.936v-4.524h3.408a13.1 13.1 0 0 1 -1.4 1.872l.72.456a16.689 16.689 0 0 0 2.144-2.916zm4.164-2.172h8.172v1.756h.912v-2.592h-4.536v-1.368h-.92v1.368h-4.5v2.592h.876zm4.548 5.1h3.552v-.828h-3.552v-1.988h3.06v-.84h-6.944v.84h2.976v5.028a3.6 3.6 0 0 1 -2.208-2.316 15.146 15.146 0 0 0 .288-1.6l-.912-.084c-.264 2.148-.912 3.852-2.244 4.884a4.659 4.659 0 0 1 .732.6 6.574 6.574 0 0 0 1.788-2.668c1.092 2.028 2.88 2.46 5.364 2.46h2.784a2.63 2.63 0 0 1 .336-.9c-.576.012-2.64.012-3.072.012a10.955 10.955 0 0 1 -1.944-.144zm9.576 1.848v-3.344h5.952v3.348zm5.956-7.46v3.24h-5.952v-3.24zm-6.852-.876v10h.9v-.784h5.952v.732h.936v-9.948zm11.856 9.216h4.824v-.912h-1.76v-7.888h-.84a5.573 5.573 0 0 1 -1.824.624v.7h1.56v6.564h-1.96zm11.064-5.436c.168-.36.324-.756.432-1.056a5.749 5.749 0 0 1 .228-.624l-1.068-.228a4.607 4.607 0 0 1 -.132.708 5.867 5.867 0 0 1 -.648 1.536 8.058 8.058 0 0 1 -1.812 2.088l.876.516a9.594 9.594 0 0 0 1.68-2.088h2.568a5.7 5.7 0 0 1 -2.136 4.38 4.916 4.916 0 0 1 -.936.552l.948.624c1.776-1.08 2.856-2.784 3.048-5.556h1.764c.24 0 .624.012.936.036v-.952a6.433 6.433 0 0 1 -.936.06zm11.736 1.764a15.066 15.066 0 0 0 .132-2.016h5.484v2.016zm5.616-4.86v1.992h-5.484v-1.992zm.924-.876h-7.308v3.672c0 1.908-.192 4.344-2.1 6.024a3.377 3.377 0 0 1 .66.648 6.769 6.769 0 0 0 2.064-3.732h5.76v2.4c0 .264-.1.348-.372.36s-1.236.012-2.244-.024a3.779 3.779 0 0 1 .384.924 9.649 9.649 0 0 0 2.532-.168c.444-.144.624-.456.624-1.08zm5.424 6.984v-1.2h2.652v1.2zm2.652-3.076v1.18h-2.652v-1.18zm.864-.768h-4.368v7.128h.852v-2.58h2.652v1.6c0 .156-.048.2-.228.216-.156.012-.7.012-1.3-.012a3.423 3.423 0 0 1 .288.78 4.875 4.875 0 0 0 1.668-.144c.324-.144.432-.372.432-.828zm3.864 6.06c0 .18-.06.228-.264.24-.18.012-.828.012-1.56-.012a3.54 3.54 0 0 1 .324.852 5.861 5.861 0 0 0 1.9-.156c.36-.144.48-.384.48-.924v-6.292h-.876zm-1.58-5.936h-.828v4.872h.828zm.456-2c.348-.492.744-1.08 1.068-1.632l-.936-.312a13.535 13.535 0 0 1 -1.128 1.944h-3.58l.588-.228a8.151 8.151 0 0 0 -1.2-1.68l-.816.312a8.229 8.229 0 0 1 1.092 1.6h-2.944v.816h10.66v-.824zm8.58-1.3a13.964 13.964 0 0 1 -.3 2.58c-.72.06-1.416.12-1.812.132a10.332 10.332 0 0 1 -1.056 0l.1 1.044c.312-.048.792-.108 1.068-.144.312-.036.888-.1 1.5-.156a18.618 18.618 0 0 1 -2.5 5.892l.984.4a23.843 23.843 0 0 0 2.5-6.384c.516-.048.984-.084 1.272-.084.756 0 1.248.192 1.248 1.272a10.214 10.214 0 0 1 -.552 3.636 1 1 0 0 1 -1.044.612 5.849 5.849 0 0 1 -1.452-.264l.156 1.008a7.106 7.106 0 0 0 1.392.18 1.672 1.672 0 0 0 1.74-1 11.421 11.421 0 0 0 .7-4.284c0-1.608-.876-2.016-1.932-2.016-.288 0-.78.036-1.332.072.132-.636.24-1.332.3-1.68.048-.228.1-.48.144-.7zm4.32 1.764a14.287 14.287 0 0 1 2.124 4.308l.936-.444a20.872 20.872 0 0 0 -2.172-4.248zm8.28-.78c.912.252 3.492.78 4.62.936l.228-.936a31.772 31.772 0 0 1 -4.6-.912zm-.012 1.248-1.02-.132a42.036 42.036 0 0 1 -.6 4.824l.9.216a2.482 2.482 0 0 1 .36-.6 4.616 4.616 0 0 1 3.672-1.572c1.212 0 2.088.66 2.088 1.608 0 1.62-1.836 2.7-5.58 2.244l.288.984c4.416.372 6.3-1.068 6.3-3.2 0-1.392-1.212-2.484-3.036-2.484a5.625 5.625 0 0 0 -3.84 1.428c.104-.772.308-2.504.464-3.316zm10.232 7.212h4.824v-.912h-1.764v-7.888h-.84a5.573 5.573 0 0 1 -1.824.624v.7h1.56v6.564h-1.956zm9.756-2.808a5.961 5.961 0 0 1 -.96 2.064 3.7 3.7 0 0 1 .576.384 7.805 7.805 0 0 0 1.08-2.292zm3.564-.576v-.7h-3.976v.7h1.62v3.3c0 .108-.024.132-.144.144s-.444.012-.864 0a2.5 2.5 0 0 1 .252.708 2.831 2.831 0 0 0 1.188-.144c.264-.12.324-.324.324-.708v-3.3zm.324 2.376a7.561 7.561 0 0 0 -.9-1.788l-.6.228a8.066 8.066 0 0 1 .876 1.824zm1.74-5.784-.384.3a10.373 10.373 0 0 1 1.1.8h-1.7c-.048-.36-.072-.732-.1-1.1zm1.008 2.328a8.244 8.244 0 0 1 -1.14 2.328 13.817 13.817 0 0 1 -.756-2.832h3.264v-.72h-.888l.12-.12a7.827 7.827 0 0 0 -1.332-.984h2.16v-.744h-4.656v-.984h3.516v-.672h-3.516v-.84h-.876v2.5h-2.184v-1.96h-.84v1.956h-1.92v.744h6.156c.012.372.048.744.1 1.1h-5.58v2a7.034 7.034 0 0 1 -1.008 4.1 4.07 4.07 0 0 1 .672.528 8.1 8.1 0 0 0 1.164-4.62v-1.3h4.848a15.354 15.354 0 0 0 1.008 3.552 8.674 8.674 0 0 1 -2.172 1.728 4.181 4.181 0 0 1 .6.624 8.9 8.9 0 0 0 1.956-1.6c.564 1.008 1.224 1.62 1.86 1.62.72 0 1.02-.48 1.152-2.148a2.113 2.113 0 0 1 -.672-.384c-.048 1.212-.168 1.728-.42 1.728-.408 0-.912-.54-1.38-1.464a9.835 9.835 0 0 0 1.568-2.972zm5.28-4.62a7.105 7.105 0 0 1 -.084.84 33.008 33.008 0 0 0 -.528 4.764 14.883 14.883 0 0 0 .432 3.816l.864-.06-.036-.42a2.966 2.966 0 0 1 .06-.528 25.8 25.8 0 0 1 .84-2.664l-.516-.384c-.192.468-.456 1.164-.66 1.7a12.407 12.407 0 0 1 -.1-1.632 27.344 27.344 0 0 1 .58-4.548c.048-.216.156-.6.228-.8zm2.928 5.76a6.887 6.887 0 0 0 -.192 1.4c0 1.116.888 1.776 2.88 1.776a15.792 15.792 0 0 0 2.964-.24l-.012-1.008a12.918 12.918 0 0 1 -2.94.312c-1.632 0-1.992-.528-1.992-1.068a4.413 4.413 0 0 1 .156-1.092zm.408-3.78a30.019 30.019 0 0 0 4.872 0v-.984a20.772 20.772 0 0 1 -4.884 0zm18.612.816a17.972 17.972 0 0 0 -2.784-1.584l-.468.744a14.274 14.274 0 0 1 2.712 1.628zm-4.32-1.8a12.152 12.152 0 0 1 -1.848.432c.192-.684.348-1.4.468-1.836l-1.068-.1a9.741 9.741 0 0 1 -.372 2.052c-.456.036-.9.06-1.32.06a11.193 11.193 0 0 1 -1.464-.084l.072.9c.444.024.936.036 1.38.036q.522 0 1.044-.036a17.046 17.046 0 0 1 -2.544 4.44l.936.48a21.353 21.353 0 0 0 2.592-5.028 14.137 14.137 0 0 0 2.148-.428zm.624 6.636c0 .588-.324 1.128-1.3 1.128-.924 0-1.368-.372-1.368-.924s.576-.936 1.452-.936a4.327 4.327 0 0 1 1.2.168c.016.216.016.408.016.564zm-.168-4.368c.024.828.084 1.992.12 2.964a5.624 5.624 0 0 0 -1.128-.108c-1.344 0-2.376.708-2.376 1.8 0 1.176 1.068 1.716 2.376 1.716 1.464 0 2.088-.78 2.088-1.728 0-.132 0-.3-.012-.48a8.267 8.267 0 0 1 1.908 1.356l.516-.816a8.02 8.02 0 0 0 -2.46-1.488c-.024-.72-.072-1.5-.084-1.932a11.561 11.561 0 0 1 .012-1.284zm11.676 5.42c-.888 0-1.572-.336-1.572-.924 0-.408.408-.732.948-.732a1.587 1.587 0 0 1 1.572 1.584 5.853 5.853 0 0 1 -.948.072zm2.448-8.628a4.255 4.255 0 0 1 -.648.1c-.624.06-3.444.144-4.056.144a6.747 6.747 0 0 1 -.84-.036l.024 1a5.721 5.721 0 0 1 .8-.072c.612-.036 2.952-.144 3.576-.168-.588.528-2.064 1.776-2.724 2.328-.7.576-2.22 1.848-3.2 2.664l.7.708c1.512-1.536 2.592-2.364 4.548-2.364 1.5 0 2.676.852 2.676 2.016a2.072 2.072 0 0 1 -1.476 2.016 2.346 2.346 0 0 0 -2.448-2.1 1.688 1.688 0 0 0 -1.836 1.56c0 .984 1 1.7 2.616 1.7 2.508 0 4.1-1.248 4.1-3.168 0-1.608-1.428-2.808-3.408-2.808a5.05 5.05 0 0 0 -1.608.252c.912-.768 2.508-2.172 3.1-2.616.18-.132.444-.312.66-.456zm10.536 7.632c0 .816-.576 1.02-1.26 1.02-1.176 0-1.644-.408-1.644-.96s.612-.972 1.74-.972a6.05 6.05 0 0 1 1.152.108c0 .328.012.6.012.808zm4.332.408a9.755 9.755 0 0 0 -3.456-1.848c-.024-.564-.06-1.188-.084-1.8 1.128-.048 2.184-.132 3.3-.276l-.012-.9a32.058 32.058 0 0 1 -3.3.312v-1.7c1.116-.06 2.136-.156 3.072-.252l-.012-.876a26.424 26.424 0 0 1 -3.048.288c0-.288 0-.516.012-.66a6.115 6.115 0 0 1 .06-.792h-1.02a6.651 6.651 0 0 1 .036.708v.784h-.612a18.945 18.945 0 0 1 -2.784-.228v.888c.708.084 1.968.18 2.8.18h.588v1.7h-.644a21.142 21.142 0 0 1 -2.988-.228v.912c.852.1 2.172.168 2.988.168h.66c.012.492.036 1.056.06 1.584a6.709 6.709 0 0 0 -1-.072c-1.716 0-2.76.732-2.76 1.812 0 1.152.948 1.764 2.652 1.764 1.548 0 2.1-.852 2.1-1.668 0-.18-.012-.444-.024-.744a8.826 8.826 0 0 1 2.868 1.788zm11.4-5.244-.612.264a11.14 11.14 0 0 1 .984 1.692l.612-.288a14.243 14.243 0 0 0 -.988-1.664zm1.308-.5-.6.276a10.688 10.688 0 0 1 1.02 1.668l.624-.288a18.126 18.126 0 0 0 -1.044-1.656zm-9.1-1.164.108 1.056c1.284-.264 4.524-.576 5.568-.7a4.8 4.8 0 0 0 -2.208 4.008c0 2.652 2.508 3.828 4.7 3.924l.348-1.008c-1.932-.072-4.092-.8-4.092-3.12a4.155 4.155 0 0 1 2.712-3.756 9.847 9.847 0 0 1 2.328-.192v-.956c-.792.036-1.908.1-3.2.2-2.184.192-4.428.408-5.208.48-.224.028-.596.052-1.052.06z" transform="translate(0 197.518)"/><g fill="#1778b1"><path d="m8.428-7.42v1.232h-2.352v-1.232zm3.372 1.232h-2.434v-1.232h2.434zm-2.434 2.044v-1.274h2.434v1.274zm-3.29 0v-1.274h2.352v1.274zm0 .8h2.352v2.268h.938v-2.27h2.434v1.274c0 .182-.056.238-.238.238s-.77.014-1.428-.014a3.253 3.253 0 0 1 .294.854 6.161 6.161 0 0 0 1.89-.154c.364-.154.476-.406.476-.91v-6.16h-1.762c-.308-.168-.672-.364-1.078-.56a12.378 12.378 0 0 0 2.828-1.922l-.644-.49-.2.056h-6.828v.826h5.838a10.708 10.708 0 0 1 -1.918 1.108c-.658-.28-1.344-.56-1.946-.77l-.658.588c.84.308 1.834.756 2.66 1.162h-3.986v7.2h.98zm-2.114-5.8a10.494 10.494 0 0 0 -2.362-2.256l-.728.644a10.712 10.712 0 0 1 2.32 2.328zm-.308 2.914h-3.024v.98h2.016v3.6a24.212 24.212 0 0 1 -2.184 1.58l.504 1.008c.798-.588 1.54-1.19 2.254-1.806a4.8 4.8 0 0 0 3.948 1.668c1.54.068 4.508.04 6.062-.03a5.149 5.149 0 0 1 .322-1.022c-1.666.112-4.858.152-6.384.084-1.638-.056-2.842-.518-3.514-1.568zm16.87 4.074a2.068 2.068 0 0 0 .014-.294v-.91h3.556v1.2zm-1.862-2.744h7.138v.84h-7.14zm0-1.47h7.138v.8h-7.14zm0-1.484h7.138v.812h-7.14zm5.726-1.96a7.29 7.29 0 0 1 .938 1.26h-3.136a8.171 8.171 0 0 0 1.078-1.26zm3.962 7.658h-3.206v-1.2h1.722v-5.198h-1.386l.742-.336a4.772 4.772 0 0 0 -.658-.924h2.66v-.854h-4.452a6.874 6.874 0 0 0 .392-.868l-.994-.224a6.329 6.329 0 0 1 -1.946 2.744 5 5 0 0 1 .84.462h-2.744l.756-.294a5.27 5.27 0 0 0 -.532-.966h2.394v-.854h-3.668c.14-.28.28-.56.406-.84l-.952-.252a7.665 7.665 0 0 1 -2.058 2.884 5.292 5.292 0 0 1 .854.56 9.776 9.776 0 0 0 1.232-1.5h.714a7.649 7.649 0 0 1 .686 1.26h-1.512v5.196h1.876v.91a2.273 2.273 0 0 1 -.014.294h-3.542v.868h3.206a4.883 4.883 0 0 1 -2.982 1.6 3.764 3.764 0 0 1 .644.784c2.24-.658 3.15-1.512 3.5-2.38h3.766v2.334h1.05v-2.338h3.206z" transform="translate(119 157.518)"/><path d="m3.57-1.022v-3.906h6.944v3.906zm6.944-8.708v3.78h-6.944v-3.78zm-7.994-1.022v11.662h1.05v-.91h6.944v.854h1.092v-11.606zm17.962.448v1.162h-3.024v-1.158zm-3.024 3.164v-1.232h3.024v1.232zm4.018.8v-4.774h-5.054v12.192h1.036v-7.42zm2.254 1.846v1.3h-3.29v-1.3zm-3.29 3.444v-1.358h3.29v1.358zm4.26.826v-5.068h-5.2v5.768h.938v-.7zm-.98-6.9v-1.248h3.136v1.246zm3.132-3.176v1.162h-3.136v-1.162zm1.05-.812h-5.18v4.788h4.13v6.002c0 .252-.084.336-.322.336s-1.106.028-1.96-.014a3.834 3.834 0 0 1 .364 1.064 7.969 7.969 0 0 0 2.352-.182c.462-.182.614-.532.614-1.19z" transform="translate(214 157.518)"/><path d="m183.98 46.954c-1.521-31.17-37.226-46.954-42.163-46.954s-40.643 15.784-42.162 46.954c-1.364 27.979 4.557 91.538 42.162 91.538s43.527-63.559 42.163-91.538zm-45.825-24.383a26.34 26.34 0 0 1 7.982.179 5.95 5.95 0 0 1 .474.62 9.08 9.08 0 0 1 1.352 5.154 21.8 21.8 0 0 1 -1.54 7.471 25.427 25.427 0 0 1 -6.791-7.739 11.417 11.417 0 0 1 -1.486-5.3c-.001-.146.003-.272.009-.385zm-2.562.452a14.019 14.019 0 0 0 1.781 6.424 22.407 22.407 0 0 0 2.648 3.893c-1.142-.46-2.288-.892-3.362-1.344a13.416 13.416 0 0 1 -4.575-2.815 6.143 6.143 0 0 1 -1.3-2.02 7.511 7.511 0 0 1 -.47-2.321 26.4 26.4 0 0 1 5.278-1.817zm28.844 80.918a1.492 1.492 0 0 1 -2.1.117l-28.128-25.158a30.99 30.99 0 0 0 5.377.814l6.585 5.892 7.382-8.248a30.477 30.477 0 0 0 4.056-2.084 1.484 1.484 0 0 1 .019 1.995l-9.238 10.32 15.929 14.251a1.49 1.49 0 0 1 .117 2.102zm10.1-48.753a4.934 4.934 0 0 1 -5.152 1.167l-2.015-.709-.7 2.017a26.589 26.589 0 0 1 -50.181.138l-.661-1.867-1.908.523a4.892 4.892 0 0 1 -1.317.185 4.963 4.963 0 0 1 0-9.927c.09 0 .217.008.4.021l1.974.155.3-1.956a26.65 26.65 0 0 1 12.621-18.81 9.277 9.277 0 0 0 .54 2.02 8.649 8.649 0 0 0 1.593 2.568 13.093 13.093 0 0 0 4.064 2.916c2.24 1.1 4.66 1.863 6.694 2.813a13.674 13.674 0 0 1 2.681 1.575 6.332 6.332 0 0 1 1.76 2.055 1.275 1.275 0 0 0 2.288-.054c2.207-4.783 3-8.544 3-11.5a12.679 12.679 0 0 0 -.911-4.93 26.614 26.614 0 0 1 18.247 21.4l.313 2.111 2.111-.322a5.036 5.036 0 0 1 .754-.066 4.963 4.963 0 0 1 3.508 8.474z" transform="translate(-99.479 38.754)"/></g></svg>