<svg height="210.875" viewBox="0 0 271.932 210.875" width="271.932" xmlns="http://www.w3.org/2000/svg" xmlns:xlink="http://www.w3.org/1999/xlink"><clipPath id="a"><path d="m0 0h96v165h-96z"/></clipPath><path d="m-41.76-6.468h2.112v.84h-2.112zm0-1.932h2.112v.828h-2.112zm5.7.828h-2.148v-.828h2.148zm0 1.944h-2.148v-.84h2.148zm-2.46 2c.048-.276.1-.54.132-.828h3.828v-5.12h-8.628v5.124h3.3c-.036.288-.084.564-.132.828h-3.972v1.284h3.5c-.564.96-1.68 1.668-4.02 2.124a3.83 3.83 0 0 1 .744 1.248c3.024-.66 4.3-1.824 4.9-3.372h3.156c-.132 1.188-.312 1.788-.528 1.968a.789.789 0 0 1 -.528.12c-.324 0-1.08-.012-1.824-.072a2.829 2.829 0 0 1 .468 1.308c.756.012 1.488.024 1.908-.012a1.678 1.678 0 0 0 1.188-.472c.384-.384.624-1.368.816-3.552.024-.192.048-.576.048-.576zm15.312 2.928v-2.4h2.2v-1.328h-2.2v-1.972h2.448v-1.34h-2.448v-2.352h-1.428v2.352h-.96c.12-.54.216-1.1.3-1.668l-1.392-.192a14.524 14.524 0 0 1 -.636 2.928 13.759 13.759 0 0 0 -.66-1.512l-.7.288v-2.268h-1.428v2.448l-1.008-.144a14.262 14.262 0 0 1 -.58 3.12l1.056.384a15.292 15.292 0 0 0 .54-3.18v8.58h1.428v-8.2a8.344 8.344 0 0 1 .456 1.38l.684-.312c-.12.252-.24.48-.36.7a12.619 12.619 0 0 1 1.272.648 8.2 8.2 0 0 0 .668-1.66h1.32v1.968h-2.316v1.332h2.316v2.4h-3.2v1.36h7.464v-1.36zm7.524-1.464c-.444 0-.924-.588-.924-1.788a3.726 3.726 0 0 1 3.008-3.44 19.075 19.075 0 0 1 -.636 2.88c-.476 1.612-.956 2.352-1.448 2.352zm3.264 2.656c3-.456 4.536-2.232 4.536-4.728a4.535 4.535 0 0 0 -4.8-4.644 5.3 5.3 0 0 0 -5.472 5.088c0 2 1.116 3.456 2.424 3.456s2.332-1.464 3.032-3.864a25.825 25.825 0 0 0 .708-3.228 2.941 2.941 0 0 1 2.492 3.144 3.217 3.217 0 0 1 -2.7 3.184c-.312.072-.648.132-1.1.192zm10.152-2.328v-.576h4.548v.576zm4.548-2.124v.576h-4.548v-.576zm1.452-1.152h-7.432v6.156h1.428v-1.9h4.552v.556c0 .168-.06.228-.276.228-.18.012-.948.012-1.524-.028a5.664 5.664 0 0 1 .42 1.144 7.492 7.492 0 0 0 2.172-.18c.492-.18.66-.48.66-1.152zm-1.896-2.788-.576.348c.252.18.516.384.78.6-1.26.024-2.508.036-3.672.06.276-.324.564-.672.828-1.008zm3.464 0v-1.244h-4.58v-1.02h-1.464v1.02h-4.584v1.244h2.728c-.192.336-.408.7-.636 1.02l-1.668.024.036 1.284c2.1-.048 5.232-.132 8.22-.24a8 8 0 0 1 .72.768l1.26-.8a15.954 15.954 0 0 0 -2.404-2.056zm5.236 4.72c-.18 1.512-.528 2.5-3.228 3.024a4.269 4.269 0 0 1 .8 1.284c3.144-.768 3.732-2.2 3.972-4.308zm3.156-.02v2.46c0 1.3.336 1.74 1.716 1.74h1.464c1.14 0 1.512-.48 1.668-2.364a4.345 4.345 0 0 1 -1.32-.564c-.048 1.38-.108 1.584-.492 1.584h-1.1c-.408 0-.468-.06-.468-.42v-2.436zm-5.092-6.628v6.516h1.4v-6.516zm2.8.156v6.172h6.036v-6.172zm1.38 1.224h3.2v1.284h-3.2zm0 2.412h3.2v1.308h-3.2zm18.6.168v-1.392h-3.132v-2.712h-1.416v2.712h-3.048v1.392h2.484a11.386 11.386 0 0 1 -2.968 4.344v-5.592a18.935 18.935 0 0 0 1.24-2.532l-1.416-.452a12.312 12.312 0 0 1 -3.036 4.6 10.362 10.362 0 0 1 .828 1.5 10.877 10.877 0 0 0 .984-1.08v6.1h1.4v-2.4a7.914 7.914 0 0 1 .972 1.056 12.194 12.194 0 0 0 2.56-3.636v5h1.416v-5.24a12.267 12.267 0 0 0 2.424 3.816 5.087 5.087 0 0 1 1.068-1.14 11.737 11.737 0 0 1 -2.868-4.344zm8.976-1.176c-.132.324-.276.672-.42.96h-2.244l.2-.036a5.91 5.91 0 0 0 -.408-.924zm3.876 5.352v-1.176h-4.668v-.532h3.6v-1.028h-3.6v-.54h4.164v-1.116h-2.352c.18-.288.372-.612.564-.96h2.26v-1.164h-1.56c.276-.42.6-.96.936-1.512l-1.5-.36a9.667 9.667 0 0 1 -.756 1.74l.432.132h-1.072v-1.956h-1.344v1.956h-.888v-1.956h-1.332v1.956h-1.092l.588-.216a9.08 9.08 0 0 0 -.912-1.692l-1.224.42a10.756 10.756 0 0 1 .744 1.488h-1.608v1.164h2.508l-.144.024a5.393 5.393 0 0 1 .408.936h-2.284v1.116h4.06v.54h-3.46v1.028h3.46v.528h-4.584v1.176h3.444a12.607 12.607 0 0 1 -3.792 1.4 6.656 6.656 0 0 1 .912 1.196 11.383 11.383 0 0 0 4.02-1.944v2.088h1.4v-2.16a10.243 10.243 0 0 0 4.04 2.028 6.713 6.713 0 0 1 .96-1.3 10.721 10.721 0 0 1 -3.8-1.308z" transform="translate(141 10.164)"/><path d="m-97.17-1.74v-.924h5.34v.924zm5.34-2.508v.924h-5.34v-.924zm.9-.744h-7.128v5.9h.888v-1.98h5.34v1.036c0 .168-.06.216-.24.228-.2 0-.9 0-1.6-.012a3.435 3.435 0 0 1 .288.732 7.735 7.735 0 0 0 1.96-.132c.372-.108.492-.336.492-.816zm-1.524-3.084-.672.444c.42.276.876.612 1.308.948-1.68.036-3.372.072-4.848.1.4-.468.816-1 1.176-1.488zm3.168-.792h-4.814v-1.176h-.9v1.176h-4.764v.792h3.132a14.9 14.9 0 0 1 -1.008 1.5l-1.656.024.036.828c2.1-.036 5.292-.12 8.3-.24a8.7 8.7 0 0 1 .816.8l.744-.528a17.6 17.6 0 0 0 -3.024-2.388h3.132zm5.556 5.76c-.216 1.692-.792 2.748-3.372 3.3a2.8 2.8 0 0 1 .528.78c2.82-.684 3.528-1.992 3.792-4.08zm3.144 0v2.736c0 .96.288 1.236 1.38 1.236h1.788c.96 0 1.224-.432 1.332-2.208a2.71 2.71 0 0 1 -.828-.36c-.048 1.504-.132 1.728-.586 1.728h-1.61c-.48 0-.564-.06-.564-.4v-2.732zm-5.232-6.6v6.432h.864v-6.432zm2.7.2v6.06h5.918v-6.052zm.852.792h4.166v1.86h-4.164zm0 2.592h4.166v1.884h-4.164zm11.2-3.84a12.331 12.331 0 0 1 -3.252 4.812 5.107 5.107 0 0 1 .54.9 12.175 12.175 0 0 0 1.416-1.584v6.736h.876v-8.016a17.828 17.828 0 0 0 1.308-2.568zm7.86 3.828v-.864h-3.468v-2.88h-.876v2.88h-3.372v.864h2.9a12.191 12.191 0 0 1 -3.324 4.908 5.177 5.177 0 0 1 .672.684 13.4 13.4 0 0 0 3.12-4.62v6.088h.876v-6.336a14.568 14.568 0 0 0 3.108 4.824 3.2 3.2 0 0 1 .672-.72 12.661 12.661 0 0 1 -3.264-4.824zm9.348-1.02a10.97 10.97 0 0 1 -.616 1.256l.12.036h-2.82l.384-.084a4.663 4.663 0 0 0 -.6-1.2zm3.444 5.22v-.756h-4.816v-.888h3.756v-.68h-3.756v-.876h4.344v-.732h-2.724c.24-.36.5-.828.744-1.284h2.4v-.768h-1.86a16.78 16.78 0 0 0 1.056-1.728l-.912-.24a13.614 13.614 0 0 1 -.912 1.824l.444.144h-1.45v-2.124h-.84v2.124h-1.43v-2.124h-.83v2.124h-1.476l.612-.228a8.271 8.271 0 0 0 -1.02-1.764l-.756.252a9.354 9.354 0 0 1 .948 1.74h-1.908v.768h2.928l-.42.084a5.039 5.039 0 0 1 .588 1.2h-2.616v.732h4.212v.876h-3.612v.684h3.612v.888h-4.74v.756h3.924a11.565 11.565 0 0 1 -4.236 1.9 3.821 3.821 0 0 1 .576.756 12.059 12.059 0 0 0 4.476-2.364v2.552h.876v-2.612a11.328 11.328 0 0 0 4.514 2.456 3.208 3.208 0 0 1 .6-.792 10.979 10.979 0 0 1 -4.284-1.9zm3.768-7.284a5.241 5.241 0 0 1 -.084.84 37.029 37.029 0 0 0 -.54 4.992 14.359 14.359 0 0 0 .452 3.772l.852-.072c-.012-.12-.034-.288-.034-.412a2.039 2.039 0 0 1 .06-.528 25.655 25.655 0 0 1 .84-2.628l-.5-.4c-.2.48-.48 1.188-.672 1.728a10.5 10.5 0 0 1 -.108-1.62 29.184 29.184 0 0 1 .58-4.78 5.628 5.628 0 0 1 .2-.8zm6.06 7.368c0 .792-.288 1.284-1.3 1.284-.852 0-1.428-.336-1.428-.924 0-.552.612-.948 1.5-.948a3.716 3.716 0 0 1 1.212.192c.012.148.012.292.012.4zm3.24.588a8.1 8.1 0 0 0 -2.34-1.548c-.048-1-.132-2.184-.144-3.372.708-.048 1.4-.12 2.052-.228v-.936a15.137 15.137 0 0 1 -2.052.276c.012-.552.024-1.1.036-1.428a6.732 6.732 0 0 1 .072-.708h-1.092a4.857 4.857 0 0 1 .06.72v1.476c-.372.012-.744.024-1.116.024a18.578 18.578 0 0 1 -2.016-.108v.912c.7.036 1.32.072 1.992.072.384 0 .756-.012 1.14-.024.012.984.084 2.124.12 3.036a5.3 5.3 0 0 0 -1.1-.108c-1.56 0-2.448.816-2.448 1.812 0 1.056.876 1.716 2.472 1.716a1.8 1.8 0 0 0 2.056-1.94v-.216a9.018 9.018 0 0 1 1.788 1.356zm10.764-.7h-.876v-5.056h-.756v5.064h-.648v.744h4.608v-.744h-1.56v-3.132h1.44v-.744h-1.44v-2.916a12.917 12.917 0 0 0 1.464-.5l-.66-.624a16.527 16.527 0 0 1 -3.768 1.032 2.946 2.946 0 0 1 .264.648c.624-.1 1.284-.216 1.932-.36zm-5.28-7.668h-2.82v.72h2.82zm.312 1.572h-3.672v.732h3.672zm-.288 1.62h-2.892v.708h2.892zm-2.892 2.3h2.892v-.72h-2.892zm2.168 3.64h-1.5v-2h1.5zm3.432-5.4-.144.036h-.948c.432-1.164.864-2.424 1.14-3.336l-.552-.132-.132.048h-1.728v.78h1.4c-.36 1.08-.9 2.592-1.356 3.744l.744.144.2-.528h1.032a11.557 11.557 0 0 1 -.672 3 7.39 7.39 0 0 1 -.588-1.9l-.672.216a8.371 8.371 0 0 0 .872 2.528 4.5 4.5 0 0 1 -1.296 1.516v-3.456h-2.94v4.02h.708v-.564h2.232l-.07.048a3.1 3.1 0 0 1 .528.672 5.153 5.153 0 0 0 1.342-1.512 4.067 4.067 0 0 0 3.264 1.14h2.366a3.091 3.091 0 0 1 .288-.828c-.42.024-2.292.024-2.6.024a3.438 3.438 0 0 1 -2.916-1.1 13.6 13.6 0 0 0 .96-4.44zm12.84 5.58v-3.052h3.852v-.864h-3.852v-2.616h4.3v-.876h-4.3v-2.3h-.91v2.3h-2.436a16.472 16.472 0 0 0 .672-1.92l-.9-.192a10.939 10.939 0 0 1 -2.22 4.416 5.18 5.18 0 0 1 .8.528 10.178 10.178 0 0 0 1.26-1.956h2.82v2.616h-3.564v.864h3.568v3.048h-4.86v.864h10.63v-.864zm10.632-9.12a13.964 13.964 0 0 1 -.3 2.58c-.72.06-1.416.12-1.812.132a10.332 10.332 0 0 1 -1.056 0l.1 1.044c.312-.048.792-.108 1.068-.144.312-.036.888-.1 1.5-.156a18.618 18.618 0 0 1 -2.5 5.884l.984.4a23.843 23.843 0 0 0 2.5-6.384c.516-.048.984-.084 1.272-.084.756 0 1.248.192 1.248 1.272a10.214 10.214 0 0 1 -.556 3.636 1 1 0 0 1 -1.044.612 5.849 5.849 0 0 1 -1.452-.264l.156 1.012a7.106 7.106 0 0 0 1.392.18 1.672 1.672 0 0 0 1.74-1 11.421 11.421 0 0 0 .696-4.28c0-1.608-.876-2.016-1.932-2.016-.288 0-.78.036-1.332.072.132-.636.24-1.332.3-1.68.048-.228.1-.48.144-.7zm4.32 1.764a14.287 14.287 0 0 1 2.124 4.304l.936-.444a20.872 20.872 0 0 0 -2.172-4.248zm8.28-.78c.912.252 3.492.78 4.62.936l.228-.936a31.773 31.773 0 0 1 -4.6-.912zm-.012 1.244-1.02-.132a42.035 42.035 0 0 1 -.6 4.824l.9.216a2.482 2.482 0 0 1 .36-.6 4.616 4.616 0 0 1 3.672-1.572c1.212 0 2.088.66 2.088 1.608 0 1.62-1.836 2.7-5.58 2.244l.288.984c4.416.372 6.3-1.068 6.3-3.2 0-1.392-1.212-2.484-3.036-2.484a5.625 5.625 0 0 0 -3.84 1.424c.108-.768.312-2.5.468-3.312zm12.348 7.368a2.561 2.561 0 0 0 2.822-2.508 2.262 2.262 0 0 0 -1.872-2.232v-.048a2.193 2.193 0 0 0 1.572-2.124c0-1.416-1.08-2.208-2.556-2.208a3.522 3.522 0 0 0 -2.46 1.056l.588.7a2.745 2.745 0 0 1 1.824-.876 1.374 1.374 0 0 1 1.488 1.416c0 .948-.624 1.68-2.436 1.68v.84c2.028 0 2.736.708 2.736 1.764a1.62 1.62 0 0 1 -1.79 1.628 2.908 2.908 0 0 1 -2.184-1.008l-.552.72a3.641 3.641 0 0 0 2.82 1.2zm7.644-2.964a5.961 5.961 0 0 1 -.96 2.064 3.7 3.7 0 0 1 .576.384 7.805 7.805 0 0 0 1.08-2.292zm3.564-.576v-.7h-3.972v.7h1.62v3.3c0 .108-.024.132-.144.144s-.444.012-.864 0a2.5 2.5 0 0 1 .252.708 2.831 2.831 0 0 0 1.188-.144c.264-.124.324-.324.324-.708v-3.3zm.324 2.376a7.561 7.561 0 0 0 -.9-1.788l-.6.228a8.066 8.066 0 0 1 .876 1.824zm1.74-5.784-.384.3a10.375 10.375 0 0 1 1.1.8h-1.7c-.048-.36-.072-.732-.1-1.1zm1.008 2.328a8.243 8.243 0 0 1 -1.14 2.328 13.817 13.817 0 0 1 -.756-2.832h3.264v-.72h-.888l.12-.12a7.828 7.828 0 0 0 -1.332-.984h2.16v-.744h-4.656v-.984h3.516v-.672h-3.516v-.84h-.876v2.5h-2.184v-1.96h-.84v1.956h-1.92v.744h6.156c.012.372.048.744.1 1.1h-5.58v2a7.034 7.034 0 0 1 -1.012 4.112 4.07 4.07 0 0 1 .672.528 8.1 8.1 0 0 0 1.164-4.62v-1.3h4.848a15.355 15.355 0 0 0 1.008 3.552 8.674 8.674 0 0 1 -2.172 1.732 4.181 4.181 0 0 1 .6.624 8.9 8.9 0 0 0 1.956-1.596c.564 1.008 1.224 1.62 1.86 1.62.72 0 1.02-.48 1.152-2.148a2.113 2.113 0 0 1 -.672-.384c-.048 1.212-.168 1.728-.42 1.728-.408 0-.912-.54-1.38-1.464a9.835 9.835 0 0 0 1.572-2.992zm5.28-4.62a7.107 7.107 0 0 1 -.084.84 33.007 33.007 0 0 0 -.528 4.764 14.884 14.884 0 0 0 .432 3.816l.864-.06-.036-.42a2.966 2.966 0 0 1 .06-.528 25.805 25.805 0 0 1 .84-2.664l-.516-.384c-.192.468-.456 1.164-.66 1.7a12.408 12.408 0 0 1 -.1-1.632 27.344 27.344 0 0 1 .58-4.548c.048-.216.156-.6.228-.8zm2.928 5.76a6.887 6.887 0 0 0 -.192 1.4c0 1.116.888 1.776 2.88 1.776a15.792 15.792 0 0 0 2.964-.24l-.012-1.008a12.918 12.918 0 0 1 -2.94.312c-1.632 0-1.992-.528-1.992-1.068a4.413 4.413 0 0 1 .156-1.088zm.408-3.78a30.019 30.019 0 0 0 4.872 0v-.984a20.772 20.772 0 0 1 -4.884 0zm18.612.816a17.973 17.973 0 0 0 -2.786-1.584l-.468.744a14.274 14.274 0 0 1 2.714 1.628zm-4.32-1.8a12.153 12.153 0 0 1 -1.848.432c.192-.684.348-1.4.468-1.836l-1.068-.1a9.74 9.74 0 0 1 -.372 2.052c-.456.036-.9.06-1.32.06a11.193 11.193 0 0 1 -1.464-.084l.072.9c.444.024.936.036 1.38.036q.522 0 1.044-.036a17.046 17.046 0 0 1 -2.544 4.44l.936.48a21.353 21.353 0 0 0 2.592-5.028 14.138 14.138 0 0 0 2.148-.428zm.624 6.636c0 .588-.324 1.128-1.3 1.128-.924 0-1.368-.372-1.368-.924s.576-.936 1.452-.936a4.327 4.327 0 0 1 1.2.168c.016.216.016.408.016.564zm-.168-4.368c.024.828.084 1.992.12 2.964a5.624 5.624 0 0 0 -1.128-.108c-1.344 0-2.376.708-2.376 1.8 0 1.176 1.068 1.716 2.376 1.716 1.464 0 2.086-.78 2.086-1.728 0-.132 0-.3-.012-.48a8.267 8.267 0 0 1 1.912 1.356l.516-.816a8.02 8.02 0 0 0 -2.462-1.484c-.024-.72-.072-1.5-.084-1.932a11.557 11.557 0 0 1 .012-1.284zm11.678 5.42c-.888 0-1.572-.336-1.572-.924 0-.408.408-.732.948-.732a1.587 1.587 0 0 1 1.57 1.588 5.853 5.853 0 0 1 -.946.068zm2.448-8.628a4.255 4.255 0 0 1 -.648.1c-.624.06-3.444.144-4.056.144a6.747 6.747 0 0 1 -.84-.036l.024 1a5.721 5.721 0 0 1 .8-.072c.612-.036 2.952-.144 3.576-.168-.588.528-2.064 1.776-2.724 2.328-.7.576-2.22 1.848-3.2 2.664l.7.708c1.512-1.536 2.592-2.364 4.548-2.364 1.5 0 2.676.852 2.676 2.016a2.072 2.072 0 0 1 -1.482 2.008 2.346 2.346 0 0 0 -2.448-2.1 1.688 1.688 0 0 0 -1.836 1.56c0 .984 1 1.7 2.616 1.7 2.508 0 4.1-1.248 4.1-3.168 0-1.608-1.428-2.808-3.408-2.808a5.049 5.049 0 0 0 -1.608.252c.912-.768 2.508-2.172 3.1-2.616.18-.132.444-.312.66-.456zm10.534 7.636c0 .816-.576 1.02-1.26 1.02-1.176 0-1.644-.408-1.644-.96s.612-.972 1.74-.972a6.05 6.05 0 0 1 1.152.104c0 .328.012.6.012.808zm4.332.408a9.755 9.755 0 0 0 -3.456-1.848c-.024-.564-.06-1.188-.084-1.8 1.128-.048 2.184-.132 3.3-.276l-.012-.9a32.058 32.058 0 0 1 -3.3.312v-1.704c1.116-.06 2.136-.156 3.072-.252l-.012-.876a26.424 26.424 0 0 1 -3.048.288c0-.288 0-.516.012-.66a6.116 6.116 0 0 1 .06-.792h-1.02a6.653 6.653 0 0 1 .036.708v.784h-.612a18.945 18.945 0 0 1 -2.784-.228v.888c.708.084 1.968.18 2.8.18h.588v1.7h-.636a21.141 21.141 0 0 1 -2.988-.228v.912c.852.1 2.172.168 2.988.168h.66c.012.492.036 1.056.06 1.584a6.709 6.709 0 0 0 -1-.072c-1.716 0-2.76.732-2.76 1.812 0 1.152.948 1.764 2.652 1.764 1.548 0 2.1-.852 2.1-1.668 0-.18-.012-.444-.024-.744a8.826 8.826 0 0 1 2.868 1.788zm11.4-5.244-.612.264a11.14 11.14 0 0 1 .984 1.692l.614-.288a14.243 14.243 0 0 0 -.986-1.668zm1.308-.5-.6.276a10.689 10.689 0 0 1 1.02 1.668l.624-.288a18.128 18.128 0 0 0 -1.044-1.66zm-9.096-1.172.108 1.056c1.284-.264 4.524-.576 5.568-.7a4.8 4.8 0 0 0 -2.208 4.008c0 2.66 2.506 3.836 4.706 3.936l.348-1.008c-1.932-.072-4.092-.8-4.092-3.12a4.155 4.155 0 0 1 2.712-3.756 9.846 9.846 0 0 1 2.328-.192v-.96c-.792.036-1.908.1-3.2.2-2.184.192-4.428.408-5.208.48-.234.024-.606.048-1.062.056z" transform="translate(140 209.904)"/><g fill="#1778b1"><path d="m-28.455-58.271h-11.733l5.625-9.58h16.348v67.851h-10.24zm29.576 23.906q0-16.216 7.559-25.884 6.768-8.745 16.392-8.745t16.392 8.745q7.559 9.668 7.559 26.323 0 16.611-7.559 26.279-6.769 8.747-16.349 8.747t-16.436-8.746q-7.558-9.668-7.558-26.719zm10.063.044q0 11.294 3.911 18.765 3.911 7.339 9.976 7.339 6.021 0 9.976-7.339 3.953-7.296 3.953-18.414t-3.954-18.457q-3.955-7.295-9.976-7.295-5.977 0-9.932 7.295-3.954 7.251-3.954 18.106z" transform="translate(175 148.22)"/><path d="m10.514-9.562h-7v-.966h7zm0 1.68h-7v-.98h7zm1.022-3.388h-9v4.13h9zm-.136 7.476a6.641 6.641 0 0 1 -1.516 2.058 6.623 6.623 0 0 1 -1.372-2.058zm-8.376 1.794h2.534v.854c-.868.1-1.736.182-2.534.266zm0-1.764h2.534v.98h-2.534zm2.534-1.724v.938h-2.534v-.938zm6.482.84-.182.028h-4.816v.826h1.2l-.6.182a8.066 8.066 0 0 0 1.54 2.464 8.485 8.485 0 0 1 -2.63 1.33v-5.67h6.548v-.868h-12.232v.868h1.2v4.7c-.49.056-.938.1-1.33.126l.1.924c1.3-.154 3.01-.35 4.718-.56v1.362h.994v-.864a3.418 3.418 0 0 1 .55.78 9.69 9.69 0 0 0 2.784-1.47 8.022 8.022 0 0 0 2.926 1.54 3.431 3.431 0 0 1 .63-.812 7.568 7.568 0 0 1 -2.828-1.344 8 8 0 0 0 2.058-3.294zm9.142 1.2c-.168-.2-.616-.658-1.064-1.12.378-.392.826-.938 1.26-1.428l-.686-.56a12.172 12.172 0 0 1 -1.05 1.5l-.518-.518a15.008 15.008 0 0 0 1.806-3.232l-.588-.406-.182.056h-1.19v-2.544h-1.022v2.548h-2.016v.952h3.71a13.95 13.95 0 0 1 -4.1 4.914 4.1 4.1 0 0 1 .574.9 13.783 13.783 0 0 0 1.834-1.722v5.18h1.02v-5.67c.56.644 1.274 1.512 1.582 1.946zm7.042-6.986h-7.308v.98h2.366c-.07 3.654-.294 7.7-3.388 9.744a3.859 3.859 0 0 1 .8.784c3.206-2.264 3.54-6.574 3.652-10.524h2.828c-.14 6.314-.322 8.638-.742 9.128a.554.554 0 0 1 -.546.238c-.308 0-1.064 0-1.89-.07a2.618 2.618 0 0 1 .336 1.064 15.506 15.506 0 0 0 1.988 0 1.3 1.3 0 0 0 1.064-.616c.532-.7.672-3.052.84-10.15zm5.81 8.47c-.6 0-1.414-.77-1.414-2.52a4.834 4.834 0 0 1 4.28-4.476 22.368 22.368 0 0 1 -.77 3.738c-.71 2.338-1.48 3.262-2.096 3.262zm3.654 2.328c3.3-.434 5.222-2.38 5.222-5.292a5.033 5.033 0 0 0 -5.32-5.1 5.92 5.92 0 0 0 -6.076 5.642c0 2.282 1.246 3.71 2.478 3.71 1.288 0 2.394-1.47 3.248-4.312a29.3 29.3 0 0 0 .826-3.99 3.843 3.843 0 0 1 3.682 4.018 4.156 4.156 0 0 1 -3.514 4.1 8.69 8.69 0 0 1 -1.19.168z" transform="translate(138 67.15)"/><path d="m3.57-1.022v-3.906h6.944v3.906zm6.944-8.708v3.78h-6.944v-3.78zm-7.994-1.022v11.662h1.05v-.91h6.944v.854h1.092v-11.606zm23.058 5.8h-5.838v-1.418h5.838zm-5.838 2.362v-1.456h5.838v1.456zm8.5-6.342v-.98h-7.128c.21-.5.378-1.036.546-1.554l-1.036-.252a18.33 18.33 0 0 1 -.616 1.806h-3.948v.98h3.514a11.7 11.7 0 0 1 -3.85 4.662 4.847 4.847 0 0 1 .658.8 11.3 11.3 0 0 0 2.338-2.212v6.746h1.022v-2.758h5.838v1.456c0 .21-.084.28-.322.294s-1.092.014-2.016-.028a3.976 3.976 0 0 1 .336 1.022 8.584 8.584 0 0 0 2.436-.182c.448-.168.588-.476.588-1.106v-7.07h-6.748c.308-.518.588-1.078.854-1.624zm3.316 5.152a10.061 10.061 0 0 1 -.91 3.332 3.637 3.637 0 0 1 .812.392 12.321 12.321 0 0 0 .994-3.556zm2.884.154a13.728 13.728 0 0 1 .854 2.562l.8-.266a12.979 12.979 0 0 0 -.9-2.548zm-.364-3.274a10.674 10.674 0 0 1 .658 1.26l-2.072.084a48.035 48.035 0 0 0 2.786-4.174l-.882-.392a28.514 28.514 0 0 1 -1.414 2.506 11.243 11.243 0 0 0 -.812-.91c.518-.784 1.106-1.89 1.582-2.814l-.91-.364a17.7 17.7 0 0 1 -1.26 2.6c-.14-.126-.266-.252-.406-.364l-.532.672a12.48 12.48 0 0 1 1.806 1.996c-.308.462-.63.91-.924 1.288l-.924.042.084.924c.644-.042 1.4-.084 2.2-.126v5.764h.924v-5.824l1.106-.07a6.514 6.514 0 0 1 .252.812l.784-.35a11.085 11.085 0 0 0 -1.322-2.86zm7.63 3.332v2.9h-4.018v-2.9zm-4.97 4.62h.952v-.8h4.018v.742h.994v-5.5h-5.964zm.588-8.19v.966h4.634v-.968zm1.652-4.438a14.025 14.025 0 0 1 -3.738 4.536 3.841 3.841 0 0 1 .616.882 15.9 15.9 0 0 0 3.682-4.354 19.811 19.811 0 0 0 3.752 4.27 7.561 7.561 0 0 1 .644-.952 16.959 16.959 0 0 1 -3.932-4.384z" transform="translate(228 142.255)"/><g clip-path="url(#a)" transform="translate(0 23.354)"><path d="m200.953 195.6a11.789 11.789 0 1 1 4.567-16.034 11.788 11.788 0 0 1 -4.567 16.034z" transform="translate(-175.154 -147.479)"/><path d="m235.108 174.139a9.512 9.512 0 1 1 3.63-12.953 9.512 9.512 0 0 1 -3.63 12.953z" transform="translate(-167.266 -151.09)"/><path d="m231.532 224.573c-.226-3.006 4.763-28.487 4.763-28.487s-1.065-3.757-3.268-10.5c-.51-1.56-.882-2.8-1.122-3.844l-4.092-.634a2.832 2.832 0 0 1 -.4-.067l-10.357-1.743a3.3 3.3 0 0 1 .644-6.52s17.173-.3 17.307-.283c0 0 6.665-1.014 10.918 3.994 3.023 3.562 10.248 16.719 7.068 32.413l-.673 16.764a3.909 3.909 0 0 1 -7.816.128l-1.4-11.26-3.935 11.427a3.9 3.9 0 0 1 -7.644-1.385z" transform="translate(-168.617 -147.71)"/><path d="m241.921 180.728a4.586 4.586 0 0 0 -6.317-1.485l-19.57 10.969a5.689 5.689 0 0 0 -1.086.514l-15.529 8.613c-5.088 2.815-8.331 6.757-5.133 14.535 1.607 3.885 6.577 15.267 10.481 25.828 1.969 5.275 3.683 10.326 4.843 14.057a44.916 44.916 0 0 1 1.346 5.468c.656 3.333 1.134 6.912 1.536 10.524s.718 7.3.992 11.008c.727 9.885 1.176 11.059 1.632 21.111a5.982 5.982 0 0 0 11.962 0c.448-10.072.905-11.312 1.075-21.529.076-4.921.088-9.868-.09-14.911-.057-4.366-.557-8.607-.57-8.615s-.058-.71-.208-2c-.077-.65-.178-1.444-.324-2.382-.073-.471-.157-.977-.26-1.521l-.345-1.684c-.875-4.144-2.208-9.7-3.793-15.437-2.739-10.036-5.882-20.344-7.861-25.578l25.735-21.17a4.583 4.583 0 0 0 1.484-6.315z" transform="translate(-173.138 -146.417)"/></g></g></svg>