<svg height="181.271" viewBox="0 0 204.288 181.271" width="204.288" xmlns="http://www.w3.org/2000/svg"><path d="m47.32 7.712a8.041 8.041 0 0 1 -1.884 3.972c-1.068-.48-2.16-.912-3.168-1.26.372-.828.768-1.764 1.164-2.712zm2.88 0v-.9h-6.4c.384-.936.744-1.848 1.056-2.676l-.948-.168c-.312.864-.7 1.848-1.1 2.844h-3.36v.9h2.988c-.588 1.4-1.188 2.76-1.668 3.744l.876.324c.084-.18.18-.384.276-.588.9.336 1.848.732 2.772 1.152a10.96 10.96 0 0 1 -5.148 1.756 3.2 3.2 0 0 1 .468.84 11.051 11.051 0 0 0 5.64-2.124 22.153 22.153 0 0 1 3.588 2.16l.672-.816a22.413 22.413 0 0 0 -3.552-2.04 9.392 9.392 0 0 0 1.944-4.4zm2.628 1.824a13.383 13.383 0 0 0 .6-3.216l-.672-.1a12.125 12.125 0 0 1 -.624 3.08zm1.032 5.376h.888v-10.956h-.888zm.972-8.748a11.944 11.944 0 0 1 .828 2.036l.672-.324a11.332 11.332 0 0 0 -.876-2zm5.268 7.488v-3h2.448v-.828h-2.448v-2.484h2.712v-.852h-2.712v-2.488h-.888v2.488h-1.5c.168-.588.312-1.212.432-1.836l-.864-.144a11.683 11.683 0 0 1 -1.452 4.284 7 7 0 0 1 .792.408 8.653 8.653 0 0 0 .84-1.86h1.752v2.484h-2.544v.828h2.544v3h-3.432v.848h7.32v-.852zm7.872-1.332c-.516 0-1.212-.66-1.212-2.16a4.143 4.143 0 0 1 3.672-3.84 19.173 19.173 0 0 1 -.66 3.2c-.612 2.008-1.272 2.8-1.8 2.8zm3.128 1.992c2.832-.372 4.476-2.04 4.476-4.536a4.314 4.314 0 0 0 -4.56-4.368 5.075 5.075 0 0 0 -5.208 4.836c0 1.956 1.068 3.18 2.124 3.18 1.1 0 2.052-1.26 2.784-3.7a25.114 25.114 0 0 0 .708-3.42 3.294 3.294 0 0 1 3.156 3.444 3.562 3.562 0 0 1 -3.012 3.516 7.448 7.448 0 0 1 -1.02.144zm17.9-8.04a6.921 6.921 0 0 0 -1.416-1.956l-.684.348a6.715 6.715 0 0 1 1.356 1.98zm-4.984-.792h-2.352v-1.524h-.888v1.524h-2.424v.82h5.664zm-4.788 5.52a6.461 6.461 0 0 1 -1.116 2.52 3.782 3.782 0 0 1 .684.516 8.173 8.173 0 0 0 1.248-2.868zm.6-3.012h2.784v1.612h-2.784zm3.636 2.376v-3.132h-4.464v3.132h1.824v3.528c0 .132-.048.168-.192.18s-.612.012-1.152 0a3.218 3.218 0 0 1 .288.8 4.424 4.424 0 0 0 1.512-.144c.312-.144.384-.4.384-.828v-3.54zm.4 2.544a8.858 8.858 0 0 0 -.864-2.016l-.708.252a10.264 10.264 0 0 1 .828 2.04zm3.62 1.092a.543.543 0 0 1 -.324-.084.237.237 0 0 1 -.108-.228v-5.136h-.6c.012-.2.036-.4.048-.588h2.616v-.852h-2.592c.012-.228.012-.444.012-.66v-2.5h-.864v2.512c0 .2 0 .42-.012.648h-1.728v.852h1.692a9.107 9.107 0 0 1 -2.736 6.456 3.58 3.58 0 0 1 .768.516 8.9 8.9 0 0 0 2.58-4.9v3.612c0 .612.06.8.264.984a1.431 1.431 0 0 0 .78.2h.756a1.775 1.775 0 0 0 .708-.132.9.9 0 0 0 .408-.552 10.1 10.1 0 0 0 .108-1.62 2.107 2.107 0 0 1 -.684-.372 14.19 14.19 0 0 1 -.036 1.452.456.456 0 0 1 -.192.312.821.821 0 0 1 -.372.072zm10.944-7.152a10.971 10.971 0 0 1 -.612 1.252l.12.036h-2.82l.384-.084a4.663 4.663 0 0 0 -.6-1.2zm3.444 5.22v-.756h-4.812v-.888h3.756v-.684h-3.756v-.876h4.34v-.732h-2.72c.24-.36.5-.828.744-1.284h2.4v-.768h-1.86a16.778 16.778 0 0 0 1.056-1.728l-.912-.24a13.615 13.615 0 0 1 -.908 1.824l.444.144h-1.456v-2.124h-.84v2.124h-1.428v-2.124h-.828v2.124h-1.476l.612-.228a8.271 8.271 0 0 0 -1.02-1.764l-.756.252a9.354 9.354 0 0 1 .948 1.74h-1.908v.768h2.928l-.42.084a5.039 5.039 0 0 1 .588 1.2h-2.616v.732h4.212v.876h-3.612v.684h3.612v.888h-4.74v.756h3.924a11.565 11.565 0 0 1 -4.236 1.9 3.822 3.822 0 0 1 .576.756 12.059 12.059 0 0 0 4.476-2.364v2.556h.876v-2.616a11.328 11.328 0 0 0 4.512 2.46 3.209 3.209 0 0 1 .6-.792 10.979 10.979 0 0 1 -4.284-1.9zm12.072-7.1a17.458 17.458 0 0 1 -1.008 2.58l.624.228a23.07 23.07 0 0 0 1.164-2.532zm-2.568 2.448a9.27 9.27 0 0 0 -.876-2.34l-.648.24a10.467 10.467 0 0 1 .816 2.364zm.48 5.88h.8v-3.232c.588.672 1.368 1.6 1.668 2.052l.54-.7c-.312-.36-1.68-1.764-2.208-2.244v-.38h2.22v-.8h-2.22v-3.784h-.8v3.78h-2.112v.8h1.812a9.071 9.071 0 0 1 -2.028 3.12 3.585 3.585 0 0 1 .42.828 10.038 10.038 0 0 0 1.908-2.952zm-7.156-2.536a9.371 9.371 0 0 1 -.732 2.856 3.6 3.6 0 0 1 .648.312 10.911 10.911 0 0 0 .816-3.036zm2.316.156a8.03 8.03 0 0 1 .552 2.172l.672-.192a8.729 8.729 0 0 0 -.6-2.172zm-.216-2.9c.168.324.336.684.48 1.044l-1.608.084a36.573 36.573 0 0 0 2.3-3.492l-.732-.324a24.529 24.529 0 0 1 -1.212 2.16 9.8 9.8 0 0 0 -.624-.756 26.026 26.026 0 0 0 1.344-2.472l-.768-.288a17.338 17.338 0 0 1 -1.056 2.268c-.12-.12-.252-.252-.372-.36l-.48.552a10.413 10.413 0 0 1 1.5 1.752c-.24.372-.48.708-.708 1.008-.312.012-.612.024-.876.036l.084.8c.54-.036 1.152-.072 1.812-.12v5h.78v-5.048l.888-.06a5.3 5.3 0 0 1 .2.768l.684-.288a10.028 10.028 0 0 0 -1.02-2.508zm8.3 5.508h-5.7v-9.088h-.828v10.464h.828v-.576h5.7zm9.144-6.6h-2.316v.756h5.572v-.76h-2.376v-1.092h2.784v-.756h-2.784v-1.116h-.876v1.116h-2.736v.756h2.736zm-6.588 3.84a9.371 9.371 0 0 1 -.732 2.856 3.067 3.067 0 0 1 .66.324 10.986 10.986 0 0 0 .828-3.048zm3-.96a4.069 4.069 0 0 1 .252.768l.648-.3v.36h.756v-1.42h4.824v1.416h.792v-2.136h-6.372v1.548a11.375 11.375 0 0 0 -1.092-2.256l-.66.264a11.429 11.429 0 0 1 .54 1.008l-1.728.084a39.822 39.822 0 0 0 2.412-3.468l-.756-.348a24.8 24.8 0 0 1 -1.272 2.176 8.5 8.5 0 0 0 -.648-.768 22.652 22.652 0 0 0 1.38-2.472l-.78-.288a17.334 17.334 0 0 1 -1.068 2.256c-.12-.12-.24-.228-.36-.336l-.48.564a10.835 10.835 0 0 1 1.488 1.74c-.252.36-.5.7-.744 1l-.828.036.084.8 1.884-.12v5h.792v-5.052zm.756 3.1a8.833 8.833 0 0 0 -.636-2.16l-.66.192a8.367 8.367 0 0 1 .6 2.172zm1.668-2.064a3.631 3.631 0 0 1 -2.364 3.492 4.388 4.388 0 0 1 .636.6 4.2 4.2 0 0 0 2.544-4.08v-.752h-.816zm3.288 3.24c-.24 0-.276-.048-.276-.348v-3.644h-.816v3.636c0 .864.192 1.1.984 1.1h.96c.672 0 .888-.384.948-1.884a1.915 1.915 0 0 1 -.72-.348c-.024 1.284-.084 1.476-.324 1.476zm12.132-8.096a4.769 4.769 0 0 1 -.852.564c-.648.372-1.932 1-3.048 1.668a27.3 27.3 0 0 1 -1.6-3.516l-.948.384a39.385 39.385 0 0 0 1.728 3.66c-1.272.888-2.052 1.86-2.052 3.084 0 1.776 1.62 2.448 3.852 2.448a23.322 23.322 0 0 0 3.756-.288v-1.08a17.5 17.5 0 0 1 -3.8.408c-1.872 0-2.808-.612-2.808-1.6 0-.9.66-1.68 1.764-2.4a40.031 40.031 0 0 1 3.608-1.952c.348-.18.648-.336.912-.5zm7.848-.636a21.928 21.928 0 0 0 -2.248-1.236l-.492.636c.732.4 1.728.972 2.22 1.32zm-.612 3.24c-.528-.336-1.524-.864-2.22-1.212l-.492.648c.732.384 1.716.96 2.208 1.3zm-1.68 6.168a43.538 43.538 0 0 0 2.172-3.852l-.648-.588a34.655 34.655 0 0 1 -2.268 3.84zm8.232-1.176h-4.272v-2.472h4.272zm1.632-5.268v-.864h-3.288v-2.076a19.38 19.38 0 0 0 2.784-.672l-.716-.7a29.51 29.51 0 0 1 -5.8 1.072 4.257 4.257 0 0 1 .24.756c.852-.084 1.764-.192 2.64-.324v1.944h-3.46v.864h3.456v1.968h-2.576v4.632h.816v-.5h4.272v.444h.852v-4.576h-2.508v-1.968zm7.752 4.572h1.788v.936h-1.788zm1.788-2.172h-1.788v-.864h1.788zm0 1.536h-1.788v-.9h1.788zm-6.244-6.948h1.812v2.172h-1.812zm9.684 8.52h-2.664v-.936h2.064v-.636h-2.064v-.9h2.064v-.636h-2.064v-.864h2.4v-.72h-2.236c.168-.288.336-.6.492-.9l-.648-.18h2.292v-3.624h-2.892v.66h2.112v.816h-1.92v.66h1.92v.828h-2.124v.66h.432c-.12.312-.312.72-.492 1.08h-1.668a9.384 9.384 0 0 0 .456-.924l-.54-.156h1.356v-3.624h-2.82v.66h2.028v.816h-1.86v.66h1.86v.828h-2.064v.66h1.164a8.64 8.64 0 0 1 -1.5 2.472v-.54h-1.356v-1.752h1.176v-3.684h-3.336v3.684h1.4v4.884l-.732.168v-3.924h-.7v4.092l-.588.132.168.828c1.176-.3 2.76-.72 4.26-1.116l-.084-.78c-.528.144-1.056.276-1.572.408v-2.172h1.152c-.084.084-.168.168-.252.24a3.768 3.768 0 0 1 .588.564 6.785 6.785 0 0 0 .732-.8v4.164h.816v-.36h5.244zm5.7-4.608-1.152.336v-2.364h1.164v-.816h-1.164v-2.4h-.864v2.4h-1.608v.816h1.608v2.616c-.684.2-1.32.384-1.812.5l.2.864 1.608-.492v3.156c0 .18-.048.228-.2.228s-.648.012-1.188-.012a3.634 3.634 0 0 1 .264.852 4.018 4.018 0 0 0 1.584-.156c.3-.156.408-.408.408-.912v-3.42l1.26-.4zm1.86 2.592h1.956v1.668h-1.956zm1.956-3.18h-1.956v-1.608h1.956zm0 2.4h-1.956v-1.632h1.956zm3.468 2.448h-2.652v-1.672h2.16v-.78h-2.16v-1.628h2.16v-.768h-2.16v-1.608h2.448v-.8h-2.388c.288-.612.612-1.344.876-2l-.936-.216a16.74 16.74 0 0 1 -.816 2.22h-1.836a16.774 16.774 0 0 0 .768-2.052l-.852-.216a10.594 10.594 0 0 1 -2.376 4.428 6.525 6.525 0 0 1 .6.744 8.708 8.708 0 0 0 .888-1.14v6.916h.852v-.612h5.424zm9-5.628h-2.084v-1.244h2.088zm0 2.016h-2.084v-1.26h2.088zm0 2.04h-2.084v-1.3h2.088zm-2.952.78h6.668v-.78h-2.868v-1.3h2.34v-.74h-2.34v-1.26h2.368v-.756h-2.364v-1.244h2.664v-.772h-2.544c.252-.48.5-1.044.732-1.548l-.948-.2a13.353 13.353 0 0 1 -.672 1.752h-1.908a11.037 11.037 0 0 0 .8-1.6l-.876-.24a9.362 9.362 0 0 1 -2.8 3.84 6.133 6.133 0 0 1 .684.684 10.031 10.031 0 0 0 1.056-1.08zm-1.248-6.468a8.972 8.972 0 0 0 -1.932-1.956l-.684.5a8.865 8.865 0 0 1 1.9 2zm-.36 2.448h-2.364v.84h1.524v3.072a19.751 19.751 0 0 1 -1.656 1.38l.468.852c.588-.516 1.14-1.02 1.668-1.536a4.188 4.188 0 0 0 3.4 1.416c1.344.06 3.876.036 5.22-.024a3.266 3.266 0 0 1 .288-.876c-1.44.1-4.2.132-5.52.072a3.473 3.473 0 0 1 -3.024-1.344zm12.144-3.744a7.105 7.105 0 0 1 -.084.84 33.008 33.008 0 0 0 -.528 4.764 14.883 14.883 0 0 0 .432 3.816l.864-.06-.036-.42a2.966 2.966 0 0 1 .06-.528 25.8 25.8 0 0 1 .84-2.664l-.516-.384c-.192.468-.456 1.164-.66 1.7a12.407 12.407 0 0 1 -.1-1.632 27.344 27.344 0 0 1 .58-4.548c.048-.216.156-.6.228-.8zm2.928 5.76a6.887 6.887 0 0 0 -.192 1.4c0 1.116.888 1.776 2.88 1.776a15.792 15.792 0 0 0 2.964-.24l-.012-1.008a12.918 12.918 0 0 1 -2.94.312c-1.632 0-1.992-.528-1.992-1.068a4.413 4.413 0 0 1 .156-1.092zm.404-3.776a30.019 30.019 0 0 0 4.872 0v-.988a20.772 20.772 0 0 1 -4.884 0zm14.98 2.372v2.34h-3.012v-2.34zm.828 3.144v-3.948h-4.656v4.8h.816v-.852zm2.508-6.4h-5.352c.3-.576.612-1.26.876-1.9l-1.092-.192a13.457 13.457 0 0 1 -.768 2.088h-3.28v8.892h.876v-8.02h7.848v6.84c0 .228-.072.288-.288.3-.252.012-1.08.012-1.944-.024a3.769 3.769 0 0 1 .324.912 8.579 8.579 0 0 0 2.244-.156c.42-.144.552-.444.552-1.032zm4.1-1.272a4.939 4.939 0 0 1 -.06.792 32.112 32.112 0 0 0 -.444 4.74 13.147 13.147 0 0 0 .624 3.768l.816-.1-.036-.408a3.091 3.091 0 0 1 .06-.528 26.337 26.337 0 0 1 .768-2.616l-.528-.324c-.216.588-.456 1.3-.624 1.8a16.19 16.19 0 0 1 .336-6.252c.06-.228.144-.552.216-.768zm9.036 2.136a14.1 14.1 0 0 1 -1.932.276c-.012-.744-.024-1.524-.012-1.788s.012-.492.036-.7h-1.116a6.926 6.926 0 0 1 .108.708c.024.3.048 1.092.072 1.836-.5.024-1.008.036-1.5.036a13.232 13.232 0 0 1 -1.908-.124v.96c.516.048 1.356.084 1.92.084.492 0 1.008-.012 1.512-.036v.348c0 2.292-.06 3.624-1.332 4.728a4 4 0 0 1 -1.164.744l.876.7c2.52-1.488 2.52-3.42 2.52-6.156v-.412a18.657 18.657 0 0 0 1.92-.216zm3.012-.852.108 1.056c1.284-.264 4.524-.576 5.568-.7a4.787 4.787 0 0 0 -2.208 4.008c0 2.652 2.508 3.828 4.7 3.912l.348-1c-1.932-.072-4.092-.8-4.092-3.132a4.14 4.14 0 0 1 2.712-3.744 9.9 9.9 0 0 1 2.328-.192v-.96c-.792.036-1.908.1-3.2.2-2.184.18-4.428.408-5.208.48-.22.044-.596.064-1.052.076zm-138.596 24.328a7.839 7.839 0 0 0 -1.268-1.956l-.612.324a8.306 8.306 0 0 1 1.232 1.976zm-8.232.624h-1.32v-1.7h1.32zm-1.32 5.12v-1.92h1.32v1.668zm1.32-2.664h-1.32v-1.712h1.32zm1.332-4.164v.564h3.744v-.684h-1.524v-1.172h-.788v1.176h-1.42v-.684h-3.972v.8h.552v6.972q-.414.09-.756.144l.156.816c.768-.156 1.716-.36 2.676-.576v2.28h.756v-9.632zm2.808 2.46c.156-.432.36-1.1.552-1.68l-.728-.152a14.926 14.926 0 0 1 -.408 1.68zm-.048 2.136v1.032h-1.752v-1.028zm-1.752 2.752v-1.068h1.752v1.068zm2.472.672v-4.092h-3.192v4.848h.72v-.756zm-3.12-7.236a6.3 6.3 0 0 1 .36 1.692l.66-.156a5.727 5.727 0 0 0 -.408-1.668zm5.436 3.036a10.465 10.465 0 0 1 -.672 1.932c-.084-.744-.144-1.6-.192-2.544h1.956v-.732h-1.992c-.048-1.164-.072-2.448-.072-3.768h-.792c.012 1.332.036 2.6.084 3.768h-4.464v.732h4.5a33.631 33.631 0 0 0 .348 3.672 7.306 7.306 0 0 1 -2.172 2.16 4.183 4.183 0 0 1 .552.6 8.4 8.4 0 0 0 1.824-1.752c.276 1.08.684 1.716 1.248 1.728.384.012.8-.48 1.02-2.352a2.234 2.234 0 0 1 -.588-.468c-.072 1.128-.228 1.8-.408 1.8-.276-.012-.5-.6-.672-1.6a11.583 11.583 0 0 0 1.248-3.008zm12.36-3.156h-3.84v-.948h3.84zm0 1.584h-3.84v-.96h3.84zm.828-3.2h-5.484v3.876h5.484zm-6.5 5.892-1.224.552v-3.376h1.3v-.84h-1.3v-2.5h-.828v2.5h-1.4v.84h1.4v3.756c-.612.276-1.176.516-1.632.708l.348.876c1.008-.48 2.316-1.116 3.528-1.728zm7.356-.588v-.756h-7.512v.756h1.68a6.8 6.8 0 0 1 -2.376 2.4 3.912 3.912 0 0 1 .612.552 8.232 8.232 0 0 0 1.56-1.368h1.212a7.919 7.919 0 0 1 -2.7 2.688 2.36 2.36 0 0 1 .588.552 9.063 9.063 0 0 0 2.916-3.24h1.164a7.058 7.058 0 0 1 -2.34 3.24 2.72 2.72 0 0 1 .636.516 8.348 8.348 0 0 0 2.448-3.756h.936c-.156 1.884-.336 2.64-.54 2.856-.084.12-.192.132-.36.132s-.576-.012-1.02-.048a1.514 1.514 0 0 1 .2.72c.48.024.924.024 1.188.012a.973.973 0 0 0 .672-.3c.336-.348.528-1.284.708-3.756a3.423 3.423 0 0 0 .036-.36h-5.16a7.5 7.5 0 0 0 .516-.84zm11.64-3.444h-1.168v-1.168h1.164zm-1.8 0h-1.148v-1.168h1.14zm-1.776 0h-1.1v-1.168h1.1zm4.344-1.824h-6.196v2.472h6.192zm-6.5 6.816-1.56.444v-2.58h1.244v-.78h-1.248v-2.656h1.428v-.8h-3.72v.8h1.488v2.652h-1.356v.78h1.356v2.808c-.6.168-1.164.324-1.62.432l.216.84c1.092-.312 2.52-.732 3.864-1.152zm1.3-1.608h4.1v1.212h-4.1zm4.836 2a14.3 14.3 0 0 1 -1.572 1.056 4.891 4.891 0 0 1 -.768-1.164h2.448v-2.568h-5.736v2.568h2.16a11.592 11.592 0 0 1 -3.756 2.112 3.812 3.812 0 0 1 .528.636 13.294 13.294 0 0 0 2.736-1.476v2.184h.852v-2.856c.072-.06.144-.132.216-.192a5.808 5.808 0 0 0 3.24 3.048 3.47 3.47 0 0 1 .576-.708 5.277 5.277 0 0 1 -2.052-1.128 12.82 12.82 0 0 0 1.764-1.044zm-6.372-4.08v.744h7.32v-.744zm17.988-1.86a13.879 13.879 0 0 1 -.576 1.284l.372.1h-2.544l.492-.132a4.839 4.839 0 0 0 -.516-1.248zm-4.932 4.824c-.468.216-.936.432-1.392.636v-3.372h1.236v.036h7.344v-.748h-2.028c.2-.336.42-.792.648-1.224l-.66-.156h1.764v-.732h-2.988v-.908h-.864v.912h-2.82v.732h1.716l-.564.144a6.031 6.031 0 0 1 .456 1.232h-1.992v-.132h-1.26v-2.78h-.832v2.784h-1.392v.84h1.392v3.744c-.612.264-1.164.5-1.62.672l.324.888 3.708-1.764zm1.536.012h4.1v.888h-4.1zm0-1.476h4.1v.888h-4.1zm3.672 5.088c-.288 0-.336-.048-.336-.312v-1.788h1.644v-3.612h-5.82v3.612h1.2c-.264 1.116-.912 1.812-2.856 2.208a2.9 2.9 0 0 1 .5.744c2.16-.528 2.928-1.476 3.228-2.952h1.248v1.8c0 .828.2 1.056 1.08 1.056h1.164c.708 0 .936-.312 1.02-1.644a2.341 2.341 0 0 1 -.756-.312c-.024 1.056-.084 1.2-.36 1.2zm10.556-1.692c-.012-.576-.024-1.584-.036-2.268.9-.42 1.752-.768 2.424-1.032.312-.12.744-.288 1.044-.372l-.384-.9c-.336.168-.624.312-.984.468-.624.288-1.344.576-2.16.96a1.494 1.494 0 0 0 -1.572-1.08 3.371 3.371 0 0 0 -1.644.444 8.528 8.528 0 0 0 1.068-1.824 36.713 36.713 0 0 0 3.936-.336l.012-.888a31.889 31.889 0 0 1 -3.636.36c.168-.54.276-1.032.36-1.368l-.984-.084a6.44 6.44 0 0 1 -.3 1.476c-.276.012-.528.012-.78.012-.54 0-1.368-.048-2-.12v.9c.648.048 1.452.072 1.956.072h.492a12.574 12.574 0 0 1 -2.736 3.624l.816.612c.408-.48.744-.924 1.08-1.248a3.163 3.163 0 0 1 2.052-.876 1 1 0 0 1 1.068.732c-1.38.72-2.8 1.608-2.8 3.012 0 1.452 1.368 1.812 3.072 1.812a30.6 30.6 0 0 0 3.252-.192l.024-.972a20.921 20.921 0 0 1 -3.24.288c-1.224 0-2.148-.132-2.148-1.068 0-.78.768-1.392 1.872-1.992 0 .624-.012 1.392-.048 1.848zm10.44-2.076c-.2-.324-1.092-1.656-1.428-2.1v-.828h1.368v-.828h-1.368v-2.592h-.812v2.592h-1.68v.828h1.58a13.025 13.025 0 0 1 -1.824 4.5 4.979 4.979 0 0 1 .456.768 12.53 12.53 0 0 0 1.468-3.344v5.6h.816v-5.64c.348.588.768 1.32.936 1.7zm3.732 1.956v-.876h1.692v.876zm-2.4-.876h1.584v.876h-1.584zm1.584-1.464v.828h-1.584v-.828zm2.508 0v.828h-1.692v-.828zm-3.036-2.868h1.932v.8h-1.932zm0-1.44h1.932v.78h-1.932zm4.632 6.648h-.76v-3.012h-2.52v-.708h3.156v-.684h-1.736v-.8h1.308v-.66h-1.308v-.78h1.488v-.676h-1.488v-.984h-.84v.984h-1.932v-.984h-.816v.984h-1.38v.672h1.38v.78h-1.14v.66h1.14v.8h-1.652v.684h3v.708h-2.4v3.016h-.816v.7h.816v1.92h.816v-1.92h4.092v1.008c0 .144-.048.192-.192.2-.168 0-.684.012-1.26-.012a3.435 3.435 0 0 1 .252.72 5.435 5.435 0 0 0 1.62-.12c.324-.132.408-.36.408-.78v-1.02h.768zm4.116-6.648a7.183 7.183 0 0 1 .552 1.188l.732-.216a5.027 5.027 0 0 0 -.468-.972h2.256a5.853 5.853 0 0 1 -.8.744 6.768 6.768 0 0 1 .768.444 7.557 7.557 0 0 0 1.1-1.188h.948a6.746 6.746 0 0 1 .78 1.212l.756-.264a5.4 5.4 0 0 0 -.612-.948h2.676v-.732h-4.064c.132-.252.264-.5.372-.768l-.852-.2a5.8 5.8 0 0 1 -1.056 1.692v-.72h-3.156q.2-.378.36-.756l-.828-.216a6.6 6.6 0 0 1 -1.716 2.448 5.412 5.412 0 0 1 .72.492 8.355 8.355 0 0 0 1.02-1.236zm-2.016 4.812c1.176-.2 2.784-.456 4.344-.72l-.036-.7c-.576.1-1.152.18-1.7.264v-1.468h1.692v-.648h-4.2v.648h1.692v1.6c-.72.108-1.392.2-1.92.276zm10.6 1.6v-.732h-4.92v-.912h-.84a2.54 2.54 0 0 0 .972-2.088v-.592h2.544v1.752c0 .636.048.828.216.984a1.009 1.009 0 0 0 .66.2h.552a1.088 1.088 0 0 0 .54-.108.632.632 0 0 0 .336-.384 4.614 4.614 0 0 0 .12-1.128 1.559 1.559 0 0 1 -.612-.312c-.012.444-.024.78-.048.924s-.072.228-.132.252a.46.46 0 0 1 -.24.036h-.308a.358.358 0 0 1 -.192-.036c-.06-.048-.06-.18-.06-.4v-2.416h-4.2v1.188c0 .768-.276 1.572-1.872 2.16a3.109 3.109 0 0 1 .576.612 4.19 4.19 0 0 0 1.14-.636v.9h-4.872v.732h4.116a11.539 11.539 0 0 1 -4.368 1.872 2.994 2.994 0 0 1 .564.72 11.611 11.611 0 0 0 4.56-2.292v2.568h.852v-2.556a11.741 11.741 0 0 0 4.572 2.244 3.934 3.934 0 0 1 .576-.756 11.863 11.863 0 0 1 -4.452-1.8zm-4.632-3.348a8.723 8.723 0 0 1 1.644 1.3l.528-.54a8.01 8.01 0 0 0 -1.668-1.224zm12.012 2.52a1.143 1.143 0 0 1 -1.212-1.176 1.207 1.207 0 0 1 1.2-1.248 1.055 1.055 0 0 1 1.056.732c.108 1.124-.348 1.688-1.044 1.688zm1.836-4.3c1.74 0 2.82.024 3.492.06l.012-.9c-.576 0-2.04-.012-3.48-.012h-.18c0-.312.012-.588.012-.768l.06-.744h-1.092c.024.144.06.492.072.744.012.168.024.444.024.78-1.764.024-4 .1-5.316.12l.024.936c1.488-.108 3.5-.192 5.3-.2.012.408.012.828.012 1.176a2.383 2.383 0 0 0 -.792-.132 2.089 2.089 0 0 0 -2.1 2.076 1.914 1.914 0 0 0 1.976 1.988 1.707 1.707 0 0 0 1.02-.3 4.243 4.243 0 0 1 -3.156 2.064l.828.8c2.76-.828 3.54-2.616 3.54-4.224a2.9 2.9 0 0 0 -.384-1.524c-.012-.54-.024-1.272-.024-1.944zm11.352 6.704c-.888 0-1.572-.336-1.572-.924 0-.408.408-.732.948-.732a1.587 1.587 0 0 1 1.572 1.584 5.853 5.853 0 0 1 -.948.072zm2.448-8.628a4.255 4.255 0 0 1 -.648.1c-.624.06-3.444.144-4.056.144a6.747 6.747 0 0 1 -.84-.036l.024 1a5.722 5.722 0 0 1 .8-.072c.612-.036 2.952-.144 3.576-.168-.588.528-2.064 1.776-2.724 2.328-.7.576-2.22 1.848-3.2 2.664l.7.708c1.512-1.536 2.592-2.364 4.548-2.364 1.5 0 2.676.852 2.676 2.016a2.072 2.072 0 0 1 -1.476 2.016 2.346 2.346 0 0 0 -2.448-2.1 1.688 1.688 0 0 0 -1.836 1.56c0 .984 1 1.7 2.616 1.7 2.508 0 4.1-1.248 4.1-3.168 0-1.608-1.428-2.808-3.408-2.808a5.05 5.05 0 0 0 -1.608.252c.912-.768 2.508-2.172 3.1-2.616.18-.132.444-.312.66-.456z" transform="translate(-39.448 142.311)"/><g fill="#1778b1"><path d="m14 278.616a17.732 17.732 0 0 1 -5.22-12.571v-18.294h-8.78v18.294a26.6 26.6 0 0 0 26.575 26.578h12v-8.784h-12a17.711 17.711 0 0 1 -12.575-5.223z" transform="translate(28.414 -196.294)"/><path d="m58.369 109.952a11.591 11.591 0 1 0 -11.592-11.592 11.583 11.583 0 0 0 11.592 11.592z" transform="translate(-4.515 -82.971)"/><path d="m86.573 213.942h-16.261v-24.2a11.34 11.34 0 1 0 -22.679 0v27.576a11.339 11.339 0 0 0 11.338 11.341c.851 0 20.731-.058 20.731-.058l1.088 16.779a6.227 6.227 0 1 0 12.45-.274l.66-23.836a7.324 7.324 0 0 0 -7.327-7.328z" transform="translate(-5.117 -147.47)"/><path d="m411.5 247.751v18.294a17.828 17.828 0 0 1 -17.791 17.794h-12v8.784h12a26.6 26.6 0 0 0 26.572-26.578v-18.294z" transform="translate(-240.287 -196.294)"/><path d="m354.356 217.313v-27.576a11.341 11.341 0 1 0 -22.682 0v24.2h-16.261a7.324 7.324 0 0 0 -7.327 7.327l.661 23.836a6.227 6.227 0 1 0 12.45.274l1.088-16.782s19.88.058 20.731.058a11.341 11.341 0 0 0 11.34-11.337z" transform="translate(-188.463 -147.47)"/><path d="m73.902 51.567h62.877v10.701h-62.877z"/><path d="m100.664 68.013h7.317v25.903h-7.317z"/><path d="m457.268 90.275c-1.121 8.207 6.522 9.1 8.7 6.811-2.275-.454-3.017-5.294-1.88-8.479s2.125-9.405-.851-12.225c-3.809-3.614-9.766-3.246-12.345 1.3.758.911 2.447 1.871 3.337 2.883 2.431-.908 3.766 4.384 3.039 9.71z" transform="translate(-288.994 -73.939)"/><path d="m396.081 109.759a11.6 11.6 0 1 0 -9.714-13.223 11.607 11.607 0 0 0 9.714 13.223z" transform="translate(-243.474 -82.913)"/></g></svg>