<svg height="183.104" viewBox="0 0 246.701 183.104" width="246.701" xmlns="http://www.w3.org/2000/svg"><path d="m-61.2-6.468h2.112v.84h-2.112zm0-1.932h2.112v.828h-2.112zm5.7.828h-2.148v-.828h2.148zm0 1.944h-2.148v-.84h2.148zm-2.46 2c.048-.276.1-.54.132-.828h3.828v-5.12h-8.628v5.124h3.3c-.036.288-.084.564-.132.828h-3.972v1.284h3.5c-.564.96-1.68 1.668-4.02 2.124a3.83 3.83 0 0 1 .752 1.248c3.024-.66 4.3-1.824 4.9-3.372h3.156c-.132 1.188-.312 1.788-.528 1.968a.789.789 0 0 1 -.528.12c-.324 0-1.08-.012-1.824-.072a2.829 2.829 0 0 1 .46 1.308c.756.012 1.488.024 1.908-.012a1.678 1.678 0 0 0 1.188-.472c.384-.384.624-1.368.816-3.552.024-.192.048-.576.048-.576zm15.312 2.928v-2.4h2.2v-1.328h-2.2v-1.972h2.448v-1.34h-2.448v-2.352h-1.428v2.352h-.96c.12-.54.216-1.1.3-1.668l-1.392-.192a14.524 14.524 0 0 1 -.636 2.928 13.759 13.759 0 0 0 -.66-1.512l-.7.288v-2.268h-1.428v2.448l-1.008-.144a14.262 14.262 0 0 1 -.588 3.12l1.056.384a15.292 15.292 0 0 0 .54-3.18v8.58h1.428v-8.2a8.344 8.344 0 0 1 .456 1.38l.684-.312c-.12.252-.24.48-.36.7a12.619 12.619 0 0 1 1.272.648 8.2 8.2 0 0 0 .672-1.66h1.32v1.968h-2.316v1.332h2.316v2.4h-3.2v1.36h7.464v-1.36zm7.524-1.464c-.444 0-.924-.588-.924-1.788a3.726 3.726 0 0 1 3.012-3.444 19.075 19.075 0 0 1 -.636 2.88c-.48 1.616-.96 2.356-1.452 2.356zm3.264 2.656c3-.456 4.536-2.232 4.536-4.728a4.535 4.535 0 0 0 -4.8-4.644 5.3 5.3 0 0 0 -5.476 5.088c0 2 1.116 3.456 2.424 3.456s2.332-1.464 3.04-3.864a25.825 25.825 0 0 0 .708-3.228 2.941 2.941 0 0 1 2.484 3.144 3.217 3.217 0 0 1 -2.7 3.18c-.312.072-.648.132-1.1.192zm10.152-2.328v-.576h4.548v.576zm4.548-2.124v.576h-4.548v-.576zm1.452-1.152h-7.428v6.156h1.428v-1.9h4.548v.556c0 .168-.06.228-.276.228-.18.012-.948.012-1.524-.024a5.664 5.664 0 0 1 .42 1.14 7.492 7.492 0 0 0 2.172-.18c.492-.18.66-.48.66-1.152zm-1.892-2.788-.576.348c.252.18.516.384.78.6-1.26.024-2.508.036-3.672.06.276-.324.564-.672.828-1.008zm3.468 0v-1.244h-4.588v-1.02h-1.464v1.02h-4.584v1.244h2.724c-.192.336-.408.7-.636 1.02l-1.668.024.036 1.284c2.1-.048 5.232-.132 8.22-.24a8 8 0 0 1 .72.768l1.26-.8a15.954 15.954 0 0 0 -2.4-2.052zm5.232 4.72c-.18 1.512-.528 2.5-3.228 3.024a4.269 4.269 0 0 1 .8 1.284c3.144-.768 3.728-2.196 3.972-4.308zm3.152-.02v2.46c0 1.3.336 1.74 1.716 1.74h1.464c1.14 0 1.512-.484 1.668-2.368a4.345 4.345 0 0 1 -1.32-.564c-.048 1.38-.108 1.584-.492 1.584h-1.1c-.408 0-.468-.06-.468-.42v-2.432zm-5.088-6.624v6.516h1.392v-6.52zm2.8.156v6.168h6.036v-6.172zm1.38 1.224h3.2v1.284h-3.2zm0 2.412h3.2v1.308h-3.2zm18.6.168v-1.396h-3.136v-2.712h-1.416v2.712h-3.048v1.392h2.484a11.386 11.386 0 0 1 -2.964 4.344v-5.592a18.935 18.935 0 0 0 1.236-2.532l-1.416-.452a12.312 12.312 0 0 1 -3.036 4.6 10.362 10.362 0 0 1 .828 1.5 10.877 10.877 0 0 0 .984-1.08v6.1h1.4v-2.4a7.914 7.914 0 0 1 .976 1.056 12.194 12.194 0 0 0 2.556-3.636v5h1.416v-5.24a12.267 12.267 0 0 0 2.424 3.816 5.087 5.087 0 0 1 1.068-1.14 11.737 11.737 0 0 1 -2.868-4.344zm8.976-1.176c-.132.324-.276.672-.42.96h-2.248l.2-.036a5.91 5.91 0 0 0 -.408-.924zm3.876 5.352v-1.18h-4.672v-.532h3.6v-1.028h-3.6v-.54h4.164v-1.116h-2.352c.18-.288.372-.612.564-.96h2.256v-1.164h-1.556c.276-.42.6-.96.936-1.512l-1.5-.36a9.667 9.667 0 0 1 -.756 1.74l.432.132h-1.072v-1.956h-1.34v1.956h-.888v-1.956h-1.336v1.956h-1.092l.588-.216a9.08 9.08 0 0 0 -.912-1.692l-1.224.42a10.756 10.756 0 0 1 .744 1.488h-1.608v1.164h2.508l-.144.024a5.392 5.392 0 0 1 .408.936h-2.28v1.116h4.056v.54h-3.456v1.028h3.456v.528h-4.584v1.176h3.444a12.607 12.607 0 0 1 -3.792 1.4 6.656 6.656 0 0 1 .912 1.196 11.383 11.383 0 0 0 4.02-1.944v2.088h1.4v-2.16a10.243 10.243 0 0 0 4.036 2.028 6.713 6.713 0 0 1 .96-1.3 10.721 10.721 0 0 1 -3.8-1.308zm11-.588a4.568 4.568 0 0 1 -.876.768 4.559 4.559 0 0 1 -.372-.768zm-5.028-1.048v-.624c.6-.084 1.164-.18 1.656-.288l-.78-.8h3.556l-.744.78a7.854 7.854 0 0 1 1.752.936h-1.98a9.072 9.072 0 0 1 -.2-1.56h-1.376a12.6 12.6 0 0 0 .192 1.56zm5.244 1.044h1.8v-1.044h-1.176l.636-.708a8.489 8.489 0 0 0 -1.9-1.008h2.376v-1.08h-4.64v-.444h3.48v-.984h-3.48v-.432h4.116v-1.056h-2.076c.192-.24.408-.54.624-.852l-1.584-.3a6.933 6.933 0 0 1 -.528 1.152h-2.412a3.887 3.887 0 0 0 -.732-1.116l-1.248.4a4.883 4.883 0 0 1 .456.72h-2.124v1.052h4.044v.432h-3.408v.984h3.408v.444h-4.584v1.08h4.4a29.718 29.718 0 0 1 -4.224.492 4.016 4.016 0 0 1 .3.852c.588-.012 1.236-.048 1.872-.108v.48h-2.372v1.044h2.376v.528c-.912.052-1.752.084-2.412.108l.108 1.092c.672-.048 1.464-.1 2.3-.168v.48c0 .156-.06.2-.24.2a13.152 13.152 0 0 1 -1.356-.012 4.625 4.625 0 0 1 .408 1.092 6.225 6.225 0 0 0 1.968-.18c.444-.156.576-.432.576-1.068v-.608l1.792-.144.012-.96-1.8.1v-.46h2.34a6.72 6.72 0 0 0 .6 1.428 13.133 13.133 0 0 1 -2.408.752 6.668 6.668 0 0 1 .7 1.128 13.569 13.569 0 0 0 2.428-.92 2.818 2.818 0 0 0 2.052.924c.948 0 1.344-.288 1.536-1.632a2.928 2.928 0 0 1 -1.044-.552c-.06.672-.132.888-.42.888a1.441 1.441 0 0 1 -.9-.348 6.376 6.376 0 0 0 1.4-1.308zm11.964-1.2c.048-.348.084-.708.12-1.068h-1.428a10.016 10.016 0 0 1 -.12 1.068h-1.748v1.188h1.452a3.847 3.847 0 0 1 -2.512 2.232 4.036 4.036 0 0 1 .828 1.1 4.794 4.794 0 0 0 3.156-3.336h1.392a3.653 3.653 0 0 1 -.456 1.796.489.489 0 0 1 -.384.132 10.163 10.163 0 0 1 -1.032-.06 3.1 3.1 0 0 1 .384 1.32 9.169 9.169 0 0 0 1.344-.028 1.319 1.319 0 0 0 .876-.42c.352-.384.564-1.308.752-3.384.024-.168.048-.54.048-.54zm.528-4.3a3.646 3.646 0 0 1 -.792 1.02 4.706 4.706 0 0 1 -1-1.02zm2.28 0v-1.184h-3.54a8.044 8.044 0 0 0 .444-.84l-1.332-.36a7.154 7.154 0 0 1 -2.292 2.856 10.479 10.479 0 0 1 1.164.8 7.145 7.145 0 0 0 .54-.516 6.785 6.785 0 0 0 .852 1 7.271 7.271 0 0 1 -1.464.552l.048-.276-.864-.288-.192.06h-.576l.588-.612a6.716 6.716 0 0 0 -.876-.528 8.957 8.957 0 0 0 1.752-1.984l-.912-.576-.216.048h-3.876v1.2h2.88a7.494 7.494 0 0 1 -.756.756c-.324-.144-.66-.276-.948-.384l-.9.912a17.408 17.408 0 0 1 2.316 1.164h-2.748v1.248h1.5a7.54 7.54 0 0 1 -1.7 2.472 8 8 0 0 1 .648 1.38 7.27 7.27 0 0 0 1.5-2.22v2.572c0 .144-.048.168-.192.18s-.636 0-1.08-.012a4.754 4.754 0 0 1 .404 1.36 3.539 3.539 0 0 0 1.692-.256c.42-.216.516-.6.516-1.248v-4.224h.636a15.641 15.641 0 0 1 -.384 1.656l.96.444a14.008 14.008 0 0 0 .588-2 4.541 4.541 0 0 1 .336.5 9.605 9.605 0 0 0 2.448-1.008 8.643 8.643 0 0 0 2.452 1.036 5.481 5.481 0 0 1 .9-1.212 9.337 9.337 0 0 1 -2.208-.708 5.9 5.9 0 0 0 1.2-1.752zm4.956-2.232a12.4 12.4 0 0 1 -3.276 4.672 10.47 10.47 0 0 1 .828 1.512 13.6 13.6 0 0 0 1.188-1.272v6.12h1.428v-8.136a19.327 19.327 0 0 0 1.248-2.424zm4.416 9.58c-.576 0-.66-.12-.66-.828v-3.024a29.069 29.069 0 0 0 4.08-2.316l-1.056-1.248a20.41 20.41 0 0 1 -3.024 2.1v-4.1h-1.44v8.58c0 1.688.432 2.168 1.944 2.168h2.052c1.416 0 1.788-.756 1.956-2.82a4.12 4.12 0 0 1 -1.32-.612c-.1 1.692-.192 2.1-.768 2.1z" transform="translate(138.799 10.188)"/><g fill="#064a6f"><path d="m19.556-58.271h-20.918l-3.338 11.25q.747-.088 1.428-.132t1.252-.044a21.351 21.351 0 0 1 16.216 6.68q6.372 6.636 6.372 17.007 0 10.723-7.207 17.666t-18.151 6.944q-13.491 0-21.27-12.656l7.734-6.548q3.208 5.449 6.46 7.69a13.878 13.878 0 0 0 7.954 2.2 13.809 13.809 0 0 0 10.328-4.31 15.142 15.142 0 0 0 4.175-10.767 14.394 14.394 0 0 0 -4.131-10.635 13.788 13.788 0 0 0 -10.327-4.262q-6.9 0-11.909 6.021h-3.384l10.679-35.685h28.037z" transform="translate(193.799 172.359)"/><path d="m3.57-1.022v-3.906h6.944v3.906zm6.944-8.708v3.78h-6.944v-3.78zm-7.994-1.022v11.662h1.05v-.91h6.944v.854h1.092v-11.606zm17.962.448v1.162h-3.024v-1.158zm-3.024 3.164v-1.232h3.024v1.232zm4.018.8v-4.774h-5.054v12.192h1.036v-7.42zm2.254 1.846v1.3h-3.29v-1.3zm-3.29 3.444v-1.358h3.29v1.358zm4.26.826v-5.068h-5.2v5.768h.938v-.7zm-.98-6.9v-1.248h3.136v1.246zm3.132-3.176v1.162h-3.136v-1.162zm1.05-.812h-5.18v4.788h4.13v6.002c0 .252-.084.336-.322.336s-1.106.028-1.96-.014a3.834 3.834 0 0 1 .364 1.064 7.969 7.969 0 0 0 2.352-.182c.462-.182.614-.532.614-1.19z" transform="translate(218.799 166.963)"/><path d="m677.318 164.151a9.9 9.9 0 1 1 -9.9-9.9 9.9 9.9 0 0 1 9.9 9.9z" transform="translate(-590.244 -104.497)"/><path d="m629.563 231.311a8.556 8.556 0 1 1 -8.555-8.559 8.555 8.555 0 0 1 8.555 8.559z" transform="translate(-590.996 -103.354)"/><path d="m610.882 280.535a5.042 5.042 0 1 1 -5.042-5.042 5.042 5.042 0 0 1 5.042 5.042z" transform="translate(-591.19 -102.474)"/><path d="m628.482 280.535a5.042 5.042 0 1 1 -5.043-5.042 5.042 5.042 0 0 1 5.043 5.042z" transform="translate(-590.897 -102.474)"/><path d="m618.311 274.37h-16.765l2.832-5.1h13.933c2.067 0 5.93-1.813 7.5-6.678 1.057-3.281 9.072-33.138 9.154-33.446l.5-1.892h14.135l-1.538 5.1h-8.677s-7.773 28.855-8.725 31.806c-2.16 6.701-7.848 10.21-12.349 10.21z" transform="translate(-591.178 -103.279)"/><path d="m619.184 241.383c-4.052.673-17.719 4.165-17.719 4.165a2.656 2.656 0 1 0 1.149 5.187l8.764-1.025-1.7 6.513h-6.653c-2.966 0-4.98 1.039-6.1 3.5l-5.283 11.8a3.486 3.486 0 0 0 1.786 4.6 3.548 3.548 0 0 0 4.6-1.789l4.569-8.058h13.449c2.689 0 5.946-1.559 6.794-4.672s3.608-14.069 3.608-14.069c1.341-4.862-2.548-6.935-7.264-6.152z" transform="translate(-591.348 -103.046)"/><path d="m688.9 233.333 6.454 47.905a5.061 5.061 0 0 1 -4.007 5.867c-2.728.514-5.02-1.323-5.869-4l-11.229-41.38-13.372 41.466a5.025 5.025 0 0 1 -9.843-2.033l11.361-62.024-3.1-13.689-8.9 17.783a3.854 3.854 0 0 1 -7.037-3.144l7.3-18.5 5.481-13.874c6.284-15.194 22.7-8.394 23.928-.79l6.04 30.644c1.112 4.921 2.342 11.966 2.793 15.769z" transform="translate(-590.486 -104.09)"/></g></svg>