<svg xmlns="http://www.w3.org/2000/svg" width="355" height="370" viewBox="0 0 355 370">
  <g id="グループ_974" data-name="グループ 974" transform="translate(-9 -7692)">
    <rect id="長方形_825" data-name="長方形 825" width="355" height="370" transform="translate(9 7692)" fill="#f7f7f7"/>
    <path id="パス_12553" data-name="パス 12553" d="M3.36-1.74v-.924H8.7v.924ZM8.7-4.248v.924H3.36v-.924Zm.9-.744H2.472v5.9H3.36v-1.98H8.7V-.036c0,.168-.06.216-.24.228-.2,0-.9,0-1.6-.012a3.436,3.436,0,0,1,.288.732A7.735,7.735,0,0,0,9.108.78C9.48.672,9.6.444,9.6-.036ZM8.076-8.076,7.4-7.632c.42.276.876.612,1.308.948-1.68.036-3.372.072-4.848.1.4-.468.816-1,1.176-1.488Zm3.168-.792H6.432v-1.176h-.9v1.176H.768v.792H3.9a14.9,14.9,0,0,1-1.008,1.5l-1.656.024.036.828c2.1-.036,5.292-.12,8.3-.24a8.7,8.7,0,0,1,.816.8l.744-.528A17.6,17.6,0,0,0,8.112-8.076h3.132ZM16.8-3.108c-.216,1.692-.792,2.748-3.372,3.3a2.8,2.8,0,0,1,.528.78c2.82-.684,3.528-1.992,3.792-4.08Zm3.144,0V-.372c0,.96.288,1.236,1.38,1.236h1.788c.96,0,1.224-.432,1.332-2.208a2.71,2.71,0,0,1-.828-.36C23.568-.2,23.484.024,23.028.024H21.42c-.48,0-.564-.06-.564-.4V-3.108Zm-5.232-6.6v6.432h.864V-9.708Zm2.7.2v6.06h5.916V-9.5Zm.852.792h4.164v1.86H18.264Zm0,2.592h4.164v1.884H18.264Zm11.2-3.84a12.331,12.331,0,0,1-3.252,4.812,5.107,5.107,0,0,1,.54.9,12.175,12.175,0,0,0,1.416-1.584V.9h.876V-7.116a17.828,17.828,0,0,0,1.308-2.568Zm7.86,3.828V-7H33.852v-2.88h-.876V-7H29.6v.864h2.9a12.191,12.191,0,0,1-3.324,4.908,5.178,5.178,0,0,1,.672.684,13.4,13.4,0,0,0,3.12-4.62V.924h.876V-5.412A14.568,14.568,0,0,0,36.96-.588a3.2,3.2,0,0,1,.672-.72,12.661,12.661,0,0,1-3.264-4.824Zm9.348-1.02A10.97,10.97,0,0,1,46.056-5.9l.12.036h-2.82l.384-.084a4.663,4.663,0,0,0-.6-1.2Zm3.444,5.22v-.756H45.3v-.888h3.756V-4.26H45.3v-.876h4.344v-.732H46.92c.24-.36.5-.828.744-1.284h2.4V-7.92H48.2A16.78,16.78,0,0,0,49.26-9.648l-.912-.24a13.614,13.614,0,0,1-.912,1.824l.444.144H46.428v-2.124h-.84V-7.92H44.16v-2.124h-.828V-7.92H41.856l.612-.228a8.271,8.271,0,0,0-1.02-1.764l-.756.252a9.354,9.354,0,0,1,.948,1.74H39.732v.768H42.66l-.42.084a5.039,5.039,0,0,1,.588,1.2H40.212v.732h4.212v.876H40.812v.684h3.612v.888h-4.74v.756h3.924a11.565,11.565,0,0,1-4.236,1.9,3.821,3.821,0,0,1,.576.756,12.059,12.059,0,0,0,4.476-2.364V.912H45.3V-1.7A11.328,11.328,0,0,0,49.812.756a3.208,3.208,0,0,1,.6-.792,10.979,10.979,0,0,1-4.284-1.9ZM56.184-7.5h2.424v-.816H56.184V-10h-.852v1.68H54.06c.132-.408.252-.852.36-1.272l-.84-.168A9.458,9.458,0,0,1,52.38-6.6a5.234,5.234,0,0,1,.792.336,9.172,9.172,0,0,0,.6-1.236h1.56v1.26H52.416v.816h2.916v1.2H52.968V-.06h.816V-3.408h1.548V.9h.852V-3.408H57.84V-.96c0,.12-.036.156-.168.156s-.516.012-1.032,0a2.725,2.725,0,0,1,.264.78A3.707,3.707,0,0,0,58.3-.168c.3-.144.36-.372.36-.78V-4.224H56.184v-1.2h2.892V-6.24H56.184Zm4.6-1.452h-.84v6.6h.84Zm1.284-.96V-.3c0,.2-.06.252-.252.264s-.876,0-1.584-.024a5.182,5.182,0,0,1,.288.936A5.9,5.9,0,0,0,62.436.7c.36-.156.492-.42.492-1.008v-9.6ZM76.08-8.04v-.816H71.6v-1.176h-.912v1.176h-4.4v3.432c0,1.728-.084,4.152-1.068,5.856a3.449,3.449,0,0,1,.732.5c1.032-1.812,1.176-4.512,1.176-6.36V-8.04ZM73.2-5.964V-4.7H70.3v-1.26Zm.864,1.98v-1.98H76V-6.7H74.064V-7.74H73.2V-6.7H70.3V-7.74h-.852V-6.7H67.536v.732h1.908v1.98ZM73.872-2.5A5.515,5.515,0,0,1,71.844-.972,5.375,5.375,0,0,1,69.9-2.5Zm.744-.768-.156.036H67.68V-2.5h1.848l-.48.18A6.038,6.038,0,0,0,70.932-.6a16.278,16.278,0,0,1-3.7.768,3.083,3.083,0,0,1,.372.744A16.253,16.253,0,0,0,71.832-.12,13.688,13.688,0,0,0,75.78.936,2.645,2.645,0,0,1,76.3.18a15.259,15.259,0,0,1-3.528-.756A5.927,5.927,0,0,0,75.18-2.964Z" transform="translate(262 7884)"/>
    <g id="グループ_782" data-name="グループ 782" transform="translate(-277 1876)">
      <path id="パス_12357" data-name="パス 12357" d="M-4.482-31.509v-8.745q6.5,0,8.745-1.45,4-2.549,4-8.174a9.265,9.265,0,0,0-2.9-7.075,10.222,10.222,0,0,0-7.427-2.769,9.609,9.609,0,0,0-6.592,2.065Q-10.9-55.547-12-50.537h-10.2q1.582-9.58,6.5-14.041t13.755-4.46q8.921,0,14.546,5.273a17.588,17.588,0,0,1,5.625,13.491,16.718,16.718,0,0,1-7.383,14.5q8.438,4.966,8.438,16.128A19.616,19.616,0,0,1,13.14-4.7Q6.987,1.1-2.637,1.1-14.9,1.1-20.83-7.91q-2.461-3.779-3.12-10.459h9.888a12.023,12.023,0,0,0,3.845,7.537A11.836,11.836,0,0,0-2.241-8.218a11.06,11.06,0,0,0,8.218-3.3,11.866,11.866,0,0,0,3.252-8.569q0-6.855-4.878-9.756Q1.494-31.509-4.482-31.509Z" transform="translate(572 6092)" fill="#1778b1"/>
      <path id="パス_12554" data-name="パス 12554" d="M10.892-4.718v3.486H7.77V-5.46h4.3v-5.082h-1.75v3.458H7.77v-4.634H6.062v4.634H3.654v-3.458H2V-5.46h4.06v4.228H3.136V-4.718H1.442V1.218H3.136V.406h7.756v.8h1.736V-4.718ZM23.016-.812V-3.626H27.2v-1.61H23.016V-7.7h4.718V-9.324H23.016v-2.52h-1.75v2.52H19.11c.238-.644.462-1.3.658-1.974l-1.722-.378a12.045,12.045,0,0,1-2.478,5.012,13.239,13.239,0,0,1,1.5.994,11.539,11.539,0,0,0,1.3-2.03h2.9v2.464H17.472v1.61h3.794V-.812h-5.4V.826H28.448V-.812ZM34.65-11.228a15.35,15.35,0,0,1-.294,2.94c-.7.056-1.358.1-1.792.112a12.873,12.873,0,0,1-1.47,0L31.248-6.3c.434-.07,1.148-.168,1.54-.21.266-.042.7-.1,1.19-.154a20.608,20.608,0,0,1-2.8,6.482L33,.546A29.446,29.446,0,0,0,35.812-6.86c.392-.028.728-.056.952-.056.882,0,1.358.154,1.358,1.26a10.254,10.254,0,0,1-.574,3.794,1.008,1.008,0,0,1-1.036.6,7.978,7.978,0,0,1-1.694-.294L35.126.28a7.739,7.739,0,0,0,1.652.2A2.226,2.226,0,0,0,39.06-.8a13.553,13.553,0,0,0,.784-5.054c0-1.988-1.036-2.646-2.506-2.646-.28,0-.7.028-1.162.056.1-.5.21-1.008.28-1.428.07-.35.168-.784.252-1.148Zm5.166,2.212a16.012,16.012,0,0,1,2.352,5.278l1.75-.826A24.989,24.989,0,0,0,41.5-9.716Zm9.8-.532c1.078.28,4.172.924,5.572,1.106l.42-1.708a43.892,43.892,0,0,1-5.544-1.078Zm.532,1.106-1.876-.252a50.48,50.48,0,0,1-.686,5.782l1.61.406a3,3,0,0,1,.518-.812,4.86,4.86,0,0,1,3.822-1.624c1.218,0,2.072.658,2.072,1.554,0,1.764-2.2,2.786-6.356,2.2L49.784.63c5.768.5,7.77-1.442,7.77-3.976,0-1.68-1.414-3.178-3.85-3.178A6.8,6.8,0,0,0,49.63-5.208C49.728-6.006,49.966-7.672,50.148-8.442Z" transform="translate(484 6089)" fill="#1778b1"/>
      <path id="パス_12556" data-name="パス 12556" d="M3.668-3.066A6.042,6.042,0,0,1,2.66-.854,6.792,6.792,0,0,1,3.7-.224a8.678,8.678,0,0,0,1.162-2.59Zm4.2-.5V-4.788h-4.4V-3.57H5V-.336c0,.126-.028.168-.168.168-.1,0-.434,0-.8-.014a4.813,4.813,0,0,1,.406,1.246A2.708,2.708,0,0,0,5.88.826c.378-.2.448-.532.448-1.12V-3.57Zm.49,2.408a9.287,9.287,0,0,0-.882-1.932l-1.05.378A9.306,9.306,0,0,1,7.238-.728ZM10.584-7.8l-.532.392c.224.154.49.364.742.574H9.478c-.028-.322-.056-.644-.07-.966Zm.644,2.646A9.153,9.153,0,0,1,10.248-3a21.128,21.128,0,0,1-.6-2.534H13.2v-1.3h-.728l.056-.042A9.126,9.126,0,0,0,11.424-7.8h1.834v-1.33H8.134v-.756H12.11V-11.06H8.134v-.8H6.524v2.73H4.41v-2.114H2.87v2.114H.784V-7.8H7.91c.014.322.042.644.07.966h-6.5v2.394A8.083,8.083,0,0,1,.378.266a5.514,5.514,0,0,1,1.246.966C2.786-.322,3.01-2.744,3.01-4.424V-5.53H8.148A17.165,17.165,0,0,0,9.184-1.61,8.592,8.592,0,0,1,6.944.084,10.57,10.57,0,0,1,8.064,1.2,10.35,10.35,0,0,0,9.9-.21,2.53,2.53,0,0,0,11.83,1.232c1.036,0,1.526-.49,1.75-2.534a4.391,4.391,0,0,1-1.19-.728c-.056,1.246-.182,1.806-.448,1.806-.294,0-.658-.42-1.036-1.134a11.927,11.927,0,0,0,1.806-3.458ZM18.942-2.52c-.518,0-1.078-.686-1.078-2.086a4.347,4.347,0,0,1,3.514-4.018,22.254,22.254,0,0,1-.742,3.36C20.076-3.388,19.516-2.52,18.942-2.52ZM22.75.574c3.5-.532,5.292-2.6,5.292-5.516a5.291,5.291,0,0,0-5.6-5.418,6.183,6.183,0,0,0-6.384,5.936c0,2.338,1.3,4.032,2.828,4.032S21.6-2.1,22.428-4.9a30.13,30.13,0,0,0,.826-3.766A3.432,3.432,0,0,1,26.152-5,3.753,3.753,0,0,1,23-1.288c-.364.084-.756.154-1.288.224Z" transform="translate(602 6089)" fill="#1778b1"/>
      <path id="パス_12555" data-name="パス 12555" d="M10.64-2.73h-.6v-5.5H8.708v5.5H8.064v1.344H13.5V-2.73H12.04V-5.7h1.316v-1.33H12.04v-3.038a12.294,12.294,0,0,0,1.484-.49l-1.106-1.19A17.347,17.347,0,0,1,8.134-10.6a5.7,5.7,0,0,1,.448,1.2c.658-.084,1.358-.2,2.058-.336ZM4.508-11.424H1.078v1.26h3.43Zm.35,1.876H.462v1.316h4.4ZM4.522-7.6H1.008v1.274H4.522ZM1.008-4.438H4.522V-5.684H1.008ZM3.262-.84H2.226V-2.45H3.262ZM7.5-7.056l-.252.028h-.49c.462-1.344.924-2.744,1.232-3.878L6.986-11.13l-.224.056H4.928v1.442h1.26C5.8-8.372,5.25-6.776,4.774-5.516l1.344.266L6.3-5.74h.616A14.607,14.607,0,0,1,6.44-3.36a10.383,10.383,0,0,1-.406-1.5L4.8-4.494A11.423,11.423,0,0,0,5.74-1.652a4.744,4.744,0,0,1-1.176,1.5v-3.6H.966V1.022h1.26V.462H4.564V.14A5.053,5.053,0,0,1,5.32,1.218,5.961,5.961,0,0,0,6.664-.364,5.06,5.06,0,0,0,10.514.91h2.7a5.531,5.531,0,0,1,.49-1.5c-.63.028-2.576.028-3.08.028a4,4,0,0,1-3.276-1.2,18.668,18.668,0,0,0,.994-5.11ZM23.016-.812V-3.626H27.2v-1.61H23.016V-7.7h4.718V-9.324H23.016v-2.52h-1.75v2.52H19.11c.238-.644.462-1.3.658-1.974l-1.722-.378a12.045,12.045,0,0,1-2.478,5.012,13.239,13.239,0,0,1,1.5.994,11.539,11.539,0,0,0,1.3-2.03h2.9v2.464H17.472v1.61h3.794V-.812h-5.4V.826H28.448V-.812ZM34.132-1.54V-4.676h6.216V-1.54Zm6.216-7.8v3.01H34.132v-3.01Zm-7.938-1.68V1.05h1.722V.14h6.216v.882H42.14v-12.04ZM48.37-2.912v-.91h2.338v.91Zm2.338-3.01v.868H48.37v-.868Zm1.61-1.4h-5.53V1.134H48.37V-1.694h2.338V-.448c0,.168-.056.224-.224.224s-.742.014-1.26-.014a5.757,5.757,0,0,1,.532,1.414A4.39,4.39,0,0,0,51.7.91c.476-.238.616-.63.616-1.344Zm3.99,6.678c0,.2-.07.252-.294.252s-.966.014-1.68-.014a5.838,5.838,0,0,1,.6,1.568,5.494,5.494,0,0,0,2.3-.28c.56-.266.714-.672.714-1.5V-7.574H56.308Zm-1.26-6.538H53.522V-1.47h1.526Zm.8-2.6c.35-.49.728-1.036,1.064-1.582L55.1-11.9a15.7,15.7,0,0,1-1.148,2.114H50.064l.77-.266a7.736,7.736,0,0,0-1.3-1.82l-1.582.546A9.389,9.389,0,0,1,49-9.786H46.018v1.5h12.67v-1.5ZM64.372-1.54V-4.676h6.216V-1.54Zm6.216-7.8v3.01H64.372v-3.01Zm-7.938-1.68V1.05h1.722V.14h6.216v.882H72.38v-12.04ZM82.278-1.834c0,.8-.476,1.022-1.218,1.022-.952,0-1.442-.336-1.442-.854,0-.476.532-.854,1.512-.854a7.429,7.429,0,0,1,1.134.1C82.278-2.184,82.278-1.988,82.278-1.834Zm5.544.35a10.724,10.724,0,0,0-3.878-2.1c-.042-.532-.07-1.092-.1-1.61,1.344-.042,2.422-.14,3.668-.28V-7.112c-1.134.14-2.3.266-3.7.322l.014-1.442c1.33-.07,2.45-.182,3.36-.266l-.042-1.6a29.05,29.05,0,0,1-3.3.336l.014-.546a9.267,9.267,0,0,1,.1-.98h-1.89a5.55,5.55,0,0,1,.07.952v.63h-.686a18.352,18.352,0,0,1-3.01-.266l.014,1.582a23.087,23.087,0,0,0,3.01.21h.658v1.442h-.658a25.15,25.15,0,0,1-3.346-.252l-.014,1.638c.924.112,2.52.182,3.332.182h.714c.014.406.028.84.056,1.26a8.509,8.509,0,0,0-.854-.042c-2.142,0-3.43.98-3.43,2.38,0,1.47,1.176,2.31,3.388,2.31,1.834,0,2.73-.91,2.73-2.1,0-.14,0-.308-.014-.49A10.5,10.5,0,0,1,86.828.07Zm13.258-5.8-1.036.434A10.8,10.8,0,0,1,101.136-4.9l1.064-.476A18.348,18.348,0,0,0,101.08-7.28Zm1.568-.644-1.022.476a12.316,12.316,0,0,1,1.148,1.89l1.05-.5A20.943,20.943,0,0,0,102.648-7.924ZM91.742-9.576l.182,1.9c1.61-.35,4.522-.658,5.726-.784a5.5,5.5,0,0,0-2.044,4.27c0,3.01,2.744,4.578,5.656,4.76l.644-1.918c-2.352-.112-4.48-.938-4.48-3.22a4.208,4.208,0,0,1,2.926-3.878,14.317,14.317,0,0,1,2.674-.182l-.014-1.792c-.98.042-2.492.126-3.92.238-2.534.224-4.83.434-5.992.532C92.834-9.618,92.3-9.59,91.742-9.576Z" transform="translate(526 6115)" fill="#1778b1"/>
    </g>
    <g id="グループ_783" data-name="グループ 783" transform="translate(204 7868)">
      <rect id="長方形_81" data-name="長方形 81" width="5.753" height="2.685" transform="translate(0 20.015)" fill="#1778b1"/>
      <rect id="長方形_82" data-name="長方形 82" width="5.752" height="2.685" transform="translate(36.964 20.015)" fill="#1778b1"/>
      <path id="パス_84" data-name="パス 84" d="M26.248,338.462l1.343,2.327,4.982-2.877-1.343-2.326Z" transform="translate(-24.058 -307.588)" fill="#1778b1"/>
      <path id="パス_85" data-name="パス 85" d="M416.271,116.383l-1.343-2.326-4.982,2.877,1.343,2.326Z" transform="translate(-375.745 -104.541)" fill="#1778b1"/>
      <path id="パス_86" data-name="パス 86" d="M114.065,414.929l2.326,1.343,2.877-4.982-2.326-1.343Z" transform="translate(-104.549 -375.745)" fill="#1778b1"/>
      <path id="パス_87" data-name="パス 87" d="M340.8,27.591l-2.327-1.343L335.6,31.23l2.326,1.343Z" transform="translate(-307.597 -24.058)" fill="#1778b1"/>
      <rect id="長方形_83" data-name="長方形 83" width="2.685" height="5.752" transform="translate(20.016 36.964)" fill="#1778b1"/>
      <rect id="長方形_84" data-name="長方形 84" width="2.685" height="5.752" transform="translate(20.016 0)" fill="#1778b1"/>
      <path id="パス_88" data-name="パス 88" d="M335.6,411.29l2.875,4.982,2.327-1.343-2.877-4.982Z" transform="translate(-307.597 -375.745)" fill="#1778b1"/>
      <path id="パス_89" data-name="パス 89" d="M119.267,31.23l-2.877-4.982-2.326,1.343,2.877,4.982Z" transform="translate(-104.549 -24.058)" fill="#1778b1"/>
      <path id="パス_90" data-name="パス 90" d="M409.947,337.912l4.982,2.877,1.343-2.327-4.982-2.876Z" transform="translate(-375.745 -307.588)" fill="#1778b1"/>
      <path id="パス_91" data-name="パス 91" d="M32.572,116.934l-4.982-2.877-1.343,2.326,4.982,2.877Z" transform="translate(-24.058 -104.541)" fill="#1778b1"/>
      <path id="パス_92" data-name="パス 92" d="M112.956,99.926a13.021,13.021,0,1,0,13.021,13.021A13.021,13.021,0,0,0,112.956,99.926Z" transform="translate(-91.597 -91.589)" fill="#1778b1"/>
    </g>
    <line id="線_111" data-name="線 111" y2="176" transform="translate(188.5 7868.5)" fill="none" stroke="#707070" stroke-width="1"/>
    <g id="グループ_787" data-name="グループ 787" transform="translate(119.554 7678.828)">
      <path id="パス_185" data-name="パス 185" d="M48.457,58.568A11.236,11.236,0,1,0,37.22,47.333,11.235,11.235,0,0,0,48.457,58.568Z" transform="translate(-27.123)" fill="#1778b1"/>
      <path id="パス_186" data-name="パス 186" d="M235.242,186.99v.017c.027,0,.052-.008.08-.008s.053.008.08.008v-.017a7.762,7.762,0,0,0,0-15.522v-.017c-.027,0-.052.008-.08.008s-.052-.008-.08-.008v.017a7.762,7.762,0,0,0,0,15.522Z" transform="translate(-165.875 -98.637)" fill="#1778b1"/>
      <path id="パス_187" data-name="パス 187" d="M403.179,58.568a11.236,11.236,0,1,0-11.235-11.235A11.236,11.236,0,0,0,403.179,58.568Z" transform="translate(-285.62)" fill="#1778b1"/>
      <path id="パス_188" data-name="パス 188" d="M138.893,187.687V149.922c0-5.446-5.923-11.369-11.367-11.369h-1.573l-7.818,7.818-7.654-7.654A15.245,15.245,0,0,0,99.11,146.86l-9.086,26.576a2.195,2.195,0,0,1-3.447.609l-5.652-4.894a9.145,9.145,0,0,0-6.213-2.434H64.181a9.147,9.147,0,0,0-6.213,2.434l-5.652,4.894a2.195,2.195,0,0,1-3.447-.609L39.783,146.86a15.242,15.242,0,0,0-13.572-8.307H11.367C5.923,138.553,0,144.476,0,149.922v37.764a4.928,4.928,0,0,0,4.928,4.93h3.44l1.873,32.207a5.247,5.247,0,0,0,5.247,5.245H26.948a5.247,5.247,0,0,0,5.247-5.245l1.873-32.207-.023-22.995a.786.786,0,0,1,1.487-.357l7.209,17.742a6.1,6.1,0,0,0,9.565,1.7l6.9-5.081a.8.8,0,0,1,.851-.147.793.793,0,0,1,.473.722l.026,19.941,1.3,22.3a3.632,3.632,0,0,0,3.634,3.629h7.931a3.632,3.632,0,0,0,3.633-3.629l1.3-22.3.025-19.941a.792.792,0,0,1,.473-.722.8.8,0,0,1,.851.147l6.9,5.081a6.1,6.1,0,0,0,9.565-1.7l7.208-17.742a.786.786,0,0,1,1.487.357l-.008,8.771L97.276,201.9a1.829,1.829,0,0,0,1.741,2.39H105.5l1.195,20.535a5.246,5.246,0,0,0,5.247,5.245H123.4a5.246,5.246,0,0,0,5.246-5.245l1.2-20.535h7.167a1.829,1.829,0,0,0,1.741-2.39l-3.09-9.6A4.917,4.917,0,0,0,138.893,187.687Z" transform="translate(0 -74.663)" fill="#1778b1"/>
    </g>
    <g id="グループ_788" data-name="グループ 788" transform="translate(-936 1765)">
      <path id="パス_12549" data-name="パス 12549" d="M3.36-1.74v-.924H8.7v.924ZM8.7-4.248v.924H3.36v-.924Zm.9-.744H2.472v5.9H3.36v-1.98H8.7V-.036c0,.168-.06.216-.24.228-.2,0-.9,0-1.6-.012a3.436,3.436,0,0,1,.288.732A7.735,7.735,0,0,0,9.108.78C9.48.672,9.6.444,9.6-.036ZM8.076-8.076,7.4-7.632c.42.276.876.612,1.308.948-1.68.036-3.372.072-4.848.1.4-.468.816-1,1.176-1.488Zm3.168-.792H6.432v-1.176h-.9v1.176H.768v.792H3.9a14.9,14.9,0,0,1-1.008,1.5l-1.656.024.036.828c2.1-.036,5.292-.12,8.3-.24a8.7,8.7,0,0,1,.816.8l.744-.528A17.6,17.6,0,0,0,8.112-8.076h3.132ZM16.8-3.108c-.216,1.692-.792,2.748-3.372,3.3a2.8,2.8,0,0,1,.528.78c2.82-.684,3.528-1.992,3.792-4.08Zm3.144,0V-.372c0,.96.288,1.236,1.38,1.236h1.788c.96,0,1.224-.432,1.332-2.208a2.71,2.71,0,0,1-.828-.36C23.568-.2,23.484.024,23.028.024H21.42c-.48,0-.564-.06-.564-.4V-3.108Zm-5.232-6.6v6.432h.864V-9.708Zm2.7.2v6.06h5.916V-9.5Zm.852.792h4.164v1.86H18.264Zm0,2.592h4.164v1.884H18.264Zm19.02-3.4H31.212v.828h6.072ZM35.916-4.488h-3.4v-2.1h3.4ZM36.78-7.38H31.692v3.7H36.78Zm-1.344,7c.3-.66.672-1.776.972-2.688l-.888-.2a16.88,16.88,0,0,1-.84,2.7ZM33.468-.66a11.906,11.906,0,0,0-.66-2.544l-.756.192a13.3,13.3,0,0,1,.612,2.556ZM31.32-1.416c-.288-.348-1.464-1.68-1.944-2.184q.072-.414.108-.828h1.752v-.828h-1.7V-7.668h1.56v-.816H28.224c.12-.432.228-.888.312-1.344l-.852-.156a9.205,9.205,0,0,1-1.332,3.756,5.827,5.827,0,0,1,.768.432,9.391,9.391,0,0,0,.864-1.872h.7v2.412h-2.2v.828h2.148A6.589,6.589,0,0,1,26.412.24a2.473,2.473,0,0,1,.6.624A6.7,6.7,0,0,0,29.184-2.7a22.832,22.832,0,0,1,1.56,2.016ZM30.684-.18V.66h6.708V-.18ZM42.4-8.448v2.664h-1.74V-8.448Zm-1.74,6.216V-5H42.4v2.772Zm2.58-7.02h-3.4v8.8h.816v-.972h2.58Zm.984,6.72A9.256,9.256,0,0,1,45.744-.42L46.5-.9a8.484,8.484,0,0,0-1.56-2.04Zm6.192-2.976V-6.3h-3.1V-7.824H49.9v-.792h-2.58v-1.428H46.44v1.428h-2.5v.792h2.5V-6.3H43.428v.792h4.6v1.356H43.488v.792h4.536v3.2c0,.18-.06.228-.264.24s-.852.012-1.6-.012A2.725,2.725,0,0,1,46.452.9,6.866,6.866,0,0,0,48.4.756c.36-.132.492-.4.492-.9V-3.36H50.28v-.792H48.888V-5.508Zm6.024-3.324v1H53.844v-1ZM53.844-6.12V-7.176h2.592V-6.12Zm3.444.684V-9.528H52.956V.924h.888v-6.36ZM59.22-3.852v1.116H56.4V-3.852ZM56.4-.9V-2.064h2.82V-.9Zm3.648.708V-4.536H55.6V.408h.8v-.6Zm-.84-5.916V-7.176H61.9v1.068ZM61.9-8.832v1H59.208v-1Zm.9-.7h-4.44v4.1H61.9V-.276c0,.216-.072.288-.276.288S60.672.036,59.94,0a3.287,3.287,0,0,1,.312.912A6.83,6.83,0,0,0,62.268.756C62.664.6,62.8.3,62.8-.264ZM1.944,12.608H2.76v-.924H4.368v.924h.816v-.924H6.6v-.7H5.184V9.968H4.368v1.02H2.76V9.968H1.944v1.02H.588v.7H1.944ZM1.8,14.768V13.52H3.156v1.248Zm3.576,0h-1.4V13.52h1.4Zm5.94-2H8.76c.012-.864.024-1.764.024-2.7H7.956c0,.936,0,1.848-.024,2.7H6.54v.828H7.908C7.824,16.076,7.5,18.128,6.4,19.556l-.012-.42c-.8.1-1.632.192-2.412.276v-1H6.264v-.66H3.972v-.912h2.4V16.16h-2.4v-.744H6.2V12.86H1.02v2.556H3.156v.744H.792v.684H3.156v.912H.972v.66H3.156v1.092c-1,.108-1.908.2-2.628.264l.12.78c1.428-.168,3.468-.408,5.448-.648a3.883,3.883,0,0,1-.456.432,2.913,2.913,0,0,1,.648.624c1.836-1.584,2.3-4.164,2.436-7.368h1.74c-.1,4.356-.228,5.916-.516,6.264a.388.388,0,0,1-.4.192,11.778,11.778,0,0,1-1.272-.06,2.132,2.132,0,0,1,.252.828,8.863,8.863,0,0,0,1.392,0,.954.954,0,0,0,.78-.432c.372-.492.48-2.16.612-7.188Zm11.1-.792a4.505,4.505,0,0,1-1.164,1.548A5.325,5.325,0,0,1,19.9,11.972Zm-4.8,5.208a10.39,10.39,0,0,0,.708-1.872,3.356,3.356,0,0,1,.324.468,9.379,9.379,0,0,0,2.616-1.224,8.614,8.614,0,0,0,2.724,1.272,3.957,3.957,0,0,1,.564-.768,7.958,7.958,0,0,1-2.6-1.044,5.572,5.572,0,0,0,1.44-2.04h.924v-.756H20.328a9.523,9.523,0,0,0,.552-1.032l-.852-.228a7.374,7.374,0,0,1-2.28,2.928,5.662,5.662,0,0,1,.732.516,9.574,9.574,0,0,0,.864-.852,6.843,6.843,0,0,0,1.236,1.464,7.951,7.951,0,0,1-2.148.924c.06-.216.12-.432.18-.636l-.54-.192-.132.048h-.888l.456-.516a6.893,6.893,0,0,0-1.008-.72,8.984,8.984,0,0,0,1.956-2.04l-.576-.36-.156.036H13.692v.78h3.4a8.441,8.441,0,0,1-1.26,1.188c-.384-.2-.792-.4-1.164-.552l-.552.576a12.247,12.247,0,0,1,2.664,1.608H13.56v.78h1.812a9.042,9.042,0,0,1-1.932,3.216,4.72,4.72,0,0,1,.468.828,9.61,9.61,0,0,0,1.752-2.952V19.88c0,.132-.048.168-.192.18s-.624,0-1.14-.012a3.277,3.277,0,0,1,.276.816,4.709,4.709,0,0,0,1.5-.132c.3-.156.4-.4.4-.852V14.936h1.152A12.507,12.507,0,0,1,17,16.868Zm3.624-.528c.072-.384.132-.78.168-1.188h-.9c-.036.408-.084.8-.156,1.188H18.288V17.4H20.16a4.114,4.114,0,0,1-2.784,2.832,2.9,2.9,0,0,1,.528.684,4.868,4.868,0,0,0,3.18-3.516H23.1c-.18,1.644-.36,2.316-.588,2.544a.508.508,0,0,1-.408.12c-.192,0-.672-.012-1.188-.06a2.333,2.333,0,0,1,.24.828,12.682,12.682,0,0,0,1.332.012,1.082,1.082,0,0,0,.744-.312c.348-.348.576-1.26.792-3.492.012-.144.024-.384.024-.384Z" transform="translate(1031 6121)"/>
      <path id="パス_12551" data-name="パス 12551" d="M6.012-1.392c0,.816-.576,1.02-1.26,1.02-1.176,0-1.644-.408-1.644-.96S3.72-2.3,4.848-2.3A6.05,6.05,0,0,1,6-2.2C6-1.872,6.012-1.6,6.012-1.392Zm4.332.408A9.755,9.755,0,0,0,6.888-2.832c-.024-.564-.06-1.188-.084-1.8,1.128-.048,2.184-.132,3.3-.276l-.012-.9a32.058,32.058,0,0,1-3.3.312V-7.2c1.116-.06,2.136-.156,3.072-.252l-.012-.876A26.424,26.424,0,0,1,6.8-8.04c0-.288,0-.516.012-.66a6.116,6.116,0,0,1,.06-.792H5.856a6.652,6.652,0,0,1,.036.708V-8H5.28A18.945,18.945,0,0,1,2.5-8.232v.888c.708.084,1.968.18,2.8.18H5.88v1.7H5.244a21.141,21.141,0,0,1-2.988-.228v.912c.852.1,2.172.168,2.988.168H5.9c.012.492.036,1.056.06,1.584a6.709,6.709,0,0,0-1-.072c-1.716,0-2.76.732-2.76,1.812C2.208-.132,3.156.48,4.86.48c1.548,0,2.1-.852,2.1-1.668,0-.18-.012-.444-.024-.744A8.826,8.826,0,0,1,9.8-.144Zm11.4-5.244-.612.264a11.14,11.14,0,0,1,.984,1.692l.612-.288A14.243,14.243,0,0,0,21.744-6.228Zm1.308-.5-.6.276a10.688,10.688,0,0,1,1.02,1.668l.624-.288A18.127,18.127,0,0,0,23.052-6.732ZM13.956-7.9l.108,1.056c1.284-.264,4.524-.576,5.568-.7a4.8,4.8,0,0,0-2.208,4.008C17.424-.876,19.932.3,22.128.4l.348-1.008c-1.932-.072-4.092-.8-4.092-3.12A4.155,4.155,0,0,1,21.1-7.488a9.847,9.847,0,0,1,2.328-.192v-.96c-.792.036-1.908.1-3.2.2-2.184.192-4.428.408-5.208.48C14.784-7.932,14.412-7.908,13.956-7.9Z" transform="translate(1078 6223)"/>
      <path id="パス_12550" data-name="パス 12550" d="M16.38-9.93v-7.26h7.8v7.26ZM5.7-9.93v-7.26h7.77v7.26Zm10.68-9.99v-5.22H13.47v5.22H2.91V-5.43H5.7V-7.2h7.77V2.34h2.91V-7.2h7.8v1.62h2.91V-19.92Zm21.03,2.07H57.45v4.41h2.76v-6.87H55.86c.93-1.14,1.92-2.46,2.79-3.75l-2.94-.93a31.527,31.527,0,0,1-2.91,4.68H47.73l1.47-.57a17.785,17.785,0,0,0-2.43-4.44l-2.43.9a22.219,22.219,0,0,1,2.1,4.11H40.89l1.08-.51a18.409,18.409,0,0,0-2.79-4.02l-2.4,1.08a18.928,18.928,0,0,1,2.34,3.45H34.8v6.87h2.61ZM60.66-8.37H48.84v-.39a26.926,26.926,0,0,0,7.02-5.16l-1.8-1.35-.6.15H39.39v2.43h11.4a23.734,23.734,0,0,1-3.39,2.25H45.99v2.07H34.29v2.58h11.7V-.87c0,.45-.15.57-.75.6s-2.7.03-4.8-.06a15.009,15.009,0,0,1,1.17,2.7,20.852,20.852,0,0,0,5.61-.42c1.23-.42,1.62-1.2,1.62-2.73V-5.79H60.66ZM92.28-21.51H81.12v-3.66H78.24v3.66H67.29v2.67H92.28ZM78.84-12.42a36.944,36.944,0,0,0-3.87-2.91,22.658,22.658,0,0,0,1.14-2.79l-2.82-.63a15.684,15.684,0,0,1-6.54,8.79A17.67,17.67,0,0,1,69-8.1a19.244,19.244,0,0,0,4.8-5.13,33.719,33.719,0,0,1,3.36,2.79ZM93.15-7.23H81.12V-9.21h-.03a17.164,17.164,0,0,0,3.75-3.63,52.522,52.522,0,0,1,5.64,4.53l1.95-2.07a53.513,53.513,0,0,0-6.15-4.65,17.178,17.178,0,0,0,1.35-3.12l-2.82-.54a13.741,13.741,0,0,1-6.51,7.95,13.5,13.5,0,0,1,1.86,1.53H78.24v1.98H66.51v2.67H78.24v6.9h2.88v-6.9H93.15Zm23.16-10.5a27.992,27.992,0,0,1-1.32,2.85h-6.33l.87-.18a12.621,12.621,0,0,0-1.29-2.67Zm9.03,13.14V-6.93H113.52V-8.76h9.21v-2.1h-9.21v-1.8h10.62v-2.22h-6.36c.51-.84,1.11-1.83,1.68-2.85h5.79v-2.34h-4.32a46.938,46.938,0,0,0,2.49-4.08l-2.88-.72a26.147,26.147,0,0,1-2.1,4.44l1.14.36h-3.24V-25.2H113.7v5.13h-2.97V-25.2h-2.61v5.13h-3.3l1.53-.57a20.852,20.852,0,0,0-2.4-4.29l-2.43.81a22.492,22.492,0,0,1,2.19,4.05H99.27v2.34h6.81l-.72.12a14.862,14.862,0,0,1,1.26,2.73h-6.15v2.22h10.32v1.8h-8.85v2.1h8.85v1.83H99.15v2.34h9.27A29.107,29.107,0,0,1,98.31-.42a12.52,12.52,0,0,1,1.83,2.37,29.8,29.8,0,0,0,10.65-5.4V2.37h2.73V-3.66a26.761,26.761,0,0,0,10.74,5.64,12.528,12.528,0,0,1,1.86-2.49,27.551,27.551,0,0,1-10.17-4.08Z" transform="translate(978 6193)" fill="#1778b1"/>
      <path id="パス_12552" data-name="パス 12552" d="M-93.408-8.724A8.81,8.81,0,0,0-95.76-9.96l-.48.66a9.575,9.575,0,0,1,2.328,1.308Zm-.624,3.132a10.173,10.173,0,0,0-2.376-1.1l-.468.684a10.086,10.086,0,0,1,2.364,1.176Zm-.276,1.932A36.1,36.1,0,0,1-96.456.192l.756.576c.672-1.116,1.464-2.592,2.064-3.852Zm8.5,4.128A16.307,16.307,0,0,0-88.1-2.976l-.756.4a20.692,20.692,0,0,1,1.236,1.7c-1.416.1-2.844.18-4.08.24.528-1.044,1.092-2.412,1.536-3.552h4.152V-5.04h-3.408v-2.2h2.844v-.84h-2.844v-1.956h-.912v1.956h-2.736v.84h2.736v2.2h-3.336v.852h2.448a28.313,28.313,0,0,1-1.44,3.612l-1,.048.132.888C-91.872.252-89.46.1-87.144-.084a7.934,7.934,0,0,1,.5,1.02Zm3.288-8.292h8.172v1.752h.912V-8.664h-4.536v-1.368H-78.9v1.368h-4.5v2.592h.876Zm4.548,5.1h3.552v-.828h-3.552V-5.544h3.06v-.84h-6.948v.84h2.976V-.516A3.6,3.6,0,0,1-81.1-2.832a15.146,15.146,0,0,0,.288-1.6l-.912-.084c-.264,2.148-.912,3.852-2.244,4.884a4.659,4.659,0,0,1,.732.6A6.574,6.574,0,0,0-81.444-1.7C-80.352.324-78.564.756-76.08.756H-73.3a2.63,2.63,0,0,1,.336-.9c-.576.012-2.64.012-3.072.012a10.955,10.955,0,0,1-1.944-.144Zm15.3-3.5-.612.264A11.14,11.14,0,0,1-62.3-4.272l.612-.288A14.243,14.243,0,0,0-62.676-6.228Zm1.308-.5-.6.276a10.689,10.689,0,0,1,1.02,1.668l.624-.288A18.126,18.126,0,0,0-61.368-6.732Zm-9.1-1.164.108,1.056c1.284-.264,4.524-.576,5.568-.7A4.8,4.8,0,0,0-67-3.528C-67-.876-64.488.3-62.292.4l.348-1.008c-1.932-.072-4.092-.8-4.092-3.12a4.155,4.155,0,0,1,2.712-3.756A9.846,9.846,0,0,1-61-7.68v-.96c-.792.036-1.908.1-3.2.2-2.184.192-4.428.408-5.208.48C-69.636-7.932-70.008-7.908-70.464-7.9Zm14-1.32a5.241,5.241,0,0,1-.084.84,37.029,37.029,0,0,0-.54,4.992A14.359,14.359,0,0,0-56.628.384l.852-.072c-.012-.12-.036-.288-.036-.408a2.039,2.039,0,0,1,.06-.528,25.655,25.655,0,0,1,.84-2.628l-.5-.4c-.2.48-.48,1.188-.672,1.728A10.5,10.5,0,0,1-56.2-3.54a29.184,29.184,0,0,1,.588-4.788,5.628,5.628,0,0,1,.2-.8Zm6.06,7.368c0,.792-.288,1.284-1.3,1.284-.852,0-1.428-.336-1.428-.924,0-.552.612-.948,1.5-.948a3.716,3.716,0,0,1,1.212.192C-50.4-2.1-50.4-1.956-50.4-1.848Zm3.24.588A8.1,8.1,0,0,0-49.5-2.808c-.048-1-.132-2.184-.144-3.372.708-.048,1.4-.12,2.052-.228v-.936a15.137,15.137,0,0,1-2.052.276c.012-.552.024-1.1.036-1.428a6.732,6.732,0,0,1,.072-.708h-1.092a4.857,4.857,0,0,1,.06.72v1.476c-.372.012-.744.024-1.116.024A18.578,18.578,0,0,1-53.7-7.092v.912c.7.036,1.32.072,1.992.072.384,0,.756-.012,1.14-.024.012.984.084,2.124.12,3.036a5.3,5.3,0,0,0-1.1-.108C-53.112-3.2-54-2.388-54-1.392c0,1.056.876,1.716,2.472,1.716A1.8,1.8,0,0,0-49.464-1.62v-.216A9.018,9.018,0,0,1-47.676-.48ZM-42.372.156a2.561,2.561,0,0,0,2.82-2.508,2.262,2.262,0,0,0-1.872-2.232v-.048a2.193,2.193,0,0,0,1.572-2.124c0-1.416-1.08-2.208-2.556-2.208a3.522,3.522,0,0,0-2.46,1.056l.588.7a2.745,2.745,0,0,1,1.824-.876,1.374,1.374,0,0,1,1.488,1.416c0,.948-.624,1.68-2.436,1.68v.84c2.028,0,2.736.708,2.736,1.764A1.62,1.62,0,0,1-42.456-.756,2.908,2.908,0,0,1-44.64-1.764l-.552.72A3.641,3.641,0,0,0-42.372.156Zm7.644-2.964a5.961,5.961,0,0,1-.96,2.064,3.7,3.7,0,0,1,.576.384,7.805,7.805,0,0,0,1.08-2.292Zm3.564-.576v-.7h-3.972v.7h1.62v3.3c0,.108-.024.132-.144.144s-.444.012-.864,0a2.5,2.5,0,0,1,.252.708A2.831,2.831,0,0,0-33.084.624c.264-.12.324-.324.324-.708v-3.3Zm.324,2.376a7.561,7.561,0,0,0-.9-1.788l-.6.228a8.066,8.066,0,0,1,.876,1.824Zm1.74-5.784-.384.3a10.375,10.375,0,0,1,1.1.8h-1.7c-.048-.36-.072-.732-.1-1.1Zm1.008,2.328a8.243,8.243,0,0,1-1.14,2.328,13.817,13.817,0,0,1-.756-2.832h3.264v-.72h-.888l.12-.12a7.828,7.828,0,0,0-1.332-.984h2.16v-.744H-31.32V-8.52H-27.8v-.672H-31.32v-.84H-32.2v2.5H-34.38V-9.492h-.84v1.956h-1.92v.744h6.156c.012.372.048.744.1,1.1h-5.58v2A7.034,7.034,0,0,1-37.476.42,4.07,4.07,0,0,1-36.8.948a8.1,8.1,0,0,0,1.164-4.62v-1.3h4.848a15.355,15.355,0,0,0,1.008,3.552A8.674,8.674,0,0,1-31.956.312a4.181,4.181,0,0,1,.6.624A8.9,8.9,0,0,0-29.4-.66C-28.836.348-28.176.96-27.54.96c.72,0,1.02-.48,1.152-2.148a2.113,2.113,0,0,1-.672-.384C-27.108-.36-27.228.156-27.48.156c-.408,0-.912-.54-1.38-1.464A9.835,9.835,0,0,0-27.288-4.3Zm9.144,3.072c0,.816-.576,1.02-1.26,1.02-1.176,0-1.644-.408-1.644-.96s.612-.972,1.74-.972A6.05,6.05,0,0,1-18.96-2.2C-18.96-1.872-18.948-1.6-18.948-1.392Zm4.332.408a9.755,9.755,0,0,0-3.456-1.848c-.024-.564-.06-1.188-.084-1.8,1.128-.048,2.184-.132,3.3-.276l-.012-.9a32.058,32.058,0,0,1-3.3.312V-7.2c1.116-.06,2.136-.156,3.072-.252l-.012-.876a26.424,26.424,0,0,1-3.048.288c0-.288,0-.516.012-.66a6.116,6.116,0,0,1,.06-.792H-19.1a6.651,6.651,0,0,1,.036.708V-8h-.612a18.945,18.945,0,0,1-2.784-.228v.888c.708.084,1.968.18,2.8.18h.588v1.7h-.636A21.141,21.141,0,0,1-22.7-5.688v.912c.852.1,2.172.168,2.988.168h.66c.012.492.036,1.056.06,1.584a6.709,6.709,0,0,0-1-.072c-1.716,0-2.76.732-2.76,1.812C-22.752-.132-21.8.48-20.1.48c1.548,0,2.1-.852,2.1-1.668,0-.18-.012-.444-.024-.744A8.826,8.826,0,0,1-15.156-.144Zm11.4-5.244-.612.264a11.14,11.14,0,0,1,.984,1.692l.612-.288A14.243,14.243,0,0,0-3.216-6.228Zm1.308-.5-.6.276a10.688,10.688,0,0,1,1.02,1.668l.624-.288A18.126,18.126,0,0,0-1.908-6.732ZM-11-7.9-10.9-6.84c1.284-.264,4.524-.576,5.568-.7A4.8,4.8,0,0,0-7.536-3.528C-7.536-.876-5.028.3-2.832.4l.348-1.008c-1.932-.072-4.092-.8-4.092-3.12A4.155,4.155,0,0,1-3.864-7.488,9.847,9.847,0,0,1-1.536-7.68v-.96c-.792.036-1.908.1-3.2.2-2.184.192-4.428.408-5.208.48C-10.176-7.932-10.548-7.908-11-7.9Z" transform="translate(1090 6250)"/>
      <g id="グループ_167" data-name="グループ 167" transform="translate(975.5 6107)">
        <path id="パス_93" data-name="パス 93" d="M86.708,197.6a.624.624,0,0,0,.18.03.592.592,0,0,0,.572-.421.6.6,0,0,0-.385-.758.611.611,0,0,0-.758.391A.6.6,0,0,0,86.708,197.6Z" transform="translate(-79.799 -181.657)" fill="#1778b1"/>
        <path id="パス_94" data-name="パス 94" d="M148.01,112.462a.62.62,0,0,0,.361-.12h-.006a.6.6,0,0,0,.132-.837.606.606,0,0,0-.842-.132.6.6,0,0,0-.126.842A.592.592,0,0,0,148.01,112.462Z" transform="translate(-136.325 -102.892)" fill="#1778b1"/>
        <path id="パス_95" data-name="パス 95" d="M247.52,79.422h.006a.6.6,0,0,0-.006-1.2.609.609,0,0,0-.6.608A.6.6,0,0,0,247.52,79.422Z" transform="translate(-228.351 -72.337)" fill="#1778b1"/>
        <path id="パス_96" data-name="パス 96" d="M347.462,111.257a.6.6,0,0,0,.487-.253.6.6,0,1,0-.836.138A.586.586,0,0,0,347.462,111.257Z" transform="translate(-320.78 -101.778)" fill="#1778b1"/>
        <path id="パス_97" data-name="パス 97" d="M87.294,301.3a.592.592,0,0,0-.379.758h-.006a.607.607,0,0,0,.578.415.523.523,0,0,0,.186-.031.6.6,0,0,0-.379-1.143Z" transform="translate(-80.349 -278.613)" fill="#1778b1"/>
        <path id="パス_98" data-name="パス 98" d="M148.976,386.018a.606.606,0,0,0,.139.842.626.626,0,0,0,.349.108.611.611,0,0,0,.493-.247.6.6,0,0,0-.98-.7Z" transform="translate(-137.67 -356.759)" fill="#1778b1"/>
        <path id="パス_99" data-name="パス 99" d="M410.355,299.859a.6.6,0,0,0-.758.391.594.594,0,0,0,.391.752.485.485,0,0,0,.186.03.6.6,0,0,0,.18-1.173Z" transform="translate(-378.771 -277.284)" fill="#1778b1"/>
        <path id="パス_100" data-name="パス 100" d="M409.617,195.709a.723.723,0,0,0,.186-.03.612.612,0,0,0,.385-.764l-.018-.036v-.006a.6.6,0,0,0-1.143.38.079.079,0,0,1,.012.036c.006,0,.006,0,.006.006A.6.6,0,0,0,409.617,195.709Z" transform="translate(-378.243 -179.841)" fill="#1778b1"/>
        <path id="パス_101" data-name="パス 101" d="M348.569,385.021a.6.6,0,0,0-.132.842.61.61,0,0,0,.487.247.583.583,0,0,0,.349-.12.6.6,0,1,0-.7-.969Z" transform="translate(-322.128 -355.961)" fill="#1778b1"/>
        <path id="パス_102" data-name="パス 102" d="M249.356,417.742a.6.6,0,0,0,.006,1.2.6.6,0,1,0-.006-1.2Z" transform="translate(-230.055 -386.33)" fill="#1778b1"/>
        <path id="パス_103" data-name="パス 103" d="M19.25,0A19.25,19.25,0,1,0,38.5,19.25,19.272,19.272,0,0,0,19.25,0Zm0,33.917A14.667,14.667,0,1,1,33.917,19.25,14.683,14.683,0,0,1,19.25,33.917Z" fill="#1778b1"/>
        <path id="パス_104" data-name="パス 104" d="M238.153,130.672h-3.145v12h10.427v-3.145h-7.282Z" transform="translate(-217.337 -120.846)" fill="#1778b1"/>
      </g>
    </g>
    <path id="パス_12557" data-name="パス 12557" d="M-44.718-8.724A8.81,8.81,0,0,0-47.07-9.96l-.48.66a9.574,9.574,0,0,1,2.328,1.308Zm-.624,3.132a10.173,10.173,0,0,0-2.376-1.1l-.468.684a10.086,10.086,0,0,1,2.364,1.176Zm-.276,1.932A36.1,36.1,0,0,1-47.766.192l.756.576c.672-1.116,1.464-2.592,2.064-3.852Zm8.5,4.128a16.307,16.307,0,0,0-2.292-3.444l-.756.4a20.694,20.694,0,0,1,1.236,1.7c-1.416.1-2.844.18-4.08.24.528-1.044,1.092-2.412,1.536-3.552h4.152V-5.04h-3.408v-2.2h2.844v-.84h-2.844v-1.956h-.912v1.956h-2.736v.84h2.736v2.2h-3.336v.852h2.448a28.313,28.313,0,0,1-1.44,3.612l-1,.048.132.888C-43.182.252-40.77.1-38.454-.084a7.936,7.936,0,0,1,.5,1.02Zm3.288-8.292h8.172v1.752h.912V-8.664h-4.536v-1.368h-.924v1.368h-4.5v2.592h.876Zm4.548,5.1h3.552v-.828h-3.552V-5.544h3.06v-.84h-6.948v.84H-30.2V-.516a3.6,3.6,0,0,1-2.208-2.316,15.147,15.147,0,0,0,.288-1.6l-.912-.084c-.264,2.148-.912,3.852-2.244,4.884a4.658,4.658,0,0,1,.732.6A6.574,6.574,0,0,0-32.754-1.7C-31.662.324-29.874.756-27.39.756h2.784a2.63,2.63,0,0,1,.336-.9c-.576.012-2.64.012-3.072.012a10.955,10.955,0,0,1-1.944-.144Zm15.3-3.5-.612.264a11.14,11.14,0,0,1,.984,1.692L-13-4.56A14.243,14.243,0,0,0-13.986-6.228Zm1.308-.5-.6.276a10.688,10.688,0,0,1,1.02,1.668l.624-.288A18.126,18.126,0,0,0-12.678-6.732Zm-9.1-1.164.108,1.056c1.284-.264,4.524-.576,5.568-.7a4.8,4.8,0,0,0-2.208,4.008C-18.306-.876-15.8.3-13.6.4l.348-1.008c-1.932-.072-4.092-.8-4.092-3.12a4.155,4.155,0,0,1,2.712-3.756,9.847,9.847,0,0,1,2.328-.192v-.96c-.792.036-1.908.1-3.2.2-2.184.192-4.428.408-5.208.48C-20.946-7.932-21.318-7.908-21.774-7.9Zm14-1.32a5.241,5.241,0,0,1-.084.84,37.029,37.029,0,0,0-.54,4.992A14.359,14.359,0,0,0-7.938.384l.852-.072C-7.1.192-7.122.024-7.122-.1a2.039,2.039,0,0,1,.06-.528,25.656,25.656,0,0,1,.84-2.628l-.5-.4c-.2.48-.48,1.188-.672,1.728a10.5,10.5,0,0,1-.108-1.62,29.184,29.184,0,0,1,.588-4.788,5.628,5.628,0,0,1,.2-.8Zm6.06,7.368c0,.792-.288,1.284-1.3,1.284-.852,0-1.428-.336-1.428-.924,0-.552.612-.948,1.5-.948a3.716,3.716,0,0,1,1.212.192C-1.71-2.1-1.71-1.956-1.71-1.848Zm3.24.588A8.1,8.1,0,0,0-.81-2.808c-.048-1-.132-2.184-.144-3.372C-.246-6.228.45-6.3,1.1-6.408v-.936a15.137,15.137,0,0,1-2.052.276c.012-.552.024-1.1.036-1.428A6.732,6.732,0,0,1-.846-9.2H-1.938a4.857,4.857,0,0,1,.06.72v1.476c-.372.012-.744.024-1.116.024A18.578,18.578,0,0,1-5.01-7.092v.912c.7.036,1.32.072,1.992.072.384,0,.756-.012,1.14-.024.012.984.084,2.124.12,3.036a5.3,5.3,0,0,0-1.1-.108c-1.56,0-2.448.816-2.448,1.812,0,1.056.876,1.716,2.472,1.716A1.8,1.8,0,0,0-.774-1.62v-.216A9.018,9.018,0,0,1,1.014-.48ZM4.206,0H9.03V-.912H7.266V-8.8h-.84A5.573,5.573,0,0,1,4.6-8.172v.7h1.56V-.912H4.206Zm9.756-2.808A5.961,5.961,0,0,1,13-.744a3.7,3.7,0,0,1,.576.384,7.805,7.805,0,0,0,1.08-2.292Zm3.564-.576v-.7H13.554v.7h1.62v3.3c0,.108-.024.132-.144.144s-.444.012-.864,0a2.5,2.5,0,0,1,.252.708A2.831,2.831,0,0,0,15.606.624C15.87.5,15.93.3,15.93-.084v-3.3Zm.324,2.376a7.561,7.561,0,0,0-.9-1.788l-.6.228a8.066,8.066,0,0,1,.876,1.824Zm1.74-5.784-.384.3a10.375,10.375,0,0,1,1.1.8h-1.7c-.048-.36-.072-.732-.1-1.1ZM20.6-4.464a8.243,8.243,0,0,1-1.14,2.328A13.817,13.817,0,0,1,18.7-4.968h3.264v-.72h-.888l.12-.12a7.828,7.828,0,0,0-1.332-.984h2.16v-.744H17.37V-8.52h3.516v-.672H17.37v-.84h-.876v2.5H14.31V-9.492h-.84v1.956H11.55v.744h6.156c.012.372.048.744.1,1.1h-5.58v2A7.034,7.034,0,0,1,11.214.42a4.07,4.07,0,0,1,.672.528,8.1,8.1,0,0,0,1.164-4.62v-1.3H17.9a15.355,15.355,0,0,0,1.008,3.552A8.674,8.674,0,0,1,16.734.312a4.181,4.181,0,0,1,.6.624A8.9,8.9,0,0,0,19.29-.66C19.854.348,20.514.96,21.15.96c.72,0,1.02-.48,1.152-2.148a2.113,2.113,0,0,1-.672-.384C21.582-.36,21.462.156,21.21.156c-.408,0-.912-.54-1.38-1.464A9.835,9.835,0,0,0,21.4-4.3Zm9.144,3.072c0,.816-.576,1.02-1.26,1.02-1.176,0-1.644-.408-1.644-.96s.612-.972,1.74-.972A6.05,6.05,0,0,1,29.73-2.2C29.73-1.872,29.742-1.6,29.742-1.392Zm4.332.408a9.755,9.755,0,0,0-3.456-1.848c-.024-.564-.06-1.188-.084-1.8,1.128-.048,2.184-.132,3.3-.276l-.012-.9a32.058,32.058,0,0,1-3.3.312V-7.2c1.116-.06,2.136-.156,3.072-.252l-.012-.876a26.424,26.424,0,0,1-3.048.288c0-.288,0-.516.012-.66a6.116,6.116,0,0,1,.06-.792h-1.02a6.651,6.651,0,0,1,.036.708V-8H29.01a18.945,18.945,0,0,1-2.784-.228v.888c.708.084,1.968.18,2.8.18h.588v1.7h-.636a21.141,21.141,0,0,1-2.988-.228v.912c.852.1,2.172.168,2.988.168h.66c.012.492.036,1.056.06,1.584a6.709,6.709,0,0,0-1-.072c-1.716,0-2.76.732-2.76,1.812,0,1.152.948,1.764,2.652,1.764,1.548,0,2.1-.852,2.1-1.668,0-.18-.012-.444-.024-.744A8.826,8.826,0,0,1,33.534-.144Zm11.4-5.244-.612.264a11.14,11.14,0,0,1,.984,1.692l.612-.288A14.243,14.243,0,0,0,45.474-6.228Zm1.308-.5-.6.276A10.689,10.689,0,0,1,47.2-4.788l.624-.288A18.126,18.126,0,0,0,46.782-6.732ZM37.686-7.9l.108,1.056c1.284-.264,4.524-.576,5.568-.7a4.8,4.8,0,0,0-2.208,4.008C41.154-.876,43.662.3,45.858.4l.348-1.008c-1.932-.072-4.092-.8-4.092-3.12a4.155,4.155,0,0,1,2.712-3.756,9.847,9.847,0,0,1,2.328-.192v-.96c-.792.036-1.908.1-3.2.2-2.184.192-4.428.408-5.208.48C38.514-7.932,38.142-7.908,37.686-7.9ZM-44.442,21.152l.72-.372a7.509,7.509,0,0,1-2.232-5.34,7.509,7.509,0,0,1,2.232-5.34l-.72-.372A7.973,7.973,0,0,0-46.83,15.44,7.973,7.973,0,0,0-44.442,21.152ZM-33.2,11.8h-6v-.828h6Zm0,1.44h-6V12.4h6Zm.876-2.9h-7.716v3.54h7.716Zm-.12,6.408a5.692,5.692,0,0,1-1.3,1.764,5.677,5.677,0,0,1-1.176-1.764Zm-7.176,1.536h2.172v.732c-.744.084-1.488.156-2.172.228Zm0-1.512h2.172v.84h-2.172Zm2.172-1.476v.8h-2.172v-.8Zm5.556.72-.156.024h-4.128v.708h1.032l-.516.156a6.913,6.913,0,0,0,1.32,2.112,7.273,7.273,0,0,1-2.256,1.14V15.3h5.616v-.744H-41.466V15.3h1.032v4.032c-.42.048-.8.084-1.14.108l.084.792c1.116-.132,2.58-.3,4.044-.48v1.164h.852v-.744a2.93,2.93,0,0,1,.468.672,8.306,8.306,0,0,0,2.388-1.26A6.876,6.876,0,0,0-31.23,20.9a2.94,2.94,0,0,1,.54-.7,6.486,6.486,0,0,1-2.424-1.152,6.855,6.855,0,0,0,1.764-2.82Zm12.708.564a18.441,18.441,0,0,1-2.532,1.62,6.072,6.072,0,0,1-1.236-1.728h5.028v-.8h-7.644v-1.02h6.12v-.732h-6.12v-1h6.12v-.732h-6.12v-1h6.48v-.756h-7.392v5.232h-2.1v.8h2.1v3.312c-.564.084-1.092.168-1.524.228l.228.816c1.428-.24,3.48-.588,5.388-.924l-.036-.792c-1.056.18-2.148.36-3.144.528V16.472h1.7a7.5,7.5,0,0,0,5.58,4.476,2.784,2.784,0,0,1,.552-.78,8.1,8.1,0,0,1-3.42-1.476,18.782,18.782,0,0,0,2.7-1.632Zm4.932-5.8a5.241,5.241,0,0,1-.084.84,37.029,37.029,0,0,0-.54,4.992,14.359,14.359,0,0,0,.456,3.768l.852-.072c-.012-.12-.036-.288-.036-.408a2.039,2.039,0,0,1,.06-.528,25.656,25.656,0,0,1,.84-2.628l-.5-.4c-.2.48-.48,1.188-.672,1.728a10.5,10.5,0,0,1-.108-1.62,29.184,29.184,0,0,1,.588-4.788,5.628,5.628,0,0,1,.2-.8Zm6.06,7.368c0,.792-.288,1.284-1.3,1.284-.852,0-1.428-.336-1.428-.924,0-.552.612-.948,1.5-.948a3.716,3.716,0,0,1,1.212.192C-8.19,17.9-8.19,18.044-8.19,18.152Zm3.24.588a8.1,8.1,0,0,0-2.34-1.548c-.048-1-.132-2.184-.144-3.372.708-.048,1.4-.12,2.052-.228v-.936a15.137,15.137,0,0,1-2.052.276c.012-.552.024-1.1.036-1.428a6.732,6.732,0,0,1,.072-.708H-8.418a4.857,4.857,0,0,1,.06.72v1.476c-.372.012-.744.024-1.116.024a18.578,18.578,0,0,1-2.016-.108v.912c.7.036,1.32.072,1.992.072.384,0,.756-.012,1.14-.024.012.984.084,2.124.12,3.036a5.3,5.3,0,0,0-1.1-.108c-1.56,0-2.448.816-2.448,1.812,0,1.056.876,1.716,2.472,1.716A1.8,1.8,0,0,0-7.254,18.38v-.216A9.018,9.018,0,0,1-5.466,19.52ZM-2.8,20H2.73v-.948H.294c-.444,0-.984.048-1.44.084C.918,17.18,2.3,15.392,2.3,13.64a2.413,2.413,0,0,0-2.556-2.6,3.364,3.364,0,0,0-2.592,1.3l.636.624A2.463,2.463,0,0,1-.39,11.936a1.546,1.546,0,0,1,1.62,1.74c0,1.512-1.272,3.264-4.032,5.676ZM7.482,17.192a5.961,5.961,0,0,1-.96,2.064,3.7,3.7,0,0,1,.576.384,7.805,7.805,0,0,0,1.08-2.292Zm3.564-.576v-.7H7.074v.7h1.62v3.3c0,.108-.024.132-.144.144s-.444.012-.864,0a2.5,2.5,0,0,1,.252.708,2.831,2.831,0,0,0,1.188-.144c.264-.12.324-.324.324-.708v-3.3Zm.324,2.376a7.561,7.561,0,0,0-.9-1.788l-.6.228a8.066,8.066,0,0,1,.876,1.824Zm1.74-5.784-.384.3a10.375,10.375,0,0,1,1.1.8h-1.7c-.048-.36-.072-.732-.1-1.1Zm1.008,2.328a8.243,8.243,0,0,1-1.14,2.328,13.817,13.817,0,0,1-.756-2.832h3.264v-.72H14.6l.12-.12a7.828,7.828,0,0,0-1.332-.984h2.16v-.744H10.89V11.48h3.516v-.672H10.89v-.84h-.876v2.5H7.83V10.508H6.99v1.956H5.07v.744h6.156c.012.372.048.744.1,1.1H5.742v2a7.034,7.034,0,0,1-1.008,4.1,4.07,4.07,0,0,1,.672.528,8.1,8.1,0,0,0,1.164-4.62v-1.3h4.848a15.355,15.355,0,0,0,1.008,3.552,8.674,8.674,0,0,1-2.172,1.728,4.181,4.181,0,0,1,.6.624,8.9,8.9,0,0,0,1.956-1.6c.564,1.008,1.224,1.62,1.86,1.62.72,0,1.02-.48,1.152-2.148a2.113,2.113,0,0,1-.672-.384c-.048,1.212-.168,1.728-.42,1.728-.408,0-.912-.54-1.38-1.464A9.835,9.835,0,0,0,14.922,15.7Zm9.144,3.072c0,.816-.576,1.02-1.26,1.02-1.176,0-1.644-.408-1.644-.96s.612-.972,1.74-.972a6.05,6.05,0,0,1,1.152.108C23.25,18.128,23.262,18.4,23.262,18.608Zm4.332.408a9.755,9.755,0,0,0-3.456-1.848c-.024-.564-.06-1.188-.084-1.8,1.128-.048,2.184-.132,3.3-.276l-.012-.9a32.058,32.058,0,0,1-3.3.312V12.8c1.116-.06,2.136-.156,3.072-.252l-.012-.876a26.424,26.424,0,0,1-3.048.288c0-.288,0-.516.012-.66a6.116,6.116,0,0,1,.06-.792h-1.02a6.651,6.651,0,0,1,.036.708V12H22.53a18.945,18.945,0,0,1-2.784-.228v.888c.708.084,1.968.18,2.8.18h.588v1.7h-.636a21.141,21.141,0,0,1-2.988-.228v.912c.852.1,2.172.168,2.988.168h.66c.012.492.036,1.056.06,1.584a6.709,6.709,0,0,0-1-.072c-1.716,0-2.76.732-2.76,1.812,0,1.152.948,1.764,2.652,1.764,1.548,0,2.1-.852,2.1-1.668,0-.18-.012-.444-.024-.744a8.826,8.826,0,0,1,2.868,1.788Zm11.4-5.244-.612.264a11.14,11.14,0,0,1,.984,1.692l.612-.288A14.243,14.243,0,0,0,38.994,13.772Zm1.308-.5-.6.276a10.689,10.689,0,0,1,1.02,1.668l.624-.288A18.126,18.126,0,0,0,40.3,13.268Zm-9.1-1.164.108,1.056c1.284-.264,4.524-.576,5.568-.7a4.8,4.8,0,0,0-2.208,4.008c0,2.652,2.508,3.828,4.7,3.924l.348-1.008c-1.932-.072-4.092-.8-4.092-3.12a4.155,4.155,0,0,1,2.712-3.756,9.846,9.846,0,0,1,2.328-.192v-.96c-.792.036-1.908.1-3.2.2-2.184.192-4.428.408-5.208.48C32.034,12.068,31.662,12.092,31.206,12.1ZM44.442,9.728l-.72.372a7.5,7.5,0,0,1,0,10.68l.72.372a8.025,8.025,0,0,0,0-11.424Z" transform="translate(280 8020)"/>
  </g>
</svg>
