<svg xmlns="http://www.w3.org/2000/svg" width="355" height="370" viewBox="0 0 355 370">
  <g id="グループ_953" data-name="グループ 953" transform="translate(-10 -8092)">
    <rect id="長方形_826" data-name="長方形 826" width="355" height="370" transform="translate(10 8092)" fill="#f7f7f7"/>
    <g id="グループ_770" data-name="グループ 770" transform="translate(108.896 8107.317)">
      <path id="パス_176" data-name="パス 176" d="M177.687,94.776a11.314,11.314,0,1,0-13.763-8.158A11.311,11.311,0,0,0,177.687,94.776Z" transform="translate(-112.62 -53.552)" fill="#1778b1"/>
      <path id="パス_177" data-name="パス 177" d="M142.576,285.288l-.764,8.008a24.35,24.35,0,0,1,3.684,3,23.96,23.96,0,1,1-39.948,23.582l-4.082,9a31.282,31.282,0,1,0,41.109-43.592Z" transform="translate(-66.748 -210.732)" fill="#1778b1"/>
      <path id="パス_178" data-name="パス 178" d="M68.352,215.5l2.873-30.095c.463-5.076-2.6-9.526-7.673-9.989a11.449,11.449,0,0,0-8.794,3.508L40.626,192.835l-14.788,1.243a4.587,4.587,0,0,0-4.2,4.569v.277a4.589,4.589,0,0,0,4.589,4.587H41.458a6.68,6.68,0,0,0,3.975-1.309l6.161-4.547-1.327,14.677-19.317,1.41c-5.608.222-8.081,2.47-10.191,7.5L11.642,246.3a6.1,6.1,0,0,0,11.128,5l10.274-21.944h19.7C62.652,229.245,67.334,225.085,68.352,215.5Z" transform="translate(0 -129.549)" fill="#1778b1"/>
      <path id="パス_179" data-name="パス 179" d="M385.432,22.279a11.315,11.315,0,1,0-13.765-8.158A11.311,11.311,0,0,0,385.432,22.279Z" transform="translate(-266.072 0)" fill="#1778b1"/>
      <path id="パス_180" data-name="パス 180" d="M330.961,151.8,325.82,111.8c-1.315-9.969-12.856-12.329-19.417-6.3l-16,14.432-15.315,5.761a4.711,4.711,0,0,0-2.874,5.822l.055.184a4.716,4.716,0,0,0,5.565,3.193l11.793-3.233a21.139,21.139,0,0,0,7.073-3.072l5.771-3.54,3.229,25.185c.18,1.388-2.346,7.563-2.756,9.051l-12.921,40.3a6.026,6.026,0,0,0,3.856,7.574l.218.069a6.028,6.028,0,0,0,7.434-3.377l14.527-35.19,3.5,35.143a6.028,6.028,0,0,0,6.5,5.478l.23-.02a6.029,6.029,0,0,0,5.529-6.006Z" transform="translate(-192.711 -75.498)" fill="#1778b1"/>
    </g>
    <g id="グループ_792" data-name="グループ 792" transform="translate(-934 2163)">
      <path id="パス_12460" data-name="パス 12460" d="M9.2-3.2H4v-.828H9.2ZM4-.24v-.888H9.2V-.24ZM9.2-1.752H4v-.84H9.2Zm2.052-3.816v-.744H4.968c.144-.288.276-.588.4-.876h5.2v-.72H5.616c.1-.3.192-.588.276-.888a32.763,32.763,0,0,0,4.548-.5l-.564-.648a54.863,54.863,0,0,1-8.424.6,2.308,2.308,0,0,1,.18.684c1.032,0,2.16-.024,3.276-.084-.072.288-.156.564-.252.84H1.62v.72H4.392a9.4,9.4,0,0,1-.4.876H.744v.744H3.576A8.8,8.8,0,0,1,.456-2.424a3.828,3.828,0,0,1,.552.684A9.57,9.57,0,0,0,3.144-3.5V.948H4V.48H9.2V.948h.876V-4.74H4.1c.18-.264.336-.552.492-.828ZM16.98-9.624H14.028v.72H16.98Zm.336,1.572H13.464v.732h3.852ZM16.26-2.508v2h-1.6v-2ZM17-3.24h-3.06V.78h.72V.216H17Zm-3.048-.888H17v-.72H13.956Zm0-1.6H17v-.708H13.956Zm7.86-2.892v.648l-.732-.168a7.41,7.41,0,0,1-.408.936H19.092q.216-.378.4-.756h.528v-.66Zm-1.08,2.6h-1.62v-.564h1.62Zm0,1.1h-1.62v-.576h1.62Zm0,1.128h-1.62v-.6h1.62Zm-2.424.612h5.976V-3.78h-2.76v-.6h2.2v-.528h-2.2v-.576h2.2v-.528h-2.2v-.564h2.484V-7.2h-2.52c.132-.228.264-.492.4-.756h.744v-.66h1.68v-.672h-1.68v-.756h-.816v.756h-1.8v-.756h-.792v.756h-1.74v.672h1.74v.552l-.456-.108A6.56,6.56,0,0,1,17.04-5.808a4.954,4.954,0,0,1,.6.468,6.508,6.508,0,0,0,.672-.72Zm4.3,1.2A5.038,5.038,0,0,1,21.012-.8a4.81,4.81,0,0,1-1.584-1.164Zm.72-.72-.156.036h-5.5v.684h1.44l-.48.2A5.66,5.66,0,0,0,20.148-.432,13.755,13.755,0,0,1,17.1.24a2.836,2.836,0,0,1,.384.7A13.777,13.777,0,0,0,20.964,0,11.342,11.342,0,0,0,24,.912,3.55,3.55,0,0,1,24.516.2a11.747,11.747,0,0,1-2.688-.648,5.213,5.213,0,0,0,2.016-1.968ZM29.46-9.96a12.331,12.331,0,0,1-3.252,4.812,5.107,5.107,0,0,1,.54.9,12.175,12.175,0,0,0,1.416-1.584V.9h.876V-7.116a17.828,17.828,0,0,0,1.308-2.568Zm7.86,3.828V-7H33.852v-2.88h-.876V-7H29.6v.864h2.9a12.191,12.191,0,0,1-3.324,4.908,5.178,5.178,0,0,1,.672.684,13.4,13.4,0,0,0,3.12-4.62V.924h.876V-5.412A14.568,14.568,0,0,0,36.96-.588a3.2,3.2,0,0,1,.672-.72,12.661,12.661,0,0,1-3.264-4.824ZM50.016-9.5H46.968v.768h2.256v2.16H46.968v.768h3.048ZM41.928-8.412V-5.7h-1.38V-8.412Zm-1.38,6.3v-2.8h1.38v2.8ZM42.672-9.2H39.816V-.372h.732v-.936h2.124Zm3.036.456v2.2H44.244v-2.2ZM46.452-1.5v-.756H44.244V-3.744h2V-4.5h-2V-5.784H46.5V-9.5H43.416V.888h.828V-1.5Zm2.76-2.628a7.693,7.693,0,0,1-.876,2.184,8.453,8.453,0,0,1-.8-2.184Zm.42-.78-.132.024H46.608v.756h.864L46.86-4a10.915,10.915,0,0,0,.984,2.724A5.259,5.259,0,0,1,45.792.252,2.436,2.436,0,0,1,46.248.9a6.14,6.14,0,0,0,2.04-1.464A4.764,4.764,0,0,0,49.836.876a3.215,3.215,0,0,1,.552-.648,4.377,4.377,0,0,1-1.6-1.416,8.709,8.709,0,0,0,1.356-3.576ZM58.74-7.98a.907.907,0,0,0-.9-.9.907.907,0,0,0-.9.9.907.907,0,0,0,.9.9A.907.907,0,0,0,58.74-7.98Zm-4.86-.888-.348.348,3.96,3.96L53.52-.588l.348.348L57.84-4.212,61.8-.252,62.148-.6l-3.96-3.96,3.96-3.96L61.8-8.868l-3.96,3.96Zm.54,3.408a.907.907,0,0,0-.9.9.907.907,0,0,0,.9.9.907.907,0,0,0,.9-.9A.907.907,0,0,0,54.42-5.46Zm6.84,1.8a.907.907,0,0,0,.9-.9.907.907,0,0,0-.9-.9.907.907,0,0,0-.9.9A.907.907,0,0,0,61.26-3.66ZM56.94-1.14a.907.907,0,0,0,.9.9.907.907,0,0,0,.9-.9.907.907,0,0,0-.9-.9A.907.907,0,0,0,56.94-1.14Z" transform="translate(1014 6121)"/>
      <path id="パス_12462" data-name="パス 12462" d="M11.424-4.716H6.48V-5.892A18.14,18.14,0,0,0,10.4-8.76l-.648-.492L9.54-9.2H1.848v.864H8.6a15.27,15.27,0,0,1-2.472,1.7H5.568v1.92H.612v.888H5.568V-.24c0,.216-.072.276-.336.288S4.092.06,3.132.024a4.228,4.228,0,0,1,.384.912A8.891,8.891,0,0,0,5.88.78c.444-.144.6-.42.6-1.02V-3.828h4.944ZM21.444-7.7a5.654,5.654,0,0,1-.84.564c-.648.36-1.728.876-2.772,1.512a25.159,25.159,0,0,1-1.584-3.516l-.948.4c.552,1.272,1.176,2.664,1.716,3.636-1.272.888-2.052,1.872-2.052,3.1C14.964-.24,16.6.432,18.816.432A23.2,23.2,0,0,0,22.572.144l.012-1.08a17.5,17.5,0,0,1-3.8.408c-1.872,0-2.808-.612-2.808-1.6,0-.9.66-1.668,1.764-2.4a35.075,35.075,0,0,1,3.288-1.8c.348-.18.636-.336.9-.5Zm.072-1.32A12.4,12.4,0,0,1,22.5-7.356l.648-.288A17.211,17.211,0,0,0,22.164-9.3Zm1.332-.48a9.937,9.937,0,0,1,1,1.656l.648-.3A15.026,15.026,0,0,0,23.484-9.78Zm11.2,4.62A3.266,3.266,0,0,1,35.352-2.46c0,1.236-1.152,2-2.952,2-1.356,0-2-.72-2-1.848,0-.288.024-.708.072-1.176H30.9a21.449,21.449,0,0,0,2.328-.108l.024-.912a19.223,19.223,0,0,1-2.472.144h-.228c.084-.684.168-1.428.264-2.124H30.9a23.8,23.8,0,0,0,2.412-.12l.024-.9a17.787,17.787,0,0,1-2.4.144c.06-.492.12-.912.156-1.212a6.545,6.545,0,0,1,.156-.828l-1.08-.06a4.754,4.754,0,0,1-.012.828c-.024.324-.072.756-.132,1.236a10.832,10.832,0,0,1-2.592-.432l-.048.888a16.177,16.177,0,0,0,2.532.408c-.084.7-.18,1.44-.264,2.136a9.769,9.769,0,0,1-2.508-.48L27.1-3.96a11.511,11.511,0,0,0,2.472.432c-.06.564-.1,1.044-.1,1.368C29.472-.216,30.78.492,32.4.492c2.34,0,3.936-1.08,3.936-2.844A3.936,3.936,0,0,0,35.112-5.1Zm8.568,4.86a22.523,22.523,0,0,0-2.688-2.664L39.144-2A19.306,19.306,0,0,1,41.8.672ZM55.272-7.38h-.708V-8.772h.708Zm1.26,3.168-.048-.036c-.012.036-.048.036-.168.036h-.432c-.156,0-.168-.012-.168-.168V-6.624h.816ZM53.22-.672V-1.908h3.312V-.672Zm.828-5.952v.948a2.541,2.541,0,0,1-.816,2.028,1.794,1.794,0,0,1,.4.348,3.13,3.13,0,0,0,.912-2.364v-.96h.672V-4.38c0,.576.144.7.612.7H56.4a.45.45,0,0,0,.132-.012V-2.58H53.22V-6.624ZM52.2-8.772h1.728V-7.38H52.5V.876h.72V.048h3.312v.66h.732V-7.38H55.908V-8.772H57.54v-.8H52.2ZM59.7-.048c-.552,0-.66-.084-.66-.528V-4.9h2.7v.8h.876V-9.5h-4.5v.864H61.74v2.892H58.164V-.576C58.164.516,58.5.792,59.6.792H61.6c1.092,0,1.344-.54,1.464-2.484a2.608,2.608,0,0,1-.828-.384c-.06,1.728-.156,2.028-.684,2.028ZM67.644-10a14.033,14.033,0,0,1-2.808,4.764,7.163,7.163,0,0,1,.5.876A12.461,12.461,0,0,0,66.4-5.7V.936h.852v-8a19.272,19.272,0,0,0,1.224-2.676Zm2.088,4.248V-6.924H71.58v1.176Zm0-3.012H71.58V-7.6H69.732ZM74.3-7.6H72.372V-8.76H74.3Zm0,1.848H72.372V-6.924H74.3ZM75.66-4.1H72.372V-5.04h2.8V-9.468H68.892V-5.04H71.58V-4.1H68.328V.924h.852v-4.26h2.4v1.584c-.756.06-1.452.12-2.016.168l.168.78L73.8-1.272a6.662,6.662,0,0,1,.3.84l.576-.228a9.628,9.628,0,0,0-1.068-2.292l-.54.2c.144.264.288.528.432.828l-1.128.1V-3.336h2.46V-.024c0,.168-.06.2-.24.216S73.8.216,73.1.18a2.949,2.949,0,0,1,.252.756A6.081,6.081,0,0,0,75.216.8c.348-.132.444-.348.444-.816Zm7.416-2.1V-7.74H85.74A18.971,18.971,0,0,1,83.916-6.2Zm3.252,4h-4.86V-3.4h4.86ZM81.468-.252V-1.5h4.86V-.252ZM88.7-5.4v-.8H85.248a18.2,18.2,0,0,0,2.916-3.012l-.756-.408A14.055,14.055,0,0,1,86.04-8.04v-.492H83.076v-1.5H82.2v1.5H79.14v.792H82.2V-6.2H78.1v.8h4.668a23.68,23.68,0,0,1-4.932,2.376,5.2,5.2,0,0,1,.564.732c.732-.276,1.476-.6,2.2-.948V.912h.876V.528h4.86V.864h.912V-4.152H82.284c.66-.384,1.308-.8,1.932-1.248ZM94.452-.024a22.524,22.524,0,0,0-2.688-2.664L90.984-2A19.306,19.306,0,0,1,93.636.672Zm20.316-6.4a22.79,22.79,0,0,0-3.444-3.468l-.768.516a21.958,21.958,0,0,1,3.4,3.564Zm-7.656-3.42a11.676,11.676,0,0,1-3.276,3.492,5.533,5.533,0,0,1,.78.708,14.589,14.589,0,0,0,3.444-3.876Zm4.248,3.228a10.016,10.016,0,0,1-2.016,3.564A10.47,10.47,0,0,1,107.316-6.5l-.864.252a12.5,12.5,0,0,0,2.22,3.876A11.9,11.9,0,0,1,103.788.108a5.02,5.02,0,0,1,.648.828,12.887,12.887,0,0,0,4.884-2.628A10.742,10.742,0,0,0,114.2.936,3.8,3.8,0,0,1,114.84.06a10.454,10.454,0,0,1-4.824-2.436,11.47,11.47,0,0,0,2.3-3.948Zm9.648-1.02a10.455,10.455,0,0,1,2.328,1.56l.552-.612a10.4,10.4,0,0,0-2.364-1.488Zm2.664,4.92a10.21,10.21,0,0,0-2.556-1.728l-.552.528a10.456,10.456,0,0,1,2.52,1.788Zm-4.824.816c.156-.912.324-1.944.48-3h6c-.084,1.284-.168,2.268-.264,3Zm6.66-6.744c-.036,1.1-.084,2.076-.132,2.928h-5.928c.144-1,.288-2,.4-2.928ZM127.8-4.9v-.816h-1.536c.06-.936.108-2.016.156-3.24,0-.132.012-.5.012-.5H119.04c-.132,1.128-.3,2.436-.492,3.744h-1.776V-4.9h1.656c-.264,1.728-.552,3.4-.8,4.6l.924.084c.048-.264.108-.552.156-.864h6.216a2.207,2.207,0,0,1-.372,1.008.528.528,0,0,1-.5.228c-.288,0-.888-.012-1.6-.084a2.214,2.214,0,0,1,.24.8A11.807,11.807,0,0,0,124.4.888a1.171,1.171,0,0,0,.972-.54,3.278,3.278,0,0,0,.48-1.428h1.632V-1.9h-1.512c.084-.756.168-1.74.252-3Zm5.532,4.872a22.523,22.523,0,0,0-2.688-2.664l-.78.684A19.306,19.306,0,0,1,132.516.672ZM5.3,16.676c-.252-.276-1.248-1.212-1.776-1.656a11.24,11.24,0,0,0,1.428-2.532l-.492-.324-.156.036H3.324V9.968H2.448V12.2H.708v.816H3.84A10.41,10.41,0,0,1,.276,16.952a4,4,0,0,1,.456.8,11.036,11.036,0,0,0,1.716-1.464v4.62h.876V15.824A18.451,18.451,0,0,1,4.752,17.4Zm1.368.768H9.708V19.76H6.672Zm3.036-5.952v2.16H6.672v-2.16ZM6.672,14.444H9.708v2.208H6.672Zm3.912,5.316V10.7H5.82v9.06H4.332v.816h7.2V19.76Zm13.824-6.18a22.79,22.79,0,0,0-3.444-3.468l-.768.516a21.958,21.958,0,0,1,3.4,3.564Zm-7.656-3.42a11.676,11.676,0,0,1-3.276,3.492,5.534,5.534,0,0,1,.78.708A14.589,14.589,0,0,0,17.7,10.484ZM21,13.388a10.015,10.015,0,0,1-2.016,3.564A10.47,10.47,0,0,1,16.956,13.5l-.864.252a12.5,12.5,0,0,0,2.22,3.876,11.9,11.9,0,0,1-4.884,2.484,5.02,5.02,0,0,1,.648.828,12.887,12.887,0,0,0,4.884-2.628,10.743,10.743,0,0,0,4.884,2.628,3.8,3.8,0,0,1,.636-.876,10.454,10.454,0,0,1-4.824-2.436,11.47,11.47,0,0,0,2.3-3.948Zm9.648-1.02a10.455,10.455,0,0,1,2.328,1.56l.552-.612a10.4,10.4,0,0,0-2.364-1.488Zm2.664,4.92a10.21,10.21,0,0,0-2.556-1.728l-.552.528a10.456,10.456,0,0,1,2.52,1.788Zm-4.824.816c.156-.912.324-1.944.48-3h6c-.084,1.284-.168,2.268-.264,3Zm6.66-6.744c-.036,1.1-.084,2.076-.132,2.928H29.088c.144-1,.288-2,.4-2.928ZM37.44,15.1v-.816H35.9c.06-.936.108-2.016.156-3.24,0-.132.012-.5.012-.5H28.68c-.132,1.128-.3,2.436-.492,3.744H26.412V15.1h1.656c-.264,1.728-.552,3.4-.8,4.6l.924.084c.048-.264.108-.552.156-.864H34.56a2.207,2.207,0,0,1-.372,1.008.528.528,0,0,1-.5.228c-.288,0-.888-.012-1.6-.084a2.214,2.214,0,0,1,.24.8,11.807,11.807,0,0,0,1.716.012,1.171,1.171,0,0,0,.972-.54,3.278,3.278,0,0,0,.48-1.428h1.632V18.1H35.616c.084-.756.168-1.74.252-3Zm12.168,6.048.72-.372a7.5,7.5,0,0,1,0-10.68l-.72-.372a8.025,8.025,0,0,0,0,11.424Zm6.024-8.532h-.708V11.228h.708Zm1.26,3.168-.048-.036c-.012.036-.048.036-.168.036h-.432c-.156,0-.168-.012-.168-.168V13.376h.816Zm-3.312,3.54V18.092h3.312v1.236Zm.828-5.952v.948a2.541,2.541,0,0,1-.816,2.028,1.794,1.794,0,0,1,.4.348,3.13,3.13,0,0,0,.912-2.364v-.96h.672V15.62c0,.576.144.7.612.7h.576a.45.45,0,0,0,.132-.012V17.42H53.58V13.376ZM52.56,11.228h1.728V12.62H52.86v8.256h.72v-.828h3.312v.66h.732V12.62H56.268V11.228H57.9v-.8H52.56Zm7.5,8.724c-.552,0-.66-.084-.66-.528V15.1h2.7v.8h.876V10.5h-4.5v.864H62.1v2.892H58.524v5.172c0,1.092.336,1.368,1.44,1.368h1.992c1.092,0,1.344-.54,1.464-2.484a2.608,2.608,0,0,1-.828-.384c-.06,1.728-.156,2.028-.684,2.028ZM68,10A14.033,14.033,0,0,1,65.2,14.768a7.163,7.163,0,0,1,.5.876A12.461,12.461,0,0,0,66.756,14.3v6.636h.852v-8a19.272,19.272,0,0,0,1.224-2.676Zm2.088,4.248V13.076H71.94v1.176Zm0-3.012H71.94V12.4H70.092ZM74.664,12.4H72.732V11.24h1.932Zm0,1.848H72.732V13.076h1.932ZM76.02,15.9H72.732V14.96h2.8V10.532H69.252V14.96H71.94V15.9H68.688v5.028h.852v-4.26h2.4v1.584c-.756.06-1.452.12-2.016.168l.168.78,4.068-.468a6.662,6.662,0,0,1,.3.84l.576-.228a9.628,9.628,0,0,0-1.068-2.292l-.54.2c.144.264.288.528.432.828l-1.128.1V16.664h2.46v3.312c0,.168-.06.2-.24.216s-.792.024-1.488-.012a2.949,2.949,0,0,1,.252.756,6.081,6.081,0,0,0,1.86-.132c.348-.132.444-.348.444-.816Zm7.416-2.1V12.26H86.1A18.972,18.972,0,0,1,84.276,13.8Zm3.252,4h-4.86V16.6h4.86Zm-4.86,1.956V18.5h4.86v1.248ZM89.064,14.6v-.8H85.608a18.2,18.2,0,0,0,2.916-3.012l-.756-.408A14.055,14.055,0,0,1,86.4,11.96v-.492H83.436v-1.5H82.56v1.5H79.5v.792h3.06V13.8h-4.1v.8h4.668a23.68,23.68,0,0,1-4.932,2.376,5.2,5.2,0,0,1,.564.732c.732-.276,1.476-.6,2.2-.948v4.152h.876v-.384h4.86v.336H87.6V15.848H82.644c.66-.384,1.308-.8,1.932-1.248Zm10.512,5.064H93.912V17.516h5.664Zm.048-5.532-.168.06H92.832v.78h6.132c-.312.552-.7,1.212-1.044,1.752H93.036v4.2h.876v-.468h5.664v.468h.912v-4.2H98.964c.468-.744.96-1.608,1.332-2.352ZM94.56,12.44a11.207,11.207,0,0,0,2.112-1.752A11.939,11.939,0,0,0,98.9,12.44Zm1.644-2.5a12.441,12.441,0,0,1-5.016,3.3,3.846,3.846,0,0,1,.5.708,17.194,17.194,0,0,0,2.76-1.44V13.2h4.632v-.648a16.729,16.729,0,0,0,2.676,1.32,4.054,4.054,0,0,1,.54-.744,13.492,13.492,0,0,1-5.256-3.18Zm9.54,6.588c0-.888.5-1.512,1.092-1.512.4,0,.684.336.684.9,0,.8-.264,1.644-.948,1.644C106.14,17.564,105.744,17.192,105.744,16.532Zm6.8.144a8.513,8.513,0,0,1,.084,1.344,1.2,1.2,0,0,1-.984,1.32,9.494,9.494,0,0,1-2.016.2c-1.728,0-1.884-.24-1.884-.9,0-.216.012-.5.024-.756a3.145,3.145,0,0,0,.624-2.016,1.885,1.885,0,0,0-.3-1.056V13.028a18.557,18.557,0,0,0,2.268-.36v-.924a13.687,13.687,0,0,1-2.268.42v-.516a8.714,8.714,0,0,1,.072-1.128h-1.056a5.449,5.449,0,0,1,.084,1.128v.588c-.168.012-.324.012-.48.012a12.176,12.176,0,0,1-1.884-.156l.048.888a14.071,14.071,0,0,0,1.9.12c.132,0,.276,0,.42-.012v1.176a2.534,2.534,0,0,0-.312-.024,2.15,2.15,0,0,0-1.944,2.34c0,1.38.864,1.872,1.536,1.872a1.779,1.779,0,0,0,.372-.036c0,.18-.012.372-.012.576,0,.876.36,1.452,2.736,1.452a13.012,13.012,0,0,0,2.46-.228,1.8,1.8,0,0,0,1.548-1.932c.024-.492.012-.648,0-1.284Zm-.84-4.332a13.541,13.541,0,0,1,2.316,2.244l.672-.684a13.2,13.2,0,0,0-2.364-2.2Zm6.2-2.616-.72.372a7.5,7.5,0,0,1,0,10.68l.72.372a8.025,8.025,0,0,0,0-11.424Zm17.7,8.88c0,.816-.576,1.02-1.26,1.02-1.176,0-1.644-.408-1.644-.96s.612-.972,1.74-.972a6.05,6.05,0,0,1,1.152.108C135.6,18.128,135.612,18.4,135.612,18.608Zm4.332.408a9.755,9.755,0,0,0-3.456-1.848c-.024-.564-.06-1.188-.084-1.8,1.128-.048,2.184-.132,3.3-.276l-.012-.9a32.058,32.058,0,0,1-3.3.312V12.8c1.116-.06,2.136-.156,3.072-.252l-.012-.876a26.424,26.424,0,0,1-3.048.288c0-.288,0-.516.012-.66a6.115,6.115,0,0,1,.06-.792h-1.02a6.651,6.651,0,0,1,.036.708V12h-.612a18.945,18.945,0,0,1-2.784-.228v.888c.708.084,1.968.18,2.8.18h.588v1.7h-.636a21.142,21.142,0,0,1-2.988-.228v.912c.852.1,2.172.168,2.988.168h.66c.012.492.036,1.056.06,1.584a6.709,6.709,0,0,0-1-.072c-1.716,0-2.76.732-2.76,1.812,0,1.152.948,1.764,2.652,1.764,1.548,0,2.1-.852,2.1-1.668,0-.18-.012-.444-.024-.744a8.826,8.826,0,0,1,2.868,1.788Zm11.4-5.244-.612.264a11.14,11.14,0,0,1,.984,1.692l.612-.288A14.243,14.243,0,0,0,151.344,13.772Zm1.308-.5-.6.276a10.688,10.688,0,0,1,1.02,1.668l.624-.288A18.126,18.126,0,0,0,152.652,13.268Zm-9.1-1.164.108,1.056c1.284-.264,4.524-.576,5.568-.7a4.8,4.8,0,0,0-2.208,4.008c0,2.652,2.508,3.828,4.7,3.924l.348-1.008c-1.932-.072-4.092-.8-4.092-3.12a4.155,4.155,0,0,1,2.712-3.756,9.847,9.847,0,0,1,2.328-.192v-.96c-.792.036-1.908.1-3.2.2-2.184.192-4.428.408-5.208.48C144.384,12.068,144.012,12.092,143.556,12.1Z" transform="translate(959 6248)"/>
      <path id="パス_12461" data-name="パス 12461" d="M16.478-5.962h-8.8V-7.216h8.8ZM7.678-.638V-1.98h8.8V-.638Zm0-3.96h8.8v1.254h-8.8Zm12.958-5.478V-11.7H9.438c.2-.418.4-.88.572-1.32H19.4V-14.63H10.56c.154-.462.308-.9.44-1.364a75.946,75.946,0,0,0,8.25-.858l-1.232-1.474a104.981,104.981,0,0,1-15.378.99,4.805,4.805,0,0,1,.4,1.562c1.826,0,3.762-.044,5.7-.11-.11.418-.22.836-.374,1.254H2.926v1.606H7.81c-.2.44-.4.9-.616,1.32H1.364v1.628h4.95A15.277,15.277,0,0,1,.77-4.576,8.09,8.09,0,0,1,2.024-2.97a16.27,16.27,0,0,0,3.7-2.948V1.8H7.678V.968h8.8V1.8h2.046V-8.8H7.92c.264-.418.484-.836.726-1.276Zm10.516-7.656H25.674v1.606h5.478Zm.616,2.9H24.64V-13.2h7.128ZM29.524-4.29v3.168h-2.4V-4.29Zm1.65-1.65H25.5V1.452h1.628V.484h4.048ZM25.542-7.3H31.2V-8.91H25.542Zm0-4.532v1.584H31.2v-1.584ZM39.82-15.73v1.012l-1.254-.22a12.094,12.094,0,0,1-.638,1.606h-2.64c.22-.418.418-.836.616-1.254h.968V-15.73Zm-1.87,4.6H35.31v-.858h2.64Zm0,2H35.31v-.88h2.64Zm0,2.024H35.31V-8.03h2.64ZM33.506-5.764H44.55V-7.106H39.732V-8.03h3.806v-1.1H39.732v-.88h3.806v-1.122H39.732v-.858h4.29v-1.342H39.754c.22-.374.44-.814.66-1.254H41.69V-15.73h2.9V-17.2h-2.9V-18.48H39.82V-17.2H36.872V-18.48H35.046V-17.2H32.054v1.474h2.992v.9l-.792-.2A11.508,11.508,0,0,1,31.2-10.78,8.227,8.227,0,0,1,32.538-9.7a10.941,10.941,0,0,0,.968-1.034ZM41.03-3.432a9.9,9.9,0,0,1-2.6,1.8,9.035,9.035,0,0,1-2.6-1.8ZM42.7-5.016l-.33.066H32.384v1.518h2.794l-1.166.462A10.638,10.638,0,0,0,36.476-.836,25.416,25.416,0,0,1,31.328.22a5.934,5.934,0,0,1,.836,1.562,27.289,27.289,0,0,0,6.2-1.606,20.961,20.961,0,0,0,5.456,1.54A6.8,6.8,0,0,1,44.99.11a26.12,26.12,0,0,1-4.6-.968A9.809,9.809,0,0,0,43.89-4.4Zm12.5-7.568a29.451,29.451,0,0,1-1.21,5.1c-1.056-1.276-2.156-2.552-3.212-3.652l-1.43,1.166A57.174,57.174,0,0,1,53.108-5.39,12.8,12.8,0,0,1,48.224-.022,11.34,11.34,0,0,1,49.61,1.562a14.881,14.881,0,0,0,4.752-5.17,22.223,22.223,0,0,1,1.716,2.97l1.65-1.386A26.893,26.893,0,0,0,55.374-5.7,29.826,29.826,0,0,0,57.2-12.32ZM68.574-13.4H66.088v-5.06H64.064v5.06H58.982V-14.96H54.736v-3.476h-1.98v3.476h-4v1.892H58.3v1.65h5.764V-.924c0,.374-.154.484-.528.484-.374.022-1.562.022-2.882-.022a9.456,9.456,0,0,1,.66,2.178A10.39,10.39,0,0,0,65.1,1.3c.7-.374.99-.968.99-2.222V-11.418h2.486Zm-6.16,8.756a16.542,16.542,0,0,0-2.4-4.73l-1.672.792a18.316,18.316,0,0,1,2.31,4.818Zm14.344-7.9h4.466v2.156H76.758Zm6.27-2.948a13.725,13.725,0,0,1-1.1,1.43h-4.95c.528-.462,1.034-.946,1.5-1.43Zm4.95,5.1H83.226V-12.54h4.752ZM90.09-8.668a32.813,32.813,0,0,1-4.18,2.794,15.123,15.123,0,0,1-1.342-2.97H90v-5.214H84.326a21.134,21.134,0,0,0,1.562-2.156l-1.386-.9-.33.088H79.794c.286-.352.55-.726.792-1.078l-2.112-.44A17.339,17.339,0,0,1,72.4-13.134a5.726,5.726,0,0,1,1.386,1.43c.374-.22.726-.462,1.056-.682v3.542h4.862A35.744,35.744,0,0,1,72.754-6.82,12.264,12.264,0,0,1,73.81-5.346a43.173,43.173,0,0,0,5.082-1.562,8.352,8.352,0,0,1,.968.682,25.236,25.236,0,0,1-7.018,2.508,9.7,9.7,0,0,1,1.1,1.408,24.821,24.821,0,0,0,7-2.926,6.039,6.039,0,0,1,.7.858,26.227,26.227,0,0,1-9.2,4.092,7.86,7.86,0,0,1,1.188,1.518,29.276,29.276,0,0,0,8.712-4.2A2.242,2.242,0,0,1,81.84-.33a2.086,2.086,0,0,1-1.386.352c-.506,0-1.254-.022-1.98-.088a4.377,4.377,0,0,1,.55,1.826c.638.022,1.276.044,1.76.044a3.808,3.808,0,0,0,2.332-.638c2.2-1.408,2-5.852-2.442-8.822a20.252,20.252,0,0,0,2.068-1.122c1.43,4.73,4.048,8.184,8.272,9.856a7.905,7.905,0,0,1,1.32-1.716A11.544,11.544,0,0,1,86.79-4.576a39.943,39.943,0,0,0,4.928-2.882Zm15.51-2.97V-14.1h4.312a31.418,31.418,0,0,1-2.882,2.464Zm5.456,7.414h-8.294V-6.05h8.294ZM102.762-.682V-2.618h8.294V-.682Zm13.024-9.13v-1.826h-5.764a31.818,31.818,0,0,0,4.862-5.192l-1.76-.924a24.1,24.1,0,0,1-2.4,2.838v-.968H105.6v-2.574h-2.024v2.574H98.208V-14.1h5.368v2.464H96.294v1.826h8.052a39.483,39.483,0,0,1-8.6,4.048A11.216,11.216,0,0,1,97-4.07c1.254-.484,2.508-1.012,3.74-1.584V1.738h2.024V1.056h8.294V1.65h2.112V-7.744h-8.536c1.056-.66,2.09-1.32,3.08-2.068ZM3.938,15.26H18.106v2.706h2.068V13.39h-8.14V11.542H9.922V13.39H1.914v4.576H3.938Zm14.5,4.092a28.592,28.592,0,0,1-3.542,2.684,20.844,20.844,0,0,1-1.166-3.168h3.234v-1.76H4.928v1.76H8.976A26.338,26.338,0,0,1,1.76,21.552a10.089,10.089,0,0,1,1.078,1.584,32.841,32.841,0,0,0,5.3-1.958,6.831,6.831,0,0,1,.814.77A23.764,23.764,0,0,1,1.98,25.094a7.257,7.257,0,0,1,1.034,1.584A33.219,33.219,0,0,0,9.9,23.18q.33.561.594,1.122a24.721,24.721,0,0,1-9.284,4.73,9.98,9.98,0,0,1,1.078,1.694,31.922,31.922,0,0,0,8.756-4.664c.264,1.562-.066,2.882-.726,3.366a1.89,1.89,0,0,1-1.452.44,18.818,18.818,0,0,1-2.046-.11,4.938,4.938,0,0,1,.572,1.958c.682.044,1.342.066,1.892.066a3.452,3.452,0,0,0,2.464-.814c2.134-1.54,2.222-7.062-1.936-10.692a13.75,13.75,0,0,0,2.024-1.408h.044c1.32,5.148,3.7,9.262,7.744,11.22a7.491,7.491,0,0,1,1.43-1.782,11.266,11.266,0,0,1-5.3-4.73,33.821,33.821,0,0,0,4.29-2.86Zm10.494.44c.044-.9.066-1.826.088-2.75H33.4a7.569,7.569,0,0,1-.66.77,9.49,9.49,0,0,1,1.606,1.122,15.427,15.427,0,0,0,1.87-2.794h8.4V14.27h-7.5a20.96,20.96,0,0,0,.836-2.332L36.1,11.5a17.28,17.28,0,0,1-2.376,5.1V15.128H30.58V11.564H28.6v3.564H24.772v1.914h2.31c-.088,5.17-.33,10.318-2.618,13.31a6.3,6.3,0,0,1,1.452,1.408c1.892-2.464,2.618-6.094,2.9-10.1h2.464c-.22,5.456-.462,7.458-.858,7.964a.674.674,0,0,1-.66.286c-.33,0-1.012,0-1.8-.066a4.435,4.435,0,0,1,.528,1.87,11.712,11.712,0,0,0,2.222-.044A1.76,1.76,0,0,0,32.1,30.88c.616-.792.88-3.278,1.122-10.208.022-.264.022-.88.022-.88Zm15.73,5.39V23.334H40.414V20.54h3.872V18.714H37.8c.22-.594.4-1.188.572-1.782l-1.892-.44a12.657,12.657,0,0,1-2.442,5.258,10.126,10.126,0,0,1,1.606,1.056A12.861,12.861,0,0,0,37,20.54h1.474v2.794H34.012v1.848h4.224c-.418,1.76-1.628,3.7-4.906,5.148a7.8,7.8,0,0,1,1.32,1.386,9.956,9.956,0,0,0,4.994-4.774,9.492,9.492,0,0,0,4.268,4.774,6.3,6.3,0,0,1,1.276-1.562A8.382,8.382,0,0,1,40.7,25.182ZM58.3,27.294c0,1.408-.9,1.76-2.134,1.76-1.87,0-2.684-.638-2.684-1.562,0-.9.99-1.606,2.838-1.606a11.37,11.37,0,0,1,1.958.176C58.3,26.568,58.3,26.986,58.3,27.294Zm8.294.682a17.346,17.346,0,0,0-6.226-3.366c-.066-.946-.132-1.98-.154-2.97,2.09-.088,3.894-.22,5.918-.462L66.11,19.11c-1.87.264-3.784.462-5.94.572V16.91c2.068-.088,3.894-.286,5.478-.44l-.022-2a52.878,52.878,0,0,1-5.434.55c0-.44.022-.836.022-1.078.022-.594.088-1.078.132-1.474H58.014a13.769,13.769,0,0,1,.088,1.386v1.232H56.98a33.092,33.092,0,0,1-4.928-.418v2A43.8,43.8,0,0,0,57,17H58.08v2.75H56.958a37.243,37.243,0,0,1-5.368-.418L51.568,21.4c1.518.176,3.982.286,5.368.286h1.188c.022.792.044,1.672.088,2.486-.528-.044-1.056-.088-1.606-.088-3.256,0-5.214,1.452-5.214,3.52,0,2.2,1.782,3.41,5.082,3.41,2.838,0,4.026-1.518,4.026-3.168,0-.308-.022-.682-.022-1.122A16.322,16.322,0,0,1,65.34,29.89ZM87.45,18.56l-1.32.572a20.8,20.8,0,0,1,1.76,3.08l1.364-.616A30.713,30.713,0,0,0,87.45,18.56Zm2.442-.946-1.32.594a20.646,20.646,0,0,1,1.848,3.036l1.342-.66A34.425,34.425,0,0,0,89.892,17.614ZM73.018,15.282l.22,2.4c2.442-.528,7.788-1.056,9.68-1.254a8.63,8.63,0,0,0-3.674,7.062c0,4.8,4.466,7.084,8.734,7.3l.792-2.332c-3.586-.176-7.282-1.474-7.282-5.456a7.2,7.2,0,0,1,4.8-6.534,20.883,20.883,0,0,1,4.246-.308l-.022-2.222c-1.474.044-3.674.176-5.984.374-4,.33-7.9.7-9.482.858C74.6,15.216,73.854,15.26,73.018,15.282Z" transform="translate(978 6174)" fill="#1778b1"/>
      <g id="グループ_187" data-name="グループ 187" transform="translate(956 6105)">
        <rect id="長方形_81" data-name="長方形 81" width="5.753" height="2.685" transform="translate(0 20.015)" fill="#1778b1"/>
        <rect id="長方形_82" data-name="長方形 82" width="5.752" height="2.685" transform="translate(36.964 20.015)" fill="#1778b1"/>
        <path id="パス_84" data-name="パス 84" d="M26.248,338.462l1.343,2.327,4.982-2.877-1.343-2.326Z" transform="translate(-24.058 -307.588)" fill="#1778b1"/>
        <path id="パス_85" data-name="パス 85" d="M416.271,116.383l-1.343-2.326-4.982,2.877,1.343,2.326Z" transform="translate(-375.745 -104.541)" fill="#1778b1"/>
        <path id="パス_86" data-name="パス 86" d="M114.065,414.929l2.326,1.343,2.877-4.982-2.326-1.343Z" transform="translate(-104.549 -375.745)" fill="#1778b1"/>
        <path id="パス_87" data-name="パス 87" d="M340.8,27.591l-2.327-1.343L335.6,31.23l2.326,1.343Z" transform="translate(-307.597 -24.058)" fill="#1778b1"/>
        <rect id="長方形_83" data-name="長方形 83" width="2.685" height="5.752" transform="translate(20.016 36.964)" fill="#1778b1"/>
        <rect id="長方形_84" data-name="長方形 84" width="2.685" height="5.752" transform="translate(20.016 0)" fill="#1778b1"/>
        <path id="パス_88" data-name="パス 88" d="M335.6,411.29l2.875,4.982,2.327-1.343-2.877-4.982Z" transform="translate(-307.597 -375.745)" fill="#1778b1"/>
        <path id="パス_89" data-name="パス 89" d="M119.267,31.23l-2.877-4.982-2.326,1.343,2.877,4.982Z" transform="translate(-104.549 -24.058)" fill="#1778b1"/>
        <path id="パス_90" data-name="パス 90" d="M409.947,337.912l4.982,2.877,1.343-2.327-4.982-2.876Z" transform="translate(-375.745 -307.588)" fill="#1778b1"/>
        <path id="パス_91" data-name="パス 91" d="M32.572,116.934l-4.982-2.877-1.343,2.326,4.982,2.877Z" transform="translate(-24.058 -104.541)" fill="#1778b1"/>
        <path id="パス_92" data-name="パス 92" d="M112.956,99.926a13.021,13.021,0,1,0,13.021,13.021A13.021,13.021,0,0,0,112.956,99.926Z" transform="translate(-91.597 -91.589)" fill="#1778b1"/>
      </g>
    </g>
    <path id="パス_12466" data-name="パス 12466" d="M1.956-8.148H10.08v1.536h.912V-8.976H6.432v-1.056H5.544v1.056H1.08v2.364h.876Zm8.2,2.376a17.864,17.864,0,0,1-2.172,1.6,10.828,10.828,0,0,1-.768-2H9.324v-.768H2.616v.768H5.172A14.476,14.476,0,0,1,1.008-4.512a5.258,5.258,0,0,1,.492.7,18.809,18.809,0,0,0,2.94-1.14c.2.18.384.36.552.54a13.323,13.323,0,0,1-3.9,1.848,3.792,3.792,0,0,1,.48.7,17.072,17.072,0,0,0,3.828-2,4.383,4.383,0,0,1,.42.768A13.718,13.718,0,0,1,.672-.384,4.063,4.063,0,0,1,1.14.36,16.871,16.871,0,0,0,6.084-2.328a2.243,2.243,0,0,1-.4,2.22A1.163,1.163,0,0,1,4.86.12,10.725,10.725,0,0,1,3.744.06,2.1,2.1,0,0,1,4,.912c.384.024.756.036,1.044.024A1.8,1.8,0,0,0,6.312.54c1.176-.816,1.152-3.9-1.14-5.88A8.446,8.446,0,0,0,6.4-6.18H6.42c.744,2.844,2.136,5.124,4.4,6.156a3.828,3.828,0,0,1,.612-.768,6.4,6.4,0,0,1-3.084-2.7,19.283,19.283,0,0,0,2.484-1.692ZM24.324-7.656v-.816H20.04a13.716,13.716,0,0,0,.5-1.392l-.816-.192A8.769,8.769,0,0,1,17.88-6.54a6.855,6.855,0,0,1,.72.492,9.328,9.328,0,0,0,1.056-1.608ZM15.66-5.532c.024-.552.036-1.116.048-1.68h2.7V-8.04h-1.86v-1.98h-.84v1.98H13.524v.828h1.344c-.048,2.9-.2,5.892-1.512,7.548A2.345,2.345,0,0,1,14,.924c1.056-1.344,1.44-3.4,1.608-5.64h1.572c-.132,3.228-.276,4.4-.5,4.692a.38.38,0,0,1-.372.156A9.918,9.918,0,0,1,15.264.084,2.205,2.205,0,0,1,15.5.9a7.751,7.751,0,0,0,1.188,0,.928.928,0,0,0,.72-.384c.336-.432.48-1.764.624-5.628.012-.132.024-.42.024-.42Zm8.664,2.808v-.792H21.852c.012-.144.012-.276.012-.408V-5.28h2.268v-.8H20.376c.132-.36.252-.744.348-1.116l-.816-.192a7.215,7.215,0,0,1-1.368,3,6.028,6.028,0,0,1,.708.468A7.211,7.211,0,0,0,20.04-5.28h.972v1.344c0,.132,0,.276-.012.42H18.468v.792H20.9A4.273,4.273,0,0,1,18.12.3a3.31,3.31,0,0,1,.564.612,5.277,5.277,0,0,0,2.868-2.88A5.226,5.226,0,0,0,24.036.9a3.484,3.484,0,0,1,.576-.684,4.663,4.663,0,0,1-2.568-2.94ZM29.46-9.96a12.331,12.331,0,0,1-3.252,4.812,5.107,5.107,0,0,1,.54.9,12.175,12.175,0,0,0,1.416-1.584V.9h.876V-7.116a17.828,17.828,0,0,0,1.308-2.568Zm7.86,3.828V-7H33.852v-2.88h-.876V-7H29.6v.864h2.9a12.191,12.191,0,0,1-3.324,4.908,5.178,5.178,0,0,1,.672.684,13.4,13.4,0,0,0,3.12-4.62V.924h.876V-5.412A14.568,14.568,0,0,0,36.96-.588a3.2,3.2,0,0,1,.672-.72,12.661,12.661,0,0,1-3.264-4.824ZM50.016-9.5H46.968v.768h2.256v2.16H46.968v.768h3.048ZM41.928-8.412V-5.7h-1.38V-8.412Zm-1.38,6.3v-2.8h1.38v2.8ZM42.672-9.2H39.816V-.372h.732v-.936h2.124Zm3.036.456v2.2H44.244v-2.2ZM46.452-1.5v-.756H44.244V-3.744h2V-4.5h-2V-5.784H46.5V-9.5H43.416V.888h.828V-1.5Zm2.76-2.628a7.693,7.693,0,0,1-.876,2.184,8.453,8.453,0,0,1-.8-2.184Zm.42-.78-.132.024H46.608v.756h.864L46.86-4a10.915,10.915,0,0,0,.984,2.724A5.259,5.259,0,0,1,45.792.252,2.436,2.436,0,0,1,46.248.9a6.14,6.14,0,0,0,2.04-1.464A4.764,4.764,0,0,0,49.836.876a3.215,3.215,0,0,1,.552-.648,4.377,4.377,0,0,1-1.6-1.416,8.709,8.709,0,0,0,1.356-3.576ZM56.184-7.5h2.424v-.816H56.184V-10h-.852v1.68H54.06c.132-.408.252-.852.36-1.272l-.84-.168A9.458,9.458,0,0,1,52.38-6.6a5.234,5.234,0,0,1,.792.336,9.172,9.172,0,0,0,.6-1.236h1.56v1.26H52.416v.816h2.916v1.2H52.968V-.06h.816V-3.408h1.548V.9h.852V-3.408H57.84V-.96c0,.12-.036.156-.168.156s-.516.012-1.032,0a2.725,2.725,0,0,1,.264.78A3.707,3.707,0,0,0,58.3-.168c.3-.144.36-.372.36-.78V-4.224H56.184v-1.2h2.892V-6.24H56.184Zm4.6-1.452h-.84v6.6h.84Zm1.284-.96V-.3c0,.2-.06.252-.252.264s-.876,0-1.584-.024a5.182,5.182,0,0,1,.288.936A5.9,5.9,0,0,0,62.436.7c.36-.156.492-.42.492-1.008v-9.6ZM76.08-8.04v-.816H71.6v-1.176h-.912v1.176h-4.4v3.432c0,1.728-.084,4.152-1.068,5.856a3.449,3.449,0,0,1,.732.5c1.032-1.812,1.176-4.512,1.176-6.36V-8.04ZM73.2-5.964V-4.7H70.3v-1.26Zm.864,1.98v-1.98H76V-6.7H74.064V-7.74H73.2V-6.7H70.3V-7.74h-.852V-6.7H67.536v.732h1.908v1.98ZM73.872-2.5A5.515,5.515,0,0,1,71.844-.972,5.375,5.375,0,0,1,69.9-2.5Zm.744-.768-.156.036H67.68V-2.5h1.848l-.48.18A6.038,6.038,0,0,0,70.932-.6a16.278,16.278,0,0,1-3.7.768,3.083,3.083,0,0,1,.372.744A16.253,16.253,0,0,0,71.832-.12,13.688,13.688,0,0,0,75.78.936,2.645,2.645,0,0,1,76.3.18a15.259,15.259,0,0,1-3.528-.756A5.927,5.927,0,0,0,75.18-2.964Z" transform="translate(252 8283)"/>
    <path id="パス_12463" data-name="パス 12463" d="M-99.252-2.688V-5.064h2.688v2.376Zm7.932,0h-4.344V-5.064h3.516V-5.9h-3.516V-7.728h3.792v-.864h-7.152c.192-.408.384-.84.552-1.26l-.9-.216a10.155,10.155,0,0,1-2.7,4.14,5.523,5.523,0,0,1,.768.564A11.087,11.087,0,0,0-99.48-7.728h2.916V-5.9h-3.576v3.216h-1.968v.864h5.544V.924h.9V-1.824h4.344Zm5.268-4.788a13.282,13.282,0,0,0-2.2-1.764l-.636.636a13.325,13.325,0,0,1,2.16,1.836Zm-.42,3.132c-1.02,1.056-2.1,2.16-2.8,2.808l.576.732c.816-.768,1.812-1.812,2.7-2.772Zm4.488-2.664h2.472a13.188,13.188,0,0,1-.924,2.232c.216.084.552.276.744.36a15.739,15.739,0,0,0,1.32-3.168l-.648-.36-.18.048h-4.836c.216-.624.4-1.272.564-1.944l-.936-.168a11.569,11.569,0,0,1-2.148,4.932,5.317,5.317,0,0,1,.852.5,11.324,11.324,0,0,0,1.332-2.436h1.464V-5.5A6.363,6.363,0,0,1-87.168.192a3.959,3.959,0,0,1,.552.72,6.9,6.9,0,0,0,4.164-4.74,6.782,6.782,0,0,0,3.7,4.74c.144-.216.42-.588.576-.792a6.336,6.336,0,0,1-3.8-5.616Zm14.148,2.76h-5V-5.46h5Zm-5,2.028V-3.468h5V-2.22Zm7.284-5.436V-8.5h-6.108c.18-.432.324-.888.468-1.332l-.888-.216A15.714,15.714,0,0,1-72.612-8.5H-76v.84h3.012a10.031,10.031,0,0,1-3.3,4,4.154,4.154,0,0,1,.564.684,9.689,9.689,0,0,0,2-1.9V.912h.876V-1.452h5V-.2c0,.18-.072.24-.276.252S-69.048.06-69.84.024A3.408,3.408,0,0,1-69.552.9,7.358,7.358,0,0,0-67.464.744c.384-.144.5-.408.5-.948v-6.06h-5.784c.264-.444.5-.924.732-1.392Zm2.844,4.416a8.624,8.624,0,0,1-.78,2.856,3.117,3.117,0,0,1,.7.336A10.561,10.561,0,0,0-61.944-3.1Zm2.472.132a11.767,11.767,0,0,1,.732,2.2l.684-.228a11.125,11.125,0,0,0-.768-2.184Zm-.312-2.808a9.149,9.149,0,0,1,.564,1.08l-1.776.072A41.174,41.174,0,0,0-59.376-8.34l-.756-.336a24.44,24.44,0,0,1-1.212,2.148,9.637,9.637,0,0,0-.7-.78c.444-.672.948-1.62,1.356-2.412l-.78-.312A15.175,15.175,0,0,1-62.544-7.8c-.12-.108-.228-.216-.348-.312l-.456.576a10.7,10.7,0,0,1,1.548,1.7c-.264.4-.54.78-.792,1.1l-.792.036.072.792c.552-.036,1.2-.072,1.884-.108V.936h.792V-4.056l.948-.06a5.584,5.584,0,0,1,.216.7l.672-.3a9.5,9.5,0,0,0-1.128-2.448Zm6.54,2.856V-.576h-3.444V-3.06ZM-58.272.9h.816V.216h3.444V.852h.852V-3.864h-5.112Zm.5-7.02v.828H-53.8V-6.12Zm1.416-3.8a12.021,12.021,0,0,1-3.2,3.888,3.292,3.292,0,0,1,.528.756,13.627,13.627,0,0,0,3.156-3.732,16.981,16.981,0,0,0,3.216,3.66,6.48,6.48,0,0,1,.552-.816,14.536,14.536,0,0,1-3.372-3.756Zm9.012-.036a12.331,12.331,0,0,1-3.252,4.812,5.106,5.106,0,0,1,.54.9,12.175,12.175,0,0,0,1.416-1.584V.9h.876V-7.116a17.827,17.827,0,0,0,1.308-2.568Zm7.86,3.828V-7h-3.468v-2.88h-.876V-7H-47.2v.864h2.9a12.191,12.191,0,0,1-3.324,4.908,5.178,5.178,0,0,1,.672.684,13.4,13.4,0,0,0,3.12-4.62V.924h.876V-5.412A14.568,14.568,0,0,0-39.84-.588a3.2,3.2,0,0,1,.672-.72,12.661,12.661,0,0,1-3.264-4.824Zm12.7-3.372h-3.048v.768h2.256v2.16h-2.256v.768h3.048Zm-8.088,1.092V-5.7h-1.38V-8.412Zm-1.38,6.3v-2.8h1.38v2.8ZM-34.128-9.2h-2.856V-.372h.732v-.936h2.124Zm3.036.456v2.2h-1.464v-2.2Zm.744,7.248v-.756h-2.208V-3.744h2V-4.5h-2V-5.784H-30.3V-9.5h-3.084V.888h.828V-1.5Zm2.76-2.628a7.693,7.693,0,0,1-.876,2.184,8.453,8.453,0,0,1-.8-2.184Zm.42-.78-.132.024h-2.892v.756h.864L-29.94-4a10.915,10.915,0,0,0,.984,2.724A5.259,5.259,0,0,1-31.008.252,2.435,2.435,0,0,1-30.552.9a6.14,6.14,0,0,0,2.04-1.464A4.764,4.764,0,0,0-26.964.876a3.215,3.215,0,0,1,.552-.648,4.377,4.377,0,0,1-1.6-1.416,8.709,8.709,0,0,0,1.356-3.576Zm11.184-3.108a4.769,4.769,0,0,1-.852.564c-.648.372-1.932,1-3.048,1.668A27.3,27.3,0,0,1-21.48-9.3l-.948.384A39.385,39.385,0,0,0-20.7-5.256c-1.272.888-2.052,1.86-2.052,3.084C-22.752-.4-21.132.276-18.9.276a23.322,23.322,0,0,0,3.756-.288v-1.08a17.5,17.5,0,0,1-3.8.408c-1.872,0-2.808-.612-2.808-1.6,0-.9.66-1.68,1.764-2.4A40.032,40.032,0,0,1-16.38-6.636c.348-.18.648-.336.912-.5Zm6.024-1.2a5.241,5.241,0,0,1-.084.84,37.029,37.029,0,0,0-.54,4.992A14.359,14.359,0,0,0-10.128.384l.852-.072C-9.288.192-9.312.024-9.312-.1a2.039,2.039,0,0,1,.06-.528,25.656,25.656,0,0,1,.84-2.628l-.5-.4c-.2.48-.48,1.188-.672,1.728A10.5,10.5,0,0,1-9.7-3.54a29.184,29.184,0,0,1,.588-4.788,5.628,5.628,0,0,1,.2-.8ZM-3.9-1.848c0,.792-.288,1.284-1.3,1.284-.852,0-1.428-.336-1.428-.924,0-.552.612-.948,1.5-.948a3.716,3.716,0,0,1,1.212.192C-3.9-2.1-3.9-1.956-3.9-1.848Zm3.24.588A8.1,8.1,0,0,0-3-2.808c-.048-1-.132-2.184-.144-3.372.708-.048,1.4-.12,2.052-.228v-.936a15.137,15.137,0,0,1-2.052.276c.012-.552.024-1.1.036-1.428A6.732,6.732,0,0,1-3.036-9.2H-4.128a4.857,4.857,0,0,1,.06.72v1.476c-.372.012-.744.024-1.116.024A18.578,18.578,0,0,1-7.2-7.092v.912c.7.036,1.32.072,1.992.072.384,0,.756-.012,1.14-.024.012.984.084,2.124.12,3.036a5.3,5.3,0,0,0-1.1-.108c-1.56,0-2.448.816-2.448,1.812C-7.5-.336-6.624.324-5.028.324A1.8,1.8,0,0,0-2.964-1.62v-.216A9.018,9.018,0,0,1-1.176-.48ZM-61.836,15.312h3.048v2.3h-3.048Zm1.236,4.38c.048-.432.084-.864.108-1.284h2.544v-3.9h-4.716v3.9h1.308c-.12,2.172-.408,4.62-2.04,5.916a2.283,2.283,0,0,1,.612.612A6.919,6.919,0,0,0-60.7,20.5h1.968c-.108,2.364-.228,3.276-.444,3.516a.484.484,0,0,1-.408.132c-.216,0-.78,0-1.368-.06a1.812,1.812,0,0,1,.252.78,11.681,11.681,0,0,0,1.464,0,.946.946,0,0,0,.768-.336c.324-.372.444-1.464.588-4.452,0-.108.012-.384.012-.384Zm4.74-4.3h-.864V22h.864Zm2.052-1.2v9.54c0,.228-.1.3-.312.3s-.984.024-1.824-.012a3.548,3.548,0,0,1,.324.9,7.656,7.656,0,0,0,2.16-.156c.372-.156.54-.432.54-1.032V14.2Zm5.076.72a7.107,7.107,0,0,1-.084.84,33.007,33.007,0,0,0-.528,4.764,14.884,14.884,0,0,0,.432,3.816l.864-.06-.036-.42a2.966,2.966,0,0,1,.06-.528,25.805,25.805,0,0,1,.84-2.664l-.516-.384c-.192.468-.456,1.164-.66,1.7a12.408,12.408,0,0,1-.1-1.632A27.344,27.344,0,0,1-47.88,15.8c.048-.216.156-.6.228-.8Zm2.928,5.76A6.887,6.887,0,0,0-46,22.08c0,1.116.888,1.776,2.88,1.776a15.792,15.792,0,0,0,2.964-.24l-.012-1.008a12.918,12.918,0,0,1-2.94.312c-1.632,0-1.992-.528-1.992-1.068a4.413,4.413,0,0,1,.156-1.092Zm.408-3.78a30.019,30.019,0,0,0,4.872,0v-.984a20.772,20.772,0,0,1-4.884,0Zm16.44,2.856h-5V18.54h5Zm-5,2.028V20.532h5V21.78Zm7.284-5.436V15.5h-6.108c.18-.432.324-.888.468-1.332l-.888-.216a15.712,15.712,0,0,1-.528,1.548h-3.384v.84H-34.1a10.031,10.031,0,0,1-3.3,4,4.154,4.154,0,0,1,.564.684,9.689,9.689,0,0,0,2-1.9v5.784h.876V22.548h5V23.8c0,.18-.072.24-.276.252s-.936.012-1.728-.024a3.408,3.408,0,0,1,.288.876,7.358,7.358,0,0,0,2.088-.156c.384-.144.5-.408.5-.948v-6.06h-5.784c.264-.444.5-.924.732-1.392Zm5.256-2.3a12.331,12.331,0,0,1-3.252,4.812,5.107,5.107,0,0,1,.54.9,12.175,12.175,0,0,0,1.416-1.584V24.9h.876V16.884a17.827,17.827,0,0,0,1.308-2.568Zm7.86,3.828V17h-3.468v-2.88H-17.9V17h-3.372v.864h2.9A12.191,12.191,0,0,1-21.7,22.776a5.177,5.177,0,0,1,.672.684,13.4,13.4,0,0,0,3.12-4.62v6.084h.876V18.588a14.568,14.568,0,0,0,3.108,4.824,3.2,3.2,0,0,1,.672-.72,12.661,12.661,0,0,1-3.264-4.824Zm10.344-.1-.612.264a11.14,11.14,0,0,1,.984,1.692l.612-.288A14.243,14.243,0,0,0-3.216,17.772Zm1.308-.5-.6.276a10.688,10.688,0,0,1,1.02,1.668l.624-.288A18.126,18.126,0,0,0-1.908,17.268ZM-11,16.1l.108,1.056c1.284-.264,4.524-.576,5.568-.7a4.8,4.8,0,0,0-2.208,4.008c0,2.652,2.508,3.828,4.7,3.924l.348-1.008c-1.932-.072-4.092-.8-4.092-3.12a4.155,4.155,0,0,1,2.712-3.756,9.847,9.847,0,0,1,2.328-.192v-.96c-.792.036-1.908.1-3.2.2-2.184.192-4.428.408-5.208.48C-10.176,16.068-10.548,16.092-11,16.1Z" transform="translate(344 8407)"/>
    <g id="グループ_793" data-name="グループ 793" transform="translate(-283 2288)">
      <path id="パス_12358" data-name="パス 12358" d="M19.556-58.271H-1.362L-4.7-47.021q.747-.088,1.428-.132t1.252-.044a21.351,21.351,0,0,1,16.216,6.68q6.372,6.636,6.372,17.007,0,10.723-7.207,17.666T-4.79,1.1q-13.491,0-21.27-12.656l7.734-6.548q3.208,5.449,6.46,7.69a13.878,13.878,0,0,0,7.954,2.2A13.809,13.809,0,0,0,6.416-12.524a15.142,15.142,0,0,0,4.175-10.767A14.394,14.394,0,0,0,6.46-33.926,13.788,13.788,0,0,0-3.867-38.188q-6.9,0-11.909,6.021H-19.16L-8.481-67.852H19.556Z" transform="translate(562 6092)" fill="#1778b1"/>
      <path id="パス_12464" data-name="パス 12464" d="M4.48-3.36V-5.488H6.9V-3.36Zm8.932,0H8.624V-5.488h3.7v-1.54h-3.7v-1.68h4.018v-1.61H4.732a8.938,8.938,0,0,0,.462-1.148L3.5-11.9A10.8,10.8,0,0,1,.56-7.238,12.885,12.885,0,0,1,2-6.16a12.582,12.582,0,0,0,1.9-2.548h3v1.68H2.814V-3.36H.6v1.6H6.9v3H8.624v-3h4.788Z" transform="translate(509 6089)" fill="#1778b1"/>
      <path id="パス_12465" data-name="パス 12465" d="M3.892-1.54V-4.676h6.216V-1.54Zm6.216-7.8v3.01H3.892v-3.01ZM2.17-11.018V1.05H3.892V.14h6.216v.882H11.9v-12.04Zm17.892.9v.742H17.906v-.742Zm-2.156,2.66v-.8h2.156v.8Zm3.71,1.19v-5.054H16.254V1.218h1.652v-7.49Zm2.548-1.162V-8.26H26.39v.826Zm2.226-2.688v.742H24.164v-.742ZM20.93-1.3V-2.17h2.31V-1.3Zm2.31-2.9v.84H20.93V-4.2Zm4.83-7.126H22.582v5.082H26.39V-.77c0,.224-.084.308-.336.308-.182.014-.7.014-1.246,0v-4.97h-5.39V.63H20.93V-.084H24.4a6.164,6.164,0,0,1,.364,1.3A6.049,6.049,0,0,0,27.328.9c.56-.266.742-.756.742-1.652Z" transform="translate(592 6089)" fill="#1778b1"/>
    </g>
    <g id="グループ_794" data-name="グループ 794" transform="translate(205 8267)">
      <rect id="長方形_81-2" data-name="長方形 81" width="5.753" height="2.685" transform="translate(0 20.015)" fill="#1778b1"/>
      <rect id="長方形_82-2" data-name="長方形 82" width="5.752" height="2.685" transform="translate(36.964 20.015)" fill="#1778b1"/>
      <path id="パス_84-2" data-name="パス 84" d="M26.248,338.462l1.343,2.327,4.982-2.877-1.343-2.326Z" transform="translate(-24.058 -307.588)" fill="#1778b1"/>
      <path id="パス_85-2" data-name="パス 85" d="M416.271,116.383l-1.343-2.326-4.982,2.877,1.343,2.326Z" transform="translate(-375.745 -104.541)" fill="#1778b1"/>
      <path id="パス_86-2" data-name="パス 86" d="M114.065,414.929l2.326,1.343,2.877-4.982-2.326-1.343Z" transform="translate(-104.549 -375.745)" fill="#1778b1"/>
      <path id="パス_87-2" data-name="パス 87" d="M340.8,27.591l-2.327-1.343L335.6,31.23l2.326,1.343Z" transform="translate(-307.597 -24.058)" fill="#1778b1"/>
      <rect id="長方形_83-2" data-name="長方形 83" width="2.685" height="5.752" transform="translate(20.016 36.964)" fill="#1778b1"/>
      <rect id="長方形_84-2" data-name="長方形 84" width="2.685" height="5.752" transform="translate(20.016 0)" fill="#1778b1"/>
      <path id="パス_88-2" data-name="パス 88" d="M335.6,411.29l2.875,4.982,2.327-1.343-2.877-4.982Z" transform="translate(-307.597 -375.745)" fill="#1778b1"/>
      <path id="パス_89-2" data-name="パス 89" d="M119.267,31.23l-2.877-4.982-2.326,1.343,2.877,4.982Z" transform="translate(-104.549 -24.058)" fill="#1778b1"/>
      <path id="パス_90-2" data-name="パス 90" d="M409.947,337.912l4.982,2.877,1.343-2.327-4.982-2.876Z" transform="translate(-375.745 -307.588)" fill="#1778b1"/>
      <path id="パス_91-2" data-name="パス 91" d="M32.572,116.934l-4.982-2.877-1.343,2.326,4.982,2.877Z" transform="translate(-24.058 -104.541)" fill="#1778b1"/>
      <path id="パス_92-2" data-name="パス 92" d="M112.956,99.926a13.021,13.021,0,1,0,13.021,13.021A13.021,13.021,0,0,0,112.956,99.926Z" transform="translate(-91.597 -91.589)" fill="#1778b1"/>
    </g>
    <line id="線_113" data-name="線 113" y2="167" transform="translate(188.5 8266.5)" fill="none" stroke="#707070" stroke-width="1"/>
  </g>
</svg>
