<svg xmlns="http://www.w3.org/2000/svg" width="355" height="370" viewBox="0 0 355 370">
  <g id="グループ_971" data-name="グループ 971" transform="translate(-9 -6862)">
    <rect id="長方形_821" data-name="長方形 821" width="355" height="370" transform="translate(9 6862)" fill="#f7f7f7"/>
    <g id="グループ_955" data-name="グループ 955">
      <path id="パス_12468" data-name="パス 12468" d="M11.124-8.3v-.888H.876V-8.3h5.3a13.922,13.922,0,0,1-5.6,5.232,6.137,6.137,0,0,1,.6.78A15.388,15.388,0,0,0,5.52-5.784V.888h.948V-6.984c.3-.444.588-.876.852-1.32ZM6.708-5.724A26.777,26.777,0,0,1,10.752-2.46l.708-.684A27.389,27.389,0,0,0,7.368-6.3Zm10.38-1.032a13.731,13.731,0,0,1-.924,3.972c-.456-.324-.936-.624-1.392-.888.24-.948.492-2.016.732-3.084Zm.372-.852-.156.036h-1.62c.18-.828.348-1.632.492-2.364l-.852-.1c-.132.744-.3,1.6-.492,2.46H13.524v.816h1.14c-.336,1.5-.7,2.976-.984,4.008l.744.384.132-.5c.42.264.84.552,1.236.852A5.277,5.277,0,0,1,13.62.216a3.485,3.485,0,0,1,.552.72,6.38,6.38,0,0,0,2.3-2.412A8.992,8.992,0,0,1,17.7-.276l.54-.708a8.457,8.457,0,0,0-1.368-1.272,15.978,15.978,0,0,0,1.116-5.232Zm7.008,3.384v-.84H21.6V-8.64a18.053,18.053,0,0,0,2.46-.708L23.316-10A26.107,26.107,0,0,1,18-8.808a2.6,2.6,0,0,1,.264.72c.792-.1,1.62-.228,2.436-.372v3.4H17.916v.84H20.7V-.216H18.072v.84h6.192v-.84H21.6V-4.224ZM29.856-8.7a8.784,8.784,0,0,0-2.292-1.26l-.492.672a8.672,8.672,0,0,1,2.256,1.32Zm-.6,3.084a10.106,10.106,0,0,0-2.34-1.116l-.492.684a10.131,10.131,0,0,1,2.316,1.2ZM27.576.756c.7-1.116,1.524-2.6,2.148-3.864l-.66-.576A35.165,35.165,0,0,1,26.82.156Zm7.92-3.8V-.42H31.428V-3.048ZM30.564.924h.864V.4H35.5V.888h.888V-3.876h-5.82ZM34.2-7.836c.456.516.948,1.128,1.38,1.728-1.368.072-2.736.132-3.924.192.576-1.14,1.212-2.64,1.7-3.888l-1.02-.252A26.471,26.471,0,0,1,30.7-5.88l-1.14.048.108.876c1.668-.1,4.092-.216,6.444-.36a7.711,7.711,0,0,1,.552.972l.816-.456a17.624,17.624,0,0,0-2.508-3.42Zm6.72,2.22a9.162,9.162,0,0,0-.792-2.292l-.672.264A9.232,9.232,0,0,1,40.2-5.292ZM50.352-8.16v-.78H45.936v-1.092h-.924V-8.94H41.1v3.852c0,.288,0,.588-.012.9-.7.372-1.332.708-1.8.924l.288.792c.468-.264.96-.552,1.452-.852A6.308,6.308,0,0,1,39.612.324a3.279,3.279,0,0,1,.624.6c1.464-1.644,1.7-4.188,1.7-6.012V-8.16ZM43.776-1.5A5.853,5.853,0,0,1,41.964.192a2.9,2.9,0,0,1,.66.528A7.538,7.538,0,0,0,44.58-1.272Zm3.828.36a10.63,10.63,0,0,1,1.824,1.9l.7-.408a11.253,11.253,0,0,0-1.86-1.836ZM44.592-5a6.749,6.749,0,0,0,1.092-1.368h1.128A7.217,7.217,0,0,0,47.892-5ZM48.12-3.672H44.3v-.744H48.12Zm0,1.32H44.3v-.756H48.12Zm1.308-3.924a10.9,10.9,0,0,1-.912.864,6.537,6.537,0,0,1-.876-.96h2.568V-7.08H46.08A6.688,6.688,0,0,0,46.44-8l-.828-.108a5.656,5.656,0,0,1-.42,1.032H42.48v.708h2.268a5.982,5.982,0,0,1-.78.9,9.225,9.225,0,0,0-.96-.732l-.48.42a7.957,7.957,0,0,1,.936.744,7.371,7.371,0,0,1-1.5.924,1.992,1.992,0,0,1,.552.588,7.6,7.6,0,0,0,1.02-.6v2.364h2.232v1.8c0,.132-.024.156-.192.156s-.66.024-1.248,0a2.513,2.513,0,0,1,.288.732A5.475,5.475,0,0,0,46.224.8c.324-.12.408-.324.408-.744V-1.764h2.292V-4.152a6.573,6.573,0,0,0,1.008.576,3.382,3.382,0,0,1,.528-.636,6.186,6.186,0,0,1-1.476-.816,9.368,9.368,0,0,0,1-.852ZM55.38-9.96a12.331,12.331,0,0,1-3.252,4.812,5.106,5.106,0,0,1,.54.9,12.175,12.175,0,0,0,1.416-1.584V.9h.876V-7.116a17.827,17.827,0,0,0,1.308-2.568Zm7.86,3.828V-7H59.772v-2.88H58.9V-7H55.524v.864h2.9A12.191,12.191,0,0,1,55.1-1.224a5.178,5.178,0,0,1,.672.684A13.4,13.4,0,0,0,58.9-5.16V.924h.876V-5.412A14.568,14.568,0,0,0,62.88-.588a3.2,3.2,0,0,1,.672-.72,12.661,12.661,0,0,1-3.264-4.824ZM75.936-9.5H72.888v.768h2.256v2.16H72.888v.768h3.048ZM67.848-8.412V-5.7h-1.38V-8.412Zm-1.38,6.3v-2.8h1.38v2.8ZM68.592-9.2H65.736V-.372h.732v-.936h2.124Zm3.036.456v2.2H70.164v-2.2ZM72.372-1.5v-.756H70.164V-3.744h2V-4.5h-2V-5.784H72.42V-9.5H69.336V.888h.828V-1.5Zm2.76-2.628a7.693,7.693,0,0,1-.876,2.184,8.453,8.453,0,0,1-.8-2.184Zm.42-.78-.132.024H72.528v.756h.864L72.78-4a10.915,10.915,0,0,0,.984,2.724A5.259,5.259,0,0,1,71.712.252,2.435,2.435,0,0,1,72.168.9a6.14,6.14,0,0,0,2.04-1.464A4.764,4.764,0,0,0,75.756.876a3.215,3.215,0,0,1,.552-.648,4.377,4.377,0,0,1-1.6-1.416,8.709,8.709,0,0,0,1.356-3.576ZM84.66-7.98a.907.907,0,0,0-.9-.9.907.907,0,0,0-.9.9.907.907,0,0,0,.9.9A.907.907,0,0,0,84.66-7.98ZM79.8-8.868l-.348.348,3.96,3.96L79.44-.588l.348.348L83.76-4.212l3.96,3.96L88.068-.6l-3.96-3.96,3.96-3.96-.348-.348-3.96,3.96Zm.54,3.408a.907.907,0,0,0-.9.9.907.907,0,0,0,.9.9.907.907,0,0,0,.9-.9A.907.907,0,0,0,80.34-5.46Zm6.84,1.8a.907.907,0,0,0,.9-.9.907.907,0,0,0-.9-.9.907.907,0,0,0-.9.9A.907.907,0,0,0,87.18-3.66ZM82.86-1.14a.907.907,0,0,0,.9.9.907.907,0,0,0,.9-.9.907.907,0,0,0-.9-.9A.907.907,0,0,0,82.86-1.14Z" transform="translate(83 7054)"/>
      <path id="パス_12469" data-name="パス 12469" d="M3.516-8.448v2.664H1.776V-8.448ZM1.776-2.232V-5h1.74v2.772Zm2.58-7.02H.96v8.8h.816v-.972h2.58Zm.984,6.72A9.256,9.256,0,0,1,6.864-.42L7.62-.9A8.484,8.484,0,0,0,6.06-2.94Zm6.192-2.976V-6.3h-3.1V-7.824h2.58v-.792H8.436v-1.428H7.56v1.428h-2.5v.792h2.5V-6.3H4.548v.792h4.6v1.356H4.608v.792H9.144v3.2c0,.18-.06.228-.264.24S8.028.1,7.284.072A2.725,2.725,0,0,1,7.572.9,6.866,6.866,0,0,0,9.516.756c.36-.132.492-.4.492-.9V-3.36H11.4v-.792H10.008V-5.508Zm6.024-3.324v1H14.964v-1ZM14.964-6.12V-7.176h2.592V-6.12Zm3.444.684V-9.528H14.076V.924h.888v-6.36ZM20.34-3.852v1.116H17.52V-3.852ZM17.52-.9V-2.064h2.82V-.9Zm3.648.708V-4.536H16.716V.408h.8v-.6Zm-.84-5.916V-7.176h2.688v1.068Zm2.688-2.724v1H20.328v-1Zm.9-.7h-4.44v4.1h3.54V-.276c0,.216-.072.288-.276.288S21.792.036,21.06,0a3.287,3.287,0,0,1,.312.912A6.83,6.83,0,0,0,23.388.756c.4-.156.528-.456.528-1.02ZM28.608-3.9V-5.184H31.44V-3.9Zm0-3.276H31.44v1.284H28.608Zm6.708,1.284H32.34V-7.176h2.976Zm0,1.992H32.34V-5.184h2.976ZM37.26-2.052H32.34V-3.144h3.888V-7.932h-1.26c.4-.516.84-1.176,1.212-1.776l-.96-.312a12.546,12.546,0,0,1-1.26,2.088H31.824l.684-.276a8.209,8.209,0,0,0-.984-1.848l-.792.3a7.913,7.913,0,0,1,.924,1.824h-2.58l.612-.312a9.781,9.781,0,0,0-1.224-1.668l-.756.336a9.161,9.161,0,0,1,1.128,1.644h-1.1v4.788H31.44v1.092H26.6v.828H31.44V.924h.9V-1.224h4.92Zm5.568-5.64v.84h7.284v-.84H46.836V-9.9h-.9v2.208Zm2.76,6.456a30.48,30.48,0,0,0-.972-4.812l-.792.144a29.687,29.687,0,0,1,.888,4.86Zm-3.36-8.772a13.185,13.185,0,0,1-3.072,4.7,7.557,7.557,0,0,1,.516.876,12.357,12.357,0,0,0,1.32-1.56V.876h.84V-7.272a18.2,18.2,0,0,0,1.224-2.472ZM47.544-.48a50.219,50.219,0,0,0,1.584-5.508l-.96-.168A39.617,39.617,0,0,1,46.68-.48H42.54V.36h7.872V-.48Zm13.08-5.748-.612.264A11.14,11.14,0,0,1,61-4.272l.612-.288A14.243,14.243,0,0,0,60.624-6.228Zm1.308-.5-.6.276a10.689,10.689,0,0,1,1.02,1.668l.624-.288A18.126,18.126,0,0,0,61.932-6.732ZM52.836-7.9l.108,1.056c1.284-.264,4.524-.576,5.568-.7A4.8,4.8,0,0,0,56.3-3.528C56.3-.876,58.812.3,61.008.4l.348-1.008c-1.932-.072-4.092-.8-4.092-3.12a4.155,4.155,0,0,1,2.712-3.756A9.847,9.847,0,0,1,62.3-7.68v-.96c-.792.036-1.908.1-3.2.2-2.184.192-4.428.408-5.208.48C53.664-7.932,53.292-7.908,52.836-7.9ZM69.528-6.864h-2.34v-1.6h2.34Zm-2.34,3.276h2.34v1.476c-.8.12-1.608.24-2.34.336Zm2.34-.816h-2.34V-6.072h2.34Zm1.7-4.056v-.828h-5.82v.828h.936v6.8c-.432.06-.828.108-1.164.144l.156.9c1.14-.192,2.676-.42,4.188-.672V.888h.864V-8.46Zm4.152.024-.168.036H70.932v.876h4.044a13.166,13.166,0,0,1-1.488,4.488,15.456,15.456,0,0,1-1.476-4.44l-.852.156A16.712,16.712,0,0,0,72.948-2.2a7.321,7.321,0,0,1-2.52,2.22,3.428,3.428,0,0,1,.588.72,8.564,8.564,0,0,0,2.448-2.136A7.507,7.507,0,0,0,75.852.78a3.719,3.719,0,0,1,.636-.732,6.665,6.665,0,0,1-2.472-2.232A14.594,14.594,0,0,0,75.96-8.268Zm12.108.408H83.544v-.96h3.948Zm0,1.62H83.544V-7.38h3.948ZM88.38-9.66h-5.7v3.936h5.7ZM80.8-10a9.2,9.2,0,0,1-2.544,2.448,3.889,3.889,0,0,1,.468.72,12,12,0,0,0,2.928-2.844Zm.216,2.616A11.262,11.262,0,0,1,78.06-4.14a5.589,5.589,0,0,1,.468.852,11.583,11.583,0,0,0,1.4-1.3v5.5h.876v-6.5a13.714,13.714,0,0,0,.984-1.476ZM82.7-1.752A10.755,10.755,0,0,1,84.18-.012l.684-.48A10.562,10.562,0,0,0,83.34-2.16Zm6.456-1.38H87.372v-1.02h1.572V-4.92h-7v.768h4.536v1.02H81.672v.768h4.812v2.28c0,.156-.048.2-.24.216-.168.012-.768.012-1.44-.012a3.015,3.015,0,0,1,.288.816A6.146,6.146,0,0,0,86.916.792c.348-.144.456-.372.456-.852v-2.3H89.16ZM99.5-6.228l-.612.264a11.14,11.14,0,0,1,.984,1.692l.612-.288A14.243,14.243,0,0,0,99.5-6.228Zm1.308-.5-.6.276a10.689,10.689,0,0,1,1.02,1.668l.624-.288A18.128,18.128,0,0,0,100.812-6.732ZM91.716-7.9l.108,1.056c1.284-.264,4.524-.576,5.568-.7a4.8,4.8,0,0,0-2.208,4.008C95.184-.876,97.692.3,99.888.4l.348-1.008c-1.932-.072-4.092-.8-4.092-3.12a4.155,4.155,0,0,1,2.712-3.756,9.846,9.846,0,0,1,2.328-.192v-.96c-.792.036-1.908.1-3.2.2-2.184.192-4.428.408-5.208.48C92.544-7.932,92.172-7.908,91.716-7.9Zm14.5,4.68a5.366,5.366,0,0,0-.276,1.488c0,1.488,1.248,2.22,3.372,2.22a18.406,18.406,0,0,0,2.868-.228l.024-.972a14.272,14.272,0,0,1-2.928.276c-1.692,0-2.412-.576-2.412-1.488a4.065,4.065,0,0,1,.276-1.212Zm7.572-3.252a12.392,12.392,0,0,1-2.2.588c-.2-.444-.372-.816-.468-1.068L110.9-7.44a16.414,16.414,0,0,0,2.208-.5l-.168-.852a13.376,13.376,0,0,1-2.364.564,12.206,12.206,0,0,1-.444-1.32l-1.08.228a8.566,8.566,0,0,1,.444.84c.048.108.1.228.156.36a21.609,21.609,0,0,1-3.888-.1l.06.876A24.367,24.367,0,0,0,110-7.32c.084.192.168.408.264.612l.42.972a23.724,23.724,0,0,1-4.992.024l.036.876a28.568,28.568,0,0,0,5.316-.108c.276.624.552,1.248.78,1.716-.372-.036-.936-.1-1.512-.168l-.084.732c.756.1,1.716.228,2.316.336l.468-.588c-.336-.624-.72-1.428-1.068-2.184a15.829,15.829,0,0,0,2.016-.5ZM122.628-.4c-.888,0-1.572-.336-1.572-.924,0-.408.408-.732.948-.732a1.587,1.587,0,0,1,1.572,1.584A5.853,5.853,0,0,1,122.628-.4Zm2.448-8.628a4.255,4.255,0,0,1-.648.1c-.624.06-3.444.144-4.056.144a6.747,6.747,0,0,1-.84-.036l.024,1a5.721,5.721,0,0,1,.8-.072c.612-.036,2.952-.144,3.576-.168-.588.528-2.064,1.776-2.724,2.328-.7.576-2.22,1.848-3.2,2.664l.7.708c1.512-1.536,2.592-2.364,4.548-2.364,1.5,0,2.676.852,2.676,2.016A2.072,2.072,0,0,1,124.452-.7,2.346,2.346,0,0,0,122-2.8a1.688,1.688,0,0,0-1.836,1.56c0,.984,1,1.7,2.616,1.7,2.508,0,4.1-1.248,4.1-3.168,0-1.608-1.428-2.808-3.408-2.808a5.049,5.049,0,0,0-1.608.252c.912-.768,2.508-2.172,3.1-2.616.18-.132.444-.312.66-.456Z" transform="translate(44 7190)"/>
      <path id="パス_12474" data-name="パス 12474" d="M11.124-8.3v-.888H.876V-8.3h5.3a13.922,13.922,0,0,1-5.6,5.232,6.137,6.137,0,0,1,.6.78A15.388,15.388,0,0,0,5.52-5.784V.888h.948V-6.984c.3-.444.588-.876.852-1.32ZM6.708-5.724A26.777,26.777,0,0,1,10.752-2.46l.708-.684A27.389,27.389,0,0,0,7.368-6.3Zm10.38-1.032a13.731,13.731,0,0,1-.924,3.972c-.456-.324-.936-.624-1.392-.888.24-.948.492-2.016.732-3.084Zm.372-.852-.156.036h-1.62c.18-.828.348-1.632.492-2.364l-.852-.1c-.132.744-.3,1.6-.492,2.46H13.524v.816h1.14c-.336,1.5-.7,2.976-.984,4.008l.744.384.132-.5c.42.264.84.552,1.236.852A5.277,5.277,0,0,1,13.62.216a3.485,3.485,0,0,1,.552.72,6.38,6.38,0,0,0,2.3-2.412A8.992,8.992,0,0,1,17.7-.276l.54-.708a8.457,8.457,0,0,0-1.368-1.272,15.978,15.978,0,0,0,1.116-5.232Zm7.008,3.384v-.84H21.6V-8.64a18.053,18.053,0,0,0,2.46-.708L23.316-10A26.107,26.107,0,0,1,18-8.808a2.6,2.6,0,0,1,.264.72c.792-.1,1.62-.228,2.436-.372v3.4H17.916v.84H20.7V-.216H18.072v.84h6.192v-.84H21.6V-4.224ZM29.856-8.7a8.784,8.784,0,0,0-2.292-1.26l-.492.672a8.672,8.672,0,0,1,2.256,1.32Zm-.6,3.084a10.106,10.106,0,0,0-2.34-1.116l-.492.684a10.131,10.131,0,0,1,2.316,1.2ZM27.576.756c.7-1.116,1.524-2.6,2.148-3.864l-.66-.576A35.165,35.165,0,0,1,26.82.156Zm7.92-3.8V-.42H31.428V-3.048ZM30.564.924h.864V.4H35.5V.888h.888V-3.876h-5.82ZM34.2-7.836c.456.516.948,1.128,1.38,1.728-1.368.072-2.736.132-3.924.192.576-1.14,1.212-2.64,1.7-3.888l-1.02-.252A26.471,26.471,0,0,1,30.7-5.88l-1.14.048.108.876c1.668-.1,4.092-.216,6.444-.36a7.711,7.711,0,0,1,.552.972l.816-.456a17.624,17.624,0,0,0-2.508-3.42Zm6.72,2.22a9.162,9.162,0,0,0-.792-2.292l-.672.264A9.232,9.232,0,0,1,40.2-5.292ZM50.352-8.16v-.78H45.936v-1.092h-.924V-8.94H41.1v3.852c0,.288,0,.588-.012.9-.7.372-1.332.708-1.8.924l.288.792c.468-.264.96-.552,1.452-.852A6.308,6.308,0,0,1,39.612.324a3.279,3.279,0,0,1,.624.6c1.464-1.644,1.7-4.188,1.7-6.012V-8.16ZM43.776-1.5A5.853,5.853,0,0,1,41.964.192a2.9,2.9,0,0,1,.66.528A7.538,7.538,0,0,0,44.58-1.272Zm3.828.36a10.63,10.63,0,0,1,1.824,1.9l.7-.408a11.253,11.253,0,0,0-1.86-1.836ZM44.592-5a6.749,6.749,0,0,0,1.092-1.368h1.128A7.217,7.217,0,0,0,47.892-5ZM48.12-3.672H44.3v-.744H48.12Zm0,1.32H44.3v-.756H48.12Zm1.308-3.924a10.9,10.9,0,0,1-.912.864,6.537,6.537,0,0,1-.876-.96h2.568V-7.08H46.08A6.688,6.688,0,0,0,46.44-8l-.828-.108a5.656,5.656,0,0,1-.42,1.032H42.48v.708h2.268a5.982,5.982,0,0,1-.78.9,9.225,9.225,0,0,0-.96-.732l-.48.42a7.957,7.957,0,0,1,.936.744,7.371,7.371,0,0,1-1.5.924,1.992,1.992,0,0,1,.552.588,7.6,7.6,0,0,0,1.02-.6v2.364h2.232v1.8c0,.132-.024.156-.192.156s-.66.024-1.248,0a2.513,2.513,0,0,1,.288.732A5.475,5.475,0,0,0,46.224.8c.324-.12.408-.324.408-.744V-1.764h2.292V-4.152a6.573,6.573,0,0,0,1.008.576,3.382,3.382,0,0,1,.528-.636,6.186,6.186,0,0,1-1.476-.816,9.368,9.368,0,0,0,1-.852ZM55.38-9.96a12.331,12.331,0,0,1-3.252,4.812,5.106,5.106,0,0,1,.54.9,12.175,12.175,0,0,0,1.416-1.584V.9h.876V-7.116a17.827,17.827,0,0,0,1.308-2.568Zm7.86,3.828V-7H59.772v-2.88H58.9V-7H55.524v.864h2.9A12.191,12.191,0,0,1,55.1-1.224a5.178,5.178,0,0,1,.672.684A13.4,13.4,0,0,0,58.9-5.16V.924h.876V-5.412A14.568,14.568,0,0,0,62.88-.588a3.2,3.2,0,0,1,.672-.72,12.661,12.661,0,0,1-3.264-4.824Zm9.348-1.02A10.971,10.971,0,0,1,71.976-5.9l.12.036h-2.82l.384-.084a4.663,4.663,0,0,0-.6-1.2Zm3.444,5.22v-.756H71.22v-.888h3.756V-4.26H71.22v-.876h4.344v-.732H72.84c.24-.36.5-.828.744-1.284h2.4V-7.92h-1.86A16.778,16.778,0,0,0,75.18-9.648l-.912-.24a13.615,13.615,0,0,1-.912,1.824l.444.144H72.348v-2.124h-.84V-7.92H70.08v-2.124h-.828V-7.92H67.776l.612-.228a8.271,8.271,0,0,0-1.02-1.764l-.756.252a9.354,9.354,0,0,1,.948,1.74H65.652v.768H68.58l-.42.084a5.039,5.039,0,0,1,.588,1.2H66.132v.732h4.212v.876H66.732v.684h3.612v.888H65.6v.756h3.924a11.565,11.565,0,0,1-4.236,1.9,3.822,3.822,0,0,1,.576.756,12.059,12.059,0,0,0,4.476-2.364V.912h.876V-1.7A11.328,11.328,0,0,0,75.732.756a3.209,3.209,0,0,1,.6-.792,10.979,10.979,0,0,1-4.284-1.9Z" transform="translate(262 7054)"/>
      <g id="グループ_758" data-name="グループ 758" transform="translate(-452 1059)">
        <path id="パス_12358" data-name="パス 12358" d="M19.556-58.271H-1.362L-4.7-47.021q.747-.088,1.428-.132t1.252-.044a21.351,21.351,0,0,1,16.216,6.68q6.372,6.636,6.372,17.007,0,10.723-7.207,17.666T-4.79,1.1q-13.491,0-21.27-12.656l7.734-6.548q3.208,5.449,6.46,7.69a13.878,13.878,0,0,0,7.954,2.2A13.809,13.809,0,0,0,6.416-12.524a15.142,15.142,0,0,0,4.175-10.767A14.394,14.394,0,0,0,6.46-33.926,13.788,13.788,0,0,0-3.867-38.188q-6.9,0-11.909,6.021H-19.16L-8.481-67.852H19.556Z" transform="translate(562 6092)" fill="#1778b1"/>
        <path id="パス_12470" data-name="パス 12470" d="M4.48-3.36V-5.488H6.9V-3.36Zm8.932,0H8.624V-5.488h3.7v-1.54h-3.7v-1.68h4.018v-1.61H4.732a8.938,8.938,0,0,0,.462-1.148L3.5-11.9A10.8,10.8,0,0,1,.56-7.238,12.885,12.885,0,0,1,2-6.16a12.582,12.582,0,0,0,1.9-2.548h3v1.68H2.814V-3.36H.6v1.6H6.9v3H8.624v-3h4.788Z" transform="translate(509 6089)" fill="#1778b1"/>
        <path id="パス_12471" data-name="パス 12471" d="M3.892-1.54V-4.676h6.216V-1.54Zm6.216-7.8v3.01H3.892v-3.01ZM2.17-11.018V1.05H3.892V.14h6.216v.882H11.9v-12.04Zm17.892.9v.742H17.906v-.742Zm-2.156,2.66v-.8h2.156v.8Zm3.71,1.19v-5.054H16.254V1.218h1.652v-7.49Zm2.548-1.162V-8.26H26.39v.826Zm2.226-2.688v.742H24.164v-.742ZM20.93-1.3V-2.17h2.31V-1.3Zm2.31-2.9v.84H20.93V-4.2Zm4.83-7.126H22.582v5.082H26.39V-.77c0,.224-.084.308-.336.308-.182.014-.7.014-1.246,0v-4.97h-5.39V.63H20.93V-.084H24.4a6.164,6.164,0,0,1,.364,1.3A6.049,6.049,0,0,0,27.328.9c.56-.266.742-.756.742-1.652Z" transform="translate(592 6089)" fill="#1778b1"/>
      </g>
      <g id="グループ_759" data-name="グループ 759" transform="translate(-277 1059)">
        <path id="パス_12357" data-name="パス 12357" d="M-4.482-31.509v-8.745q6.5,0,8.745-1.45,4-2.549,4-8.174a9.265,9.265,0,0,0-2.9-7.075,10.222,10.222,0,0,0-7.427-2.769,9.609,9.609,0,0,0-6.592,2.065Q-10.9-55.547-12-50.537h-10.2q1.582-9.58,6.5-14.041t13.755-4.46q8.921,0,14.546,5.273a17.588,17.588,0,0,1,5.625,13.491,16.718,16.718,0,0,1-7.383,14.5q8.438,4.966,8.438,16.128A19.616,19.616,0,0,1,13.14-4.7Q6.987,1.1-2.637,1.1-14.9,1.1-20.83-7.91q-2.461-3.779-3.12-10.459h9.888a12.023,12.023,0,0,0,3.845,7.537A11.836,11.836,0,0,0-2.241-8.218a11.06,11.06,0,0,0,8.218-3.3,11.866,11.866,0,0,0,3.252-8.569q0-6.855-4.878-9.756Q1.494-31.509-4.482-31.509Z" transform="translate(572 6092)" fill="#1778b1"/>
        <path id="パス_12472" data-name="パス 12472" d="M9.94-9.772H4v-.574H9.94Zm0,1.6H4v-.588H9.94Zm1.666-3.234h-9.2v4.3h9.2Zm-.8,7.924a5.862,5.862,0,0,1-.952,1.372,5.42,5.42,0,0,1-.938-1.372ZM3.388-1.82h1.82v.546c-.616.056-1.232.1-1.82.14Zm0-1.736h1.82v.588H3.388Zm1.82-1.722v.56H3.388v-.56Zm6.58.462-.28.056H7.154v1.274H8.442l-.924.252A8.574,8.574,0,0,0,8.792-1.162,7.188,7.188,0,0,1,6.8-.154V-5.278h6.412V-6.594H.77v1.316H1.862v4.256c-.434.042-.854.056-1.218.084L.77.49C2,.378,3.6.238,5.208.084V1.218H6.8V.084A6.189,6.189,0,0,1,7.546,1.2,9.122,9.122,0,0,0,9.926-.1a7.843,7.843,0,0,0,2.6,1.3,6.9,6.9,0,0,1,.98-1.3,7.827,7.827,0,0,1-2.464-1.036,8.346,8.346,0,0,0,1.764-3.29ZM28.336-6.384V-8.106h-5.5c.14-1.3.154-2.59.168-3.738h-1.82c-.014,1.148,0,2.422-.14,3.738h-5.1v1.722h4.816A8.393,8.393,0,0,1,15.68-.224,4.933,4.933,0,0,1,16.926,1.19a9.636,9.636,0,0,0,5.236-5.95,10.443,10.443,0,0,0,5.25,5.936A6.7,6.7,0,0,1,28.644-.392a9.342,9.342,0,0,1-5.236-5.992Z" transform="translate(509 6089)" fill="#1778b1"/>
        <path id="パス_12473" data-name="パス 12473" d="M4.48-3.36V-5.488H6.9V-3.36Zm8.932,0H8.624V-5.488h3.7v-1.54h-3.7v-1.68h4.018v-1.61H4.732a8.938,8.938,0,0,0,.462-1.148L3.5-11.9A10.8,10.8,0,0,1,.56-7.238,12.885,12.885,0,0,1,2-6.16a12.582,12.582,0,0,0,1.9-2.548h3v1.68H2.814V-3.36H.6v1.6H6.9v3H8.624v-3h4.788Z" transform="translate(602 6089)" fill="#1778b1"/>
      </g>
      <g id="グループ_761" data-name="グループ 761" transform="translate(29 7038)">
        <rect id="長方形_81" data-name="長方形 81" width="5.753" height="2.685" transform="translate(0 20.015)" fill="#1778b1"/>
        <rect id="長方形_82" data-name="長方形 82" width="5.752" height="2.685" transform="translate(36.964 20.015)" fill="#1778b1"/>
        <path id="パス_84" data-name="パス 84" d="M26.248,338.462l1.343,2.327,4.982-2.877-1.343-2.326Z" transform="translate(-24.058 -307.588)" fill="#1778b1"/>
        <path id="パス_85" data-name="パス 85" d="M416.271,116.383l-1.343-2.326-4.982,2.877,1.343,2.326Z" transform="translate(-375.745 -104.541)" fill="#1778b1"/>
        <path id="パス_86" data-name="パス 86" d="M114.065,414.929l2.326,1.343,2.877-4.982-2.326-1.343Z" transform="translate(-104.549 -375.745)" fill="#1778b1"/>
        <path id="パス_87" data-name="パス 87" d="M340.8,27.591l-2.327-1.343L335.6,31.23l2.326,1.343Z" transform="translate(-307.597 -24.058)" fill="#1778b1"/>
        <rect id="長方形_83" data-name="長方形 83" width="2.685" height="5.752" transform="translate(20.016 36.964)" fill="#1778b1"/>
        <rect id="長方形_84" data-name="長方形 84" width="2.685" height="5.752" transform="translate(20.016 0)" fill="#1778b1"/>
        <path id="パス_88" data-name="パス 88" d="M335.6,411.29l2.875,4.982,2.327-1.343-2.877-4.982Z" transform="translate(-307.597 -375.745)" fill="#1778b1"/>
        <path id="パス_89" data-name="パス 89" d="M119.267,31.23l-2.877-4.982-2.326,1.343,2.877,4.982Z" transform="translate(-104.549 -24.058)" fill="#1778b1"/>
        <path id="パス_90" data-name="パス 90" d="M409.947,337.912l4.982,2.877,1.343-2.327-4.982-2.876Z" transform="translate(-375.745 -307.588)" fill="#1778b1"/>
        <path id="パス_91" data-name="パス 91" d="M32.572,116.934l-4.982-2.877-1.343,2.326,4.982,2.877Z" transform="translate(-24.058 -104.541)" fill="#1778b1"/>
        <path id="パス_92" data-name="パス 92" d="M112.956,99.926a13.021,13.021,0,1,0,13.021,13.021A13.021,13.021,0,0,0,112.956,99.926Z" transform="translate(-91.597 -91.589)" fill="#1778b1"/>
      </g>
      <g id="グループ_763" data-name="グループ 763" transform="translate(204 7038)">
        <rect id="長方形_81-2" data-name="長方形 81" width="5.753" height="2.685" transform="translate(0 20.015)" fill="#1778b1"/>
        <rect id="長方形_82-2" data-name="長方形 82" width="5.752" height="2.685" transform="translate(36.964 20.015)" fill="#1778b1"/>
        <path id="パス_84-2" data-name="パス 84" d="M26.248,338.462l1.343,2.327,4.982-2.877-1.343-2.326Z" transform="translate(-24.058 -307.588)" fill="#1778b1"/>
        <path id="パス_85-2" data-name="パス 85" d="M416.271,116.383l-1.343-2.326-4.982,2.877,1.343,2.326Z" transform="translate(-375.745 -104.541)" fill="#1778b1"/>
        <path id="パス_86-2" data-name="パス 86" d="M114.065,414.929l2.326,1.343,2.877-4.982-2.326-1.343Z" transform="translate(-104.549 -375.745)" fill="#1778b1"/>
        <path id="パス_87-2" data-name="パス 87" d="M340.8,27.591l-2.327-1.343L335.6,31.23l2.326,1.343Z" transform="translate(-307.597 -24.058)" fill="#1778b1"/>
        <rect id="長方形_83-2" data-name="長方形 83" width="2.685" height="5.752" transform="translate(20.016 36.964)" fill="#1778b1"/>
        <rect id="長方形_84-2" data-name="長方形 84" width="2.685" height="5.752" transform="translate(20.016 0)" fill="#1778b1"/>
        <path id="パス_88-2" data-name="パス 88" d="M335.6,411.29l2.875,4.982,2.327-1.343-2.877-4.982Z" transform="translate(-307.597 -375.745)" fill="#1778b1"/>
        <path id="パス_89-2" data-name="パス 89" d="M119.267,31.23l-2.877-4.982-2.326,1.343,2.877,4.982Z" transform="translate(-104.549 -24.058)" fill="#1778b1"/>
        <path id="パス_90-2" data-name="パス 90" d="M409.947,337.912l4.982,2.877,1.343-2.327-4.982-2.876Z" transform="translate(-375.745 -307.588)" fill="#1778b1"/>
        <path id="パス_91-2" data-name="パス 91" d="M32.572,116.934l-4.982-2.877-1.343,2.326,4.982,2.877Z" transform="translate(-24.058 -104.541)" fill="#1778b1"/>
        <path id="パス_92-2" data-name="パス 92" d="M112.956,99.926a13.021,13.021,0,1,0,13.021,13.021A13.021,13.021,0,0,0,112.956,99.926Z" transform="translate(-91.597 -91.589)" fill="#1778b1"/>
      </g>
      <g id="グループ_765" data-name="グループ 765" transform="translate(130 6891.901)">
        <path id="パス_171" data-name="パス 171" d="M113.181,34.146A18.6,18.6,0,0,0,96.047,22.787H80.321V18.551A16.449,16.449,0,0,0,63.869,2.1H50.775A16.449,16.449,0,0,0,34.323,18.551v4.236H18.6A18.592,18.592,0,0,0,0,41.385V97.206a18.6,18.6,0,0,0,18.6,18.6H96.047a18.6,18.6,0,0,0,18.6-18.6V41.385A18.541,18.541,0,0,0,113.181,34.146ZM42.705,18.551a8.021,8.021,0,0,1,.633-3.141,8.126,8.126,0,0,1,2.929-3.554,8.018,8.018,0,0,1,4.508-1.375H63.869a8.011,8.011,0,0,1,3.139.633,8.1,8.1,0,0,1,3.554,2.929,7.987,7.987,0,0,1,1.375,4.508v4.236H42.705Zm63.556,78.655a10.131,10.131,0,0,1-.8,3.975,10.283,10.283,0,0,1-3.7,4.5,10.155,10.155,0,0,1-5.708,1.743H18.6a10.146,10.146,0,0,1-3.975-.8,10.252,10.252,0,0,1-4.5-3.706,10.14,10.14,0,0,1-1.743-5.707V54.617h97.88V97.206Zm0-49.4H8.382V41.385A10.215,10.215,0,0,1,18.6,31.17H96.047a10.213,10.213,0,0,1,10.215,10.215v6.42Z" transform="translate(0 0)" fill="#1778b1"/>
        <path id="パス_172" data-name="パス 172" d="M186.968,308.993h13.009V296.852h12.142V283.843H199.977V271.7H186.968v12.14H174.826v13.009h12.142Z" transform="translate(-135.68 -209.236)" fill="#1778b1"/>
      </g>
      <line id="線_103" data-name="線 103" y2="156" transform="translate(188.5 7038.5)" fill="none" stroke="#707070" stroke-width="1"/>
    </g>
  </g>
</svg>
