<svg xmlns="http://www.w3.org/2000/svg" width="181.68" height="56.75" viewBox="0 0 181.68 56.75">
  <path id="パス_12383" data-name="パス 12383" d="M-91.395-20.01-85.425,0h5.28l3.84-11.58L-72.675,0h5.31l6.39-20.01H-66.4l-3.78,12.93-3.93-12.93h-4.14l-4.23,12.93-3.48-12.93Zm44.85,10.23a3.3,3.3,0,0,1,2.13.87,3.257,3.257,0,0,1,.93,2.19,2.959,2.959,0,0,1-.93,2.13,3.051,3.051,0,0,1-2.13.9,3.067,3.067,0,0,1-2.16-.9,3.1,3.1,0,0,1-.93-2.13,3.093,3.093,0,0,1,.93-2.19A3.317,3.317,0,0,1-46.545-9.78Zm8.04,3.06a6.628,6.628,0,0,0-2.07-4.92,8.471,8.471,0,0,0-6-2.22,8.373,8.373,0,0,0-5.97,2.22,6.628,6.628,0,0,0-2.07,4.92,6.692,6.692,0,0,0,2.07,4.95A8.04,8.04,0,0,0-46.575.45a8.046,8.046,0,0,0,6-2.22A6.692,6.692,0,0,0-38.5-6.72ZM-29.745,0h4.8V-5.73a4.047,4.047,0,0,1,1.08-3.06,3.145,3.145,0,0,1,2.19-.72,4.234,4.234,0,0,1,2.07.48v-4.53c-.63-.03-.84-.06-.96-.06a5.236,5.236,0,0,0-2.49.54,4.327,4.327,0,0,0-1.89,1.86v-2.19h-4.8Zm18.27-21.87V0h4.8V-5.49L-1.785,0h6.66l-6.84-7.23,6.33-6.18h-6.51l-4.53,4.83V-21.87ZM26-20.01V0h11.43V-4.41h-6.24v-15.6Zm19.65,6.6V0h4.8V-13.41Zm-.3-5.58a2.689,2.689,0,0,0,2.7,2.7,2.689,2.689,0,0,0,2.7-2.7,2.689,2.689,0,0,0-2.7-2.7A2.689,2.689,0,0,0,45.345-18.99Zm22.89,9.51v-3.93h-3.36V-15.3a3.549,3.549,0,0,1,.54-2.25,1.726,1.726,0,0,1,1.35-.51,3.012,3.012,0,0,1,1.5.45v-4.14a6.092,6.092,0,0,0-2.31-.45,5.581,5.581,0,0,0-4.65,2.13,6.9,6.9,0,0,0-1.23,4.41v2.25H58.4v3.93h1.68V0h4.8V-9.48Zm22.05,3.15a7.508,7.508,0,0,0-2.13-5.64A7.346,7.346,0,0,0,83-13.8a7.551,7.551,0,0,0-5.49,1.95A7.157,7.157,0,0,0,75.5-6.66a7.023,7.023,0,0,0,1.98,5.07A7.605,7.605,0,0,0,83.025.45c2.91,0,4.47-.9,5.46-1.86a6.028,6.028,0,0,0,1.62-2.76h-4.59a2.234,2.234,0,0,1-.84.9,3.787,3.787,0,0,1-1.56.36,2.7,2.7,0,0,1-1.98-.66,3.387,3.387,0,0,1-.84-2.25h9.99Zm-9.84-2.25a2.737,2.737,0,0,1,.72-1.44,2.579,2.579,0,0,1,1.95-.72,2.8,2.8,0,0,1,1.98.72,3.218,3.218,0,0,1,.78,1.44ZM-63.045,34.1a7.516,7.516,0,0,0,5.43-1.89,5.431,5.431,0,0,0,1.47-3.93,5.033,5.033,0,0,0-1.35-3.66,4.975,4.975,0,0,0-2.73-1.2,3.151,3.151,0,0,0,1.62-1.56,5.186,5.186,0,0,0,.57-2.46,5.413,5.413,0,0,0-1.23-3.75,5.612,5.612,0,0,0-4.38-1.56h-7.74V34.1Zm-3.15-16.02h.96a2.755,2.755,0,0,1,1.98.6,2.057,2.057,0,0,1,.48,1.35,1.939,1.939,0,0,1-.48,1.32,2.742,2.742,0,0,1-1.98.63h-.96Zm0,7.77h1.08c1.29,0,2.58.03,3.21.66a2.034,2.034,0,0,1,.51,1.44,1.947,1.947,0,0,1-.42,1.29c-.57.66-1.77.81-3.21.81h-1.17Zm29.28-3.87a5.307,5.307,0,0,0-4.02-1.74,6.9,6.9,0,0,0-4.83,1.89,7.419,7.419,0,0,0-2.07,5.37,6.765,6.765,0,0,0,1.92,4.92,6.422,6.422,0,0,0,4.83,2.13,5.009,5.009,0,0,0,4.17-1.92V34.1h4.8V20.69h-4.8Zm-2.94,2.34a3.073,3.073,0,0,1,2.16.87,2.966,2.966,0,0,1,.93,2.19,2.912,2.912,0,0,1-.9,2.16,3.078,3.078,0,0,1-2.16.93,3.37,3.37,0,0,1-2.16-.9,3.093,3.093,0,0,1-.93-2.19,3.138,3.138,0,0,1,.96-2.19A3.067,3.067,0,0,1-39.855,24.32Zm17.04-12.09V34.1h4.8V12.23Zm24.45,9.75a5.307,5.307,0,0,0-4.02-1.74,6.9,6.9,0,0,0-4.83,1.89,7.419,7.419,0,0,0-2.07,5.37,6.765,6.765,0,0,0,1.92,4.92,6.422,6.422,0,0,0,4.83,2.13,5.009,5.009,0,0,0,4.17-1.92V34.1h4.8V20.69h-4.8Zm-2.94,2.34a3.073,3.073,0,0,1,2.16.87,2.966,2.966,0,0,1,.93,2.19,2.912,2.912,0,0,1-.9,2.16,3.078,3.078,0,0,1-2.16.93,3.37,3.37,0,0,1-2.16-.9,3.093,3.093,0,0,1-.93-2.19,3.138,3.138,0,0,1,.96-2.19A3.067,3.067,0,0,1-1.305,24.32Zm17.04,9.78h4.8V26.9a3.084,3.084,0,0,1,.78-2.13,2.627,2.627,0,0,1,1.77-.63,2.01,2.01,0,0,1,1.53.57,3.85,3.85,0,0,1,.6,2.61V34.1h4.8V25.58a4.622,4.622,0,0,0-1.26-3.75,5.423,5.423,0,0,0-3.96-1.44,5.057,5.057,0,0,0-4.26,1.98V20.69h-4.8Zm33.69-4.32a3.631,3.631,0,0,1-2.46.9,3.258,3.258,0,0,1-2.46-1.02,3.444,3.444,0,0,1-.84-2.25,3.264,3.264,0,0,1,.93-2.31,3.146,3.146,0,0,1,2.34-.93,4.278,4.278,0,0,1,2.49.87V21.02a6.881,6.881,0,0,0-3.12-.75,7.735,7.735,0,0,0-5.4,2.04,7.3,7.3,0,0,0-2.16,5.19,7.018,7.018,0,0,0,2.07,5.01,7.406,7.406,0,0,0,5.28,2.04,7.12,7.12,0,0,0,3.33-.75Zm22.95-2.01a7.508,7.508,0,0,0-2.13-5.64,7.346,7.346,0,0,0-5.16-1.83,7.551,7.551,0,0,0-5.49,1.95,7.157,7.157,0,0,0-2.01,5.19,7.023,7.023,0,0,0,1.98,5.07,7.605,7.605,0,0,0,5.55,2.04c2.91,0,4.47-.9,5.46-1.86a6.028,6.028,0,0,0,1.62-2.76h-4.59a2.234,2.234,0,0,1-.84.9,3.787,3.787,0,0,1-1.56.36,2.7,2.7,0,0,1-1.98-.66,3.387,3.387,0,0,1-.84-2.25h9.99Zm-9.84-2.25a2.737,2.737,0,0,1,.72-1.44,2.579,2.579,0,0,1,1.95-.72,2.8,2.8,0,0,1,1.98.72,3.218,3.218,0,0,1,.78,1.44Z" transform="translate(91.395 22.2)" fill="#fff"/>
</svg>
