<svg xmlns="http://www.w3.org/2000/svg" xmlns:xlink="http://www.w3.org/1999/xlink" width="320" height="260" viewBox="0 0 320 260">
  <defs>
    <clipPath id="clip-path">
      <rect id="長方形_148" data-name="長方形 148" width="96" height="165" fill="#fff" stroke="#707070" stroke-width="1"/>
    </clipPath>
  </defs>
  <g id="グループ_753" data-name="グループ 753" transform="translate(-840 -2913)">
    <rect id="長方形_147" data-name="長方形 147" width="320" height="260" transform="translate(840 2913)" fill="#f7f7f7"/>
    <path id="パス_12509" data-name="パス 12509" d="M-41.76-6.468h2.112v.84H-41.76Zm0-1.932h2.112v.828H-41.76Zm5.7.828h-2.148V-8.4h2.148Zm0,1.944h-2.148v-.84h2.148Zm-2.46,2c.048-.276.1-.54.132-.828h3.828V-9.576h-8.628v5.124h3.3c-.036.288-.084.564-.132.828h-3.972V-2.34h3.5c-.564.96-1.68,1.668-4.02,2.124a3.83,3.83,0,0,1,.744,1.248c3.024-.66,4.3-1.824,4.9-3.372h3.156c-.132,1.188-.312,1.788-.528,1.968a.789.789,0,0,1-.528.12c-.324,0-1.08-.012-1.824-.072A2.829,2.829,0,0,1-38.124.984c.756.012,1.488.024,1.908-.012A1.678,1.678,0,0,0-35.028.5c.384-.384.624-1.368.816-3.552.024-.192.048-.576.048-.576ZM-23.208-.7V-3.1h2.2V-4.428h-2.2V-6.4h2.448V-7.74h-2.448v-2.352h-1.428V-7.74h-.96c.12-.54.216-1.1.3-1.668L-26.688-9.6a14.524,14.524,0,0,1-.636,2.928,13.759,13.759,0,0,0-.66-1.512l-.7.288v-2.268h-1.428v2.448l-1.008-.144A14.262,14.262,0,0,1-31.7-4.74l1.056.384a15.292,15.292,0,0,0,.54-3.18v8.58h1.428v-8.2a8.344,8.344,0,0,1,.456,1.38l.684-.312c-.12.252-.24.48-.36.7a12.619,12.619,0,0,1,1.272.648A8.2,8.2,0,0,0-25.956-6.4h1.32v1.968h-2.316V-3.1h2.316V-.7h-3.2V.66h7.464V-.7Zm7.524-1.464c-.444,0-.924-.588-.924-1.788A3.726,3.726,0,0,1-13.6-7.392a19.075,19.075,0,0,1-.636,2.88C-14.712-2.9-15.192-2.16-15.684-2.16ZM-12.42.492c3-.456,4.536-2.232,4.536-4.728a4.535,4.535,0,0,0-4.8-4.644,5.3,5.3,0,0,0-5.472,5.088c0,2,1.116,3.456,2.424,3.456S-13.4-1.8-12.7-4.2a25.825,25.825,0,0,0,.708-3.228A2.941,2.941,0,0,1-9.5-4.284,3.217,3.217,0,0,1-12.2-1.1c-.312.072-.648.132-1.1.192ZM-2.268-1.836v-.576H2.28v.576ZM2.28-3.96v.576H-2.268V-3.96ZM3.732-5.112H-3.7V1.044h1.428v-1.9H2.28V-.3c0,.168-.06.228-.276.228C1.824-.06,1.056-.06.48-.1A5.664,5.664,0,0,1,.9,1.044,7.492,7.492,0,0,0,3.072.864c.492-.18.66-.48.66-1.152ZM1.836-7.9l-.576.348c.252.18.516.384.78.6-1.26.024-2.508.036-3.672.06.276-.324.564-.672.828-1.008ZM5.3-7.9V-9.144H.72v-1.02H-.744v1.02H-5.328V-7.9H-2.6c-.192.336-.408.7-.636,1.02l-1.668.024.036,1.284c2.1-.048,5.232-.132,8.22-.24a8,8,0,0,1,.72.768l1.26-.8A15.954,15.954,0,0,0,2.928-7.9ZM10.536-3.18c-.18,1.512-.528,2.5-3.228,3.024a4.269,4.269,0,0,1,.8,1.284c3.144-.768,3.732-2.2,3.972-4.308ZM13.692-3.2v2.46c0,1.3.336,1.74,1.716,1.74h1.464c1.14,0,1.512-.48,1.668-2.364a4.345,4.345,0,0,1-1.32-.564c-.048,1.38-.108,1.584-.492,1.584h-1.1c-.408,0-.468-.06-.468-.42V-3.2ZM8.6-9.828v6.516H10V-9.828Zm2.8.156V-3.5h6.036V-9.672Zm1.38,1.224h3.2v1.284h-3.2Zm0,2.412h3.2v1.308h-3.2Zm18.6.168V-7.26H28.248V-9.972H26.832V-7.26H23.784v1.392h2.484A11.386,11.386,0,0,1,23.3-1.524V-7.116A18.935,18.935,0,0,0,24.54-9.648L23.124-10.1A12.312,12.312,0,0,1,20.088-5.5,10.362,10.362,0,0,1,20.916-4a10.877,10.877,0,0,0,.984-1.08v6.1h1.4v-2.4a7.914,7.914,0,0,1,.972,1.056A12.194,12.194,0,0,0,26.832-3.96v5h1.416V-4.2A12.267,12.267,0,0,0,30.672-.384a5.087,5.087,0,0,1,1.068-1.14,11.737,11.737,0,0,1-2.868-4.344Zm8.976-1.176c-.132.324-.276.672-.42.96H37.692l.2-.036a5.91,5.91,0,0,0-.408-.924Zm3.876,5.352V-2.868H39.564V-3.4h3.6V-4.428h-3.6v-.54h4.164V-6.084H41.376c.18-.288.372-.612.564-.96H44.2V-8.208h-1.56c.276-.42.6-.96.936-1.512l-1.5-.36a9.667,9.667,0,0,1-.756,1.74l.432.132H40.68v-1.956H39.336v1.956h-.888v-1.956H37.116v1.956H36.024l.588-.216a9.08,9.08,0,0,0-.912-1.692l-1.224.42a10.756,10.756,0,0,1,.744,1.488H33.612v1.164H36.12l-.144.024a5.393,5.393,0,0,1,.408.936H34.1v1.116H38.16v.54H34.7V-3.4H38.16v.528H33.576v1.176H37.02a12.607,12.607,0,0,1-3.792,1.4A6.656,6.656,0,0,1,34.14.9a11.383,11.383,0,0,0,4.02-1.944V1.044h1.4v-2.16A10.243,10.243,0,0,0,43.6.912a6.713,6.713,0,0,1,.96-1.3,10.721,10.721,0,0,1-3.8-1.308Z" transform="translate(1001 2951.646)"/>
    <path id="パス_12512" data-name="パス 12512" d="M-97.17-1.74v-.924h5.34v.924Zm5.34-2.508v.924h-5.34v-.924Zm.9-.744h-7.128v5.9h.888v-1.98h5.34V-.036c0,.168-.06.216-.24.228-.2,0-.9,0-1.6-.012a3.435,3.435,0,0,1,.288.732A7.735,7.735,0,0,0-91.422.78c.372-.108.492-.336.492-.816Zm-1.524-3.084-.672.444c.42.276.876.612,1.308.948-1.68.036-3.372.072-4.848.1.4-.468.816-1,1.176-1.488Zm3.168-.792H-94.1v-1.176H-95v1.176h-4.764v.792h3.132a14.9,14.9,0,0,1-1.008,1.5l-1.656.024.036.828c2.1-.036,5.292-.12,8.3-.24a8.7,8.7,0,0,1,.816.8l.744-.528a17.6,17.6,0,0,0-3.024-2.388h3.132Zm5.556,5.76c-.216,1.692-.792,2.748-3.372,3.3a2.8,2.8,0,0,1,.528.78c2.82-.684,3.528-1.992,3.792-4.08Zm3.144,0V-.372c0,.96.288,1.236,1.38,1.236h1.788c.96,0,1.224-.432,1.332-2.208a2.71,2.71,0,0,1-.828-.36C-76.962-.2-77.046.024-77.5.024H-79.11c-.48,0-.564-.06-.564-.4V-3.108Zm-5.232-6.6v6.432h.864V-9.708Zm2.7.2v6.06H-77.2V-9.5Zm.852.792H-78.1v1.86h-4.164Zm0,2.592H-78.1v1.884h-4.164Zm11.2-3.84a12.331,12.331,0,0,1-3.252,4.812,5.107,5.107,0,0,1,.54.9,12.175,12.175,0,0,0,1.416-1.584V.9h.876V-7.116a17.828,17.828,0,0,0,1.308-2.568Zm7.86,3.828V-7h-3.468v-2.88h-.876V-7h-3.372v.864h2.9a12.191,12.191,0,0,1-3.324,4.908,5.177,5.177,0,0,1,.672.684,13.4,13.4,0,0,0,3.12-4.62V.924h.876V-5.412A14.568,14.568,0,0,0-63.57-.588a3.2,3.2,0,0,1,.672-.72,12.661,12.661,0,0,1-3.264-4.824Zm9.348-1.02A10.97,10.97,0,0,1-54.474-5.9l.12.036h-2.82l.384-.084a4.663,4.663,0,0,0-.6-1.2Zm3.444,5.22v-.756H-55.23v-.888h3.756V-4.26H-55.23v-.876h4.344v-.732H-53.61c.24-.36.5-.828.744-1.284h2.4V-7.92h-1.86A16.78,16.78,0,0,0-51.27-9.648l-.912-.24a13.614,13.614,0,0,1-.912,1.824l.444.144H-54.1v-2.124h-.84V-7.92H-56.37v-2.124H-57.2V-7.92h-1.476l.612-.228a8.271,8.271,0,0,0-1.02-1.764l-.756.252a9.354,9.354,0,0,1,.948,1.74H-60.8v.768h2.928l-.42.084a5.039,5.039,0,0,1,.588,1.2h-2.616v.732h4.212v.876h-3.612v.684h3.612v.888h-4.74v.756h3.924a11.565,11.565,0,0,1-4.236,1.9,3.821,3.821,0,0,1,.576.756,12.059,12.059,0,0,0,4.476-2.364V.912h.876V-1.7A11.328,11.328,0,0,0-50.718.756a3.208,3.208,0,0,1,.6-.792,10.979,10.979,0,0,1-4.284-1.9Zm3.768-7.284a5.241,5.241,0,0,1-.084.84,37.029,37.029,0,0,0-.54,4.992A14.359,14.359,0,0,0-46.818.384l.852-.072C-45.978.192-46,.024-46-.1a2.039,2.039,0,0,1,.06-.528,25.655,25.655,0,0,1,.84-2.628l-.5-.4c-.2.48-.48,1.188-.672,1.728a10.5,10.5,0,0,1-.108-1.62A29.184,29.184,0,0,1-45.8-8.328a5.628,5.628,0,0,1,.2-.8Zm6.06,7.368c0,.792-.288,1.284-1.3,1.284-.852,0-1.428-.336-1.428-.924,0-.552.612-.948,1.5-.948a3.716,3.716,0,0,1,1.212.192C-40.59-2.1-40.59-1.956-40.59-1.848Zm3.24.588a8.1,8.1,0,0,0-2.34-1.548c-.048-1-.132-2.184-.144-3.372.708-.048,1.4-.12,2.052-.228v-.936a15.137,15.137,0,0,1-2.052.276c.012-.552.024-1.1.036-1.428a6.732,6.732,0,0,1,.072-.708h-1.092a4.857,4.857,0,0,1,.06.72v1.476c-.372.012-.744.024-1.116.024a18.578,18.578,0,0,1-2.016-.108v.912c.7.036,1.32.072,1.992.072.384,0,.756-.012,1.14-.024.012.984.084,2.124.12,3.036a5.3,5.3,0,0,0-1.1-.108c-1.56,0-2.448.816-2.448,1.812,0,1.056.876,1.716,2.472,1.716A1.8,1.8,0,0,0-39.654-1.62v-.216A9.018,9.018,0,0,1-37.866-.48Zm10.764-.7h-.876V-7.02h-.756v5.064h-.648v.744h4.608v-.744h-1.56V-5.088h1.44v-.744h-1.44V-8.748a12.917,12.917,0,0,0,1.464-.5l-.66-.624a16.527,16.527,0,0,1-3.768,1.032,2.946,2.946,0,0,1,.264.648c.624-.1,1.284-.216,1.932-.36Zm-5.28-7.668h-2.82v.72h2.82Zm.312,1.572h-3.672v.732h3.672Zm-.288,1.62h-2.892v.708h2.892Zm-2.892,2.3h2.892v-.72h-2.892ZM-32.562-.5h-1.5v-2h1.5Zm3.432-5.4-.144.036h-.948c.432-1.164.864-2.424,1.14-3.336l-.552-.132-.132.048h-1.728v.78h1.4c-.36,1.08-.9,2.592-1.356,3.744l.744.144.2-.528h1.032a11.557,11.557,0,0,1-.672,3,7.39,7.39,0,0,1-.588-1.9l-.672.216A8.371,8.371,0,0,0-30.534-1.3,4.5,4.5,0,0,1-31.83.216V-3.24h-2.94V.78h.708V.216h2.232L-31.9.264a3.1,3.1,0,0,1,.528.672A5.153,5.153,0,0,0-30.03-.576,4.067,4.067,0,0,0-26.766.564H-24.4a3.091,3.091,0,0,1,.288-.828c-.42.024-2.292.024-2.6.024a3.438,3.438,0,0,1-2.916-1.1,13.6,13.6,0,0,0,.96-4.44Zm12.84,5.58V-3.372h3.852v-.864H-16.29V-6.852h4.3v-.876h-4.3v-2.3H-17.2v2.3h-2.436a16.472,16.472,0,0,0,.672-1.92l-.9-.192a10.939,10.939,0,0,1-2.22,4.416,5.18,5.18,0,0,1,.8.528,10.178,10.178,0,0,0,1.26-1.956h2.82v2.616h-3.564v.864H-17.2V-.324h-4.86V.54H-11.43V-.324Zm10.632-9.12a13.964,13.964,0,0,1-.3,2.58c-.72.06-1.416.12-1.812.132a10.332,10.332,0,0,1-1.056,0l.1,1.044c.312-.048.792-.108,1.068-.144.312-.036.888-.1,1.5-.156A18.618,18.618,0,0,1-8.658-.1l.984.4a23.843,23.843,0,0,0,2.5-6.384c.516-.048.984-.084,1.272-.084.756,0,1.248.192,1.248,1.272A10.214,10.214,0,0,1-3.21-1.26a1,1,0,0,1-1.044.612A5.849,5.849,0,0,1-5.706-.912L-5.55.1a7.106,7.106,0,0,0,1.392.18,1.672,1.672,0,0,0,1.74-1A11.421,11.421,0,0,0-1.722-5c0-1.608-.876-2.016-1.932-2.016-.288,0-.78.036-1.332.072.132-.636.24-1.332.3-1.68.048-.228.1-.48.144-.7Zm4.32,1.764A14.287,14.287,0,0,1,.786-3.372l.936-.444A20.872,20.872,0,0,0-.45-8.064Zm8.28-.78c.912.252,3.492.78,4.62.936l.228-.936a31.773,31.773,0,0,1-4.6-.912ZM6.93-7.212,5.91-7.344a42.035,42.035,0,0,1-.6,4.824l.9.216a2.482,2.482,0,0,1,.36-.6,4.616,4.616,0,0,1,3.672-1.572c1.212,0,2.088.66,2.088,1.608,0,1.62-1.836,2.7-5.58,2.244L7.038.36c4.416.372,6.3-1.068,6.3-3.2,0-1.392-1.212-2.484-3.036-2.484A5.625,5.625,0,0,0,6.462-3.9C6.57-4.668,6.774-6.4,6.93-7.212ZM19.278.156A2.561,2.561,0,0,0,22.1-2.352a2.262,2.262,0,0,0-1.872-2.232v-.048A2.193,2.193,0,0,0,21.8-6.756c0-1.416-1.08-2.208-2.556-2.208a3.522,3.522,0,0,0-2.46,1.056l.588.7a2.745,2.745,0,0,1,1.824-.876,1.374,1.374,0,0,1,1.488,1.416c0,.948-.624,1.68-2.436,1.68v.84c2.028,0,2.736.708,2.736,1.764A1.62,1.62,0,0,1,19.194-.756,2.908,2.908,0,0,1,17.01-1.764l-.552.72A3.641,3.641,0,0,0,19.278.156Zm7.644-2.964a5.961,5.961,0,0,1-.96,2.064,3.7,3.7,0,0,1,.576.384,7.805,7.805,0,0,0,1.08-2.292Zm3.564-.576v-.7H26.514v.7h1.62v3.3c0,.108-.024.132-.144.144s-.444.012-.864,0a2.5,2.5,0,0,1,.252.708A2.831,2.831,0,0,0,28.566.624C28.83.5,28.89.3,28.89-.084v-3.3Zm.324,2.376a7.561,7.561,0,0,0-.9-1.788l-.6.228a8.066,8.066,0,0,1,.876,1.824Zm1.74-5.784-.384.3a10.375,10.375,0,0,1,1.1.8h-1.7c-.048-.36-.072-.732-.1-1.1Zm1.008,2.328a8.243,8.243,0,0,1-1.14,2.328,13.817,13.817,0,0,1-.756-2.832h3.264v-.72h-.888l.12-.12a7.828,7.828,0,0,0-1.332-.984h2.16v-.744H30.33V-8.52h3.516v-.672H30.33v-.84h-.876v2.5H27.27V-9.492h-.84v1.956H24.51v.744h6.156c.012.372.048.744.1,1.1h-5.58v2A7.034,7.034,0,0,1,24.174.42a4.07,4.07,0,0,1,.672.528,8.1,8.1,0,0,0,1.164-4.62v-1.3h4.848a15.355,15.355,0,0,0,1.008,3.552A8.674,8.674,0,0,1,29.694.312a4.181,4.181,0,0,1,.6.624A8.9,8.9,0,0,0,32.25-.66C32.814.348,33.474.96,34.11.96c.72,0,1.02-.48,1.152-2.148a2.113,2.113,0,0,1-.672-.384C34.542-.36,34.422.156,34.17.156c-.408,0-.912-.54-1.38-1.464A9.835,9.835,0,0,0,34.362-4.3Zm5.28-4.62a7.107,7.107,0,0,1-.084.84,33.007,33.007,0,0,0-.528,4.764A14.884,14.884,0,0,0,38.658.336l.864-.06-.036-.42a2.966,2.966,0,0,1,.06-.528,25.805,25.805,0,0,1,.84-2.664L39.87-3.72c-.192.468-.456,1.164-.66,1.7a12.408,12.408,0,0,1-.1-1.632A27.344,27.344,0,0,1,39.69-8.2c.048-.216.156-.6.228-.8Zm2.928,5.76a6.887,6.887,0,0,0-.192,1.4c0,1.116.888,1.776,2.88,1.776a15.792,15.792,0,0,0,2.964-.24l-.012-1.008a12.918,12.918,0,0,1-2.94.312c-1.632,0-1.992-.528-1.992-1.068A4.413,4.413,0,0,1,42.63-3.24Zm.408-3.78a30.019,30.019,0,0,0,4.872,0v-.984a20.772,20.772,0,0,1-4.884,0Zm18.612.816A17.973,17.973,0,0,0,58-7.872l-.468.744A14.274,14.274,0,0,1,60.246-5.5Zm-4.32-1.8a12.153,12.153,0,0,1-1.848.432c.192-.684.348-1.4.468-1.836l-1.068-.1a9.74,9.74,0,0,1-.372,2.052c-.456.036-.9.06-1.32.06a11.193,11.193,0,0,1-1.464-.084l.072.9c.444.024.936.036,1.38.036q.522,0,1.044-.036a17.046,17.046,0,0,1-2.544,4.44l.936.48a21.353,21.353,0,0,0,2.592-5.028A14.138,14.138,0,0,0,56.49-7.2Zm.624,6.636c0,.588-.324,1.128-1.3,1.128-.924,0-1.368-.372-1.368-.924s.576-.936,1.452-.936a4.327,4.327,0,0,1,1.2.168C57.09-1.8,57.09-1.608,57.09-1.452ZM56.922-5.82c.024.828.084,1.992.12,2.964a5.624,5.624,0,0,0-1.128-.108c-1.344,0-2.376.708-2.376,1.8,0,1.176,1.068,1.716,2.376,1.716C57.378.552,58-.228,58-1.176c0-.132,0-.3-.012-.48A8.267,8.267,0,0,1,59.9-.3l.516-.816A8.02,8.02,0,0,0,57.954-2.6c-.024-.72-.072-1.5-.084-1.932a11.557,11.557,0,0,1,.012-1.284ZM68.6-.4c-.888,0-1.572-.336-1.572-.924,0-.408.408-.732.948-.732A1.587,1.587,0,0,1,69.546-.468,5.853,5.853,0,0,1,68.6-.4Zm2.448-8.628a4.255,4.255,0,0,1-.648.1c-.624.06-3.444.144-4.056.144a6.747,6.747,0,0,1-.84-.036l.024,1a5.721,5.721,0,0,1,.8-.072c.612-.036,2.952-.144,3.576-.168-.588.528-2.064,1.776-2.724,2.328-.7.576-2.22,1.848-3.2,2.664l.7.708c1.512-1.536,2.592-2.364,4.548-2.364,1.5,0,2.676.852,2.676,2.016A2.072,2.072,0,0,1,70.422-.7a2.346,2.346,0,0,0-2.448-2.1,1.688,1.688,0,0,0-1.836,1.56c0,.984,1,1.7,2.616,1.7,2.508,0,4.1-1.248,4.1-3.168,0-1.608-1.428-2.808-3.408-2.808a5.049,5.049,0,0,0-1.608.252c.912-.768,2.508-2.172,3.1-2.616.18-.132.444-.312.66-.456ZM81.582-1.392c0,.816-.576,1.02-1.26,1.02-1.176,0-1.644-.408-1.644-.96s.612-.972,1.74-.972A6.05,6.05,0,0,1,81.57-2.2C81.57-1.872,81.582-1.6,81.582-1.392Zm4.332.408a9.755,9.755,0,0,0-3.456-1.848c-.024-.564-.06-1.188-.084-1.8,1.128-.048,2.184-.132,3.3-.276l-.012-.9a32.058,32.058,0,0,1-3.3.312V-7.2c1.116-.06,2.136-.156,3.072-.252l-.012-.876a26.424,26.424,0,0,1-3.048.288c0-.288,0-.516.012-.66a6.116,6.116,0,0,1,.06-.792h-1.02a6.653,6.653,0,0,1,.036.708V-8H80.85a18.945,18.945,0,0,1-2.784-.228v.888c.708.084,1.968.18,2.8.18h.588v1.7h-.636a21.141,21.141,0,0,1-2.988-.228v.912c.852.1,2.172.168,2.988.168h.66c.012.492.036,1.056.06,1.584a6.709,6.709,0,0,0-1-.072c-1.716,0-2.76.732-2.76,1.812,0,1.152.948,1.764,2.652,1.764,1.548,0,2.1-.852,2.1-1.668,0-.18-.012-.444-.024-.744A8.826,8.826,0,0,1,85.374-.144Zm11.4-5.244-.612.264a11.14,11.14,0,0,1,.984,1.692L98.3-4.56A14.243,14.243,0,0,0,97.314-6.228Zm1.308-.5-.6.276a10.689,10.689,0,0,1,1.02,1.668l.624-.288A18.128,18.128,0,0,0,98.622-6.732ZM89.526-7.9l.108,1.056c1.284-.264,4.524-.576,5.568-.7a4.8,4.8,0,0,0-2.208,4.008C92.994-.876,95.5.3,97.7.4l.348-1.008c-1.932-.072-4.092-.8-4.092-3.12a4.155,4.155,0,0,1,2.712-3.756,9.846,9.846,0,0,1,2.328-.192v-.96c-.792.036-1.908.1-3.2.2-2.184.192-4.428.408-5.208.48C90.354-7.932,89.982-7.908,89.526-7.9Z" transform="translate(1000 3151.386)"/>
    <path id="パス_12355" data-name="パス 12355" d="M-28.455-58.271H-40.188l5.625-9.58h16.348V0H-28.455ZM1.121-34.365q0-16.216,7.559-25.884,6.768-8.745,16.392-8.745t16.392,8.745q7.559,9.668,7.559,26.323,0,16.611-7.559,26.279Q34.695,1.1,25.115,1.1T8.679-7.646Q1.121-17.314,1.121-34.365Zm10.063.044q0,11.294,3.911,18.765,3.911,7.339,9.976,7.339,6.021,0,9.976-7.339Q39-22.852,39-33.97T35.046-52.427q-3.955-7.295-9.976-7.295-5.977,0-9.932,7.295Q11.184-45.176,11.184-34.321Z" transform="translate(1035 3089.702)" fill="#1778b1"/>
    <path id="パス_12510" data-name="パス 12510" d="M10.514-9.562h-7v-.966h7Zm0,1.68h-7v-.98h7Zm1.022-3.388h-9v4.13h9ZM11.4-3.794A6.641,6.641,0,0,1,9.884-1.736,6.623,6.623,0,0,1,8.512-3.794ZM3.024-2H5.558v.854c-.868.1-1.736.182-2.534.266Zm0-1.764H5.558v.98H3.024ZM5.558-5.488v.938H3.024v-.938Zm6.482.84-.182.028H7.042v.826h1.2l-.6.182a8.066,8.066,0,0,0,1.54,2.464A8.485,8.485,0,0,1,6.552.182v-5.67H13.1v-.868H.868v.868h1.2v4.7c-.49.056-.938.1-1.33.126l.1.924c1.3-.154,3.01-.35,4.718-.56V1.064h.994V.2A3.418,3.418,0,0,1,7.1.98,9.69,9.69,0,0,0,9.884-.49,8.022,8.022,0,0,0,12.81,1.05a3.431,3.431,0,0,1,.63-.812,7.568,7.568,0,0,1-2.828-1.344A8,8,0,0,0,12.67-4.4Zm9.142,1.2c-.168-.2-.616-.658-1.064-1.12.378-.392.826-.938,1.26-1.428l-.686-.56a12.172,12.172,0,0,1-1.05,1.5l-.518-.518A15.008,15.008,0,0,0,20.93-8.806l-.588-.406-.182.056H18.97V-11.7H17.948v2.548H15.932V-8.2h3.71a13.95,13.95,0,0,1-4.1,4.914,4.1,4.1,0,0,1,.574.9,13.783,13.783,0,0,0,1.834-1.722v5.18H18.97v-5.67c.56.644,1.274,1.512,1.582,1.946Zm7.042-6.986H20.916v.98h2.366c-.07,3.654-.294,7.7-3.388,9.744a3.859,3.859,0,0,1,.8.784C23.9-1.19,24.234-5.5,24.346-9.45h2.828c-.14,6.314-.322,8.638-.742,9.128a.554.554,0,0,1-.546.238c-.308,0-1.064,0-1.89-.07A2.618,2.618,0,0,1,24.332.91a15.506,15.506,0,0,0,1.988,0A1.3,1.3,0,0,0,27.384.294c.532-.7.672-3.052.84-10.15Zm5.81,8.47c-.6,0-1.414-.77-1.414-2.52A4.834,4.834,0,0,1,36.9-8.96a22.368,22.368,0,0,1-.77,3.738C35.42-2.884,34.65-1.96,34.034-1.96ZM37.688.364c3.3-.434,5.222-2.38,5.222-5.292a5.033,5.033,0,0,0-5.32-5.1,5.92,5.92,0,0,0-6.076,5.642c0,2.282,1.246,3.71,2.478,3.71,1.288,0,2.394-1.47,3.248-4.312a29.3,29.3,0,0,0,.826-3.99,3.843,3.843,0,0,1,3.682,4.018,4.156,4.156,0,0,1-3.514,4.1,8.69,8.69,0,0,1-1.19.168Z" transform="translate(998 3008.632)" fill="#1778b1"/>
    <path id="パス_12511" data-name="パス 12511" d="M3.57-1.022V-4.928h6.944v3.906ZM10.514-9.73v3.78H3.57V-9.73ZM2.52-10.752V.91H3.57V0h6.944V.854h1.092V-10.752Zm23.058,5.8H19.74V-6.37h5.838ZM19.74-2.59V-4.046h5.838V-2.59Zm8.5-6.342v-.98H21.112c.21-.5.378-1.036.546-1.554l-1.036-.252a18.33,18.33,0,0,1-.616,1.806H16.058v.98h3.514a11.7,11.7,0,0,1-3.85,4.662,4.847,4.847,0,0,1,.658.8,11.3,11.3,0,0,0,2.338-2.212V1.064H19.74V-1.694h5.838V-.238c0,.21-.084.28-.322.294S24.164.07,23.24.028a3.976,3.976,0,0,1,.336,1.022A8.584,8.584,0,0,0,26.012.868C26.46.7,26.6.392,26.6-.238v-7.07H19.852c.308-.518.588-1.078.854-1.624ZM31.556-3.78a10.061,10.061,0,0,1-.91,3.332,3.637,3.637,0,0,1,.812.392,12.321,12.321,0,0,0,.994-3.556Zm2.884.154a13.728,13.728,0,0,1,.854,2.562l.8-.266a12.979,12.979,0,0,0-.9-2.548ZM34.076-6.9a10.674,10.674,0,0,1,.658,1.26l-2.072.084A48.035,48.035,0,0,0,35.448-9.73l-.882-.392a28.514,28.514,0,0,1-1.414,2.506,11.243,11.243,0,0,0-.812-.91c.518-.784,1.106-1.89,1.582-2.814l-.91-.364a17.7,17.7,0,0,1-1.26,2.6c-.14-.126-.266-.252-.406-.364l-.532.672A12.48,12.48,0,0,1,32.62-6.8c-.308.462-.63.91-.924,1.288l-.924.042.084.924c.644-.042,1.4-.084,2.2-.126V1.092h.924V-4.732l1.106-.07a6.514,6.514,0,0,1,.252.812l.784-.35A11.085,11.085,0,0,0,34.8-7.2Zm7.63,3.332v2.9H37.688v-2.9Zm-4.97,4.62h.952v-.8h4.018V.994H42.7v-5.5H36.736Zm.588-8.19v.966h4.634V-7.14Zm1.652-4.438a14.025,14.025,0,0,1-3.738,4.536,3.841,3.841,0,0,1,.616.882,15.9,15.9,0,0,0,3.682-4.354,19.811,19.811,0,0,0,3.752,4.27,7.561,7.561,0,0,1,.644-.952A16.959,16.959,0,0,1,40-11.578Z" transform="translate(1088 3083.737)" fill="#1778b1"/>
    <g id="マスクグループ_1" data-name="マスクグループ 1" transform="translate(860 2964.836)" clip-path="url(#clip-path)">
      <g id="グループ_146" data-name="グループ 146" transform="translate(8.273 5.244)">
        <path id="パス_119" data-name="パス 119" d="M200.953,195.6a11.789,11.789,0,1,1,4.567-16.034A11.788,11.788,0,0,1,200.953,195.6Z" transform="translate(-183.427 -152.723)" fill="#1778b1"/>
        <path id="パス_120" data-name="パス 120" d="M235.108,174.139a9.512,9.512,0,1,1,3.63-12.953A9.512,9.512,0,0,1,235.108,174.139Z" transform="translate(-175.539 -156.334)" fill="#1778b1"/>
        <path id="パス_121" data-name="パス 121" d="M231.532,224.573c-.226-3.006,4.763-28.487,4.763-28.487s-1.065-3.757-3.268-10.5c-.51-1.56-.882-2.8-1.122-3.844l-4.092-.634a2.832,2.832,0,0,1-.4-.067l-10.357-1.743a3.3,3.3,0,0,1,.644-6.52s17.173-.3,17.307-.283c0,0,6.665-1.014,10.918,3.994,3.023,3.562,10.248,16.719,7.068,32.413l-.673,16.764a3.909,3.909,0,0,1-7.816.128l-1.4-11.26-3.935,11.427a3.9,3.9,0,0,1-7.644-1.385Z" transform="translate(-176.89 -152.954)" fill="#1778b1"/>
        <path id="パス_122" data-name="パス 122" d="M241.921,180.728a4.586,4.586,0,0,0-6.317-1.485l-19.57,10.969a5.689,5.689,0,0,0-1.086.514l-15.529,8.613c-5.088,2.815-8.331,6.757-5.133,14.535,1.607,3.885,6.577,15.267,10.481,25.828,1.969,5.275,3.683,10.326,4.843,14.057a44.916,44.916,0,0,1,1.346,5.468c.656,3.333,1.134,6.912,1.536,10.524s.718,7.3.992,11.008c.727,9.885,1.176,11.059,1.632,21.111a5.982,5.982,0,0,0,11.962,0c.448-10.072.905-11.312,1.075-21.529.076-4.921.088-9.868-.09-14.911-.057-4.366-.557-8.607-.57-8.615s-.058-.71-.208-2c-.077-.65-.178-1.444-.324-2.382-.073-.471-.157-.977-.26-1.521l-.345-1.684c-.875-4.144-2.208-9.7-3.793-15.437-2.739-10.036-5.882-20.344-7.861-25.578l25.735-21.17A4.583,4.583,0,0,0,241.921,180.728Z" transform="translate(-181.411 -151.661)" fill="#1778b1"/>
      </g>
    </g>
  </g>
</svg>
