<svg xmlns="http://www.w3.org/2000/svg" width="320" height="263" viewBox="0 0 320 263">
  <g id="グループ_962" data-name="グループ 962" transform="translate(-480 -1386)">
    <rect id="長方形_136" data-name="長方形 136" width="320" height="263" transform="translate(480 1386)" fill="#fff"/>
    <path id="パス_12485" data-name="パス 12485" d="M-62.484-6.564h2.472v1.1h-2.472Zm0-1.944h2.472V-7.44h-2.472Zm6.12,1.068h-2.52V-8.508h2.52Zm0,1.98h-2.52v-1.1h2.52Zm1.56,1.944H-59.22c.06-.324.12-.672.168-1.02H-55.2V-9.444h-8.4v4.908h3.372c-.048.348-.1.7-.168,1.02h-4.092v1h3.744C-61.3-1.368-62.412-.5-64.9-.012a3.045,3.045,0,0,1,.588.96c2.964-.66,4.212-1.86,4.8-3.468h3.48c-.156,1.452-.336,2.124-.588,2.34a.7.7,0,0,1-.516.12c-.3,0-1.068-.012-1.824-.072A2.327,2.327,0,0,1-58.6.876c.756.036,1.488.048,1.872.024A1.54,1.54,0,0,0-55.68.516c.4-.384.624-1.344.84-3.576Zm3.792-.9a15.217,15.217,0,0,0,.564-3.264l-.8-.12a14.305,14.305,0,0,1-.6,3.1Zm7.308,3.9V-3.24h2.328V-4.284H-43.7V-6.54h2.592V-7.6H-43.7V-10.02H-44.82V-7.6h-1.26a16.163,16.163,0,0,0,.36-1.752l-1.092-.18A14.125,14.125,0,0,1-47.6-6.336a10.755,10.755,0,0,0-.78-1.8l-.708.288v-2.22h-1.116v11h1.116v-8.6a10.919,10.919,0,0,1,.72,1.884l.672-.324a5.334,5.334,0,0,1-.444.828,6.493,6.493,0,0,1,1,.516A10.792,10.792,0,0,0-46.38-6.54h1.56v2.256h-2.436V-3.24h2.436V-.516h-3.336V.54H-40.8V-.516Zm7.968-1.38c-.48,0-1.092-.624-1.092-1.992A3.983,3.983,0,0,1-33.444-7.56a16.464,16.464,0,0,1-.648,3.06C-34.644-2.664-35.22-1.9-35.736-1.9ZM-32.544.4c2.9-.408,4.5-2.136,4.5-4.62a4.4,4.4,0,0,0-4.668-4.488A5.164,5.164,0,0,0-38.028-3.78c0,1.98,1.08,3.312,2.256,3.312s2.172-1.356,2.892-3.78a27.2,27.2,0,0,0,.708-3.336,3.143,3.143,0,0,1,2.856,3.312A3.413,3.413,0,0,1-32.2-.9a6.729,6.729,0,0,1-1.056.168Zm10.272-2.2v-.768h4.992V-1.8Zm4.992-2.316v.756h-4.992v-.756Zm1.128-.924h-7.236V.948h1.116V-1h4.992V-.18c0,.168-.06.228-.276.228-.18.012-.9.024-1.548-.012a3.665,3.665,0,0,1,.348.912,7.356,7.356,0,0,0,2.04-.156c.42-.132.564-.408.564-.96ZM-17.82-7.992l-.636.408c.336.24.7.5,1.056.792-1.488.024-2.976.06-4.308.072.336-.4.7-.84,1.02-1.272Zm3.264-.984h-4.692v-1.1h-1.14v1.1h-4.656v.984h2.94a14.143,14.143,0,0,1-.852,1.3c-.6,0-1.152.012-1.644.012l.036,1.02c2.088-.024,5.244-.108,8.232-.228a9.082,9.082,0,0,1,.768.792l.96-.648a17.252,17.252,0,0,0-2.748-2.244h2.8Zm5.688,5.832c-.2,1.608-.672,2.628-3.288,3.168a3.456,3.456,0,0,1,.636.984c2.952-.72,3.6-2.064,3.852-4.152Zm3.144-.012v2.6c0,1.1.3,1.452,1.512,1.452H-2.58C-1.536.9-1.224.444-1.092-1.368a3.267,3.267,0,0,1-1.044-.444c-.048,1.44-.12,1.656-.54,1.656h-1.38c-.468,0-.528-.06-.528-.408V-3.156Zm-5.16-6.576V-3.3H-9.8V-9.732Zm2.748.18v6.084h5.928V-9.552Zm1.068.972h3.72v1.6h-3.72Zm0,2.5h3.72v1.632h-3.72ZM4.02-10A12.5,12.5,0,0,1,.864-5.3a7.464,7.464,0,0,1,.66,1.152A11.238,11.238,0,0,0,2.748-5.508V.912h1.1V-7.1A17.974,17.974,0,0,0,5.124-9.648Zm7.968,3.984V-7.1h-3.3V-9.888h-1.1V-7.1H4.38v1.092h2.7A11.562,11.562,0,0,1,3.888-1.344a5.269,5.269,0,0,1,.828.888A13.035,13.035,0,0,0,7.584-4.608V.948h1.1V-4.908a13.566,13.566,0,0,0,2.8,4.38,4.278,4.278,0,0,1,.84-.9,12.141,12.141,0,0,1-3.06-4.584Zm9.456-1.08a11.2,11.2,0,0,1-.528,1.14H18.384l.348-.072a5.048,5.048,0,0,0-.516-1.068Zm3.612,5.256v-.936H20.328V-3.5h3.684v-.84H20.328v-.72h4.248v-.888H22.032c.2-.336.444-.732.672-1.14H25.02v-.936H23.292a18.775,18.775,0,0,0,1-1.632l-1.152-.288a10.459,10.459,0,0,1-.84,1.776l.456.144h-1.3V-10.08H20.4v2.052H19.212V-10.08H18.168v2.052h-1.32l.612-.228a8.341,8.341,0,0,0-.96-1.716l-.972.324a9,9,0,0,1,.876,1.62H14.628v.936h2.724l-.288.048a5.945,5.945,0,0,1,.5,1.092h-2.46v.888h4.128v.72H15.7v.84h3.54v.732H14.58v.936h3.708A11.643,11.643,0,0,1,14.244-.168a5.008,5.008,0,0,1,.732.948,11.919,11.919,0,0,0,4.26-2.16V.948h1.092V-1.464a10.7,10.7,0,0,0,4.3,2.256,5.011,5.011,0,0,1,.744-1A11.02,11.02,0,0,1,21.3-1.836Zm7.632-6.48h.492v.924h3.8a13.336,13.336,0,0,1-1.3,4.092,15.17,15.17,0,0,1-1.3-4.056l-1.08.216a16.9,16.9,0,0,0,1.7,4.932A6.837,6.837,0,0,1,32.688-.12ZM29.556-1.872V-3.456h2.052v1.3Zm2.052-6.444v1.392H29.556V-8.316ZM29.556-5.928h2.052v1.464H29.556ZM37.488-8.52l-.192.036h-3.8v-.864h-5.88v1.032h.876v6.588c-.42.048-.792.108-1.128.144l.2,1.116c1.116-.18,2.592-.42,4.044-.66V.924h1.08V-.06a4.312,4.312,0,0,1,.7.864,8.219,8.219,0,0,0,2.292-1.992A7.545,7.545,0,0,0,37.932.828,4.248,4.248,0,0,1,38.7-.084a6.608,6.608,0,0,1-2.328-2.1,15,15,0,0,0,1.836-6.144Zm12.264.432H46.176v-.8h3.576Zm0,1.572H46.176v-.8h3.576ZM50.88-9.708H45.1v4.02H50.88Zm-7.74-.324a8.822,8.822,0,0,1-2.5,2.388,6.224,6.224,0,0,1,.576.924,12.056,12.056,0,0,0,3-2.892Zm.264,2.6a11.021,11.021,0,0,1-2.928,3.156,8.234,8.234,0,0,1,.564,1.128A12.366,12.366,0,0,0,42.3-4.308V.936h1.08v-6.48a13.555,13.555,0,0,0,1.008-1.488ZM45.06-1.644A10.6,10.6,0,0,1,46.488.048l.84-.6a10.5,10.5,0,0,0-1.476-1.62ZM51.588-3.2H49.872V-4.08H51.36V-5H44.424v.924h4.332V-3.2h-4.62v.96h4.62v2c0,.144-.048.18-.228.192s-.744.012-1.344-.012a4.608,4.608,0,0,1,.36,1.008,5.156,5.156,0,0,0,1.824-.18c.4-.156.5-.432.5-.984V-2.244h1.716Zm5.352.024c1.152-.084,2.628-.192,4.116-.312a5.166,5.166,0,0,1,.312.648l.852-.42a6.017,6.017,0,0,0-.684-1.188,13.861,13.861,0,0,1,2.4,1.572l.828-.7a16.674,16.674,0,0,0-2.64-1.584l-.684.552c-.2-.288-.432-.564-.636-.816l-.8.348c.192.24.4.516.576.792L58.884-4.2c.816-.78,1.68-1.728,2.388-2.556l-.888-.408a18.035,18.035,0,0,1-1.176,1.488c-.228-.18-.5-.384-.78-.576.36-.42.792-.948,1.164-1.44l-.252-.1h5.052v-1.02H59.94v-1.26H58.788v1.26H54.456v1.02h4.032c-.2.348-.468.756-.72,1.1-.12-.072-.216-.132-.324-.192l-.54.624A16.744,16.744,0,0,1,58.6-4.992c-.288.3-.576.588-.84.84L57-4.116l.2-.1-.2-.84c-1.1.456-2.244.912-3,1.164l.54.912c.66-.3,1.464-.672,2.244-1.044ZM54.4-6.792A11.565,11.565,0,0,1,56.232-5.46l.78-.672a9.88,9.88,0,0,0-1.884-1.26ZM62.412-5.58a14.069,14.069,0,0,0,1.92-1.464l-1-.492A11.927,11.927,0,0,1,61.6-6.024ZM59.94-3.228H58.788v.864h-4.7v1.032h4.7V.96H59.94V-1.332h4.8V-2.364h-4.8Z" transform="translate(640 1439.646)"/>
    <path id="パス_12487" data-name="パス 12487" d="M-68.052-6.648h2.772v1.284h-2.772Zm0-1.992h2.772v1.272h-2.772Zm6.48,1.272H-64.4V-8.64h2.832Zm0,2H-64.4V-6.648h2.832Zm-3.192,1.932a9.061,9.061,0,0,0,.2-1.164h3.9V-9.408h-8.28V-4.6h3.456A8.356,8.356,0,0,1-65.7-3.432h-4.2v.816h3.924c-.564,1.284-1.7,2.244-4.26,2.772a2.4,2.4,0,0,1,.468.768C-66.84.264-65.6-.972-65-2.616h3.768C-61.4-.972-61.6-.24-61.872-.024a.7.7,0,0,1-.516.12c-.288,0-1.068-.012-1.848-.072a1.909,1.909,0,0,1,.288.816c.756.036,1.5.048,1.872.036a1.317,1.317,0,0,0,.948-.348c.384-.36.612-1.3.828-3.564a3.832,3.832,0,0,0,.036-.4Zm7.992-1.032a13.383,13.383,0,0,0,.6-3.216l-.672-.1A12.125,12.125,0,0,1-57.468-4.7ZM-55.74.912h.888V-10.044h-.888Zm.972-8.748A11.944,11.944,0,0,1-53.94-5.8l.672-.324a11.332,11.332,0,0,0-.876-2ZM-49.5-.348v-3h2.448v-.828H-49.5V-6.66h2.712v-.852H-49.5V-10h-.888v2.484h-1.5c.168-.588.312-1.212.432-1.836l-.864-.144a11.683,11.683,0,0,1-1.452,4.284,7,7,0,0,1,.792.408,8.653,8.653,0,0,0,.84-1.86h1.752v2.484h-2.544v.828h2.544v3H-53.82V.5h7.32V-.348Zm7.872-1.332c-.516,0-1.212-.66-1.212-2.16a4.143,4.143,0,0,1,3.672-3.84,19.173,19.173,0,0,1-.66,3.2C-40.44-2.472-41.1-1.68-41.628-1.68ZM-38.5.312c2.832-.372,4.476-2.04,4.476-4.536a4.314,4.314,0,0,0-4.56-4.368,5.075,5.075,0,0,0-5.208,4.836c0,1.956,1.068,3.18,2.124,3.18,1.1,0,2.052-1.26,2.784-3.7a25.113,25.113,0,0,0,.708-3.42,3.294,3.294,0,0,1,3.156,3.444A3.562,3.562,0,0,1-38.028-.732a7.449,7.449,0,0,1-1.02.144ZM-24.54-1.62h2.868v-.72H-24.54V-3.6h3.18v-.72h-3.18V-5.388h-.888V-4.32h-1.86a6.617,6.617,0,0,0,.4-.9l-.8-.192a6.309,6.309,0,0,1-1.536,2.5,4.9,4.9,0,0,1,.7.432A7.771,7.771,0,0,0-27.684-3.6h2.256v1.26H-28.14v.72h2.712V-.108H-29.16V.66h8.52V-.108h-3.9Zm.684-6.576A13.94,13.94,0,0,1-24.5-6.624l.42.144h-3.66l.54-.156a5.14,5.14,0,0,0-.66-1.56Zm.12,1.716c.276-.444.6-1.044.9-1.608L-23.28-8.2h2.088v-.768h-4.284v-1.08h-.876v1.08h-4.212V-8.2h2.484l-.612.168a6.6,6.6,0,0,1,.636,1.548h-2.328v1.86A9.354,9.354,0,0,1-31.476.336,3.424,3.424,0,0,1-30.792.9a10.614,10.614,0,0,0,1.26-5.52V-5.688h8.952V-6.48Zm8.616,3.372c-.216,1.692-.792,2.748-3.372,3.3a2.8,2.8,0,0,1,.528.78c2.82-.684,3.528-1.992,3.792-4.08Zm3.144,0V-.372c0,.96.288,1.236,1.38,1.236h1.788c.96,0,1.224-.432,1.332-2.208A2.71,2.71,0,0,1-8.3-1.7C-8.352-.2-8.436.024-8.892.024H-10.5c-.48,0-.564-.06-.564-.4V-3.108Zm-5.232-6.6v6.432h.864V-9.708Zm2.7.2v6.06h5.916V-9.5Zm.852.792h4.164v1.86h-4.164Zm0,2.592h4.164v1.884h-4.164ZM-1.272-4.56A1.265,1.265,0,0,0,0-3.288,1.265,1.265,0,0,0,1.272-4.56,1.265,1.265,0,0,0,0-5.832,1.265,1.265,0,0,0-1.272-4.56ZM10.32-1.74v-.924h5.34v.924Zm5.34-2.508v.924H10.32v-.924Zm.9-.744H9.432v5.9h.888v-1.98h5.34V-.036c0,.168-.06.216-.24.228-.2,0-.9,0-1.6-.012a3.436,3.436,0,0,1,.288.732A7.735,7.735,0,0,0,16.068.78c.372-.108.492-.336.492-.816ZM15.036-8.076l-.672.444c.42.276.876.612,1.308.948-1.68.036-3.372.072-4.848.1.4-.468.816-1,1.176-1.488ZM18.2-8.868H13.392v-1.176h-.9v1.176H7.728v.792H10.86a14.9,14.9,0,0,1-1.008,1.5L8.2-6.552l.036.828c2.1-.036,5.292-.12,8.3-.24a8.7,8.7,0,0,1,.816.8l.744-.528a17.6,17.6,0,0,0-3.024-2.388H18.2Zm5.556,5.76c-.216,1.692-.792,2.748-3.372,3.3a2.8,2.8,0,0,1,.528.78c2.82-.684,3.528-1.992,3.792-4.08Zm3.144,0V-.372c0,.96.288,1.236,1.38,1.236h1.788c.96,0,1.224-.432,1.332-2.208a2.71,2.71,0,0,1-.828-.36C30.528-.2,30.444.024,29.988.024H28.38c-.48,0-.564-.06-.564-.4V-3.108Zm-5.232-6.6v6.432h.864V-9.708Zm2.7.2v6.06h5.916V-9.5Zm.852.792h4.164v1.86H25.224Zm0,2.592h4.164v1.884H25.224Zm11.2-3.84a12.331,12.331,0,0,1-3.252,4.812,5.106,5.106,0,0,1,.54.9,12.175,12.175,0,0,0,1.416-1.584V.9H36V-7.116a17.827,17.827,0,0,0,1.308-2.568Zm7.86,3.828V-7H40.812v-2.88h-.876V-7H36.564v.864h2.9a12.191,12.191,0,0,1-3.324,4.908,5.178,5.178,0,0,1,.672.684,13.4,13.4,0,0,0,3.12-4.62V.924h.876V-5.412A14.568,14.568,0,0,0,43.92-.588a3.2,3.2,0,0,1,.672-.72,12.661,12.661,0,0,1-3.264-4.824Zm9.348-1.02A10.97,10.97,0,0,1,53.016-5.9l.12.036h-2.82l.384-.084a4.662,4.662,0,0,0-.6-1.2Zm3.444,5.22v-.756H52.26v-.888h3.756V-4.26H52.26v-.876H56.6v-.732H53.88c.24-.36.5-.828.744-1.284h2.4V-7.92h-1.86A16.78,16.78,0,0,0,56.22-9.648l-.912-.24A13.614,13.614,0,0,1,54.4-8.064l.444.144H53.388v-2.124h-.84V-7.92H51.12v-2.124h-.828V-7.92H48.816l.612-.228a8.271,8.271,0,0,0-1.02-1.764l-.756.252A9.354,9.354,0,0,1,48.6-7.92H46.692v.768H49.62l-.42.084a5.039,5.039,0,0,1,.588,1.2H47.172v.732h4.212v.876H47.772v.684h3.612v.888h-4.74v.756h3.924a11.565,11.565,0,0,1-4.236,1.9,3.822,3.822,0,0,1,.576.756,12.059,12.059,0,0,0,4.476-2.364V.912h.876V-1.7A11.328,11.328,0,0,0,56.772.756a3.209,3.209,0,0,1,.6-.792,10.979,10.979,0,0,1-4.284-1.9Zm4.98.252c-.516,0-1.212-.66-1.212-2.16a4.143,4.143,0,0,1,3.672-3.84,19.173,19.173,0,0,1-.66,3.2C63.24-2.472,62.58-1.68,62.052-1.68ZM65.184.312c2.832-.372,4.476-2.04,4.476-4.536A4.314,4.314,0,0,0,65.1-8.592a5.075,5.075,0,0,0-5.208,4.836c0,1.956,1.068,3.18,2.124,3.18,1.1,0,2.052-1.26,2.784-3.7a25.114,25.114,0,0,0,.708-3.42,3.294,3.294,0,0,1,3.156,3.444A3.562,3.562,0,0,1,65.652-.732a7.449,7.449,0,0,1-1.02.144ZM-40.152,17.136h-2.34v-1.6h2.34Zm-2.34,3.276h2.34v1.476c-.8.12-1.608.24-2.34.336Zm2.34-.816h-2.34V17.928h2.34Zm1.7-4.056v-.828h-5.82v.828h.936v6.8c-.432.06-.828.108-1.164.144l.156.9c1.14-.192,2.676-.42,4.188-.672v2.172h.864V15.54Zm4.152.024-.168.036h-4.284v.876H-34.7a13.166,13.166,0,0,1-1.488,4.488,15.456,15.456,0,0,1-1.476-4.44l-.852.156A16.713,16.713,0,0,0-36.732,21.8a7.321,7.321,0,0,1-2.52,2.22,3.428,3.428,0,0,1,.588.72,8.564,8.564,0,0,0,2.448-2.136,7.507,7.507,0,0,0,2.388,2.172,3.719,3.719,0,0,1,.636-.732,6.665,6.665,0,0,1-2.472-2.232,14.594,14.594,0,0,0,1.944-6.084Zm12.108.408h-3.948v-.96h3.948Zm0,1.62h-3.948V16.62h3.948Zm.888-3.252H-27v3.936h5.7ZM-28.884,14a9.2,9.2,0,0,1-2.544,2.448,3.889,3.889,0,0,1,.468.72,12,12,0,0,0,2.928-2.844Zm.216,2.616a11.262,11.262,0,0,1-2.952,3.24,5.589,5.589,0,0,1,.468.852,11.583,11.583,0,0,0,1.4-1.3v5.5h.876v-6.5a13.714,13.714,0,0,0,.984-1.476Zm1.692,5.628a10.755,10.755,0,0,1,1.476,1.74l.684-.48A10.562,10.562,0,0,0-26.34,21.84Zm6.456-1.38h-1.788v-1.02h1.572V19.08h-7v.768H-23.2v1.02h-4.812v.768H-23.2v2.28c0,.156-.048.2-.24.216-.168.012-.768.012-1.44-.012a3.015,3.015,0,0,1,.288.816,6.146,6.146,0,0,0,1.824-.144c.348-.144.456-.372.456-.852v-2.3h1.788Zm8.664,1.512c-.012-.576-.024-1.584-.036-2.268.9-.42,1.752-.768,2.424-1.032.312-.12.744-.288,1.044-.372l-.384-.9c-.336.168-.624.312-.984.468-.624.288-1.344.576-2.16.96a1.494,1.494,0,0,0-1.572-1.08,3.371,3.371,0,0,0-1.644.444A8.527,8.527,0,0,0-14.1,16.776a36.713,36.713,0,0,0,3.936-.336l.012-.888a31.889,31.889,0,0,1-3.636.36c.168-.54.276-1.032.36-1.368l-.984-.084a6.439,6.439,0,0,1-.3,1.476c-.276.012-.528.012-.78.012-.54,0-1.368-.048-2-.12v.9c.648.048,1.452.072,1.956.072h.492a12.574,12.574,0,0,1-2.736,3.624l.816.612c.408-.48.744-.924,1.08-1.248a3.163,3.163,0,0,1,2.052-.876,1,1,0,0,1,1.068.732c-1.38.72-2.8,1.608-2.8,3.012,0,1.452,1.368,1.812,3.072,1.812a30.6,30.6,0,0,0,3.252-.192l.024-.972a20.921,20.921,0,0,1-3.24.288c-1.224,0-2.148-.132-2.148-1.068,0-.78.768-1.392,1.872-1.992,0,.624-.012,1.392-.048,1.848ZM-3.168,14a14.428,14.428,0,0,1-2.568,4.872,8.133,8.133,0,0,1,.468.9,10.665,10.665,0,0,0,1.128-1.6v6.744h.876V16.548a21.066,21.066,0,0,0,.912-2.316Zm2.592,1.308H3.756v2.46H-.576ZM2.04,21.24H4.848V20.4H2.04V18.576H4.632V14.508h-6.06v4.068H1.164v4.872a3.236,3.236,0,0,1-1.74-2.064,14.617,14.617,0,0,0,.252-1.56l-.852-.084c-.2,2-.7,3.648-1.776,4.668a4.9,4.9,0,0,1,.72.54A6.329,6.329,0,0,0-.888,22.524c.924,1.74,2.364,2.124,4.236,2.124H5.256a3.853,3.853,0,0,1,.288-.84c-.42,0-1.812.012-2.136,0A7.185,7.185,0,0,1,2.04,23.7Zm12.444-3.4H12.4V16.6h2.088Zm0,2.016H12.4V18.6h2.088Zm0,2.04H12.4V20.6h2.088Zm-2.952.78H18.2V21.9H15.336V20.6h2.34V19.86h-2.34V18.6H17.7v-.756H15.336V16.6H18v-.768H15.456c.252-.48.5-1.044.732-1.548l-.948-.2a13.351,13.351,0,0,1-.672,1.752H12.66a11.037,11.037,0,0,0,.8-1.6l-.876-.24a9.362,9.362,0,0,1-2.8,3.84,6.132,6.132,0,0,1,.684.684,10.031,10.031,0,0,0,1.056-1.08Zm-1.248-6.468a8.972,8.972,0,0,0-1.932-1.956l-.684.5a8.865,8.865,0,0,1,1.9,2Zm-.36,2.448H7.56v.84H9.084v3.072a19.752,19.752,0,0,1-1.656,1.38L7.9,24.8c.588-.516,1.14-1.02,1.668-1.536a4.188,4.188,0,0,0,3.4,1.416c1.344.06,3.876.036,5.22-.024a3.267,3.267,0,0,1,.288-.876c-1.44.1-4.2.132-5.52.072a3.473,3.473,0,0,1-3.024-1.344ZM25.68,21.192a1.143,1.143,0,0,1-1.212-1.176,1.207,1.207,0,0,1,1.2-1.248,1.055,1.055,0,0,1,1.056.732C26.832,20.628,26.376,21.192,25.68,21.192Zm1.836-4.3c1.74,0,2.82.024,3.492.06l.012-.9c-.576,0-2.04-.012-3.48-.012h-.18c0-.312.012-.588.012-.768l.06-.744H26.34c.024.144.06.492.072.744.012.168.024.444.024.78-1.764.024-4,.1-5.316.12l.024.936c1.488-.108,3.5-.192,5.3-.2.012.408.012.828.012,1.176a2.383,2.383,0,0,0-.792-.132,2.089,2.089,0,0,0-2.1,2.076,1.914,1.914,0,0,0,1.968,1.992,1.707,1.707,0,0,0,1.02-.3A4.243,4.243,0,0,1,23.4,23.784l.828.8c2.76-.828,3.54-2.616,3.54-4.224a2.9,2.9,0,0,0-.384-1.524c-.012-.54-.024-1.272-.024-1.944ZM38.868,23.6c-.888,0-1.572-.336-1.572-.924,0-.408.408-.732.948-.732a1.587,1.587,0,0,1,1.572,1.584A5.853,5.853,0,0,1,38.868,23.6Zm2.448-8.628a4.255,4.255,0,0,1-.648.1c-.624.06-3.444.144-4.056.144a6.747,6.747,0,0,1-.84-.036l.024,1a5.722,5.722,0,0,1,.8-.072c.612-.036,2.952-.144,3.576-.168-.588.528-2.064,1.776-2.724,2.328-.7.576-2.22,1.848-3.2,2.664l.7.708c1.512-1.536,2.592-2.364,4.548-2.364,1.5,0,2.676.852,2.676,2.016A2.072,2.072,0,0,1,40.692,23.3a2.346,2.346,0,0,0-2.448-2.1,1.688,1.688,0,0,0-1.836,1.56c0,.984,1,1.7,2.616,1.7,2.508,0,4.1-1.248,4.1-3.168,0-1.608-1.428-2.808-3.408-2.808a5.05,5.05,0,0,0-1.608.252c.912-.768,2.508-2.172,3.1-2.616.18-.132.444-.312.66-.456Z" transform="translate(640 1600)"/>
    <path id="パス_12348" data-name="パス 12348" d="M-56.228-58.271H-67.961l5.625-9.58h16.348V0H-56.228Zm29.575,23.906q0-16.216,7.559-25.884,6.768-8.745,16.392-8.745t16.392,8.745q7.559,9.668,7.559,26.323,0,16.611-7.559,26.279Q6.921,1.1-2.659,1.1T-19.094-7.646Q-26.653-17.314-26.653-34.365Zm10.063.044q0,11.294,3.911,18.765Q-8.767-8.218-2.7-8.218q6.021,0,9.976-7.339,3.955-7.295,3.955-18.413T7.273-52.427Q3.318-59.722-2.7-59.722q-5.977,0-9.932,7.295Q-16.589-45.176-16.589-34.321Zm45.483-.044q0-16.216,7.559-25.884,6.768-8.745,16.392-8.745t16.392,8.745q7.559,9.668,7.559,26.323,0,16.611-7.559,26.279Q62.468,1.1,52.888,1.1T36.453-7.646Q28.894-17.314,28.894-34.365Zm10.063.044q0,11.294,3.911,18.765,3.911,7.339,9.976,7.339,6.021,0,9.976-7.339,3.955-7.295,3.955-18.413T62.82-52.427q-3.955-7.295-9.976-7.295-5.977,0-9.932,7.295Q38.958-45.176,38.958-34.321Z" transform="translate(638 1554)" fill="#064a6f"/>
    <path id="パス_12349" data-name="パス 12349" d="M-14.294-19.938a5.625,5.625,0,0,1,1.843-4.184A6.114,6.114,0,0,1-8.118-25.9a5.994,5.994,0,0,1,4.35,1.793,5.722,5.722,0,0,1,1.826,4.25,5.74,5.74,0,0,1-1.826,4.267,6.082,6.082,0,0,1-4.4,1.776,5.912,5.912,0,0,1-4.333-1.81A5.92,5.92,0,0,1-14.294-19.938Zm2.889.05a3.206,3.206,0,0,0,.963,2.357,3.186,3.186,0,0,0,2.341.963,3.148,3.148,0,0,0,2.308-.963,3.167,3.167,0,0,0,.963-2.324,3.148,3.148,0,0,0-.963-2.308,3.167,3.167,0,0,0-2.324-.963,3.167,3.167,0,0,0-2.324.963A3.11,3.11,0,0,0-11.405-19.889ZM6.441-26.081l1.81,1.029L-6.425.415l-1.826-1.1ZM1.926-5.894a5.607,5.607,0,0,1,1.843-4.167A6.114,6.114,0,0,1,8.1-11.837a6.014,6.014,0,0,1,4.366,1.793,5.722,5.722,0,0,1,1.826,4.25,5.681,5.681,0,0,1-1.843,4.267,6.076,6.076,0,0,1-4.4,1.76A5.939,5.939,0,0,1,3.719-1.561,5.9,5.9,0,0,1,1.926-5.894Zm2.905.066A3.235,3.235,0,0,0,5.777-3.47a3.186,3.186,0,0,0,2.341.963,3.113,3.113,0,0,0,2.308-.963,3.167,3.167,0,0,0,.963-2.324,3.167,3.167,0,0,0-.963-2.324A3.132,3.132,0,0,0,8.1-9.081a3.148,3.148,0,0,0-2.308.963A3.129,3.129,0,0,0,4.831-5.827Z" transform="translate(737 1537)" fill="#064a6f"/>
    <path id="パス_12486" data-name="パス 12486" d="M-28.152,0h5.7V-1.176H-24.66c-.432,0-.984.036-1.44.084,1.872-1.788,3.228-3.552,3.228-5.256A2.5,2.5,0,0,0-25.536-9a3.466,3.466,0,0,0-2.688,1.32l.78.768A2.4,2.4,0,0,1-25.7-7.9a1.44,1.44,0,0,1,1.5,1.62c0,1.452-1.344,3.168-3.948,5.472ZM-17.22.156c1.728,0,2.856-1.536,2.856-4.608C-14.364-7.5-15.492-9-17.22-9s-2.856,1.488-2.856,4.548S-18.96.156-17.22.156Zm0-1.092c-.9,0-1.536-.96-1.536-3.516,0-2.532.636-3.456,1.536-3.456s1.536.924,1.536,3.456C-15.684-1.9-16.32-.936-17.22-.936ZM-11.568,0h5.04V-1.14H-8.256V-8.832H-9.3a5.425,5.425,0,0,1-1.92.672v.876h1.584V-1.14h-1.932ZM-1.332-4.32c-.924,0-1.428-.648-1.428-1.776,0-1.152.6-1.836,1.356-1.836.96,0,1.62.792,1.752,2.532A2.118,2.118,0,0,1-1.332-4.32ZM-3.9-.78A3.031,3.031,0,0,0-1.644.156c1.7,0,3.288-1.392,3.288-4.872C1.644-7.632.276-9-1.416-9A2.7,2.7,0,0,0-4.044-6.1c0,1.848,1,2.772,2.472,2.772A2.655,2.655,0,0,0,.372-4.356C.288-1.836-.636-.972-1.7-.972a1.969,1.969,0,0,1-1.452-.66Zm11.016-2V-4.908H9.528v2.124Zm7.776,0H10.68V-4.908h3.348V-5.952H10.68V-7.608H14.3v-1.08H7.356c.156-.36.324-.756.468-1.128l-1.128-.3A9.709,9.709,0,0,1,4.08-6.048a8.874,8.874,0,0,1,.972.72A10.917,10.917,0,0,0,6.78-7.608H9.528v1.656H6v3.168H4.068V-1.7h5.46V.948H10.68V-1.7h4.212ZM19.2-7.944h8.784v-1H23.616v-1.128H22.452V-8.94h-4.32v3.384c0,1.74-.084,4.176-1.056,5.88a5.051,5.051,0,0,1,.912.612C19.032-.888,19.2-3.672,19.2-5.556Zm5.772,2.112v1.056H22.38V-5.832Zm1.092,1.92v-1.92H27.9v-.912H26.064v-.912H24.972v.912H22.38v-.912H21.324v.912H19.548v.912h1.776v1.92Zm-.5,1.524a5.531,5.531,0,0,1-1.776,1.3,5.162,5.162,0,0,1-1.74-1.3Zm.936-.936-.2.036H19.68v.9h1.836l-.54.2A6.388,6.388,0,0,0,22.632-.636,16.731,16.731,0,0,1,19.2.024a3.421,3.421,0,0,1,.468.936,15.753,15.753,0,0,0,4.08-.984,13.58,13.58,0,0,0,3.8,1A3.974,3.974,0,0,1,28.2.012a15.778,15.778,0,0,1-3.252-.636A5.788,5.788,0,0,0,27.18-2.952Z" transform="translate(748 1554.646)" fill="#064a6f"/>
    <g id="グループ_92" data-name="グループ 92" transform="translate(323.543 1298.988)">
      <path id="パス_119" data-name="パス 119" d="M194.4,187.33a7.379,7.379,0,1,1,2.858-10.035A7.378,7.378,0,0,1,194.4,187.33Z" transform="translate(0 -4.163)" fill="#064a6f"/>
      <path id="パス_120" data-name="パス 120" d="M229.8,167.478a5.953,5.953,0,1,1,2.272-8.107A5.954,5.954,0,0,1,229.8,167.478Z" transform="translate(-9.094)" fill="#064a6f"/>
      <path id="パス_121" data-name="パス 121" d="M225.162,205.056c-.142-1.882,2.981-17.829,2.981-17.829s-.667-2.351-2.045-6.574c-.319-.976-.552-1.755-.7-2.406l-2.561-.4a1.774,1.774,0,0,1-.248-.042l-6.482-1.091a2.068,2.068,0,0,1,.4-4.081s10.748-.185,10.832-.177a8.008,8.008,0,0,1,6.833,2.5c1.892,2.229,6.414,10.464,4.424,20.286l-.421,10.492a2.446,2.446,0,0,1-4.892.08l-.874-7.047-2.463,7.152a2.444,2.444,0,0,1-4.784-.867Z" transform="translate(-7.537 -3.898)" fill="#064a6f"/>
      <path id="パス_122" data-name="パス 122" d="M223.624,179.914a2.871,2.871,0,0,0-3.953-.929l-12.248,6.865a3.562,3.562,0,0,0-.679.322l-9.719,5.39c-3.185,1.762-5.214,4.229-3.213,9.1,1.006,2.432,4.116,9.555,6.56,16.165,1.232,3.3,2.305,6.463,3.031,8.8a28.119,28.119,0,0,1,.842,3.422c.411,2.086.71,4.326.961,6.587s.449,4.572.621,6.89c.455,6.187.736,6.921,1.021,13.212a3.744,3.744,0,0,0,7.486,0c.28-6.3.567-7.08.673-13.475.048-3.08.055-6.176-.056-9.332-.036-2.732-.348-5.387-.357-5.392s-.036-.445-.13-1.254c-.048-.407-.111-.9-.2-1.491-.045-.295-.1-.611-.163-.952l-.216-1.054c-.548-2.594-1.382-6.069-2.374-9.661-1.714-6.281-3.681-12.733-4.92-16.008l16.107-13.25A2.869,2.869,0,0,0,223.624,179.914Z" transform="translate(-2.325 -5.388)" fill="#064a6f"/>
    </g>
  </g>
</svg>
