<svg xmlns="http://www.w3.org/2000/svg" width="320" height="263" viewBox="0 0 320 263">
  <g id="グループ_963" data-name="グループ 963" transform="translate(-840 -1425)">
    <rect id="長方形_138" data-name="長方形 138" width="320" height="263" transform="translate(840 1425)" fill="#fff"/>
    <path id="パス_12488" data-name="パス 12488" d="M-36.816-4.308h-4.692V-5.352h4.692Zm-4.692,1.98V-3.372h4.692v1.044Zm7.164-5.2V-8.568h-5.964c.156-.408.288-.828.42-1.236l-1.14-.264a12.964,12.964,0,0,1-.5,1.5H-44.82v1.044h2.832a9.949,9.949,0,0,1-3.156,3.768,6.2,6.2,0,0,1,.732.864,9.433,9.433,0,0,0,1.8-1.656v5.5h1.1v-2.34h4.692V-.36c0,.18-.06.24-.264.24S-38-.108-38.712-.144a4.192,4.192,0,0,1,.348,1.08,6.19,6.19,0,0,0,2.088-.18c.432-.168.552-.5.552-1.1V-6.324h-5.652c.216-.384.432-.792.624-1.2Zm2.976,4.32A9.069,9.069,0,0,1-32.076-.4a4.69,4.69,0,0,1,.852.42,11.111,11.111,0,0,0,.8-3.06Zm2.52.168a12.835,12.835,0,0,1,.708,2.2l.852-.288A13.863,13.863,0,0,0-28.044-3.3ZM-29.136-5.9c.168.3.336.636.492.972-.516.036-1.02.06-1.5.072.78-1.008,1.644-2.316,2.316-3.408l-.924-.42c-.3.612-.708,1.344-1.14,2.052a8.677,8.677,0,0,0-.576-.66c.432-.66.936-1.584,1.356-2.388l-.984-.384A13.838,13.838,0,0,1-31.08-7.9c-.108-.1-.216-.192-.324-.276l-.54.732a11.32,11.32,0,0,1,1.488,1.68c-.228.336-.468.66-.684.948l-.84.024.1.984c.54-.036,1.152-.072,1.812-.108V.96h1V-3.972l.78-.048a4.687,4.687,0,0,1,.192.648l.816-.36A9.3,9.3,0,0,0-28.38-6.216Zm6.4,2.988v2.2h-3.084v-2.2ZM-26.856.936h1.032V.276h3.084V.888h1.068v-4.8h-5.184ZM-26.3-6.2v1.02h3.936V-6.2ZM-25-9.936A11.642,11.642,0,0,1-28.1-6.2a5.957,5.957,0,0,1,.648.972A13.358,13.358,0,0,0-24.42-8.8,16.383,16.383,0,0,0-21.348-5.3a7.376,7.376,0,0,1,.7-1.032,12.981,12.981,0,0,1-3.276-3.6ZM-15.78-10A12.5,12.5,0,0,1-18.936-5.3a7.464,7.464,0,0,1,.66,1.152,11.238,11.238,0,0,0,1.224-1.356V.912h1.1V-7.1a17.974,17.974,0,0,0,1.272-2.544Zm7.968,3.984V-7.1h-3.3V-9.888h-1.1V-7.1h-3.2v1.092h2.7a11.562,11.562,0,0,1-3.192,4.668,5.269,5.269,0,0,1,.828.888,13.035,13.035,0,0,0,2.868-4.152V.948h1.1V-4.908a13.566,13.566,0,0,0,2.8,4.38,4.278,4.278,0,0,1,.84-.9,12.141,12.141,0,0,1-3.06-4.584ZM5.2-9.564H2.076v.948H4.224V-6.66H2.076v.948H5.2Zm-8.28,1.32v2.52H-4.2v-2.52ZM-4.2-2.148v-2.6h1.116v2.6Zm2.028-7.068H-5.088V-.228H-4.2v-.936h2.028ZM.7-8.64v2.028H-.492V-8.64Zm.9,7.212v-.936H-.492V-3.648H1.416v-.924H-.492V-5.688H1.656V-9.564h-3.18V.912H-.492v-2.34Zm2.592-2.58a7.179,7.179,0,0,1-.744,1.884A9.224,9.224,0,0,1,2.76-4.008Zm.528-.948-.192.036H1.764v.912h.9l-.72.156A10.521,10.521,0,0,0,2.856-1.3,5.143,5.143,0,0,1,.876.132,3.883,3.883,0,0,1,1.44.96,6.283,6.283,0,0,0,3.4-.42,5.133,5.133,0,0,0,4.9.924,3.664,3.664,0,0,1,5.544.1,4.342,4.342,0,0,1,4.02-1.2,8.594,8.594,0,0,0,5.34-4.788Zm8.172-3.36h.492v.924h3.8a13.336,13.336,0,0,1-1.3,4.092,15.17,15.17,0,0,1-1.3-4.056l-1.08.216a16.9,16.9,0,0,0,1.7,4.932A6.837,6.837,0,0,1,12.888-.12ZM9.756-1.872V-3.456h2.052v1.3Zm2.052-6.444v1.392H9.756V-8.316ZM9.756-5.928h2.052v1.464H9.756ZM17.688-8.52l-.192.036h-3.8v-.864H7.812v1.032h.876v6.588c-.42.048-.792.108-1.128.144l.2,1.116c1.116-.18,2.592-.42,4.044-.66V.924h1.08V-.06a4.313,4.313,0,0,1,.7.864,8.219,8.219,0,0,0,2.292-1.992A7.545,7.545,0,0,0,18.132.828,4.248,4.248,0,0,1,18.9-.084a6.608,6.608,0,0,1-2.328-2.1,15,15,0,0,0,1.836-6.144Zm12.264.432H26.376v-.8h3.576Zm0,1.572H26.376v-.8h3.576ZM31.08-9.708H25.3v4.02H31.08Zm-7.74-.324a8.822,8.822,0,0,1-2.5,2.388,6.224,6.224,0,0,1,.576.924,12.056,12.056,0,0,0,3-2.892Zm.264,2.6a11.021,11.021,0,0,1-2.928,3.156,8.234,8.234,0,0,1,.564,1.128A12.366,12.366,0,0,0,22.5-4.308V.936h1.08v-6.48a13.555,13.555,0,0,0,1.008-1.488ZM25.26-1.644A10.6,10.6,0,0,1,26.688.048l.84-.6a10.5,10.5,0,0,0-1.476-1.62ZM31.788-3.2H30.072V-4.08H31.56V-5H24.624v.924h4.332V-3.2h-4.62v.96h4.62v2c0,.144-.048.18-.228.192s-.744.012-1.344-.012a4.608,4.608,0,0,1,.36,1.008,5.156,5.156,0,0,0,1.824-.18c.4-.156.5-.432.5-.984V-2.244h1.716Zm5.352.024c1.152-.084,2.628-.192,4.116-.312a5.166,5.166,0,0,1,.312.648l.852-.42a6.017,6.017,0,0,0-.684-1.188,13.861,13.861,0,0,1,2.4,1.572l.828-.7a16.674,16.674,0,0,0-2.64-1.584l-.684.552c-.2-.288-.432-.564-.636-.816l-.8.348c.192.24.4.516.576.792L39.084-4.2c.816-.78,1.68-1.728,2.388-2.556l-.888-.408a18.035,18.035,0,0,1-1.176,1.488c-.228-.18-.5-.384-.78-.576.36-.42.792-.948,1.164-1.44l-.252-.1h5.052v-1.02H40.14v-1.26H38.988v1.26H34.656v1.02h4.032c-.2.348-.468.756-.72,1.1-.12-.072-.216-.132-.324-.192l-.54.624A16.744,16.744,0,0,1,38.8-4.992c-.288.3-.576.588-.84.84l-.756.036.2-.1-.2-.84c-1.1.456-2.244.912-3,1.164l.54.912c.66-.3,1.464-.672,2.244-1.044ZM34.6-6.792A11.565,11.565,0,0,1,36.432-5.46l.78-.672a9.88,9.88,0,0,0-1.884-1.26ZM42.612-5.58a14.069,14.069,0,0,0,1.92-1.464l-1-.492A11.927,11.927,0,0,1,41.8-6.024ZM40.14-3.228H38.988v.864h-4.7v1.032h4.7V.96H40.14V-1.332h4.8V-2.364h-4.8Z" transform="translate(932 1476.646)"/>
    <path id="パス_12489" data-name="パス 12489" d="M-29.268-8.58a3.058,3.058,0,0,1-.768.084h-5.82a10.762,10.762,0,0,1-1.3-.1v1.344c.3-.024.78-.048,1.3-.048h5.892a8.286,8.286,0,0,1-1.5,3.684,7.92,7.92,0,0,1-4.68,2.856l1.02,1.128A9.318,9.318,0,0,0-30.348-2.88a11.9,11.9,0,0,0,1.788-4.4,3.646,3.646,0,0,1,.216-.7ZM-22.212.336a2.079,2.079,0,0,1,.6-.252,14.4,14.4,0,0,0,7-4.308L-15.3-5.28a13.3,13.3,0,0,1-6.4,4.032V-7.812a7.827,7.827,0,0,1,.108-1.2h-1.488A7.1,7.1,0,0,1-22.968-7.8v6.708A1.324,1.324,0,0,1-23.1-.42ZM-6.5-7.008l-1.128.372A21.946,21.946,0,0,1-6.672-4L-5.544-4.4C-5.7-4.932-6.288-6.5-6.5-7.008Zm3.06.348a8.329,8.329,0,0,1-1.6,4.1A8.178,8.178,0,0,1-8.976-.024l1,1.02a9.4,9.4,0,0,0,3.948-2.9A9.653,9.653,0,0,0-2.352-5.52a6.663,6.663,0,0,1,.228-.72ZM-9.3-6.384l-1.128.408A24.508,24.508,0,0,1-9.336-3.24l1.14-.42C-8.424-4.308-9.024-5.832-9.3-6.384Zm19.7-1.7a2.818,2.818,0,0,1-.9.12H6.624c.06-.1.12-.2.168-.3.132-.24.384-.708.624-1.068L6.024-9.792a5.32,5.32,0,0,1-.444,1.08A10.184,10.184,0,0,1,1.812-4.74l1.056.78A12.494,12.494,0,0,0,5.916-6.888H9.66a9.011,9.011,0,0,1-1.824,3.54,9.7,9.7,0,0,1-4.812,3l1.116,1a10.909,10.909,0,0,0,4.8-3.324,11.877,11.877,0,0,0,2.112-4.08,4.107,4.107,0,0,1,.336-.732ZM22.62-8.652a3.64,3.64,0,0,1-1.044.12H17.124a12.839,12.839,0,0,1-1.308-.084V-7.26c.192-.012.84-.072,1.308-.072h4.4A9.873,9.873,0,0,1,19.62-4.164,13.484,13.484,0,0,1,14.688-.648L15.66.36a15.358,15.358,0,0,0,4.62-3.444A25.956,25.956,0,0,1,23.448.42l1.068-.936a31.9,31.9,0,0,0-3.432-3.516,16.424,16.424,0,0,0,1.968-3.42,4.142,4.142,0,0,1,.348-.624ZM31.428-4.56A1.393,1.393,0,0,0,32.82-3.168,1.393,1.393,0,0,0,34.212-4.56,1.393,1.393,0,0,0,32.82-5.952,1.393,1.393,0,0,0,31.428-4.56ZM-37.38,20.52h2.556V19.488H-37.38v-2.16h-1.128v2.16h-2.568V20.52h2.568v3.1h-3.024V24.66h7.164V23.616H-37.38Zm-2.976-4.836c.192-.492.36-.984.516-1.476L-41,13.92a12.67,12.67,0,0,1-.588,1.764h-3.24v1.068h2.76a9.8,9.8,0,0,1-3.084,3.708A6.667,6.667,0,0,1-44.6,21.5a10.457,10.457,0,0,0,1.248-1.044v4.464h1.116v-5.76a14.67,14.67,0,0,0,1.428-2.412h6.456V15.684Zm10.056.456h7.764v1.608h1.188V15.084h-4.488V13.932h-1.188v1.152h-4.4v2.664H-30.3Zm4.86,7.632c-.72,0-.852-.084-.852-.612v-2l5.16-.564-.132-1.044-5.028.54V18.456a19.423,19.423,0,0,0,3.1-.924l-.888-.912a27.575,27.575,0,0,1-6.48,1.524,3.518,3.518,0,0,1,.336.96c.888-.108,1.812-.24,2.724-.408V20.22l-4.224.456.144,1.068,4.08-.444v1.872c0,1.332.432,1.7,1.98,1.7h2.5c1.38,0,1.728-.528,1.908-2.376a3.048,3.048,0,0,1-1.116-.456c-.084,1.452-.192,1.728-.864,1.728Zm8.064-7.2h1.008v-.84h1.416v.84h1.032v-.84h1.308V14.88H-13.92v-.948h-1.032v.948h-1.416v-.948h-1.008v.948H-18.6v.852h1.224Zm.12,2.1v-1.08h1.092v1.08Zm3.264,0h-1.14v-1.08h1.14Zm6.12-1.992h-2.5c.024-.84.024-1.716.024-2.64h-1.032c0,.924,0,1.812-.012,2.64H-12.66v1.044h1.248c-.1,2.364-.384,4.272-1.392,5.652v-.324l-2.328.252v-.816h2.2v-.8h-2.2v-.756h2.3v-.84h-2.3v-.624h2.16V16.812h-5.256v2.652h2.064v.624H-18.42v.84h2.256v.756H-18.24v.8h2.076V23.4c-.96.1-1.824.18-2.52.228l.12.96c1.38-.144,3.312-.348,5.2-.564-.06.048-.12.108-.192.168a3.014,3.014,0,0,1,.768.792c1.8-1.56,2.268-4.056,2.4-7.26h1.464c-.1,4.14-.216,5.64-.468,5.952a.387.387,0,0,1-.4.2c-.2,0-.672,0-1.176-.048a2.6,2.6,0,0,1,.3,1.032,7.156,7.156,0,0,0,1.38-.024,1.011,1.011,0,0,0,.828-.492c.36-.5.468-2.2.588-7.152ZM2.412,20.592c.06-.372.108-.744.144-1.14h-1.1c-.036.4-.084.768-.144,1.14H-.612v.936h1.68A3.967,3.967,0,0,1-1.6,24.084a3.306,3.306,0,0,1,.66.864,4.8,4.8,0,0,0,3.144-3.42h1.74c-.156,1.4-.324,2.016-.528,2.2a.46.46,0,0,1-.384.132c-.2,0-.648-.012-1.116-.06a2.91,2.91,0,0,1,.3,1.032,12.105,12.105,0,0,0,1.332,0,1.274,1.274,0,0,0,.8-.36c.336-.36.552-1.284.756-3.432.024-.156.036-.444.036-.444Zm.9-4.5A4.344,4.344,0,0,1,2.3,17.412a5.454,5.454,0,0,1-1.212-1.32Zm2.052,0v-.936H1.584a10.152,10.152,0,0,0,.492-.948L1.032,13.92a7.157,7.157,0,0,1-2.28,2.892,6.6,6.6,0,0,1,.924.636,7.749,7.749,0,0,0,.72-.7,7.077,7.077,0,0,0,1.068,1.26,7.949,7.949,0,0,1-1.836.756c.036-.168.072-.324.108-.48l-.672-.24-.168.06h-.744l.516-.564a8.313,8.313,0,0,0-.96-.636,8.426,8.426,0,0,0,1.872-2l-.72-.444-.18.036H-5.268v.948h3.156a6.832,6.832,0,0,1-1.032,1.008c-.36-.18-.744-.348-1.08-.48l-.7.72a14.867,14.867,0,0,1,2.568,1.416h-3.06v.972h1.668A7.936,7.936,0,0,1-5.58,21.96a5.355,5.355,0,0,1,.564,1.068,8.485,8.485,0,0,0,1.62-2.6v3.252c0,.144-.048.168-.192.18s-.624.012-1.1-.012A3.957,3.957,0,0,1-4.368,24.9a4.149,4.149,0,0,0,1.584-.18c.36-.192.444-.492.444-1.032V19.08h.924a13.193,13.193,0,0,1-.528,1.8l.768.384a16.338,16.338,0,0,0,.66-1.932,3.2,3.2,0,0,1,.312.492A9.952,9.952,0,0,0,2.328,18.7a8.526,8.526,0,0,0,2.6,1.152,4.13,4.13,0,0,1,.7-.936,8.449,8.449,0,0,1-2.424-.9,5.794,5.794,0,0,0,1.332-1.92Zm7.524-.408h.492v.924h3.8a13.336,13.336,0,0,1-1.3,4.092,15.17,15.17,0,0,1-1.3-4.056l-1.08.216a16.9,16.9,0,0,0,1.7,4.932,6.837,6.837,0,0,1-2.328,2.088ZM9.756,22.128V20.544h2.052v1.3Zm2.052-6.444v1.392H9.756V15.684ZM9.756,18.072h2.052v1.464H9.756Zm7.932-2.592-.192.036h-3.8v-.864H7.812v1.032h.876v6.588c-.42.048-.792.108-1.128.144l.2,1.116c1.116-.18,2.592-.42,4.044-.66v2.052h1.08V23.94a4.313,4.313,0,0,1,.7.864,8.219,8.219,0,0,0,2.292-1.992,7.545,7.545,0,0,0,2.256,2.016,4.248,4.248,0,0,1,.768-.912,6.608,6.608,0,0,1-2.328-2.1,15,15,0,0,0,1.836-6.144Zm12.264.432H26.376v-.8h3.576Zm0,1.572H26.376v-.8h3.576Zm1.128-3.192H25.3v4.02H31.08Zm-7.74-.324a8.822,8.822,0,0,1-2.5,2.388,6.224,6.224,0,0,1,.576.924,12.056,12.056,0,0,0,3-2.892Zm.264,2.6a11.021,11.021,0,0,1-2.928,3.156,8.234,8.234,0,0,1,.564,1.128,12.366,12.366,0,0,0,1.26-1.164v5.244h1.08v-6.48a13.555,13.555,0,0,0,1.008-1.488Zm1.656,5.784a10.6,10.6,0,0,1,1.428,1.692l.84-.6a10.5,10.5,0,0,0-1.476-1.62Zm6.528-1.56H30.072V19.92H31.56V19H24.624v.924h4.332V20.8h-4.62v.96h4.62v2c0,.144-.048.18-.228.192s-.744.012-1.344-.012a4.608,4.608,0,0,1,.36,1.008,5.156,5.156,0,0,0,1.824-.18c.4-.156.5-.432.5-.984V21.756h1.716Zm5.352.024c1.152-.084,2.628-.192,4.116-.312a5.166,5.166,0,0,1,.312.648l.852-.42a6.017,6.017,0,0,0-.684-1.188,13.861,13.861,0,0,1,2.4,1.572l.828-.7a16.674,16.674,0,0,0-2.64-1.584l-.684.552c-.2-.288-.432-.564-.636-.816l-.8.348c.192.24.4.516.576.792l-1.692.084c.816-.78,1.68-1.728,2.388-2.556l-.888-.408a18.035,18.035,0,0,1-1.176,1.488c-.228-.18-.5-.384-.78-.576.36-.42.792-.948,1.164-1.44l-.252-.1h5.052v-1.02H40.14v-1.26H38.988v1.26H34.656v1.02h4.032c-.2.348-.468.756-.72,1.1-.12-.072-.216-.132-.324-.192l-.54.624a16.744,16.744,0,0,1,1.692,1.26c-.288.3-.576.588-.84.84l-.756.036.2-.1-.2-.84c-1.1.456-2.244.912-3,1.164l.54.912c.66-.3,1.464-.672,2.244-1.044ZM34.6,17.208a11.565,11.565,0,0,1,1.836,1.332l.78-.672a9.88,9.88,0,0,0-1.884-1.26Zm8.016,1.212a14.069,14.069,0,0,0,1.92-1.464l-1-.492a11.927,11.927,0,0,1-1.74,1.512ZM40.14,20.772H38.988v.864h-4.7v1.032h4.7V24.96H40.14V22.668h4.8V21.636h-4.8Z" transform="translate(1076 1464.646)"/>
    <path id="パス_12492" data-name="パス 12492" d="M-77.844-9.372H-82.98v.8h5.136ZM-79.008-6.5v2.088H-81.7V-6.5Zm.864,2.9V-7.32h-4.4v3.228a8.709,8.709,0,0,1-.9,4.476,4.375,4.375,0,0,1,.684.54A8.962,8.962,0,0,0-81.7-3.6Zm5.928-2.388h-4.26v-1.92a21.063,21.063,0,0,0,4.02-1.32l-.792-.66a15.5,15.5,0,0,1-3.4,1.212l-.708-.18v3.18c0,1.812-.168,4.2-1.824,5.964a2.257,2.257,0,0,1,.66.6,9.011,9.011,0,0,0,2.028-6.012h2.076V.912h.876V-5.124h1.32ZM-68.9-7.824h8.172v1.752h.912V-8.664h-4.536v-1.368h-.924v1.368h-4.5v2.592h.876Zm4.548,5.1H-60.8v-.828h-3.552V-5.544h3.06v-.84h-6.948v.84h2.976V-.516a3.6,3.6,0,0,1-2.208-2.316,15.146,15.146,0,0,0,.288-1.6l-.912-.084c-.264,2.148-.912,3.852-2.244,4.884a4.659,4.659,0,0,1,.732.6A6.574,6.574,0,0,0-67.824-1.7C-66.732.324-64.944.756-62.46.756h2.784a2.63,2.63,0,0,1,.336-.9c-.576.012-2.64.012-3.072.012a10.955,10.955,0,0,1-1.944-.144Zm12.1-4.656a14.7,14.7,0,0,1-.984,3.24,15.068,15.068,0,0,0-2.244-1.572A13.614,13.614,0,0,0-54.6-7.38Zm3.42-2.652h-.912V-5.46a10.276,10.276,0,0,1-1.224-1.752l-.468.18c.06-.324.132-.66.18-1.008l-.576-.216-.168.048h-2.256c.2-.528.384-1.092.54-1.656l-.876-.18a11.214,11.214,0,0,1-2.868,5.352,5.175,5.175,0,0,1,.732.576,8.628,8.628,0,0,0,.792-.924,14.773,14.773,0,0,1,2.292,1.7A8.654,8.654,0,0,1-57.2.192a3.355,3.355,0,0,1,.708.66c2.28-1.272,4.08-3.66,4.956-7.44a13.682,13.682,0,0,0,1.788,2.352V.888h.912V-3.36A10.908,10.908,0,0,0-46.7-1.872a3.93,3.93,0,0,1,.636-.756,10.466,10.466,0,0,1-2.772-1.9Zm10.572,2.064a8.274,8.274,0,0,0-.948-2.04l-.78.252a8.107,8.107,0,0,1,.888,2.088Zm-2.856.06a8.62,8.62,0,0,0-1.3-1.9l-.756.36a8.279,8.279,0,0,1,1.248,1.956Zm2.2,3.408c.06-.54.108-1.128.132-1.752h-.96c-.024.636-.06,1.212-.108,1.752h-3.36v.84H-40c-.372,1.9-1.344,3.12-4.212,3.792a2.653,2.653,0,0,1,.516.792c3.192-.8,4.248-2.316,4.644-4.584h3.36c-.12,2.4-.288,3.372-.552,3.636-.12.12-.264.132-.528.132S-37.86.1-38.676.024a2.017,2.017,0,0,1,.3.864,19.463,19.463,0,0,0,1.968.036A1.226,1.226,0,0,0-35.472.54c.384-.408.552-1.584.708-4.632.012-.132.012-.408.012-.408Zm2.964-2.976A24.385,24.385,0,0,0-34.4-9.6l-.948-.324a15.163,15.163,0,0,1-1.5,2.34l.264.108h-7.26v2.532h.864V-6.66h8.244v1.716h.888V-7.476ZM-23.2-6.144A11.784,11.784,0,0,1-24.216-.66c-.588.06-1.176.12-1.74.168v-.936h1.872v-.7h-1.872v-.768h1.836V-6.384h-1.824V-7.14h1.86v.66h.888Zm-4.656,1.776h1.188v.876h-1.188Zm0-1.416h1.188v.852h-1.188Zm1.836.852v-.852h1.248v.852Zm0,1.44v-.876h1.248v.876Zm3.6-3.78V-9.984h-.78v2.712h-.84v-.564h-1.908v-.828a16,16,0,0,0,1.86-.324l-.48-.648a31.035,31.035,0,0,1-4.14.576c.084-.228.156-.468.228-.7l-.792-.216A13.972,13.972,0,0,1-31.62-5.16a6.247,6.247,0,0,1,.444.9,12.69,12.69,0,0,0,1.056-1.6V.924h.8v-8.4q.342-.774.612-1.584a2.49,2.49,0,0,1,.216.636c.564-.036,1.164-.084,1.764-.144v.732h-1.908v.7h1.908v.756h-1.752v3.492h1.752v.768h-1.788v.7h1.788V-.42l-2.088.192.144.756C-27.552.4-26.1.24-24.648.06c-.108.156-.228.3-.348.444a2.808,2.808,0,0,1,.66.468c1.692-2,1.92-4.812,1.92-7.116V-6.48h1.08c-.1,4.476-.2,6.036-.432,6.372a.347.347,0,0,1-.36.192c-.192,0-.612-.012-1.08-.048a1.908,1.908,0,0,1,.216.78,6.626,6.626,0,0,0,1.2,0A.837.837,0,0,0-21.084.4c.336-.48.42-2.112.528-7.248,0-.108.012-.42.012-.42Zm6.972-1.176v2.664h-1.74V-8.448Zm-1.74,6.216V-5h1.74v2.772Zm2.58-7.02H-18v8.8h.816v-.972h2.58Zm.984,6.72A9.256,9.256,0,0,1-12.1-.42l.756-.48A8.484,8.484,0,0,0-12.9-2.94Zm6.192-2.976V-6.3h-3.1V-7.824h2.58v-.792h-2.58v-1.428H-11.4v1.428h-2.5v.792h2.5V-6.3h-3.012v.792h4.6v1.356h-4.536v.792h4.536v3.2c0,.18-.06.228-.264.24s-.852.012-1.6-.012A2.725,2.725,0,0,1-11.388.9,6.866,6.866,0,0,0-9.444.756c.36-.132.492-.4.492-.9V-3.36H-7.56v-.792H-8.952V-5.508ZM-1.4-8.832v1H-4v-1ZM-4-6.12V-7.176H-1.4V-6.12Zm3.444.684V-9.528H-4.884V.924H-4v-6.36ZM1.38-3.852v1.116H-1.44V-3.852ZM-1.44-.9V-2.064H1.38V-.9Zm3.648.708V-4.536H-2.244V.408h.8v-.6Zm-.84-5.916V-7.176H4.056v1.068ZM4.056-8.832v1H1.368v-1Zm.9-.7H.516v4.1h3.54V-.276c0,.216-.072.288-.276.288S2.832.036,2.1,0a3.287,3.287,0,0,1,.312.912A6.83,6.83,0,0,0,4.428.756c.4-.156.528-.456.528-1.02Zm4.392,2.22a11.913,11.913,0,0,0-.9-2.256L7.7-9.312a12.485,12.485,0,0,1,.852,2.3ZM8.9-2.724V-3.936h3.264v1.212ZM12.168-5.9v1.188H8.9V-5.9Zm.864-.84H10.956v-3.288H10.08v3.288H8.052v7.6H8.9v-2.8h3.264V-.228c0,.168-.06.216-.228.228s-.732.012-1.356-.012a2.734,2.734,0,0,1,.252.828A4.865,4.865,0,0,0,12.6.66c.336-.144.432-.384.432-.876Zm-.576-.288a24.055,24.055,0,0,0,1.116-2.4l-.9-.252a14.361,14.361,0,0,1-.96,2.424Zm2.736-1.584h-.864v6.564h.864ZM17.028-9.8V-.252c0,.216-.1.288-.312.288-.24.012-.984.012-1.836-.012a4.078,4.078,0,0,1,.324.9,7.469,7.469,0,0,0,2.16-.168c.372-.144.54-.42.54-1.02V-9.8ZM31.212-8.7a6.848,6.848,0,0,0-1.6-1.284l-.5.456A7.263,7.263,0,0,1,30.7-8.184ZM23.46-8.724a7.732,7.732,0,0,0-1.968-1.2l-.5.636a8.642,8.642,0,0,1,1.944,1.26ZM22.908-5.6A8.178,8.178,0,0,0,20.916-6.72l-.5.648a8.9,8.9,0,0,1,1.98,1.188Zm-.624,1.848A39.267,39.267,0,0,1,20.6.216l.8.48c.516-1.14,1.128-2.688,1.584-4Zm4.8-.3V-2.22H25.632V-4.056Zm.648,2.52V-4.752H25.008V-.816h.624v-.72Zm.048-4.848H24.936v.7H27.78Zm2.5.12a13.077,13.077,0,0,1-1.02,3.036c-.18-1.152-.324-2.568-.408-4.1h2.4v-.792H28.812c-.024-.588-.048-1.188-.06-1.8h-.8c.012.612.036,1.212.06,1.8h-4.38v3.192c0,1.62-.108,3.84-1.176,5.4a3.357,3.357,0,0,1,.672.468c1.128-1.656,1.308-4.128,1.308-5.868v-2.4h3.612a36.544,36.544,0,0,0,.576,5.208,7.671,7.671,0,0,1-2.5,2.352c.168.156.48.456.612.6A8.717,8.717,0,0,0,28.86-1.14c.372,1.284.888,2.028,1.6,2.052.456.012.888-.5,1.116-2.448a2.088,2.088,0,0,1-.648-.444c-.084,1.188-.252,1.86-.468,1.848-.372-.024-.708-.732-.972-1.908a13.776,13.776,0,0,0,1.572-4.08ZM36.132-1.68c-.516,0-1.212-.66-1.212-2.16a4.143,4.143,0,0,1,3.672-3.84,19.173,19.173,0,0,1-.66,3.2C37.32-2.472,36.66-1.68,36.132-1.68ZM39.264.312C42.1-.06,43.74-1.728,43.74-4.224a4.314,4.314,0,0,0-4.56-4.368,5.075,5.075,0,0,0-5.208,4.836c0,1.956,1.068,3.18,2.124,3.18,1.1,0,2.052-1.26,2.784-3.7a25.113,25.113,0,0,0,.708-3.42,3.294,3.294,0,0,1,3.156,3.444A3.562,3.562,0,0,1,39.732-.732a7.449,7.449,0,0,1-1.02.144ZM52.284-4.9a19.092,19.092,0,0,1,2.2-.132,17.094,17.094,0,0,1,2,.144l.024-.912a18.975,18.975,0,0,0-2.052-.1c-.768,0-1.548.036-2.172.1Zm.768-3.12a17.221,17.221,0,0,1-2.268.432l.18-.876c.048-.24.132-.684.216-.948l-1.164-.1a5.667,5.667,0,0,1-.036.984c-.036.24-.1.612-.18,1.044-.456.024-.876.048-1.272.048A10.6,10.6,0,0,1,47.1-7.512l.036.936c.42.024.852.048,1.38.048q.5,0,1.08-.036c-.1.432-.192.864-.3,1.26A26.406,26.406,0,0,1,47.3.012L48.36.36a35.23,35.23,0,0,0,1.86-5.448c.132-.5.264-1.056.372-1.572a22.861,22.861,0,0,0,2.46-.408ZM51.684-2.988a6.623,6.623,0,0,0-.18,1.4c0,1.176.984,1.752,2.856,1.752A17.644,17.644,0,0,0,56.652.012l.036-.972a13.291,13.291,0,0,1-2.316.228c-1.692,0-1.956-.54-1.956-1.1A4.238,4.238,0,0,1,52.584-2.9Zm11.988-.864A13.36,13.36,0,0,1,62.76-5.94a5.1,5.1,0,0,1,2.532-.816,15.171,15.171,0,0,1-1.38,3.3C63.828-3.588,63.744-3.72,63.672-3.852Zm-2.04,2.5c-.54,0-.888-.48-.888-1.272a4.042,4.042,0,0,1,1.272-2.748A14.869,14.869,0,0,0,63.072-3.1c.1.156.192.312.288.456C62.832-1.944,62.22-1.356,61.632-1.356Zm4.14-7.992a4.413,4.413,0,0,1-.072.9c-.048.276-.108.564-.18.852a6.032,6.032,0,0,0-3.048.84c-.108-.336-.2-.636-.276-.912-.084-.324-.18-.72-.24-1.044l-1,.312a9.14,9.14,0,0,1,.384,1.068c.108.348.228.72.36,1.092a5,5,0,0,0-1.836,3.672c0,1.4.768,2.16,1.668,2.16a3.211,3.211,0,0,0,2.352-1.476c.18.24.372.456.564.672l.744-.612a7.061,7.061,0,0,1-.732-.828A15.461,15.461,0,0,0,66.2-6.7a2.883,2.883,0,0,1,2.472,2.964c0,1.824-1.38,3.132-3.852,3.348L65.4.468c2.544-.348,4.236-1.8,4.236-4.164A3.729,3.729,0,0,0,66.42-7.524c.072-.276.132-.54.192-.8.06-.228.132-.636.2-.924Zm9.24,7.668c-.516,0-1.212-.66-1.212-2.16a4.143,4.143,0,0,1,3.672-3.84,19.173,19.173,0,0,1-.66,3.2C76.2-2.472,75.54-1.68,75.012-1.68ZM78.144.312c2.832-.372,4.476-2.04,4.476-4.536a4.314,4.314,0,0,0-4.56-4.368,5.075,5.075,0,0,0-5.208,4.836c0,1.956,1.068,3.18,2.124,3.18,1.1,0,2.052-1.26,2.784-3.7a25.114,25.114,0,0,0,.708-3.42,3.294,3.294,0,0,1,3.156,3.444A3.562,3.562,0,0,1,78.612-.732a7.449,7.449,0,0,1-1.02.144ZM-40.692,19.248l-1.224.336V17.208h1.2v-.84h-1.2v-2.4h-.852v2.4h-1.524v.84h1.524v2.616c-.624.18-1.2.324-1.668.432l.252.876,1.416-.42v3.072c0,.168-.06.228-.228.228-.144,0-.672.012-1.236-.012a3.227,3.227,0,0,1,.264.816,4.267,4.267,0,0,0,1.62-.168c.312-.132.432-.36.432-.864V20.46l1.332-.408Zm5.652,1.176v1.224h-3.576V20.424Zm-3.576,3.216V22.38h3.576v1.26Zm-.864,1.272h.864v-.528h3.576v.5h.876V19.656H-39.48Zm1.608-8.592h1.9v1.572h-1.9Zm2.76,1.572V16.32h1.476v-.792h-1.476v-1.56h-.864v1.56h-1.9v-1.56h-.852v1.56h-1.428v.792h1.428v1.572h-1.752v.816h7.056v-.816Zm8.184-2.784h1.956v1.068h-1.956Zm-.828,1.068h-1.908V15.108h1.908Zm3.612-1.068h2.016v1.068h-2.016Zm1.536,4.98h-4.86V19.44h4.86Zm0,1.188h-4.86v-.66h4.86Zm0,1.212h-4.86v-.672h4.86Zm-5.688-3.6v4.14h6.54v-4.14h-3.888c.036-.216.084-.444.12-.7h4.764v-.708H-25.4c.036-.216.06-.444.1-.648h4.056V14.46H-30.5v2.376h4.3c-.024.2-.048.432-.072.648h-4.776v.708h4.668c-.036.24-.084.48-.12.7ZM-20.46,23.7h-9.048V19.068H-30.4v5.856h.888v-.5h9.048Zm8.6-1.32c-.012-.576-.024-1.584-.036-2.268.9-.42,1.752-.768,2.424-1.032.312-.12.744-.288,1.044-.372l-.384-.9c-.336.168-.624.312-.984.468-.624.288-1.344.576-2.16.96a1.494,1.494,0,0,0-1.572-1.08,3.371,3.371,0,0,0-1.644.444A8.527,8.527,0,0,0-14.1,16.776a36.713,36.713,0,0,0,3.936-.336l.012-.888a31.889,31.889,0,0,1-3.636.36c.168-.54.276-1.032.36-1.368l-.984-.084a6.439,6.439,0,0,1-.3,1.476c-.276.012-.528.012-.78.012-.54,0-1.368-.048-2-.12v.9c.648.048,1.452.072,1.956.072h.492a12.574,12.574,0,0,1-2.736,3.624l.816.612c.408-.48.744-.924,1.08-1.248a3.163,3.163,0,0,1,2.052-.876,1,1,0,0,1,1.068.732c-1.38.72-2.8,1.608-2.8,3.012,0,1.452,1.368,1.812,3.072,1.812a30.6,30.6,0,0,0,3.252-.192l.024-.972a20.921,20.921,0,0,1-3.24.288c-1.224,0-2.148-.132-2.148-1.068,0-.78.768-1.392,1.872-1.992,0,.624-.012,1.392-.048,1.848ZM5.28,21.8v-.792H.192a5.285,5.285,0,0,0,.192-1.128H3.948V19.14H.408V18.072H4.116v-.636h.9v-2.3H.432V13.968H-.456v1.164H-5.028v2.3h.864v-1.5h8.28v1.38H.408v-1H-.48v1H-4.02v.756H-.48V19.14H-3.828v.744H-.5a3.774,3.774,0,0,1-.228,1.128H-5.208V21.8H-1.14c-.624.9-1.848,1.74-4.188,2.388a3.522,3.522,0,0,1,.54.72C-2.052,24.1-.744,22.992-.12,21.8h.108a6.323,6.323,0,0,0,4.884,3.132,3.413,3.413,0,0,1,.54-.768A6.125,6.125,0,0,1,.936,21.8Zm4.356-3.42c.024-.54.036-1.092.048-1.644h2.88v-.828H10.476V13.98h-.84v1.932H7.524v.828H8.832c-.048,2.952-.192,5.928-1.44,7.584a2.471,2.471,0,0,1,.672.588c1.008-1.356,1.38-3.432,1.524-5.712h1.44c-.072,3.336-.144,4.5-.348,4.776a.366.366,0,0,1-.372.168c-.168,0-.612,0-1.1-.048a1.93,1.93,0,0,1,.228.792,8.87,8.87,0,0,0,1.272,0,.849.849,0,0,0,.7-.384c.3-.4.372-1.74.456-5.712.012-.12.012-.408.012-.408Zm8.736-1.932v-.816H14.088a14.512,14.512,0,0,0,.444-1.5l-.864-.18a8.746,8.746,0,0,1-1.764,3.8,6.938,6.938,0,0,1,.684.624,8.337,8.337,0,0,0,1.164-1.932ZM14.724,24.1c-.66,0-.768-.1-.768-.552V20.208l1.128-.54V22.9h.768V19.308l1.284-.612c0,1.428-.024,2.484-.06,2.664-.036.2-.108.228-.252.228a5.9,5.9,0,0,1-.624-.012,2.307,2.307,0,0,1,.192.7,3.224,3.224,0,0,0,.9-.072.652.652,0,0,0,.54-.648c.048-.336.072-1.848.072-3.552l.036-.144-.564-.2-.144.108-.06.06-1.32.612V16.9h-.768v1.9l-1.128.528V17.832h-.8V19.7L12.1,20.2l.336.732.72-.336v2.94c0,1.056.324,1.32,1.512,1.32H17.1c1.008,0,1.272-.4,1.38-1.812a2.485,2.485,0,0,1-.756-.324c-.048,1.152-.144,1.38-.672,1.38Zm10.956-2.9a1.143,1.143,0,0,1-1.212-1.176,1.207,1.207,0,0,1,1.2-1.248,1.055,1.055,0,0,1,1.056.732C26.832,20.628,26.376,21.192,25.68,21.192Zm1.836-4.3c1.74,0,2.82.024,3.492.06l.012-.9c-.576,0-2.04-.012-3.48-.012h-.18c0-.312.012-.588.012-.768l.06-.744H26.34c.024.144.06.492.072.744.012.168.024.444.024.78-1.764.024-4,.1-5.316.12l.024.936c1.488-.108,3.5-.192,5.3-.2.012.408.012.828.012,1.176a2.383,2.383,0,0,0-.792-.132,2.089,2.089,0,0,0-2.1,2.076,1.914,1.914,0,0,0,1.968,1.992,1.707,1.707,0,0,0,1.02-.3A4.243,4.243,0,0,1,23.4,23.784l.828.8c2.76-.828,3.54-2.616,3.54-4.224a2.9,2.9,0,0,0-.384-1.524c-.012-.54-.024-1.272-.024-1.944ZM38.868,23.6c-.888,0-1.572-.336-1.572-.924,0-.408.408-.732.948-.732a1.587,1.587,0,0,1,1.572,1.584A5.853,5.853,0,0,1,38.868,23.6Zm2.448-8.628a4.255,4.255,0,0,1-.648.1c-.624.06-3.444.144-4.056.144a6.747,6.747,0,0,1-.84-.036l.024,1a5.722,5.722,0,0,1,.8-.072c.612-.036,2.952-.144,3.576-.168-.588.528-2.064,1.776-2.724,2.328-.7.576-2.22,1.848-3.2,2.664l.7.708c1.512-1.536,2.592-2.364,4.548-2.364,1.5,0,2.676.852,2.676,2.016A2.072,2.072,0,0,1,40.692,23.3a2.346,2.346,0,0,0-2.448-2.1,1.688,1.688,0,0,0-1.836,1.56c0,.984,1,1.7,2.616,1.7,2.508,0,4.1-1.248,4.1-3.168,0-1.608-1.428-2.808-3.408-2.808a5.05,5.05,0,0,0-1.608.252c.912-.768,2.508-2.172,3.1-2.616.18-.132.444-.312.66-.456Z" transform="translate(1000 1639)"/>
    <path id="パス_12351" data-name="パス 12351" d="M-17.4-58.271H-50.889v-9.58H-.308L-43.11,2.329l-8.13-5.142Zm64.731,0H26.411l-3.34,11.25q.747-.088,1.428-.132t1.252-.044a21.351,21.351,0,0,1,16.216,6.68q6.372,6.636,6.372,17.007,0,10.723-7.207,17.666T22.983,1.1Q9.492,1.1,1.714-11.558l7.734-6.548q3.208,5.449,6.46,7.69a13.878,13.878,0,0,0,7.954,2.2,13.809,13.809,0,0,0,10.327-4.307,15.142,15.142,0,0,0,4.175-10.767,14.394,14.394,0,0,0-4.131-10.635,13.788,13.788,0,0,0-10.327-4.263q-6.9,0-11.909,6.021H8.613L19.292-67.852H47.329Z" transform="translate(931 1569)" fill="#1778b1"/>
    <path id="パス_12352" data-name="パス 12352" d="M-39.9-35.288a16.678,16.678,0,0,1-7.471-14.37,18.5,18.5,0,0,1,5.669-13.8A19.593,19.593,0,0,1-27.51-68.994a19.239,19.239,0,0,1,14.063,5.537A18.538,18.538,0,0,1-7.822-49.614q0,8.745-7.427,14.282a15.737,15.737,0,0,1,6.416,6.416A19.023,19.023,0,0,1-6.46-19.424,19.753,19.753,0,0,1-12.349-4.658Q-18.237,1.1-27.422,1.1q-9.4,0-15.513-5.8a19.2,19.2,0,0,1-6.152-14.59Q-49.087-30.718-39.9-35.288ZM-37.749-49.7A9.907,9.907,0,0,0-34.8-42.407,9.822,9.822,0,0,0-27.6-39.419a9.771,9.771,0,0,0,7.163-2.988,9.771,9.771,0,0,0,2.988-7.163,9.771,9.771,0,0,0-2.988-7.163A9.771,9.771,0,0,0-27.6-59.722a9.771,9.771,0,0,0-7.163,2.988A9.621,9.621,0,0,0-37.749-49.7Zm-1.274,30.059a11.262,11.262,0,0,0,3.252,8.086,10.818,10.818,0,0,0,8,3.34,10.839,10.839,0,0,0,7.954-3.3,10.985,10.985,0,0,0,3.3-8,10.89,10.89,0,0,0-3.3-8,10.839,10.839,0,0,0-7.954-3.3,10.933,10.933,0,0,0-7.954,3.3A10.738,10.738,0,0,0-39.023-19.644ZM3.823-34.365q0-16.216,7.559-25.884,6.768-8.745,16.392-8.745t16.392,8.745q7.559,9.668,7.559,26.323,0,16.611-7.559,26.279Q37.4,1.1,27.817,1.1T11.382-7.646Q3.823-17.314,3.823-34.365Zm10.063.044q0,11.294,3.911,18.765,3.911,7.339,9.976,7.339,6.021,0,9.976-7.339Q41.7-22.852,41.7-33.97T37.749-52.427q-3.955-7.295-9.976-7.295-5.977,0-9.932,7.295Q13.887-45.176,13.887-34.321Z" transform="translate(1076 1574)" fill="#1778b1"/>
    <path id="パス_12490" data-name="パス 12490" d="M-23.969-5.4c1.957,0,3.287-1.634,3.287-4.446s-1.33-4.408-3.287-4.408-3.268,1.6-3.268,4.408S-25.925-5.4-23.969-5.4Zm0-1.292c-.969,0-1.672-1.007-1.672-3.154,0-2.166.7-3.116,1.672-3.116.988,0,1.691.95,1.691,3.116C-22.278-7.7-22.98-6.688-23.969-6.688Zm.437,6.935h1.368l7.676-14.5h-1.387Zm9.5,0c1.938,0,3.268-1.615,3.268-4.427s-1.33-4.408-3.268-4.408c-1.957,0-3.287,1.6-3.287,4.408S-15.988.247-14.031.247Zm0-1.273c-.988,0-1.691-1.007-1.691-3.154,0-2.166.7-3.116,1.691-3.116.969,0,1.672.95,1.672,3.116C-12.359-2.033-13.062-1.026-14.031-1.026ZM1.358-9.12a18.169,18.169,0,0,0-2.983-4.522l-1.615.779A18.865,18.865,0,0,1-.351-8.208Zm-3.04,3.534c-1.1.475-2.223.95-3.325,1.406L-5.33-14.934l-1.843.076.361,11.419c-.969.38-1.862.722-2.584.988L-8.75-.608c2.109-.893,4.9-2.09,7.486-3.268ZM8.331.038A47.383,47.383,0,0,0,3.9-5.016a28.878,28.878,0,0,0,2.413-9.728l-1.938-.19C3.6-6.935,1.624-2.356-4.683-.019A8.909,8.909,0,0,1-3.259,1.539,13.55,13.55,0,0,0,2.917-3.344,42.093,42.093,0,0,1,6.849,1.463ZM18.763-1.2V-8.265h6.859v-1.767H18.763v-5.643h-1.9V-1.2H9.927V.589H26.933V-1.2Z" transform="translate(919 1604)" fill="#1778b1"/>
    <path id="パス_12491" data-name="パス 12491" d="M-23.969-5.4c1.957,0,3.287-1.634,3.287-4.446s-1.33-4.408-3.287-4.408-3.268,1.6-3.268,4.408S-25.925-5.4-23.969-5.4Zm0-1.292c-.969,0-1.672-1.007-1.672-3.154,0-2.166.7-3.116,1.672-3.116.988,0,1.691.95,1.691,3.116C-22.278-7.7-22.98-6.688-23.969-6.688Zm.437,6.935h1.368l7.676-14.5h-1.387Zm9.5,0c1.938,0,3.268-1.615,3.268-4.427s-1.33-4.408-3.268-4.408c-1.957,0-3.287,1.6-3.287,4.408S-15.988.247-14.031.247Zm0-1.273c-.988,0-1.691-1.007-1.691-3.154,0-2.166.7-3.116,1.691-3.116.969,0,1.672.95,1.672,3.116C-12.359-2.033-13.062-1.026-14.031-1.026ZM1.358-9.12a18.169,18.169,0,0,0-2.983-4.522l-1.615.779A18.865,18.865,0,0,1-.351-8.208Zm-3.04,3.534c-1.1.475-2.223.95-3.325,1.406L-5.33-14.934l-1.843.076.361,11.419c-.969.38-1.862.722-2.584.988L-8.75-.608c2.109-.893,4.9-2.09,7.486-3.268ZM8.331.038A47.383,47.383,0,0,0,3.9-5.016a28.878,28.878,0,0,0,2.413-9.728l-1.938-.19C3.6-6.935,1.624-2.356-4.683-.019A8.909,8.909,0,0,1-3.259,1.539,13.55,13.55,0,0,0,2.917-3.344,42.093,42.093,0,0,1,6.849,1.463ZM18.763-1.2V-8.265h6.859v-1.767H18.763v-5.643h-1.9V-1.2H9.927V.589H26.933V-1.2Z" transform="translate(1070 1604)" fill="#1778b1"/>
  </g>
</svg>
