<svg xmlns="http://www.w3.org/2000/svg" width="320" height="263" viewBox="0 0 320 263">
  <g id="グループ_961" data-name="グループ 961" transform="translate(-120 -1347)">
    <rect id="長方形_135" data-name="長方形 135" width="320" height="263" transform="translate(120 1347)" fill="#fff"/>
    <path id="パス_12484" data-name="パス 12484" d="M47.32,7.712a8.041,8.041,0,0,1-1.884,3.972c-1.068-.48-2.16-.912-3.168-1.26.372-.828.768-1.764,1.164-2.712Zm2.88,0v-.9H43.8c.384-.936.744-1.848,1.056-2.676l-.948-.168c-.312.864-.7,1.848-1.1,2.844h-3.36v.9h2.988c-.588,1.4-1.188,2.76-1.668,3.744l.876.324c.084-.18.18-.384.276-.588.9.336,1.848.732,2.772,1.152A10.96,10.96,0,0,1,39.544,14.1a3.2,3.2,0,0,1,.468.84,11.051,11.051,0,0,0,5.64-2.124,22.153,22.153,0,0,1,3.588,2.16l.672-.816a22.413,22.413,0,0,0-3.552-2.04,9.392,9.392,0,0,0,1.944-4.4Zm2.628,1.824a13.383,13.383,0,0,0,.6-3.216l-.672-.1A12.125,12.125,0,0,1,52.132,9.3Zm1.032,5.376h.888V3.956H53.86Zm.972-8.748A11.944,11.944,0,0,1,55.66,8.2l.672-.324a11.332,11.332,0,0,0-.876-2ZM60.1,13.652v-3h2.448V9.824H60.1V7.34h2.712V6.488H60.1V4h-.888V6.488h-1.5c.168-.588.312-1.212.432-1.836l-.864-.144a11.683,11.683,0,0,1-1.452,4.284,7,7,0,0,1,.792.408,8.653,8.653,0,0,0,.84-1.86h1.752V9.824H56.668v.828h2.544v3H55.78V14.5H63.1v-.852Zm7.872-1.332c-.516,0-1.212-.66-1.212-2.16a4.143,4.143,0,0,1,3.672-3.84,19.173,19.173,0,0,1-.66,3.2C69.16,11.528,68.5,12.32,67.972,12.32ZM71.1,14.312c2.832-.372,4.476-2.04,4.476-4.536a4.314,4.314,0,0,0-4.56-4.368,5.075,5.075,0,0,0-5.208,4.836c0,1.956,1.068,3.18,2.124,3.18,1.1,0,2.052-1.26,2.784-3.7a25.114,25.114,0,0,0,.708-3.42,3.294,3.294,0,0,1,3.156,3.444,3.562,3.562,0,0,1-3.012,3.516,7.448,7.448,0,0,1-1.02.144Zm17.9-8.04a6.921,6.921,0,0,0-1.416-1.956l-.684.348a6.715,6.715,0,0,1,1.356,1.98ZM84.016,5.48H81.664V3.956h-.888V5.48H78.352V6.3h5.664ZM79.228,11a6.461,6.461,0,0,1-1.116,2.52,3.782,3.782,0,0,1,.684.516,8.173,8.173,0,0,0,1.248-2.868Zm.6-3.012h2.784V9.6H79.828Zm3.636,2.376V7.232H79v3.132h1.824v3.528c0,.132-.048.168-.192.18s-.612.012-1.152,0a3.218,3.218,0,0,1,.288.8,4.424,4.424,0,0,0,1.512-.144c.312-.144.384-.4.384-.828v-3.54Zm.4,2.544A8.858,8.858,0,0,0,83,10.892l-.708.252a10.264,10.264,0,0,1,.828,2.04ZM87.484,14a.543.543,0,0,1-.324-.084.237.237,0,0,1-.108-.228V8.552h-.6c.012-.2.036-.4.048-.588h2.616V7.112H86.524c.012-.228.012-.444.012-.66v-2.5h-.864V6.464c0,.2,0,.42-.012.648H83.932v.852h1.692a9.107,9.107,0,0,1-2.736,6.456,3.58,3.58,0,0,1,.768.516,8.9,8.9,0,0,0,2.58-4.9v3.612c0,.612.06.8.264.984a1.431,1.431,0,0,0,.78.2h.756a1.775,1.775,0,0,0,.708-.132.9.9,0,0,0,.408-.552,10.1,10.1,0,0,0,.108-1.62,2.107,2.107,0,0,1-.684-.372,14.19,14.19,0,0,1-.036,1.452.456.456,0,0,1-.192.312.821.821,0,0,1-.372.072ZM98.428,6.848A10.971,10.971,0,0,1,97.816,8.1l.12.036h-2.82l.384-.084a4.663,4.663,0,0,0-.6-1.2Zm3.444,5.22v-.756H97.06v-.888h3.756V9.74H97.06V8.864H101.4V8.132H98.68c.24-.36.5-.828.744-1.284h2.4V6.08h-1.86a16.778,16.778,0,0,0,1.056-1.728l-.912-.24A13.615,13.615,0,0,1,99.2,5.936l.444.144H98.188V3.956h-.84V6.08H95.92V3.956h-.828V6.08H93.616l.612-.228a8.271,8.271,0,0,0-1.02-1.764l-.756.252A9.354,9.354,0,0,1,93.4,6.08H91.492v.768H94.42L94,6.932a5.039,5.039,0,0,1,.588,1.2H91.972v.732h4.212V9.74H92.572v.684h3.612v.888h-4.74v.756h3.924a11.565,11.565,0,0,1-4.236,1.9,3.822,3.822,0,0,1,.576.756,12.059,12.059,0,0,0,4.476-2.364v2.556h.876V12.3a11.328,11.328,0,0,0,4.512,2.46,3.209,3.209,0,0,1,.6-.792,10.979,10.979,0,0,1-4.284-1.9Zm12.072-7.1a17.458,17.458,0,0,1-1.008,2.58l.624.228a23.07,23.07,0,0,0,1.164-2.532Zm-2.568,2.448a9.27,9.27,0,0,0-.876-2.34l-.648.24a10.467,10.467,0,0,1,.816,2.364Zm.48,5.88h.8V10.064c.588.672,1.368,1.6,1.668,2.052l.54-.7c-.312-.36-1.68-1.764-2.208-2.244V8.792h2.22v-.8h-2.22V4.208h-.8v3.78h-2.112v.8h1.812a9.071,9.071,0,0,1-2.028,3.12,3.585,3.585,0,0,1,.42.828,10.038,10.038,0,0,0,1.908-2.952ZM104.7,10.76a9.371,9.371,0,0,1-.732,2.856,3.6,3.6,0,0,1,.648.312,10.911,10.911,0,0,0,.816-3.036Zm2.316.156a8.03,8.03,0,0,1,.552,2.172l.672-.192a8.729,8.729,0,0,0-.6-2.172Zm-.216-2.9c.168.324.336.684.48,1.044l-1.608.084a36.573,36.573,0,0,0,2.3-3.492l-.732-.324a24.529,24.529,0,0,1-1.212,2.16,9.8,9.8,0,0,0-.624-.756,26.026,26.026,0,0,0,1.344-2.472l-.768-.288a17.338,17.338,0,0,1-1.056,2.268c-.12-.12-.252-.252-.372-.36l-.48.552a10.413,10.413,0,0,1,1.5,1.752c-.24.372-.48.708-.708,1.008-.312.012-.612.024-.876.036l.084.8c.54-.036,1.152-.072,1.812-.12v5h.78V9.86l.888-.06a5.3,5.3,0,0,1,.2.768l.684-.288a10.028,10.028,0,0,0-1.02-2.508Zm8.3,5.508h-5.7V4.436h-.828V14.9h.828v-.576h5.7Zm9.144-6.6h-2.316v.756H127.5V6.92h-2.376V5.828h2.784V5.072h-2.784V3.956h-.876V5.072h-2.736v.756h2.736Zm-6.588,3.84a9.371,9.371,0,0,1-.732,2.856,3.067,3.067,0,0,1,.66.324,10.986,10.986,0,0,0,.828-3.048Zm3-.96a4.069,4.069,0,0,1,.252.768l.648-.3v.36h.756V9.212h4.824v1.416h.792V8.492h-6.372V10.04a11.375,11.375,0,0,0-1.092-2.256l-.66.264a11.429,11.429,0,0,1,.54,1.008l-1.728.084a39.822,39.822,0,0,0,2.412-3.468l-.756-.348A24.8,24.8,0,0,1,119,7.5a8.5,8.5,0,0,0-.648-.768,22.652,22.652,0,0,0,1.38-2.472l-.78-.288a17.334,17.334,0,0,1-1.068,2.256c-.12-.12-.24-.228-.36-.336l-.48.564a10.835,10.835,0,0,1,1.488,1.74c-.252.36-.5.7-.744,1l-.828.036.084.8,1.884-.12v5h.792V9.86Zm.756,3.1a8.833,8.833,0,0,0-.636-2.16l-.66.192a8.367,8.367,0,0,1,.6,2.172Zm1.668-2.064a3.631,3.631,0,0,1-2.364,3.492,4.388,4.388,0,0,1,.636.6,4.2,4.2,0,0,0,2.544-4.08V10.1h-.816Zm3.288,3.24c-.24,0-.276-.048-.276-.348V10.088h-.816v3.636c0,.864.192,1.1.984,1.1h.96c.672,0,.888-.384.948-1.884a1.915,1.915,0,0,1-.72-.348c-.024,1.284-.084,1.476-.324,1.476ZM138.5,5.984a4.769,4.769,0,0,1-.852.564c-.648.372-1.932,1-3.048,1.668A27.3,27.3,0,0,1,133,4.7l-.948.384a39.385,39.385,0,0,0,1.728,3.66c-1.272.888-2.052,1.86-2.052,3.084,0,1.776,1.62,2.448,3.852,2.448a23.322,23.322,0,0,0,3.756-.288v-1.08a17.5,17.5,0,0,1-3.8.408c-1.872,0-2.808-.612-2.808-1.6,0-.9.66-1.68,1.764-2.4A40.031,40.031,0,0,1,138.1,7.364c.348-.18.648-.336.912-.5Zm7.848-.636A21.928,21.928,0,0,0,144.1,4.112l-.492.636c.732.4,1.728.972,2.22,1.32Zm-.612,3.24c-.528-.336-1.524-.864-2.22-1.212l-.492.648c.732.384,1.716.96,2.208,1.3Zm-1.68,6.168a43.538,43.538,0,0,0,2.172-3.852l-.648-.588a34.655,34.655,0,0,1-2.268,3.84Zm8.232-1.176h-4.272V11.108h4.272Zm1.632-5.268V7.448h-3.288V5.372a19.38,19.38,0,0,0,2.784-.672L152.7,4A29.51,29.51,0,0,1,146.9,5.072a4.257,4.257,0,0,1,.24.756c.852-.084,1.764-.192,2.64-.324V7.448H146.32v.864h3.456V10.28H147.2v4.632h.816v-.5h4.272v.444h.852V10.28h-2.508V8.312Zm7.752,4.572h1.788v.936h-1.788Zm1.788-2.172h-1.788V9.848h1.788Zm0,1.536h-1.788v-.9h1.788ZM157.216,5.3h1.812V7.472h-1.812Zm9.684,8.52h-2.664v-.936H166.3v-.636h-2.064v-.9H166.3v-.636h-2.064V9.848h2.4v-.72H164.4c.168-.288.336-.6.492-.9l-.648-.18h2.292V4.424h-2.892v.66h2.112V5.9h-1.92v.66h1.92v.828h-2.124v.66h.432c-.12.312-.312.72-.492,1.08h-1.668a9.384,9.384,0,0,0,.456-.924l-.54-.156h1.356V4.424h-2.82v.66h2.028V5.9h-1.86v.66h1.86v.828h-2.064v.66h1.164a8.64,8.64,0,0,1-1.5,2.472V9.98h-1.356V8.228h1.176V4.544h-3.336V8.228h1.4v4.884l-.732.168V9.356h-.7v4.092l-.588.132.168.828c1.176-.3,2.76-.72,4.26-1.116l-.084-.78c-.528.144-1.056.276-1.572.408V10.748h1.152c-.084.084-.168.168-.252.24a3.768,3.768,0,0,1,.588.564,6.785,6.785,0,0,0,.732-.8v4.164h.816v-.36H166.9Zm5.7-4.608-1.152.336V7.184h1.164V6.368h-1.164v-2.4h-.864v2.4h-1.608v.816h1.608V9.8c-.684.2-1.32.384-1.812.5l.2.864,1.608-.492v3.156c0,.18-.048.228-.2.228s-.648.012-1.188-.012a3.634,3.634,0,0,1,.264.852,4.018,4.018,0,0,0,1.584-.156c.3-.156.408-.408.408-.912v-3.42l1.26-.4Zm1.86,2.592h1.956v1.668H174.46Zm1.956-3.18H174.46V7.016h1.956Zm0,2.4H174.46V9.392h1.956Zm3.468,2.448h-2.652V11.8h2.16v-.78h-2.16V9.392h2.16V8.624h-2.16V7.016h2.448v-.8h-2.388c.288-.612.612-1.344.876-2l-.936-.216a16.74,16.74,0,0,1-.816,2.22H174.58a16.774,16.774,0,0,0,.768-2.052l-.852-.216a10.594,10.594,0,0,1-2.376,4.428,6.525,6.525,0,0,1,.6.744,8.708,8.708,0,0,0,.888-1.14V14.9h.852v-.612h5.424Zm9-5.628H186.8V6.6h2.088Zm0,2.016H186.8V8.6h2.088Zm0,2.04H186.8V10.6h2.088Zm-2.952.78H192.6V11.9h-2.868V10.6h2.34V9.86h-2.34V8.6H192.1V7.844h-2.364V6.6H192.4V5.828h-2.544c.252-.48.5-1.044.732-1.548l-.948-.2a13.353,13.353,0,0,1-.672,1.752H187.06a11.037,11.037,0,0,0,.8-1.6l-.876-.24a9.362,9.362,0,0,1-2.8,3.84,6.133,6.133,0,0,1,.684.684,10.031,10.031,0,0,0,1.056-1.08Zm-1.248-6.468a8.972,8.972,0,0,0-1.932-1.956l-.684.5a8.865,8.865,0,0,1,1.9,2Zm-.36,2.448H181.96V9.5h1.524v3.072a19.751,19.751,0,0,1-1.656,1.38l.468.852c.588-.516,1.14-1.02,1.668-1.536a4.188,4.188,0,0,0,3.4,1.416c1.344.06,3.876.036,5.22-.024a3.266,3.266,0,0,1,.288-.876c-1.44.1-4.2.132-5.52.072a3.473,3.473,0,0,1-3.024-1.344Zm12.144-3.744a7.105,7.105,0,0,1-.084.84,33.008,33.008,0,0,0-.528,4.764,14.883,14.883,0,0,0,.432,3.816l.864-.06-.036-.42a2.966,2.966,0,0,1,.06-.528,25.8,25.8,0,0,1,.84-2.664l-.516-.384c-.192.468-.456,1.164-.66,1.7a12.407,12.407,0,0,1-.1-1.632A27.344,27.344,0,0,1,197.32,5.8c.048-.216.156-.6.228-.8Zm2.928,5.76a6.887,6.887,0,0,0-.192,1.4c0,1.116.888,1.776,2.88,1.776a15.792,15.792,0,0,0,2.964-.24l-.012-1.008a12.918,12.918,0,0,1-2.94.312c-1.632,0-1.992-.528-1.992-1.068a4.413,4.413,0,0,1,.156-1.092ZM199.8,6.9a30.019,30.019,0,0,0,4.872,0V5.912a20.772,20.772,0,0,1-4.884,0ZM214.78,9.272v2.34h-3.012V9.272Zm.828,3.144V8.468h-4.656v4.8h.816v-.852Zm2.508-6.4h-5.352c.3-.576.612-1.26.876-1.9l-1.092-.192a13.457,13.457,0,0,1-.768,2.088H208.5v8.892h.876V6.884h7.848v6.84c0,.228-.072.288-.288.3-.252.012-1.08.012-1.944-.024a3.769,3.769,0,0,1,.324.912,8.579,8.579,0,0,0,2.244-.156c.42-.144.552-.444.552-1.032Zm4.1-1.272a4.939,4.939,0,0,1-.06.792,32.112,32.112,0,0,0-.444,4.74,13.147,13.147,0,0,0,.624,3.768l.816-.1-.036-.408a3.091,3.091,0,0,1,.06-.528,26.337,26.337,0,0,1,.768-2.616l-.528-.324c-.216.588-.456,1.3-.624,1.8a16.19,16.19,0,0,1,.336-6.252c.06-.228.144-.552.216-.768Zm9.036,2.136a14.1,14.1,0,0,1-1.932.276c-.012-.744-.024-1.524-.012-1.788s.012-.492.036-.7h-1.116a6.926,6.926,0,0,1,.108.708c.024.3.048,1.092.072,1.836-.5.024-1.008.036-1.5.036A13.232,13.232,0,0,1,225,7.124v.96c.516.048,1.356.084,1.92.084.492,0,1.008-.012,1.512-.036V8.48c0,2.292-.06,3.624-1.332,4.728a4,4,0,0,1-1.164.744l.876.7c2.52-1.488,2.52-3.42,2.52-6.156V8.084a18.657,18.657,0,0,0,1.92-.216Zm3.012-.852.108,1.056c1.284-.264,4.524-.576,5.568-.7a4.787,4.787,0,0,0-2.208,4.008c0,2.652,2.508,3.828,4.7,3.912l.348-1c-1.932-.072-4.092-.8-4.092-3.132a4.14,4.14,0,0,1,2.712-3.744,9.9,9.9,0,0,1,2.328-.192v-.96c-.792.036-1.908.1-3.2.2-2.184.18-4.428.408-5.208.48C235.1,6,234.724,6.02,234.268,6.032ZM95.668,30.356A7.839,7.839,0,0,0,94.4,28.4l-.612.324A8.306,8.306,0,0,1,95.02,30.7Zm-8.232.624h-1.32v-1.7h1.32ZM86.116,36.1v-1.92h1.32v1.668Zm1.32-2.664h-1.32V31.724h1.32Zm1.332-4.164v.564h3.744v-.684H90.988V27.98H90.2v1.176H88.78v-.684H84.808v.8h.552v6.972q-.414.09-.756.144l.156.816c.768-.156,1.716-.36,2.676-.576v2.28h.756V29.276Zm2.808,2.46c.156-.432.36-1.1.552-1.68L91.4,29.9a14.926,14.926,0,0,1-.408,1.68Zm-.048,2.136V34.9H89.776V33.872ZM89.776,36.62V35.552h1.752V36.62Zm2.472.672V33.2H89.056v4.848h.72v-.756Zm-3.12-7.236a6.3,6.3,0,0,1,.36,1.692l.66-.156a5.727,5.727,0,0,0-.408-1.668Zm5.436,3.036a10.465,10.465,0,0,1-.672,1.932c-.084-.744-.144-1.6-.192-2.544h1.956v-.732H93.664c-.048-1.164-.072-2.448-.072-3.768H92.8c.012,1.332.036,2.6.084,3.768H88.42v.732h4.5a33.631,33.631,0,0,0,.348,3.672,7.306,7.306,0,0,1-2.172,2.16,4.183,4.183,0,0,1,.552.6,8.4,8.4,0,0,0,1.824-1.752c.276,1.08.684,1.716,1.248,1.728.384.012.8-.48,1.02-2.352a2.234,2.234,0,0,1-.588-.468c-.072,1.128-.228,1.8-.408,1.8-.276-.012-.5-.6-.672-1.6A11.583,11.583,0,0,0,95.32,33.26Zm12.36-3.156h-3.84v-.948h3.84Zm0,1.584h-3.84v-.96h3.84Zm.828-3.2h-5.484v3.876h5.484Zm-6.5,5.892-1.224.552V31.388h1.3v-.84h-1.3v-2.5H99.2v2.5h-1.4v.84h1.4v3.756c-.612.276-1.176.516-1.632.708l.348.876c1.008-.48,2.316-1.116,3.528-1.728Zm7.356-.588v-.756h-7.512v.756h1.68a6.8,6.8,0,0,1-2.376,2.4,3.912,3.912,0,0,1,.612.552,8.232,8.232,0,0,0,1.56-1.368h1.212a7.919,7.919,0,0,1-2.7,2.688,2.36,2.36,0,0,1,.588.552,9.063,9.063,0,0,0,2.916-3.24h1.164a7.058,7.058,0,0,1-2.34,3.24,2.72,2.72,0,0,1,.636.516,8.348,8.348,0,0,0,2.448-3.756h.936c-.156,1.884-.336,2.64-.54,2.856-.084.12-.192.132-.36.132s-.576-.012-1.02-.048a1.514,1.514,0,0,1,.2.72c.48.024.924.024,1.188.012a.973.973,0,0,0,.672-.3c.336-.348.528-1.284.708-3.756a3.423,3.423,0,0,0,.036-.36h-5.16a7.5,7.5,0,0,0,.516-.84Zm11.64-3.444H119.08V29.012h1.164Zm-1.8,0H117.3V29.012h1.14Zm-1.776,0h-1.1V29.012h1.1Zm4.344-1.824H114.82v2.472h6.192Zm-6.5,6.816-1.56.444v-2.58H114.2v-.78h-1.248V29.6h1.428v-.8h-3.72v.8h1.488v2.652h-1.356v.78h1.356V35.84c-.6.168-1.164.324-1.62.432l.216.84c1.092-.312,2.52-.732,3.864-1.152Zm1.3-1.608h4.1v1.212h-4.1Zm4.836,2a14.3,14.3,0,0,1-1.572,1.056,4.891,4.891,0,0,1-.768-1.164h2.448V32.888h-5.736v2.568h2.16a11.592,11.592,0,0,1-3.756,2.112,3.812,3.812,0,0,1,.528.636,13.294,13.294,0,0,0,2.736-1.476v2.184h.852V36.056c.072-.06.144-.132.216-.192a5.808,5.808,0,0,0,3.24,3.048,3.47,3.47,0,0,1,.576-.708,5.277,5.277,0,0,1-2.052-1.128,12.82,12.82,0,0,0,1.764-1.044Zm-6.372-4.08v.744h7.32v-.744Zm17.988-1.86a13.879,13.879,0,0,1-.576,1.284l.372.1h-2.544l.492-.132a4.839,4.839,0,0,0-.516-1.248Zm-4.932,4.824c-.468.216-.936.432-1.392.636V31.712h1.236v.036h7.344V31h-2.028c.2-.336.42-.792.648-1.224l-.66-.156h1.764v-.732h-2.988V27.98h-.864v.912h-2.82v.732h1.716l-.564.144A6.031,6.031,0,0,1,129.184,31h-1.992v-.132h-1.26V28.088H125.1v2.784h-1.392v.84H125.1v3.744c-.612.264-1.164.5-1.62.672l.324.888,3.708-1.764Zm1.536.012h4.1v.888h-4.1Zm0-1.476h4.1v.888h-4.1Zm3.672,5.088c-.288,0-.336-.048-.336-.312V35.972h1.644V32.36h-5.82v3.612h1.2c-.264,1.116-.912,1.812-2.856,2.208a2.9,2.9,0,0,1,.5.744c2.16-.528,2.928-1.476,3.228-2.952h1.248v1.8c0,.828.2,1.056,1.08,1.056h1.164c.708,0,.936-.312,1.02-1.644a2.341,2.341,0,0,1-.756-.312c-.024,1.056-.084,1.2-.36,1.2ZM143.1,36.38c-.012-.576-.024-1.584-.036-2.268.9-.42,1.752-.768,2.424-1.032.312-.12.744-.288,1.044-.372l-.384-.9c-.336.168-.624.312-.984.468-.624.288-1.344.576-2.16.96a1.494,1.494,0,0,0-1.572-1.08,3.371,3.371,0,0,0-1.644.444,8.528,8.528,0,0,0,1.068-1.824,36.713,36.713,0,0,0,3.936-.336l.012-.888a31.889,31.889,0,0,1-3.636.36c.168-.54.276-1.032.36-1.368l-.984-.084a6.44,6.44,0,0,1-.3,1.476c-.276.012-.528.012-.78.012-.54,0-1.368-.048-2-.12v.9c.648.048,1.452.072,1.956.072h.492a12.574,12.574,0,0,1-2.736,3.624l.816.612c.408-.48.744-.924,1.08-1.248a3.163,3.163,0,0,1,2.052-.876,1,1,0,0,1,1.068.732c-1.38.72-2.8,1.608-2.8,3.012,0,1.452,1.368,1.812,3.072,1.812a30.6,30.6,0,0,0,3.252-.192l.024-.972a20.921,20.921,0,0,1-3.24.288c-1.224,0-2.148-.132-2.148-1.068,0-.78.768-1.392,1.872-1.992,0,.624-.012,1.392-.048,1.848Zm10.44-2.076c-.2-.324-1.092-1.656-1.428-2.1v-.828h1.368v-.828h-1.368V27.956H151.3v2.592h-1.68v.828H151.2a13.025,13.025,0,0,1-1.824,4.5,4.979,4.979,0,0,1,.456.768A12.53,12.53,0,0,0,151.3,33.3v5.6h.816V33.26c.348.588.768,1.32.936,1.7Zm3.732,1.956v-.876h1.692v.876Zm-2.4-.876h1.584v.876h-1.584Zm1.584-1.464v.828h-1.584V33.92Zm2.508,0v.828h-1.692V33.92Zm-3.036-2.868h1.932v.8h-1.932Zm0-1.44h1.932v.78h-1.932Zm4.632,6.648H159.8V33.248h-2.52V32.54h3.156v-.684H158.7v-.8h1.308v-.66H158.7v-.78h1.488V28.94H158.7v-.984h-.84v.984h-1.932v-.984h-.816v.984h-1.38v.672h1.38v.78h-1.14v.66h1.14v.8H153.46v.684h3v.708h-2.4V36.26h-.816v.7h.816v1.92h.816v-1.92h4.092v1.008c0,.144-.048.192-.192.2-.168,0-.684.012-1.26-.012a3.435,3.435,0,0,1,.252.72,5.435,5.435,0,0,0,1.62-.12c.324-.132.408-.36.408-.78v-1.02h.768Zm4.116-6.648a7.183,7.183,0,0,1,.552,1.188l.732-.216a5.027,5.027,0,0,0-.468-.972h2.256a5.853,5.853,0,0,1-.8.744,6.768,6.768,0,0,1,.768.444,7.557,7.557,0,0,0,1.1-1.188h.948a6.746,6.746,0,0,1,.78,1.212l.756-.264a5.4,5.4,0,0,0-.612-.948h2.676V28.88H169.3c.132-.252.264-.5.372-.768l-.852-.2a5.8,5.8,0,0,1-1.056,1.692v-.72h-3.156q.2-.378.36-.756l-.828-.216a6.6,6.6,0,0,1-1.716,2.448,5.412,5.412,0,0,1,.72.492,8.355,8.355,0,0,0,1.02-1.236Zm-2.016,4.812c1.176-.2,2.784-.456,4.344-.72l-.036-.7c-.576.1-1.152.18-1.7.264V31.8h1.692v-.648h-4.2V31.8h1.692V33.4c-.72.108-1.392.2-1.92.276Zm10.6,1.6v-.732h-4.92v-.912h-.84a2.54,2.54,0,0,0,.972-2.088V31.7h2.544v1.752c0,.636.048.828.216.984a1.009,1.009,0,0,0,.66.2h.552a1.088,1.088,0,0,0,.54-.108.632.632,0,0,0,.336-.384,4.614,4.614,0,0,0,.12-1.128,1.559,1.559,0,0,1-.612-.312c-.012.444-.024.78-.048.924s-.072.228-.132.252a.46.46,0,0,1-.24.036H172.1a.358.358,0,0,1-.192-.036c-.06-.048-.06-.18-.06-.4V31.064h-4.2v1.188c0,.768-.276,1.572-1.872,2.16a3.109,3.109,0,0,1,.576.612,4.19,4.19,0,0,0,1.14-.636v.9h-4.872v.732h4.116a11.539,11.539,0,0,1-4.368,1.872,2.994,2.994,0,0,1,.564.72,11.611,11.611,0,0,0,4.56-2.292v2.568h.852V36.332a11.741,11.741,0,0,0,4.572,2.244,3.934,3.934,0,0,1,.576-.756,11.863,11.863,0,0,1-4.452-1.8Zm-4.632-3.348a8.723,8.723,0,0,1,1.644,1.3l.528-.54a8.01,8.01,0,0,0-1.668-1.224Zm12.012,2.52a1.143,1.143,0,0,1-1.212-1.176,1.207,1.207,0,0,1,1.2-1.248,1.055,1.055,0,0,1,1.056.732C181.792,34.628,181.336,35.192,180.64,35.192Zm1.836-4.3c1.74,0,2.82.024,3.492.06l.012-.9c-.576,0-2.04-.012-3.48-.012h-.18c0-.312.012-.588.012-.768l.06-.744H181.3c.024.144.06.492.072.744.012.168.024.444.024.78-1.764.024-4,.1-5.316.12l.024.936c1.488-.108,3.5-.192,5.3-.2.012.408.012.828.012,1.176a2.383,2.383,0,0,0-.792-.132,2.089,2.089,0,0,0-2.1,2.076A1.914,1.914,0,0,0,180.5,36.02a1.707,1.707,0,0,0,1.02-.3,4.243,4.243,0,0,1-3.156,2.064l.828.8c2.76-.828,3.54-2.616,3.54-4.224a2.9,2.9,0,0,0-.384-1.524c-.012-.54-.024-1.272-.024-1.944ZM193.828,37.6c-.888,0-1.572-.336-1.572-.924,0-.408.408-.732.948-.732a1.587,1.587,0,0,1,1.572,1.584A5.853,5.853,0,0,1,193.828,37.6Zm2.448-8.628a4.255,4.255,0,0,1-.648.1c-.624.06-3.444.144-4.056.144a6.747,6.747,0,0,1-.84-.036l.024,1a5.722,5.722,0,0,1,.8-.072c.612-.036,2.952-.144,3.576-.168-.588.528-2.064,1.776-2.724,2.328-.7.576-2.22,1.848-3.2,2.664l.7.708c1.512-1.536,2.592-2.364,4.548-2.364,1.5,0,2.676.852,2.676,2.016a2.072,2.072,0,0,1-1.476,2.016,2.346,2.346,0,0,0-2.448-2.1,1.688,1.688,0,0,0-1.836,1.56c0,.984,1,1.7,2.616,1.7,2.508,0,4.1-1.248,4.1-3.168,0-1.608-1.428-2.808-3.408-2.808a5.05,5.05,0,0,0-1.608.252c.912-.768,2.508-2.172,3.1-2.616.18-.132.444-.312.66-.456Z" transform="translate(142 1545)"/>
    <g id="グループ_137" data-name="グループ 137" transform="translate(209.862 1402.689)">
      <path id="パス_149" data-name="パス 149" d="M14,278.616a17.732,17.732,0,0,1-5.22-12.571V247.751H0v18.294a26.6,26.6,0,0,0,26.575,26.578h12v-8.784h-12A17.711,17.711,0,0,1,14,278.616Z" transform="translate(0 -196.294)" fill="#1778b1"/>
      <path id="パス_150" data-name="パス 150" d="M58.369,109.952A11.591,11.591,0,1,0,46.777,98.36,11.583,11.583,0,0,0,58.369,109.952Z" transform="translate(-32.929 -82.971)" fill="#1778b1"/>
      <path id="パス_151" data-name="パス 151" d="M86.573,213.942H70.312v-24.2a11.34,11.34,0,1,0-22.679,0v27.576a11.339,11.339,0,0,0,11.338,11.341c.851,0,20.731-.058,20.731-.058L80.79,245.38a6.227,6.227,0,1,0,12.45-.274L93.9,221.27A7.324,7.324,0,0,0,86.573,213.942Z" transform="translate(-33.531 -147.47)" fill="#1778b1"/>
      <path id="パス_152" data-name="パス 152" d="M411.5,247.751v18.294a17.828,17.828,0,0,1-17.791,17.794h-12v8.784h12a26.6,26.6,0,0,0,26.572-26.578V247.751Z" transform="translate(-268.701 -196.294)" fill="#1778b1"/>
      <path id="パス_153" data-name="パス 153" d="M354.356,217.313V189.737a11.341,11.341,0,1,0-22.682,0v24.2H315.413a7.324,7.324,0,0,0-7.327,7.327l.661,23.836a6.227,6.227,0,1,0,12.45.274l1.088-16.782s19.88.058,20.731.058A11.341,11.341,0,0,0,354.356,217.313Z" transform="translate(-216.877 -147.47)" fill="#1778b1"/>
      <rect id="長方形_139" data-name="長方形 139" width="62.877" height="10.701" transform="translate(45.488 51.567)" fill="#1778b1"/>
      <rect id="長方形_140" data-name="長方形 140" width="7.317" height="25.903" transform="translate(72.25 68.013)" fill="#1778b1"/>
      <path id="パス_154" data-name="パス 154" d="M457.268,90.275c-1.121,8.207,6.522,9.1,8.7,6.811-2.275-.454-3.017-5.294-1.88-8.479s2.125-9.405-.851-12.225c-3.809-3.614-9.766-3.246-12.345,1.3.758.911,2.447,1.871,3.337,2.883C456.66,79.657,457.995,84.949,457.268,90.275Z" transform="translate(-317.408 -73.939)" fill="#1778b1"/>
      <path id="パス_155" data-name="パス 155" d="M396.081,109.759a11.6,11.6,0,1,0-9.714-13.223A11.607,11.607,0,0,0,396.081,109.759Z" transform="translate(-271.888 -82.913)" fill="#1778b1"/>
    </g>
  </g>
</svg>
