<svg xmlns="http://www.w3.org/2000/svg" width="320" height="260" viewBox="0 0 320 260">
  <g id="グループ_751" data-name="グループ 751" transform="translate(-120 -2831)">
    <rect id="長方形_144" data-name="長方形 144" width="320" height="260" transform="translate(120 2831)" fill="#f7f7f7"/>
    <path id="パス_12503" data-name="パス 12503" d="M-54.276-7.512h-.492v-.96h.492ZM-53.208-4.2a.262.262,0,0,1-.06-.048c-.024.036-.048.036-.156.036h-.216c-.1,0-.108-.012-.108-.168V-6.324h.54ZM-55.992-.888V-1.7h2.784v.816Zm.528-5.436v.936a2.445,2.445,0,0,1-.528,1.716V-6.324Zm2.148,2.808h.108v.828h-2.784v-.948a3.6,3.6,0,0,1,.5.444,3.31,3.31,0,0,0,.672-2.184v-.948h.42V-4.38c0,.708.156.864.672.864Zm-4-4.956h1.62v.96h-1.392V.972h1.092V.216h2.784v.6h1.14V-7.512H-53.34v-.96h1.488v-1.26H-57.3ZM-49.4-.456c-.468,0-.54-.06-.54-.564V-4.632h1.932v.744h1.38V-9.624h-4.776v1.38h3.4v2.256H-51.36v4.98c0,1.476.42,1.884,1.752,1.884h1.668c1.236,0,1.62-.612,1.764-2.64a4.043,4.043,0,0,1-1.272-.564c-.072,1.584-.144,1.872-.612,1.872Zm7.44-9.672a12.675,12.675,0,0,1-2.676,4.5,9.227,9.227,0,0,1,.768,1.488c.228-.264.468-.54.708-.852V1.032H-41.8V-7.116A22.512,22.512,0,0,0-40.62-9.7ZM-36.3-2.652a5.836,5.836,0,0,1,.276.612l-.6.072V-3.12h1.8V-1.4a11.941,11.941,0,0,0-.648-1.512Zm-2.8-3.432V-6.84h1.224v.756Zm0-2.5h1.224v.756H-39.1Zm3.756.756h-1.284V-8.58h1.284Zm0,1.74h-1.284V-6.84h1.284ZM-33.5-4.308h-3.12v-.708h2.664V-9.648h-6.456v4.632h2.544v.708H-41V1.044h1.344V-3.12h1.788v1.284c-.6.06-1.164.12-1.62.156l.264,1.188c1-.132,2.292-.324,3.564-.5.06.2.108.4.144.552l.7-.24v.4c0,.144-.06.192-.24.192-.156,0-.756.012-1.3-.024a4.387,4.387,0,0,1,.4,1.176,5.106,5.106,0,0,0,1.9-.192c.444-.192.564-.516.564-1.14Zm7.476-3.324h1.956a16.387,16.387,0,0,1-1.3,1.092h-.66Zm2.616,5.244H-27.54v-.768h4.128Zm-4.128,1.9v-.816h4.128v.816Zm7-4.788V-6.54h-2.784a17.552,17.552,0,0,0,2.364-2.64L-22.188-9.8A14.614,14.614,0,0,1-23.424-8.28v-.588h-2.6v-1.3h-1.416v1.3h-2.82v1.236h2.82V-6.54H-31.3v1.26h4.08A21.36,21.36,0,0,1-31.68-3.288,7.863,7.863,0,0,1-30.8-2.112c.612-.228,1.236-.492,1.836-.756V1.056h1.428V.7h4.128v.312h1.488V-4.32H-26.28c.492-.312.948-.624,1.416-.96Zm10.92,1.236v2.988H-12.3V-4.68h3.684V-9.036h-1.5v2.964H-12.3v-3.972h-1.464v3.972h-2.064V-9.036h-1.416V-4.68h3.48v3.624h-2.508V-4.044h-1.452V1.044h1.452v-.7h6.648v.684h1.488V-4.044ZM-2.112-2.52a7.055,7.055,0,0,0,.684-.9H.384v.9Zm3.9,1.092H4.356V-2.52H1.788v-.9H4.7V-4.512H1.788V-5.4H.384v.888H-.828c.1-.216.192-.432.264-.648l-1.26-.288a5.648,5.648,0,0,1-1.512,2.34,6.276,6.276,0,0,1,1.128.684l.084-.084v1.08H.384V-.372H-3.06V.8H5.352V-.372H1.788ZM1.644-8.076a10.212,10.212,0,0,1-.432,1.212l.216.06h-2.82l.36-.1a5.365,5.365,0,0,0-.444-1.176ZM2.58-6.8c.228-.36.492-.816.768-1.272H4.836V-9.288H.744v-.876H-.684v.876H-4.74v1.212h2.076L-2.928-8a6.136,6.136,0,0,1,.456,1.2H-4.644v1.932A9.24,9.24,0,0,1-5.724.108a5.663,5.663,0,0,1,1.1.9C-3.492-.636-3.276-3.18-3.276-4.86v-.72h8.7V-6.8ZM15.816-4.38H11.964l-.1-.648-1.1.312V-6.552h.792V-5.46h4.26ZM18.54-5.46V-6.78H15.816V-7.8h2.208V-9.1H15.816v-1.068H14.4V-9.1H12.276v1.3H14.4v1.02H11.76V-7.908h-1v-2.244H9.456v2.244H8.892q.108-.72.18-1.44L7.884-9.54A14.593,14.593,0,0,1,7.2-5.676a7.64,7.64,0,0,1,1.008.648,9.708,9.708,0,0,0,.444-1.524h.8v2.208c-.8.216-1.548.408-2.136.54l.336,1.368c.54-.156,1.152-.336,1.8-.528V1.044h1.308v-4.4c.348-.108.708-.228,1.056-.336v.636h1.452l-1.032.636A9.6,9.6,0,0,1,13.608-.54l1.14-.732a9.411,9.411,0,0,0-1.44-1.788h2.508V-.576c0,.156-.048.192-.252.2s-.84,0-1.44-.024a5.2,5.2,0,0,1,.432,1.416A5.447,5.447,0,0,0,16.62.78c.48-.228.6-.612.6-1.332V-3.06h1.212V-4.38H17.22V-5.46Zm3.708-2.892H24.5v1.644H22.248Zm1.224,3.9c.024-.324.048-.66.072-.984h2.34V-9.612H20.952v4.176h1.2c-.1,1.992-.336,4.152-1.908,5.448a3.749,3.749,0,0,1,.948,1.044A6.808,6.808,0,0,0,23.3-3.2h1.332c-.084,1.9-.192,2.664-.372,2.868a.432.432,0,0,1-.4.156,9.668,9.668,0,0,1-1.176-.06A2.926,2.926,0,0,1,23.052,1,8.855,8.855,0,0,0,24.5.96a1.255,1.255,0,0,0,.9-.444c.336-.408.456-1.56.576-4.452,0-.168.012-.516.012-.516Zm4.7-4.26H26.784v6.756h1.392ZM29.6-9.924v9.24c0,.216-.1.288-.324.288-.252,0-1.02,0-1.8-.024a5.214,5.214,0,0,1,.492,1.476A6.374,6.374,0,0,0,30.36.78c.492-.228.66-.624.66-1.464v-9.24ZM44.34-5.868V-7.26H41.208V-9.972H39.792V-7.26H36.744v1.392h2.484a11.386,11.386,0,0,1-2.964,4.344V-7.116A18.935,18.935,0,0,0,37.5-9.648L36.084-10.1A12.311,12.311,0,0,1,33.048-5.5,10.361,10.361,0,0,1,33.876-4a10.877,10.877,0,0,0,.984-1.08v6.1h1.4v-2.4a7.914,7.914,0,0,1,.972,1.056A12.194,12.194,0,0,0,39.792-3.96v5h1.416V-4.2A12.267,12.267,0,0,0,43.632-.384,5.087,5.087,0,0,1,44.7-1.524a11.737,11.737,0,0,1-2.868-4.344Zm12.828-3.84H53.952v1.2h1.992v1.692H53.952v1.2h3.216ZM48.576-8.04v2.28H47.76V-8.04ZM47.76-2.184V-4.536h.816v2.352Zm1.956-7.1h-3.06v9.3h1.1V-.936h1.956Zm2.628.756v1.788h-.828V-8.532ZM53.5-1.3V-2.472h-1.98V-3.5h1.836V-4.668H51.516V-5.58H53.58V-9.708H50.208V1.02h1.308V-1.3Zm2.376-2.556a7.513,7.513,0,0,1-.564,1.488,8.367,8.367,0,0,1-.516-1.488Zm.66-1.188L56.3-5H53.64v1.152h.9l-.816.168a11.523,11.523,0,0,0,.84,2.4,4.894,4.894,0,0,1-1.9,1.308,4.447,4.447,0,0,1,.708,1.044,6.538,6.538,0,0,0,1.9-1.26A4.639,4.639,0,0,0,56.664,1.02,4.716,4.716,0,0,1,57.5-.012a4.207,4.207,0,0,1-1.452-1.152,9.042,9.042,0,0,0,1.272-3.672Z" transform="translate(280 2869.646)"/>
    <path id="パス_12353" data-name="パス 12353" d="M10.371-58.271H-23.115v-9.58H27.466l-42.8,70.181-8.13-5.142Z" transform="translate(331 3018)" fill="#1778b1"/>
    <path id="パス_12506" data-name="パス 12506" d="M40.948,9.968v3.324H37.576V9.2h3.8V5.1h-.924v3.24h-2.88V4.028h-.912V8.336H33.916V5.1h-.888V9.2h3.636v4.092h-3.2V9.968h-.888v4.944h.888v-.744h7.488v.72h.912V9.968ZM51.52,12.38h2.868v-.72H51.52V10.4H54.7V9.68H51.52V8.612h-.888V9.68h-1.86a6.617,6.617,0,0,0,.4-.9l-.8-.192a6.309,6.309,0,0,1-1.536,2.5,4.9,4.9,0,0,1,.7.432,7.771,7.771,0,0,0,.852-1.116h2.256v1.26H47.92v.72h2.712v1.512H46.9v.768h8.52v-.768h-3.9ZM52.2,5.8a13.94,13.94,0,0,1-.648,1.572l.42.144h-3.66l.54-.156A5.14,5.14,0,0,0,48.2,5.8Zm.12,1.716c.276-.444.6-1.044.9-1.608L52.78,5.8h2.088V5.036H50.584V3.956h-.876v1.08H45.5V5.8H47.98l-.612.168A6.6,6.6,0,0,1,48,7.52H45.676V9.38a9.354,9.354,0,0,1-1.092,4.956,3.424,3.424,0,0,1,.684.564,10.614,10.614,0,0,0,1.26-5.52V8.312H55.48V7.52Zm15.468.828-.18.072H65.14l.2-.312c-.336-.18-.8-.408-1.3-.624a18.558,18.558,0,0,0,3.12-2.436l-.648-.492-.2.048h-7.4v.828h6.54a13.919,13.919,0,0,1-2.28,1.644C62.44,6.752,61.66,6.428,61,6.164l-.456.66C61.612,7.28,62.98,7.9,64,8.42H57.784v.852h4.944v4.512c0,.18-.072.228-.288.24-.24.012-1.044.024-1.872-.012a5.131,5.131,0,0,1,.336.864,8.646,8.646,0,0,0,2.16-.144c.42-.132.564-.384.564-.936V9.272h3.408a13.1,13.1,0,0,1-1.4,1.872l.72.456A16.689,16.689,0,0,0,68.5,8.684Zm4.164-2.172h8.172V7.928h.912V5.336H76.5V3.968H75.58V5.336h-4.5V7.928h.876Zm4.548,5.1h3.552v-.828H76.5V8.456h3.06v-.84H72.616v.84h2.976v5.028a3.6,3.6,0,0,1-2.208-2.316,15.146,15.146,0,0,0,.288-1.6l-.912-.084c-.264,2.148-.912,3.852-2.244,4.884a4.659,4.659,0,0,1,.732.6A6.574,6.574,0,0,0,73.036,12.3c1.092,2.028,2.88,2.46,5.364,2.46h2.784a2.63,2.63,0,0,1,.336-.9c-.576.012-2.64.012-3.072.012a10.955,10.955,0,0,1-1.944-.144Zm9.576,1.848V9.776h5.952v3.348ZM92.032,5.66V8.9H86.08V5.66ZM85.18,4.784v10h.9V14h5.952v.732h.936V4.784ZM97.036,14h4.824v-.912H100.1V5.2h-.84a5.573,5.573,0,0,1-1.824.624v.7h1.56v6.564H97.036ZM108.1,8.564c.168-.36.324-.756.432-1.056a5.749,5.749,0,0,1,.228-.624l-1.068-.228a4.607,4.607,0,0,1-.132.708,5.867,5.867,0,0,1-.648,1.536,8.058,8.058,0,0,1-1.812,2.088l.876.516a9.594,9.594,0,0,0,1.68-2.088h2.568a5.7,5.7,0,0,1-2.136,4.38,4.916,4.916,0,0,1-.936.552l.948.624c1.776-1.08,2.856-2.784,3.048-5.556h1.764c.24,0,.624.012.936.036V8.5a6.433,6.433,0,0,1-.936.06Zm11.736,1.764a15.066,15.066,0,0,0,.132-2.016h5.484v2.016Zm5.616-4.86V7.46h-5.484V5.468Zm.924-.876h-7.308V8.264c0,1.908-.192,4.344-2.1,6.024a3.377,3.377,0,0,1,.66.648,6.769,6.769,0,0,0,2.064-3.732h5.76v2.4c0,.264-.1.348-.372.36s-1.236.012-2.244-.024a3.779,3.779,0,0,1,.384.924,9.649,9.649,0,0,0,2.532-.168c.444-.144.624-.456.624-1.08Zm5.424,6.984v-1.2h2.652v1.2ZM134.452,8.5V9.68H131.8V8.5Zm.864-.768h-4.368v7.128h.852v-2.58h2.652v1.6c0,.156-.048.2-.228.216-.156.012-.7.012-1.3-.012a3.423,3.423,0,0,1,.288.78,4.875,4.875,0,0,0,1.668-.144c.324-.144.432-.372.432-.828Zm3.864,6.06c0,.18-.06.228-.264.24-.18.012-.828.012-1.56-.012a3.54,3.54,0,0,1,.324.852,5.861,5.861,0,0,0,1.9-.156c.36-.144.48-.384.48-.924V7.5h-.876ZM137.6,7.856h-.828v4.872h.828Zm.456-2c.348-.492.744-1.08,1.068-1.632l-.936-.312a13.535,13.535,0,0,1-1.128,1.944H133.48l.588-.228a8.151,8.151,0,0,0-1.2-1.68l-.816.312a8.229,8.229,0,0,1,1.092,1.6H130.2v.816H140.86V5.852Zm8.58-1.3a13.964,13.964,0,0,1-.3,2.58c-.72.06-1.416.12-1.812.132a10.332,10.332,0,0,1-1.056,0l.1,1.044c.312-.048.792-.108,1.068-.144.312-.036.888-.1,1.5-.156a18.618,18.618,0,0,1-2.5,5.892l.984.4a23.843,23.843,0,0,0,2.5-6.384c.516-.048.984-.084,1.272-.084.756,0,1.248.192,1.248,1.272a10.214,10.214,0,0,1-.552,3.636,1,1,0,0,1-1.044.612,5.849,5.849,0,0,1-1.452-.264l.156,1.008a7.106,7.106,0,0,0,1.392.18,1.672,1.672,0,0,0,1.74-1,11.421,11.421,0,0,0,.7-4.284c0-1.608-.876-2.016-1.932-2.016-.288,0-.78.036-1.332.072.132-.636.24-1.332.3-1.68.048-.228.1-.48.144-.7Zm4.32,1.764a14.287,14.287,0,0,1,2.124,4.308l.936-.444a20.872,20.872,0,0,0-2.172-4.248Zm8.28-.78c.912.252,3.492.78,4.62.936l.228-.936a31.772,31.772,0,0,1-4.6-.912Zm-.012,1.248-1.02-.132a42.036,42.036,0,0,1-.6,4.824l.9.216a2.482,2.482,0,0,1,.36-.6,4.616,4.616,0,0,1,3.672-1.572c1.212,0,2.088.66,2.088,1.608,0,1.62-1.836,2.7-5.58,2.244l.288.984c4.416.372,6.3-1.068,6.3-3.2,0-1.392-1.212-2.484-3.036-2.484a5.625,5.625,0,0,0-3.84,1.428C158.86,9.332,159.064,7.6,159.22,6.788ZM169.456,14h4.824v-.912h-1.764V5.2h-.84a5.573,5.573,0,0,1-1.824.624v.7h1.56v6.564h-1.956Zm9.756-2.808a5.961,5.961,0,0,1-.96,2.064,3.7,3.7,0,0,1,.576.384,7.805,7.805,0,0,0,1.08-2.292Zm3.564-.576v-.7H178.8v.7h1.62v3.3c0,.108-.024.132-.144.144s-.444.012-.864,0a2.5,2.5,0,0,1,.252.708,2.831,2.831,0,0,0,1.188-.144c.264-.12.324-.324.324-.708v-3.3Zm.324,2.376a7.561,7.561,0,0,0-.9-1.788l-.6.228a8.066,8.066,0,0,1,.876,1.824Zm1.74-5.784-.384.3a10.373,10.373,0,0,1,1.1.8h-1.7c-.048-.36-.072-.732-.1-1.1Zm1.008,2.328a8.244,8.244,0,0,1-1.14,2.328,13.817,13.817,0,0,1-.756-2.832h3.264v-.72h-.888l.12-.12a7.827,7.827,0,0,0-1.332-.984h2.16V6.464H182.62V5.48h3.516V4.808H182.62v-.84h-.876v2.5H179.56V4.508h-.84V6.464H176.8v.744h6.156c.012.372.048.744.1,1.1h-5.58v2a7.034,7.034,0,0,1-1.008,4.1,4.07,4.07,0,0,1,.672.528,8.1,8.1,0,0,0,1.164-4.62v-1.3h4.848a15.354,15.354,0,0,0,1.008,3.552,8.674,8.674,0,0,1-2.172,1.728,4.181,4.181,0,0,1,.6.624,8.9,8.9,0,0,0,1.956-1.6c.564,1.008,1.224,1.62,1.86,1.62.72,0,1.02-.48,1.152-2.148a2.113,2.113,0,0,1-.672-.384c-.048,1.212-.168,1.728-.42,1.728-.408,0-.912-.54-1.38-1.464A9.835,9.835,0,0,0,186.652,9.7Zm5.28-4.62a7.105,7.105,0,0,1-.084.84,33.008,33.008,0,0,0-.528,4.764,14.883,14.883,0,0,0,.432,3.816l.864-.06-.036-.42a2.966,2.966,0,0,1,.06-.528,25.8,25.8,0,0,1,.84-2.664l-.516-.384c-.192.468-.456,1.164-.66,1.7a12.407,12.407,0,0,1-.1-1.632A27.344,27.344,0,0,1,191.98,5.8c.048-.216.156-.6.228-.8Zm2.928,5.76a6.887,6.887,0,0,0-.192,1.4c0,1.116.888,1.776,2.88,1.776a15.792,15.792,0,0,0,2.964-.24l-.012-1.008a12.918,12.918,0,0,1-2.94.312c-1.632,0-1.992-.528-1.992-1.068a4.413,4.413,0,0,1,.156-1.092Zm.408-3.78a30.019,30.019,0,0,0,4.872,0V5.912a20.772,20.772,0,0,1-4.884,0Zm18.612.816a17.972,17.972,0,0,0-2.784-1.584l-.468.744A14.274,14.274,0,0,1,212.536,8.5Zm-4.32-1.8a12.152,12.152,0,0,1-1.848.432c.192-.684.348-1.4.468-1.836l-1.068-.1a9.741,9.741,0,0,1-.372,2.052c-.456.036-.9.06-1.32.06a11.193,11.193,0,0,1-1.464-.084l.072.9c.444.024.936.036,1.38.036q.522,0,1.044-.036a17.046,17.046,0,0,1-2.544,4.44l.936.48a21.353,21.353,0,0,0,2.592-5.028A14.137,14.137,0,0,0,208.78,6.8Zm.624,6.636c0,.588-.324,1.128-1.3,1.128-.924,0-1.368-.372-1.368-.924s.576-.936,1.452-.936a4.327,4.327,0,0,1,1.2.168C209.38,12.2,209.38,12.392,209.38,12.548Zm-.168-4.368c.024.828.084,1.992.12,2.964a5.624,5.624,0,0,0-1.128-.108c-1.344,0-2.376.708-2.376,1.8,0,1.176,1.068,1.716,2.376,1.716,1.464,0,2.088-.78,2.088-1.728,0-.132,0-.3-.012-.48a8.267,8.267,0,0,1,1.908,1.356l.516-.816a8.02,8.02,0,0,0-2.46-1.488c-.024-.72-.072-1.5-.084-1.932a11.561,11.561,0,0,1,.012-1.284ZM220.888,13.6c-.888,0-1.572-.336-1.572-.924,0-.408.408-.732.948-.732a1.587,1.587,0,0,1,1.572,1.584A5.853,5.853,0,0,1,220.888,13.6Zm2.448-8.628a4.255,4.255,0,0,1-.648.1c-.624.06-3.444.144-4.056.144a6.747,6.747,0,0,1-.84-.036l.024,1a5.721,5.721,0,0,1,.8-.072c.612-.036,2.952-.144,3.576-.168-.588.528-2.064,1.776-2.724,2.328-.7.576-2.22,1.848-3.2,2.664l.7.708c1.512-1.536,2.592-2.364,4.548-2.364,1.5,0,2.676.852,2.676,2.016a2.072,2.072,0,0,1-1.476,2.016,2.346,2.346,0,0,0-2.448-2.1,1.688,1.688,0,0,0-1.836,1.56c0,.984,1,1.7,2.616,1.7,2.508,0,4.1-1.248,4.1-3.168,0-1.608-1.428-2.808-3.408-2.808a5.05,5.05,0,0,0-1.608.252c.912-.768,2.508-2.172,3.1-2.616.18-.132.444-.312.66-.456Zm10.536,7.632c0,.816-.576,1.02-1.26,1.02-1.176,0-1.644-.408-1.644-.96s.612-.972,1.74-.972a6.05,6.05,0,0,1,1.152.108C233.86,12.128,233.872,12.4,233.872,12.608Zm4.332.408a9.755,9.755,0,0,0-3.456-1.848c-.024-.564-.06-1.188-.084-1.8,1.128-.048,2.184-.132,3.3-.276l-.012-.9a32.058,32.058,0,0,1-3.3.312V6.8c1.116-.06,2.136-.156,3.072-.252l-.012-.876a26.424,26.424,0,0,1-3.048.288c0-.288,0-.516.012-.66a6.115,6.115,0,0,1,.06-.792h-1.02a6.651,6.651,0,0,1,.036.708V6h-.612a18.945,18.945,0,0,1-2.784-.228v.888c.708.084,1.968.18,2.8.18h.588v1.7H233.1a21.142,21.142,0,0,1-2.988-.228v.912c.852.1,2.172.168,2.988.168h.66c.012.492.036,1.056.06,1.584a6.709,6.709,0,0,0-1-.072c-1.716,0-2.76.732-2.76,1.812,0,1.152.948,1.764,2.652,1.764,1.548,0,2.1-.852,2.1-1.668,0-.18-.012-.444-.024-.744a8.826,8.826,0,0,1,2.868,1.788Zm11.4-5.244-.612.264a11.14,11.14,0,0,1,.984,1.692l.612-.288A14.243,14.243,0,0,0,249.6,7.772Zm1.308-.5-.6.276a10.688,10.688,0,0,1,1.02,1.668l.624-.288A18.126,18.126,0,0,0,250.912,7.268Zm-9.1-1.164.108,1.056c1.284-.264,4.524-.576,5.568-.7a4.8,4.8,0,0,0-2.208,4.008c0,2.652,2.508,3.828,4.7,3.924l.348-1.008c-1.932-.072-4.092-.8-4.092-3.12a4.155,4.155,0,0,1,2.712-3.756,9.847,9.847,0,0,1,2.328-.192V5.36c-.792.036-1.908.1-3.2.2-2.184.192-4.428.408-5.208.48C242.644,6.068,242.272,6.092,241.816,6.1Z" transform="translate(142 3057)"/>
    <path id="パス_12504" data-name="パス 12504" d="M8.428-7.42v1.232H6.076V-7.42ZM11.8-6.188H9.366V-7.42H11.8ZM9.366-4.144V-5.418H11.8v1.274Zm-3.29,0V-5.418H8.428v1.274Zm0,.8H8.428v2.268h.938V-3.346H11.8v1.274c0,.182-.056.238-.238.238s-.77.014-1.428-.014a3.253,3.253,0,0,1,.294.854,6.161,6.161,0,0,0,1.89-.154c.364-.154.476-.406.476-.91v-6.16H11.032c-.308-.168-.672-.364-1.078-.56A12.378,12.378,0,0,0,12.782-10.7l-.644-.49-.2.056H5.11v.826h5.838A10.708,10.708,0,0,1,9.03-9.2c-.658-.28-1.344-.56-1.946-.77l-.658.588c.84.308,1.834.756,2.66,1.162H5.1v7.2h.98Zm-2.114-5.8A10.494,10.494,0,0,0,1.6-11.4l-.728.644A10.712,10.712,0,0,1,3.192-8.428ZM3.654-6.23H.63v.98H2.646v3.6A24.212,24.212,0,0,1,.462-.07L.966.938C1.764.35,2.506-.252,3.22-.868A4.8,4.8,0,0,0,7.168.8C8.708.868,11.676.84,13.23.77a5.149,5.149,0,0,1,.322-1.022C11.886-.14,8.694-.1,7.168-.168,5.53-.224,4.326-.686,3.654-1.736Zm16.87,4.074a2.068,2.068,0,0,0,.014-.294v-.91h3.556v1.2ZM18.662-4.9H25.8v.84h-7.14Zm0-1.47H25.8v.8h-7.14Zm0-1.484H25.8v.812h-7.14Zm5.726-1.96a7.29,7.29,0,0,1,.938,1.26H22.19a8.171,8.171,0,0,0,1.078-1.26ZM28.35-2.156H25.144v-1.2h1.722V-8.554H25.48l.742-.336a4.772,4.772,0,0,0-.658-.924h2.66v-.854H23.772a6.874,6.874,0,0,0,.392-.868l-.994-.224a6.329,6.329,0,0,1-1.946,2.744,5,5,0,0,1,.84.462H19.32l.756-.294a5.27,5.27,0,0,0-.532-.966h2.394v-.854H18.27c.14-.28.28-.56.406-.84l-.952-.252a7.665,7.665,0,0,1-2.058,2.884,5.292,5.292,0,0,1,.854.56,9.776,9.776,0,0,0,1.232-1.5h.714a7.649,7.649,0,0,1,.686,1.26H17.64V-3.36h1.876v.91a2.273,2.273,0,0,1-.014.294H15.96v.868h3.206a4.883,4.883,0,0,1-2.982,1.6,3.764,3.764,0,0,1,.644.784c2.24-.658,3.15-1.512,3.5-2.38h3.766V1.05h1.05V-1.288H28.35Z" transform="translate(261 3017)" fill="#1778b1"/>
    <path id="パス_12505" data-name="パス 12505" d="M3.57-1.022V-4.928h6.944v3.906ZM10.514-9.73v3.78H3.57V-9.73ZM2.52-10.752V.91H3.57V0h6.944V.854h1.092V-10.752Zm17.962.448v1.162H17.458V-10.3ZM17.458-7.14V-8.372h3.024V-7.14Zm4.018.8v-4.774H16.422V1.078h1.036v-7.42ZM23.73-4.494v1.3H20.44v-1.3ZM20.44-1.05V-2.408h3.29V-1.05ZM24.7-.224V-5.292H19.5V.476h.938v-.7Zm-.98-6.9V-8.372h3.136v1.246ZM26.852-10.3v1.162H23.716V-10.3Zm1.05-.812h-5.18v4.788h4.13V-.322c0,.252-.084.336-.322.336S25.424.042,24.57,0a3.834,3.834,0,0,1,.364,1.064A7.969,7.969,0,0,0,27.286.882C27.748.7,27.9.35,27.9-.308Z" transform="translate(356 3017)" fill="#1778b1"/>
    <g id="グループ_150" data-name="グループ 150" transform="translate(42.521 2898.236)">
      <path id="パス_169" data-name="パス 169" d="M183.98,46.954C182.459,15.784,146.754,0,141.817,0S101.174,15.784,99.655,46.954c-1.364,27.979,4.557,91.538,42.162,91.538S185.344,74.933,183.98,46.954ZM138.155,22.571a26.34,26.34,0,0,1,7.982.179,5.95,5.95,0,0,1,.474.62,9.08,9.08,0,0,1,1.352,5.154,21.8,21.8,0,0,1-1.54,7.471,25.427,25.427,0,0,1-6.791-7.739,11.417,11.417,0,0,1-1.486-5.3C138.145,22.81,138.149,22.684,138.155,22.571Zm-2.562.452a14.019,14.019,0,0,0,1.781,6.424,22.407,22.407,0,0,0,2.648,3.893c-1.142-.46-2.288-.892-3.362-1.344a13.416,13.416,0,0,1-4.575-2.815,6.143,6.143,0,0,1-1.3-2.02,7.511,7.511,0,0,1-.47-2.321A26.4,26.4,0,0,1,135.593,23.023Zm28.844,80.918a1.492,1.492,0,0,1-2.1.117L134.209,78.9a30.99,30.99,0,0,0,5.377.814l6.585,5.892,7.382-8.248a30.477,30.477,0,0,0,4.056-2.084,1.484,1.484,0,0,1,.019,1.995L148.39,87.589l15.929,14.251A1.49,1.49,0,0,1,164.436,103.942Zm10.1-48.753a4.934,4.934,0,0,1-5.152,1.167l-2.015-.709-.7,2.017a26.589,26.589,0,0,1-50.181.138l-.661-1.867-1.908.523a4.892,4.892,0,0,1-1.317.185,4.963,4.963,0,0,1,0-9.927c.09,0,.217.008.4.021l1.974.155.3-1.956a26.65,26.65,0,0,1,12.621-18.81,9.277,9.277,0,0,0,.54,2.02,8.649,8.649,0,0,0,1.593,2.568,13.093,13.093,0,0,0,4.064,2.916c2.24,1.1,4.66,1.863,6.694,2.813a13.674,13.674,0,0,1,2.681,1.575,6.332,6.332,0,0,1,1.76,2.055,1.275,1.275,0,0,0,2.288-.054c2.207-4.783,3-8.544,3-11.5a12.679,12.679,0,0,0-.911-4.93,26.614,26.614,0,0,1,18.247,21.4l.313,2.111,2.111-.322a5.036,5.036,0,0,1,.754-.066,4.963,4.963,0,0,1,3.508,8.474Z" fill="#1778b1"/>
    </g>
  </g>
</svg>
