<svg xmlns="http://www.w3.org/2000/svg" width="320" height="260" viewBox="0 0 320 260">
  <g id="グループ_752" data-name="グループ 752" transform="translate(-480 -2868)">
    <rect id="長方形_145" data-name="長方形 145" width="320" height="260" transform="translate(480 2868)" fill="#f7f7f7"/>
    <path id="パス_12507" data-name="パス 12507" d="M-61.2-6.468h2.112v.84H-61.2Zm0-1.932h2.112v.828H-61.2Zm5.7.828h-2.148V-8.4H-55.5Zm0,1.944h-2.148v-.84H-55.5Zm-2.46,2c.048-.276.1-.54.132-.828H-54V-9.576h-8.628v5.124h3.3c-.036.288-.084.564-.132.828h-3.972V-2.34h3.5c-.564.96-1.68,1.668-4.02,2.124A3.83,3.83,0,0,1-63.2,1.032c3.024-.66,4.3-1.824,4.9-3.372h3.156c-.132,1.188-.312,1.788-.528,1.968a.789.789,0,0,1-.528.12c-.324,0-1.08-.012-1.824-.072A2.829,2.829,0,0,1-57.564.984c.756.012,1.488.024,1.908-.012A1.678,1.678,0,0,0-54.468.5c.384-.384.624-1.368.816-3.552.024-.192.048-.576.048-.576ZM-42.648-.7V-3.1h2.2V-4.428h-2.2V-6.4H-40.2V-7.74h-2.448v-2.352h-1.428V-7.74h-.96c.12-.54.216-1.1.3-1.668L-46.128-9.6a14.524,14.524,0,0,1-.636,2.928,13.759,13.759,0,0,0-.66-1.512l-.7.288v-2.268h-1.428v2.448l-1.008-.144a14.262,14.262,0,0,1-.588,3.12l1.056.384a15.292,15.292,0,0,0,.54-3.18v8.58h1.428v-8.2a8.344,8.344,0,0,1,.456,1.38l.684-.312c-.12.252-.24.48-.36.7a12.619,12.619,0,0,1,1.272.648A8.2,8.2,0,0,0-45.4-6.4h1.32v1.968h-2.316V-3.1h2.316V-.7h-3.2V.66h7.464V-.7Zm7.524-1.464c-.444,0-.924-.588-.924-1.788a3.726,3.726,0,0,1,3.012-3.444,19.075,19.075,0,0,1-.636,2.88C-34.152-2.9-34.632-2.16-35.124-2.16ZM-31.86.492c3-.456,4.536-2.232,4.536-4.728a4.535,4.535,0,0,0-4.8-4.644A5.3,5.3,0,0,0-37.6-3.792c0,2,1.116,3.456,2.424,3.456S-32.844-1.8-32.136-4.2a25.825,25.825,0,0,0,.708-3.228,2.941,2.941,0,0,1,2.484,3.144,3.217,3.217,0,0,1-2.7,3.18c-.312.072-.648.132-1.1.192Zm10.152-2.328v-.576h4.548v.576ZM-17.16-3.96v.576h-4.548V-3.96Zm1.452-1.152h-7.428V1.044h1.428v-1.9h4.548V-.3c0,.168-.06.228-.276.228-.18.012-.948.012-1.524-.024a5.664,5.664,0,0,1,.42,1.14,7.492,7.492,0,0,0,2.172-.18c.492-.18.66-.48.66-1.152ZM-17.6-7.9l-.576.348c.252.18.516.384.78.6-1.26.024-2.508.036-3.672.06.276-.324.564-.672.828-1.008Zm3.468,0V-9.144H-18.72v-1.02h-1.464v1.02h-4.584V-7.9h2.724c-.192.336-.408.7-.636,1.02l-1.668.024.036,1.284c2.1-.048,5.232-.132,8.22-.24a8,8,0,0,1,.72.768l1.26-.8a15.954,15.954,0,0,0-2.4-2.052ZM-8.9-3.18c-.18,1.512-.528,2.5-3.228,3.024a4.269,4.269,0,0,1,.8,1.284C-8.184.36-7.6-1.068-7.356-3.18ZM-5.748-3.2v2.46c0,1.3.336,1.74,1.716,1.74h1.464C-1.428,1-1.056.516-.9-1.368a4.345,4.345,0,0,1-1.32-.564c-.048,1.38-.108,1.584-.492,1.584h-1.1c-.408,0-.468-.06-.468-.42V-3.2Zm-5.088-6.624v6.516h1.392V-9.828Zm2.8.156V-3.5H-2V-9.672Zm1.38,1.224h3.2v1.284h-3.2Zm0,2.412h3.2v1.308h-3.2Zm18.6.168V-7.26H8.808V-9.972H7.392V-7.26H4.344v1.392H6.828A11.386,11.386,0,0,1,3.864-1.524V-7.116A18.935,18.935,0,0,0,5.1-9.648L3.684-10.1A12.312,12.312,0,0,1,.648-5.5,10.362,10.362,0,0,1,1.476-4a10.877,10.877,0,0,0,.984-1.08v6.1h1.4v-2.4A7.914,7.914,0,0,1,4.836-.324,12.194,12.194,0,0,0,7.392-3.96v5H8.808V-4.2A12.267,12.267,0,0,0,11.232-.384,5.087,5.087,0,0,1,12.3-1.524,11.737,11.737,0,0,1,9.432-5.868Zm8.976-1.176c-.132.324-.276.672-.42.96H18.252l.2-.036a5.91,5.91,0,0,0-.408-.924Zm3.876,5.352V-2.868H20.124V-3.4h3.6V-4.428h-3.6v-.54h4.164V-6.084H21.936c.18-.288.372-.612.564-.96h2.256V-8.208H23.2c.276-.42.6-.96.936-1.512l-1.5-.36a9.667,9.667,0,0,1-.756,1.74l.432.132H21.24v-1.956H19.9v1.956h-.888v-1.956H17.676v1.956H16.584l.588-.216a9.08,9.08,0,0,0-.912-1.692l-1.224.42a10.756,10.756,0,0,1,.744,1.488H14.172v1.164H16.68l-.144.024a5.392,5.392,0,0,1,.408.936h-2.28v1.116H18.72v.54H15.264V-3.4H18.72v.528H14.136v1.176H17.58a12.607,12.607,0,0,1-3.792,1.4A6.656,6.656,0,0,1,14.7.9a11.383,11.383,0,0,0,4.02-1.944V1.044h1.4v-2.16A10.243,10.243,0,0,0,24.156.912a6.713,6.713,0,0,1,.96-1.3,10.721,10.721,0,0,1-3.8-1.308Zm11-.588a4.568,4.568,0,0,1-.876.768,4.559,4.559,0,0,1-.372-.768ZM30.768-3.324v-.624c.6-.084,1.164-.18,1.656-.288l-.78-.8H35.2l-.744.78a7.854,7.854,0,0,1,1.752.936h-1.98a9.072,9.072,0,0,1-.2-1.56H32.652a12.6,12.6,0,0,0,.192,1.56ZM36.012-2.28h1.8V-3.324H36.636l.636-.708a8.489,8.489,0,0,0-1.9-1.008h2.376V-6.12H33.108v-.444h3.48v-.984h-3.48V-7.98h4.116V-9.036H35.148c.192-.24.408-.54.624-.852l-1.584-.3a6.933,6.933,0,0,1-.528,1.152H31.248a3.887,3.887,0,0,0-.732-1.116l-1.248.4a4.883,4.883,0,0,1,.456.72H27.6V-7.98h4.044v.432H28.236v.984h3.408v.444H27.06v1.08h4.4a29.718,29.718,0,0,1-4.224.492,4.016,4.016,0,0,1,.3.852c.588-.012,1.236-.048,1.872-.108v.48H27.036V-2.28h2.376v.528C28.5-1.7,27.66-1.668,27-1.644l.108,1.092c.672-.048,1.464-.1,2.3-.168v.48c0,.156-.06.2-.24.2a13.152,13.152,0,0,1-1.356-.012,4.625,4.625,0,0,1,.408,1.092,6.225,6.225,0,0,0,1.968-.18c.444-.156.576-.432.576-1.068V-.816L32.556-.96l.012-.96-1.8.1V-2.28h2.34a6.72,6.72,0,0,0,.6,1.428A13.133,13.133,0,0,1,31.3-.1a6.668,6.668,0,0,1,.7,1.128A13.569,13.569,0,0,0,34.428.108a2.818,2.818,0,0,0,2.052.924c.948,0,1.344-.288,1.536-1.632a2.928,2.928,0,0,1-1.044-.552c-.06.672-.132.888-.42.888a1.441,1.441,0,0,1-.9-.348,6.376,6.376,0,0,0,1.4-1.308Zm11.964-1.2c.048-.348.084-.708.12-1.068H46.668a10.016,10.016,0,0,1-.12,1.068H44.8v1.188h1.452A3.847,3.847,0,0,1,43.74-.06a4.036,4.036,0,0,1,.828,1.1,4.794,4.794,0,0,0,3.156-3.336h1.392A3.653,3.653,0,0,1,48.66-.5a.489.489,0,0,1-.384.132,10.163,10.163,0,0,1-1.032-.06,3.1,3.1,0,0,1,.384,1.32A9.169,9.169,0,0,0,48.972.864a1.319,1.319,0,0,0,.876-.42C50.2.06,50.412-.864,50.6-2.94c.024-.168.048-.54.048-.54Zm.528-4.3a3.646,3.646,0,0,1-.792,1.02,4.706,4.706,0,0,1-1-1.02Zm2.28,0V-8.964h-3.54a8.044,8.044,0,0,0,.444-.84l-1.332-.36a7.154,7.154,0,0,1-2.292,2.856,10.479,10.479,0,0,1,1.164.8,7.145,7.145,0,0,0,.54-.516,6.785,6.785,0,0,0,.852,1,7.271,7.271,0,0,1-1.464.552l.048-.276-.864-.288-.192.06h-.576l.588-.612a6.716,6.716,0,0,0-.876-.528A8.957,8.957,0,0,0,45.036-9.1l-.912-.576-.216.048H40.032v1.2h2.88a7.494,7.494,0,0,1-.756.756c-.324-.144-.66-.276-.948-.384l-.9.912a17.408,17.408,0,0,1,2.316,1.164H39.876v1.248h1.5a7.54,7.54,0,0,1-1.7,2.472,8,8,0,0,1,.648,1.38,7.27,7.27,0,0,0,1.5-2.22V-.528c0,.144-.048.168-.192.18s-.636,0-1.08-.012A4.754,4.754,0,0,1,40.956,1,3.539,3.539,0,0,0,42.648.744c.42-.216.516-.6.516-1.248V-4.728H43.8a15.641,15.641,0,0,1-.384,1.656l.96.444a14.008,14.008,0,0,0,.588-2,4.541,4.541,0,0,1,.336.5,9.605,9.605,0,0,0,2.448-1.008A8.643,8.643,0,0,0,50.2-4.1a5.481,5.481,0,0,1,.9-1.212,9.337,9.337,0,0,1-2.208-.708,5.9,5.9,0,0,0,1.2-1.752Zm4.956-2.232A12.4,12.4,0,0,1,52.464-5.34a10.47,10.47,0,0,1,.828,1.512A13.6,13.6,0,0,0,54.48-5.1V1.02h1.428V-7.116A19.327,19.327,0,0,0,57.156-9.54ZM60.156-.432c-.576,0-.66-.12-.66-.828V-4.284A29.069,29.069,0,0,0,63.576-6.6L62.52-7.848a20.41,20.41,0,0,1-3.024,2.1v-4.1h-1.44v8.58C58.056.42,58.488.9,60,.9h2.052c1.416,0,1.788-.756,1.956-2.82a4.12,4.12,0,0,1-1.32-.612c-.1,1.692-.192,2.1-.768,2.1Z" transform="translate(640 2908.646)"/>
    <path id="パス_12354" data-name="パス 12354" d="M19.556-58.271H-1.362L-4.7-47.021q.747-.088,1.428-.132t1.252-.044a21.351,21.351,0,0,1,16.216,6.68q6.372,6.636,6.372,17.007,0,10.723-7.207,17.666T-4.79,1.1q-13.491,0-21.27-12.656l7.734-6.548q3.208,5.449,6.46,7.69a13.878,13.878,0,0,0,7.954,2.2A13.809,13.809,0,0,0,6.416-12.524a15.142,15.142,0,0,0,4.175-10.767A14.394,14.394,0,0,0,6.46-33.926,13.788,13.788,0,0,0-3.867-38.188q-6.9,0-11.909,6.021H-19.16L-8.481-67.852H19.556Z" transform="translate(695 3070.817)" fill="#064a6f"/>
    <path id="パス_12508" data-name="パス 12508" d="M3.57-1.022V-4.928h6.944v3.906ZM10.514-9.73v3.78H3.57V-9.73ZM2.52-10.752V.91H3.57V0h6.944V.854h1.092V-10.752Zm17.962.448v1.162H17.458V-10.3ZM17.458-7.14V-8.372h3.024V-7.14Zm4.018.8v-4.774H16.422V1.078h1.036v-7.42ZM23.73-4.494v1.3H20.44v-1.3ZM20.44-1.05V-2.408h3.29V-1.05ZM24.7-.224V-5.292H19.5V.476h.938v-.7Zm-.98-6.9V-8.372h3.136v1.246ZM26.852-10.3v1.162H23.716V-10.3Zm1.05-.812h-5.18v4.788h4.13V-.322c0,.252-.084.336-.322.336S25.424.042,24.57,0a3.834,3.834,0,0,1,.364,1.064A7.969,7.969,0,0,0,27.286.882C27.748.7,27.9.35,27.9-.308Z" transform="translate(720 3065.421)" fill="#064a6f"/>
    <g id="グループ_148" data-name="グループ 148" transform="translate(501.201 2948.209)">
      <path id="パス_158" data-name="パス 158" d="M677.318,164.151a9.9,9.9,0,1,1-9.9-9.9A9.9,9.9,0,0,1,677.318,164.151Z" transform="translate(-590.244 -154.248)" fill="#064a6f"/>
      <g id="グループ_147" data-name="グループ 147" transform="translate(0 69.648)">
        <path id="パス_159" data-name="パス 159" d="M629.563,231.311a8.556,8.556,0,1,1-8.555-8.559A8.555,8.555,0,0,1,629.563,231.311Z" transform="translate(-590.996 -222.753)" fill="#064a6f"/>
        <path id="パス_160" data-name="パス 160" d="M610.882,280.535a5.042,5.042,0,1,1-5.042-5.042A5.042,5.042,0,0,1,610.882,280.535Z" transform="translate(-591.19 -221.873)" fill="#064a6f"/>
        <path id="パス_161" data-name="パス 161" d="M628.482,280.535a5.042,5.042,0,1,1-5.043-5.042A5.042,5.042,0,0,1,628.482,280.535Z" transform="translate(-590.897 -221.873)" fill="#064a6f"/>
        <path id="パス_162" data-name="パス 162" d="M618.311,274.37H601.546l2.832-5.1h13.933c2.067,0,5.93-1.813,7.5-6.678,1.057-3.281,9.072-33.138,9.154-33.446l.5-1.892H649.6l-1.538,5.1h-8.677s-7.773,28.855-8.725,31.806C628.5,270.861,622.812,274.37,618.311,274.37Z" transform="translate(-591.178 -222.678)" fill="#064a6f"/>
        <path id="パス_163" data-name="パス 163" d="M619.184,241.383c-4.052.673-17.719,4.165-17.719,4.165a2.656,2.656,0,1,0,1.149,5.187l8.764-1.025-1.7,6.513h-6.653c-2.966,0-4.98,1.039-6.1,3.5l-5.283,11.8a3.486,3.486,0,0,0,1.786,4.6,3.548,3.548,0,0,0,4.6-1.789l4.569-8.058h13.449c2.689,0,5.946-1.559,6.794-4.672s3.608-14.069,3.608-14.069C627.789,242.673,623.9,240.6,619.184,241.383Z" transform="translate(-591.348 -222.445)" fill="#064a6f"/>
      </g>
      <path id="パス_164" data-name="パス 164" d="M688.9,233.333l6.454,47.905a5.061,5.061,0,0,1-4.007,5.867c-2.728.514-5.02-1.323-5.869-4l-11.229-41.38-13.372,41.466a5.025,5.025,0,0,1-9.843-2.033l11.361-62.024-3.1-13.689-8.9,17.783a3.854,3.854,0,0,1-7.037-3.144l7.3-18.5,5.481-13.874c6.284-15.194,22.7-8.394,23.928-.79l6.04,30.644C687.219,222.485,688.449,229.53,688.9,233.333Z" transform="translate(-590.486 -153.841)" fill="#064a6f"/>
    </g>
  </g>
</svg>
