<svg xmlns="http://www.w3.org/2000/svg" width="389.97" height="52.08" viewBox="0 0 389.97 52.08">
  <path id="パス_12428" data-name="パス 12428" d="M-194.425-46.69V0h12.11V-46.69ZM-159.565,0h11.2V-16.8a7.2,7.2,0,0,1,1.82-4.97,6.129,6.129,0,0,1,4.13-1.47,4.689,4.689,0,0,1,3.57,1.33c1.47,1.54,1.4,4.27,1.4,6.09V0h11.2V-19.88c0-3.43-.28-6.09-2.94-8.75a12.653,12.653,0,0,0-9.24-3.36,11.8,11.8,0,0,0-9.94,4.62v-3.92h-11.2Zm78.61-10.08a8.472,8.472,0,0,1-5.74,2.1,7.6,7.6,0,0,1-5.74-2.38,8.036,8.036,0,0,1-1.96-5.25A7.616,7.616,0,0,1-92.225-21a7.34,7.34,0,0,1,5.46-2.17,9.983,9.983,0,0,1,5.81,2.03v-9.38a16.055,16.055,0,0,0-7.28-1.75,18.047,18.047,0,0,0-12.6,4.76,17.041,17.041,0,0,0-5.04,12.11,16.374,16.374,0,0,0,4.83,11.69,17.281,17.281,0,0,0,12.32,4.76A16.612,16.612,0,0,0-80.955-.7Zm20.37-40.95V0h11.2V-51.03Zm32.83,19.74v19.53c0,3.01.56,5.81,2.94,8.33,3.71,3.99,9.45,4.48,14.14,4.48,4.27,0,9.66-.42,13.51-4.41,2.8-2.87,3.01-5.74,3.01-8.4V-31.29h-11.2v17.5a5.8,5.8,0,0,1-1.61,4.41,5.237,5.237,0,0,1-3.99,1.33,5.787,5.787,0,0,1-3.92-1.19,6,6,0,0,1-1.68-4.55v-17.5Zm53.34,28.7a23.085,23.085,0,0,0,12.6,3.64c2.59,0,7.91-.28,11.55-3.92a10.457,10.457,0,0,0,3.15-7.77,8.849,8.849,0,0,0-2.38-6.23,13.223,13.223,0,0,0-4.62-2.45l-2.03-.56c-1.75-.49-2.66-.49-3.71-.91a1.823,1.823,0,0,1-1.33-1.75,1.678,1.678,0,0,1,.98-1.54,4.729,4.729,0,0,1,2.59-.63,15.5,15.5,0,0,1,5.88,1.54l3.78-7.14a25.826,25.826,0,0,0-10.01-2.03c-4.62,0-8.82,1.33-11.2,3.78a11.181,11.181,0,0,0-2.94,7.63,7.568,7.568,0,0,0,2.03,5.39,10.067,10.067,0,0,0,5.46,2.73l2.94.7a6.985,6.985,0,0,1,2.94,1.12,1.661,1.661,0,0,1,.56,1.4,1.8,1.8,0,0,1-.56,1.47,4.749,4.749,0,0,1-2.87.84,14.576,14.576,0,0,1-4.34-.77,16.025,16.025,0,0,1-4.48-2.31Zm47.04-28.7V0h11.2V-31.29Zm-.7-13.02a6.274,6.274,0,0,0,6.3,6.3,6.274,6.274,0,0,0,6.3-6.3,6.274,6.274,0,0,0-6.3-6.3A6.274,6.274,0,0,0,71.925-44.31Zm51.1,21.49a7.707,7.707,0,0,1,4.97,2.03,7.6,7.6,0,0,1,2.17,5.11,6.9,6.9,0,0,1-2.17,4.97,7.119,7.119,0,0,1-4.97,2.1,7.157,7.157,0,0,1-5.04-2.1,7.232,7.232,0,0,1-2.17-4.97,7.217,7.217,0,0,1,2.17-5.11A7.74,7.74,0,0,1,123.025-22.82Zm18.76,7.14a15.466,15.466,0,0,0-4.83-11.48,19.766,19.766,0,0,0-14-5.18c-6.79,0-11.34,2.66-13.93,5.18a15.466,15.466,0,0,0-4.83,11.48,15.615,15.615,0,0,0,4.83,11.55c4.34,4.27,9.38,5.18,13.93,5.18,5.04,0,9.87-1.12,14-5.18A15.615,15.615,0,0,0,141.785-15.68ZM162.225,0h11.2V-16.8a7.2,7.2,0,0,1,1.82-4.97,6.129,6.129,0,0,1,4.13-1.47,4.689,4.689,0,0,1,3.57,1.33c1.47,1.54,1.4,4.27,1.4,6.09V0h11.2V-19.88c0-3.43-.28-6.09-2.94-8.75a12.653,12.653,0,0,0-9.24-3.36,11.8,11.8,0,0,0-9.94,4.62v-3.92h-11.2Z" transform="translate(194.425 51.03)" fill="#fff"/>
</svg>
