<svg height="236.01" viewBox="0 0 400.727 236.01" width="400.727" xmlns="http://www.w3.org/2000/svg"><path d="m6.9-7.98a.907.907 0 0 0 -.9-.9.907.907 0 0 0 -.9.9.907.907 0 0 0 .9.9.907.907 0 0 0 .9-.9zm-4.86-.888-.348.348 3.96 3.96-3.972 3.972.348.348 3.972-3.972 3.96 3.96.348-.348-3.96-3.96 3.96-3.96-.348-.348-3.96 3.96zm.54 3.408a.907.907 0 0 0 -.9.9.907.907 0 0 0 .9.9.907.907 0 0 0 .9-.9.907.907 0 0 0 -.9-.9zm6.84 1.8a.907.907 0 0 0 .9-.9.907.907 0 0 0 -.9-.9.907.907 0 0 0 -.9.9.907.907 0 0 0 .9.9zm-4.32 2.52a.907.907 0 0 0 .9.9.907.907 0 0 0 .9-.9.907.907 0 0 0 -.9-.9.907.907 0 0 0 -.9.9zm8.388 1.14h5.532v-.948h-2.436c-.444 0-.984.048-1.44.084 2.064-1.956 3.444-3.744 3.444-5.5a2.413 2.413 0 0 0 -2.556-2.6 3.364 3.364 0 0 0 -2.592 1.3l.636.624a2.463 2.463 0 0 1 1.824-1.024 1.546 1.546 0 0 1 1.62 1.74c0 1.512-1.272 3.264-4.032 5.676zm10.428.156c1.668 0 2.736-1.524 2.736-4.584s-1.068-4.536-2.736-4.536-2.748 1.476-2.748 4.536 1.068 4.584 2.748 4.584zm0-.876c-1.008 0-1.68-1.116-1.68-3.708 0-2.568.672-3.648 1.68-3.648s1.668 1.076 1.668 3.648c0 2.592-.672 3.708-1.668 3.708zm5.34.72h4.824v-.912h-1.764v-7.888h-.84a5.573 5.573 0 0 1 -1.824.624v.7h1.56v6.564h-1.956zm9.912.156c1.656 0 2.76-1 2.76-2.28a2.567 2.567 0 0 0 -1.488-2.3v-.06a2.884 2.884 0 0 0 1.176-2.124 2.225 2.225 0 0 0 -2.416-2.32 2.231 2.231 0 0 0 -2.408 2.228 2.445 2.445 0 0 0 1.188 2.032v.06a2.817 2.817 0 0 0 -1.62 2.424 2.523 2.523 0 0 0 2.808 2.34zm.6-4.932c-1.032-.408-1.98-.864-1.98-1.92a1.352 1.352 0 0 1 1.392-1.428 1.468 1.468 0 0 1 1.5 1.572 2.36 2.36 0 0 1 -.912 1.776zm-.576 4.116a1.687 1.687 0 0 1 -1.836-1.62 2.391 2.391 0 0 1 1.2-1.992c1.248.5 2.328.948 2.328 2.124a1.524 1.524 0 0 1 -1.692 1.488zm7.716-2.028v-2.376h2.692v2.376zm7.932 0h-4.34v-2.376h3.516v-.836h-3.516v-1.828h3.792v-.864h-7.156c.192-.408.384-.84.552-1.26l-.9-.216a10.155 10.155 0 0 1 -2.7 4.14 5.523 5.523 0 0 1 .768.564 11.087 11.087 0 0 0 1.824-2.364h2.92v1.828h-3.58v3.216h-1.968v.864h5.548v2.744h.9v-2.748h4.34zm2.616 2.688h4.824v-.912h-1.764v-7.888h-.84a5.573 5.573 0 0 1 -1.824.624v.7h1.56v6.564h-1.956zm9.9.156c1.668 0 2.736-1.524 2.736-4.584s-1.068-4.536-2.736-4.536-2.748 1.476-2.748 4.536 1.068 4.584 2.748 4.584zm0-.876c-1.008 0-1.68-1.116-1.68-3.708 0-2.568.672-3.648 1.68-3.648s1.668 1.076 1.668 3.648c0 2.592-.672 3.708-1.668 3.708zm7.56-2.952a15.066 15.066 0 0 0 .132-2.016h5.484v2.016zm5.616-4.86v1.992h-5.484v-1.992zm.924-.876h-7.308v3.672c0 1.908-.192 4.344-2.1 6.024a3.377 3.377 0 0 1 .66.648 6.769 6.769 0 0 0 2.064-3.736h5.76v2.4c0 .264-.1.348-.372.36s-1.236.012-2.244-.024a3.779 3.779 0 0 1 .384.928 9.649 9.649 0 0 0 2.532-.164c.444-.144.624-.456.624-1.08zm8.744 7.776c0 .816-.42 1.224-1.3 1.224-1.14 0-1.8-.36-1.8-1.02s.7-1.072 1.928-1.072a5.4 5.4 0 0 1 1.164.12c0 .304.008.556.008.748zm.8-4.488c.972-.024 2.5-.1 3.552-.192l-.036-.912c-1.068.144-2.568.2-3.516.228 0-.468-.012-.888 0-1.212a10.353 10.353 0 0 1 .1-1.176h-1.148a8.709 8.709 0 0 1 .1 1.176c.012.5.012 1.488.012 2.172 0 .708.048 1.8.1 2.76a7.119 7.119 0 0 0 -1.008-.072c-2.052 0-2.988.888-2.988 1.956-.008 1.356 1.204 1.884 2.832 1.884 1.584 0 2.184-.84 2.184-1.812 0-.216-.012-.48-.024-.792a8.3 8.3 0 0 1 3.088 1.956l.576-.888a9.429 9.429 0 0 0 -3.7-2.028c-.06-1.032-.12-2.184-.12-2.964zm9.348-3.348c-.012.288-.048.648-.1 1.02a31.176 31.176 0 0 0 -.36 3.84 14.54 14.54 0 0 0 .12 1.884l.936-.072a4.961 4.961 0 0 1 -.024-1.452c.144-1.56 1.512-3.708 2.988-3.708 1.26 0 1.884 1.344 1.884 3.216 0 2.988-2.016 4.02-4.6 4.416l.564.864c2.968-.54 5.044-1.992 5.044-5.292 0-2.5-1.14-4.08-2.724-4.08-1.5 0-2.748 1.476-3.216 2.7a22.025 22.025 0 0 1 .552-3.3zm12.672 2.82h2.78v1.284h-2.772zm0-1.992h2.78v1.272h-2.772zm6.48 1.272h-2.832v-1.272h2.832zm0 2h-2.832v-1.28h2.832zm-3.192 1.932a9.061 9.061 0 0 0 .2-1.164h3.9v-4.808h-8.28v4.808h3.472a8.356 8.356 0 0 1 -.216 1.164h-4.2v.816h3.916c-.564 1.284-1.7 2.244-4.26 2.772a2.4 2.4 0 0 1 .468.768c2.928-.66 4.164-1.9 4.764-3.54h3.768c-.168 1.644-.36 2.376-.636 2.592a.7.7 0 0 1 -.516.12c-.288 0-1.068-.012-1.848-.072a1.908 1.908 0 0 1 .288.816c.756.036 1.5.048 1.872.036a1.317 1.317 0 0 0 .948-.348c.384-.36.612-1.3.828-3.564a3.832 3.832 0 0 0 .036-.4zm7.992-1.032a13.383 13.383 0 0 0 .6-3.216l-.672-.1a12.125 12.125 0 0 1 -.624 3.072zm1.04 5.38h.888v-10.956h-.888zm.972-8.748a11.945 11.945 0 0 1 .828 2.04l.672-.324a11.332 11.332 0 0 0 -.876-2zm5.268 7.488v-3h2.448v-.828h-2.448v-2.484h2.712v-.852h-2.712v-2.488h-.888v2.484h-1.5c.168-.588.312-1.212.432-1.836l-.864-.144a11.683 11.683 0 0 1 -1.452 4.284 7 7 0 0 1 .792.408 8.653 8.653 0 0 0 .84-1.86h1.752v2.484h-2.544v.828h2.544v3h-3.432v.852h7.32v-.848zm7.572-9.684a9.593 9.593 0 0 1 -2.52 2.5 5.216 5.216 0 0 1 .5.648 12.736 12.736 0 0 0 2.832-2.844zm.288 2.424a11.191 11.191 0 0 1 -2.94 3.308 6.651 6.651 0 0 1 .5.792 12.2 12.2 0 0 0 1.356-1.284v5.74h.828v-6.708a13.719 13.719 0 0 0 1.044-1.572zm5.04 4.344h2.676v-.828h-2.676v-2.352h3v-.864h-1.824a25.307 25.307 0 0 0 1.212-2.424l-.852-.312a15.505 15.505 0 0 1 -1.152 2.472l.672.264h-2.836l.6-.288a14.76 14.76 0 0 0 -1.26-2.352l-.732.288a18.045 18.045 0 0 1 1.192 2.352h-1.86v.864h2.988v5.988a3.317 3.317 0 0 1 -1.812-2.268 21.381 21.381 0 0 0 .264-2.124l-.888-.072c-.144 2.292-.54 4.128-1.716 5.268a4.859 4.859 0 0 1 .684.612 6.082 6.082 0 0 0 1.356-2.448c.828 1.74 2.136 2.188 3.948 2.188h2.016a2.331 2.331 0 0 1 .288-.84c-.372 0-1.98.012-2.244 0a7.134 7.134 0 0 1 -1.044-.072zm12.468-3.888a10.968 10.968 0 0 1 -.612 1.248l.12.036h-2.82l.384-.084a4.662 4.662 0 0 0 -.6-1.2zm3.444 5.22v-.756h-4.812v-.888h3.756v-.684h-3.756v-.876h4.344v-.732h-2.724c.24-.36.5-.828.744-1.284h2.4v-.768h-1.86a16.78 16.78 0 0 0 1.056-1.728l-.912-.24a13.615 13.615 0 0 1 -.912 1.824l.444.144h-1.452v-2.124h-.84v2.124h-1.428v-2.124h-.828v2.124h-1.476l.612-.228a8.271 8.271 0 0 0 -1.02-1.764l-.756.252a9.354 9.354 0 0 1 .948 1.74h-1.908v.768h2.928l-.42.084a5.038 5.038 0 0 1 .588 1.2h-2.616v.732h4.208v.876h-3.612v.684h3.612v.888h-4.74v.756h3.924a11.565 11.565 0 0 1 -4.236 1.9 3.821 3.821 0 0 1 .576.756 12.059 12.059 0 0 0 4.476-2.368v2.556h.876v-2.612a11.329 11.329 0 0 0 4.512 2.46 3.209 3.209 0 0 1 .6-.792 10.979 10.979 0 0 1 -4.284-1.9zm10.6-5.676h-5.676v-1.248h5.676zm.924-1.968h-7.488v2.688h7.488zm-7.1 6.984h6.66v.864h-6.66zm0-1.476h6.66v.84h-6.66zm0-1.476h6.66v.84h-6.66zm7.572 4.476v-5.132h-8.46v5.136h2.232a13.147 13.147 0 0 1 -3.536 1.328 6.845 6.845 0 0 1 .66.66 15.232 15.232 0 0 0 3.732-1.476l-.792-.516zm-3.288.6a31.5 31.5 0 0 1 3.768 1.4l.768-.648c-.936-.384-2.532-.972-3.768-1.332zm9.24-1.212c-.516 0-1.212-.66-1.212-2.16a4.143 4.143 0 0 1 3.672-3.84 19.173 19.173 0 0 1 -.66 3.2c-.62 2.008-1.28 2.8-1.808 2.8zm3.124 1.992c2.832-.372 4.476-2.04 4.476-4.536a4.314 4.314 0 0 0 -4.56-4.368 5.075 5.075 0 0 0 -5.208 4.836c0 1.956 1.068 3.18 2.124 3.18 1.1 0 2.052-1.26 2.784-3.7a25.112 25.112 0 0 0 .708-3.42 3.294 3.294 0 0 1 3.156 3.444 3.562 3.562 0 0 1 -3.012 3.516 7.449 7.449 0 0 1 -1.02.144zm9.936-2.052v-.924h5.34v.924zm5.34-2.508v.924h-5.34v-.924zm.9-.744h-7.128v5.9h.888v-1.98h5.34v1.036c0 .168-.06.216-.24.228-.2 0-.9 0-1.6-.012a3.435 3.435 0 0 1 .288.732 7.735 7.735 0 0 0 1.96-.132c.372-.108.492-.336.492-.816zm-1.524-3.084-.672.444c.42.276.876.612 1.308.948-1.68.036-3.372.072-4.848.1.4-.468.816-1 1.176-1.488zm3.168-.792h-4.812v-1.176h-.9v1.176h-4.764v.792h3.132a14.9 14.9 0 0 1 -1.008 1.5l-1.656.024.036.828c2.1-.036 5.292-.12 8.3-.24a8.7 8.7 0 0 1 .816.8l.744-.528a17.6 17.6 0 0 0 -3.024-2.388h3.132zm5.556 5.76c-.216 1.692-.792 2.748-3.372 3.3a2.8 2.8 0 0 1 .528.78c2.82-.684 3.528-1.992 3.792-4.08zm3.144 0v2.736c0 .96.288 1.236 1.38 1.236h1.788c.96 0 1.224-.432 1.332-2.208a2.709 2.709 0 0 1 -.828-.36c-.048 1.5-.132 1.728-.588 1.728h-1.608c-.48 0-.564-.06-.564-.4v-2.732zm-5.232-6.6v6.432h.864v-6.432zm2.7.2v6.06h5.916v-6.052zm.852.792h4.164v1.86h-4.168zm0 2.592h4.164v1.884h-4.168zm11.2-3.84a12.331 12.331 0 0 1 -3.252 4.812 5.107 5.107 0 0 1 .54.9 12.175 12.175 0 0 0 1.408-1.58v6.732h.876v-8.016a17.828 17.828 0 0 0 1.308-2.568zm7.86 3.828v-.864h-3.468v-2.88h-.876v2.88h-3.372v.864h2.9a12.191 12.191 0 0 1 -3.324 4.908 5.178 5.178 0 0 1 .672.684 13.4 13.4 0 0 0 3.12-4.62v6.088h.876v-6.336a14.568 14.568 0 0 0 3.108 4.824 3.2 3.2 0 0 1 .672-.72 12.661 12.661 0 0 1 -3.264-4.824zm9.348-1.02a10.968 10.968 0 0 1 -.612 1.256l.12.036h-2.82l.384-.084a4.663 4.663 0 0 0 -.6-1.2zm3.444 5.22v-.756h-4.816v-.888h3.76v-.68h-3.76v-.876h4.344v-.732h-2.724c.24-.36.5-.828.744-1.284h2.4v-.768h-1.86a16.78 16.78 0 0 0 1.056-1.728l-.912-.24a13.615 13.615 0 0 1 -.912 1.824l.444.144h-1.452v-2.124h-.84v2.124h-1.428v-2.124h-.828v2.124h-1.472l.612-.228a8.271 8.271 0 0 0 -1.02-1.764l-.756.252a9.354 9.354 0 0 1 .948 1.74h-1.908v.768h2.924l-.42.084a5.038 5.038 0 0 1 .588 1.2h-2.616v.732h4.212v.876h-3.612v.684h3.612v.888h-4.74v.756h3.924a11.565 11.565 0 0 1 -4.236 1.9 3.821 3.821 0 0 1 .576.756 12.059 12.059 0 0 0 4.476-2.364v2.552h.876v-2.612a11.329 11.329 0 0 0 4.512 2.46 3.209 3.209 0 0 1 .6-.792 10.979 10.979 0 0 1 -4.284-1.9zm6.456-4.932h-2.34v-1.6h2.34zm-2.34 3.276h2.34v1.476c-.8.12-1.608.24-2.34.336zm2.34-.816h-2.34v-1.664h2.34zm1.7-4.056v-.828h-5.82v.828h.936v6.8c-.432.06-.828.108-1.164.144l.156.9c1.14-.192 2.676-.42 4.188-.672v2.18h.864v-9.348zm4.152.024-.164.04h-4.284v.876h4.044a13.166 13.166 0 0 1 -1.488 4.488 15.456 15.456 0 0 1 -1.476-4.44l-.852.156a16.713 16.713 0 0 0 1.784 5.12 7.321 7.321 0 0 1 -2.52 2.22 3.428 3.428 0 0 1 .588.72 8.564 8.564 0 0 0 2.448-2.136 7.507 7.507 0 0 0 2.388 2.176 3.718 3.718 0 0 1 .636-.732 6.665 6.665 0 0 1 -2.468-2.232 14.594 14.594 0 0 0 1.944-6.084zm12.108.408h-3.948v-.96h3.948zm0 1.62h-3.948v-.968h3.948zm.888-3.252h-5.7v3.936h5.7zm-7.584-.336a9.2 9.2 0 0 1 -2.544 2.448 3.89 3.89 0 0 1 .468.72 12 12 0 0 0 2.928-2.844zm.216 2.616a11.262 11.262 0 0 1 -2.952 3.24 5.59 5.59 0 0 1 .468.852 11.584 11.584 0 0 0 1.4-1.3v5.5h.876v-6.5a13.716 13.716 0 0 0 .984-1.476zm1.692 5.628a10.756 10.756 0 0 1 1.476 1.74l.684-.48a10.563 10.563 0 0 0 -1.524-1.664zm6.456-1.38h-1.788v-1.02h1.572v-.764h-7v.768h4.536v1.02h-4.812v.768h4.812v2.28c0 .156-.048.2-.24.216-.168.012-.768.012-1.44-.012a3.015 3.015 0 0 1 .288.816 6.146 6.146 0 0 0 1.832-.144c.348-.144.456-.372.456-.852v-2.3h1.788zm8.66 1.516c-.012-.576-.024-1.584-.036-2.268.9-.42 1.752-.768 2.424-1.032.312-.12.744-.288 1.044-.372l-.384-.9c-.336.168-.624.312-.984.468-.624.288-1.344.576-2.16.96a1.494 1.494 0 0 0 -1.572-1.08 3.371 3.371 0 0 0 -1.644.444 8.526 8.526 0 0 0 1.068-1.824 36.712 36.712 0 0 0 3.944-.336l.012-.888a31.89 31.89 0 0 1 -3.636.36c.168-.54.276-1.032.36-1.368l-.984-.084a6.441 6.441 0 0 1 -.3 1.476c-.276.012-.528.012-.78.012-.54 0-1.368-.048-2-.12v.9c.648.048 1.452.072 1.956.072h.492a12.574 12.574 0 0 1 -2.736 3.624l.816.612c.408-.48.744-.924 1.08-1.248a3.163 3.163 0 0 1 2.052-.876 1 1 0 0 1 1.068.732c-1.38.72-2.8 1.608-2.8 3.012 0 1.452 1.368 1.812 3.072 1.812a30.6 30.6 0 0 0 3.248-.192l.024-.972a20.921 20.921 0 0 1 -3.24.288c-1.224 0-2.148-.132-2.148-1.068 0-.78.768-1.392 1.872-1.992 0 .624-.012 1.392-.048 1.848zm17.164-4.28h-4.872v-.768h3.732v-.672h-3.732v-.732h4.368v-.7h-2.472c.216-.3.48-.684.72-1.044l-.948-.252a11.247 11.247 0 0 1 -.684 1.3h-2.868l.084-.036a4.383 4.383 0 0 0 -.84-1.224l-.768.264a6.505 6.505 0 0 1 .66 1h-2.46v.7h4.308v.732h-3.672v.672h3.672v.76h-4.824v.7h10.6zm-.648 1.932a7.4 7.4 0 0 0 -1.944-1.056l-.48.528a7.846 7.846 0 0 1 1.908 1.112zm-1.008 1.56a5.418 5.418 0 0 1 -1.284 1.14 6.489 6.489 0 0 1 -.6-1.3h3.576v-.7h-3.768a9.826 9.826 0 0 1 -.228-1.752h-.864a11.439 11.439 0 0 0 .228 1.752h-2.616v-.924a17.043 17.043 0 0 0 1.944-.336l-.54-.564a29.285 29.285 0 0 1 -4.656.592 2.012 2.012 0 0 1 .2.588c.7-.036 1.452-.1 2.2-.168v.816h-2.544v.7h2.544v.876c-.984.072-1.884.132-2.592.18l.084.72 2.508-.232v1.032c0 .168-.06.2-.24.2s-.8.012-1.452-.012a4.311 4.311 0 0 1 .276.708 6.715 6.715 0 0 0 1.816-.116c.336-.1.456-.3.456-.756v-1.128c.708-.072 1.428-.132 2.148-.2v-.636l-2.148.168v-.8h2.8a7.255 7.255 0 0 0 .744 1.716 12.893 12.893 0 0 1 -2.72 1.012 6 6 0 0 1 .468.708 15.366 15.366 0 0 0 2.676-1.116 2.923 2.923 0 0 0 2.232 1.152c.756-.012 1.068-.336 1.2-1.608a2.05 2.05 0 0 1 -.684-.348c-.06.852-.156 1.128-.48 1.14a2.09 2.09 0 0 1 -1.536-.78 6.527 6.527 0 0 0 1.608-1.464zm12.768-5.616a4.505 4.505 0 0 1 -1.164 1.548 5.325 5.325 0 0 1 -1.356-1.548zm-4.8 5.208a10.391 10.391 0 0 0 .708-1.872 3.356 3.356 0 0 1 .324.468 9.378 9.378 0 0 0 2.616-1.224 8.614 8.614 0 0 0 2.724 1.272 3.957 3.957 0 0 1 .564-.768 7.958 7.958 0 0 1 -2.6-1.044 5.572 5.572 0 0 0 1.44-2.04h.924v-.756h-3.984a9.528 9.528 0 0 0 .552-1.032l-.852-.228a7.374 7.374 0 0 1 -2.28 2.928 5.662 5.662 0 0 1 .732.516 9.57 9.57 0 0 0 .864-.852 6.844 6.844 0 0 0 1.236 1.464 7.951 7.951 0 0 1 -2.148.924c.06-.216.12-.432.18-.636l-.54-.192-.132.048h-.888l.456-.516a6.894 6.894 0 0 0 -1.008-.72 8.984 8.984 0 0 0 1.956-2.04l-.576-.36-.156.036h-4.032v.78h3.4a8.44 8.44 0 0 1 -1.26 1.188c-.384-.2-.792-.4-1.164-.552l-.552.576a12.247 12.247 0 0 1 2.664 1.608h-3.224v.78h1.812a9.042 9.042 0 0 1 -1.932 3.212 4.722 4.722 0 0 1 .468.828 9.611 9.611 0 0 0 1.752-2.952v3.852c0 .132-.048.168-.192.18s-.624 0-1.14-.012a3.278 3.278 0 0 1 .276.816 4.709 4.709 0 0 0 1.5-.132c.3-.156.4-.4.4-.852v-4.944h1.152a12.507 12.507 0 0 1 -.648 1.932zm3.624-.532c.072-.384.132-.78.168-1.188h-.9c-.036.408-.084.8-.156 1.188h-2.064v.748h1.872a4.114 4.114 0 0 1 -2.784 2.828 2.9 2.9 0 0 1 .528.684 4.868 4.868 0 0 0 3.18-3.516h2.016c-.18 1.644-.36 2.316-.588 2.544a.508.508 0 0 1 -.408.12c-.192 0-.672-.012-1.188-.06a2.333 2.333 0 0 1 .24.828 12.681 12.681 0 0 0 1.332.012 1.083 1.083 0 0 0 .744-.312c.348-.348.576-1.26.792-3.492.012-.144.024-.384.024-.384zm8.46-6.5a13.271 13.271 0 0 1 -3.48 4.836 5.956 5.956 0 0 1 .54.9 14.315 14.315 0 0 0 1.56-1.692v6.7h.9v-7.964a16.112 16.112 0 0 0 1.332-2.5zm3.74 9.748c-.66 0-.792-.144-.792-.816v-3.48a28.238 28.238 0 0 0 4.224-2.616l-.632-.764a21 21 0 0 1 -3.588 2.484v-4.464h-.9v8.832c0 1.308.384 1.668 1.632 1.668h2.46c1.236 0 1.5-.684 1.644-2.628a2.864 2.864 0 0 1 -.852-.384c-.084 1.74-.196 2.168-.852 2.168zm16.164 1.248.72-.372a7.509 7.509 0 0 1 -2.232-5.34 7.509 7.509 0 0 1 2.232-5.34l-.72-.372a7.973 7.973 0 0 0 -2.384 5.716 7.973 7.973 0 0 0 2.388 5.712zm8.056-1.004a3.027 3.027 0 0 0 3.228-3.024 2.72 2.72 0 0 0 -2.988-2.8 3.3 3.3 0 0 0 -1.812.444l.216-2.64h4.236v-.944h-5.184l-.276 4.22.588.36a3.128 3.128 0 0 1 1.98-.6 1.946 1.946 0 0 1 2.124 1.992 2.069 2.069 0 0 1 -2.208 2.068 3.352 3.352 0 0 1 -2.532-1.092l-.552.708a4.219 4.219 0 0 0 3.18 1.308zm10.2-1.02v-3.348h5.952v3.348zm5.952-7.464v3.24h-5.952v-3.24zm-6.852-.876v10h.9v-.784h5.952v.732h.936v-9.948zm15.4.384v1h-2.592v-1zm-2.596 2.712v-1.056h2.592v1.056zm3.444.684v-4.092h-4.332v10.452h.888v-6.36zm1.932 1.584v1.116h-2.82v-1.116zm-2.82 2.952v-1.164h2.82v1.164zm3.648.708v-4.344h-4.452v4.944h.8v-.6zm-.84-5.916v-1.068h2.688v1.068zm2.688-2.724v1h-2.688v-1zm.9-.7h-4.44v4.1h3.54v5.156c0 .216-.072.288-.276.288s-.948.024-1.68-.012a3.286 3.286 0 0 1 .312.912 6.83 6.83 0 0 0 2.016-.156c.4-.156.528-.456.528-1.02zm6.924-.744-.72.372a7.509 7.509 0 0 1 2.232 5.34 7.509 7.509 0 0 1 -2.232 5.344l.72.372a7.973 7.973 0 0 0 2.388-5.712 7.973 7.973 0 0 0 -2.388-5.712z" transform="translate(13 234.857)"/><path d="m3.64-7.546h2.46v.98h-2.46zm0-2.254h2.46v.966h-2.46zm6.65.966h-2.506v-.966h2.506zm0 2.268h-2.506v-.98h2.506zm-2.87 2.338c.056-.322.112-.63.154-.966h4.466v-5.978h-10.066v5.978h3.85c-.042.336-.1.658-.154.966h-4.634v1.5h4.088c-.658 1.118-1.96 1.944-4.69 2.476a4.468 4.468 0 0 1 .866 1.452c3.53-.766 5.014-2.124 5.714-3.93h3.686c-.154 1.386-.364 2.086-.616 2.3a.92.92 0 0 1 -.616.14c-.378 0-1.26-.014-2.128-.084a3.3 3.3 0 0 1 .546 1.526c.882.014 1.736.028 2.226-.014a1.958 1.958 0 0 0 1.382-.55c.448-.448.728-1.6.952-4.144.028-.224.056-.672.056-.672zm17.864 3.416v-2.8h2.562v-1.554h-2.562v-2.3h2.856v-1.564h-2.856v-2.744h-1.666v2.744h-1.118c.14-.63.252-1.288.35-1.946l-1.626-.224a16.944 16.944 0 0 1 -.742 3.416 16.052 16.052 0 0 0 -.77-1.764l-.812.336v-2.646h-1.666v2.858l-1.176-.17a16.639 16.639 0 0 1 -.686 3.64l1.232.448a17.841 17.841 0 0 0 .63-3.71v10.01h1.666v-9.562a9.735 9.735 0 0 1 .532 1.61l.8-.364c-.14.294-.28.56-.42.812a14.722 14.722 0 0 1 1.484.756 9.563 9.563 0 0 0 .784-1.932h1.54v2.3h-2.7v1.554h2.7v2.8h-3.74v1.578h8.708v-1.582zm9.31-1.33v-.672h5.306v.672zm5.306-2.478v.672h-5.306v-.672zm1.694-1.344h-8.666v7.182h1.666v-2.212h5.306v.644c0 .2-.07.266-.322.266-.21.014-1.106.014-1.778-.028a6.608 6.608 0 0 1 .49 1.33 8.74 8.74 0 0 0 2.534-.21c.574-.21.77-.56.77-1.344zm-2.212-3.248-.672.406c.294.21.6.448.91.7-1.47.028-2.926.042-4.284.07.322-.378.658-.784.966-1.176zm4.046 0v-1.456h-5.348v-1.19h-1.708v1.19h-5.348v1.456h3.176c-.224.392-.476.812-.742 1.19l-1.946.028.042 1.5c2.45-.056 6.1-.154 9.59-.28a9.331 9.331 0 0 1 .84.9l1.47-.938a18.613 18.613 0 0 0 -2.8-2.394zm6.1 5.5c-.21 1.764-.616 2.912-3.766 3.528a4.981 4.981 0 0 1 .938 1.5c3.668-.9 4.354-2.562 4.634-5.026zm3.682-.028v2.87c0 1.512.392 2.03 2 2.03h1.708c1.33 0 1.764-.56 1.946-2.758a5.069 5.069 0 0 1 -1.54-.658c-.056 1.61-.126 1.848-.574 1.848h-1.282c-.476 0-.546-.07-.546-.49v-2.84zm-5.936-7.728v7.6h1.626v-7.6zm3.262.182v7.2h7.042v-7.2zm1.61 1.428h3.738v1.5h-3.734zm0 2.814h3.738v1.526h-3.734zm21.7.2v-1.626h-3.646v-3.164h-1.656v3.164h-3.556v1.624h2.9a13.283 13.283 0 0 1 -3.458 5.068v-6.522a22.091 22.091 0 0 0 1.442-2.954l-1.652-.532a14.363 14.363 0 0 1 -3.542 5.376 12.088 12.088 0 0 1 .966 1.75 12.689 12.689 0 0 0 1.148-1.26v7.11h1.638v-2.8a9.233 9.233 0 0 1 1.132 1.232 14.226 14.226 0 0 0 2.982-4.242v5.838h1.656v-6.118a14.311 14.311 0 0 0 2.824 4.452 5.934 5.934 0 0 1 1.246-1.33 13.694 13.694 0 0 1 -3.346-5.068zm10.476-1.374c-.154.378-.322.784-.49 1.12h-2.618l.238-.042a6.9 6.9 0 0 0 -.476-1.078zm4.522 6.244v-1.372h-5.444v-.616h4.2v-1.2h-4.2v-.638h4.858v-1.3h-2.746c.21-.336.434-.714.658-1.12h2.63v-1.356h-1.82c.322-.49.7-1.12 1.092-1.764l-1.75-.42a11.278 11.278 0 0 1 -.882 2.03l.5.154h-1.24v-2.282h-1.568v2.282h-1.032v-2.282h-1.558v2.282h-1.274l.686-.252a10.594 10.594 0 0 0 -1.064-1.972l-1.428.49a12.55 12.55 0 0 1 .868 1.736h-1.876v1.358h2.926l-.168.028a6.291 6.291 0 0 1 .476 1.088h-2.66v1.3h4.732v.63h-4.032v1.2h4.032v.616h-5.348v1.372h4.018a14.708 14.708 0 0 1 -4.424 1.646 7.766 7.766 0 0 1 1.064 1.386 13.28 13.28 0 0 0 4.69-2.268v2.436h1.64v-2.518a11.95 11.95 0 0 0 4.7 2.366 7.831 7.831 0 0 1 1.12-1.512 12.507 12.507 0 0 1 -4.438-1.526zm8.656-7.56h.49v1.092h4.13a15.879 15.879 0 0 1 -1.2 4.172 16.883 16.883 0 0 1 -1.288-4.144l-1.6.322a19.836 19.836 0 0 0 1.89 5.544 7.59 7.59 0 0 1 -2.422 2.226zm-3.6 5.712h1.988v1.26c-.672.084-1.344.182-1.988.266zm0-2.884h1.988v1.4h-1.988zm1.988-2.828v1.334h-1.988v-1.33zm6.972-.588-.28.042h-4.188v-.994h-7.028v1.54h.952v7.434c-.476.056-.91.1-1.288.14l.322 1.666c1.288-.2 2.926-.448 4.536-.728v2.24h1.614v-1.318a6.659 6.659 0 0 1 .92 1.22 9.591 9.591 0 0 0 2.492-2.142 8.832 8.832 0 0 0 2.408 2.142 6.043 6.043 0 0 1 1.148-1.372 7.7 7.7 0 0 1 -2.534-2.268 18.582 18.582 0 0 0 2.016-7.336zm13.9.532h-3.64v-.7h3.64zm0 1.82h-3.64v-.73h3.64zm1.68-3.682h-6.93v4.844h6.93zm-9.338-.392a9.986 9.986 0 0 1 -2.912 2.744 10.331 10.331 0 0 1 .826 1.414 14.823 14.823 0 0 0 3.668-3.514zm.364 3.052a12.567 12.567 0 0 1 -3.43 3.6 12.425 12.425 0 0 1 .8 1.722 13.152 13.152 0 0 0 1.26-1.134v5.804h1.61v-7.6a14.783 14.783 0 0 0 1.218-1.764zm9.716 4.956h-1.9v-.8h1.618v-1.356h-8.1v1.358h4.788v.8h-5.128v1.414h1.96l-1.036.686a11.793 11.793 0 0 1 1.61 1.944l1.246-.882a14.72 14.72 0 0 0 -1.6-1.75h2.94v1.946c0 .154-.056.21-.252.224s-.84 0-1.428-.028a5.85 5.85 0 0 1 .518 1.484 5.542 5.542 0 0 0 2.17-.238c.546-.238.686-.63.686-1.4v-1.988h1.926zm6.118-1.134-.252-1.036c-1.288.5-2.632 1.022-3.514 1.3l.784 1.344c.756-.336 1.68-.77 2.562-1.2l.168.966c1.344-.1 3.052-.224 4.746-.378a5.42 5.42 0 0 1 .294.7l1.26-.56a5.782 5.782 0 0 0 -.476-1.008 15.445 15.445 0 0 1 2.228 1.524l1.2-.994a17.791 17.791 0 0 0 -2.924-1.788l-.854.686c-.224-.336-.476-.672-.7-.966l-1.176.49c.168.238.35.49.5.756l-1.442.07a34.038 34.038 0 0 0 2.6-2.73l-1.3-.6c-.35.5-.784 1.064-1.274 1.638-.21-.168-.448-.336-.7-.518.406-.476.868-1.05 1.3-1.61l-.3-.116h5.8v-1.484h-5.054v-1.358h-1.708v1.358h-4.928v1.484h4.578c-.2.35-.42.728-.658 1.078l-.336-.21-.644.784a13.959 13.959 0 0 0 -2.016-1.33l-1.106.91a11.032 11.032 0 0 1 2.1 1.54l1.022-.854a16.892 16.892 0 0 1 1.764 1.3c-.266.266-.532.532-.8.784zm6.468-1.414a20.66 20.66 0 0 0 2.156-1.722l-1.484-.714a12.719 12.719 0 0 1 -1.89 1.778zm-3 2.674h-1.708v.9h-5.376v1.54h5.376v2.488h1.708v-2.492h5.488v-1.54h-5.488z" transform="translate(139 11.857)"/><g fill="#e61050"><path d="m-78.719-81.58h-16.427l7.875-13.412h22.887v94.992h-14.335zm41.405 33.469q0-22.7 10.582-36.237 9.475-12.243 22.948-12.243t22.949 12.242q10.582 13.536 10.582 36.849 0 23.256-10.582 36.791-9.475 12.247-22.887 12.247t-23.01-12.243q-10.582-13.535-10.582-37.406zm14.089.062q0 15.812 5.476 26.271 5.475 10.278 13.965 10.278 8.429 0 13.966-10.274 5.537-10.213 5.537-25.778t-5.537-25.848q-5.537-10.21-13.966-10.21-8.367 0-13.9 10.213-5.541 10.151-5.541 25.347zm63.677-.062q0-22.7 10.582-36.237 9.475-12.243 22.948-12.243t22.948 12.242q10.582 13.536 10.582 36.849 0 23.256-10.582 36.791-9.474 12.247-22.887 12.247t-23.009-12.243q-10.582-13.535-10.582-37.406zm14.089.062q0 15.812 5.476 26.271 5.475 10.278 13.965 10.278 8.429 0 13.966-10.274 5.537-10.213 5.537-25.778t-5.537-25.848q-5.537-10.21-13.966-10.21-8.367 0-13.9 10.213-5.541 10.151-5.541 25.347z" transform="translate(216 137.211)"/><path d="m10.84-25.9h-5.215l2.5-4.258h7.266v30.158h-4.551zm13.144 10.627q0-7.207 3.359-11.5a8.955 8.955 0 0 1 7.285-3.887 8.955 8.955 0 0 1 7.285 3.887q3.359 4.3 3.359 11.7 0 7.383-3.359 11.68a8.939 8.939 0 0 1 -7.265 3.881 9.042 9.042 0 0 1 -7.3-3.887q-3.364-4.301-3.364-11.874zm4.473.02a17.869 17.869 0 0 0 1.743 8.339q1.738 3.262 4.434 3.262 2.676 0 4.434-3.262a17.04 17.04 0 0 0 1.752-8.186 17.158 17.158 0 0 0 -1.758-8.2q-1.758-3.242-4.434-3.242-2.656 0-4.414 3.242a16.648 16.648 0 0 0 -1.757 8.046zm20.215-.02q0-7.207 3.359-11.5a8.955 8.955 0 0 1 7.285-3.887 8.955 8.955 0 0 1 7.284 3.883q3.359 4.3 3.359 11.7.002 7.377-3.359 11.677a8.939 8.939 0 0 1 -7.264 3.888 9.042 9.042 0 0 1 -7.3-3.887q-3.364-4.301-3.364-11.874zm4.473.02a17.869 17.869 0 0 0 1.738 8.34q1.738 3.262 4.434 3.262 2.676 0 4.434-3.262a17.04 17.04 0 0 0 1.757-8.187 17.158 17.158 0 0 0 -1.758-8.2q-1.758-3.242-4.434-3.242-2.656 0-4.414 3.242a16.648 16.648 0 0 0 -1.757 8.046z" transform="translate(309 200.211)"/><path d="m-22.7-31.667a8.934 8.934 0 0 1 2.927-6.645 9.711 9.711 0 0 1 6.882-2.821 9.52 9.52 0 0 1 6.908 2.848 9.087 9.087 0 0 1 2.9 6.75 9.117 9.117 0 0 1 -2.9 6.776 9.66 9.66 0 0 1 -6.987 2.821 9.389 9.389 0 0 1 -6.882-2.874 9.4 9.4 0 0 1 -2.848-6.855zm4.588.079a5.092 5.092 0 0 0 1.529 3.744 5.061 5.061 0 0 0 3.718 1.529 5 5 0 0 0 3.665-1.529 5.03 5.03 0 0 0 1.529-3.691 5 5 0 0 0 -1.529-3.665 5.03 5.03 0 0 0 -3.691-1.529 5.03 5.03 0 0 0 -3.694 1.529 4.94 4.94 0 0 0 -1.529 3.612zm28.342-9.835 2.87 1.635-23.3 40.447-2.9-1.74zm-7.171 32.063a8.906 8.906 0 0 1 2.927-6.618 9.711 9.711 0 0 1 6.881-2.822 9.551 9.551 0 0 1 6.933 2.848 9.087 9.087 0 0 1 2.9 6.752 9.023 9.023 0 0 1 -2.927 6.776 9.65 9.65 0 0 1 -6.985 2.793 9.432 9.432 0 0 1 -6.882-2.848 9.376 9.376 0 0 1 -2.847-6.881zm4.614.105a5.138 5.138 0 0 0 1.5 3.744 5.061 5.061 0 0 0 3.718 1.529 4.944 4.944 0 0 0 3.665-1.529 5.03 5.03 0 0 0 1.532-3.689 5.03 5.03 0 0 0 -1.529-3.691 4.974 4.974 0 0 0 -3.691-1.529 5 5 0 0 0 -3.668 1.526 4.969 4.969 0 0 0 -1.527 3.639z" transform="translate(376 119.211)"/><path d="m-6.727-9.383a2.647 2.647 0 0 1 .867-1.969 2.877 2.877 0 0 1 2.039-.836 2.821 2.821 0 0 1 2.047.844 2.692 2.692 0 0 1 .859 2 2.7 2.7 0 0 1 -.859 2.008 2.862 2.862 0 0 1 -2.07.836 2.782 2.782 0 0 1 -2.039-.852 2.786 2.786 0 0 1 -.844-2.031zm1.359.023a1.509 1.509 0 0 0 .454 1.11 1.5 1.5 0 0 0 1.1.453 1.481 1.481 0 0 0 1.087-.453 1.49 1.49 0 0 0 .453-1.094 1.481 1.481 0 0 0 -.453-1.086 1.49 1.49 0 0 0 -1.094-.453 1.49 1.49 0 0 0 -1.094.453 1.464 1.464 0 0 0 -.452 1.071zm8.4-2.914.852.484-6.907 11.99-.86-.52zm-2.126 9.501a2.639 2.639 0 0 1 .867-1.961 2.877 2.877 0 0 1 2.04-.836 2.83 2.83 0 0 1 2.055.844 2.692 2.692 0 0 1 .859 2 2.673 2.673 0 0 1 -.868 2.007 2.859 2.859 0 0 1 -2.07.828 2.8 2.8 0 0 1 -2.039-.843 2.778 2.778 0 0 1 -.844-2.039zm1.367.031a1.522 1.522 0 0 0 .445 1.109 1.5 1.5 0 0 0 1.1.453 1.465 1.465 0 0 0 1.086-.453 1.49 1.49 0 0 0 .453-1.094 1.49 1.49 0 0 0 -.451-1.093 1.474 1.474 0 0 0 -1.094-.453 1.481 1.481 0 0 0 -1.086.453 1.472 1.472 0 0 0 -.453 1.078z" transform="translate(394 199.211)"/><path d="m-28.152 0h5.7v-1.176h-2.208c-.432 0-.984.036-1.44.084 1.872-1.788 3.228-3.552 3.228-5.256a2.5 2.5 0 0 0 -2.664-2.652 3.429 3.429 0 0 0 -2.688 1.32l.78.768a2.4 2.4 0 0 1 1.744-.988 1.434 1.434 0 0 1 1.5 1.62c0 1.452-1.344 3.168-3.948 5.472zm10.932.156c1.728 0 2.856-1.536 2.856-4.608 0-3.048-1.128-4.548-2.856-4.548s-2.856 1.488-2.856 4.548 1.128 4.608 2.856 4.608zm0-1.092c-.9 0-1.536-.96-1.536-3.516 0-2.532.636-3.456 1.536-3.456s1.536.924 1.536 3.456c0 2.552-.636 3.516-1.536 3.516zm5.652.936h5.04v-1.14h-1.728v-7.7h-1.044a5.194 5.194 0 0 1 -1.92.684v.876h1.584v6.14h-1.932zm8.808-6.1c0-1.152.6-1.836 1.356-1.836.96 0 1.62.792 1.752 2.532a2.1 2.1 0 0 1 -1.68 1.08c-.924.004-1.428-.644-1.428-1.776zm1.116 6.256c1.7 0 3.288-1.392 3.288-4.872 0-2.928-1.368-4.284-3.06-4.284a2.7 2.7 0 0 0 -2.628 2.9c0 1.848 1 2.772 2.472 2.772a2.655 2.655 0 0 0 1.944-1.028c-.084 2.52-1.008 3.384-2.072 3.384a1.963 1.963 0 0 1 -1.44-.66l-.76.852a3.031 3.031 0 0 0 2.256.936zm8.76-2.94v-2.124h2.412v2.124zm7.776 0h-4.212v-2.124h3.348v-1.044h-3.348v-1.656h3.62v-1.08h-6.944c.156-.36.324-.756.468-1.128l-1.128-.3a9.709 9.709 0 0 1 -2.616 4.068 8.874 8.874 0 0 1 .972.72 10.917 10.917 0 0 0 1.728-2.28h2.748v1.656h-3.528v3.168h-1.932v1.084h5.46v2.648h1.152v-2.648h4.212zm4.308-5.16h8.784v-1h-4.368v-1.128h-1.164v1.132h-4.32v3.384c0 1.74-.084 4.176-1.056 5.88a5.051 5.051 0 0 1 .912.612c1.044-1.824 1.212-4.608 1.212-6.492zm5.772 2.112v1.056h-2.592v-1.056zm1.092 1.92v-1.92h1.836v-.912h-1.836v-.912h-1.092v.912h-2.592v-.912h-1.056v.912h-1.776v.912h1.776v1.92zm-.5 1.524a5.531 5.531 0 0 1 -1.776 1.3 5.162 5.162 0 0 1 -1.74-1.3zm.936-.936-.2.036h-6.62v.9h1.836l-.54.2a6.388 6.388 0 0 0 1.656 1.552 16.731 16.731 0 0 1 -3.432.66 3.421 3.421 0 0 1 .468.936 15.753 15.753 0 0 0 4.08-.984 13.58 13.58 0 0 0 3.8 1 3.974 3.974 0 0 1 .652-.964 15.778 15.778 0 0 1 -3.252-.636 5.788 5.788 0 0 0 2.232-2.328z" transform="translate(369 138.857)"/><path d="m.528 0h5.7v-1.176h-2.208c-.432 0-.984.036-1.44.084 1.872-1.788 3.228-3.552 3.228-5.256a2.5 2.5 0 0 0 -2.664-2.652 3.429 3.429 0 0 0 -2.688 1.32l.78.768a2.4 2.4 0 0 1 1.74-.988 1.434 1.434 0 0 1 1.5 1.62c0 1.456-1.344 3.172-3.948 5.48zm10.932.156c1.728 0 2.856-1.536 2.856-4.608 0-3.048-1.128-4.548-2.856-4.548s-2.86 1.488-2.86 4.548 1.132 4.608 2.86 4.608zm0-1.092c-.9 0-1.536-.96-1.536-3.516 0-2.532.636-3.456 1.536-3.456s1.54.924 1.54 3.456c0 2.552-.64 3.516-1.54 3.516zm5.148.936h5.7v-1.176h-2.208c-.432 0-.984.036-1.44.084 1.872-1.788 3.228-3.552 3.228-5.256a2.5 2.5 0 0 0 -2.664-2.652 3.429 3.429 0 0 0 -2.688 1.32l.78.768a2.4 2.4 0 0 1 1.74-.984 1.434 1.434 0 0 1 1.5 1.62c0 1.452-1.344 3.168-3.948 5.472zm10.728.156c1.62 0 2.952-.936 2.952-2.532a2.236 2.236 0 0 0 -1.824-2.208v-.06a2.135 2.135 0 0 0 1.524-2.076c0-1.452-1.116-2.28-2.7-2.28a3.722 3.722 0 0 0 -2.532 1.068l.72.864a2.572 2.572 0 0 1 1.764-.832 1.227 1.227 0 0 1 1.36 1.276c0 .888-.576 1.548-2.316 1.548v1.02c1.992 0 2.616.636 2.616 1.608a1.485 1.485 0 0 1 -1.68 1.476 2.854 2.854 0 0 1 -2.088-.972l-.672.888a3.666 3.666 0 0 0 2.876 1.212zm-23.7 15.06v-2.124h2.412v2.124zm7.776 0h-4.212v-2.124h3.348v-1.044h-3.348v-1.656h3.624v-1.08h-6.948c.156-.36.324-.756.468-1.128l-1.128-.3a9.709 9.709 0 0 1 -2.616 4.068 8.874 8.874 0 0 1 .972.72 10.917 10.917 0 0 0 1.728-2.28h2.748v1.656h-3.528v3.168h-1.932v1.084h5.46v2.652h1.152v-2.652h4.212zm4.308-5.16h8.78v-1h-4.364v-1.124h-1.164v1.128h-4.32v3.384c0 1.74-.084 4.176-1.056 5.88a5.051 5.051 0 0 1 .912.612c1.044-1.824 1.212-4.608 1.212-6.492zm5.772 2.112v1.056h-2.592v-1.056zm1.092 1.92v-1.92h1.836v-.912h-1.836v-.912h-1.092v.912h-2.592v-.912h-1.056v.912h-1.776v.912h1.776v1.92zm-.5 1.524a5.531 5.531 0 0 1 -1.776 1.3 5.162 5.162 0 0 1 -1.74-1.3zm.936-.936-.2.036h-6.62v.9h1.836l-.54.2a6.388 6.388 0 0 0 1.656 1.548 16.731 16.731 0 0 1 -3.432.66 3.421 3.421 0 0 1 .468.936 15.753 15.753 0 0 0 4.08-.984 13.58 13.58 0 0 0 3.8 1 3.974 3.974 0 0 1 .648-.96 15.778 15.778 0 0 1 -3.252-.636 5.788 5.788 0 0 0 2.236-2.328z" transform="translate(274 180.857)"/></g><path d="m70.38 0h143.62" fill="none" stroke="#e61050" transform="translate(51.5 173.711)"/><path d="m202.138 197.09a12.587 12.587 0 1 1 4.875-17.119 12.585 12.585 0 0 1 -4.875 17.119z" fill="#e61050" transform="translate(-183.427 -118.785)"/><path d="m236.066 175.343a10.156 10.156 0 1 1 3.875-13.829 10.156 10.156 0 0 1 -3.875 13.829z" fill="#e61050" transform="translate(-172.469 -123.801)"/><path d="m232.683 228.1c-.242-3.21 5.085-30.414 5.085-30.414s-1.137-4.011-3.489-11.214c-.544-1.666-.942-2.994-1.2-4.1l-4.369-.677a3.034 3.034 0 0 1 -.423-.071l-11.057-1.861a3.528 3.528 0 0 1 .687-6.961s18.335-.315 18.477-.3c0 0 7.116-1.083 11.657 4.264 3.228 3.8 10.941 17.85 7.546 34.6l-.718 17.9a4.173 4.173 0 0 1 -8.345.137l-1.491-12.021-4.2 12.2a4.169 4.169 0 0 1 -8.161-1.478z" fill="#e61050" transform="translate(-174.346 -119.105)"/><path d="m245.229 180.875a4.9 4.9 0 0 0 -6.744-1.586l-20.894 11.711a6.075 6.075 0 0 0 -1.159.549l-16.579 9.2c-5.432 3.006-8.894 7.214-5.48 15.518 1.716 4.148 7.022 16.3 11.19 27.575 2.1 5.631 3.932 11.025 5.17 15.008a47.971 47.971 0 0 1 1.437 5.838c.7 3.559 1.211 7.38 1.64 11.236s.766 7.8 1.06 11.753c.777 10.553 1.256 11.807 1.742 22.538a6.387 6.387 0 0 0 12.771 0c.478-10.754.967-12.077 1.147-22.986.081-5.254.094-10.535-.1-15.92-.061-4.661-.594-9.189-.609-9.2s-.062-.758-.222-2.14c-.083-.694-.19-1.542-.346-2.543-.078-.5-.168-1.043-.278-1.624l-.368-1.8c-.934-4.424-2.357-10.353-4.05-16.481-2.924-10.715-6.28-21.72-8.393-27.308l27.476-22.6a4.893 4.893 0 0 0 1.589-6.738z" fill="#e61050" transform="translate(-180.626 -117.309)"/></svg>