<svg height="217.944" viewBox="0 0 254.2 217.944" width="254.2" xmlns="http://www.w3.org/2000/svg"><path d="m8.33-8.82a4.579 4.579 0 0 0 -.266-.868h2.31c-.112.294-.252.616-.364.868zm-3.29 0v1.3h8.4v-1.3h-1.89c.14-.238.294-.532.462-.868h1.162v-1.3h-3.164v-.868h-1.61v.868h-2.884v1.3h1.036a4.877 4.877 0 0 1 .294.868zm-.728-2.506-.238.07h-3.038v12.474h1.442v-10.99h1.092c-.224.952-.518 2.17-.8 3.052a3.747 3.747 0 0 1 .966 2.45c0 .392-.056.672-.21.784a.725.725 0 0 1 -.392.126c-.168 0-.364 0-.616-.014a3.53 3.53 0 0 1 .366 1.414 5.917 5.917 0 0 0 .9-.028 2 2 0 0 0 .812-.294 2.055 2.055 0 0 0 .616-1.792 4.31 4.31 0 0 0 -1.026-2.814c.392-1.092.854-2.618 1.214-3.812zm2.968 6.926h3.906v.588h-3.906zm0-1.54h3.906v.588h-3.906zm6.23 3.85h-3.5v-.71h2.716v-4.144h-6.926v4.144h2.6v.714h-3.472v1.316h3.472v1.988h1.61v-1.988h3.5zm15.33-8.13a16.567 16.567 0 0 0 -1.134-1.9l-1.106.462a13.969 13.969 0 0 1 1.134 1.928zm-9.408-.91a15.35 15.35 0 0 1 -.294 2.94c-.7.056-1.358.1-1.792.112a12.873 12.873 0 0 1 -1.47 0l.154 1.878c.434-.07 1.148-.168 1.54-.21.266-.042.7-.1 1.19-.154a20.564 20.564 0 0 1 -2.786 6.48l1.806.728a30.043 30.043 0 0 0 2.828-7.406c.392-.028.728-.056.952-.056.868 0 1.344.154 1.344 1.26a10.585 10.585 0 0 1 -.56 3.794 1.019 1.019 0 0 1 -1.036.6 8.09 8.09 0 0 1 -1.708-.292l.308 1.834a7.849 7.849 0 0 0 1.652.2 2.215 2.215 0 0 0 2.282-1.278 13.553 13.553 0 0 0 .784-5.054c0-1.988-1.036-2.646-2.506-2.646-.28 0-.7.028-1.162.056.1-.5.21-1.008.294-1.428.07-.35.154-.784.238-1.148zm7.742 1.554c-.28-.518-.77-1.4-1.12-1.918l-1.106.462a15.479 15.479 0 0 1 .952 1.652l-1.288.546a15.7 15.7 0 0 1 2.338 5.222l1.764-.826a27.548 27.548 0 0 0 -2.254-4.83zm6.734-.392-2.128-.032a8.035 8.035 0 0 1 .1 1.4c0 .854.028 2.464.154 3.738.392 3.724 1.722 5.1 3.234 5.1 1.12 0 1.988-.854 2.912-3.262l-1.4-1.68c-.266 1.092-.812 2.716-1.47 2.716-.868 0-1.288-1.358-1.484-3.36-.084-.994-.1-2.044-.084-2.94a10.986 10.986 0 0 1 .166-1.68zm6.93.294-1.764.588c1.512 1.708 2.254 4.97 2.464 7.2l1.834-.7a15.11 15.11 0 0 0 -2.534-7.088zm11.4.77h2.282a19.118 19.118 0 0 1 -1.52 1.274h-.77zm3.052 6.118h-4.82v-.9h4.816zm-4.82 2.212v-.952h4.816v.952zm8.162-5.586v-1.47h-3.248a20.478 20.478 0 0 0 2.758-3.08l-1.428-.728a17.049 17.049 0 0 1 -1.442 1.778v-.686h-3.038v-1.512h-1.652v1.512h-3.29v1.446h3.29v1.27h-4.494v1.47h4.76a24.92 24.92 0 0 1 -5.208 2.324 9.173 9.173 0 0 1 1.022 1.372c.714-.266 1.442-.574 2.142-.882v4.578h1.666v-.42h4.816v.364h1.736v-6.216h-5.082c.574-.364 1.106-.728 1.652-1.12zm14.91-5.082h-12.068v1.4h12.068zm-7.196 10.248h2.072v.616h-2.072zm-.812-5.138a7.988 7.988 0 0 1 -1.568 1.876c.07-.672.1-1.3.112-1.876zm5.8-1.96v.756h-7.256v-.756zm-4.4 2.772c.154-.252.294-.518.42-.77l-.14-.042h1.68c-.1.266-.238.546-.364.812zm1.484 1.708h-2.072v-.588h2.072zm0 1.582h-2.072v-.56h2.072zm5.25 1.652h-3.682v-.616h2.94v-1.036h-2.94v-.56h2.94v-1.022h-2.94v-.588h3.29v-1.12h-3.108c.182-.266.378-.532.56-.812h2.24v-3.168h-10.542v2.758c0 1.89-.126 4.606-1.568 6.51a6.081 6.081 0 0 1 1.4.966 9.185 9.185 0 0 0 1.526-3.834c.182.224.364.462.462.616.168-.126.35-.266.518-.42v3.92h1.582v-.432h7.322zm9.912-4.06v-1.722h2.954v1.722zm-4.354 0c.028-.518.042-1.022.042-1.47v-.252h2.632v1.722zm2.674-4.9v1.624h-2.632v-1.624zm4.634 1.624h-2.954v-1.624h2.954zm1.652-3.206h-10.57v5c0 1.96-.126 4.452-1.652 6.132a6.15 6.15 0 0 1 1.316 1.076 8.017 8.017 0 0 0 1.764-4.158h2.856v3.906h1.68v-3.906h2.954v2.1c0 .252-.1.336-.364.336s-1.176.014-1.96-.028a6.294 6.294 0 0 1 .532 1.6 6.5 6.5 0 0 0 2.688-.298c.56-.252.756-.7.756-1.6zm6.874 5.95-.252-1.036c-1.288.5-2.632 1.022-3.514 1.3l.784 1.344c.756-.336 1.68-.77 2.562-1.2l.168.966c1.344-.1 3.052-.224 4.746-.378a5.42 5.42 0 0 1 .294.7l1.26-.56a5.784 5.784 0 0 0 -.476-1.008 15.445 15.445 0 0 1 2.226 1.526l1.2-.994a17.791 17.791 0 0 0 -2.922-1.79l-.854.686c-.224-.336-.476-.672-.7-.966l-1.176.49c.168.238.35.49.5.756l-1.442.07a34.038 34.038 0 0 0 2.6-2.73l-1.3-.6c-.35.5-.784 1.064-1.274 1.638-.21-.168-.448-.336-.7-.518.406-.476.868-1.05 1.3-1.61l-.3-.116h5.8v-1.484h-5.058v-1.358h-1.708v1.358h-4.924v1.484h4.578c-.2.35-.42.728-.658 1.078l-.336-.21-.644.784a13.959 13.959 0 0 0 -2.02-1.332l-1.106.91a11.032 11.032 0 0 1 2.1 1.54l1.022-.854a16.892 16.892 0 0 1 1.764 1.3c-.266.266-.532.532-.8.784zm6.468-1.414a20.658 20.658 0 0 0 2.156-1.722l-1.484-.714a12.718 12.718 0 0 1 -1.89 1.778zm-3 2.674h-1.704v.9h-5.376v1.54h5.376v2.488h1.708v-2.492h5.488v-1.54h-5.488z" transform="translate(79 12.124)"/><g fill="#a21b43"><path d="m-110.08-29.707h28.467v10.842h-51.339l26.536-32.135q3.911-4.8 6.56-8.317a63.223 63.223 0 0 0 4.034-5.883 16.559 16.559 0 0 0 2.822-8.371 11.924 11.924 0 0 0 -3.763-8.961 12.916 12.916 0 0 0 -9.307-3.614q-11.585 0-13.268 13.714h-11.486q2.772-24.16 24.407-24.16a24.654 24.654 0 0 1 17.526 6.634 21.548 21.548 0 0 1 7.129 16.436 24.969 24.969 0 0 1 -3.317 12.228 59.908 59.908 0 0 1 -4.921 7.402q-3.243 4.282-8.193 10.124zm45.943 5.3a6.565 6.565 0 0 1 2.03-4.8 6.621 6.621 0 0 1 4.852-2.03 6.621 6.621 0 0 1 4.852 2.03 6.621 6.621 0 0 1 2.03 4.852 6.678 6.678 0 0 1 -2.03 4.9 6.6 6.6 0 0 1 -4.852 1.98 6.657 6.657 0 0 1 -4.9-1.98 6.717 6.717 0 0 1 -1.982-4.955zm45.3 8.169-8.463-6.291 18.268-24.9q-1.485.2-2.525.3t-1.683.1a21.488 21.488 0 0 1 -16.04-7.08 23.6 23.6 0 0 1 -6.733-16.932 24.561 24.561 0 0 1 7.476-18.021 24.585 24.585 0 0 1 18.017-7.53 25.358 25.358 0 0 1 18.169 7.426 23.318 23.318 0 0 1 7.723 17.427q0 8.911-7.525 19.258zm-5.941-55.646a14.124 14.124 0 0 0 4.208 10.4 13.97 13.97 0 0 0 10.248 4.258 13.889 13.889 0 0 0 10.2-4.208 13.97 13.97 0 0 0 4.256-10.256 13.97 13.97 0 0 0 -4.258-10.248 13.947 13.947 0 0 0 -10.248-4.208 13.831 13.831 0 0 0 -10.149 4.208 13.744 13.744 0 0 0 -4.257 10.05zm63.369 13.264a18.789 18.789 0 0 1 -8.416-16.189 20.846 20.846 0 0 1 6.386-15.545 22.073 22.073 0 0 1 15.991-6.238 21.674 21.674 0 0 1 15.842 6.238 20.884 20.884 0 0 1 6.337 15.595q0 9.852-8.367 16.09a17.728 17.728 0 0 1 7.228 7.228 21.43 21.43 0 0 1 2.673 10.694q0 10.149-6.634 16.635t-16.98 6.485q-10.595 0-17.476-6.535a21.636 21.636 0 0 1 -6.931-16.438q0-12.871 10.347-18.02zm2.426-16.238a11.161 11.161 0 0 0 3.317 8.218 11.065 11.065 0 0 0 8.119 3.367 11.008 11.008 0 0 0 8.07-3.367 11.008 11.008 0 0 0 3.367-8.07 11.008 11.008 0 0 0 -3.367-8.07 11.008 11.008 0 0 0 -8.07-3.367 11.008 11.008 0 0 0 -8.07 3.367 10.839 10.839 0 0 0 -3.366 7.922zm-1.436 33.863a12.687 12.687 0 0 0 3.664 9.109 12.187 12.187 0 0 0 9.01 3.763 12.211 12.211 0 0 0 8.961-3.713 12.375 12.375 0 0 0 3.713-9.01 12.269 12.269 0 0 0 -3.713-9.01 12.211 12.211 0 0 0 -8.961-3.713 12.317 12.317 0 0 0 -8.961 3.713 12.1 12.1 0 0 0 -3.713 8.861z" transform="translate(157.78 149.98)"/><path d="m10.352-14v-3.887a7.925 7.925 0 0 0 3.887-.645 3.987 3.987 0 0 0 1.777-3.633 4.118 4.118 0 0 0 -1.289-3.145 4.543 4.543 0 0 0 -3.3-1.23 4.271 4.271 0 0 0 -2.93.918 6.082 6.082 0 0 0 -1.484 3.164h-4.533q.7-4.258 2.891-6.24a8.777 8.777 0 0 1 6.113-1.982 9.072 9.072 0 0 1 6.465 2.344 7.817 7.817 0 0 1 2.5 6 7.43 7.43 0 0 1 -3.281 6.436q3.75 2.207 3.75 7.168a8.718 8.718 0 0 1 -2.734 6.642 9.809 9.809 0 0 1 -7.012 2.578q-5.449 0-8.086-4a10.392 10.392 0 0 1 -1.386-4.652h4.394a5.343 5.343 0 0 0 1.706 3.35 5.261 5.261 0 0 0 3.545 1.162 4.916 4.916 0 0 0 3.655-1.465 5.274 5.274 0 0 0 1.445-3.809 4.638 4.638 0 0 0 -2.168-4.336 8.027 8.027 0 0 0 -3.925-.738zm17.793 11.813a2.59 2.59 0 0 1 .8-1.895 2.612 2.612 0 0 1 1.914-.8 2.612 2.612 0 0 1 1.914.8 2.612 2.612 0 0 1 .8 1.914 2.635 2.635 0 0 1 -.8 1.934 2.6 2.6 0 0 1 -1.914.781 2.626 2.626 0 0 1 -1.934-.781 2.65 2.65 0 0 1 -.78-1.953zm16.523-23.713h-5.215l2.5-4.258h7.266v30.158h-4.551z" transform="translate(96 203.478)"/><path d="m-15.135-21.111a5.956 5.956 0 0 1 1.951-4.43 6.474 6.474 0 0 1 4.584-1.881 6.347 6.347 0 0 1 4.605 1.9 6.058 6.058 0 0 1 1.934 4.5 6.078 6.078 0 0 1 -1.929 4.516 6.44 6.44 0 0 1 -4.658 1.881 6.259 6.259 0 0 1 -4.588-1.916 6.268 6.268 0 0 1 -1.899-4.57zm3.059.053a3.4 3.4 0 0 0 1.02 2.5 3.374 3.374 0 0 0 2.479 1.02 3.333 3.333 0 0 0 2.443-1.02 3.353 3.353 0 0 0 1.02-2.461 3.333 3.333 0 0 0 -1.02-2.443 3.353 3.353 0 0 0 -2.466-1.024 3.353 3.353 0 0 0 -2.461 1.02 3.293 3.293 0 0 0 -1.015 2.407zm18.9-6.557 1.916 1.09-15.54 26.964-1.936-1.16zm-4.785 21.375a5.937 5.937 0 0 1 1.951-4.412 6.474 6.474 0 0 1 4.588-1.881 6.367 6.367 0 0 1 4.623 1.9 6.058 6.058 0 0 1 1.934 4.5 6.015 6.015 0 0 1 -1.951 4.518 6.433 6.433 0 0 1 -4.659 1.861 6.288 6.288 0 0 1 -4.588-1.9 6.251 6.251 0 0 1 -1.898-4.586zm3.076.07a3.425 3.425 0 0 0 1 2.5 3.374 3.374 0 0 0 2.485 1.016 3.3 3.3 0 0 0 2.443-1.02 3.353 3.353 0 0 0 1.02-2.461 3.353 3.353 0 0 0 -1.024-2.465 3.316 3.316 0 0 0 -2.461-1.02 3.333 3.333 0 0 0 -2.443 1.02 3.313 3.313 0 0 0 -1.02 2.43z" transform="translate(239 184.478)"/><path d="m-6.727-9.383a2.647 2.647 0 0 1 .867-1.969 2.877 2.877 0 0 1 2.039-.836 2.821 2.821 0 0 1 2.047.844 2.692 2.692 0 0 1 .859 2 2.7 2.7 0 0 1 -.859 2.008 2.862 2.862 0 0 1 -2.07.836 2.782 2.782 0 0 1 -2.039-.852 2.786 2.786 0 0 1 -.844-2.031zm1.359.023a1.509 1.509 0 0 0 .454 1.11 1.5 1.5 0 0 0 1.1.453 1.481 1.481 0 0 0 1.087-.453 1.49 1.49 0 0 0 .453-1.094 1.481 1.481 0 0 0 -.453-1.086 1.49 1.49 0 0 0 -1.094-.453 1.49 1.49 0 0 0 -1.094.453 1.464 1.464 0 0 0 -.452 1.071zm8.4-2.914.852.484-6.907 11.99-.86-.52zm-2.126 9.501a2.639 2.639 0 0 1 .867-1.961 2.877 2.877 0 0 1 2.04-.836 2.83 2.83 0 0 1 2.055.844 2.692 2.692 0 0 1 .859 2 2.673 2.673 0 0 1 -.868 2.007 2.859 2.859 0 0 1 -2.07.828 2.8 2.8 0 0 1 -2.039-.843 2.778 2.778 0 0 1 -.844-2.039zm1.367.031a1.522 1.522 0 0 0 .445 1.109 1.5 1.5 0 0 0 1.1.453 1.465 1.465 0 0 0 1.086-.453 1.49 1.49 0 0 0 .453-1.094 1.49 1.49 0 0 0 -.451-1.093 1.474 1.474 0 0 0 -1.094-.453 1.481 1.481 0 0 0 -1.086.453 1.472 1.472 0 0 0 -.453 1.078z" transform="translate(162 202.478)"/><path d="m-28.152 0h5.7v-1.176h-2.208c-.432 0-.984.036-1.44.084 1.872-1.788 3.228-3.552 3.228-5.256a2.5 2.5 0 0 0 -2.664-2.652 3.429 3.429 0 0 0 -2.688 1.32l.78.768a2.4 2.4 0 0 1 1.744-.988 1.434 1.434 0 0 1 1.5 1.62c0 1.452-1.344 3.168-3.948 5.472zm10.932.156c1.728 0 2.856-1.536 2.856-4.608 0-3.048-1.128-4.548-2.856-4.548s-2.856 1.488-2.856 4.548 1.128 4.608 2.856 4.608zm0-1.092c-.9 0-1.536-.96-1.536-3.516 0-2.532.636-3.456 1.536-3.456s1.536.924 1.536 3.456c0 2.552-.636 3.516-1.536 3.516zm5.652.936h5.04v-1.14h-1.728v-7.7h-1.044a5.194 5.194 0 0 1 -1.92.684v.876h1.584v6.14h-1.932zm8.808-6.1c0-1.152.6-1.836 1.356-1.836.96 0 1.62.792 1.752 2.532a2.1 2.1 0 0 1 -1.68 1.08c-.924.004-1.428-.644-1.428-1.776zm1.116 6.256c1.7 0 3.288-1.392 3.288-4.872 0-2.928-1.368-4.284-3.06-4.284a2.7 2.7 0 0 0 -2.628 2.9c0 1.848 1 2.772 2.472 2.772a2.655 2.655 0 0 0 1.944-1.028c-.084 2.52-1.008 3.384-2.072 3.384a1.963 1.963 0 0 1 -1.44-.66l-.76.852a3.031 3.031 0 0 0 2.256.936zm8.76-2.94v-2.124h2.412v2.124zm7.776 0h-4.212v-2.124h3.348v-1.044h-3.348v-1.656h3.62v-1.08h-6.944c.156-.36.324-.756.468-1.128l-1.128-.3a9.709 9.709 0 0 1 -2.616 4.068 8.874 8.874 0 0 1 .972.72 10.917 10.917 0 0 0 1.728-2.28h2.748v1.656h-3.528v3.168h-1.932v1.084h5.46v2.648h1.152v-2.648h4.212zm4.308-5.16h8.784v-1h-4.368v-1.128h-1.164v1.132h-4.32v3.384c0 1.74-.084 4.176-1.056 5.88a5.051 5.051 0 0 1 .912.612c1.044-1.824 1.212-4.608 1.212-6.492zm5.772 2.112v1.056h-2.592v-1.056zm1.092 1.92v-1.92h1.836v-.912h-1.836v-.912h-1.092v.912h-2.592v-.912h-1.056v.912h-1.776v.912h1.776v1.92zm-.5 1.524a5.531 5.531 0 0 1 -1.776 1.3 5.162 5.162 0 0 1 -1.74-1.3zm.936-.936-.2.036h-6.62v.9h1.836l-.54.2a6.388 6.388 0 0 0 1.656 1.552 16.731 16.731 0 0 1 -3.432.66 3.421 3.421 0 0 1 .468.936 15.753 15.753 0 0 0 4.08-.984 13.58 13.58 0 0 0 3.8 1 3.974 3.974 0 0 1 .652-.964 15.778 15.778 0 0 1 -3.252-.636 5.788 5.788 0 0 0 2.232-2.328z" transform="translate(226 201.124)"/><path d="m.528 0h5.7v-1.176h-2.208c-.432 0-.984.036-1.44.084 1.872-1.788 3.228-3.552 3.228-5.256a2.5 2.5 0 0 0 -2.664-2.652 3.429 3.429 0 0 0 -2.688 1.32l.78.768a2.4 2.4 0 0 1 1.74-.988 1.434 1.434 0 0 1 1.5 1.62c0 1.456-1.344 3.172-3.948 5.48zm10.932.156c1.728 0 2.856-1.536 2.856-4.608 0-3.048-1.128-4.548-2.856-4.548s-2.86 1.488-2.86 4.548 1.132 4.608 2.86 4.608zm0-1.092c-.9 0-1.536-.96-1.536-3.516 0-2.532.636-3.456 1.536-3.456s1.54.924 1.54 3.456c0 2.552-.64 3.516-1.54 3.516zm5.148.936h5.7v-1.176h-2.208c-.432 0-.984.036-1.44.084 1.872-1.788 3.228-3.552 3.228-5.256a2.5 2.5 0 0 0 -2.664-2.652 3.429 3.429 0 0 0 -2.688 1.32l.78.768a2.4 2.4 0 0 1 1.74-.984 1.434 1.434 0 0 1 1.5 1.62c0 1.452-1.344 3.168-3.948 5.472zm10.728.156c1.62 0 2.952-.936 2.952-2.532a2.236 2.236 0 0 0 -1.824-2.208v-.06a2.135 2.135 0 0 0 1.524-2.076c0-1.452-1.116-2.28-2.7-2.28a3.722 3.722 0 0 0 -2.532 1.068l.72.864a2.572 2.572 0 0 1 1.764-.832 1.227 1.227 0 0 1 1.36 1.276c0 .888-.576 1.548-2.316 1.548v1.02c1.992 0 2.616.636 2.616 1.608a1.485 1.485 0 0 1 -1.68 1.476 2.854 2.854 0 0 1 -2.088-.972l-.672.888a3.666 3.666 0 0 0 2.876 1.212zm-23.7 15.06v-2.124h2.412v2.124zm7.776 0h-4.212v-2.124h3.348v-1.044h-3.348v-1.656h3.624v-1.08h-6.948c.156-.36.324-.756.468-1.128l-1.128-.3a9.709 9.709 0 0 1 -2.616 4.068 8.874 8.874 0 0 1 .972.72 10.917 10.917 0 0 0 1.728-2.28h2.748v1.656h-3.528v3.168h-1.932v1.084h5.46v2.652h1.152v-2.652h4.212zm4.308-5.16h8.78v-1h-4.364v-1.124h-1.164v1.128h-4.32v3.384c0 1.74-.084 4.176-1.056 5.88a5.051 5.051 0 0 1 .912.612c1.044-1.824 1.212-4.608 1.212-6.492zm5.772 2.112v1.056h-2.592v-1.056zm1.092 1.92v-1.92h1.836v-.912h-1.836v-.912h-1.092v.912h-2.592v-.912h-1.056v.912h-1.776v.912h1.776v1.92zm-.5 1.524a5.531 5.531 0 0 1 -1.776 1.3 5.162 5.162 0 0 1 -1.74-1.3zm.936-.936-.2.036h-6.62v.9h1.836l-.54.2a6.388 6.388 0 0 0 1.656 1.548 16.731 16.731 0 0 1 -3.432.66 3.421 3.421 0 0 1 .468.936 15.753 15.753 0 0 0 4.08-.984 13.58 13.58 0 0 0 3.8 1 3.974 3.974 0 0 1 .648-.96 15.778 15.778 0 0 1 -3.252-.636 5.788 5.788 0 0 0 2.236-2.328z" transform="translate(61 184.124)"/></g><path d="m61.5 156.978h136" fill="none" stroke="#a21b43"/><path d="m253.44 11.954a6.072 6.072 0 1 0 -7.386-4.378 6.07 6.07 0 0 0 7.386 4.378z" fill="#a21b43" transform="translate(-224.484 154.596)"/><path d="m179.262 222.955-.5 5.229a14.156 14.156 0 0 1 2.267 1.828 13.99 13.99 0 1 1 -23.489 13.138l-2.74 6.05a18.8 18.8 0 1 0 24.465-26.248z" fill="#a21b43" transform="translate(-144.685 -40.774)"/><path d="m95.415 145.558c5.316-.058 7.829-2.29 8.374-7.433l1.542-16.148a4.665 4.665 0 0 0 -4.117-5.361 6.142 6.142 0 0 0 -4.714 1.884l-7.584 7.463-7.934.667a2.461 2.461 0 0 0 -2.256 2.453v.148a2.462 2.462 0 0 0 2.461 2.461h9.358l4.255-3.142-.711 7.875-10.366.756c-3.008.119-4.335 1.325-5.468 4.027l-4.892 13.44a3.273 3.273 0 0 0 5.971 2.684l5.514-11.775h10.57z" fill="#a21b43" transform="translate(-73.071 52.425)"/></svg>