<svg height="206.871" viewBox="0 0 369.005 206.871" width="369.005" xmlns="http://www.w3.org/2000/svg"><path d="m.528 0h5.7v-1.176h-2.208c-.432 0-.984.036-1.44.084 1.872-1.788 3.228-3.552 3.228-5.256a2.5 2.5 0 0 0 -2.664-2.652 3.429 3.429 0 0 0 -2.688 1.32l.78.768a2.4 2.4 0 0 1 1.74-.988 1.434 1.434 0 0 1 1.5 1.62c0 1.456-1.344 3.172-3.948 5.48zm10.932.156c1.728 0 2.856-1.536 2.856-4.608 0-3.048-1.128-4.548-2.856-4.548s-2.86 1.488-2.86 4.548 1.132 4.608 2.86 4.608zm0-1.092c-.9 0-1.536-.96-1.536-3.516 0-2.532.636-3.456 1.536-3.456s1.54.924 1.54 3.456c0 2.552-.64 3.516-1.54 3.516zm5.148.936h5.7v-1.176h-2.208c-.432 0-.984.036-1.44.084 1.872-1.788 3.228-3.552 3.228-5.256a2.5 2.5 0 0 0 -2.664-2.652 3.429 3.429 0 0 0 -2.688 1.32l.78.768a2.4 2.4 0 0 1 1.74-.984 1.434 1.434 0 0 1 1.5 1.62c0 1.452-1.344 3.168-3.948 5.472zm10.728.156c1.62 0 2.952-.936 2.952-2.532a2.236 2.236 0 0 0 -1.824-2.208v-.06a2.135 2.135 0 0 0 1.524-2.076c0-1.452-1.116-2.28-2.7-2.28a3.722 3.722 0 0 0 -2.532 1.068l.72.864a2.572 2.572 0 0 1 1.764-.832 1.227 1.227 0 0 1 1.36 1.276c0 .888-.576 1.548-2.316 1.548v1.02c1.992 0 2.616.636 2.616 1.608a1.485 1.485 0 0 1 -1.68 1.476 2.854 2.854 0 0 1 -2.088-.972l-.672.888a3.666 3.666 0 0 0 2.876 1.212zm-23.7 15.06v-2.124h2.412v2.124zm7.776 0h-4.212v-2.124h3.348v-1.044h-3.348v-1.656h3.624v-1.08h-6.948c.156-.36.324-.756.468-1.128l-1.128-.3a9.709 9.709 0 0 1 -2.616 4.068 8.874 8.874 0 0 1 .972.72 10.917 10.917 0 0 0 1.728-2.28h2.748v1.656h-3.528v3.168h-1.932v1.084h5.46v2.652h1.152v-2.652h4.212zm4.308-5.16h8.78v-1h-4.364v-1.124h-1.164v1.128h-4.32v3.384c0 1.74-.084 4.176-1.056 5.88a5.051 5.051 0 0 1 .912.612c1.044-1.824 1.212-4.608 1.212-6.492zm5.772 2.112v1.056h-2.592v-1.056zm1.092 1.92v-1.92h1.836v-.912h-1.836v-.912h-1.092v.912h-2.592v-.912h-1.056v.912h-1.776v.912h1.776v1.92zm-.5 1.524a5.531 5.531 0 0 1 -1.776 1.3 5.162 5.162 0 0 1 -1.74-1.3zm.936-.936-.2.036h-6.62v.9h1.836l-.54.2a6.388 6.388 0 0 0 1.656 1.548 16.731 16.731 0 0 1 -3.432.66 3.421 3.421 0 0 1 .468.936 15.753 15.753 0 0 0 4.08-.984 13.58 13.58 0 0 0 3.8 1 3.974 3.974 0 0 1 .648-.96 15.778 15.778 0 0 1 -3.252-.636 5.788 5.788 0 0 0 2.236-2.328z" fill="#e61050" transform="translate(110 186.97)"/><path d="m-42.966-7.014a8.959 8.959 0 0 1 -1.722 3.822c-1.05-.462-2.1-.868-3.052-1.2.35-.826.728-1.708 1.092-2.618zm3.976 0v-1.694h-6.972c.392-.966.756-1.932 1.092-2.828l-1.834-.308c-.336.966-.742 2.044-1.162 3.136h-3.822v1.694h3.136c-.616 1.5-1.246 2.912-1.778 4l1.68.616.238-.518q1.113.441 2.268.966a13.221 13.221 0 0 1 -5.432 1.53 5.613 5.613 0 0 1 .882 1.666 13.418 13.418 0 0 0 6.426-2.282 23.716 23.716 0 0 1 3.78 2.324l1.274-1.568a25.458 25.458 0 0 0 -3.724-2.128 11.655 11.655 0 0 0 1.876-4.606zm11.914 6.2v-2.8h2.562v-1.552h-2.562v-2.3h2.856v-1.564h-2.856v-2.744h-1.666v2.744h-1.12c.14-.63.252-1.288.35-1.946l-1.624-.224a16.944 16.944 0 0 1 -.742 3.416 16.052 16.052 0 0 0 -.77-1.764l-.812.336v-2.646h-1.666v2.858l-1.174-.17a16.639 16.639 0 0 1 -.686 3.64l1.232.448a17.841 17.841 0 0 0 .63-3.71v10.01h1.666v-9.562a9.735 9.735 0 0 1 .532 1.61l.8-.364c-.14.294-.28.56-.42.812a14.722 14.722 0 0 1 1.484.756 9.563 9.563 0 0 0 .784-1.932h1.54v2.3h-2.7v1.554h2.7v2.8h-3.742v1.578h8.708v-1.582zm15.274-.35v.784h-5.544v-.784zm-1.064-3.78v.728h-4.48v-.728zm-4.48 1.918h6.132v-3.12h-7.728v7.378h1.6v-.378h5.542v.378h1.652v-3.612h-7.2zm8.666-7.854h-4.06q.189-.357.336-.714l-1.582-.378a6.455 6.455 0 0 1 -1.33 2.03v-.938h-3.108c.112-.224.224-.448.322-.672l-1.554-.42a7.516 7.516 0 0 1 -2.058 2.842 8.759 8.759 0 0 1 1.358.9 10.341 10.341 0 0 0 1.12-1.344h.236a7.952 7.952 0 0 1 .63 1.344l1.5-.42a7.059 7.059 0 0 0 -.462-.924h1.638c-.112.1-.238.2-.35.28.182.084.448.21.7.35h-.616v.98h-5.152v2.772h1.568v-1.528h8.918v1.526h1.626v-2.772h-5.362v-.756a7.7 7.7 0 0 0 .77-.854h.812a8.253 8.253 0 0 1 .84 1.372l1.54-.434a7.043 7.043 0 0 0 -.588-.938h2.31zm6.706 7.73c-.448.154-.91.294-1.372.434v-2.8h1.26v-1.526h-1.26v-2.464h1.5v-1.554h-4.62v1.554h1.54v2.464h-1.416v1.526h1.414v3.29c-.644.182-1.218.336-1.708.462l.378 1.694c1.344-.43 3.024-.966 4.564-1.512zm2.156-4.228h1.442v1.2h-1.442zm0-2.478h1.442v1.162h-1.442zm4.228 1.162h-1.386v-1.162h1.386zm0 2.52h-1.386v-1.2h1.386zm-1.232 5.446v-1.33h2.968v-1.5h-2.968v-1.2h2.814v-6.51h-7.308v6.51h2.8v1.2h-2.9v1.5h2.9v1.33h-3.864v1.512h9v-1.512zm11.858-.952v-.84h1.288v.84zm1.288-2.758v.84h-1.288v-.84zm-.042-4.914a13.478 13.478 0 0 1 -.364 1.694l.728.168h-2.016l.63-.154a6.239 6.239 0 0 0 -.36-1.708zm-4.676.994h-.924v-1.512h.924zm-.924 5.894v-1.694h.924v1.526zm.924-3.036h-.924v-1.514h.924zm8.6-.182a13.215 13.215 0 0 1 -.5 1.54q-.084-.945-.126-2.058h2.1v-1.29h-2.164c-.028-.938-.042-1.918-.042-2.954a9.6 9.6 0 0 1 1.106 2.044l1.162-.644a9.323 9.323 0 0 0 -1.372-2.226l-.9.476v-1.05h-1.452c.014 1.554.042 3.01.084 4.354h-1.12c.154-.448.35-1.078.56-1.68l-.952-.182h1.2v-1.218h-1.424v-1.26h-1.414v1.26h-1.372v-.756h-4.8v1.456h.546v7.63c-.294.056-.574.1-.826.126l.28 1.526c.84-.168 1.834-.378 2.828-.588v2.394h1.386v-11.088h.532v.518h1.104l-.812.2a7.52 7.52 0 0 1 .308 1.666h-.882v1.286h4.914a37.061 37.061 0 0 0 .378 4.144 7.645 7.645 0 0 1 -.924 1.076v-4.606h-3.85v5.852h1.274v-.812h2.1a8.429 8.429 0 0 1 -.994.7 7.482 7.482 0 0 1 .952 1.092 9.672 9.672 0 0 0 1.834-1.638c.336 1.022.8 1.582 1.428 1.6.476 0 1.134-.49 1.484-2.758a4.87 4.87 0 0 1 -1.078-.924c-.056 1.106-.168 1.75-.336 1.75s-.322-.392-.448-1.064a13.762 13.762 0 0 0 1.554-3.6zm8.694 3.834v1.19h-2.79v-1.19zm-4.288 3.048h1.5v-.612h2.788v.476h1.582v-4.158h-5.87zm5.068-9.52h-1.428v-.756h-1.526v.756h-1.426v-1.032h4.38zm-1.4-3.458h-1.6v1.162h-2.852v2.416h.686v1.06h2.212v.588h-2.072v1.106h2.072v.6h-2.856v1.276h7.2v-1.274h-2.818v-.6h2.048v-1.108h-2.048v-.588h2.24v-1.06h.728v-2.408h-2.94zm5.11 1.4h-1.582v7.826h1.582zm1.316-1.232v10.784c0 .224-.1.308-.336.308-.28 0-1.078.014-1.89-.028a6.82 6.82 0 0 1 .546 1.722 6.158 6.158 0 0 0 2.562-.336c.56-.266.728-.728.728-1.652v-10.794zm13.44 8.568v2.286h-5.53v-2.282zm-7.168 4.27h1.638v-.514h5.53v.518h1.708v-5.74h-8.876zm1.554-8.6a14.3 14.3 0 0 0 2.786-2.842 15.337 15.337 0 0 0 2.87 2.842zm1.848-4.48a14.821 14.821 0 0 1 -5.7 4.984 6.8 6.8 0 0 1 1.052 1.368 19.506 19.506 0 0 0 2.168-1.374v.98h6.972v-.966a16.793 16.793 0 0 0 2.142 1.33 8.138 8.138 0 0 1 1.078-1.5 14.064 14.064 0 0 1 -5.992-4.814z" transform="translate(162 11.97)"/><g fill="#e61050"><path d="m-30.023-26.517h10.09v13.043h-10.09v13.474h-14.335v-13.474h-46.635l60.97-88.594zm-14.335 0v-31.807l-21.9 31.808zm40.851 19.626a8.158 8.158 0 0 1 2.523-5.967 8.228 8.228 0 0 1 6.029-2.522 8.228 8.228 0 0 1 6.029 2.522 8.228 8.228 0 0 1 2.526 6.029 8.3 8.3 0 0 1 -2.526 6.091 8.2 8.2 0 0 1 -6.029 2.461 8.273 8.273 0 0 1 -6.091-2.461 8.347 8.347 0 0 1 -2.461-6.153zm52.049-74.689h-16.427l7.875-13.412h22.887v94.992h-14.335z" transform="translate(92 143.324)"/><path d="m15.7-31.211 3.34 2.5-7.207 9.8q.586-.078 1-.117t.645-.039a8.471 8.471 0 0 1 6.348 2.813 9.311 9.311 0 0 1 2.654 6.684 9.7 9.7 0 0 1 -2.969 7.109 9.667 9.667 0 0 1 -7.089 2.949 10.15 10.15 0 0 1 -7.187-2.91 9.247 9.247 0 0 1 -3.028-6.894 12.978 12.978 0 0 1 2.949-7.578zm2.347 21.934a5.525 5.525 0 0 0 -1.66-4.062 5.511 5.511 0 0 0 -4.043-1.68 5.5 5.5 0 0 0 -4.044 1.66 5.479 5.479 0 0 0 -1.66 4.023 5.479 5.479 0 0 0 1.66 4.024 5.525 5.525 0 0 0 4.063 1.66 5.457 5.457 0 0 0 4-1.66 5.422 5.422 0 0 0 1.684-3.965zm10.1 7.09a2.59 2.59 0 0 1 .8-1.895 2.612 2.612 0 0 1 1.914-.8 2.612 2.612 0 0 1 1.914.8 2.612 2.612 0 0 1 .8 1.914 2.635 2.635 0 0 1 -.8 1.934 2.6 2.6 0 0 1 -1.914.781 2.626 2.626 0 0 1 -1.934-.781 2.65 2.65 0 0 1 -.782-1.953zm10.583-13.086q0-7.207 3.359-11.5a8.955 8.955 0 0 1 7.285-3.887 8.955 8.955 0 0 1 7.285 3.887q3.359 4.3 3.359 11.7.002 7.373-3.358 11.673a8.939 8.939 0 0 1 -7.265 3.888 9.042 9.042 0 0 1 -7.305-3.888q-3.36-4.3-3.36-11.873zm4.473.02a17.869 17.869 0 0 0 1.738 8.34q1.738 3.262 4.434 3.262 2.676 0 4.434-3.262a17.04 17.04 0 0 0 1.757-8.187 17.158 17.158 0 0 0 -1.758-8.2q-1.758-3.242-4.434-3.242-2.656 0-4.414 3.242a16.648 16.648 0 0 0 -1.76 8.046z" transform="translate(149 206.324)"/><path d="m-22.7-31.667a8.934 8.934 0 0 1 2.927-6.645 9.711 9.711 0 0 1 6.882-2.821 9.52 9.52 0 0 1 6.908 2.848 9.087 9.087 0 0 1 2.9 6.75 9.117 9.117 0 0 1 -2.9 6.776 9.66 9.66 0 0 1 -6.987 2.821 9.389 9.389 0 0 1 -6.882-2.874 9.4 9.4 0 0 1 -2.848-6.855zm4.588.079a5.092 5.092 0 0 0 1.529 3.744 5.061 5.061 0 0 0 3.718 1.529 5 5 0 0 0 3.665-1.529 5.03 5.03 0 0 0 1.529-3.691 5 5 0 0 0 -1.529-3.665 5.03 5.03 0 0 0 -3.691-1.529 5.03 5.03 0 0 0 -3.694 1.529 4.94 4.94 0 0 0 -1.529 3.612zm28.342-9.835 2.87 1.635-23.3 40.447-2.9-1.74zm-7.171 32.063a8.906 8.906 0 0 1 2.927-6.618 9.711 9.711 0 0 1 6.881-2.822 9.551 9.551 0 0 1 6.933 2.848 9.087 9.087 0 0 1 2.9 6.752 9.023 9.023 0 0 1 -2.927 6.776 9.65 9.65 0 0 1 -6.985 2.793 9.432 9.432 0 0 1 -6.882-2.848 9.376 9.376 0 0 1 -2.847-6.881zm4.614.105a5.138 5.138 0 0 0 1.5 3.744 5.061 5.061 0 0 0 3.718 1.529 4.944 4.944 0 0 0 3.665-1.529 5.03 5.03 0 0 0 1.532-3.689 5.03 5.03 0 0 0 -1.529-3.691 4.974 4.974 0 0 0 -3.691-1.529 5 5 0 0 0 -3.668 1.526 4.969 4.969 0 0 0 -1.527 3.639z" transform="translate(209 125.324)"/><path d="m-6.727-9.383a2.647 2.647 0 0 1 .867-1.969 2.877 2.877 0 0 1 2.039-.836 2.821 2.821 0 0 1 2.047.844 2.692 2.692 0 0 1 .859 2 2.7 2.7 0 0 1 -.859 2.008 2.862 2.862 0 0 1 -2.07.836 2.782 2.782 0 0 1 -2.039-.852 2.786 2.786 0 0 1 -.844-2.031zm1.359.023a1.509 1.509 0 0 0 .454 1.11 1.5 1.5 0 0 0 1.1.453 1.481 1.481 0 0 0 1.087-.453 1.49 1.49 0 0 0 .453-1.094 1.481 1.481 0 0 0 -.453-1.086 1.49 1.49 0 0 0 -1.094-.453 1.49 1.49 0 0 0 -1.094.453 1.464 1.464 0 0 0 -.452 1.071zm8.4-2.914.852.484-6.907 11.99-.86-.52zm-2.126 9.501a2.639 2.639 0 0 1 .867-1.961 2.877 2.877 0 0 1 2.04-.836 2.83 2.83 0 0 1 2.055.844 2.692 2.692 0 0 1 .859 2 2.673 2.673 0 0 1 -.868 2.007 2.859 2.859 0 0 1 -2.07.828 2.8 2.8 0 0 1 -2.039-.843 2.778 2.778 0 0 1 -.844-2.039zm1.367.031a1.522 1.522 0 0 0 .445 1.109 1.5 1.5 0 0 0 1.1.453 1.465 1.465 0 0 0 1.086-.453 1.49 1.49 0 0 0 .453-1.094 1.49 1.49 0 0 0 -.451-1.093 1.474 1.474 0 0 0 -1.094-.453 1.481 1.481 0 0 0 -1.086.453 1.472 1.472 0 0 0 -.453 1.078z" transform="translate(227 205.324)"/><path d="m-28.152 0h5.7v-1.176h-2.208c-.432 0-.984.036-1.44.084 1.872-1.788 3.228-3.552 3.228-5.256a2.5 2.5 0 0 0 -2.664-2.652 3.429 3.429 0 0 0 -2.688 1.32l.78.768a2.4 2.4 0 0 1 1.744-.988 1.434 1.434 0 0 1 1.5 1.62c0 1.452-1.344 3.168-3.948 5.472zm10.932.156c1.728 0 2.856-1.536 2.856-4.608 0-3.048-1.128-4.548-2.856-4.548s-2.856 1.488-2.856 4.548 1.128 4.608 2.856 4.608zm0-1.092c-.9 0-1.536-.96-1.536-3.516 0-2.532.636-3.456 1.536-3.456s1.536.924 1.536 3.456c0 2.552-.636 3.516-1.536 3.516zm5.652.936h5.04v-1.14h-1.728v-7.7h-1.044a5.194 5.194 0 0 1 -1.92.684v.876h1.584v6.14h-1.932zm8.808-6.1c0-1.152.6-1.836 1.356-1.836.96 0 1.62.792 1.752 2.532a2.1 2.1 0 0 1 -1.68 1.08c-.924.004-1.428-.644-1.428-1.776zm1.116 6.256c1.7 0 3.288-1.392 3.288-4.872 0-2.928-1.368-4.284-3.06-4.284a2.7 2.7 0 0 0 -2.628 2.9c0 1.848 1 2.772 2.472 2.772a2.655 2.655 0 0 0 1.944-1.028c-.084 2.52-1.008 3.384-2.072 3.384a1.963 1.963 0 0 1 -1.44-.66l-.76.852a3.031 3.031 0 0 0 2.256.936zm8.76-2.94v-2.124h2.412v2.124zm7.776 0h-4.212v-2.124h3.348v-1.044h-3.348v-1.656h3.62v-1.08h-6.944c.156-.36.324-.756.468-1.128l-1.128-.3a9.709 9.709 0 0 1 -2.616 4.068 8.874 8.874 0 0 1 .972.72 10.917 10.917 0 0 0 1.728-2.28h2.748v1.656h-3.528v3.168h-1.932v1.084h5.46v2.648h1.152v-2.648h4.212zm4.308-5.16h8.784v-1h-4.368v-1.128h-1.164v1.132h-4.32v3.384c0 1.74-.084 4.176-1.056 5.88a5.051 5.051 0 0 1 .912.612c1.044-1.824 1.212-4.608 1.212-6.492zm5.772 2.112v1.056h-2.592v-1.056zm1.092 1.92v-1.92h1.836v-.912h-1.836v-.912h-1.092v.912h-2.592v-.912h-1.056v.912h-1.776v.912h1.776v1.92zm-.5 1.524a5.531 5.531 0 0 1 -1.776 1.3 5.162 5.162 0 0 1 -1.74-1.3zm.936-.936-.2.036h-6.62v.9h1.836l-.54.2a6.388 6.388 0 0 0 1.656 1.552 16.731 16.731 0 0 1 -3.432.66 3.421 3.421 0 0 1 .468.936 15.753 15.753 0 0 0 4.08-.984 13.58 13.58 0 0 0 3.8 1 3.974 3.974 0 0 1 .652-.964 15.778 15.778 0 0 1 -3.252-.636 5.788 5.788 0 0 0 2.232-2.328z" transform="translate(202 144.97)"/></g><path d="m0 0h100.052" fill="none" stroke="#e61050" transform="translate(0 179.824)"/><g fill="#e61050" transform="translate(211.655 60.418)"><path d="m127.016 384.62a.02.02 0 0 0 -.011 0l-1.91.642z" transform="translate(-51.565 -287.183)"/><path d="m130.975 94.165c57.525-42.129 10.757-118.285-43.088-86.688-14.357 2.429-29.434 11.343-25.843 25.923a14.387 14.387 0 0 0 2.042 4.5 22.366 22.366 0 0 0 -1.443 7.546 15.45 15.45 0 0 0 .166 2.3 37.807 37.807 0 0 1 .5 5.583c0 .223-.006.438-.013.654a18.8 18.8 0 0 1 -7.261 1.292 15.178 15.178 0 0 0 6.624 2.707 13.514 13.514 0 0 1 -.542 1.432 25.153 25.153 0 0 1 -4.229 6.141 7.66 7.66 0 0 0 -1.288 1.954 5.056 5.056 0 0 0 -.453 2.065 4.668 4.668 0 0 0 .542 2.174 6.53 6.53 0 0 0 1.758 2.052 13.672 13.672 0 0 0 1.517 1.025 1.759 1.759 0 0 1 .34.6 3.149 3.149 0 0 1 .206 1.075 1.526 1.526 0 0 1 -.062.476l-.038.091-.006.008.006-.006h-.006a4.319 4.319 0 0 0 -.8 1.082 3.051 3.051 0 0 0 .062 2.954 4.694 4.694 0 0 0 1.107 1.266c.094.079.179.14.266.21-.028.077-.057.161-.091.249-.076.21-.162.446-.238.729a4.044 4.044 0 0 0 -.149 1.033 2.875 2.875 0 0 0 .279 1.248 2.727 2.727 0 0 0 .99 1.111l.087.055-.079-.049a1.943 1.943 0 0 1 .823.91 3.561 3.561 0 0 1 .2 1.373c.006.727-.109 1.606-.115 2.6a7.524 7.524 0 0 0 .055.946l-.006-.049.006.053a6.751 6.751 0 0 0 .5 1.847 6.083 6.083 0 0 0 2.289 2.7 7.826 7.826 0 0 0 4.312 1.141 17.657 17.657 0 0 0 5.531-1.048l.013-.006a14.022 14.022 0 0 1 4.454-.812 8.5 8.5 0 0 1 4.568 1.258 11.143 11.143 0 0 1 2.71 2.418 23.392 23.392 0 0 1 3.256 5.55 62.229 62.229 0 0 1 2.408 6.736 13.72 13.72 0 0 1 .625 4.048 13.871 13.871 0 0 1 -2.208 7.365 15.391 15.391 0 0 1 -1.524 2.04c-.206.232-.372.4-.484.514l-.119.113-.019.017v.006l.786.871 1.912 2.151a17.645 17.645 0 0 0 2.884-3.559 17.464 17.464 0 0 0 2.028-14.74c-1.288-4.193-2.867-8.71-5.414-12.361a16.241 16.241 0 0 0 -4.717-4.609 12.552 12.552 0 0 0 -6.687-1.855 18 18 0 0 0 -5.75 1.026 13.6 13.6 0 0 1 -4.25.839 4.591 4.591 0 0 1 -1.64-.253 2.114 2.114 0 0 1 -1.064-.812 2.561 2.561 0 0 1 -.381-1.075 4 4 0 0 1 -.023-.449c-.006-.612.114-1.526.117-2.6a7.548 7.548 0 0 0 -.519-2.934 5.841 5.841 0 0 0 -1.605-2.197l.078-.214c.078-.212.162-.451.24-.736a4.058 4.058 0 0 0 .145-1.039 2.915 2.915 0 0 0 -.24-1.177 2.725 2.725 0 0 0 -.877-1.1l-.485-.361a4.4 4.4 0 0 0 .644-1.25 5.6 5.6 0 0 0 .266-1.742 7.189 7.189 0 0 0 -.6-2.831 6 6 0 0 0 -.727-1.247 4.235 4.235 0 0 0 -1.162-1.058c-.24-.142-.493-.3-.742-.467a4.1 4.1 0 0 1 -.9-.8 1.33 1.33 0 0 1 -.187-.312.557.557 0 0 1 -.041-.213 1.03 1.03 0 0 1 .109-.429 3.777 3.777 0 0 1 .625-.922 28.922 28.922 0 0 0 4.883-7.161 18.373 18.373 0 0 0 1.543-7.731 42 42 0 0 0 -.546-6.19 11.047 11.047 0 0 1 -.123-1.69 16.568 16.568 0 0 1 .506-3.874c5.837 5.634 14.229 8.838 14.229 8.838l2.153-15.392s2.089 30.1 14.178 45.369c5.8 7.327 11.943 11.084 17.351 12.928a13.718 13.718 0 0 0 -.162 2.18c0 3.389.982 8.281 4.11 14.2a28.581 28.581 0 0 0 7.066 8.462 28.136 28.136 0 0 0 4.159 2.905l1.611-2.981.317-.582a24.994 24.994 0 0 1 -3.6-2.542 24.521 24.521 0 0 1 -5.971-7.159c-2.86-5.4-3.644-9.69-3.642-12.3a10.833 10.833 0 0 1 .057-1.124 26.146 26.146 0 0 0 11.92-.213z"/></g></svg>