<svg height="214.934" viewBox="0 0 229.14 214.934" width="229.14" xmlns="http://www.w3.org/2000/svg"><path d="m-35.406-7.014a8.959 8.959 0 0 1 -1.722 3.822c-1.05-.462-2.1-.868-3.052-1.2.35-.826.728-1.708 1.092-2.618zm3.976 0v-1.694h-6.97c.392-.966.756-1.932 1.092-2.828l-1.834-.308c-.336.966-.742 2.044-1.162 3.136h-3.822v1.694h3.136c-.616 1.5-1.246 2.912-1.778 4l1.68.616.238-.518q1.113.441 2.268.966a13.221 13.221 0 0 1 -5.434 1.53 5.613 5.613 0 0 1 .882 1.666 13.418 13.418 0 0 0 6.426-2.282 23.716 23.716 0 0 1 3.78 2.324l1.274-1.568a25.458 25.458 0 0 0 -3.724-2.128 11.655 11.655 0 0 0 1.878-4.606zm11.914 6.2v-2.8h2.562v-1.552h-2.562v-2.3h2.856v-1.564h-2.856v-2.744h-1.666v2.744h-1.118c.14-.63.252-1.288.35-1.946l-1.624-.224a16.944 16.944 0 0 1 -.742 3.416 16.052 16.052 0 0 0 -.77-1.764l-.812.336v-2.646h-1.666v2.858l-1.176-.168a16.639 16.639 0 0 1 -.686 3.64l1.232.448a17.841 17.841 0 0 0 .63-3.71v10.008h1.664v-9.562a9.735 9.735 0 0 1 .532 1.61l.8-.364c-.14.294-.28.56-.42.812a14.722 14.722 0 0 1 1.484.756 9.563 9.563 0 0 0 .784-1.932h1.54v2.3h-2.7v1.554h2.7v2.8h-3.74v1.578h8.708v-1.582zm16.94-10.946a37.587 37.587 0 0 1 -7.042 1.05 5.687 5.687 0 0 1 .434 1.33 39.57 39.57 0 0 0 7.714-1.078zm-.424 5.978a30.994 30.994 0 0 0 1.908-3.318l-1.582-.574a18.293 18.293 0 0 1 -1.61 3.374zm-1.7-1.106a8.518 8.518 0 0 0 -.644-2.548l-1.386.266a9.216 9.216 0 0 1 .56 2.576zm-2.45.42a10.671 10.671 0 0 0 -.952-2.618l-1.316.336a12.265 12.265 0 0 1 .854 2.688zm-2.73.476-1.134.322v-2.016h1.274v-1.526h-1.274v-2.632h-1.516v2.632h-1.47v1.526h1.47v2.422c-.63.154-1.218.308-1.694.406l.364 1.6c.406-.112.868-.238 1.33-.378v3.09c0 .182-.07.238-.238.238a11.31 11.31 0 0 1 -1.162-.014 6.193 6.193 0 0 1 .42 1.54 3.631 3.631 0 0 0 1.946-.308c.42-.266.546-.686.546-1.456v-3.542c.448-.126.9-.266 1.344-.406zm8.68 2.534v-1.442h-3.378v-1.414h-1.568v1.414h-3.29v1.442h2.408a8.357 8.357 0 0 1 -3.3 2.772 7.561 7.561 0 0 1 1.102 1.302 9.7 9.7 0 0 0 3.08-2.884v3.388h1.568v-3.32a10.215 10.215 0 0 0 2.678 2.746 6.255 6.255 0 0 1 1.088-1.26 8.545 8.545 0 0 1 -2.968-2.744zm9.744-.98v-1.722h2.954v1.722zm-4.354 0c.028-.518.042-1.022.042-1.47v-.252h2.628v1.722zm2.674-4.9v1.624h-2.636v-1.624zm4.634 1.624h-2.958v-1.624h2.954zm1.652-3.206h-10.574v5c0 1.958-.126 4.45-1.652 6.13a6.15 6.15 0 0 1 1.316 1.078 8.017 8.017 0 0 0 1.76-4.158h2.86v3.906h1.68v-3.906h2.954v2.1c0 .252-.1.336-.364.336s-1.176.014-1.96-.028a6.294 6.294 0 0 1 .532 1.6 6.5 6.5 0 0 0 2.688-.298c.56-.252.756-.7.756-1.6zm8.19 9.072v1.19h-2.79v-1.19zm-4.288 3.048h1.5v-.612h2.786v.476h1.582v-4.158h-5.868zm5.068-9.52h-1.428v-.756h-1.526v.756h-1.428v-1.032h4.382zm-1.4-3.458h-1.6v1.162h-2.852v2.416h.686v1.06h2.212v.588h-2.072v1.106h2.072v.6h-2.856v1.276h7.2v-1.274h-2.818v-.6h2.044v-1.108h-2.044v-.588h2.24v-1.06h.728v-2.408h-2.94zm5.11 1.4h-1.582v7.826h1.582zm1.316-1.232v10.784c0 .224-.1.308-.336.308-.28 0-1.078.014-1.89-.028a6.82 6.82 0 0 1 .546 1.722 6.158 6.158 0 0 0 2.562-.336c.56-.266.728-.728.728-1.652v-10.794zm13.44 8.568v2.286h-5.53v-2.282zm-7.168 4.27h1.638v-.514h5.53v.518h1.708v-5.74h-8.876zm1.554-8.6a14.3 14.3 0 0 0 2.786-2.842 15.337 15.337 0 0 0 2.87 2.842zm1.848-4.48a14.821 14.821 0 0 1 -5.7 4.984 6.8 6.8 0 0 1 1.052 1.368 19.506 19.506 0 0 0 2.17-1.372v.98h6.972v-.968a16.792 16.792 0 0 0 2.142 1.33 8.137 8.137 0 0 1 1.078-1.5 14.064 14.064 0 0 1 -5.992-4.816z" transform="translate(114.139 11.857)"/><g fill="#a21b43"><path d="m-85.787-84.39h-13.352l6.4-10.9h18.6v77.213h-11.648zm40.437 26.155a18.979 18.979 0 0 1 -8.5-16.353 21.057 21.057 0 0 1 6.451-15.7 22.3 22.3 0 0 1 16.153-6.3 21.893 21.893 0 0 1 16 6.3 21.1 21.1 0 0 1 6.4 15.753q0 9.952-8.451 16.253a17.908 17.908 0 0 1 7.3 7.3 21.647 21.647 0 0 1 2.7 10.8q0 10.252-6.7 16.8t-17.153 6.551q-10.7 0-17.653-6.6a21.855 21.855 0 0 1 -7-16.6q.003-13.003 10.453-18.204zm2.45-16.4a11.274 11.274 0 0 0 3.351 8.3 11.177 11.177 0 0 0 8.2 3.4 11.119 11.119 0 0 0 8.151-3.4 11.119 11.119 0 0 0 3.4-8.151 11.119 11.119 0 0 0 -3.4-8.151 11.119 11.119 0 0 0 -8.151-3.4 11.119 11.119 0 0 0 -8.151 3.4 10.949 10.949 0 0 0 -3.4 7.999zm-1.45 34.206a12.816 12.816 0 0 0 3.7 9.2 12.311 12.311 0 0 0 9.1 3.8 12.334 12.334 0 0 0 9.05-3.751 12.5 12.5 0 0 0 3.751-9.1 12.393 12.393 0 0 0 -3.751-9.1 12.334 12.334 0 0 0 -9.052-3.751 12.442 12.442 0 0 0 -9.048 3.747 12.219 12.219 0 0 0 -3.749 8.952zm48.139 16.75a6.631 6.631 0 0 1 2.05-4.851 6.688 6.688 0 0 1 4.9-2.05 6.688 6.688 0 0 1 4.9 2.05 6.688 6.688 0 0 1 2.05 4.9 6.746 6.746 0 0 1 -2.05 4.951 6.665 6.665 0 0 1 -4.9 2 6.724 6.724 0 0 1 -4.951-2 6.785 6.785 0 0 1 -1.999-5zm37.186-60.711h-13.352l6.4-10.9h18.6v77.213h-11.648z" transform="translate(99.139 231.611)"/><path d="m10.352-14v-3.887a7.925 7.925 0 0 0 3.887-.645 3.987 3.987 0 0 0 1.777-3.633 4.118 4.118 0 0 0 -1.289-3.145 4.543 4.543 0 0 0 -3.3-1.23 4.271 4.271 0 0 0 -2.93.918 6.082 6.082 0 0 0 -1.484 3.164h-4.533q.7-4.258 2.891-6.24a8.777 8.777 0 0 1 6.113-1.982 9.072 9.072 0 0 1 6.465 2.344 7.817 7.817 0 0 1 2.5 6 7.43 7.43 0 0 1 -3.281 6.436q3.75 2.207 3.75 7.168a8.718 8.718 0 0 1 -2.734 6.642 9.809 9.809 0 0 1 -7.012 2.578q-5.449 0-8.086-4a10.392 10.392 0 0 1 -1.386-4.652h4.394a5.343 5.343 0 0 0 1.706 3.35 5.261 5.261 0 0 0 3.545 1.162 4.916 4.916 0 0 0 3.655-1.465 5.274 5.274 0 0 0 1.445-3.809 4.638 4.638 0 0 0 -2.168-4.336 8.027 8.027 0 0 0 -3.925-.738zm24.688 0v-3.887a7.925 7.925 0 0 0 3.887-.645 3.987 3.987 0 0 0 1.773-3.636 4.118 4.118 0 0 0 -1.289-3.145 4.543 4.543 0 0 0 -3.3-1.23 4.271 4.271 0 0 0 -2.93.918 6.082 6.082 0 0 0 -1.481 3.164h-4.532q.7-4.258 2.891-6.24a8.777 8.777 0 0 1 6.113-1.982 9.072 9.072 0 0 1 6.465 2.344 7.817 7.817 0 0 1 2.5 6 7.43 7.43 0 0 1 -3.282 6.439q3.75 2.207 3.75 7.168a8.718 8.718 0 0 1 -2.734 6.642 9.809 9.809 0 0 1 -7.012 2.578q-5.449 0-8.086-4a10.392 10.392 0 0 1 -1.387-4.648h4.395a5.343 5.343 0 0 0 1.709 3.35 5.261 5.261 0 0 0 3.545 1.162 4.916 4.916 0 0 0 3.652-1.465 5.274 5.274 0 0 0 1.445-3.809 4.638 4.638 0 0 0 -2.168-4.336 8.027 8.027 0 0 0 -3.925-.742zm17.792 11.813a2.59 2.59 0 0 1 .8-1.895 2.612 2.612 0 0 1 1.914-.8 2.612 2.612 0 0 1 1.914.8 2.612 2.612 0 0 1 .8 1.914 2.635 2.635 0 0 1 -.8 1.934 2.6 2.6 0 0 1 -1.914.781 2.626 2.626 0 0 1 -1.934-.781 2.65 2.65 0 0 1 -.78-1.953zm24.59-29.023 3.34 2.5-7.207 9.8q.586-.078 1-.117t.645-.039a8.471 8.471 0 0 1 6.348 2.813 9.311 9.311 0 0 1 2.652 6.683 9.7 9.7 0 0 1 -2.97 7.109 9.667 9.667 0 0 1 -7.089 2.949 10.15 10.15 0 0 1 -7.187-2.91 9.247 9.247 0 0 1 -3.027-6.895 12.978 12.978 0 0 1 2.949-7.578zm2.344 21.933a5.525 5.525 0 0 0 -1.66-4.062 5.511 5.511 0 0 0 -4.043-1.68 5.5 5.5 0 0 0 -4.043 1.66 5.479 5.479 0 0 0 -1.66 4.023 5.479 5.479 0 0 0 1.66 4.023 5.525 5.525 0 0 0 4.063 1.66 5.457 5.457 0 0 0 4-1.66 5.422 5.422 0 0 0 1.683-3.964z" transform="translate(36.139 79.211)"/><path d="m-15.135-21.111a5.956 5.956 0 0 1 1.951-4.43 6.474 6.474 0 0 1 4.584-1.881 6.347 6.347 0 0 1 4.605 1.9 6.058 6.058 0 0 1 1.934 4.5 6.078 6.078 0 0 1 -1.929 4.516 6.44 6.44 0 0 1 -4.658 1.881 6.259 6.259 0 0 1 -4.588-1.916 6.268 6.268 0 0 1 -1.899-4.57zm3.059.053a3.4 3.4 0 0 0 1.02 2.5 3.374 3.374 0 0 0 2.479 1.02 3.333 3.333 0 0 0 2.443-1.02 3.353 3.353 0 0 0 1.02-2.461 3.333 3.333 0 0 0 -1.02-2.443 3.353 3.353 0 0 0 -2.466-1.024 3.353 3.353 0 0 0 -2.461 1.02 3.293 3.293 0 0 0 -1.015 2.407zm18.9-6.557 1.916 1.09-15.54 26.964-1.936-1.16zm-4.785 21.375a5.937 5.937 0 0 1 1.951-4.412 6.474 6.474 0 0 1 4.588-1.881 6.367 6.367 0 0 1 4.623 1.9 6.058 6.058 0 0 1 1.934 4.5 6.015 6.015 0 0 1 -1.951 4.518 6.433 6.433 0 0 1 -4.659 1.861 6.288 6.288 0 0 1 -4.588-1.9 6.251 6.251 0 0 1 -1.898-4.586zm3.076.07a3.425 3.425 0 0 0 1 2.5 3.374 3.374 0 0 0 2.485 1.016 3.3 3.3 0 0 0 2.443-1.02 3.353 3.353 0 0 0 1.02-2.461 3.353 3.353 0 0 0 -1.024-2.465 3.316 3.316 0 0 0 -2.461-1.02 3.333 3.333 0 0 0 -2.443 1.02 3.313 3.313 0 0 0 -1.02 2.43z" transform="translate(211.139 195.211)"/><path d="m-6.727-9.383a2.647 2.647 0 0 1 .867-1.969 2.877 2.877 0 0 1 2.039-.836 2.821 2.821 0 0 1 2.047.844 2.692 2.692 0 0 1 .859 2 2.7 2.7 0 0 1 -.859 2.008 2.862 2.862 0 0 1 -2.07.836 2.782 2.782 0 0 1 -2.039-.852 2.786 2.786 0 0 1 -.844-2.031zm1.359.023a1.509 1.509 0 0 0 .454 1.11 1.5 1.5 0 0 0 1.1.453 1.481 1.481 0 0 0 1.087-.453 1.49 1.49 0 0 0 .453-1.094 1.481 1.481 0 0 0 -.453-1.086 1.49 1.49 0 0 0 -1.094-.453 1.49 1.49 0 0 0 -1.094.453 1.464 1.464 0 0 0 -.452 1.071zm8.4-2.914.852.484-6.907 11.99-.86-.52zm-2.126 9.501a2.639 2.639 0 0 1 .867-1.961 2.877 2.877 0 0 1 2.04-.836 2.83 2.83 0 0 1 2.055.844 2.692 2.692 0 0 1 .859 2 2.673 2.673 0 0 1 -.868 2.007 2.859 2.859 0 0 1 -2.07.828 2.8 2.8 0 0 1 -2.039-.843 2.778 2.778 0 0 1 -.844-2.039zm1.367.031a1.522 1.522 0 0 0 .445 1.109 1.5 1.5 0 0 0 1.1.453 1.465 1.465 0 0 0 1.086-.453 1.49 1.49 0 0 0 .453-1.094 1.49 1.49 0 0 0 -.451-1.093 1.474 1.474 0 0 0 -1.094-.453 1.481 1.481 0 0 0 -1.086.453 1.472 1.472 0 0 0 -.453 1.078z" transform="translate(135.139 78.211)"/><path d="m-28.152 0h5.7v-1.176h-2.208c-.432 0-.984.036-1.44.084 1.872-1.788 3.228-3.552 3.228-5.256a2.5 2.5 0 0 0 -2.664-2.652 3.429 3.429 0 0 0 -2.688 1.32l.78.768a2.4 2.4 0 0 1 1.744-.988 1.434 1.434 0 0 1 1.5 1.62c0 1.452-1.344 3.168-3.948 5.472zm10.932.156c1.728 0 2.856-1.536 2.856-4.608 0-3.048-1.128-4.548-2.856-4.548s-2.856 1.488-2.856 4.548 1.128 4.608 2.856 4.608zm0-1.092c-.9 0-1.536-.96-1.536-3.516 0-2.532.636-3.456 1.536-3.456s1.536.924 1.536 3.456c0 2.552-.636 3.516-1.536 3.516zm5.652.936h5.04v-1.14h-1.728v-7.7h-1.044a5.194 5.194 0 0 1 -1.92.684v.876h1.584v6.14h-1.932zm8.808-6.1c0-1.152.6-1.836 1.356-1.836.96 0 1.62.792 1.752 2.532a2.1 2.1 0 0 1 -1.68 1.08c-.924.004-1.428-.644-1.428-1.776zm1.116 6.256c1.7 0 3.288-1.392 3.288-4.872 0-2.928-1.368-4.284-3.06-4.284a2.7 2.7 0 0 0 -2.628 2.9c0 1.848 1 2.772 2.472 2.772a2.655 2.655 0 0 0 1.944-1.028c-.084 2.52-1.008 3.384-2.072 3.384a1.963 1.963 0 0 1 -1.44-.66l-.76.852a3.031 3.031 0 0 0 2.256.936zm8.76-2.94v-2.124h2.412v2.124zm7.776 0h-4.212v-2.124h3.348v-1.044h-3.348v-1.656h3.62v-1.08h-6.944c.156-.36.324-.756.468-1.128l-1.128-.3a9.709 9.709 0 0 1 -2.616 4.068 8.874 8.874 0 0 1 .972.72 10.917 10.917 0 0 0 1.728-2.28h2.748v1.656h-3.528v3.168h-1.932v1.084h5.46v2.648h1.152v-2.648h4.212zm4.308-5.16h8.784v-1h-4.368v-1.128h-1.164v1.132h-4.32v3.384c0 1.74-.084 4.176-1.056 5.88a5.051 5.051 0 0 1 .912.612c1.044-1.824 1.212-4.608 1.212-6.492zm5.772 2.112v1.056h-2.592v-1.056zm1.092 1.92v-1.92h1.836v-.912h-1.836v-.912h-1.092v.912h-2.592v-.912h-1.056v.912h-1.776v.912h1.776v1.92zm-.5 1.524a5.531 5.531 0 0 1 -1.776 1.3 5.162 5.162 0 0 1 -1.74-1.3zm.936-.936-.2.036h-6.62v.9h1.836l-.54.2a6.388 6.388 0 0 0 1.656 1.552 16.731 16.731 0 0 1 -3.432.66 3.421 3.421 0 0 1 .468.936 15.753 15.753 0 0 0 4.08-.984 13.58 13.58 0 0 0 3.8 1 3.974 3.974 0 0 1 .652-.964 15.778 15.778 0 0 1 -3.252-.636 5.788 5.788 0 0 0 2.232-2.328z" transform="translate(198.139 211.857)"/><path d="m.528 0h5.7v-1.176h-2.208c-.432 0-.984.036-1.44.084 1.872-1.788 3.228-3.552 3.228-5.256a2.5 2.5 0 0 0 -2.664-2.652 3.429 3.429 0 0 0 -2.688 1.32l.78.768a2.4 2.4 0 0 1 1.74-.988 1.434 1.434 0 0 1 1.5 1.62c0 1.456-1.344 3.172-3.948 5.48zm10.932.156c1.728 0 2.856-1.536 2.856-4.608 0-3.048-1.128-4.548-2.856-4.548s-2.86 1.488-2.86 4.548 1.132 4.608 2.86 4.608zm0-1.092c-.9 0-1.536-.96-1.536-3.516 0-2.532.636-3.456 1.536-3.456s1.54.924 1.54 3.456c0 2.552-.64 3.516-1.54 3.516zm5.148.936h5.7v-1.176h-2.208c-.432 0-.984.036-1.44.084 1.872-1.788 3.228-3.552 3.228-5.256a2.5 2.5 0 0 0 -2.664-2.652 3.429 3.429 0 0 0 -2.688 1.32l.78.768a2.4 2.4 0 0 1 1.74-.984 1.434 1.434 0 0 1 1.5 1.62c0 1.452-1.344 3.168-3.948 5.472zm10.728.156c1.62 0 2.952-.936 2.952-2.532a2.236 2.236 0 0 0 -1.824-2.208v-.06a2.135 2.135 0 0 0 1.524-2.076c0-1.452-1.116-2.28-2.7-2.28a3.722 3.722 0 0 0 -2.532 1.068l.72.864a2.572 2.572 0 0 1 1.764-.832 1.227 1.227 0 0 1 1.36 1.276c0 .888-.576 1.548-2.316 1.548v1.02c1.992 0 2.616.636 2.616 1.608a1.485 1.485 0 0 1 -1.68 1.476 2.854 2.854 0 0 1 -2.088-.972l-.672.888a3.666 3.666 0 0 0 2.876 1.212zm-23.7 15.06v-2.124h2.412v2.124zm7.776 0h-4.212v-2.124h3.348v-1.044h-3.348v-1.656h3.624v-1.08h-6.948c.156-.36.324-.756.468-1.128l-1.128-.3a9.709 9.709 0 0 1 -2.616 4.068 8.874 8.874 0 0 1 .972.72 10.917 10.917 0 0 0 1.728-2.28h2.748v1.656h-3.528v3.168h-1.932v1.084h5.46v2.652h1.152v-2.652h4.212zm4.308-5.16h8.78v-1h-4.364v-1.124h-1.164v1.128h-4.32v3.384c0 1.74-.084 4.176-1.056 5.88a5.051 5.051 0 0 1 .912.612c1.044-1.824 1.212-4.608 1.212-6.492zm5.772 2.112v1.056h-2.592v-1.056zm1.092 1.92v-1.92h1.836v-.912h-1.836v-.912h-1.092v.912h-2.592v-.912h-1.056v.912h-1.776v.912h1.776v1.92zm-.5 1.524a5.531 5.531 0 0 1 -1.776 1.3 5.162 5.162 0 0 1 -1.74-1.3zm.936-.936-.2.036h-6.62v.9h1.836l-.54.2a6.388 6.388 0 0 0 1.656 1.548 16.731 16.731 0 0 1 -3.432.66 3.421 3.421 0 0 1 .468.936 15.753 15.753 0 0 0 4.08-.984 13.58 13.58 0 0 0 3.8 1 3.974 3.974 0 0 1 .648-.96 15.778 15.778 0 0 1 -3.252-.636 5.788 5.788 0 0 0 2.236-2.328z" transform="translate(1.139 59.857)"/></g><path d="m23.566 0h146.995" fill="none" stroke="#a21b43" transform="translate(-22.355 98.711)"/><path d="m218.178 21.251a10.625 10.625 0 1 0 -10.626-10.621 10.626 10.626 0 0 0 10.626 10.621z" fill="#a21b43" transform="translate(-14.649 35.055)"/><path d="m190.141 177.1-11.01-25.889 3.663-18.48c.381-7.016-4.9-12.276-10.045-12.276h-15.839c-5.146 0-10.424 5.26-10.045 12.276l3.665 18.48-11.012 25.889a3.762 3.762 0 0 0 3.462 5.232h11.606l3 20.378a3.618 3.618 0 0 0 3.617 3.616h7.249a3.617 3.617 0 0 0 3.617-3.616l3-20.378h11.606a3.761 3.761 0 0 0 3.462-5.232z" fill="#a21b43" transform="translate(38.698 -58.983)"/></svg>