<svg height="236.237" viewBox="0 0 289.722 236.237" width="289.722" xmlns="http://www.w3.org/2000/svg"><path d="m3.136-11.844a11.7 11.7 0 0 1 -2.744 2.772 12.74 12.74 0 0 1 .868 1.218 17.212 17.212 0 0 0 3.346-3.416zm.252 2.982a11.942 11.942 0 0 1 -3.122 3.6 10.112 10.112 0 0 1 .868 1.552 12.4 12.4 0 0 0 1.092-1.036v5.992h1.554v-7.868a18.761 18.761 0 0 0 1.064-1.694zm6.734 5.474h2.744v-1.526h-2.744v-2.17h3.122v-1.582h-1.68c.434-.714.938-1.694 1.4-2.632l-1.624-.56a15.891 15.891 0 0 1 -1.3 2.786l1.078.406h-3.348l.9-.434a15.188 15.188 0 0 0 -1.484-2.66l-1.372.6a17.84 17.84 0 0 1 1.312 2.494h-1.918v1.582h3.292v5.824a4.043 4.043 0 0 1 -1.4-1.89 22.6 22.6 0 0 0 .266-2.324l-1.666-.112c-.114 2.436-.52 4.508-1.808 5.726a7.806 7.806 0 0 1 1.274 1.134 6.616 6.616 0 0 0 1.428-2.422c1.106 1.694 2.674 2.156 4.592 2.156h1.96a5.436 5.436 0 0 1 .49-1.554c-.49 0-1.946.014-2.324 0a8.212 8.212 0 0 1 -1.19-.084zm13.72-4.83c-.154.378-.322.784-.49 1.12h-2.618l.238-.042a6.9 6.9 0 0 0 -.472-1.078zm4.522 6.244v-1.372h-5.446v-.616h4.2v-1.2h-4.2v-.638h4.858v-1.3h-2.744c.21-.336.434-.714.658-1.12h2.632v-1.356h-1.822c.322-.49.7-1.12 1.092-1.764l-1.75-.42a11.278 11.278 0 0 1 -.882 2.03l.5.154h-1.24v-2.282h-1.568v2.282h-1.036v-2.282h-1.554v2.282h-1.274l.686-.252a10.594 10.594 0 0 0 -1.064-1.972l-1.428.49a12.549 12.549 0 0 1 .868 1.736h-1.876v1.358h2.926l-.168.028a6.291 6.291 0 0 1 .476 1.088h-2.66v1.3h4.732v.63h-4.032v1.2h4.032v.616h-5.348v1.372h4.018a14.708 14.708 0 0 1 -4.424 1.646 7.766 7.766 0 0 1 1.064 1.386 13.28 13.28 0 0 0 4.69-2.268v2.436h1.638v-2.518a11.95 11.95 0 0 0 4.7 2.366 7.831 7.831 0 0 1 1.12-1.512 12.507 12.507 0 0 1 -4.438-1.528zm11.736-7.238h-5.66v-.91h5.66zm1.778-2.212h-9.118v3.5h9.114zm-8.092 8.47h6.86v.616h-6.86zm0-1.666h6.86v.6h-6.86zm0-1.652h6.86v.6h-6.86zm8.578 5.072v-6.2h-10.234v6.2h2.17a17.1 17.1 0 0 1 -3.584 1.228 14.644 14.644 0 0 1 1.26 1.19 18.654 18.654 0 0 0 4.34-1.68l-1.064-.738h3.794l-1.162.826a37.263 37.263 0 0 1 4.494 1.624l1.47-1.18c-.966-.378-2.394-.882-3.7-1.274zm11.746-8.628c-.112.294-.28.644-.406.91l.2.042h-3.112l.182-.042a8.529 8.529 0 0 0 -.336-.91zm4.326.952h-3.094c.168-.252.378-.546.588-.91l-.21-.042h1.974v-1.288h-4.522v-.742h-1.652v.742h-4.508v1.288h2.03l-.07.014a8.5 8.5 0 0 1 .35.938h-3v1.288h12.11zm-11.354 9.814a5.342 5.342 0 0 0 1.932-2.758l-1.4-.49a4.629 4.629 0 0 1 -1.834 2.366zm2.3-5.362h6.048v.63h-6.052zm0-1.568h6.048v.6h-6.052zm2.362 5.726c-.63 0-.742-.042-.742-.42v-1.4a8.736 8.736 0 0 1 1.974 1.2l1.008-1.036a8.9 8.9 0 0 0 -1.456-.854h4.55v-4.238h-9.278v4.242h3.5l-.574.56.168.07h-1.516v1.47c0 1.33.434 1.736 2.2 1.736h2.252c1.3 0 1.75-.392 1.932-1.946a4.492 4.492 0 0 1 -1.414-.532c-.07.994-.154 1.148-.672 1.148zm3.612-1.5a11.605 11.605 0 0 1 2.2 2.618l1.372-.8a10.281 10.281 0 0 0 -2.282-2.534zm9.632-9.66h-3.43v1.26h3.43zm.35 1.876h-4.4v1.316h4.4zm-.338 1.95h-3.512v1.274h3.512zm-3.512 3.162h3.512v-1.246h-3.512zm2.254 1.988v1.61h-1.036v-1.61zm1.3-1.3h-3.6v4.772h1.26v-.56h2.338zm1.974 2.268v-.742h1.374v.742zm1.374-2.564v.7h-1.372v-.7zm4.13-1.19a12.263 12.263 0 0 1 -.7 1.694c-.056-.672-.112-1.428-.14-2.282h2.254v-1.33h-2.282c-.028-1.008-.028-2.1-.014-3.276a8.4 8.4 0 0 1 1.092 2.478l1.33-.548a8.7 8.7 0 0 0 -1.246-2.5l-1.176.448.014-1.288h-1.414c0 1.722.014 3.29.042 4.69h-1.08c.14-.5.308-1.2.49-1.876l-1.26-.2h1.554v-1.246h-1.454v-1.372h-1.53v1.372h-1.48v1.246h2.828c-.056.56-.182 1.372-.294 1.918l.728.154h-2.268l.938-.224a6.049 6.049 0 0 0 -.406-1.806l-1.106.238a7.873 7.873 0 0 1 .336 1.792h-1.05v1.33h5.1a30.968 30.968 0 0 0 .374 4.018 11.409 11.409 0 0 1 -.966 1.036v-4.424h-3.962v5.394h1.246v-.536h2.212a7.569 7.569 0 0 1 -.91.63 5.341 5.341 0 0 1 .938.924 10.625 10.625 0 0 0 1.834-1.5c.364.952.9 1.47 1.638 1.526.532.028 1.134-.462 1.484-2.45a4.788 4.788 0 0 1 -1.022-.938c-.056.994-.2 1.61-.378 1.6-.28-.028-.5-.378-.672-.98a12.461 12.461 0 0 0 1.61-3.024zm7.78-6.188h-3.58v1.26h3.58zm.378 1.876h-4.62v1.316h4.62zm-.332 1.948h-3.71v1.274h3.71zm-3.71 3.164h3.71v-1.248h-3.71zm6.51-2.282v1.218h3.64v-1.22h-1.2v-.952h1.106v-1.2h-1.11v-.91h-1.3v.91h-1.082v1.2h1.08v.952zm2.324 3.134v1.316h-1.064v-1.316zm1.2 2.506v-3.71h-3.44v4.188h1.176v-.476zm-7.682.238h-1.106v-1.61h1.106zm9.758-10.514h-7.518v5.208a16.028 16.028 0 0 1 -.91 6.286v-3.892h-3.724v4.774h1.288v-.56h2.436a5.228 5.228 0 0 1 1.162.826c1.092-2.016 1.26-5.208 1.26-7.434v-3.794h4.466v9.268c0 .21-.056.266-.252.266s-.854.014-1.428-.014a5.774 5.774 0 0 1 .462 1.62 4.461 4.461 0 0 0 2.156-.3c.476-.266.6-.742.6-1.554zm5.068 5.474a11.709 11.709 0 0 0 3.038-2.632v2.254h1.638v-2.2a11.633 11.633 0 0 0 3.122 2.576zm1.526 5.39v-.588h4.7v.588zm0-2.324h4.7v.588h-4.7zm4.7-1.148h-4.7v-.56h4.7zm3.92-4.9v-1.438h-5.47v-1.554h-1.638v1.554h-5.362v1.442h3.766a10.924 10.924 0 0 1 -4.156 2.516 6.969 6.969 0 0 1 1.036 1.288 11.772 11.772 0 0 0 1.582-.77v5.334h-2.31v1.456h12.656v-1.456h-2.3v-5.31a9.989 9.989 0 0 0 1.47.686 6.312 6.312 0 0 1 1.078-1.33 11.21 11.21 0 0 1 -4.284-2.422zm5.32 2.044a16.128 16.128 0 0 0 3.5-3.472 16.872 16.872 0 0 0 3.62 3.472zm4.382 4.536h3.92v-1.456h-3.92v-1.61h3.276v-1.092a17.75 17.75 0 0 0 1.512.938 8.112 8.112 0 0 1 1.11-1.498 14.8 14.8 0 0 1 -5.992-4.9h-1.722a15.278 15.278 0 0 1 -5.684 5.068 6.151 6.151 0 0 1 1.05 1.344 17.914 17.914 0 0 0 1.554-.966v1.106h3.164v1.61h-3.878v1.456h3.878v1.666h-5v1.5h11.914v-1.5h-5.18zm10.416-9.52a14.744 14.744 0 0 1 -2.9 5.236 9.979 9.979 0 0 1 .924 1.736c.28-.336.574-.714.854-1.092v7.112h1.582v-9.814a24.518 24.518 0 0 0 1.12-2.7zm6.426 9.184v-3.654a20.477 20.477 0 0 0 1.722 3.654zm-3.332 0a18.193 18.193 0 0 0 1.708-3.556v3.556zm7.2-5.166v-1.582h-3.864v-2.422h-1.624v2.422h-3.542v1.582h2.758a14.316 14.316 0 0 1 -3.486 5.684 6.786 6.786 0 0 1 1.186 1.26 10.366 10.366 0 0 0 1.246-1.582v1.288h1.834v2.254h1.624v-2.254h1.876v-1.232a12.834 12.834 0 0 0 1.12 1.484 6.815 6.815 0 0 1 1.25-1.288 15.125 15.125 0 0 1 -3.416-5.614zm3.934 8.834c.728-1.358 1.456-2.968 2.086-4.466l-1.316-.994a47.426 47.426 0 0 1 -2.24 4.48zm1.582-7.77a9.089 9.089 0 0 0 -2.534-1.232l-.882 1.26a10.592 10.592 0 0 1 2.492 1.372zm-2.744-3.822a9.84 9.84 0 0 1 2.352 1.6l1.036-1.316a10.7 10.7 0 0 0 -2.408-1.484zm6.734 1.274h1.876v1.036h-1.876zm5.7 2.492v-1.456h-2.212v-1.036h1.82v-1.442h-1.82v-1.134h-1.61v1.134h-1.876v-1.134h-1.554v1.134h-1.792v1.442h1.792v1.036h-2.226v1.456h3.892v.84h-3.472v7.136h1.47v-5.7h2.2v2.226h-.63v-1.646h-.994v3.668h.994v-.812h2.534v.464h.966v-3.32h-.966v1.652h-.694v-2.226h2.31v4.1c0 .154-.056.21-.238.224s-.784 0-1.3-.028a4.546 4.546 0 0 1 .378 1.386 5.309 5.309 0 0 0 2.1-.238c.476-.224.616-.6.616-1.33v-5.556h-3.682v-.84zm5.516-2.9h6.406v1.918h-6.412zm4.074 6.762h4.564v-1.54h-4.564v-1.72h4.116v-5.1h-9.856v5.1h4.018v4.956a4.24 4.24 0 0 1 -2.016-2.254c.14-.56.252-1.12.336-1.666l-1.736-.2c-.2 1.9-.812 4.186-2.324 5.376a6.947 6.947 0 0 1 1.176 1.134 7.045 7.045 0 0 0 1.918-2.74c1.456 2.142 3.626 2.646 6.44 2.646h2.968a6.112 6.112 0 0 1 .574-1.61c-.77.014-2.842.028-3.444.014a13.42 13.42 0 0 1 -2.17-.154zm10.332-6.2h10.094v-1.486h-4.97v-1.246h-1.736v1.246h-4.988v3.92c0 2.044-.084 4.956-1.246 6.944a6.062 6.062 0 0 1 1.358.91c1.276-2.154 1.488-5.584 1.488-7.852zm6.356 2.492v.922h-2.548v-.924zm1.652 2.184v-2.184h2.016v-1.316h-2.016v-.924h-1.652v.924h-2.548v-.924h-1.568v.924h-1.89v1.316h1.89v2.184zm-1.134 1.862a6.359 6.359 0 0 1 -1.68 1.148 5.6 5.6 0 0 1 -1.638-1.148zm1.414-1.372-.294.07h-7.546v1.3h2.086l-.658.238a7.07 7.07 0 0 0 1.61 1.554 18.994 18.994 0 0 1 -3.626.63 5.614 5.614 0 0 1 .672 1.4 18.974 18.974 0 0 0 4.604-1.09 14.784 14.784 0 0 0 4.256 1.106 6.631 6.631 0 0 1 .98-1.428 18.5 18.5 0 0 1 -3.444-.6 6.866 6.866 0 0 0 2.394-2.66z" transform="translate(56.49 11.899)"/><g fill="#a21b43"><path d="m-68.75-78.027 8.35 6.25-18.018 24.511q1.465-.2 2.49-.293t1.611-.1a21.179 21.179 0 0 1 15.869 7.031 23.276 23.276 0 0 1 6.641 16.7 24.248 24.248 0 0 1 -7.422 17.776 24.167 24.167 0 0 1 -17.724 7.373 25.374 25.374 0 0 1 -17.969-7.276 23.118 23.118 0 0 1 -7.568-17.236q0-8.936 7.373-18.945zm5.859 54.834a13.813 13.813 0 0 0 -4.15-10.156 13.779 13.779 0 0 0 -10.107-4.2 13.756 13.756 0 0 0 -10.108 4.149 13.7 13.7 0 0 0 -4.15 10.059 13.7 13.7 0 0 0 4.15 10.059 13.813 13.813 0 0 0 10.156 4.151 13.641 13.641 0 0 0 10.01-4.15 13.556 13.556 0 0 0 4.199-9.912zm55.86-54.834 8.35 6.25-18.019 24.511q1.465-.2 2.49-.293t1.611-.1a21.179 21.179 0 0 1 15.87 7.034 23.276 23.276 0 0 1 6.641 16.7 24.248 24.248 0 0 1 -7.422 17.773 24.167 24.167 0 0 1 -17.724 7.373 25.374 25.374 0 0 1 -17.966-7.276 23.118 23.118 0 0 1 -7.568-17.236q0-8.936 7.373-18.945zm5.859 54.834a13.813 13.813 0 0 0 -4.15-10.157 13.779 13.779 0 0 0 -10.107-4.2 13.756 13.756 0 0 0 -10.108 4.15 13.7 13.7 0 0 0 -4.15 10.059 13.7 13.7 0 0 0 4.15 10.059 13.813 13.813 0 0 0 10.156 4.15 13.641 13.641 0 0 0 10.01-4.15 13.556 13.556 0 0 0 4.199-9.911zm25.244 17.724a6.475 6.475 0 0 1 2-4.736 6.53 6.53 0 0 1 4.785-2 6.53 6.53 0 0 1 4.785 2 6.53 6.53 0 0 1 2 4.785 6.587 6.587 0 0 1 -2 4.834 6.507 6.507 0 0 1 -4.785 1.953 6.566 6.566 0 0 1 -4.832-1.953 6.625 6.625 0 0 1 -1.953-4.883zm47.266-5.225h28.076v10.694h-50.635l26.172-31.689q3.857-4.736 6.47-8.2a62.356 62.356 0 0 0 3.979-5.811 16.332 16.332 0 0 0 2.783-8.252 11.761 11.761 0 0 0 -3.711-8.838 12.738 12.738 0 0 0 -9.18-3.564q-11.426 0-13.086 13.525h-11.327q2.734-23.831 24.072-23.831a24.315 24.315 0 0 1 17.285 6.543 21.252 21.252 0 0 1 7.031 16.211 24.627 24.627 0 0 1 -3.267 12.06 59.085 59.085 0 0 1 -4.858 7.3q-3.2 4.224-8.081 9.985z" transform="translate(102.49 185.253)"/><path d="m16.953-25.9h-14.883v-4.258h22.48l-19.023 31.193-3.613-2.285zm28.77 0h-9.3l-1.484 5q.332-.039.635-.059t.557-.02a9.489 9.489 0 0 1 7.207 2.969 10.465 10.465 0 0 1 2.832 7.559 10.433 10.433 0 0 1 -3.2 7.852 11.159 11.159 0 0 1 -8.07 3.087q-6 0-9.453-5.625l3.438-2.91a10.653 10.653 0 0 0 2.871 3.418 6.168 6.168 0 0 0 3.535.977 6.137 6.137 0 0 0 4.59-1.914 6.73 6.73 0 0 0 1.855-4.785 6.4 6.4 0 0 0 -1.836-4.727 6.128 6.128 0 0 0 -4.59-1.895 6.694 6.694 0 0 0 -5.29 2.673h-1.5l4.746-15.859h12.457zm7.109 23.713a2.59 2.59 0 0 1 .8-1.895 2.612 2.612 0 0 1 1.914-.8 2.612 2.612 0 0 1 1.914.8 2.612 2.612 0 0 1 .8 1.914 2.635 2.635 0 0 1 -.8 1.934 2.6 2.6 0 0 1 -1.914.781 2.626 2.626 0 0 1 -1.934-.781 2.65 2.65 0 0 1 -.78-1.953zm10.586-13.086q0-7.207 3.359-11.5a8.955 8.955 0 0 1 7.285-3.887 8.955 8.955 0 0 1 7.285 3.887q3.359 4.3 3.359 11.7 0 7.383-3.359 11.68a8.939 8.939 0 0 1 -7.265 3.881 9.042 9.042 0 0 1 -7.3-3.887q-3.364-4.301-3.364-11.874zm4.473.02a17.869 17.869 0 0 0 1.738 8.34q1.738 3.262 4.434 3.262 2.676 0 4.434-3.262a17.04 17.04 0 0 0 1.757-8.187 17.158 17.158 0 0 0 -1.754-8.2q-1.758-3.242-4.434-3.242-2.656 0-4.414 3.242a16.648 16.648 0 0 0 -1.761 8.046z" transform="translate(178.49 71.253)"/><path d="m-15.135-21.111a5.956 5.956 0 0 1 1.951-4.43 6.474 6.474 0 0 1 4.584-1.881 6.347 6.347 0 0 1 4.605 1.9 6.058 6.058 0 0 1 1.934 4.5 6.078 6.078 0 0 1 -1.929 4.516 6.44 6.44 0 0 1 -4.658 1.881 6.259 6.259 0 0 1 -4.588-1.916 6.268 6.268 0 0 1 -1.899-4.57zm3.059.053a3.4 3.4 0 0 0 1.02 2.5 3.374 3.374 0 0 0 2.479 1.02 3.333 3.333 0 0 0 2.443-1.02 3.353 3.353 0 0 0 1.02-2.461 3.333 3.333 0 0 0 -1.02-2.443 3.353 3.353 0 0 0 -2.466-1.024 3.353 3.353 0 0 0 -2.461 1.02 3.293 3.293 0 0 0 -1.015 2.407zm18.9-6.557 1.916 1.09-15.54 26.964-1.936-1.16zm-4.785 21.375a5.937 5.937 0 0 1 1.951-4.412 6.474 6.474 0 0 1 4.588-1.881 6.367 6.367 0 0 1 4.623 1.9 6.058 6.058 0 0 1 1.934 4.5 6.015 6.015 0 0 1 -1.951 4.518 6.433 6.433 0 0 1 -4.659 1.861 6.288 6.288 0 0 1 -4.588-1.9 6.251 6.251 0 0 1 -1.898-4.586zm3.076.07a3.425 3.425 0 0 0 1 2.5 3.374 3.374 0 0 0 2.485 1.016 3.3 3.3 0 0 0 2.443-1.02 3.353 3.353 0 0 0 1.02-2.461 3.353 3.353 0 0 0 -1.024-2.465 3.316 3.316 0 0 0 -2.461-1.02 3.333 3.333 0 0 0 -2.443 1.02 3.313 3.313 0 0 0 -1.02 2.43z" transform="translate(260.49 168.253)"/><path d="m-6.727-9.383a2.647 2.647 0 0 1 .867-1.969 2.877 2.877 0 0 1 2.039-.836 2.821 2.821 0 0 1 2.047.844 2.692 2.692 0 0 1 .859 2 2.7 2.7 0 0 1 -.859 2.008 2.862 2.862 0 0 1 -2.07.836 2.782 2.782 0 0 1 -2.039-.852 2.786 2.786 0 0 1 -.844-2.031zm1.359.023a1.509 1.509 0 0 0 .454 1.11 1.5 1.5 0 0 0 1.1.453 1.481 1.481 0 0 0 1.087-.453 1.49 1.49 0 0 0 .453-1.094 1.481 1.481 0 0 0 -.453-1.086 1.49 1.49 0 0 0 -1.094-.453 1.49 1.49 0 0 0 -1.094.453 1.464 1.464 0 0 0 -.452 1.071zm8.4-2.914.852.484-6.907 11.99-.86-.52zm-2.126 9.501a2.639 2.639 0 0 1 .867-1.961 2.877 2.877 0 0 1 2.04-.836 2.83 2.83 0 0 1 2.055.844 2.692 2.692 0 0 1 .859 2 2.673 2.673 0 0 1 -.868 2.007 2.859 2.859 0 0 1 -2.07.828 2.8 2.8 0 0 1 -2.039-.843 2.778 2.778 0 0 1 -.844-2.039zm1.367.031a1.522 1.522 0 0 0 .445 1.109 1.5 1.5 0 0 0 1.1.453 1.465 1.465 0 0 0 1.086-.453 1.49 1.49 0 0 0 .453-1.094 1.49 1.49 0 0 0 -.451-1.093 1.474 1.474 0 0 0 -1.094-.453 1.481 1.481 0 0 0 -1.086.453 1.472 1.472 0 0 0 -.453 1.078z" transform="translate(275.49 70.253)"/><path d="m-28.152 0h5.7v-1.176h-2.208c-.432 0-.984.036-1.44.084 1.872-1.788 3.228-3.552 3.228-5.256a2.5 2.5 0 0 0 -2.664-2.652 3.429 3.429 0 0 0 -2.688 1.32l.78.768a2.4 2.4 0 0 1 1.744-.988 1.434 1.434 0 0 1 1.5 1.62c0 1.452-1.344 3.168-3.948 5.472zm10.932.156c1.728 0 2.856-1.536 2.856-4.608 0-3.048-1.128-4.548-2.856-4.548s-2.856 1.488-2.856 4.548 1.128 4.608 2.856 4.608zm0-1.092c-.9 0-1.536-.96-1.536-3.516 0-2.532.636-3.456 1.536-3.456s1.536.924 1.536 3.456c0 2.552-.636 3.516-1.536 3.516zm5.652.936h5.04v-1.14h-1.728v-7.7h-1.044a5.194 5.194 0 0 1 -1.92.684v.876h1.584v6.14h-1.932zm8.808-6.1c0-1.152.6-1.836 1.356-1.836.96 0 1.62.792 1.752 2.532a2.1 2.1 0 0 1 -1.68 1.08c-.924.004-1.428-.644-1.428-1.776zm1.116 6.256c1.7 0 3.288-1.392 3.288-4.872 0-2.928-1.368-4.284-3.06-4.284a2.7 2.7 0 0 0 -2.628 2.9c0 1.848 1 2.772 2.472 2.772a2.655 2.655 0 0 0 1.944-1.028c-.084 2.52-1.008 3.384-2.072 3.384a1.963 1.963 0 0 1 -1.44-.66l-.76.852a3.031 3.031 0 0 0 2.256.936zm8.76-2.94v-2.124h2.412v2.124zm7.776 0h-4.212v-2.124h3.348v-1.044h-3.348v-1.656h3.62v-1.08h-6.944c.156-.36.324-.756.468-1.128l-1.128-.3a9.709 9.709 0 0 1 -2.616 4.068 8.874 8.874 0 0 1 .972.72 10.917 10.917 0 0 0 1.728-2.28h2.748v1.656h-3.528v3.168h-1.932v1.084h5.46v2.648h1.152v-2.648h4.212zm4.308-5.16h8.784v-1h-4.368v-1.128h-1.164v1.132h-4.32v3.384c0 1.74-.084 4.176-1.056 5.88a5.051 5.051 0 0 1 .912.612c1.044-1.824 1.212-4.608 1.212-6.492zm5.772 2.112v1.056h-2.592v-1.056zm1.092 1.92v-1.92h1.836v-.912h-1.836v-.912h-1.092v.912h-2.592v-.912h-1.056v.912h-1.776v.912h1.776v1.92zm-.5 1.524a5.531 5.531 0 0 1 -1.776 1.3 5.162 5.162 0 0 1 -1.74-1.3zm.936-.936-.2.036h-6.62v.9h1.836l-.54.2a6.388 6.388 0 0 0 1.656 1.552 16.731 16.731 0 0 1 -3.432.66 3.421 3.421 0 0 1 .468.936 15.753 15.753 0 0 0 4.08-.984 13.58 13.58 0 0 0 3.8 1 3.974 3.974 0 0 1 .652-.964 15.778 15.778 0 0 1 -3.252-.636 5.788 5.788 0 0 0 2.232-2.328z" transform="translate(247.49 184.899)"/><path d="m.528 0h5.7v-1.176h-2.208c-.432 0-.984.036-1.44.084 1.872-1.788 3.228-3.552 3.228-5.256a2.5 2.5 0 0 0 -2.664-2.652 3.429 3.429 0 0 0 -2.688 1.32l.78.768a2.4 2.4 0 0 1 1.74-.988 1.434 1.434 0 0 1 1.5 1.62c0 1.456-1.344 3.172-3.948 5.48zm10.932.156c1.728 0 2.856-1.536 2.856-4.608 0-3.048-1.128-4.548-2.856-4.548s-2.86 1.488-2.86 4.548 1.132 4.608 2.86 4.608zm0-1.092c-.9 0-1.536-.96-1.536-3.516 0-2.532.636-3.456 1.536-3.456s1.54.924 1.54 3.456c0 2.552-.64 3.516-1.54 3.516zm5.148.936h5.7v-1.176h-2.208c-.432 0-.984.036-1.44.084 1.872-1.788 3.228-3.552 3.228-5.256a2.5 2.5 0 0 0 -2.664-2.652 3.429 3.429 0 0 0 -2.688 1.32l.78.768a2.4 2.4 0 0 1 1.74-.984 1.434 1.434 0 0 1 1.5 1.62c0 1.452-1.344 3.168-3.948 5.472zm10.728.156c1.62 0 2.952-.936 2.952-2.532a2.236 2.236 0 0 0 -1.824-2.208v-.06a2.135 2.135 0 0 0 1.524-2.076c0-1.452-1.116-2.28-2.7-2.28a3.722 3.722 0 0 0 -2.532 1.068l.72.864a2.572 2.572 0 0 1 1.764-.832 1.227 1.227 0 0 1 1.36 1.276c0 .888-.576 1.548-2.316 1.548v1.02c1.992 0 2.616.636 2.616 1.608a1.485 1.485 0 0 1 -1.68 1.476 2.854 2.854 0 0 1 -2.088-.972l-.672.888a3.666 3.666 0 0 0 2.876 1.212zm-23.7 15.06v-2.124h2.412v2.124zm7.776 0h-4.212v-2.124h3.348v-1.044h-3.348v-1.656h3.624v-1.08h-6.948c.156-.36.324-.756.468-1.128l-1.128-.3a9.709 9.709 0 0 1 -2.616 4.068 8.874 8.874 0 0 1 .972.72 10.917 10.917 0 0 0 1.728-2.28h2.748v1.656h-3.528v3.168h-1.932v1.084h5.46v2.652h1.152v-2.652h4.212zm4.308-5.16h8.78v-1h-4.364v-1.124h-1.164v1.128h-4.32v3.384c0 1.74-.084 4.176-1.056 5.88a5.051 5.051 0 0 1 .912.612c1.044-1.824 1.212-4.608 1.212-6.492zm5.772 2.112v1.056h-2.592v-1.056zm1.092 1.92v-1.92h1.836v-.912h-1.836v-.912h-1.092v.912h-2.592v-.912h-1.056v.912h-1.776v.912h1.776v1.92zm-.5 1.524a5.531 5.531 0 0 1 -1.776 1.3 5.162 5.162 0 0 1 -1.74-1.3zm.936-.936-.2.036h-6.62v.9h1.836l-.54.2a6.388 6.388 0 0 0 1.656 1.548 16.731 16.731 0 0 1 -3.432.66 3.421 3.421 0 0 1 .468.936 15.753 15.753 0 0 0 4.08-.984 13.58 13.58 0 0 0 3.8 1 3.974 3.974 0 0 1 .648-.96 15.778 15.778 0 0 1 -3.252-.636 5.788 5.788 0 0 0 2.236-2.328z" transform="translate(143.49 51.899)"/></g><path d="m143.99 87.753h139" fill="none" stroke="#a21b43"/><path d="m47.324 32.174c-9.7.187-14.442 7.049-15.5 13.288-1.053-6.239-5.8-13.1-15.5-13.288-8.931-.174-16.324 6.705-16.324 19.256 0 16.112 18.225 23.555 30.687 35.59.434.419.332.408.332.408a1.044 1.044 0 0 0 .809.4 1.044 1.044 0 0 0 .809-.4s-.1.011.332-.408c12.464-12.035 30.689-19.478 30.689-35.59 0-12.551-7.393-19.43-16.334-19.256z" fill="#a21b43" transform="translate(32.49 5.082)"/><path d="m6 6.92a.9.9 0 1 0 -.9-.9.907.907 0 0 0 .9.9zm3.96-1.788-3.96 3.96-3.96-3.96-.348.348 3.96 3.96-3.972 3.972.348.348 3.972-3.972 3.96 3.96.348-.348-3.96-3.96 3.96-3.96zm-6.48 4.308a.9.9 0 1 0 -.9.9.907.907 0 0 0 .9-.9zm5.04 0a.9.9 0 1 0 .9-.9.907.907 0 0 0 -.9.9zm-2.52 2.52a.9.9 0 1 0 .9.9.907.907 0 0 0 -.9-.9zm8.16 2.04h2.256c2.652 0 4.1-1.644 4.1-4.428s-1.452-4.38-4.152-4.38h-2.204zm1.116-.912v-6.988h1c2.076 0 3.1 1.236 3.1 3.468s-1.02 3.516-3.1 3.516zm7.44-2.028h3.072v-.84h-3.072zm9.1 3.1a3.4 3.4 0 0 0 2.7-1.26l-.612-.7a2.674 2.674 0 0 1 -2.04.984c-1.68 0-2.736-1.392-2.736-3.612 0-2.2 1.1-3.564 2.772-3.564a2.4 2.4 0 0 1 1.8.84l.6-.72a3.252 3.252 0 0 0 -2.412-1.092c-2.232 0-3.9 1.728-3.9 4.572s1.64 4.548 3.824 4.548zm8.16 0c2.208 0 3.756-1.764 3.756-4.584s-1.552-4.54-3.76-4.54-3.756 1.716-3.756 4.536 1.548 4.584 3.756 4.584zm0-.972c-1.584 0-2.616-1.416-2.616-3.612s1.032-3.564 2.616-3.564 2.616 1.356 2.616 3.564-1.048 3.608-2.62 3.608zm6.608.812h1.008v-4.872c0-.756-.084-1.824-.132-2.592h.048l.7 2 1.668 4.572h.744l1.664-4.568.7-2h.048c-.06.768-.144 1.836-.144 2.592v4.868h1.044v-8.808h-1.348l-1.684 4.716c-.2.612-.4 1.224-.6 1.836h-.06c-.216-.612-.42-1.224-.624-1.836l-1.688-4.716h-1.344zm10.7 0h1.116v-3.492h1.452c1.932 0 3.24-.864 3.24-2.724 0-1.92-1.32-2.592-3.288-2.592h-2.52zm1.116-4.392v-3.508h1.26c1.548 0 2.328.408 2.328 1.68s-.732 1.824-2.28 1.824zm8.28-.528c.312-1 .6-1.944.876-2.976h.048c.288 1.02.564 1.98.888 2.976l.42 1.344h-2.66zm-2.68 4.92h1.128l.852-2.688h3.216l.836 2.688h1.176l-2.988-8.808h-1.236zm11.856.156c1.836 0 2.988-1.1 2.988-2.5a2.45 2.45 0 0 0 -1.812-2.352l-1.26-.54c-.684-.288-1.452-.612-1.452-1.464 0-.792.648-1.3 1.644-1.3a2.85 2.85 0 0 1 2 .828l.588-.708a3.607 3.607 0 0 0 -2.592-1.084 2.5 2.5 0 0 0 -2.772 2.34 2.485 2.485 0 0 0 1.788 2.256l1.272.552c.828.372 1.464.66 1.464 1.56 0 .864-.7 1.44-1.848 1.44a3.407 3.407 0 0 1 -2.424-1.092l-.672.756a4.2 4.2 0 0 0 3.084 1.308zm7.944 0c1.836 0 2.988-1.1 2.988-2.5a2.45 2.45 0 0 0 -1.812-2.352l-1.26-.54c-.688-.284-1.456-.608-1.456-1.464 0-.792.648-1.3 1.644-1.3a2.85 2.85 0 0 1 2 .828l.588-.708a3.607 3.607 0 0 0 -2.592-1.084 2.5 2.5 0 0 0 -2.772 2.34 2.485 2.485 0 0 0 1.792 2.256l1.272.552c.828.372 1.464.66 1.464 1.56 0 .864-.7 1.44-1.848 1.44a3.407 3.407 0 0 1 -2.424-1.092l-.672.756a4.2 4.2 0 0 0 3.088 1.308zm6.14-4.836a.841.841 0 1 0 -.792-.828.8.8 0 0 0 .792.828zm0 4.836a.793.793 0 0 0 .792-.828.794.794 0 1 0 -1.584 0 .793.793 0 0 0 .792.828zm8.088-10.212a14.313 14.313 0 0 1 -4.968 4.572 3.658 3.658 0 0 1 .552.708 16.014 16.014 0 0 0 4.908-4.4 17.809 17.809 0 0 0 5.016 4.344 3.981 3.981 0 0 1 .588-.792 15.243 15.243 0 0 1 -5.208-4.428zm.96 7.872h3.636v-.792h-3.636v-1.872h3.18v-.8h-7.128v.8h3.036v1.872h-3.576v.792h3.576v1.956h-4.548v.816h10.14v-.816h-4.68zm9.492-7.848a9.593 9.593 0 0 1 -2.52 2.5 5.214 5.214 0 0 1 .5.648 12.736 12.736 0 0 0 2.84-2.848zm.288 2.424a11.39 11.39 0 0 1 -2.94 3.324 5.71 5.71 0 0 1 .5.78 12.194 12.194 0 0 0 1.356-1.284v5.736h.828v-6.708a13.717 13.717 0 0 0 1.044-1.572zm5.04 4.344h2.676v-.828h-2.676v-2.352h3v-.864h-1.824a25.309 25.309 0 0 0 1.216-2.424l-.852-.312a15.506 15.506 0 0 1 -1.152 2.472l.672.264h-2.832l.6-.288a14.761 14.761 0 0 0 -1.26-2.352l-.732.288a18.046 18.046 0 0 1 1.188 2.352h-1.86v.864h2.988v5.988a3.317 3.317 0 0 1 -1.812-2.268 21.384 21.384 0 0 0 .264-2.124l-.888-.072c-.144 2.292-.54 4.128-1.716 5.268a4.858 4.858 0 0 1 .684.612 6.082 6.082 0 0 0 1.356-2.448c.828 1.74 2.136 2.184 3.948 2.184h2.016a2.33 2.33 0 0 1 .288-.84c-.372 0-1.98.012-2.244 0a7.134 7.134 0 0 1 -1.044-.072zm12.468-3.888a10.971 10.971 0 0 1 -.612 1.248l.12.036h-2.82l.384-.084a5.084 5.084 0 0 0 -.6-1.2zm3.444 5.22v-.756h-4.812v-.888h3.756v-.684h-3.756v-.876h4.344v-.732h-2.724c.24-.36.5-.828.744-1.284h2.4v-.768h-1.86a16.78 16.78 0 0 0 1.056-1.728l-.912-.24a13.614 13.614 0 0 1 -.912 1.824l.444.144h-1.452v-2.124h-.84v2.124h-1.428v-2.124h-.828v2.124h-1.476l.612-.228a8.271 8.271 0 0 0 -1.02-1.764l-.756.252a9.354 9.354 0 0 1 .948 1.74h-1.908v.768h2.928l-.42.084a5.039 5.039 0 0 1 .588 1.2h-2.616v.732h4.212v.876h-3.612v.684h3.612v.888h-4.74v.756h3.924a11.565 11.565 0 0 1 -4.236 1.9 3.822 3.822 0 0 1 .576.756 12.059 12.059 0 0 0 4.476-2.364v2.556h.876v-2.616a11.328 11.328 0 0 0 4.512 2.46 3.208 3.208 0 0 1 .6-.792 10.979 10.979 0 0 1 -4.284-1.9zm10.6-5.676h-5.68v-1.248h5.676zm.924-1.968h-7.488v2.688h7.488zm-7.1 6.984h6.66v.864h-6.66zm0-1.476h6.66v.84h-6.66zm0-1.476h6.66v.844h-6.66zm7.572 4.476v-5.132h-8.46v5.136h2.244a12.932 12.932 0 0 1 -3.54 1.332 6.845 6.845 0 0 1 .66.66 15.232 15.232 0 0 0 3.732-1.476l-.8-.516zm-3.288.6a31.5 31.5 0 0 1 3.768 1.4l.768-.648c-.936-.384-2.532-.972-3.768-1.332zm11.508-9.024-.984-.084a6.147 6.147 0 0 1 -.3 1.5c-.264.012-.54.012-.792.012a17.563 17.563 0 0 1 -2.028-.132v.9c.66.048 1.452.072 1.968.072h.528a12.659 12.659 0 0 1 -2.772 3.672l.816.6a15.852 15.852 0 0 1 1.084-1.248 3.159 3.159 0 0 1 2.064-.876 1 1 0 0 1 1.092.744c-1.4.732-2.832 1.62-2.832 3.036 0 1.464 1.38 1.836 3.1 1.836a28.19 28.19 0 0 0 3.288-.216l.024-.96a21.368 21.368 0 0 1 -3.276.288c-1.236 0-2.172-.144-2.172-1.08 0-.792.78-1.428 1.9-2.016 0 .636-.012 1.416-.036 1.872h.924c-.012-.588-.024-1.608-.036-2.3.912-.432 1.764-.78 2.436-1.032a10.448 10.448 0 0 1 1.068-.384l-.4-.9c-.336.18-.624.312-.984.468-.624.288-1.356.576-2.172.972a1.549 1.549 0 0 0 -1.608-1.08 3.436 3.436 0 0 0 -1.668.444 9.527 9.527 0 0 0 1.08-1.86 34.71 34.71 0 0 0 3.984-.336l.012-.888a29.512 29.512 0 0 1 -3.66.372 12.25 12.25 0 0 0 .344-1.396zm13.684 1.428h-2.412v-1.956h-.852v1.956h-2.28v.828h5.544zm-1.908 1.1a15.551 15.551 0 0 1 -.756 3.072c-.6-.744-1.26-1.5-1.884-2.148l-.624.5a30.369 30.369 0 0 1 2.124 2.556 7.137 7.137 0 0 1 -2.784 3.108 4.081 4.081 0 0 1 .624.684 8.194 8.194 0 0 0 2.712-3.012 14.172 14.172 0 0 1 1.044 1.752l.72-.612a14.538 14.538 0 0 0 -1.332-2.052 17 17 0 0 0 1.02-3.732zm7.116-.2h-1.428v-2.88h-.876v2.88h-3.276v.852h3.276v6.012c0 .216-.084.276-.288.288s-.864.012-1.62-.012a3.7 3.7 0 0 1 .288.924 6.3 6.3 0 0 0 1.992-.168c.36-.168.5-.432.5-1.032v-6.012h1.428zm-3.384 4.74a9.347 9.347 0 0 0 -1.32-2.64l-.732.336a10.5 10.5 0 0 1 1.3 2.688zm7.668-4.524h2.748v1.368h-2.748zm3.768-1.6a5.631 5.631 0 0 1 -.7.9h-2.96a11.391 11.391 0 0 0 .948-.9zm2.748 2.964h-2.9v-1.364h2.9zm1.068.828a19.142 19.142 0 0 1 -2.52 1.68 8.172 8.172 0 0 1 -.84-1.824h3.164v-2.744h-3.276a8.6 8.6 0 0 0 .9-1.248l-.6-.384-.144.048h-2.628c.18-.216.348-.444.5-.66l-.924-.192a10.022 10.022 0 0 1 -3.36 3.024 2.376 2.376 0 0 1 .6.6c.24-.144.48-.3.708-.456v2.012h2.964a18.373 18.373 0 0 1 -4.08 1.26 5.722 5.722 0 0 1 .48.66 22.085 22.085 0 0 0 2.88-.912 7.582 7.582 0 0 1 .648.48 12.836 12.836 0 0 1 -3.948 1.488 5 5 0 0 1 .492.636 13.9 13.9 0 0 0 3.924-1.68 3.9 3.9 0 0 1 .456.588 13.946 13.946 0 0 1 -5.08 2.38 4.468 4.468 0 0 1 .528.672 15.444 15.444 0 0 0 4.9-2.424 1.446 1.446 0 0 1 -.252 1.728 1.229 1.229 0 0 1 -.768.192 9.183 9.183 0 0 1 -1.08-.048 2.025 2.025 0 0 1 .252.8c.348.012.708.024.972.024a2.049 2.049 0 0 0 1.188-.336c1.152-.756 1-3.18-1.44-4.824a9.972 9.972 0 0 0 1.236-.66 7.857 7.857 0 0 0 4.68 5.424 2.835 2.835 0 0 1 .564-.744 6.482 6.482 0 0 1 -3.228-2.316 23.036 23.036 0 0 0 2.836-1.724zm6.288-4.584-.948.4a40.217 40.217 0 0 0 1.74 3.7c-1.284.9-2.076 1.872-2.076 3.108 0 1.8 1.632 2.472 3.888 2.472a23.623 23.623 0 0 0 3.792-.3v-1.072a17.855 17.855 0 0 1 -3.84.408c-1.9 0-2.844-.624-2.844-1.62 0-.912.672-1.7 1.788-2.424a39.865 39.865 0 0 1 3.648-1.992c.348-.18.648-.336.924-.5l-.528-.852a6.555 6.555 0 0 1 -.852.564c-.66.36-1.956 1-3.084 1.68a25.841 25.841 0 0 1 -1.608-3.568zm13.344-.012-1.212-.012a6.333 6.333 0 0 1 .1 1.224c0 1.26-.12 4.3-.12 6.072 0 1.956 1.188 2.676 2.916 2.676a6.031 6.031 0 0 0 5.016-2.652l-.684-.816a5 5 0 0 1 -4.3 2.484c-1.14 0-1.968-.468-1.968-1.788 0-1.788.084-4.62.144-5.976a10.331 10.331 0 0 1 .108-1.208zm19.764 1.32v-.812h-7.068c.2-.348.372-.7.528-1.032l-.96-.168a9.051 9.051 0 0 1 -2.568 3.564 3.207 3.207 0 0 1 .732.54 10.659 10.659 0 0 0 1.776-2.088zm-4.752 6.54c.1-.576.18-1.272.264-1.992h2.472c-.06.828-.132 1.476-.2 1.992zm-.552-1.992c-.084.72-.18 1.416-.276 1.992h-2.376c.108-.624.216-1.3.324-1.992zm.276-2.676c-.048.588-.12 1.224-.192 1.872h-2.292c.108-.636.2-1.272.288-1.872zm.636 1.872c.072-.636.144-1.284.2-1.872h2.34c-.036.7-.072 1.308-.108 1.872zm4.98.8v-.8h-1.68c.048-.648.1-1.392.132-2.22 0-.12.012-.432.012-.432h-7.056c-.1.8-.216 1.716-.36 2.652h-1.968v.8h1.84c-.216 1.3-.444 2.556-.648 3.468l.9.06c.048-.228.1-.48.144-.744h5.736a1.727 1.727 0 0 1 -.324.78.55.55 0 0 1 -.48.18c-.264 0-.852-.012-1.536-.072a1.792 1.792 0 0 1 .216.7 13.916 13.916 0 0 0 1.668.036 1.16 1.16 0 0 0 .912-.444 2.782 2.782 0 0 0 .444-1.176h1.728v-.792h-1.608c.072-.528.144-1.188.2-1.992zm4.956.792v-2.368h2.688v2.376zm7.932 0h-4.344v-2.368h3.516v-.836h-3.516v-1.828h3.792v-.864h-7.152c.192-.408.384-.84.552-1.26l-.9-.216a10.155 10.155 0 0 1 -2.7 4.14 5.522 5.522 0 0 1 .768.564 11.088 11.088 0 0 0 1.824-2.364h2.916v1.828h-3.576v3.216h-1.968v.864h5.544v2.748h.9v-2.752h4.344zm12.84.492v-.792h-5.088a5.285 5.285 0 0 0 .192-1.128h3.564v-.736h-3.54v-1.068h3.708v-.636h.9v-2.3h-4.584v-1.168h-.888v1.164h-4.572v2.3h.864v-1.5h8.28v1.38h-3.708v-1h-.888v1h-3.54v.756h3.54v1.072h-3.348v.744h3.324a3.775 3.775 0 0 1 -.228 1.128h-4.476v.788h4.068c-.624.9-1.848 1.74-4.188 2.388a3.522 3.522 0 0 1 .54.72c2.736-.816 4.044-1.92 4.668-3.108h.108a6.323 6.323 0 0 0 4.884 3.136 3.413 3.413 0 0 1 .54-.768 6.125 6.125 0 0 1 -4.476-2.364zm4.356-3.42c.024-.54.036-1.092.048-1.644h2.88v-.82h-2.092v-1.932h-.84v1.932h-2.112v.828h1.308c-.048 2.952-.192 5.928-1.44 7.584a2.471 2.471 0 0 1 .672.588c1.008-1.356 1.38-3.432 1.524-5.712h1.44c-.072 3.336-.144 4.5-.348 4.776a.366.366 0 0 1 -.372.168c-.168 0-.612 0-1.1-.048a2.133 2.133 0 0 1 .228.792 8.871 8.871 0 0 0 1.272 0 .866.866 0 0 0 .7-.384c.3-.4.372-1.74.456-5.712.012-.12.012-.408.012-.408zm8.736-1.924v-.816h-4.284a14.515 14.515 0 0 0 .444-1.5l-.864-.18a8.746 8.746 0 0 1 -1.764 3.8 6.939 6.939 0 0 1 .684.624 8.337 8.337 0 0 0 1.164-1.932zm-3.648 7.648c-.66 0-.768-.1-.768-.552v-3.34l1.128-.54v3.232h.768v-3.592l1.284-.612c0 1.428-.024 2.484-.06 2.664-.036.2-.108.228-.252.228a5.9 5.9 0 0 1 -.624-.012 2.306 2.306 0 0 1 .192.7 3.224 3.224 0 0 0 .9-.072.652.652 0 0 0 .54-.648c.048-.336.072-1.848.072-3.552l.036-.144-.564-.2-.144.108-.06.06-1.32.612v-1.54h-.768v1.9l-1.128.528v-1.496h-.8v1.868l-1.056.492.336.732.72-.336v2.94c0 1.056.324 1.32 1.512 1.32h2.436c1.008 0 1.272-.4 1.38-1.812a2.485 2.485 0 0 1 -.756-.324c-.048 1.152-.144 1.38-.672 1.38zm9.276-9.444-1.212-.012a6.334 6.334 0 0 1 .1 1.224c0 1.26-.12 4.3-.12 6.072 0 1.956 1.188 2.676 2.916 2.676a6.031 6.031 0 0 0 5.016-2.652l-.684-.816a5 5 0 0 1 -4.3 2.484c-1.14 0-1.968-.468-1.968-1.788 0-1.788.084-4.62.144-5.976a10.331 10.331 0 0 1 .108-1.216zm9.54 1.38.108 1.044c1.3-.276 4.356-.564 5.64-.708a4.874 4.874 0 0 0 -2.244 4.056c0 2.676 2.532 3.864 4.752 3.948l.348-1c-1.956-.072-4.14-.816-4.14-3.168a4.221 4.221 0 0 1 2.748-3.792 10.051 10.051 0 0 1 2.352-.192v-.96c-.8.036-1.932.1-3.24.216-2.208.18-4.476.408-5.256.492-.228.028-.612.048-1.068.06zm-271.992 19.588-1.164-.024a5.413 5.413 0 0 1 .088 1.068c0 .7.024 2.16.132 3.2.324 3.108 1.416 4.236 2.556 4.236.8 0 1.536-.7 2.256-2.736l-.756-.852c-.312 1.2-.876 2.448-1.488 2.448-.852 0-1.44-1.332-1.632-3.336-.084-1-.1-2.088-.084-2.844a9.137 9.137 0 0 1 .092-1.16zm6.252.336-.936.324a12.158 12.158 0 0 1 2.088 6.036l.96-.4a12.9 12.9 0 0 0 -2.112-5.96zm8.424 6.78a.877.877 0 0 1 .96-.768 1.636 1.636 0 0 1 1.608 1.628 6.161 6.161 0 0 1 -.972.072c-.936.004-1.596-.356-1.596-.932zm-1.536-7.584.036 1c.252-.036.528-.06.792-.072.636-.036 3.036-.144 3.672-.168-.612.54-2.112 1.8-2.784 2.352-.7.588-2.232 1.872-3.228 2.688l.684.708c1.524-1.548 2.592-2.4 4.6-2.4 1.56 0 2.688.888 2.688 2.064a2.108 2.108 0 0 1 -1.5 2.052 2.323 2.323 0 0 0 -2.448-2.124 1.685 1.685 0 0 0 -1.848 1.56c0 1 1 1.7 2.628 1.7 2.544 0 4.128-1.248 4.128-3.18 0-1.62-1.428-2.82-3.42-2.82a5.078 5.078 0 0 0 -1.668.252c.936-.78 2.568-2.172 3.168-2.628.216-.18.456-.336.672-.492l-.552-.7a2.83 2.83 0 0 1 -.648.1c-.636.06-3.492.156-4.116.156a7.155 7.155 0 0 1 -.856-.048zm13.056-1.188a9.593 9.593 0 0 1 -2.52 2.5 5.214 5.214 0 0 1 .5.648 12.736 12.736 0 0 0 2.832-2.844zm.288 2.424a11.39 11.39 0 0 1 -2.94 3.324 5.71 5.71 0 0 1 .5.78 12.194 12.194 0 0 0 1.356-1.284v5.736h.828v-6.708a13.718 13.718 0 0 0 1.044-1.572zm5.04 4.344h2.676v-.828h-2.676v-2.352h3v-.864h-1.824a25.309 25.309 0 0 0 1.212-2.424l-.852-.312a15.506 15.506 0 0 1 -1.152 2.472l.672.264h-2.832l.6-.288a14.761 14.761 0 0 0 -1.26-2.352l-.732.288a18.045 18.045 0 0 1 1.188 2.352h-1.86v.864h2.988v5.988a3.317 3.317 0 0 1 -1.812-2.268 21.385 21.385 0 0 0 .264-2.124l-.888-.072c-.144 2.292-.54 4.128-1.716 5.268a4.859 4.859 0 0 1 .684.612 6.082 6.082 0 0 0 1.356-2.448c.828 1.74 2.136 2.184 3.948 2.184h2.016a2.33 2.33 0 0 1 .288-.84c-.372 0-1.98.012-2.244 0a7.134 7.134 0 0 1 -1.044-.072zm12.468-3.888a10.97 10.97 0 0 1 -.612 1.248l.12.036h-2.82l.384-.084a5.084 5.084 0 0 0 -.6-1.2zm3.444 5.22v-.756h-4.812v-.888h3.756v-.684h-3.756v-.876h4.344v-.732h-2.724c.24-.36.5-.828.744-1.284h2.4v-.768h-1.864a16.779 16.779 0 0 0 1.056-1.728l-.912-.24a13.614 13.614 0 0 1 -.912 1.824l.444.144h-1.448v-2.124h-.84v2.124h-1.428v-2.124h-.828v2.124h-1.476l.612-.228a8.271 8.271 0 0 0 -1.02-1.764l-.756.252a9.354 9.354 0 0 1 .948 1.74h-1.908v.768h2.928l-.42.084a5.039 5.039 0 0 1 .588 1.2h-2.616v.732h4.212v.876h-3.612v.684h3.612v.888h-4.74v.756h3.924a11.565 11.565 0 0 1 -4.236 1.9 3.821 3.821 0 0 1 .576.756 12.059 12.059 0 0 0 4.476-2.364v2.556h.876v-2.616a11.328 11.328 0 0 0 4.512 2.46 3.208 3.208 0 0 1 .6-.792 10.979 10.979 0 0 1 -4.284-1.9zm10.6-5.676h-5.68v-1.248h5.676zm.924-1.968h-7.492v2.688h7.488zm-7.1 6.984h6.66v.864h-6.66zm0-1.476h6.66v.84h-6.66zm0-1.476h6.66v.84h-6.66zm7.564 4.476v-5.132h-8.46v5.136h2.244a12.932 12.932 0 0 1 -3.54 1.332 6.845 6.845 0 0 1 .66.66 15.232 15.232 0 0 0 3.732-1.476l-.8-.516zm-3.288.6a31.5 31.5 0 0 1 3.768 1.4l.768-.648c-.936-.384-2.532-.972-3.768-1.332zm9.648-8.16a8.18 8.18 0 0 0 -2.076-1.284l-.516.636a8.111 8.111 0 0 1 2.04 1.332zm-.492 3.072a9.608 9.608 0 0 0 -2.2-1.092l-.492.684a8.825 8.825 0 0 1 2.184 1.176zm-1.584 6.312c.616-1.116 1.316-2.592 1.848-3.856l-.672-.528a33.962 33.962 0 0 1 -1.96 3.828zm4.764-8.772h2.124v1.344h-2.124zm5.076 2.148v-.8h-2.1v-1.348h1.776v-.784h-1.776v-1.232h-.852v1.232h-2.124v-1.232h-.828v1.232h-1.72v.78h1.72v1.344h-2.12v.8h3.576v1.016h-3.076v5.76h.8v-4.968h2.352v2.436h-.952v-1.788h-.6v3.192h.6v-.72h2.66v.548h.588v-3.02h-.588v1.788h-1.008v-2.436h2.46v4.02c0 .144-.048.192-.216.2s-.732 0-1.344-.024a3.235 3.235 0 0 1 .24.756 6.255 6.255 0 0 0 1.74-.12c.324-.132.408-.372.408-.816v-4.808h-3.2v-1.008zm4.464-2.724h6.36v2.352h-6.36zm3.588 5.88h4.024v-.828h-4.02v-1.848h3.7v-4.068h-8.16v4.068h3.564v4.86a3.777 3.777 0 0 1 -2.232-2.364 13.819 13.819 0 0 0 .3-1.5l-.952-.108c-.168 1.716-.744 3.732-2.16 4.824a3.674 3.674 0 0 1 .624.6 5.971 5.971 0 0 0 1.836-2.7c1.14 2.076 2.976 2.532 5.52 2.532h2.64a3.126 3.126 0 0 1 .324-.864c-.5.012-2.544.012-2.916.012a10.335 10.335 0 0 1 -2.088-.18zm17.724-5.328v-.816h-4.476v-1.176h-.912v1.176h-4.4v3.432c0 1.728-.084 4.152-1.068 5.856a3.449 3.449 0 0 1 .732.5c1.032-1.812 1.176-4.512 1.176-6.36v-2.612zm-2.88 2.076v1.264h-2.9v-1.26zm.864 1.98v-1.98h1.932v-.736h-1.932v-1.04h-.864v1.04h-2.9v-1.04h-.852v1.04h-1.912v.732h1.908v1.98zm-.192 1.484a5.515 5.515 0 0 1 -2.028 1.524 5.375 5.375 0 0 1 -1.944-1.524zm.744-.768-.156.036h-6.78v.732h1.848l-.48.18a6.038 6.038 0 0 0 1.884 1.72 16.278 16.278 0 0 1 -3.7.768 3.083 3.083 0 0 1 .372.744 16.253 16.253 0 0 0 4.224-1.032 13.688 13.688 0 0 0 3.948 1.056 2.645 2.645 0 0 1 .516-.756 15.259 15.259 0 0 1 -3.528-.756 5.927 5.927 0 0 0 2.412-2.388zm7.164-6.36h-2.952v.72h2.952zm.336 1.572h-3.852v.732h3.852zm-.312 1.62h-3.048v.708h3.048zm-3.048 2.3h3.048v-.72h-3.048zm2.3 1.62v2h-1.6v-2zm.744 2.724v-3.448h-3.06v4.02h.72v-.564zm2.244-5.88v.684h3.516v-.684h-1.452v-1.144h1.272v-.684h-1.272v-1.032h-.728v1.032h-1.236v.684h1.236v1.152zm2.58 2.292v1.716h-1.724v-1.708zm.684 2.4v-3.076h-3.1v3.556h.684v-.468zm1.56-8.568h-6.156v4.272c0 1.764-.072 4.1-1.008 5.76a3.011 3.011 0 0 1 .7.492c1-1.752 1.128-4.392 1.128-6.252v-3.484h4.524v8.544c0 .2-.06.252-.24.252-.2.012-.828.024-1.464-.012a4.271 4.271 0 0 1 .264.876 5.492 5.492 0 0 0 1.812-.156c.336-.144.444-.432.444-.96zm5.412 8.52h4.86v.876h-4.86zm4.86-3.048v.852h-4.86v-.852zm0 2.388h-4.86v-.876h4.86zm.9-3.144h-6.62v4.68h-2.016v.8h10.644v-.8h-2zm1.968-2.916v-.792h-4.9v-1.504h-.864v1.512h-4.8v.792h3.84a10.439 10.439 0 0 1 -4.1 2.664 3.417 3.417 0 0 1 .564.7 11.209 11.209 0 0 0 4.5-3.336v2.512h.864v-2.5a10.979 10.979 0 0 0 4.548 3.24 2.762 2.762 0 0 1 .588-.708 10.684 10.684 0 0 1 -4.2-2.568zm4 4.812a1.83 1.83 0 1 0 1.836 1.824 1.831 1.831 0 0 0 -1.836-1.816zm0 3.048a1.218 1.218 0 1 1 1.224-1.224 1.219 1.219 0 0 1 -1.224 1.232zm11.16-.12h5.532v-.948h-2.436c-.444 0-.984.048-1.44.084 2.064-1.956 3.444-3.744 3.444-5.5a2.413 2.413 0 0 0 -2.556-2.6 3.364 3.364 0 0 0 -2.592 1.3l.636.624a2.463 2.463 0 0 1 1.824-1.02 1.546 1.546 0 0 1 1.62 1.74c0 1.512-1.272 3.264-4.032 5.676zm10.428.156c1.668 0 2.736-1.524 2.736-4.584s-1.068-4.536-2.736-4.536-2.748 1.476-2.748 4.536 1.068 4.592 2.748 4.592zm0-.876c-1.008 0-1.68-1.116-1.68-3.708 0-2.568.672-3.66 1.68-3.66s1.668 1.092 1.668 3.66c0 2.6-.672 3.716-1.668 3.716zm5.34.72h4.824v-.912h-1.764v-7.9h-.84a5.3 5.3 0 0 1 -1.824.636v.7h1.56v6.564h-1.956zm8.124-6.108c0-1.2.648-1.992 1.488-1.992 1.128 0 1.8.96 1.92 2.772a2.305 2.305 0 0 1 -1.836 1.176c-1.044.008-1.572-.76-1.572-1.948zm1.248 6.264c1.656 0 3.192-1.368 3.192-4.932 0-2.8-1.26-4.188-2.952-4.188a2.641 2.641 0 0 0 -2.52 2.856c0 1.824.96 2.772 2.424 2.772a2.737 2.737 0 0 0 2.028-1.08c-.084 2.724-1.068 3.66-2.208 3.66a1.94 1.94 0 0 1 -1.464-.672l-.612.684a2.8 2.8 0 0 0 2.112.908zm8.28-2.844v-2.368h2.692v2.376zm7.932 0h-4.34v-2.368h3.516v-.836h-3.516v-1.828h3.792v-.864h-7.152c.192-.408.384-.84.552-1.26l-.9-.216a10.155 10.155 0 0 1 -2.7 4.14 5.522 5.522 0 0 1 .768.564 11.088 11.088 0 0 0 1.824-2.364h2.916v1.828h-3.58v3.216h-1.968v.864h5.548v2.748h.9v-2.752h4.344zm8.976-.564h-2.9v-2.728h2.9zm-3.756-3.54v4.34h4.632v-4.332zm-1.728 6.216v-8.068h8.1v8.076zm-.9-8.964v10.46h.9v-.648h8.1v.648h.948v-10.452zm14.7 1.3a9.884 9.884 0 0 1 .72 1.608l.8-.264a7.8 7.8 0 0 0 -.636-1.344h2.084v-.768h-3.012c.144-.324.288-.648.408-.984l-.852-.228a8.235 8.235 0 0 1 -1.872 3.132 5.56 5.56 0 0 1 .732.492 9.482 9.482 0 0 0 1.176-1.644zm5.844 6.168v1.824h-5.2v-1.82zm-6.048 2.988h.852v-.384h5.2v.348h.876v-3.72h-6.924zm1.344-5.556a11 11 0 0 0 2.064-1.86 11.3 11.3 0 0 0 2.22 1.86zm2.2-2.64a7.692 7.692 0 0 0 .768-.96h.912a7.131 7.131 0 0 1 .936 1.584l.828-.288a8.249 8.249 0 0 0 -.768-1.3h2.544v-.768h-3.992a8.057 8.057 0 0 0 .432-1l-.864-.216a6.316 6.316 0 0 1 -1.824 2.7c.108.06.264.156.408.252a12.512 12.512 0 0 1 -5.076 3.6 3.481 3.481 0 0 1 .5.708 16.183 16.183 0 0 0 2.652-1.452v.528h4.932v-.54a16.4 16.4 0 0 0 2.58 1.32 3.978 3.978 0 0 1 .54-.756 12.868 12.868 0 0 1 -5.268-3.408zm18.192 3.816a17.91 17.91 0 0 0 -2.736-1.644l-.624.5a15.96 15.96 0 0 1 2.7 1.7zm-1.284-4.08a13.662 13.662 0 0 1 -1.848 1.512l.636.384a15.322 15.322 0 0 0 1.992-1.488zm-6.048.708-.444.528a16.752 16.752 0 0 1 1.74 1.284c-.336.36-.672.7-.984 1-.324.012-.636.024-.9.036l.12.756c1.152-.084 2.676-.18 4.2-.288a6.094 6.094 0 0 1 .348.672l.684-.36a9.745 9.745 0 0 0 -1.512-2.16l-.648.288a11.423 11.423 0 0 1 .708.912l-2.064.108a29.779 29.779 0 0 0 2.508-2.76l-.708-.336a20.074 20.074 0 0 1 -1.26 1.584c-.252-.216-.576-.456-.912-.7a17.5 17.5 0 0 0 1.2-1.488l-.312-.12h5.22v-.8h-4.584v-1.344h-.888v1.344h-4.476v.8h4.164a12.45 12.45 0 0 1 -.864 1.26zm-.444.744a10.33 10.33 0 0 0 -1.908-1.284l-.6.492a11.108 11.108 0 0 1 1.884 1.332zm.084 1.116c-1.116.468-2.244.948-3.012 1.224l.444.72c.8-.348 1.788-.828 2.736-1.272zm2.76 1.74h-.888v.924h-4.844v.828h4.836v2.436h.888v-2.432h4.92v-.828h-4.92zm11.9 1.8c0-.588.636-.972 1.536-.972a4.084 4.084 0 0 1 1.224.192c.012.156.012.3.012.42 0 .792-.3 1.308-1.308 1.308-.864.004-1.464-.332-1.464-.944zm3.636-7.8h-1.08c.024.2.048.528.048.732v1.492c-.372.012-.756.024-1.128.024-.72 0-1.356-.036-2.04-.1v.9c.708.048 1.332.084 2.016.084.384 0 .768-.012 1.152-.024.012.984.084 2.16.12 3.084a5.5 5.5 0 0 0 -1.116-.108c-1.572 0-2.472.8-2.472 1.812 0 1.08.888 1.716 2.5 1.716s2.076-.948 2.076-1.932v-.252a9.762 9.762 0 0 1 1.812 1.392l.528-.8a7.909 7.909 0 0 0 -2.376-1.548c-.048-1.008-.132-2.208-.144-3.42.72-.048 1.416-.12 2.076-.228v-.924a20.262 20.262 0 0 1 -2.076.276c.012-.564.024-1.128.036-1.452q.014-.36.068-.72zm-5.928.072-1.056-.084a7.2 7.2 0 0 1 -.072.852 35.7 35.7 0 0 0 -.552 5.052 14.494 14.494 0 0 0 .456 3.792l.84-.06c-.012-.132-.024-.3-.024-.42a2.15 2.15 0 0 1 .048-.54c.12-.588.564-1.812.852-2.652l-.492-.384c-.2.492-.492 1.224-.684 1.764a11.257 11.257 0 0 1 -.12-1.668 29.753 29.753 0 0 1 .6-4.836 6.241 6.241 0 0 1 .204-.812zm11.46 3.06c0-1.2.648-1.992 1.488-1.992 1.128 0 1.8.96 1.92 2.772a2.305 2.305 0 0 1 -1.836 1.176c-1.044.004-1.572-.764-1.572-1.952zm1.248 6.264c1.656 0 3.192-1.368 3.192-4.932 0-2.8-1.26-4.188-2.952-4.188a2.641 2.641 0 0 0 -2.52 2.856c0 1.824.96 2.772 2.424 2.772a2.737 2.737 0 0 0 2.028-1.08c-.084 2.724-1.068 3.66-2.208 3.66a1.94 1.94 0 0 1 -1.464-.672l-.612.684a2.8 2.8 0 0 0 2.112.904zm8.328-4.8c1.068 0 1.6.756 1.6 1.944s-.66 2-1.5 2c-1.1 0-1.764-1-1.9-2.82a2.274 2.274 0 0 1 1.8-1.12zm.1 4.8a2.641 2.641 0 0 0 2.52-2.856c0-1.836-.948-2.76-2.436-2.76a2.736 2.736 0 0 0 -2 1.068c.048-2.736 1.068-3.66 2.268-3.66a1.86 1.86 0 0 1 1.416.672l.6-.684a2.7 2.7 0 0 0 -2.052-.9c-1.7 0-3.252 1.32-3.252 4.764-.008 2.904 1.24 4.36 2.932 4.36zm5.676 0a.793.793 0 0 0 .792-.828.794.794 0 1 0 -1.584 0 .793.793 0 0 0 .788.832zm4.008-3.456 2-3c.252-.432.492-.864.708-1.3h.048c-.024.456-.06 1.164-.06 1.6v2.7zm2.7 3.3h1.032v-2.42h1.164v-.876h-1.164v-5.508h-1.212l-3.66 5.664v.72h3.84zm6-3.408c1.212 0 2-1.02 2-2.8s-.792-2.76-2-2.76-1.992 1-1.992 2.76.788 2.804 1.988 2.804zm0-.684c-.684 0-1.164-.708-1.164-2.112s.48-2.088 1.164-2.088 1.176.684 1.176 2.088-.484 2.116-1.18 2.116zm.264 4.248h.732l4.86-9.12h-.744zm5.868 0c1.2 0 1.992-1.008 1.992-2.784s-.792-2.76-1.992-2.76-2 1-2 2.76.796 2.788 1.996 2.788zm0-.672c-.7 0-1.164-.708-1.164-2.112s.468-2.088 1.164-2.088 1.164.684 1.164 2.088-.484 2.116-1.168 2.116z" transform="translate(5.49 201.253)"/></svg>