<svg height="221.83" viewBox="0 0 260.49 221.83" width="260.49" xmlns="http://www.w3.org/2000/svg"><path d="m-42.966-7.014a8.959 8.959 0 0 1 -1.722 3.822c-1.05-.462-2.1-.868-3.052-1.2.35-.826.728-1.708 1.092-2.618zm3.976 0v-1.694h-6.972c.392-.966.756-1.932 1.092-2.828l-1.834-.308c-.336.966-.742 2.044-1.162 3.136h-3.822v1.694h3.136c-.616 1.5-1.246 2.912-1.778 4l1.68.616.238-.518q1.113.441 2.268.966a13.221 13.221 0 0 1 -5.432 1.53 5.613 5.613 0 0 1 .882 1.666 13.418 13.418 0 0 0 6.426-2.282 23.716 23.716 0 0 1 3.78 2.324l1.274-1.568a25.458 25.458 0 0 0 -3.724-2.128 11.655 11.655 0 0 0 1.876-4.606zm11.914 6.2v-2.8h2.562v-1.552h-2.562v-2.3h2.856v-1.564h-2.856v-2.744h-1.666v2.744h-1.12c.14-.63.252-1.288.35-1.946l-1.624-.224a16.944 16.944 0 0 1 -.742 3.416 16.052 16.052 0 0 0 -.77-1.764l-.812.336v-2.646h-1.666v2.858l-1.174-.17a16.639 16.639 0 0 1 -.686 3.64l1.232.448a17.841 17.841 0 0 0 .63-3.71v10.01h1.666v-9.562a9.735 9.735 0 0 1 .532 1.61l.8-.364c-.14.294-.28.56-.42.812a14.722 14.722 0 0 1 1.484.756 9.563 9.563 0 0 0 .784-1.932h1.54v2.3h-2.7v1.554h2.7v2.8h-3.742v1.578h8.708v-1.582zm12.976-8.748a8.376 8.376 0 0 0 -1.12-2.282l-1.484.49a8.722 8.722 0 0 1 1.01 2.324zm-.658 4.256c.056-.574.084-1.176.112-1.82h-1.82c-.028.658-.042 1.26-.1 1.82h-3.682v1.554h3.43c-.462 1.694-1.6 2.8-4.662 3.444a5.791 5.791 0 0 1 .966 1.54c3.738-.91 5.04-2.548 5.544-4.984h3.01c-.126 2.058-.294 3-.56 3.248a.813.813 0 0 1 -.58.154c-.364 0-1.232-.014-2.058-.07a3.626 3.626 0 0 1 .588 1.638 17.911 17.911 0 0 0 2.2-.028 1.769 1.769 0 0 0 1.316-.6c.476-.518.672-1.9.826-5.222.028-.21.042-.672.042-.672zm3.5-3.7a26.318 26.318 0 0 0 1.658-2.222l-1.862-.56a14.232 14.232 0 0 1 -1.568 2.674l.308.112h-5.726l.994-.462a8.466 8.466 0 0 0 -1.442-2.17l-1.442.672a9.174 9.174 0 0 1 1.238 1.962h-1.988v3.248h1.6v-1.71h8.722v1.708h1.68v-3.246zm14.14 2.03a15.131 15.131 0 0 1 -.8 5.446v-1.158h-1.882v-.672h1.89v-4.158h-1.88v-.6h1.932v.868h.742zm-2.682 5.476h1.872c-.084.21-.168.406-.266.6l-1.606.13zm-2.132-3.47h.868v.616h-.868zm0-1.54h.868v.616h-.868zm1.988.616v-.616h.91v.616zm0 1.54v-.616h.91v.616zm4.228-4.326v-3.136h-1.4v3.136h-.684v-.644h-1.99v-.658a18.893 18.893 0 0 0 2.016-.336l-.812-1.176a36.2 36.2 0 0 1 -4.41.63c.056-.182.1-.364.154-.532l-1.484-.42a15.625 15.625 0 0 1 -2.436 5.306 10.582 10.582 0 0 1 .742 1.792 11.759 11.759 0 0 0 .77-1.106v7.07h1.484v-10.024c.252-.588.476-1.2.672-1.806a4.781 4.781 0 0 1 .252.854c.532-.028 1.092-.056 1.652-.112v.518h-1.96v1.2h1.96v.6h-1.81v4.164h1.8v.672h-1.82v1.188h1.82v.84c-.8.07-1.526.126-2.128.168l.21 1.358c1.172-.124 2.642-.266 4.126-.446a6.412 6.412 0 0 1 1.106.854c1.918-2.2 2.17-5.6 2.17-8.246v-.28h.716c-.086 4.732-.17 6.384-.408 6.752a.38.38 0 0 1 -.406.238 9.827 9.827 0 0 1 -1.008-.046 3.87 3.87 0 0 1 .378 1.442 6.779 6.779 0 0 0 1.372-.056 1.248 1.248 0 0 0 .91-.63c.406-.588.462-2.618.562-8.442 0-.2.014-.686.014-.686zm10.71-.22h2.282a19.118 19.118 0 0 1 -1.512 1.27h-.77zm3.052 6.118h-4.816v-.9h4.816zm-4.816 2.208v-.952h4.816v.952zm8.162-5.586v-1.47h-3.248a20.478 20.478 0 0 0 2.756-3.08l-1.428-.728a17.049 17.049 0 0 1 -1.44 1.778v-.686h-3.038v-1.512h-1.652v1.512h-3.29v1.446h3.29v1.27h-4.494v1.47h4.76a24.919 24.919 0 0 1 -5.208 2.324 9.173 9.173 0 0 1 1.022 1.372c.714-.266 1.442-.574 2.142-.882v4.578h1.666v-.42h4.816v.364h1.736v-6.216h-5.082c.574-.364 1.106-.728 1.652-1.12zm7.5 4.312v1.19h-2.782v-1.19zm-4.28 3.048h1.5v-.612h2.788v.476h1.582v-4.158h-5.87zm5.068-9.52h-1.428v-.756h-1.526v.756h-1.426v-1.032h4.38zm-1.4-3.458h-1.6v1.162h-2.852v2.416h.686v1.06h2.212v.588h-2.072v1.106h2.072v.6h-2.856v1.276h7.2v-1.274h-2.818v-.6h2.048v-1.108h-2.048v-.588h2.24v-1.06h.728v-2.408h-2.94zm5.11 1.4h-1.582v7.826h1.582zm1.316-1.232v10.784c0 .224-.1.308-.336.308-.28 0-1.078.014-1.89-.028a6.82 6.82 0 0 1 .546 1.722 6.158 6.158 0 0 0 2.562-.336c.56-.266.728-.728.728-1.652v-10.794zm13.44 8.568v2.286h-5.53v-2.282zm-7.168 4.27h1.638v-.514h5.53v.518h1.708v-5.74h-8.876zm1.554-8.6a14.3 14.3 0 0 0 2.786-2.842 15.337 15.337 0 0 0 2.87 2.842zm1.848-4.48a14.821 14.821 0 0 1 -5.7 4.984 6.8 6.8 0 0 1 1.052 1.368 19.506 19.506 0 0 0 2.168-1.374v.98h6.972v-.966a16.793 16.793 0 0 0 2.142 1.33 8.138 8.138 0 0 1 1.078-1.5 14.064 14.064 0 0 1 -5.992-4.814z" transform="translate(123.99 11.857)"/><g fill="#a21b43"><path d="m-76.953-64.746h-13.037l6.25-10.645h18.164v75.391h-11.377zm76.025 43.7h8.008v10.352h-8.008v10.694h-11.372v-10.693h-37.016l48.388-70.313zm-11.377 0v-25.243l-17.382 25.244zm32.422 15.577a6.475 6.475 0 0 1 2-4.736 6.53 6.53 0 0 1 4.785-2 6.53 6.53 0 0 1 4.785 2 6.53 6.53 0 0 1 2 4.785 6.587 6.587 0 0 1 -2 4.834 6.507 6.507 0 0 1 -4.787 1.953 6.566 6.566 0 0 1 -4.83-1.953 6.625 6.625 0 0 1 -1.953-4.883zm48.1-29.541v-9.717q7.227 0 9.717-1.611 4.443-2.832 4.443-9.082a10.3 10.3 0 0 0 -3.223-7.861 11.358 11.358 0 0 0 -8.254-3.076q-4.736 0-7.324 2.295-2.49 2.344-3.711 7.91h-11.33q1.758-10.645 7.227-15.6t15.283-4.956q9.912 0 16.162 5.859a19.542 19.542 0 0 1 6.25 14.99q0 10.352-8.2 16.113 9.375 5.518 9.375 17.92 0 10.156-6.836 16.6t-17.532 6.447q-13.623 0-20.215-10.01-2.734-4.2-3.467-11.621h10.986a13.359 13.359 0 0 0 4.272 8.374 13.151 13.151 0 0 0 8.86 2.905 12.289 12.289 0 0 0 9.131-3.662 13.185 13.185 0 0 0 3.613-9.521q0-7.617-5.42-10.84-3.17-1.856-9.811-1.856z" transform="translate(89.99 219.211)"/><path d="m10.02-4.277h11.23v4.277h-20.25l10.465-12.676q1.543-1.895 2.588-3.281a24.942 24.942 0 0 0 1.592-2.324 6.533 6.533 0 0 0 1.113-3.3 4.7 4.7 0 0 0 -1.484-3.535 5.1 5.1 0 0 0 -3.674-1.427q-4.57 0-5.234 5.41h-4.53q1.094-9.531 9.629-9.531a9.726 9.726 0 0 1 6.914 2.617 8.5 8.5 0 0 1 2.813 6.484 9.851 9.851 0 0 1 -1.309 4.824 23.634 23.634 0 0 1 -1.943 2.92q-1.279 1.689-3.232 3.994zm16.367-11q0-7.207 3.359-11.5a8.955 8.955 0 0 1 7.285-3.887 8.955 8.955 0 0 1 7.285 3.887q3.359 4.3 3.359 11.7 0 7.383-3.359 11.68a8.939 8.939 0 0 1 -7.265 3.885 9.042 9.042 0 0 1 -7.3-3.887q-3.364-4.301-3.364-11.874zm4.473.02a17.869 17.869 0 0 0 1.74 8.343q1.738 3.262 4.434 3.262 2.676 0 4.434-3.262a17.04 17.04 0 0 0 1.755-8.186 17.158 17.158 0 0 0 -1.758-8.2q-1.758-3.242-4.434-3.242-2.656 0-4.414 3.242a16.648 16.648 0 0 0 -1.758 8.046zm21.972 13.07a2.59 2.59 0 0 1 .8-1.895 2.612 2.612 0 0 1 1.914-.8 2.612 2.612 0 0 1 1.914.8 2.612 2.612 0 0 1 .8 1.914 2.635 2.635 0 0 1 -.8 1.934 2.6 2.6 0 0 1 -1.914.781 2.626 2.626 0 0 1 -1.934-.781 2.65 2.65 0 0 1 -.78-1.953zm10.586-13.086q0-7.207 3.359-11.5a8.955 8.955 0 0 1 7.285-3.887 8.955 8.955 0 0 1 7.285 3.887q3.359 4.3 3.359 11.7 0 7.383-3.359 11.68a8.939 8.939 0 0 1 -7.265 3.881 9.042 9.042 0 0 1 -7.3-3.887q-3.364-4.301-3.364-11.874zm4.473.02a17.869 17.869 0 0 0 1.738 8.34q1.738 3.262 4.434 3.262 2.676 0 4.434-3.262a17.04 17.04 0 0 0 1.757-8.187 17.158 17.158 0 0 0 -1.754-8.2q-1.758-3.242-4.434-3.242-2.656 0-4.414 3.242a16.648 16.648 0 0 0 -1.761 8.046z" transform="translate(155.99 93.211)"/><path d="m-15.135-21.111a5.956 5.956 0 0 1 1.951-4.43 6.474 6.474 0 0 1 4.584-1.881 6.347 6.347 0 0 1 4.605 1.9 6.058 6.058 0 0 1 1.934 4.5 6.078 6.078 0 0 1 -1.929 4.516 6.44 6.44 0 0 1 -4.658 1.881 6.259 6.259 0 0 1 -4.588-1.916 6.268 6.268 0 0 1 -1.899-4.57zm3.059.053a3.4 3.4 0 0 0 1.02 2.5 3.374 3.374 0 0 0 2.479 1.02 3.333 3.333 0 0 0 2.443-1.02 3.353 3.353 0 0 0 1.02-2.461 3.333 3.333 0 0 0 -1.02-2.443 3.353 3.353 0 0 0 -2.466-1.024 3.353 3.353 0 0 0 -2.461 1.02 3.293 3.293 0 0 0 -1.015 2.407zm18.9-6.557 1.916 1.09-15.54 26.964-1.936-1.16zm-4.785 21.375a5.937 5.937 0 0 1 1.951-4.412 6.474 6.474 0 0 1 4.588-1.881 6.367 6.367 0 0 1 4.623 1.9 6.058 6.058 0 0 1 1.934 4.5 6.015 6.015 0 0 1 -1.951 4.518 6.433 6.433 0 0 1 -4.659 1.861 6.288 6.288 0 0 1 -4.588-1.9 6.251 6.251 0 0 1 -1.898-4.586zm3.076.07a3.425 3.425 0 0 0 1 2.5 3.374 3.374 0 0 0 2.485 1.016 3.3 3.3 0 0 0 2.443-1.02 3.353 3.353 0 0 0 1.02-2.461 3.353 3.353 0 0 0 -1.024-2.465 3.316 3.316 0 0 0 -2.461-1.02 3.333 3.333 0 0 0 -2.443 1.02 3.313 3.313 0 0 0 -1.02 2.43z" transform="translate(243.99 204.211)"/><path d="m-6.727-9.383a2.647 2.647 0 0 1 .867-1.969 2.877 2.877 0 0 1 2.039-.836 2.821 2.821 0 0 1 2.047.844 2.692 2.692 0 0 1 .859 2 2.7 2.7 0 0 1 -.859 2.008 2.862 2.862 0 0 1 -2.07.836 2.782 2.782 0 0 1 -2.039-.852 2.786 2.786 0 0 1 -.844-2.031zm1.359.023a1.509 1.509 0 0 0 .454 1.11 1.5 1.5 0 0 0 1.1.453 1.481 1.481 0 0 0 1.087-.453 1.49 1.49 0 0 0 .453-1.094 1.481 1.481 0 0 0 -.453-1.086 1.49 1.49 0 0 0 -1.094-.453 1.49 1.49 0 0 0 -1.094.453 1.464 1.464 0 0 0 -.452 1.071zm8.4-2.914.852.484-6.907 11.99-.86-.52zm-2.126 9.501a2.639 2.639 0 0 1 .867-1.961 2.877 2.877 0 0 1 2.04-.836 2.83 2.83 0 0 1 2.055.844 2.692 2.692 0 0 1 .859 2 2.673 2.673 0 0 1 -.868 2.007 2.859 2.859 0 0 1 -2.07.828 2.8 2.8 0 0 1 -2.039-.843 2.778 2.778 0 0 1 -.844-2.039zm1.367.031a1.522 1.522 0 0 0 .445 1.109 1.5 1.5 0 0 0 1.1.453 1.465 1.465 0 0 0 1.086-.453 1.49 1.49 0 0 0 .453-1.094 1.49 1.49 0 0 0 -.451-1.093 1.474 1.474 0 0 0 -1.094-.453 1.481 1.481 0 0 0 -1.086.453 1.472 1.472 0 0 0 -.453 1.078z" transform="translate(252.99 92.211)"/><path d="m-28.152 0h5.7v-1.176h-2.208c-.432 0-.984.036-1.44.084 1.872-1.788 3.228-3.552 3.228-5.256a2.5 2.5 0 0 0 -2.664-2.652 3.429 3.429 0 0 0 -2.688 1.32l.78.768a2.4 2.4 0 0 1 1.744-.988 1.434 1.434 0 0 1 1.5 1.62c0 1.452-1.344 3.168-3.948 5.472zm10.932.156c1.728 0 2.856-1.536 2.856-4.608 0-3.048-1.128-4.548-2.856-4.548s-2.856 1.488-2.856 4.548 1.128 4.608 2.856 4.608zm0-1.092c-.9 0-1.536-.96-1.536-3.516 0-2.532.636-3.456 1.536-3.456s1.536.924 1.536 3.456c0 2.552-.636 3.516-1.536 3.516zm5.652.936h5.04v-1.14h-1.728v-7.7h-1.044a5.194 5.194 0 0 1 -1.92.684v.876h1.584v6.14h-1.932zm8.808-6.1c0-1.152.6-1.836 1.356-1.836.96 0 1.62.792 1.752 2.532a2.1 2.1 0 0 1 -1.68 1.08c-.924.004-1.428-.644-1.428-1.776zm1.116 6.256c1.7 0 3.288-1.392 3.288-4.872 0-2.928-1.368-4.284-3.06-4.284a2.7 2.7 0 0 0 -2.628 2.9c0 1.848 1 2.772 2.472 2.772a2.655 2.655 0 0 0 1.944-1.028c-.084 2.52-1.008 3.384-2.072 3.384a1.963 1.963 0 0 1 -1.44-.66l-.76.852a3.031 3.031 0 0 0 2.256.936zm8.76-2.94v-2.124h2.412v2.124zm7.776 0h-4.212v-2.124h3.348v-1.044h-3.348v-1.656h3.62v-1.08h-6.944c.156-.36.324-.756.468-1.128l-1.128-.3a9.709 9.709 0 0 1 -2.616 4.068 8.874 8.874 0 0 1 .972.72 10.917 10.917 0 0 0 1.728-2.28h2.748v1.656h-3.528v3.168h-1.932v1.084h5.46v2.648h1.152v-2.648h4.212zm4.308-5.16h8.784v-1h-4.368v-1.128h-1.164v1.132h-4.32v3.384c0 1.74-.084 4.176-1.056 5.88a5.051 5.051 0 0 1 .912.612c1.044-1.824 1.212-4.608 1.212-6.492zm5.772 2.112v1.056h-2.592v-1.056zm1.092 1.92v-1.92h1.836v-.912h-1.836v-.912h-1.092v.912h-2.592v-.912h-1.056v.912h-1.776v.912h1.776v1.92zm-.5 1.524a5.531 5.531 0 0 1 -1.776 1.3 5.162 5.162 0 0 1 -1.74-1.3zm.936-.936-.2.036h-6.62v.9h1.836l-.54.2a6.388 6.388 0 0 0 1.656 1.552 16.731 16.731 0 0 1 -3.432.66 3.421 3.421 0 0 1 .468.936 15.753 15.753 0 0 0 4.08-.984 13.58 13.58 0 0 0 3.8 1 3.974 3.974 0 0 1 .652-.964 15.778 15.778 0 0 1 -3.252-.636 5.788 5.788 0 0 0 2.232-2.328z" transform="translate(230.99 220.857)"/><path d="m.528 0h5.7v-1.176h-2.208c-.432 0-.984.036-1.44.084 1.872-1.788 3.228-3.552 3.228-5.256a2.5 2.5 0 0 0 -2.664-2.652 3.429 3.429 0 0 0 -2.688 1.32l.78.768a2.4 2.4 0 0 1 1.74-.988 1.434 1.434 0 0 1 1.5 1.62c0 1.456-1.344 3.172-3.948 5.48zm10.932.156c1.728 0 2.856-1.536 2.856-4.608 0-3.048-1.128-4.548-2.856-4.548s-2.86 1.488-2.86 4.548 1.132 4.608 2.86 4.608zm0-1.092c-.9 0-1.536-.96-1.536-3.516 0-2.532.636-3.456 1.536-3.456s1.54.924 1.54 3.456c0 2.552-.64 3.516-1.54 3.516zm5.148.936h5.7v-1.176h-2.208c-.432 0-.984.036-1.44.084 1.872-1.788 3.228-3.552 3.228-5.256a2.5 2.5 0 0 0 -2.664-2.652 3.429 3.429 0 0 0 -2.688 1.32l.78.768a2.4 2.4 0 0 1 1.74-.984 1.434 1.434 0 0 1 1.5 1.62c0 1.452-1.344 3.168-3.948 5.472zm10.728.156c1.62 0 2.952-.936 2.952-2.532a2.236 2.236 0 0 0 -1.824-2.208v-.06a2.135 2.135 0 0 0 1.524-2.076c0-1.452-1.116-2.28-2.7-2.28a3.722 3.722 0 0 0 -2.532 1.068l.72.864a2.572 2.572 0 0 1 1.764-.832 1.227 1.227 0 0 1 1.36 1.276c0 .888-.576 1.548-2.316 1.548v1.02c1.992 0 2.616.636 2.616 1.608a1.485 1.485 0 0 1 -1.68 1.476 2.854 2.854 0 0 1 -2.088-.972l-.672.888a3.666 3.666 0 0 0 2.876 1.212zm-23.7 15.06v-2.124h2.412v2.124zm7.776 0h-4.212v-2.124h3.348v-1.044h-3.348v-1.656h3.624v-1.08h-6.948c.156-.36.324-.756.468-1.128l-1.128-.3a9.709 9.709 0 0 1 -2.616 4.068 8.874 8.874 0 0 1 .972.72 10.917 10.917 0 0 0 1.728-2.28h2.748v1.656h-3.528v3.168h-1.932v1.084h5.46v2.652h1.152v-2.652h4.212zm4.308-5.16h8.78v-1h-4.364v-1.124h-1.164v1.128h-4.32v3.384c0 1.74-.084 4.176-1.056 5.88a5.051 5.051 0 0 1 .912.612c1.044-1.824 1.212-4.608 1.212-6.492zm5.772 2.112v1.056h-2.592v-1.056zm1.092 1.92v-1.92h1.836v-.912h-1.836v-.912h-1.092v.912h-2.592v-.912h-1.056v.912h-1.776v.912h1.776v1.92zm-.5 1.524a5.531 5.531 0 0 1 -1.776 1.3 5.162 5.162 0 0 1 -1.74-1.3zm.936-.936-.2.036h-6.62v.9h1.836l-.54.2a6.388 6.388 0 0 0 1.656 1.548 16.731 16.731 0 0 1 -3.432.66 3.421 3.421 0 0 1 .468.936 15.753 15.753 0 0 0 4.08-.984 13.58 13.58 0 0 0 3.8 1 3.974 3.974 0 0 1 .648-.96 15.778 15.778 0 0 1 -3.252-.636 5.788 5.788 0 0 0 2.236-2.328z" transform="translate(120.99 73.857)"/></g><path d="m121.49 109.711h139" fill="none" stroke="#a21b43"/><g fill="#a21b43" transform="translate(-9.245 35.654)"><path d="m89.954 374.168h-.008l-1.359.458z" transform="translate(-62.267 -311.789)"/><path d="m87.415 40.726c11.538-17.21 8.076-31.726-2.596-37.786-10.019-5.687-15.825-.524-22.211 1.213-8.076-5.4-19.373-6.041-33.458 1.093-6.923-.287-15.288 6.635-13.85 13.267a17.733 17.733 0 0 0 3.276 6.461c0 .13-.014.262-.014.389a10.92 10.92 0 0 0 .123 1.637 26.78 26.78 0 0 1 .356 3.976c0 .159-.006.311-.01.465a13.384 13.384 0 0 1 -5.17.919 10.823 10.823 0 0 0 4.717 1.927 9.794 9.794 0 0 1 -.386 1.02 17.911 17.911 0 0 1 -3.012 4.372 5.448 5.448 0 0 0 -.914 1.392 3.618 3.618 0 0 0 -.322 1.469 3.335 3.335 0 0 0 .385 1.549 4.641 4.641 0 0 0 1.248 1.458 9.884 9.884 0 0 0 1.081.732 1.232 1.232 0 0 1 .243.428 2.242 2.242 0 0 1 .146.768 1.108 1.108 0 0 1 -.047.335l-.028.065v.007-.006a3.04 3.04 0 0 0 -.57.77 2.235 2.235 0 0 0 -.251 1.016 2.2 2.2 0 0 0 .3 1.088 3.344 3.344 0 0 0 .788.9c.066.054.126.1.189.148l-.065.178c-.054.148-.116.317-.169.519a2.761 2.761 0 0 0 -.106.736 2.02 2.02 0 0 0 .2.888 1.938 1.938 0 0 0 .7.791l.062.04-.057-.036a1.371 1.371 0 0 1 .585.649 2.547 2.547 0 0 1 .146.977c0 .519-.077 1.143-.083 1.85a5.279 5.279 0 0 0 .04.676 4.724 4.724 0 0 0 .359 1.317 4.35 4.35 0 0 0 1.63 1.924 5.593 5.593 0 0 0 3.07.81 12.493 12.493 0 0 0 3.937-.747h.01a9.959 9.959 0 0 1 3.172-.578 6.051 6.051 0 0 1 3.251.895 7.929 7.929 0 0 1 1.93 1.723 16.649 16.649 0 0 1 2.319 3.952 44.186 44.186 0 0 1 1.716 4.8 9.539 9.539 0 0 1 -1.128 8.124 10.886 10.886 0 0 1 -1.086 1.454c-.145.166-.264.287-.344.364l-.084.083-.013.011.585.652 1.335 1.5a12.511 12.511 0 0 0 2.054-2.535 12.43 12.43 0 0 0 1.443-10.5 31.712 31.712 0 0 0 -3.856-8.8 11.539 11.539 0 0 0 -3.357-3.281 8.942 8.942 0 0 0 -4.761-1.321 12.849 12.849 0 0 0 -4.095.73 9.658 9.658 0 0 1 -3.026.6 3.282 3.282 0 0 1 -1.168-.18 1.491 1.491 0 0 1 -.757-.58 1.81 1.81 0 0 1 -.275-.765 3.155 3.155 0 0 1 -.015-.317c-.006-.435.079-1.088.083-1.85a5.358 5.358 0 0 0 -.371-2.089 4.132 4.132 0 0 0 -1.139-1.562c.019-.05.036-.1.058-.153.054-.15.113-.322.169-.525a2.9 2.9 0 0 0 .1-.739 2.081 2.081 0 0 0 -.17-.838 1.939 1.939 0 0 0 -.624-.786c-.128-.1-.243-.179-.345-.257a3.129 3.129 0 0 0 .458-.89 4.011 4.011 0 0 0 .189-1.238 5.126 5.126 0 0 0 -.426-2.018 4.251 4.251 0 0 0 -.518-.886 3.022 3.022 0 0 0 -.827-.754c-.17-.1-.351-.211-.527-.333a2.955 2.955 0 0 1 -.645-.569.952.952 0 0 1 -.132-.221.389.389 0 0 1 -.029-.153.729.729 0 0 1 .077-.306 2.677 2.677 0 0 1 .445-.654 20.611 20.611 0 0 0 3.478-5.1 13.108 13.108 0 0 0 1.1-5.5c0-.711-.043-1.451-.117-2.229a47.011 47.011 0 0 0 3.878 3.614s-1.153-9.807 1.443-11.825c0 0 10.1 19.324 19.326 17.6l6.339 5.468s1.443-9.23 5.771-10.094 4.037 7.212-1.154 13.845v8.606a21 21 0 0 0 -1.127 2.155 5.347 5.347 0 0 0 -.358 1.269 9.884 9.884 0 0 0 -.121 1.611 22.262 22.262 0 0 0 2.927 10.108 20.351 20.351 0 0 0 5.032 6.027 20.132 20.132 0 0 0 2.961 2.065l1.128-2.087.246-.45a17.718 17.718 0 0 1 -2.562-1.81 17.469 17.469 0 0 1 -4.252-5.1 19.461 19.461 0 0 1 -2.591-8.753 7.147 7.147 0 0 1 .083-1.139 2.491 2.491 0 0 1 .151-.573 31.015 31.015 0 0 1 3.237-5.24c2.112-2.921 4.777-6.215 7.148-9.788a35.132 35.132 0 0 0 5.371-11.592 24.466 24.466 0 0 0 .555-5.263 26.672 26.672 0 0 0 -4.685-15.165c4.759 1.033 10.85 4.3 7.626 14.544-3.269 10.383-11.536 25-4.327 35.285 6.026 8.6 15.575 5.771 15.575 5.771-4.328-5.194-11.378-13.157-2.019-27.114z"/></g></svg>