<svg height="239.352" viewBox="0 0 255.516 239.352" width="255.516" xmlns="http://www.w3.org/2000/svg"><path d="m13.37-5.1h-5.5v-4.238h4.69v-1.652h-11.146v1.652h4.718v4.238h-5.446v1.7h5.446v4.62h1.736v-4.62h5.5zm-11.102-3.342a14.04 14.04 0 0 1 1.022 2.912l1.624-.5a12.771 12.771 0 0 0 -1.12-2.86zm8.176 2.884a27.392 27.392 0 0 0 1.54-2.926l-1.778-.448a16.589 16.589 0 0 1 -1.218 2.954zm15.078 1.372c-1.82.658-3.752 1.33-4.984 1.708l.662 1.568c1.33-.532 3.038-1.218 4.606-1.876zm-2.506-5.446a16.438 16.438 0 0 0 .644-1.876l-1.694-.378a12.612 12.612 0 0 1 -1.766 3.962v-.812h-1.314v-2.954h-1.61v2.954h-1.5v1.568h1.5v3.85c-.672.252-1.3.476-1.806.644l.588 1.694c1.33-.56 3.038-1.288 4.606-1.988l-.364-1.54c-.462.2-.938.378-1.414.574v-3.234h.714l-.154.154a10.233 10.233 0 0 1 1.428 1.064c.14-.154.266-.322.406-.5v1.162h4.088v-1.488h-3.85c.266-.392.518-.812.77-1.274h4.438c-.154 4.914-.35 6.944-.756 7.378a.635.635 0 0 1 -.57.252c-.364 0-1.106 0-1.918-.07a4.036 4.036 0 0 1 .56 1.694 12.536 12.536 0 0 0 2.114-.042 1.741 1.741 0 0 0 1.312-.784c.56-.742.756-2.982.938-9.212 0-.224.014-.8.014-.8zm11.55 2.716a17.834 17.834 0 0 1 -.434 2.128 14.072 14.072 0 0 0 -1.246-.966c.154-.364.294-.756.42-1.162zm.686-1.526-.266.042h-1.274c.1-.406.2-.84.266-1.26h2.352v-1.512h-5.4v1.512h1.456a12.355 12.355 0 0 1 -1.936 5.054 13.808 13.808 0 0 1 1.25 1.078 6.556 6.556 0 0 0 .546-.868 11.269 11.269 0 0 1 1.33 1.218 7.686 7.686 0 0 1 -2.454 3.248 5.576 5.576 0 0 1 1.148 1.148c2.058-1.61 3.444-4.8 3.934-9.394zm6.86 3.766a7.717 7.717 0 0 1 -1.358 1.54c-.112-.42-.21-.868-.308-1.358zm.308-.024 1.162-.126-.112-1.3-3.248.322c-.028-.224-.056-.476-.1-.714l2.87-.266-.126-1.274-2.884.252c-.014-.238-.042-.476-.056-.714l3.206-.28-.112-1.316-.8.07.756-.8a7.017 7.017 0 0 0 -1.834-1.176l-.91.924a8.725 8.725 0 0 1 1.582 1.078l-1.96.168c-.028-.686-.042-1.372-.028-2.058h-1.648c0 .728.028 1.456.056 2.2l-2.044.168.11 1.342 2.016-.182c.014.252.028.49.056.728l-1.79.154.126 1.3 1.806-.168c.028.238.056.49.1.728l-2.396.24.14 1.344 2.464-.266a17.674 17.674 0 0 0 .56 2.254 12.746 12.746 0 0 1 -3.976 1.718 6.3 6.3 0 0 1 .9 1.386 15.343 15.343 0 0 0 3.622-1.722c.56 1.134 1.288 1.834 2.184 1.834 1.12 0 1.554-.49 1.82-2.268a3.824 3.824 0 0 1 -1.162-.91c-.07 1.19-.21 1.582-.476 1.582-.364 0-.728-.448-1.05-1.2a10.62 10.62 0 0 0 2.17-2.352zm11.662-3.518c-.154.378-.322.784-.49 1.12h-2.618l.238-.042a6.9 6.9 0 0 0 -.476-1.078zm4.518 6.244v-1.372h-5.442v-.616h4.2v-1.2h-4.2v-.638h4.858v-1.3h-2.744c.21-.336.434-.714.658-1.12h2.632v-1.356h-1.82c.322-.49.7-1.12 1.092-1.764l-1.75-.42a11.277 11.277 0 0 1 -.884 2.03l.5.154h-1.24v-2.282h-1.568v2.282h-1.036v-2.282h-1.556v2.282h-1.272l.686-.252a10.594 10.594 0 0 0 -1.064-1.972l-1.428.49a12.549 12.549 0 0 1 .868 1.736h-1.876v1.358h2.926l-.168.028a6.291 6.291 0 0 1 .476 1.088h-2.66v1.3h4.732v.63h-4.032v1.2h4.032v.616h-5.348v1.372h4.018a14.708 14.708 0 0 1 -4.424 1.646 7.766 7.766 0 0 1 1.064 1.386 13.28 13.28 0 0 0 4.69-2.268v2.436h1.638v-2.518a11.95 11.95 0 0 0 4.7 2.366 7.831 7.831 0 0 1 1.12-1.512 12.507 12.507 0 0 1 -4.438-1.526zm5.618-7.546v2.464h-1.288v-2.464zm-1.288 6.552v-2.632h1.288v2.632zm2.842-8.032h-4.382v10.748h1.54v-1.232h2.842zm.828 8.34a9.849 9.849 0 0 1 1.6 2.352l1.428-.826a9.66 9.66 0 0 0 -1.694-2.3zm7.4-3.584v-1.456h-3.188v-1.232h2.8v-1.456h-2.8v-1.47h-1.638v1.47h-2.688v1.456h2.688v1.232h-3.164v1.456h4.942v1.2h-4.914v1.444h4.914v3.01c0 .2-.07.252-.294.252s-.994 0-1.666-.028a5.615 5.615 0 0 1 .532 1.566 6.2 6.2 0 0 0 2.338-.28c.546-.252.7-.672.7-1.47v-3.05h1.344v-1.44h-1.344v-1.2zm6.538-3.878v.742h-2.152v-.742zm-2.156 2.66v-.8h2.156v.8zm3.71 1.19v-5.054h-5.358v12.544h1.652v-7.49zm2.548-1.162v-.826h2.23v.826zm2.226-2.688v.742h-2.222v-.742zm-5.456 8.822v-.87h2.31v.87zm2.31-2.9v.84h-2.31v-.84zm4.83-7.126h-5.488v5.082h3.808v5.474c0 .224-.084.308-.336.308-.182.014-.7.014-1.246 0v-4.97h-5.388v6.062h1.51v-.714h3.472a6.165 6.165 0 0 1 .364 1.3 6.049 6.049 0 0 0 2.562-.316c.56-.266.742-.756.742-1.652z" transform="translate(82.32 12.025)"/><g fill="#a21b43"><path d="m-72.852-64.746h-13.037l6.25-10.645h18.164v75.391h-11.377zm48.975 67.334-8.35-6.2 18.018-24.561q-1.465.2-2.49.293t-1.66.1a21.194 21.194 0 0 1 -15.82-6.982 23.276 23.276 0 0 1 -6.641-16.7 24.224 24.224 0 0 1 7.373-17.773 24.248 24.248 0 0 1 17.773-7.425 25.01 25.01 0 0 1 17.92 7.324 23 23 0 0 1 7.617 17.188q0 8.789-7.422 18.994zm-5.859-54.883a13.93 13.93 0 0 0 4.15 10.254 13.779 13.779 0 0 0 10.107 4.2 13.7 13.7 0 0 0 10.059-4.151 13.779 13.779 0 0 0 4.199-10.108 13.779 13.779 0 0 0 -4.2-10.107 13.756 13.756 0 0 0 -10.107-4.15 13.641 13.641 0 0 0 -10.01 4.15 13.556 13.556 0 0 0 -4.198 9.912zm53.759 46.826a6.475 6.475 0 0 1 2-4.736 6.53 6.53 0 0 1 4.785-2 6.53 6.53 0 0 1 4.785 2 6.53 6.53 0 0 1 2 4.785 6.587 6.587 0 0 1 -2 4.834 6.507 6.507 0 0 1 -4.785 1.953 6.566 6.566 0 0 1 -4.831-1.953 6.625 6.625 0 0 1 -1.954-4.883zm41.309-59.277h-13.037l6.25-10.645h18.164v75.391h-11.377z" transform="translate(103.32 109.379)"/><path d="m10.84-25.9h-5.215l2.5-4.258h7.266v30.158h-4.551zm26.035-5.312 3.34 2.5-7.207 9.8q.586-.078 1-.117t.645-.039a8.471 8.471 0 0 1 6.347 2.818 9.311 9.311 0 0 1 2.656 6.68 9.7 9.7 0 0 1 -2.969 7.109 9.667 9.667 0 0 1 -7.093 2.949 10.15 10.15 0 0 1 -7.187-2.91 9.247 9.247 0 0 1 -3.027-6.895 12.978 12.978 0 0 1 2.949-7.578zm2.344 21.935a5.525 5.525 0 0 0 -1.66-4.062 5.511 5.511 0 0 0 -4.043-1.68 5.5 5.5 0 0 0 -4.043 1.66 5.479 5.479 0 0 0 -1.66 4.023 5.479 5.479 0 0 0 1.66 4.023 5.525 5.525 0 0 0 4.063 1.66 5.457 5.457 0 0 0 4-1.66 5.422 5.422 0 0 0 1.683-3.964z" transform="translate(35.32 198.379)"/><path d="m-12.121-20.119v3.72h-3.844a21.207 21.207 0 0 1 -3.193-.186v2.418a23.951 23.951 0 0 1 3.193-.186h8.339v3.379h-8.339a19.838 19.838 0 0 1 -3.193-.186v2.48a24.461 24.461 0 0 1 3.158-.186h8.37v8c0 .682-.186.806-1.4.806a22.3 22.3 0 0 1 -3.432-.34 6.932 6.932 0 0 1 .527 2.387c2.015.093 2.232.093 2.728.093 3.131-.003 3.907-.53 3.907-2.731v-8.215h.775a19.617 19.617 0 0 1 3.007.186v-2.48a18.014 18.014 0 0 1 -3.007.186h-.775v-3.379h.837a19.617 19.617 0 0 1 3.007.186v-2.418a20.925 20.925 0 0 1 -3.194.185h-5.115v-3.72h4.123a25.766 25.766 0 0 1 2.976.155v-2.387a19.617 19.617 0 0 1 -3.007.186h-4.092v-.961a14.07 14.07 0 0 1 .186-2.449h-2.728a14.848 14.848 0 0 1 .186 2.449v.961h-3.131a19.617 19.617 0 0 1 -3.007-.186v2.387a28.422 28.422 0 0 1 3.069-.155zm-16.027 16.864a26.161 26.161 0 0 1 -.186 3.41h2.356v-2.573h3.72v1.581h2.294c-.062-.682-.093-1.488-.093-3.038v-17.2a22.429 22.429 0 0 1 .093-3.038 26.745 26.745 0 0 1 -2.759.093h-2.728a26.36 26.36 0 0 1 -2.821-.093 26.6 26.6 0 0 1 .124 3.007zm2.2-18.693h3.689v7.348h-3.689zm0 9.362h3.689v8.06h-3.689zm14.788 9.672a30.977 30.977 0 0 0 -4.34-4.986l-1.829 1.3a28.581 28.581 0 0 1 4.216 5.146zm16.368-12.121h5.642c1.24 0 2.2.031 3.069.093-.062-.806-.093-1.55-.093-2.821v-4.123c0-1.209.031-2.015.093-2.945a27.2 27.2 0 0 1 -3.162.124h-4.743a28.424 28.424 0 0 1 -3.224-.124c.093.992.124 1.891.124 3.441v20.057a24.542 24.542 0 0 1 -.186 3.6h2.666a23.483 23.483 0 0 1 -.186-3.567zm0-7.874h6.479v2.17h-6.479zm0 3.937h6.479v2.2h-6.479zm22.971-2.449a29.662 29.662 0 0 1 .155-3.41 28.694 28.694 0 0 1 -3.255.124h-5.363a27.2 27.2 0 0 1 -3.162-.124c.062.93.093 1.86.093 2.945v4.123c0 1.178-.031 1.953-.093 2.821.806-.062 1.86-.093 3.069-.093h6.293v13.857c0 .713-.248.868-1.488.868-.651 0-1.922-.124-3.41-.31a8.651 8.651 0 0 1 .651 2.387c.62.031 2.356.093 3.007.093 2.79 0 3.5-.589 3.5-2.821zm-9.393-1.488h7.13v2.17h-7.13zm0 3.937h7.13v2.2h-7.13zm2.6 9.083c0-1.178.031-2.015.093-2.852a26.6 26.6 0 0 1 -3.007.124h-6.01a27.208 27.208 0 0 1 -3.038-.124c.062.9.093 1.767.093 2.852v7.1a20.269 20.269 0 0 1 -.155 2.975h2.325v-2.046h6.7c1.3 0 2.139.031 3.1.093-.062-.806-.093-1.612-.093-2.79zm-9.7-.868h7.564v2.48h-7.563zm0 4.34h7.564v2.7h-7.563z" transform="translate(223.32 93.379)"/><path d="m-6.256-10.384v1.92h-1.984a10.945 10.945 0 0 1 -1.648-.1v1.248a12.362 12.362 0 0 1 1.648-.1h4.3v1.744h-4.3a10.239 10.239 0 0 1 -1.648-.1v1.28a12.625 12.625 0 0 1 1.632-.1h4.32v4.144c0 .352-.1.416-.72.416a11.507 11.507 0 0 1 -1.776-.176 3.578 3.578 0 0 1 .272 1.232c1.04.048 1.152.048 1.408.048 1.616 0 2.016-.272 2.016-1.408v-4.24h.4a10.125 10.125 0 0 1 1.552.1v-1.284a9.3 9.3 0 0 1 -1.552.1h-.4v-1.748h.436a10.125 10.125 0 0 1 1.552.1v-1.252a10.8 10.8 0 0 1 -1.648.1h-2.644v-1.92h2.128a13.3 13.3 0 0 1 1.536.08v-1.232a10.125 10.125 0 0 1 -1.552.1h-2.112v-.5a7.262 7.262 0 0 1 .1-1.264h-1.412a7.664 7.664 0 0 1 .1 1.264v.5h-1.62a10.125 10.125 0 0 1 -1.552-.1v1.232a14.669 14.669 0 0 1 1.584-.08zm-8.272 8.7a13.5 13.5 0 0 1 -.1 1.76h1.216v-1.324h1.92v.816h1.192c-.032-.352-.048-.768-.048-1.568v-8.88a11.576 11.576 0 0 1 .048-1.568 13.8 13.8 0 0 1 -1.424.048h-1.408a13.605 13.605 0 0 1 -1.456-.048 13.731 13.731 0 0 1 .064 1.552zm1.136-9.648h1.9v3.792h-1.9zm0 4.832h1.9v4.16h-1.9zm7.632 5a15.988 15.988 0 0 0 -2.24-2.58l-.944.672a14.752 14.752 0 0 1 2.176 2.656zm8.448-6.26h2.912c.64 0 1.136.016 1.584.048-.032-.416-.048-.8-.048-1.456v-2.132c0-.624.016-1.04.048-1.52a14.039 14.039 0 0 1 -1.632.064h-2.452a14.67 14.67 0 0 1 -1.664-.064c.048.512.064.976.064 1.776v10.356a12.667 12.667 0 0 1 -.1 1.856h1.384a12.12 12.12 0 0 1 -.1-1.84zm0-4.064h3.344v1.12h-3.344zm0 2.032h3.344v1.136h-3.344zm11.856-1.264a15.31 15.31 0 0 1 .08-1.76 14.81 14.81 0 0 1 -1.68.064h-2.768a14.039 14.039 0 0 1 -1.632-.064c.032.48.048.96.048 1.52v2.128c0 .608-.016 1.008-.048 1.456.416-.032.96-.048 1.584-.048h3.248v7.152c0 .368-.128.448-.768.448-.336 0-.992-.064-1.76-.16a4.465 4.465 0 0 1 .336 1.232c.316.016 1.216.048 1.552.048 1.44 0 1.808-.3 1.808-1.456zm-4.844-.768h3.68v1.12h-3.68zm0 2.032h3.68v1.136h-3.68zm1.34 4.692c0-.608.016-1.04.048-1.472a13.731 13.731 0 0 1 -1.552.064h-3.1a14.043 14.043 0 0 1 -1.568-.064c.032.464.048.912.048 1.472v3.66a10.461 10.461 0 0 1 -.084 1.54h1.2v-1.06h3.456c.672 0 1.1.016 1.6.048-.032-.416-.048-.832-.048-1.44zm-5.008-.452h3.9v1.28h-3.9zm0 2.24h3.9v1.392h-3.9z" transform="translate(101.32 197.379)"/><path d="m-28.152 0h5.7v-1.176h-2.208c-.432 0-.984.036-1.44.084 1.872-1.788 3.228-3.552 3.228-5.256a2.5 2.5 0 0 0 -2.664-2.652 3.429 3.429 0 0 0 -2.688 1.32l.78.768a2.4 2.4 0 0 1 1.744-.988 1.434 1.434 0 0 1 1.5 1.62c0 1.452-1.344 3.168-3.948 5.472zm10.932.156c1.728 0 2.856-1.536 2.856-4.608 0-3.048-1.128-4.548-2.856-4.548s-2.856 1.488-2.856 4.548 1.128 4.608 2.856 4.608zm0-1.092c-.9 0-1.536-.96-1.536-3.516 0-2.532.636-3.456 1.536-3.456s1.536.924 1.536 3.456c0 2.552-.636 3.516-1.536 3.516zm5.652.936h5.04v-1.14h-1.728v-7.7h-1.044a5.194 5.194 0 0 1 -1.92.684v.876h1.584v6.14h-1.932zm8.808-6.1c0-1.152.6-1.836 1.356-1.836.96 0 1.62.792 1.752 2.532a2.1 2.1 0 0 1 -1.68 1.08c-.924.004-1.428-.644-1.428-1.776zm1.116 6.256c1.7 0 3.288-1.392 3.288-4.872 0-2.928-1.368-4.284-3.06-4.284a2.7 2.7 0 0 0 -2.628 2.9c0 1.848 1 2.772 2.472 2.772a2.655 2.655 0 0 0 1.944-1.028c-.084 2.52-1.008 3.384-2.072 3.384a1.963 1.963 0 0 1 -1.44-.66l-.76.852a3.031 3.031 0 0 0 2.256.936zm8.76-2.94v-2.124h2.412v2.124zm7.776 0h-4.212v-2.124h3.348v-1.044h-3.348v-1.656h3.62v-1.08h-6.944c.156-.36.324-.756.468-1.128l-1.128-.3a9.709 9.709 0 0 1 -2.616 4.068 8.874 8.874 0 0 1 .972.72 10.917 10.917 0 0 0 1.728-2.28h2.748v1.656h-3.528v3.168h-1.932v1.084h5.46v2.648h1.152v-2.648h4.212zm4.308-5.16h8.784v-1h-4.368v-1.128h-1.164v1.132h-4.32v3.384c0 1.74-.084 4.176-1.056 5.88a5.051 5.051 0 0 1 .912.612c1.044-1.824 1.212-4.608 1.212-6.492zm5.772 2.112v1.056h-2.592v-1.056zm1.092 1.92v-1.92h1.836v-.912h-1.836v-.912h-1.092v.912h-2.592v-.912h-1.056v.912h-1.776v.912h1.776v1.92zm-.5 1.524a5.531 5.531 0 0 1 -1.776 1.3 5.162 5.162 0 0 1 -1.74-1.3zm.936-.936-.2.036h-6.62v.9h1.836l-.54.2a6.388 6.388 0 0 0 1.656 1.552 16.731 16.731 0 0 1 -3.432.66 3.421 3.421 0 0 1 .468.936 15.753 15.753 0 0 0 4.08-.984 13.58 13.58 0 0 0 3.8 1 3.974 3.974 0 0 1 .652-.964 15.778 15.778 0 0 1 -3.252-.636 5.788 5.788 0 0 0 2.232-2.328z" transform="translate(223.32 111.025)"/><path d="m.528 0h5.7v-1.176h-2.208c-.432 0-.984.036-1.44.084 1.872-1.788 3.228-3.552 3.228-5.256a2.5 2.5 0 0 0 -2.664-2.652 3.429 3.429 0 0 0 -2.688 1.32l.78.768a2.4 2.4 0 0 1 1.74-.988 1.434 1.434 0 0 1 1.5 1.62c0 1.456-1.344 3.172-3.948 5.48zm10.932.156c1.728 0 2.856-1.536 2.856-4.608 0-3.048-1.128-4.548-2.856-4.548s-2.86 1.488-2.86 4.548 1.132 4.608 2.86 4.608zm0-1.092c-.9 0-1.536-.96-1.536-3.516 0-2.532.636-3.456 1.536-3.456s1.54.924 1.54 3.456c0 2.552-.64 3.516-1.54 3.516zm5.148.936h5.7v-1.176h-2.208c-.432 0-.984.036-1.44.084 1.872-1.788 3.228-3.552 3.228-5.256a2.5 2.5 0 0 0 -2.664-2.652 3.429 3.429 0 0 0 -2.688 1.32l.78.768a2.4 2.4 0 0 1 1.74-.984 1.434 1.434 0 0 1 1.5 1.62c0 1.452-1.344 3.168-3.948 5.472zm10.728.156c1.62 0 2.952-.936 2.952-2.532a2.236 2.236 0 0 0 -1.824-2.208v-.06a2.135 2.135 0 0 0 1.524-2.076c0-1.452-1.116-2.28-2.7-2.28a3.722 3.722 0 0 0 -2.532 1.068l.72.864a2.572 2.572 0 0 1 1.764-.832 1.227 1.227 0 0 1 1.36 1.276c0 .888-.576 1.548-2.316 1.548v1.02c1.992 0 2.616.636 2.616 1.608a1.485 1.485 0 0 1 -1.68 1.476 2.854 2.854 0 0 1 -2.088-.972l-.672.888a3.666 3.666 0 0 0 2.876 1.212zm-23.7 15.06v-2.124h2.412v2.124zm7.776 0h-4.212v-2.124h3.348v-1.044h-3.348v-1.656h3.624v-1.08h-6.948c.156-.36.324-.756.468-1.128l-1.128-.3a9.709 9.709 0 0 1 -2.616 4.068 8.874 8.874 0 0 1 .972.72 10.917 10.917 0 0 0 1.728-2.28h2.748v1.656h-3.528v3.168h-1.932v1.084h5.46v2.652h1.152v-2.652h4.212zm4.308-5.16h8.78v-1h-4.364v-1.124h-1.164v1.128h-4.32v3.384c0 1.74-.084 4.176-1.056 5.88a5.051 5.051 0 0 1 .912.612c1.044-1.824 1.212-4.608 1.212-6.492zm5.772 2.112v1.056h-2.592v-1.056zm1.092 1.92v-1.92h1.836v-.912h-1.836v-.912h-1.092v.912h-2.592v-.912h-1.056v.912h-1.776v.912h1.776v1.92zm-.5 1.524a5.531 5.531 0 0 1 -1.776 1.3 5.162 5.162 0 0 1 -1.74-1.3zm.936-.936-.2.036h-6.62v.9h1.836l-.54.2a6.388 6.388 0 0 0 1.656 1.548 16.731 16.731 0 0 1 -3.432.66 3.421 3.421 0 0 1 .468.936 15.753 15.753 0 0 0 4.08-.984 13.58 13.58 0 0 0 3.8 1 3.974 3.974 0 0 1 .648-.96 15.778 15.778 0 0 1 -3.252-.636 5.788 5.788 0 0 0 2.236-2.328z" transform="translate(.32 179.025)"/></g><path d="m.82 140.879h145" fill="none" stroke="#a21b43"/><g fill="#a21b43" transform="translate(187.82 142.631)"><path d="m87 198.42a1.057 1.057 0 0 0 .306.051 1 1 0 0 0 .969-.714 1.021 1.021 0 0 0 -.652-1.284 1.035 1.035 0 0 0 -1.285.663 1.018 1.018 0 0 0 .662 1.284z" transform="translate(-75.291 -171.396)"/><path d="m148.427 113.3a1.05 1.05 0 0 0 .612-.2h-.01a1.014 1.014 0 0 0 .224-1.418 1.027 1.027 0 0 0 -1.428-.224 1.014 1.014 0 0 0 -.214 1.428 1 1 0 0 0 .816.414z" transform="translate(-128.624 -97.08)"/><path d="m247.937 80.258h.01a1.02 1.02 0 0 0 -.01-2.039 1.032 1.032 0 0 0 -1.02 1.03 1.02 1.02 0 0 0 1.02 1.009z" transform="translate(-215.452 -68.251)"/><path d="m347.879 112.094a1.016 1.016 0 0 0 .825-.428 1.016 1.016 0 1 0 -1.417.234.993.993 0 0 0 .592.194z" transform="translate(-302.66 -96.029)"/><path d="m87.58 301.318a1 1 0 0 0 -.642 1.284h-.01a1.029 1.029 0 0 0 .979.7.888.888 0 0 0 .316-.052 1.02 1.02 0 0 0 -.642-1.937z" transform="translate(-75.81 -262.875)"/><path d="m149.054 386.192a1.028 1.028 0 0 0 .235 1.428 1.06 1.06 0 0 0 .591.183 1.035 1.035 0 0 0 .835-.418 1.023 1.023 0 0 0 -1.662-1.193z" transform="translate(-129.893 -336.606)"/><path d="m410.9 299.88a1.018 1.018 0 0 0 -1.284.663 1.007 1.007 0 0 0 .663 1.274.822.822 0 0 0 .316.051 1.017 1.017 0 0 0 .306-1.988z" transform="translate(-357.374 -261.621)"/><path d="m410.048 196.574a1.225 1.225 0 0 0 .316-.051 1.037 1.037 0 0 0 .653-1.3l-.031-.061v-.011a1.021 1.021 0 0 0 -1.937.643.134.134 0 0 1 .021.061c.01 0 .01 0 .01.01a1.017 1.017 0 0 0 .968.709z" transform="translate(-356.876 -169.682)"/><path d="m348.743 385.1a1.016 1.016 0 0 0 -.224 1.428 1.033 1.033 0 0 0 .825.418.989.989 0 0 0 .591-.2 1.015 1.015 0 1 0 -1.193-1.642z" transform="translate(-303.931 -335.853)"/><path d="m249.769 417.742a1.02 1.02 0 0 0 .011 2.039 1.02 1.02 0 1 0 -.011-2.039z" transform="translate(-217.059 -364.506)"/><path d="m32.624 0a32.624 32.624 0 1 0 32.624 32.624 32.661 32.661 0 0 0 -32.624-32.624zm0 57.48a24.856 24.856 0 1 1 24.856-24.856 24.884 24.884 0 0 1 -24.856 24.856z"/><path d="m240.338 130.672h-5.33v20.336h17.671v-5.33h-12.341z" transform="translate(-205.059 -114.02)"/></g><path d="m6.9-7.98a.907.907 0 0 0 -.9-.9.907.907 0 0 0 -.9.9.907.907 0 0 0 .9.9.907.907 0 0 0 .9-.9zm-4.86-.888-.348.348 3.96 3.96-3.972 3.972.348.348 3.972-3.972 3.96 3.96.348-.348-3.96-3.96 3.96-3.96-.348-.348-3.96 3.96zm.54 3.408a.907.907 0 0 0 -.9.9.907.907 0 0 0 .9.9.907.907 0 0 0 .9-.9.907.907 0 0 0 -.9-.9zm6.84 1.8a.907.907 0 0 0 .9-.9.907.907 0 0 0 -.9-.9.907.907 0 0 0 -.9.9.907.907 0 0 0 .9.9zm-4.32 2.52a.907.907 0 0 0 .9.9.907.907 0 0 0 .9-.9.907.907 0 0 0 -.9-.9.907.907 0 0 0 -.9.9zm18.552-8.028a6.127 6.127 0 0 0 -1.764-1l-.48.516a6.241 6.241 0 0 1 1.728 1.056zm-6.684 2.928a15.332 15.332 0 0 1 -.564 2.5 10.815 10.815 0 0 0 -1.572-1.14 13.84 13.84 0 0 0 .516-1.356zm.384-.84-.156.036h-1.608c.132-.528.264-1.068.36-1.632h2.268v-.816h-4.632v.816h1.5a11.278 11.278 0 0 1 -1.812 4.764 4.74 4.74 0 0 1 .684.588 7.562 7.562 0 0 0 .54-.864 11.5 11.5 0 0 1 1.604 1.308 7.243 7.243 0 0 1 -2.36 3.192 2.85 2.85 0 0 1 .636.624c1.764-1.344 3.036-3.936 3.492-7.848zm5.916 3.168a7.676 7.676 0 0 1 -1.568 1.776 15.722 15.722 0 0 1 -.432-1.692l3.084-.324-.084-.732-3.132.324c-.06-.372-.12-.744-.168-1.14l2.868-.288-.088-.712-2.856.276c-.036-.348-.072-.72-.1-1.092l3.192-.276-.044-.728-3.18.276c-.024-.6-.036-1.212-.036-1.848h-.876c.012.648.024 1.3.06 1.932l-1.836.16.06.732 1.824-.156c.024.372.048.732.084 1.092l-1.68.168.072.72 1.692-.168c.036.4.1.768.156 1.14l-2.22.228.072.744 2.28-.24a14.748 14.748 0 0 0 .576 2.16 11.222 11.222 0 0 1 -3.488 1.64 2.718 2.718 0 0 1 .5.74 12.128 12.128 0 0 0 3.3-1.64c.5 1.068 1.164 1.7 1.992 1.7s1.092-.44 1.248-1.94a1.937 1.937 0 0 1 -.636-.468c-.072 1.188-.204 1.572-.54 1.572-.516 0-.972-.5-1.368-1.392a9.426 9.426 0 0 0 1.92-2.088zm10.44-3.24a10.97 10.97 0 0 1 -.608 1.252l.12.036h-2.82l.384-.084a4.663 4.663 0 0 0 -.6-1.2zm3.444 5.22v-.756h-4.812v-.888h3.76v-.684h-3.76v-.876h4.344v-.732h-2.724c.24-.36.5-.828.744-1.284h2.4v-.768h-1.86a16.779 16.779 0 0 0 1.056-1.728l-.912-.24a13.614 13.614 0 0 1 -.912 1.824l.444.144h-1.452v-2.124h-.84v2.124h-1.428v-2.124h-.828v2.124h-1.472l.612-.228a8.271 8.271 0 0 0 -1.02-1.764l-.756.252a9.354 9.354 0 0 1 .948 1.74h-1.912v.768h2.928l-.42.084a5.039 5.039 0 0 1 .588 1.2h-2.616v.732h4.212v.876h-3.612v.684h3.612v.888h-4.74v.756h3.924a11.565 11.565 0 0 1 -4.236 1.9 3.822 3.822 0 0 1 .576.756 12.059 12.059 0 0 0 4.476-2.364v2.552h.876v-2.612a11.328 11.328 0 0 0 4.512 2.456 3.209 3.209 0 0 1 .6-.792 10.979 10.979 0 0 1 -4.284-1.9zm5.248-6.516v2.664h-1.74v-2.664zm-1.74 6.216v-2.768h1.74v2.772zm2.58-7.02h-3.4v8.8h.816v-.972h2.58zm.984 6.72a9.256 9.256 0 0 1 1.52 2.112l.756-.48a8.484 8.484 0 0 0 -1.56-2.04zm6.192-2.976v-.792h-3.1v-1.524h2.584v-.792h-2.58v-1.428h-.88v1.428h-2.5v.792h2.5v1.524h-3.012v.792h4.6v1.356h-4.54v.792h4.536v3.2c0 .18-.06.228-.264.24s-.852.012-1.6-.012a2.725 2.725 0 0 1 .292.832 6.866 6.866 0 0 0 1.948-.144c.36-.132.492-.4.492-.9v-3.216h1.388v-.792h-1.392v-1.356zm6.024-3.324v1h-2.596v-1zm-2.596 2.712v-1.056h2.592v1.056zm3.444.684v-4.092h-4.332v10.452h.888v-6.36zm1.932 1.584v1.116h-2.82v-1.116zm-2.82 2.952v-1.164h2.82v1.164zm3.648.708v-4.344h-4.448v4.944h.8v-.6zm-.84-5.916v-1.068h2.692v1.068zm2.692-2.724v1h-2.692v-1zm.9-.7h-4.44v4.1h3.54v5.156c0 .216-.072.288-.276.288s-.952.024-1.684-.012a3.287 3.287 0 0 1 .312.912 6.83 6.83 0 0 0 2.016-.156c.396-.156.532-.456.532-1.02zm3.648 3.18v.828h8.712v-.828zm0 3.54h8.712v-.828h-8.716zm15.284-5.912a8.81 8.81 0 0 0 -2.352-1.236l-.48.66a9.575 9.575 0 0 1 2.328 1.308zm-.624 3.132a10.173 10.173 0 0 0 -2.376-1.1l-.468.684a10.086 10.086 0 0 1 2.364 1.176zm-.276 1.932a36.1 36.1 0 0 1 -2.148 3.852l.756.576c.672-1.116 1.46-2.592 2.06-3.852zm8.5 4.128a16.307 16.307 0 0 0 -2.292-3.444l-.756.4a20.692 20.692 0 0 1 1.236 1.7c-1.416.1-2.844.18-4.08.24.528-1.044 1.092-2.412 1.536-3.552h4.152v-.852h-3.412v-2.2h2.844v-.84h-2.844v-1.956h-.916v1.956h-2.732v.84h2.732v2.2h-3.332v.852h2.448a28.313 28.313 0 0 1 -1.44 3.612l-1 .048.132.888c1.66-.108 4.072-.26 6.392-.444a7.934 7.934 0 0 1 .5 1.02zm3.288-8.292h8.172v1.752h.912v-2.592h-4.54v-1.368h-.924v1.368h-4.5v2.592h.876zm4.548 5.1h3.552v-.828h-3.556v-1.992h3.06v-.84h-6.948v.84h2.976v5.028a3.6 3.6 0 0 1 -2.208-2.316 15.146 15.146 0 0 0 .288-1.6l-.912-.084c-.264 2.152-.912 3.856-2.244 4.888a4.659 4.659 0 0 1 .732.6 6.574 6.574 0 0 0 1.792-2.672c1.088 2.024 2.876 2.456 5.36 2.456h2.784a2.63 2.63 0 0 1 .336-.9c-.576.012-2.64.012-3.072.012a10.955 10.955 0 0 1 -1.944-.144zm12.1-4.656a14.7 14.7 0 0 1 -.984 3.24 15.068 15.068 0 0 0 -2.244-1.572 13.613 13.613 0 0 0 .888-1.668zm3.42-2.652h-.912v4.572a10.276 10.276 0 0 1 -1.224-1.752l-.468.18c.06-.324.132-.66.18-1.008l-.576-.216-.168.048h-2.256c.2-.528.384-1.092.54-1.656l-.876-.18a11.214 11.214 0 0 1 -2.868 5.352 5.175 5.175 0 0 1 .732.576 8.629 8.629 0 0 0 .792-.924 14.774 14.774 0 0 1 2.292 1.7 8.654 8.654 0 0 1 -3.56 3.532 3.355 3.355 0 0 1 .708.66c2.28-1.272 4.08-3.66 4.956-7.44a13.682 13.682 0 0 0 1.788 2.352v5.124h.912v-4.248a10.908 10.908 0 0 0 2.136 1.488 3.93 3.93 0 0 1 .636-.756 10.466 10.466 0 0 1 -2.772-1.9zm10.572 2.064a8.274 8.274 0 0 0 -.948-2.04l-.78.252a8.108 8.108 0 0 1 .888 2.088zm-2.856.06a8.62 8.62 0 0 0 -1.3-1.9l-.756.36a8.279 8.279 0 0 1 1.248 1.956zm2.2 3.408c.06-.54.108-1.128.132-1.752h-.96c-.024.636-.06 1.212-.108 1.752h-3.368v.84h3.228c-.372 1.9-1.344 3.12-4.212 3.792a2.653 2.653 0 0 1 .516.792c3.192-.8 4.248-2.316 4.644-4.584h3.36c-.12 2.4-.288 3.372-.552 3.636-.12.12-.264.132-.528.132s-1.096-.008-1.912-.084a2.017 2.017 0 0 1 .3.864 19.463 19.463 0 0 0 1.968.036 1.226 1.226 0 0 0 .936-.384c.384-.408.552-1.584.708-4.632.012-.132.012-.408.012-.408zm2.964-2.976a24.385 24.385 0 0 0 1.56-2.124l-.948-.324a15.163 15.163 0 0 1 -1.5 2.34l.264.108h-7.26v2.532h.864v-1.716h8.244v1.716h.888v-2.532zm12.768 1.332a11.784 11.784 0 0 1 -1.036 5.484c-.588.06-1.176.12-1.74.168v-.936h1.872v-.7h-1.872v-.768h1.84v-3.488h-1.824v-.756h1.86v.66h.888zm-4.656 1.776h1.188v.876h-1.188zm0-1.416h1.188v.852h-1.188zm1.836.852v-.852h1.248v.852zm0 1.44v-.876h1.248v.876zm3.6-3.78v-2.712h-.78v2.712h-.84v-.564h-1.908v-.828a16 16 0 0 0 1.86-.324l-.48-.648a31.036 31.036 0 0 1 -4.14.576c.084-.228.156-.468.228-.7l-.792-.216a13.972 13.972 0 0 1 -2.364 4.816 6.247 6.247 0 0 1 .444.9 12.691 12.691 0 0 0 1.056-1.6v6.784h.8v-8.4q.342-.774.612-1.584a2.491 2.491 0 0 1 .216.636c.564-.036 1.164-.084 1.764-.144v.732h-1.908v.7h1.916v.756h-1.752v3.492h1.752v.768h-1.788v.7h1.788v1l-2.088.192.144.756c1.112-.128 2.564-.288 4.016-.468-.108.156-.228.3-.348.444a2.808 2.808 0 0 1 .66.468c1.692-2 1.92-4.812 1.92-7.116v-.336h1.08c-.1 4.476-.2 6.036-.432 6.372a.347.347 0 0 1 -.36.192c-.192 0-.612-.012-1.08-.048a1.908 1.908 0 0 1 .216.78 6.627 6.627 0 0 0 1.2 0 .837.837 0 0 0 .708-.42c.336-.48.42-2.112.528-7.248 0-.108.012-.42.012-.42zm6.972-1.176v2.664h-1.74v-2.664zm-1.74 6.216v-2.768h1.74v2.772zm2.58-7.02h-3.4v8.8h.816v-.972h2.58zm.984 6.72a9.256 9.256 0 0 1 1.512 2.112l.756-.48a8.484 8.484 0 0 0 -1.56-2.04zm6.192-2.976v-.792h-3.104v-1.524h2.58v-.792h-2.58v-1.428h-.876v1.428h-2.5v.792h2.5v1.524h-3.012v.792h4.6v1.356h-4.536v.792h4.524v3.2c0 .18-.06.228-.264.24s-.852.012-1.6-.012a2.725 2.725 0 0 1 .288.828 6.866 6.866 0 0 0 1.944-.144c.36-.132.492-.4.492-.9v-3.212h1.392v-.792h-1.392v-1.356zm6.024-3.324v1h-2.592v-1zm-2.604 2.712v-1.056h2.592v1.056zm3.444.684v-4.092h-4.332v10.452h.888v-6.36zm1.932 1.584v1.116h-2.82v-1.116zm-2.82 2.952v-1.164h2.82v1.164zm3.648.708v-4.344h-4.452v4.944h.8v-.6zm-.84-5.916v-1.068h2.688v1.068zm2.688-2.724v1h-2.688v-1zm.9-.7h-4.44v4.1h3.54v5.156c0 .216-.072.288-.276.288s-.948.024-1.68-.012a3.287 3.287 0 0 1 .312.912 6.83 6.83 0 0 0 2.016-.156c.4-.156.528-.456.528-1.02zm12.36 4.608h-3.948v-3.944h-.816v3.948h-3.948v.828h3.948v3.948h.816v-3.948h3.948zm6.144-5.04a12.331 12.331 0 0 1 -3.252 4.812 5.107 5.107 0 0 1 .54.9 12.175 12.175 0 0 0 1.416-1.584v6.736h.876v-8.016a17.828 17.828 0 0 0 1.308-2.568zm7.86 3.828v-.864h-3.468v-2.88h-.872v2.88h-3.372v.864h2.9a12.191 12.191 0 0 1 -3.328 4.912 5.178 5.178 0 0 1 .672.684 13.4 13.4 0 0 0 3.12-4.62v6.084h.876v-6.336a14.568 14.568 0 0 0 3.112 4.824 3.2 3.2 0 0 1 .672-.72 12.661 12.661 0 0 1 -3.264-4.824zm4.62 5.256v-3.344h5.952v3.348zm5.952-7.464v3.244h-5.952v-3.24zm-6.852-.876v10h.9v-.78h5.952v.732h.936v-9.948zm17.412 1.248a8.274 8.274 0 0 0 -.948-2.04l-.78.252a8.108 8.108 0 0 1 .888 2.088zm-2.856.06a8.62 8.62 0 0 0 -1.3-1.9l-.756.36a8.278 8.278 0 0 1 1.248 1.956zm2.2 3.408c.06-.54.108-1.128.132-1.752h-.96c-.024.636-.06 1.212-.108 1.752h-3.36v.84h3.228c-.372 1.9-1.344 3.12-4.212 3.792a2.653 2.653 0 0 1 .516.792c3.192-.8 4.248-2.316 4.644-4.584h3.36c-.12 2.4-.288 3.372-.552 3.636-.12.12-.264.132-.528.132s-1.096-.004-1.912-.08a2.017 2.017 0 0 1 .3.864 19.463 19.463 0 0 0 1.968.036 1.226 1.226 0 0 0 .936-.384c.384-.408.552-1.584.708-4.632.012-.132.012-.408.012-.408zm2.964-2.976a24.383 24.383 0 0 0 1.56-2.124l-.948-.324a15.162 15.162 0 0 1 -1.5 2.34l.264.108h-7.26v2.532h.864v-1.712h8.24v1.716h.888v-2.532zm12.768 1.332a11.784 11.784 0 0 1 -1.02 5.484c-.588.06-1.176.12-1.74.168v-.936h1.872v-.7h-1.872v-.768h1.836v-3.484h-1.824v-.756h1.86v.66h.888zm-4.656 1.776h1.188v.876h-1.188zm0-1.416h1.188v.852h-1.188zm1.836.852v-.852h1.248v.852zm0 1.44v-.876h1.248v.876zm3.6-3.78v-2.708h-.78v2.712h-.84v-.564h-1.908v-.828a16 16 0 0 0 1.86-.324l-.48-.648a31.035 31.035 0 0 1 -4.14.576c.084-.228.156-.468.228-.7l-.792-.216a13.972 13.972 0 0 1 -2.356 4.816 6.247 6.247 0 0 1 .444.9 12.691 12.691 0 0 0 1.056-1.6v6.784h.8v-8.4q.342-.774.612-1.584a2.491 2.491 0 0 1 .216.636c.564-.036 1.164-.084 1.764-.144v.732h-1.908v.7h1.908v.756h-1.752v3.492h1.752v.768h-1.788v.7h1.788v1l-2.088.192.144.756c1.12-.128 2.572-.288 4.024-.468-.108.156-.228.3-.348.444a2.808 2.808 0 0 1 .66.468c1.692-2 1.92-4.812 1.92-7.116v-.336h1.08c-.1 4.476-.2 6.036-.432 6.372a.347.347 0 0 1 -.36.192c-.192 0-.612-.012-1.08-.048a1.908 1.908 0 0 1 .216.78 6.627 6.627 0 0 0 1.2 0 .837.837 0 0 0 .708-.42c.336-.48.42-2.112.528-7.248 0-.108.012-.42.012-.42zm6.972-1.172v2.664h-1.74v-2.664zm-1.74 6.216v-2.768h1.74v2.772zm2.58-7.02h-3.4v8.8h.816v-.972h2.58zm.984 6.72a9.256 9.256 0 0 1 1.52 2.112l.756-.48a8.484 8.484 0 0 0 -1.56-2.04zm6.192-2.976v-.792h-3.1v-1.524h2.58v-.792h-2.58v-1.428h-.876v1.428h-2.5v.792h2.5v1.524h-3.012v.792h4.6v1.356h-4.536v.792h4.536v3.2c0 .18-.06.228-.264.24s-.852.012-1.6-.012a2.725 2.725 0 0 1 .288.828 6.866 6.866 0 0 0 1.948-.14c.36-.132.492-.4.492-.9v-3.216h1.392v-.792h-1.392v-1.356zm6.024-3.324v1h-2.592v-1zm-2.596 2.712v-1.056h2.592v1.056zm3.444.684v-4.092h-4.332v10.452h.888v-6.36zm1.932 1.584v1.116h-2.82v-1.116zm-2.82 2.952v-1.164h2.82v1.164zm3.648.708v-4.344h-4.448v4.944h.8v-.6zm-.84-5.916v-1.068h2.692v1.068zm2.692-2.724v1h-2.688v-1zm.9-.7h-4.44v4.1h3.54v5.156c0 .216-.072.288-.276.288s-.948.024-1.68-.012a3.287 3.287 0 0 1 .312.912 6.83 6.83 0 0 0 2.016-.156c.4-.156.528-.456.528-1.02z" transform="translate(-1.68 238.379)"/></svg>