<svg height="184" viewBox="0 0 184 184" width="184" xmlns="http://www.w3.org/2000/svg"><path d="m0 0h37v37h-37z" fill="#e76d2b" transform="matrix(0 1 -1 0 37 147)"/><path d="m0 0h37v37h-37z" fill="#47763e" transform="matrix(0 1 -1 0 74 110)"/><path d="m0 0h37v36h-37z" fill="#a21b43" transform="matrix(0 1 -1 0 110 147)"/><path d="m0 0h37v37h-37z" fill="#1778b1" transform="matrix(0 1 -1 0 147 110)"/><path d="m0 0h37v37h-37z" fill="#f1b024" transform="matrix(0 1 -1 0 184 147)"/><path d="m0 0h37v37h-37z" fill="#a21b43" transform="matrix(0 1 -1 0 74 37)"/><path d="m0 0h37v37h-37z" fill="#f1b024" transform="matrix(0 1 -1 0 37 0)"/><path d="m0 0h36v37h-36z" fill="#1778b1" transform="matrix(0 1 -1 0 37 74)"/></svg>