<svg height="71" viewBox="0 0 85 71" width="85" xmlns="http://www.w3.org/2000/svg"><g fill="#fff"><path d="m109.8 130.432-3.243-4.53a8.632 8.632 0 0 0 -2.992-2.551l-6.623-3.477a11.9 11.9 0 0 0 -4.235-1.21l-1.849-.053a4.217 4.217 0 0 0 -3.11 1.162l-6.3 5.658-5.46 1.5a2.017 2.017 0 0 0 -1.435 2.375l.019.081a2.014 2.014 0 0 0 2.252 1.563l4.4-.628a9.048 9.048 0 0 0 3.124-1.051l2.658-1.794.136 8.823a3.4 3.4 0 0 1 -.34 1.713l-9.026 15.657a2.34 2.34 0 0 0 .849 3.191l.078.045a2.34 2.34 0 0 0 3.1-.68l10.3-14.564 3.944 8.632a4.536 4.536 0 0 0 1.092 1.029l7.871 5.271a2.288 2.288 0 0 0 3.068-.484l.088-.113a2.287 2.287 0 0 0 -.4-3.229l-6.788-5.216-3.931-11.108.351-9.957 4.702 1.413 4.956 4.866a1.776 1.776 0 0 0 2.3.16l.048-.035a1.776 1.776 0 0 0 .396-2.459z" transform="translate(-72.024 -93.038)"/><path d="m201.535 9.739a4.9 4.9 0 1 0 -4.1-5.582 4.9 4.9 0 0 0 4.1 5.582z" transform="translate(-182.844 13.931)"/><path d="m109.8 130.432-3.243-4.53a8.632 8.632 0 0 0 -2.992-2.551l-6.623-3.477a11.9 11.9 0 0 0 -4.235-1.21l-1.849-.053a4.217 4.217 0 0 0 -3.11 1.162l-6.3 5.658-5.46 1.5a2.017 2.017 0 0 0 -1.435 2.375l.019.081a2.014 2.014 0 0 0 2.252 1.563l4.4-.628a9.048 9.048 0 0 0 3.124-1.051l2.658-1.794.136 8.823a3.4 3.4 0 0 1 -.34 1.713l-9.026 15.657a2.34 2.34 0 0 0 .849 3.191l.078.045a2.34 2.34 0 0 0 3.1-.68l10.3-14.564 3.944 8.632a4.536 4.536 0 0 0 1.092 1.029l7.871 5.271a2.288 2.288 0 0 0 3.068-.484l.088-.113a2.287 2.287 0 0 0 -.4-3.229l-6.788-5.216-3.931-11.108.351-9.957 4.702 1.413 4.956 4.866a1.776 1.776 0 0 0 2.3.16l.048-.035a1.776 1.776 0 0 0 .396-2.459z" transform="translate(-28.024 -93.038)"/><path d="m201.535 9.739a4.9 4.9 0 1 0 -4.1-5.582 4.9 4.9 0 0 0 4.1 5.582z" transform="translate(-138.844 13.931)"/></g><path d="m0 0h85v71h-85z" fill="none"/></svg>