<svg height="71" viewBox="0 0 80 71" width="80" xmlns="http://www.w3.org/2000/svg"><g fill="#fff"><path d="m84.295 44.9a5.168 5.168 0 1 0 -5.169-5.167 5.168 5.168 0 0 0 5.169 5.167z" transform="translate(-66.617 -26.332)"/><path d="m208.41 18.424h33.657v27.394h-33.657v-2.288a8.089 8.089 0 0 1 -1.313-.124l-.141-.026-1.42-.393v5.705h39.407v-33.142h-39.407v13.765l2.874 1.005z" transform="translate(-176.238 -9.847)"/><path d="m233.724 324.94a5.168 5.168 0 1 0 5.169-5.168 5.168 5.168 0 0 0 -5.169 5.168z" transform="translate(-200.683 -273.664)"/><path d="m205.868 417.042c-4.847 0-9.153 1.616-10.227 6.99l.086 3.556h20.282l.085-3.556c-1.074-5.374-5.38-6.99-10.226-6.99z" transform="translate(-167.657 -358.016)"/><path d="m396.079 324.94a5.168 5.168 0 1 0 5.169-5.168 5.169 5.169 0 0 0 -5.169 5.168z" transform="translate(-341.475 -273.664)"/><path d="m368.222 417.042c-4.847 0-9.153 1.616-10.227 6.99l.086 3.556h20.282l.086-3.556c-1.075-5.374-5.38-6.99-10.227-6.99z" transform="translate(-308.449 -358.016)"/><path d="m32.642 142 8.34-4a2.212 2.212 0 0 0 -1.722-4.076l-7.5 2.562-6.785-2.372a13.054 13.054 0 0 0 -3.057-.671l-4.572 7.057v-3.775h-2.788v3.8l-5.122-6.182a8.992 8.992 0 0 0 -5.585 7.015l-3.8 15.849a2.212 2.212 0 1 0 4.318.965l3.994-10.56 1.037 31.426a2.622 2.622 0 0 0 5.244 0l1.042-18.74 1.039 18.74a2.622 2.622 0 0 0 5.245 0l1.475-38.186 5.986 1.659a4.888 4.888 0 0 0 3.211-.511z" transform="translate(2 -112.087)"/><path d="m16.558 21.461h2.788v1.954h-2.788z"/></g><path d="m0 0h80v71h-80z" fill="none"/></svg>