<svg height="71" viewBox="0 0 104 71" width="104" xmlns="http://www.w3.org/2000/svg"><path d="m98.548 154.741-16-24.582a4.008 4.008 0 0 0 -3.4-6.158h-22.475a7.764 7.764 0 0 0 -13.346 0h-22.478a4.022 4.022 0 0 0 -4.022 4.022 3.982 3.982 0 0 0 .626 2.136l-16 24.582h-1.453l.585 2.476a20.822 20.822 0 0 0 40.527 0l.585-2.476h-1.452l-14.774-22.7h17.856a7.763 7.763 0 0 0 13.346 0h17.857l-14.775 22.7h-1.455l.585 2.476a20.821 20.821 0 0 0 40.526 0l.585-2.476zm-63.1 0h-29.196l14.6-22.426zm29.109 0 14.6-22.426 14.6 22.426z" fill="#fff" transform="translate(2 -106.018)"/><path d="m0 0h104v71h-104z" fill="none"/></svg>