<svg height="60.892" viewBox="0 0 59.353 60.892" width="59.353" xmlns="http://www.w3.org/2000/svg"><g fill="#a21b43"><path d="m214.041 11.533a5.766 5.766 0 1 0 -5.767-5.766 5.766 5.766 0 0 0 5.767 5.766z" transform="translate(-203.092)"/><path d="m180.776 119.275h-10.038a6.436 6.436 0 0 0 -5.792 5.793v19.241a2.511 2.511 0 0 0 2.511 2.512h1.753l1.109 19.082h10.868l1.118-19.082h1.753a2.511 2.511 0 0 0 2.51-2.512v-19.241a6.436 6.436 0 0 0 -5.792-5.793zm-6.56 11.172v-9.147h3.084v9.147l-1.541 2.06z" transform="translate(-164.946 -105.011)"/><path d="m213.311 11.518a5.759 5.759 0 1 0 -5.759-5.757 5.76 5.76 0 0 0 5.759 5.757z" transform="translate(-168.381)"/><path d="m158.395 137.063 1.978-9.979c.206-3.788-2.644-6.629-5.424-6.629h-8.549c-2.779 0-5.629 2.84-5.424 6.629l1.979 9.979-6.427 16.805h8.617l1.826 12.956h7.329l1.9-12.956h8.617zm-1.985-8.984h-4.4v-1.77h4.4z" transform="translate(-105.468 -106.19)"/></g></svg>