<svg height="56.844" viewBox="0 0 56.996 56.844" width="56.996" xmlns="http://www.w3.org/2000/svg"><path d="m44.387 25.921a12.619 12.619 0 1 0 -12.62-12.621 12.781 12.781 0 0 0 .548 3.706l-12.792 7.728a11.242 11.242 0 1 0 .264 14.884l9.665 5.1a9.867 9.867 0 1 0 1.929-3.462l-9.432-5.5a11.164 11.164 0 0 0 .528-3.422 10.871 10.871 0 0 0 -.508-3.32l13.137-7.157a12.573 12.573 0 0 0 9.281 4.064zm-6.062-18.67a8.561 8.561 0 1 1 6.062 14.609 8.443 8.443 0 0 1 -5.543-2.05h-.01c-.173-.142-.345-.294-.508-.457a8.574 8.574 0 0 1 -2.365-4.548 8.167 8.167 0 0 1 -.132-1.5 8.532 8.532 0 0 1 2.496-6.054zm-20.03 26.366a7.067 7.067 0 0 1 -1.98 3.783c-.081.081-.173.163-.264.244a7.177 7.177 0 1 1 -.112-10.741c.132.111.254.223.376.345a7.152 7.152 0 0 1 1.979 3.757 7 7 0 0 1 .122 1.32 6.756 6.756 0 0 1 -.121 1.292zm14.853 13.046a5.761 5.761 0 0 1 1.614-3.086 2.221 2.221 0 0 1 .238-.213 5.671 5.671 0 0 1 3.858-1.482 5.786 5.786 0 1 1 -5.8 5.8 5.543 5.543 0 0 1 .09-1.019z" fill="#a21b43" transform="translate(0 -.683)"/></svg>