<svg height="71" viewBox="0 0 48 71" width="48" xmlns="http://www.w3.org/2000/svg"><g fill="#fff"><path d="m114.668 0a22.5 22.5 0 0 0 -12.388 41.279c3.553 2.347 3.871 4.1 3.871 8.482h17.036c0-4.381.318-6.134 3.869-8.482a22.5 22.5 0 0 0 -12.388-41.279z" transform="translate(-90.172 .188)"/><path d="m202.3 383.781h-15.263a2.13 2.13 0 1 0 0 4.259h15.263a2.13 2.13 0 1 0 0-4.259z" transform="translate(-170.172 -330.893)"/><path d="m202.3 434.906h-15.263a2.131 2.131 0 1 0 0 4.261h15.263a2.131 2.131 0 1 0 0-4.261z" transform="translate(-170.172 -374.998)"/><path d="m226.248 494.018a5.447 5.447 0 0 0 4.8-2.862h-9.591a5.447 5.447 0 0 0 4.791 2.862z" transform="translate(-201.7 -423.524)"/></g><path d="m0 0h48v71h-48z" fill="none"/></svg>