<svg xmlns="http://www.w3.org/2000/svg" width="494.25" height="39.8" viewBox="0 0 494.25 39.8">
  <path id="パス_12326" data-name="パス 12326" d="M-236.45-37.7V-8.3h11.75V0h-21.55V-37.7Zm37.1,18.85a10.046,10.046,0,0,0,.85,4.15,10.493,10.493,0,0,0,2.3,3.3,10.4,10.4,0,0,0,3.375,2.175,10.808,10.808,0,0,0,4.075.775,10.808,10.808,0,0,0,4.075-.775,10.688,10.688,0,0,0,3.4-2.175,10.3,10.3,0,0,0,2.325-3.3,10.046,10.046,0,0,0,.85-4.15,10.046,10.046,0,0,0-.85-4.15,10.3,10.3,0,0,0-2.325-3.3,10.688,10.688,0,0,0-3.4-2.175,10.808,10.808,0,0,0-4.075-.775,10.808,10.808,0,0,0-4.075.775A10.4,10.4,0,0,0-196.2-26.3a10.493,10.493,0,0,0-2.3,3.3A10.046,10.046,0,0,0-199.35-18.85Zm-10.25,0a19.692,19.692,0,0,1,1.55-7.825A19.527,19.527,0,0,1-203.75-33a19.647,19.647,0,0,1,6.575-4.225,22.555,22.555,0,0,1,8.425-1.525,22.609,22.609,0,0,1,8.4,1.525A19.869,19.869,0,0,1-173.725-33a19.337,19.337,0,0,1,4.325,6.325,19.692,19.692,0,0,1,1.55,7.825,19.692,19.692,0,0,1-1.55,7.825A19.337,19.337,0,0,1-173.725-4.7,19.869,19.869,0,0,1-180.35-.475a22.609,22.609,0,0,1-8.4,1.525,22.555,22.555,0,0,1-8.425-1.525A19.647,19.647,0,0,1-203.75-4.7a19.527,19.527,0,0,1-4.3-6.325A19.692,19.692,0,0,1-209.6-18.85Zm65.4-18.85,9.1,22.95,9.15-22.95h10.65L-131.2,0H-139l-15.85-37.7Zm66.8,8.3H-89.05v6.3h11v8.3h-11v6.5H-77.4V0H-98.85V-37.7H-77.4Zm76.2,4.3a10.459,10.459,0,0,0-8.4-4.15,10.275,10.275,0,0,0-4.075.8A9.916,9.916,0,0,0-16.9-26.275,10.015,10.015,0,0,0-19.025-23a10.751,10.751,0,0,0-.775,4.1,10.885,10.885,0,0,0,.775,4.15,10.1,10.1,0,0,0,2.15,3.3,10.078,10.078,0,0,0,3.225,2.2,9.969,9.969,0,0,0,4,.8,11.348,11.348,0,0,0,8.45-4V-.85l-1,.35A28.934,28.934,0,0,1-6.4.675a20.353,20.353,0,0,1-3.85.375A19.411,19.411,0,0,1-17.725-.425a19.545,19.545,0,0,1-6.3-4.15,20.646,20.646,0,0,1-4.375-6.35,19.366,19.366,0,0,1-1.65-8.025,19.274,19.274,0,0,1,1.625-7.975,19.849,19.849,0,0,1,4.35-6.25,19.894,19.894,0,0,1,6.325-4.1A19.723,19.723,0,0,1-10.2-38.75a20.679,20.679,0,0,1,4.425.475A26.842,26.842,0,0,1-1.2-36.8Zm27.8,6.25a10.046,10.046,0,0,0,.85,4.15,10.493,10.493,0,0,0,2.3,3.3,10.4,10.4,0,0,0,3.375,2.175A10.808,10.808,0,0,0,37.2-8.45a10.808,10.808,0,0,0,4.075-.775,10.688,10.688,0,0,0,3.4-2.175A10.3,10.3,0,0,0,47-14.7a10.046,10.046,0,0,0,.85-4.15A10.046,10.046,0,0,0,47-23a10.3,10.3,0,0,0-2.325-3.3,10.688,10.688,0,0,0-3.4-2.175A10.808,10.808,0,0,0,37.2-29.25a10.808,10.808,0,0,0-4.075.775A10.4,10.4,0,0,0,29.75-26.3a10.493,10.493,0,0,0-2.3,3.3A10.046,10.046,0,0,0,26.6-18.85Zm-10.25,0a19.692,19.692,0,0,1,1.55-7.825A19.527,19.527,0,0,1,22.2-33a19.648,19.648,0,0,1,6.575-4.225A22.555,22.555,0,0,1,37.2-38.75a22.609,22.609,0,0,1,8.4,1.525A19.869,19.869,0,0,1,52.225-33a19.336,19.336,0,0,1,4.325,6.325A19.692,19.692,0,0,1,58.1-18.85a19.692,19.692,0,0,1-1.55,7.825A19.336,19.336,0,0,1,52.225-4.7,19.869,19.869,0,0,1,45.6-.475,22.609,22.609,0,0,1,37.2,1.05,22.555,22.555,0,0,1,28.775-.475,19.648,19.648,0,0,1,22.2-4.7a19.527,19.527,0,0,1-4.3-6.325A19.692,19.692,0,0,1,16.35-18.85ZM86.6-37.7V-8.3H98.35V0H76.8V-37.7Zm37.1,18.85a10.046,10.046,0,0,0,.85,4.15,10.493,10.493,0,0,0,2.3,3.3,10.4,10.4,0,0,0,3.375,2.175,10.808,10.808,0,0,0,4.075.775,10.808,10.808,0,0,0,4.075-.775,10.688,10.688,0,0,0,3.4-2.175,10.3,10.3,0,0,0,2.325-3.3,10.046,10.046,0,0,0,.85-4.15A10.046,10.046,0,0,0,144.1-23a10.3,10.3,0,0,0-2.325-3.3,10.688,10.688,0,0,0-3.4-2.175,10.808,10.808,0,0,0-4.075-.775,10.808,10.808,0,0,0-4.075.775A10.4,10.4,0,0,0,126.85-26.3a10.493,10.493,0,0,0-2.3,3.3A10.046,10.046,0,0,0,123.7-18.85Zm-10.25,0A19.692,19.692,0,0,1,115-26.675,19.527,19.527,0,0,1,119.3-33a19.648,19.648,0,0,1,6.575-4.225A22.555,22.555,0,0,1,134.3-38.75a22.609,22.609,0,0,1,8.4,1.525A19.869,19.869,0,0,1,149.325-33a19.336,19.336,0,0,1,4.325,6.325,19.692,19.692,0,0,1,1.55,7.825,19.692,19.692,0,0,1-1.55,7.825A19.336,19.336,0,0,1,149.325-4.7,19.869,19.869,0,0,1,142.7-.475a22.609,22.609,0,0,1-8.4,1.525,22.555,22.555,0,0,1-8.425-1.525A19.648,19.648,0,0,1,119.3-4.7a19.527,19.527,0,0,1-4.3-6.325A19.692,19.692,0,0,1,113.45-18.85Zm70.25-2h1.85a7.145,7.145,0,0,0,4.45-1.2,4.1,4.1,0,0,0,1.55-3.45A4.1,4.1,0,0,0,190-28.95a7.145,7.145,0,0,0-4.45-1.2H183.7ZM205.25,0h-12.2L183.7-14.5V0h-9.8V-37.7h15.25a14.968,14.968,0,0,1,5.5.925,10.642,10.642,0,0,1,3.875,2.525,10.646,10.646,0,0,1,2.3,3.7,12.894,12.894,0,0,1,.775,4.5,11.059,11.059,0,0,1-2.075,6.975A10.45,10.45,0,0,1,193.4-15.45Zm37.3-28.05a12.1,12.1,0,0,0-3.2-1.925,8.5,8.5,0,0,0-3.1-.625,5.03,5.03,0,0,0-3.1.9,2.8,2.8,0,0,0-1.2,2.35,2.338,2.338,0,0,0,.6,1.65,5.229,5.229,0,0,0,1.575,1.125,13.48,13.48,0,0,0,2.2.825q1.225.35,2.425.75a15.12,15.12,0,0,1,7.025,4.275A10.547,10.547,0,0,1,248-11.75a13.579,13.579,0,0,1-.975,5.25,10.955,10.955,0,0,1-2.85,4.025,13.151,13.151,0,0,1-4.6,2.6,19.157,19.157,0,0,1-6.175.925A22.71,22.71,0,0,1,220.15-3.2l4.2-7.9a17.037,17.037,0,0,0,4.35,2.9,10.455,10.455,0,0,0,4.25.95,5.073,5.073,0,0,0,3.575-1.1,3.347,3.347,0,0,0,1.175-2.5,3.376,3.376,0,0,0-.3-1.475,3.2,3.2,0,0,0-1-1.15,8.014,8.014,0,0,0-1.825-.975q-1.125-.45-2.725-1-1.9-.6-3.725-1.325a11.721,11.721,0,0,1-3.25-1.925,8.945,8.945,0,0,1-2.3-3.025,10.7,10.7,0,0,1-.875-4.625,13.361,13.361,0,0,1,.925-5.075,11.278,11.278,0,0,1,2.6-3.9,11.589,11.589,0,0,1,4.1-2.525,15.5,15.5,0,0,1,5.425-.9,23.746,23.746,0,0,1,5.85.775,25.8,25.8,0,0,1,5.85,2.275Z" transform="translate(246.25 38.75)"/>
</svg>
