<svg height="66.64" viewBox="0 0 398.09 66.64" width="398.09" xmlns="http://www.w3.org/2000/svg"><path d="m-179.655 0a25.356 25.356 0 0 0 17.92-7.07c4.55-4.55 6.09-10.01 6.09-16.17 0-5.04-1.05-11.76-6.51-17.01-6.02-5.81-13.86-6.44-18.55-6.44h-15.895v46.69zm-4.83-36.4h2.94c3.01 0 6.79.28 9.66 2.94 2.31 2.17 3.64 5.88 3.64 10.22 0 5.18-2.03 8.12-3.57 9.59-3.15 3.08-7.28 3.36-10.22 3.36h-2.45zm49.49 5.11v31.29h11.2v-31.29zm-.7-13.02a6.274 6.274 0 0 0 6.3 6.3 6.274 6.274 0 0 0 6.3-6.3 6.274 6.274 0 0 0 -6.3-6.3 6.274 6.274 0 0 0 -6.305 6.3zm29.68 13.02 16.17 31.29h7.63l16.315-31.29h-12.46l-7.63 16.03-7.49-16.03zm89.39 16.52c0-3.5-.56-8.96-4.97-13.16-3.71-3.5-8.4-4.27-12.04-4.27-6.16 0-10.22 2.03-12.81 4.55a16.7 16.7 0 0 0 -4.69 12.11 16.388 16.388 0 0 0 4.62 11.83c3.85 3.85 8.82 4.76 12.95 4.76 6.79 0 10.43-2.1 12.74-4.34a14.065 14.065 0 0 0 3.78-6.44h-10.71a5.212 5.212 0 0 1 -1.96 2.1 8.837 8.837 0 0 1 -3.64.84 6.292 6.292 0 0 1 -4.62-1.54 7.9 7.9 0 0 1 -1.96-5.25h23.31zm-22.96-5.25a6.387 6.387 0 0 1 1.68-3.36 6.018 6.018 0 0 1 4.55-1.68 6.525 6.525 0 0 1 4.62 1.68 7.508 7.508 0 0 1 1.82 3.36zm43.4 20.02h11.2v-13.37c0-1.68.14-4.97 2.52-7.14a7.338 7.338 0 0 1 5.11-1.68 9.88 9.88 0 0 1 4.83 1.12v-10.57c-1.47-.07-1.96-.14-2.24-.14a12.217 12.217 0 0 0 -5.81 1.26 10.1 10.1 0 0 0 -4.41 4.34v-5.11h-11.2zm40.67-2.59a23.085 23.085 0 0 0 12.6 3.64c2.59 0 7.91-.28 11.55-3.92a10.457 10.457 0 0 0 3.15-7.77 8.849 8.849 0 0 0 -2.38-6.23 13.223 13.223 0 0 0 -4.62-2.45l-2.03-.56c-1.75-.49-2.66-.49-3.71-.91a1.823 1.823 0 0 1 -1.33-1.75 1.678 1.678 0 0 1 .98-1.54 4.729 4.729 0 0 1 2.59-.63 15.5 15.5 0 0 1 5.88 1.54l3.78-7.14a25.826 25.826 0 0 0 -10.01-2.03c-4.62 0-8.82 1.33-11.2 3.78a11.181 11.181 0 0 0 -2.94 7.63 7.568 7.568 0 0 0 2.03 5.39 10.067 10.067 0 0 0 5.46 2.73l2.94.7a6.985 6.985 0 0 1 2.94 1.12 1.661 1.661 0 0 1 .56 1.4 1.8 1.8 0 0 1 -.56 1.47 4.749 4.749 0 0 1 -2.87.84 14.576 14.576 0 0 1 -4.34-.77 16.025 16.025 0 0 1 -4.48-2.31zm47.04-28.7v31.29h11.2v-31.29zm-.7-13.02a6.274 6.274 0 0 0 6.3 6.3 6.274 6.274 0 0 0 6.3-6.3 6.274 6.274 0 0 0 -6.3-6.3 6.274 6.274 0 0 0 -6.3 6.3zm52.29 22.19v-9.17h-6.37v-10.29h-11.2v10.29h-3.57v9.17h3.57v22.12h11.2v-22.12zm20.72 38.15h12.53l25.13-47.32h-12.81l-8.12 16.03-8.33-16.03h-13.02l15.12 27.02z" fill="#fff" transform="translate(196.595 50.61)"/></svg>