<svg height="23.91" viewBox="0 0 38.73 23.91" width="38.73" xmlns="http://www.w3.org/2000/svg"><path d="m6.42-11.34a12.756 12.756 0 0 0 .27 2.73 7.941 7.941 0 0 0 .765 2.13 4.119 4.119 0 0 0 1.185 1.395 2.611 2.611 0 0 0 1.56.495 2.631 2.631 0 0 0 1.545-.495 3.909 3.909 0 0 0 1.185-1.395 8.3 8.3 0 0 0 .75-2.13 12.757 12.757 0 0 0 .27-2.73 12.813 12.813 0 0 0 -.27-2.715 8.038 8.038 0 0 0 -.75-2.13 3.941 3.941 0 0 0 -1.185-1.38 2.631 2.631 0 0 0 -1.545-.495 2.611 2.611 0 0 0 -1.56.495 4.157 4.157 0 0 0 -1.185 1.38 7.7 7.7 0 0 0 -.765 2.13 12.813 12.813 0 0 0 -.27 2.715zm-5.82 0a16.053 16.053 0 0 1 .7-4.9 11.33 11.33 0 0 1 1.98-3.765 8.932 8.932 0 0 1 3.03-2.415 8.751 8.751 0 0 1 3.89-.86 8.779 8.779 0 0 1 3.87.855 8.745 8.745 0 0 1 3.03 2.415 11.492 11.492 0 0 1 1.965 3.765 16.053 16.053 0 0 1 .7 4.9 16.053 16.053 0 0 1 -.7 4.905 11.673 11.673 0 0 1 -1.965 3.785 8.674 8.674 0 0 1 -3.03 2.43 8.779 8.779 0 0 1 -3.87.855 8.751 8.751 0 0 1 -3.885-.855 8.858 8.858 0 0 1 -3.03-2.43 11.506 11.506 0 0 1 -1.985-3.78 16.053 16.053 0 0 1 -.7-4.905zm28.77-2.46a3.355 3.355 0 0 0 .405.03h.285a2.5 2.5 0 0 0 1.8-.66 2.26 2.26 0 0 0 .69-1.71 2.2 2.2 0 0 0 -.645-1.65 2.283 2.283 0 0 0 -1.665-.63 2.248 2.248 0 0 0 -1.74.72 2.645 2.645 0 0 0 -.66 1.86h-5.43a9.732 9.732 0 0 1 .885-3.15 7.545 7.545 0 0 1 1.725-2.325 7.194 7.194 0 0 1 2.46-1.44 9.367 9.367 0 0 1 3.12-.5 9.4 9.4 0 0 1 3.045.465 6.854 6.854 0 0 1 2.34 1.32 5.748 5.748 0 0 1 1.5 2.07 6.777 6.777 0 0 1 .525 2.715 5.14 5.14 0 0 1 -.615 2.655 5.523 5.523 0 0 1 -1.755 1.79 5.015 5.015 0 0 1 2.715 1.94 5.848 5.848 0 0 1 .975 3.43 7 7 0 0 1 -.66 3.06 6.98 6.98 0 0 1 -1.845 2.37 8.5 8.5 0 0 1 -2.82 1.53 11.375 11.375 0 0 1 -3.585.54 10.64 10.64 0 0 1 -4.71-1.02 7.706 7.706 0 0 1 -3.36-3.24 6.478 6.478 0 0 1 -.765-1.98 10.376 10.376 0 0 1 -.195-2.01h5.82a3.357 3.357 0 0 0 .93 2.42 3.261 3.261 0 0 0 2.34.825 2.846 2.846 0 0 0 2.28-.84 3.07 3.07 0 0 0 .72-2.07 2.771 2.771 0 0 0 -.87-2.22 3.066 3.066 0 0 0 -2.07-.75 3.466 3.466 0 0 0 -.57.045q-.27.045-.6.1z" fill="#fff" transform="translate(-.6 23.28)"/></svg>