<svg xmlns="http://www.w3.org/2000/svg" width="320" height="278" viewBox="0 0 320 278">
  <g id="グループ_961" data-name="グループ 961" transform="translate(-480 -7211)">
    <g id="グループ_704" data-name="グループ 704">
      <rect id="長方形_79" data-name="長方形 79" width="320" height="278" transform="translate(480 7211)" fill="#fff"/>
      <path id="パス_12502" data-name="パス 12502" d="M8.33-8.82a4.579,4.579,0,0,0-.266-.868h2.31c-.112.294-.252.616-.364.868Zm-3.29,0v1.3h8.4v-1.3H11.55c.14-.238.294-.532.462-.868h1.162v-1.3H10.01v-.868H8.4v.868H5.516v1.3H6.552a4.877,4.877,0,0,1,.294.868Zm-.728-2.506-.238.07H1.036V1.218H2.478V-9.772H3.57c-.224.952-.518,2.17-.8,3.052a3.747,3.747,0,0,1,.966,2.45c0,.392-.056.672-.21.784a.725.725,0,0,1-.392.126c-.168,0-.364,0-.616-.014A3.53,3.53,0,0,1,2.884-1.96a5.917,5.917,0,0,0,.9-.028,2,2,0,0,0,.812-.294,2.055,2.055,0,0,0,.616-1.792A4.31,4.31,0,0,0,4.186-6.888C4.578-7.98,5.04-9.506,5.4-10.7ZM7.28-4.4h3.906v.588H7.28Zm0-1.54h3.906v.588H7.28Zm6.23,3.85h-3.5V-2.8h2.716V-6.944H5.8V-2.8H8.4v.714H4.928V-.77H8.4V1.218h1.61V-.77h3.5ZM28.84-10.22a16.567,16.567,0,0,0-1.134-1.9l-1.106.462A13.969,13.969,0,0,1,27.734-9.73Zm-9.408-.91a15.35,15.35,0,0,1-.294,2.94c-.7.056-1.358.1-1.792.112a12.873,12.873,0,0,1-1.47,0L16.03-6.2c.434-.07,1.148-.168,1.54-.21.266-.042.7-.1,1.19-.154A20.564,20.564,0,0,1,15.974-.084L17.78.644a30.043,30.043,0,0,0,2.828-7.406c.392-.028.728-.056.952-.056.868,0,1.344.154,1.344,1.26a10.585,10.585,0,0,1-.56,3.794,1.019,1.019,0,0,1-1.036.6A8.09,8.09,0,0,1,19.6-1.456L19.908.378a7.849,7.849,0,0,0,1.652.2A2.215,2.215,0,0,0,23.842-.7a13.553,13.553,0,0,0,.784-5.054c0-1.988-1.036-2.646-2.506-2.646-.28,0-.7.028-1.162.056.1-.5.21-1.008.294-1.428.07-.35.154-.784.238-1.148Zm7.742,1.554c-.28-.518-.77-1.4-1.12-1.918l-1.106.462A15.479,15.479,0,0,1,25.9-9.38l-1.288.546A15.7,15.7,0,0,1,26.95-3.612l1.764-.826a27.548,27.548,0,0,0-2.254-4.83Zm6.734-.392L31.78-10a8.035,8.035,0,0,1,.1,1.4c0,.854.028,2.464.154,3.738.392,3.724,1.722,5.1,3.234,5.1,1.12,0,1.988-.854,2.912-3.262l-1.4-1.68c-.266,1.092-.812,2.716-1.47,2.716-.868,0-1.288-1.358-1.484-3.36-.084-.994-.1-2.044-.084-2.94A10.986,10.986,0,0,1,33.908-9.968Zm6.93.294-1.764.588c1.512,1.708,2.254,4.97,2.464,7.2l1.834-.7A15.11,15.11,0,0,0,40.838-9.674Zm11.4.77h2.282A19.118,19.118,0,0,1,53-7.63h-.77Zm3.052,6.118H50.47v-.9h4.816ZM50.47-.574v-.952h4.816v.952ZM58.632-6.16V-7.63H55.384a20.478,20.478,0,0,0,2.758-3.08l-1.428-.728A17.049,17.049,0,0,1,55.272-9.66v-.686H52.234v-1.512H50.582v1.512h-3.29V-8.9h3.29V-7.63H46.088v1.47h4.76A24.92,24.92,0,0,1,45.64-3.836a9.173,9.173,0,0,1,1.022,1.372c.714-.266,1.442-.574,2.142-.882V1.232H50.47V.812h4.816v.364h1.736V-5.04H51.94c.574-.364,1.106-.728,1.652-1.12Zm14.91-5.082H61.474v1.4H73.542ZM66.346-.994h2.072v.616H66.346Zm-.812-5.138a7.988,7.988,0,0,1-1.568,1.876c.07-.672.1-1.3.112-1.876Zm5.8-1.96v.756H64.078v-.756Zm-4.4,2.772c.154-.252.294-.518.42-.77l-.14-.042h1.68c-.1.266-.238.546-.364.812Zm1.484,1.708H66.346V-4.2h2.072Zm0,1.582H66.346v-.56h2.072Zm5.25,1.652H69.986V-.994h2.94V-2.03h-2.94v-.56h2.94V-3.612h-2.94V-4.2h3.29V-5.32H70.168c.182-.266.378-.532.56-.812h2.24V-9.3H62.426v2.758c0,1.89-.126,4.606-1.568,6.51a6.081,6.081,0,0,1,1.4.966A9.185,9.185,0,0,0,63.784-2.9c.182.224.364.462.462.616.168-.126.35-.266.518-.42v3.92h1.582V.784h7.322Zm9.912-4.06V-6.16h2.954v1.722Zm-4.354,0c.028-.518.042-1.022.042-1.47V-6.16H81.9v1.722Zm2.674-4.9v1.624H79.268V-9.338Zm4.634,1.624H83.58V-9.338h2.954Zm1.652-3.206H77.616v5c0,1.96-.126,4.452-1.652,6.132A6.15,6.15,0,0,1,77.28,1.288,8.017,8.017,0,0,0,79.044-2.87H81.9V1.036h1.68V-2.87h2.954v2.1c0,.252-.1.336-.364.336s-1.176.014-1.96-.028a6.294,6.294,0,0,1,.532,1.6A6.5,6.5,0,0,0,87.43.84c.56-.252.756-.7.756-1.6ZM95.06-4.97l-.252-1.036c-1.288.5-2.632,1.022-3.514,1.3l.784,1.344c.756-.336,1.68-.77,2.562-1.2l.168.966c1.344-.1,3.052-.224,4.746-.378a5.42,5.42,0,0,1,.294.7l1.26-.56a5.784,5.784,0,0,0-.476-1.008,15.445,15.445,0,0,1,2.226,1.526l1.2-.994A17.791,17.791,0,0,0,101.136-6.1l-.854.686c-.224-.336-.476-.672-.7-.966l-1.176.49c.168.238.35.49.5.756l-1.442.07a34.038,34.038,0,0,0,2.6-2.73l-1.3-.6c-.35.5-.784,1.064-1.274,1.638-.21-.168-.448-.336-.7-.518.406-.476.868-1.05,1.3-1.61L97.79-9h5.8v-1.484H98.532v-1.358H96.824v1.358H91.9V-9h4.578c-.2.35-.42.728-.658,1.078l-.336-.21-.644.784A13.959,13.959,0,0,0,92.82-8.68l-1.106.91a11.032,11.032,0,0,1,2.1,1.54l1.022-.854a16.892,16.892,0,0,1,1.764,1.3c-.266.266-.532.532-.8.784Zm6.468-1.414a20.658,20.658,0,0,0,2.156-1.722L102.2-8.82a12.718,12.718,0,0,1-1.89,1.778Zm-3,2.674H96.824v.9H91.448v1.54h5.376V1.218h1.708V-1.274h5.488v-1.54H98.532Z" transform="translate(587 7244.646)"/>
      <g id="グループ_77" data-name="グループ 77" transform="translate(0 1235)">
        <path id="パス_12293" data-name="パス 12293" d="M-110.08-29.707h28.467v10.842h-51.339L-106.416-51q3.911-4.8,6.56-8.317A63.223,63.223,0,0,0-95.822-65.2,16.559,16.559,0,0,0-93-73.571a11.924,11.924,0,0,0-3.763-8.961,12.916,12.916,0,0,0-9.307-3.614q-11.585,0-13.268,13.714h-11.486q2.772-24.16,24.407-24.16a24.654,24.654,0,0,1,17.526,6.634,21.548,21.548,0,0,1,7.129,16.436,24.969,24.969,0,0,1-3.317,12.228A59.908,59.908,0,0,1-90-53.892q-3.243,4.282-8.193,10.124Zm45.943,5.3a6.565,6.565,0,0,1,2.03-4.8,6.621,6.621,0,0,1,4.852-2.03,6.621,6.621,0,0,1,4.852,2.03,6.621,6.621,0,0,1,2.03,4.852,6.678,6.678,0,0,1-2.03,4.9,6.6,6.6,0,0,1-4.852,1.98,6.657,6.657,0,0,1-4.9-1.98A6.717,6.717,0,0,1-64.137-24.41Zm45.3,8.169L-27.3-22.529l18.268-24.9q-1.485.2-2.525.3t-1.683.1a21.488,21.488,0,0,1-16.04-7.08,23.6,23.6,0,0,1-6.733-16.932,24.561,24.561,0,0,1,7.476-18.021A24.585,24.585,0,0,1-10.52-96.592,25.358,25.358,0,0,1,7.649-89.166a23.318,23.318,0,0,1,7.723,17.427q0,8.911-7.525,19.258Zm-5.941-55.646a14.124,14.124,0,0,0,4.208,10.4,13.97,13.97,0,0,0,10.248,4.258,13.889,13.889,0,0,0,10.2-4.208A13.97,13.97,0,0,0,4.134-71.69,13.97,13.97,0,0,0-.124-81.938a13.947,13.947,0,0,0-10.248-4.208,13.831,13.831,0,0,0-10.149,4.208A13.744,13.744,0,0,0-24.778-71.888ZM38.591-58.62a18.789,18.789,0,0,1-8.416-16.189,20.846,20.846,0,0,1,6.386-15.545,22.073,22.073,0,0,1,15.991-6.238,21.674,21.674,0,0,1,15.842,6.238,20.884,20.884,0,0,1,6.337,15.595q0,9.852-8.367,16.09a17.728,17.728,0,0,1,7.228,7.228,21.43,21.43,0,0,1,2.673,10.694q0,10.149-6.634,16.635T52.651-17.627q-10.595,0-17.476-6.535A21.636,21.636,0,0,1,28.244-40.6Q28.244-53.471,38.591-58.62Zm2.426-16.238a11.161,11.161,0,0,0,3.317,8.218,11.065,11.065,0,0,0,8.119,3.367,11.008,11.008,0,0,0,8.07-3.367,11.008,11.008,0,0,0,3.367-8.07,11.008,11.008,0,0,0-3.367-8.07,11.008,11.008,0,0,0-8.07-3.367,11.008,11.008,0,0,0-8.07,3.367A10.839,10.839,0,0,0,41.017-74.858ZM39.581-40.995a12.687,12.687,0,0,0,3.664,9.109,12.187,12.187,0,0,0,9.01,3.763,12.211,12.211,0,0,0,8.961-3.713,12.375,12.375,0,0,0,3.713-9.01,12.269,12.269,0,0,0-3.713-9.01,12.211,12.211,0,0,0-8.961-3.713,12.317,12.317,0,0,0-8.961,3.713A12.1,12.1,0,0,0,39.581-40.995Z" transform="translate(665.78 6147.502)" fill="#a21b43"/>
        <path id="パス_12295" data-name="パス 12295" d="M10.352-14v-3.887a7.925,7.925,0,0,0,3.887-.645,3.987,3.987,0,0,0,1.777-3.633,4.118,4.118,0,0,0-1.289-3.145,4.543,4.543,0,0,0-3.3-1.23,4.271,4.271,0,0,0-2.93.918,6.082,6.082,0,0,0-1.484,3.164H2.48q.7-4.258,2.891-6.24a8.777,8.777,0,0,1,6.113-1.982,9.072,9.072,0,0,1,6.465,2.344,7.817,7.817,0,0,1,2.5,6A7.43,7.43,0,0,1,17.168-15.9q3.75,2.207,3.75,7.168A8.718,8.718,0,0,1,18.184-2.09,9.809,9.809,0,0,1,11.172.488q-5.449,0-8.086-4A10.392,10.392,0,0,1,1.7-8.164H6.094A5.343,5.343,0,0,0,7.8-4.814a5.261,5.261,0,0,0,3.545,1.162A4.916,4.916,0,0,0,15-5.117a5.274,5.274,0,0,0,1.445-3.809,4.638,4.638,0,0,0-2.168-4.336A8.027,8.027,0,0,0,10.352-14ZM28.145-2.187a2.59,2.59,0,0,1,.8-1.895,2.612,2.612,0,0,1,1.914-.8,2.612,2.612,0,0,1,1.914.8,2.612,2.612,0,0,1,.8,1.914,2.635,2.635,0,0,1-.8,1.934,2.6,2.6,0,0,1-1.914.781,2.626,2.626,0,0,1-1.934-.781A2.65,2.65,0,0,1,28.145-2.187ZM44.668-25.9H39.453l2.5-4.258h7.266V0H44.668Z" transform="translate(604 6201)" fill="#a21b43"/>
        <path id="パス_12294" data-name="パス 12294" d="M-15.135-21.111a5.956,5.956,0,0,1,1.951-4.43A6.474,6.474,0,0,1-8.6-27.422a6.347,6.347,0,0,1,4.605,1.9,6.058,6.058,0,0,1,1.934,4.5A6.078,6.078,0,0,1-3.99-16.506a6.44,6.44,0,0,1-4.658,1.881,6.259,6.259,0,0,1-4.588-1.916A6.268,6.268,0,0,1-15.135-21.111Zm3.059.053a3.4,3.4,0,0,0,1.02,2.5,3.374,3.374,0,0,0,2.479,1.02,3.333,3.333,0,0,0,2.443-1.02,3.353,3.353,0,0,0,1.02-2.461,3.333,3.333,0,0,0-1.02-2.443A3.353,3.353,0,0,0-8.6-24.486a3.353,3.353,0,0,0-2.461,1.02A3.293,3.293,0,0,0-12.076-21.059Zm18.9-6.557,1.916,1.09L-6.8.439-8.736-.721ZM2.039-6.24A5.937,5.937,0,0,1,3.99-10.652a6.474,6.474,0,0,1,4.588-1.881,6.367,6.367,0,0,1,4.623,1.9,6.058,6.058,0,0,1,1.934,4.5,6.015,6.015,0,0,1-1.951,4.518A6.433,6.433,0,0,1,8.525.246a6.288,6.288,0,0,1-4.588-1.9A6.251,6.251,0,0,1,2.039-6.24Zm3.076.07a3.425,3.425,0,0,0,1,2.5A3.374,3.374,0,0,0,8.6-2.654a3.3,3.3,0,0,0,2.443-1.02,3.353,3.353,0,0,0,1.02-2.461A3.353,3.353,0,0,0,11.039-8.6a3.316,3.316,0,0,0-2.461-1.02A3.333,3.333,0,0,0,6.135-8.6,3.313,3.313,0,0,0,5.115-6.17Z" transform="translate(747 6182)" fill="#a21b43"/>
        <path id="パス_12296" data-name="パス 12296" d="M-6.727-9.383a2.647,2.647,0,0,1,.867-1.969,2.877,2.877,0,0,1,2.039-.836,2.821,2.821,0,0,1,2.047.844,2.692,2.692,0,0,1,.859,2,2.7,2.7,0,0,1-.859,2.008,2.862,2.862,0,0,1-2.07.836,2.782,2.782,0,0,1-2.039-.852A2.786,2.786,0,0,1-6.727-9.383Zm1.359.023A1.509,1.509,0,0,0-4.914-8.25a1.5,1.5,0,0,0,1.1.453A1.481,1.481,0,0,0-2.727-8.25a1.49,1.49,0,0,0,.453-1.094,1.481,1.481,0,0,0-.453-1.086,1.49,1.49,0,0,0-1.094-.453,1.49,1.49,0,0,0-1.094.453A1.464,1.464,0,0,0-5.367-9.359Zm8.4-2.914.852.484L-3.023.2-3.883-.32ZM.906-2.773a2.639,2.639,0,0,1,.867-1.961A2.877,2.877,0,0,1,3.813-5.57a2.83,2.83,0,0,1,2.055.844,2.692,2.692,0,0,1,.859,2A2.673,2.673,0,0,1,5.859-.719a2.859,2.859,0,0,1-2.07.828A2.8,2.8,0,0,1,1.75-.734,2.778,2.778,0,0,1,.906-2.773Zm1.367.031a1.522,1.522,0,0,0,.445,1.109,1.5,1.5,0,0,0,1.1.453,1.465,1.465,0,0,0,1.086-.453,1.49,1.49,0,0,0,.453-1.094A1.49,1.49,0,0,0,4.906-3.82a1.474,1.474,0,0,0-1.094-.453,1.481,1.481,0,0,0-1.086.453A1.472,1.472,0,0,0,2.273-2.742Z" transform="translate(670 6200)" fill="#a21b43"/>
        <path id="パス_12501" data-name="パス 12501" d="M-28.152,0h5.7V-1.176H-24.66c-.432,0-.984.036-1.44.084,1.872-1.788,3.228-3.552,3.228-5.256A2.5,2.5,0,0,0-25.536-9a3.429,3.429,0,0,0-2.688,1.32l.78.768A2.4,2.4,0,0,1-25.7-7.9a1.434,1.434,0,0,1,1.5,1.62c0,1.452-1.344,3.168-3.948,5.472ZM-17.22.156c1.728,0,2.856-1.536,2.856-4.608C-14.364-7.5-15.492-9-17.22-9s-2.856,1.488-2.856,4.548S-18.948.156-17.22.156Zm0-1.092c-.9,0-1.536-.96-1.536-3.516,0-2.532.636-3.456,1.536-3.456s1.536.924,1.536,3.456C-15.684-1.9-16.32-.936-17.22-.936ZM-11.568,0h5.04V-1.14H-8.256v-7.7H-9.3a5.194,5.194,0,0,1-1.92.684v.876h1.584V-1.14h-1.932ZM-2.76-6.1c0-1.152.6-1.836,1.356-1.836.96,0,1.62.792,1.752,2.532a2.1,2.1,0,0,1-1.68,1.08C-2.256-4.32-2.76-4.968-2.76-6.1ZM-1.644.156c1.7,0,3.288-1.392,3.288-4.872C1.644-7.644.276-9-1.416-9A2.7,2.7,0,0,0-4.044-6.1c0,1.848,1,2.772,2.472,2.772A2.655,2.655,0,0,0,.372-4.356C.288-1.836-.636-.972-1.7-.972a1.963,1.963,0,0,1-1.44-.66L-3.9-.78A3.031,3.031,0,0,0-1.644.156Zm8.76-2.94V-4.908H9.528v2.124Zm7.776,0H10.68V-4.908h3.348V-5.952H10.68V-7.608H14.3v-1.08H7.356c.156-.36.324-.756.468-1.128l-1.128-.3A9.709,9.709,0,0,1,4.08-6.048a8.874,8.874,0,0,1,.972.72A10.917,10.917,0,0,0,6.78-7.608H9.528v1.656H6v3.168H4.068V-1.7h5.46V.948H10.68V-1.7h4.212ZM19.2-7.944h8.784v-1H23.616v-1.128H22.452V-8.94h-4.32v3.384c0,1.74-.084,4.176-1.056,5.88a5.051,5.051,0,0,1,.912.612C19.032-.888,19.2-3.672,19.2-5.556Zm5.772,2.112v1.056H22.38V-5.832Zm1.092,1.92v-1.92H27.9v-.912H26.064v-.912H24.972v.912H22.38v-.912H21.324v.912H19.548v.912h1.776v1.92Zm-.5,1.524a5.531,5.531,0,0,1-1.776,1.3,5.162,5.162,0,0,1-1.74-1.3Zm.936-.936-.2.036H19.68v.9h1.836l-.54.2A6.388,6.388,0,0,0,22.632-.636,16.731,16.731,0,0,1,19.2.024a3.421,3.421,0,0,1,.468.936,15.753,15.753,0,0,0,4.08-.984,13.58,13.58,0,0,0,3.8,1A3.974,3.974,0,0,1,28.2.012a15.778,15.778,0,0,1-3.252-.636A5.788,5.788,0,0,0,27.18-2.952Z" transform="translate(734 6198.646)" fill="#a21b43"/>
        <path id="パス_12500" data-name="パス 12500" d="M.528,0h5.7V-1.176H4.02c-.432,0-.984.036-1.44.084C4.452-2.88,5.808-4.644,5.808-6.348A2.5,2.5,0,0,0,3.144-9,3.429,3.429,0,0,0,.456-7.68l.78.768A2.4,2.4,0,0,1,2.976-7.9a1.434,1.434,0,0,1,1.5,1.62C4.476-4.824,3.132-3.108.528-.8ZM11.46.156c1.728,0,2.856-1.536,2.856-4.608C14.316-7.5,13.188-9,11.46-9S8.6-7.512,8.6-4.452,9.732.156,11.46.156Zm0-1.092c-.9,0-1.536-.96-1.536-3.516,0-2.532.636-3.456,1.536-3.456S13-6.984,13-4.452C13-1.9,12.36-.936,11.46-.936ZM16.608,0h5.7V-1.176H20.1c-.432,0-.984.036-1.44.084,1.872-1.788,3.228-3.552,3.228-5.256A2.5,2.5,0,0,0,19.224-9a3.429,3.429,0,0,0-2.688,1.32l.78.768a2.4,2.4,0,0,1,1.74-.984,1.434,1.434,0,0,1,1.5,1.62c0,1.452-1.344,3.168-3.948,5.472ZM27.336.156c1.62,0,2.952-.936,2.952-2.532a2.236,2.236,0,0,0-1.824-2.208v-.06A2.135,2.135,0,0,0,29.988-6.72c0-1.452-1.116-2.28-2.7-2.28a3.722,3.722,0,0,0-2.532,1.068l.72.864A2.572,2.572,0,0,1,27.24-7.9,1.227,1.227,0,0,1,28.6-6.624c0,.888-.576,1.548-2.316,1.548v1.02c1.992,0,2.616.636,2.616,1.608a1.485,1.485,0,0,1-1.68,1.476,2.854,2.854,0,0,1-2.088-.972l-.672.888A3.666,3.666,0,0,0,27.336.156Zm-23.7,15.06V13.092H6.048v2.124Zm7.776,0H7.2V13.092h3.348V12.048H7.2V10.392h3.624V9.312H3.876c.156-.36.324-.756.468-1.128l-1.128-.3A9.709,9.709,0,0,1,.6,11.952a8.874,8.874,0,0,1,.972.72A10.917,10.917,0,0,0,3.3,10.392H6.048v1.656H2.52v3.168H.588V16.3h5.46v2.652H7.2V16.3h4.212Zm4.308-5.16H24.5v-1H20.136V7.932H18.972V9.06h-4.32v3.384c0,1.74-.084,4.176-1.056,5.88a5.051,5.051,0,0,1,.912.612c1.044-1.824,1.212-4.608,1.212-6.492Zm5.772,2.112v1.056H18.9V12.168Zm1.092,1.92v-1.92H24.42v-.912H22.584v-.912H21.492v.912H18.9v-.912H17.844v.912H16.068v.912h1.776v1.92Zm-.5,1.524a5.531,5.531,0,0,1-1.776,1.3,5.162,5.162,0,0,1-1.74-1.3Zm.936-.936-.2.036H16.2v.9h1.836l-.54.2a6.388,6.388,0,0,0,1.656,1.548,16.731,16.731,0,0,1-3.432.66,3.421,3.421,0,0,1,.468.936,15.753,15.753,0,0,0,4.08-.984,13.58,13.58,0,0,0,3.8,1,3.974,3.974,0,0,1,.648-.96,15.778,15.778,0,0,1-3.252-.636A5.788,5.788,0,0,0,23.7,15.048Z" transform="translate(569 6181.646)" fill="#a21b43"/>
        <line id="線_22" data-name="線 22" x2="136" transform="translate(569.5 6154.5)" fill="none" stroke="#a21b43" stroke-width="1"/>
      </g>
      <g id="グループ_91" data-name="グループ 91" transform="translate(434.929 7387.118)">
        <path id="パス_116" data-name="パス 116" d="M253.44,11.954a6.072,6.072,0,1,0-7.386-4.378A6.07,6.07,0,0,0,253.44,11.954Z" transform="translate(-151.413 0)" fill="#a21b43"/>
        <path id="パス_117" data-name="パス 117" d="M179.262,222.955l-.5,5.229a14.156,14.156,0,0,1,2.267,1.828,13.99,13.99,0,1,1-23.489,13.138L154.8,249.2a18.8,18.8,0,1,0,24.465-26.248Z" transform="translate(-71.614 -195.37)" fill="#a21b43"/>
        <path id="パス_118" data-name="パス 118" d="M95.415,145.558c5.316-.058,7.829-2.29,8.374-7.433l1.542-16.148a4.665,4.665,0,0,0-4.117-5.361A6.142,6.142,0,0,0,96.5,118.5l-7.584,7.463-7.934.667a2.461,2.461,0,0,0-2.256,2.453v.148a2.462,2.462,0,0,0,2.461,2.461h9.358L94.8,128.55l-.711,7.875-10.366.756c-3.008.119-4.335,1.325-5.468,4.027l-4.892,13.44a3.273,3.273,0,0,0,5.971,2.684l5.514-11.775h10.57Z" transform="translate(0 -102.171)" fill="#a21b43"/>
      </g>
    </g>
  </g>
</svg>
