<svg xmlns="http://www.w3.org/2000/svg" width="320" height="278" viewBox="0 0 320 278">
  <g id="グループ_955" data-name="グループ 955" transform="translate(-120 -6575)">
    <rect id="長方形_64" data-name="長方形 64" width="320" height="278" transform="translate(120 6575)" fill="#fff"/>
    <path id="パス_12479" data-name="パス 12479" d="M10.038-5.152H4.984v-.9h5.054Zm-5.054,2.3v-.91h5.054v.91ZM13.23-8.61v-1.568H6.4c.168-.434.308-.868.448-1.3l-1.722-.392a13.967,13.967,0,0,1-.546,1.694H.812V-8.61H3.878A10.872,10.872,0,0,1,.392-4.522,9.383,9.383,0,0,1,1.484-3.248,10.261,10.261,0,0,0,3.332-4.886V1.2H4.984V-1.47h5.054v.84c0,.2-.084.266-.322.28s-1.05,0-1.764-.042a6.91,6.91,0,0,1,.5,1.61,6.166,6.166,0,0,0,2.478-.28c.574-.252.728-.7.728-1.526V-7.5H5.18A11.705,11.705,0,0,0,5.74-8.61Zm2.884,4.942A10.179,10.179,0,0,1,15.372-.42a8.229,8.229,0,0,1,1.274.6,12.944,12.944,0,0,0,.84-3.612Zm3.038.252a16.566,16.566,0,0,1,.812,2.6L21.2-1.26a15.435,15.435,0,0,0-.868-2.52Zm-.294-3.458c.168.308.336.658.49,1.008L18-5.81c.882-1.134,1.848-2.548,2.618-3.766l-1.358-.63a25.389,25.389,0,0,1-1.246,2.268c-.14-.182-.308-.364-.476-.56.5-.77,1.064-1.862,1.568-2.814l-1.442-.532a17.747,17.747,0,0,1-1.022,2.436c-.112-.1-.224-.2-.322-.28l-.8,1.134a13.738,13.738,0,0,1,1.652,1.9c-.224.322-.448.63-.658.9l-1.008.042.14,1.442,2.03-.126V1.232h1.442V-4.494l.714-.056a6.712,6.712,0,0,1,.182.714L21.2-4.368a11.868,11.868,0,0,0-1.232-2.968Zm7.294,3.7V-.994h-3.08V-3.178ZM21.532,1.2h1.54V.462h3.08v.686h1.6v-5.8H21.532Zm.994-8.6a16.229,16.229,0,0,0,1.946-2.59,19.524,19.524,0,0,0,2.058,2.59Zm1.106-4.27A13.469,13.469,0,0,1,20.1-7.49a7.664,7.664,0,0,1,.952,1.456,10.993,10.993,0,0,0,1.218-1.092V-5.88H26.88V-7.028a11.942,11.942,0,0,0,1.022.91,10.283,10.283,0,0,1,1.022-1.554,13.739,13.739,0,0,1-3.71-3.99ZM43.61-6.846V-8.47H39.956v-3.164H38.3V-8.47H34.748v1.624h2.9a13.283,13.283,0,0,1-3.458,5.068V-8.3a22.09,22.09,0,0,0,1.442-2.954l-1.652-.532a14.363,14.363,0,0,1-3.542,5.376,12.089,12.089,0,0,1,.966,1.75,12.689,12.689,0,0,0,1.148-1.26V1.19h1.638v-2.8A9.233,9.233,0,0,1,35.322-.378,14.226,14.226,0,0,0,38.3-4.62V1.218h1.652V-4.9A14.311,14.311,0,0,0,42.784-.448a5.934,5.934,0,0,1,1.246-1.33,13.694,13.694,0,0,1-3.346-5.068Zm14.966-4.48H54.824v1.4h2.324v1.974H54.824v1.4h3.752ZM48.552-9.38v2.66H47.6V-9.38ZM47.6-2.548V-5.292h.952v2.744Zm2.282-8.288h-3.57V.014H47.6V-1.092h2.282Zm3.066.882v2.086h-.966V-9.954Zm1.344,8.442V-2.884h-2.31v-1.2h2.142V-5.446H51.982V-6.51H54.39v-4.816H50.456V1.19h1.526v-2.7Zm2.772-2.982a8.766,8.766,0,0,1-.658,1.736,9.761,9.761,0,0,1-.6-1.736Zm.77-1.386-.266.042H54.46v1.344h1.05l-.952.2a13.443,13.443,0,0,0,.98,2.8A5.709,5.709,0,0,1,53.326.028a5.189,5.189,0,0,1,.826,1.218,7.627,7.627,0,0,0,2.212-1.47A5.412,5.412,0,0,0,57.988,1.19a5.5,5.5,0,0,1,.98-1.2,4.908,4.908,0,0,1-1.694-1.344,10.549,10.549,0,0,0,1.484-4.284Zm9.422-3.654h.49v1.092h4.13a15.879,15.879,0,0,1-1.2,4.172,16.883,16.883,0,0,1-1.288-4.144l-1.6.322a19.836,19.836,0,0,0,1.89,5.544A7.59,7.59,0,0,1,67.256-.322Zm-3.6,5.712h1.988v1.26c-.672.084-1.344.182-1.988.266Zm0-2.884h1.988v1.4H63.658Zm1.988-2.828V-8.2H63.658v-1.33Zm6.972-.588-.28.042H68.152v-.994H61.124v1.54h.952V-2.1c-.476.056-.91.1-1.288.14L61.11-.294c1.288-.2,2.926-.448,4.536-.728v2.24h1.61V-.1A6.659,6.659,0,0,1,68.18,1.12a9.591,9.591,0,0,0,2.492-2.142A8.832,8.832,0,0,0,73.08,1.12,6.043,6.043,0,0,1,74.228-.252,7.7,7.7,0,0,1,71.694-2.52,18.582,18.582,0,0,0,73.71-9.856Zm13.9.532H82.88v-.7h3.64Zm0,1.82H82.88V-8.5h3.64Zm1.68-3.682H81.27v4.844H88.2Zm-9.338-.392A9.986,9.986,0,0,1,75.95-9.1a10.331,10.331,0,0,1,.826,1.414A14.823,14.823,0,0,0,80.444-11.2Zm.364,3.052a12.567,12.567,0,0,1-3.43,3.6,12.425,12.425,0,0,1,.8,1.722,13.152,13.152,0,0,0,1.26-1.134V1.2h1.61V-6.4a14.783,14.783,0,0,0,1.218-1.764Zm9.716,4.956h-1.9v-.8h1.624V-5.992H80.556v1.358h4.788v.8H80.22v1.414h1.96l-1.036.686A11.793,11.793,0,0,1,82.754.21L84-.672a14.72,14.72,0,0,0-1.6-1.75h2.94V-.476c0,.154-.056.21-.252.224s-.84,0-1.428-.028A5.85,5.85,0,0,1,84.182,1.2a5.542,5.542,0,0,0,2.17-.238c.546-.238.686-.63.686-1.4V-2.422h1.918ZM95.06-4.97l-.252-1.036c-1.288.5-2.632,1.022-3.514,1.3l.784,1.344c.756-.336,1.68-.77,2.562-1.2l.168.966c1.344-.1,3.052-.224,4.746-.378a5.42,5.42,0,0,1,.294.7l1.26-.56a5.784,5.784,0,0,0-.476-1.008,15.445,15.445,0,0,1,2.226,1.526l1.2-.994A17.791,17.791,0,0,0,101.136-6.1l-.854.686c-.224-.336-.476-.672-.7-.966l-1.176.49c.168.238.35.49.5.756l-1.442.07a34.038,34.038,0,0,0,2.6-2.73l-1.3-.6c-.35.5-.784,1.064-1.274,1.638-.21-.168-.448-.336-.7-.518.406-.476.868-1.05,1.3-1.61L97.79-9h5.8v-1.484H98.532v-1.358H96.824v1.358H91.9V-9h4.578c-.2.35-.42.728-.658,1.078l-.336-.21-.644.784A13.959,13.959,0,0,0,92.82-8.68l-1.106.91a11.032,11.032,0,0,1,2.1,1.54l1.022-.854a16.892,16.892,0,0,1,1.764,1.3c-.266.266-.532.532-.8.784Zm6.468-1.414a20.658,20.658,0,0,0,2.156-1.722L102.2-8.82a12.718,12.718,0,0,1-1.89,1.778Zm-3,2.674H96.824v.9H91.448v1.54h5.376V1.218h1.708V-1.274h5.488v-1.54H98.532Z" transform="translate(227 6604.646)"/>
    <path id="パス_12477" data-name="パス 12477" d="M6.9-7.98a.907.907,0,0,0-.9-.9.907.907,0,0,0-.9.9.907.907,0,0,0,.9.9A.907.907,0,0,0,6.9-7.98ZM2.04-8.868l-.348.348,3.96,3.96L1.68-.588l.348.348L6-4.212,9.96-.252,10.308-.6,6.348-4.56l3.96-3.96L9.96-8.868,6-4.908ZM2.58-5.46a.907.907,0,0,0-.9.9.907.907,0,0,0,.9.9.907.907,0,0,0,.9-.9A.907.907,0,0,0,2.58-5.46Zm6.84,1.8a.907.907,0,0,0,.9-.9.907.907,0,0,0-.9-.9.907.907,0,0,0-.9.9A.907.907,0,0,0,9.42-3.66ZM5.1-1.14a.907.907,0,0,0,.9.9.907.907,0,0,0,.9-.9.907.907,0,0,0-.9-.9A.907.907,0,0,0,5.1-1.14ZM18.264-6.528a7.214,7.214,0,0,1,.048.864c0,2-.264,3.72-2.124,4.86a4.639,4.639,0,0,1-1.068.528L16,.444c3.06-1.524,3.348-3.72,3.348-6.972Zm5.28-2.148a5.926,5.926,0,0,1-.84.072H15.816a12.656,12.656,0,0,1-1.368-.1v1.08a13.589,13.589,0,0,1,1.368-.072h6.828A8.1,8.1,0,0,1,20.028-5l.792.636A11.57,11.57,0,0,0,23.808-7.68c.084-.132.24-.312.324-.432ZM26.784-.72c.408-.024.828-.06,1.26-.06h7.188c.324,0,.732.024,1.092.06V-1.872a8.215,8.215,0,0,1-1.092.06H28.044c-.432,0-.852-.024-1.26-.06Zm1.032-6.012q.558-.036,1.188-.036H34.14c.4,0,.852.012,1.188.036v-1.08a11.528,11.528,0,0,1-1.188.06H28.992c-.384,0-.792-.024-1.176-.06Zm20-2.616-.636.264a13.713,13.713,0,0,1,.972,1.668L48.8-7.7A13.848,13.848,0,0,0,47.82-9.348Zm1.32-.48-.636.264a11.43,11.43,0,0,1,1,1.656l.648-.288A13.953,13.953,0,0,0,49.14-9.828ZM41.256-3.612A15.762,15.762,0,0,1,39.408-.348l1.02.432a17.4,17.4,0,0,0,1.764-3.3A26.675,26.675,0,0,0,43.284-6.96c.048-.264.144-.612.216-.876l-1.068-.216A18.343,18.343,0,0,1,41.256-3.612Zm5.9-.456A35.959,35.959,0,0,1,48.516.06l1.068-.348c-.312-1.08-.948-2.916-1.44-4.1a38.792,38.792,0,0,0-1.752-3.792l-.972.324A30.687,30.687,0,0,1,47.16-4.068Zm5.664.048c.372-.036,1.008-.06,1.668-.06H61.08c.54,0,1.044.048,1.284.06V-5.2c-.264.024-.7.06-1.3.06H54.492c-.672,0-1.308-.036-1.668-.06ZM72.96-6.852v-1.5a9.1,9.1,0,0,1,.06-.984H71.94a6.691,6.691,0,0,1,.06.984v1.5H68.58V-8.388a7.407,7.407,0,0,1,.06-.876H67.572c.012.12.048.492.048.876v1.536H66.336a8.854,8.854,0,0,1-1.212-.084v1.044c.144-.012.684-.048,1.212-.048H67.62V-4c0,.456-.036.972-.048,1.092h1.056c-.012-.12-.048-.648-.048-1.092V-5.94H72v.5c0,3.36-1.092,4.392-3.276,5.232l.8.756C72.276-.672,72.96-2.316,72.96-5.52v-.42h1.32c.528,0,.972.024,1.092.036V-6.912a8.416,8.416,0,0,1-1.092.06Zm6.972-2.16c.024.228.048.648.048.864v4c0,.36-.036.744-.048.924h1.1C81.012-3.444,81-3.84,81-4.14V-8.148c0-.288.012-.636.036-.864ZM85.488-9.1c.024.288.06.636.06,1.032v1.9c0,2.268-.144,3.24-1.008,4.236a5.536,5.536,0,0,1-2.88,1.6l.78.828A6.409,6.409,0,0,0,85.3-1.26c.864-1.032,1.248-1.98,1.248-4.86V-8.064c0-.4.024-.744.048-1.032ZM91.464-4.02c.372-.036,1.008-.06,1.668-.06H99.72c.54,0,1.044.048,1.284.06V-5.2c-.264.024-.7.06-1.3.06H93.132c-.672,0-1.308-.036-1.668-.06ZM106.74-9.96a12.331,12.331,0,0,1-3.252,4.812,5.107,5.107,0,0,1,.54.9,12.175,12.175,0,0,0,1.416-1.584V.9h.876V-7.116a17.828,17.828,0,0,0,1.308-2.568Zm7.86,3.828V-7h-3.468v-2.88h-.876V-7h-3.372v.864h2.9a12.191,12.191,0,0,1-3.324,4.908,5.177,5.177,0,0,1,.672.684,13.4,13.4,0,0,0,3.12-4.62V.924h.876V-5.412A14.568,14.568,0,0,0,114.24-.588a3.2,3.2,0,0,1,.672-.72,12.661,12.661,0,0,1-3.264-4.824ZM127.3-9.5h-3.048v.768H126.5v2.16h-2.256v.768H127.3Zm-8.088,1.092V-5.7h-1.38V-8.412Zm-1.38,6.3v-2.8h1.38v2.8ZM119.952-9.2H117.1V-.372h.732v-.936h2.124Zm3.036.456v2.2h-1.464v-2.2Zm.744,7.248v-.756h-2.208V-3.744h2V-4.5h-2V-5.784h2.256V-9.5H120.7V.888h.828V-1.5Zm2.76-2.628a7.693,7.693,0,0,1-.876,2.184,8.453,8.453,0,0,1-.8-2.184Zm.42-.78-.132.024h-2.892v.756h.864L124.14-4a10.915,10.915,0,0,0,.984,2.724A5.259,5.259,0,0,1,123.072.252a2.436,2.436,0,0,1,.456.648,6.14,6.14,0,0,0,2.04-1.464,4.765,4.765,0,0,0,1.548,1.44,3.215,3.215,0,0,1,.552-.648,4.377,4.377,0,0,1-1.6-1.416,8.709,8.709,0,0,0,1.356-3.576ZM133.464-7.5h2.424v-.816h-2.424V-10h-.852v1.68H131.34c.132-.408.252-.852.36-1.272l-.84-.168a9.458,9.458,0,0,1-1.2,3.156,5.235,5.235,0,0,1,.792.336,9.172,9.172,0,0,0,.6-1.236h1.56v1.26H129.7v.816h2.916v1.2h-2.364V-.06h.816V-3.408h1.548V.9h.852V-3.408h1.656V-.96c0,.12-.036.156-.168.156s-.516.012-1.032,0a2.725,2.725,0,0,1,.264.78,3.707,3.707,0,0,0,1.392-.144c.3-.144.36-.372.36-.78V-4.224h-2.472v-1.2h2.892V-6.24h-2.892Zm4.6-1.452h-.84v6.6h.84Zm1.284-.96V-.3c0,.2-.06.252-.252.264s-.876,0-1.584-.024a5.181,5.181,0,0,1,.288.936,5.9,5.9,0,0,0,1.92-.18c.36-.156.492-.42.492-1.008v-9.6ZM153.36-8.04v-.816h-4.476v-1.176h-.912v1.176h-4.4v3.432c0,1.728-.084,4.152-1.068,5.856a3.449,3.449,0,0,1,.732.5c1.032-1.812,1.176-4.512,1.176-6.36V-8.04Zm-2.88,2.076V-4.7h-2.9v-1.26Zm.864,1.98v-1.98h1.932V-6.7h-1.932V-7.74h-.864V-6.7h-2.9V-7.74h-.852V-6.7h-1.908v.732h1.908v1.98ZM151.152-2.5a5.515,5.515,0,0,1-2.028,1.524A5.375,5.375,0,0,1,147.18-2.5Zm.744-.768-.156.036h-6.78V-2.5h1.848l-.48.18A6.038,6.038,0,0,0,148.212-.6a16.278,16.278,0,0,1-3.7.768,3.084,3.084,0,0,1,.372.744A16.253,16.253,0,0,0,149.112-.12,13.688,13.688,0,0,0,153.06.936a2.646,2.646,0,0,1,.516-.756,15.259,15.259,0,0,1-3.528-.756,5.927,5.927,0,0,0,2.412-2.388Zm5.184-5.952a5.24,5.24,0,0,1-.084.84,37.03,37.03,0,0,0-.54,4.992,14.36,14.36,0,0,0,.456,3.768l.852-.072c-.012-.12-.036-.288-.036-.408a2.039,2.039,0,0,1,.06-.528,25.654,25.654,0,0,1,.84-2.628l-.5-.4c-.2.48-.48,1.188-.672,1.728a10.5,10.5,0,0,1-.108-1.62,29.183,29.183,0,0,1,.588-4.788,5.629,5.629,0,0,1,.2-.8Zm6.06,7.368c0,.792-.288,1.284-1.3,1.284-.852,0-1.428-.336-1.428-.924,0-.552.612-.948,1.5-.948a3.716,3.716,0,0,1,1.212.192C163.14-2.1,163.14-1.956,163.14-1.848Zm3.24.588a8.1,8.1,0,0,0-2.34-1.548c-.048-1-.132-2.184-.144-3.372.708-.048,1.4-.12,2.052-.228v-.936a15.137,15.137,0,0,1-2.052.276c.012-.552.024-1.1.036-1.428A6.732,6.732,0,0,1,164-9.2h-1.092a4.855,4.855,0,0,1,.06.72v1.476c-.372.012-.744.024-1.116.024a18.578,18.578,0,0,1-2.016-.108v.912c.7.036,1.32.072,1.992.072.384,0,.756-.012,1.14-.024.012.984.084,2.124.12,3.036a5.3,5.3,0,0,0-1.1-.108c-1.56,0-2.448.816-2.448,1.812,0,1.056.876,1.716,2.472,1.716a1.8,1.8,0,0,0,2.064-1.944v-.216A9.018,9.018,0,0,1,165.864-.48ZM168.528,0h5.532V-.948h-2.436c-.444,0-.984.048-1.44.084,2.064-1.956,3.444-3.744,3.444-5.5a2.413,2.413,0,0,0-2.556-2.6,3.364,3.364,0,0,0-2.592,1.3l.636.624a2.463,2.463,0,0,1,1.824-1.02,1.546,1.546,0,0,1,1.62,1.74c0,1.512-1.272,3.264-4.032,5.676Zm10.428.156c1.668,0,2.736-1.524,2.736-4.584s-1.068-4.536-2.736-4.536-2.748,1.476-2.748,4.536S177.276.156,178.956.156Zm0-.876c-1.008,0-1.68-1.116-1.68-3.708,0-2.568.672-3.648,1.68-3.648s1.668,1.08,1.668,3.648C180.624-1.836,179.952-.72,178.956-.72ZM184.3,0h4.824V-.912h-1.764V-8.8h-.84a5.573,5.573,0,0,1-1.824.624v.7h1.56V-.912H184.3Zm10.176-.7c-1.1,0-1.764-1-1.9-2.82a2.293,2.293,0,0,1,1.8-1.128c1.068,0,1.584.756,1.584,1.944S195.312-.7,194.472-.7Zm2.364-7.368a2.7,2.7,0,0,0-2.052-.9c-1.7,0-3.252,1.32-3.252,4.764,0,2.9,1.248,4.356,2.94,4.356a2.641,2.641,0,0,0,2.52-2.856c0-1.836-.948-2.76-2.436-2.76a2.736,2.736,0,0,0-2,1.068c.048-2.736,1.068-3.66,2.268-3.66a1.86,1.86,0,0,1,1.416.672Zm5.112,5.376V-5.064h2.688v2.376Zm7.932,0h-4.344V-5.064h3.516V-5.9h-3.516V-7.728h3.792v-.864h-7.152c.192-.408.384-.84.552-1.26l-.9-.216a10.155,10.155,0,0,1-2.7,4.14,5.522,5.522,0,0,1,.768.564,11.088,11.088,0,0,0,1.824-2.364h2.916V-5.9H201.06v3.216h-1.968v.864h5.544V.924h.9V-1.824h4.344ZM214.608.156a2.561,2.561,0,0,0,2.82-2.508,2.262,2.262,0,0,0-1.872-2.232v-.048a2.193,2.193,0,0,0,1.572-2.124c0-1.416-1.08-2.208-2.556-2.208a3.522,3.522,0,0,0-2.46,1.056l.588.7a2.745,2.745,0,0,1,1.824-.876,1.374,1.374,0,0,1,1.488,1.416c0,.948-.624,1.68-2.436,1.68v.84c2.028,0,2.736.708,2.736,1.764a1.62,1.62,0,0,1-1.788,1.632,2.908,2.908,0,0,1-2.184-1.008l-.552.72A3.641,3.641,0,0,0,214.608.156Zm7.728-3.828a15.067,15.067,0,0,0,.132-2.016h5.484v2.016Zm5.616-4.86V-6.54h-5.484V-8.532Zm.924-.876h-7.308v3.672c0,1.908-.192,4.344-2.1,6.024a3.377,3.377,0,0,1,.66.648A6.769,6.769,0,0,0,222.192-2.8h5.76V-.4c0,.264-.1.348-.372.36s-1.236.012-2.244-.024a3.778,3.778,0,0,1,.384.924A9.649,9.649,0,0,0,228.252.7c.444-.144.624-.456.624-1.08Zm8.748,7.776c0,.816-.42,1.224-1.3,1.224-1.14,0-1.8-.36-1.8-1.02s.7-1.068,1.92-1.068a5.4,5.4,0,0,1,1.164.12C237.612-2.076,237.624-1.824,237.624-1.632Zm.8-4.488c.972-.024,2.5-.1,3.552-.192l-.036-.912c-1.068.144-2.568.2-3.516.228,0-.468-.012-.888,0-1.212a10.349,10.349,0,0,1,.1-1.176h-1.152a8.711,8.711,0,0,1,.1,1.176c.012.5.012,1.488.012,2.172,0,.708.048,1.8.1,2.76a7.119,7.119,0,0,0-1.008-.072c-2.052,0-2.988.888-2.988,1.956,0,1.356,1.212,1.884,2.844,1.884,1.584,0,2.184-.84,2.184-1.812,0-.216-.012-.48-.024-.792a8.3,8.3,0,0,1,3.084,1.956l.576-.888a9.429,9.429,0,0,0-3.7-2.028c-.06-1.032-.12-2.184-.12-2.964Zm9.348-3.348c-.012.288-.048.648-.1,1.02a31.177,31.177,0,0,0-.36,3.84,14.54,14.54,0,0,0,.12,1.884l.936-.072a4.961,4.961,0,0,1-.024-1.452c.144-1.56,1.512-3.708,2.988-3.708,1.26,0,1.884,1.344,1.884,3.216,0,2.988-2.016,4.02-4.6,4.416l.564.864c2.952-.54,5.028-1.992,5.028-5.292,0-2.5-1.14-4.08-2.724-4.08-1.5,0-2.748,1.476-3.216,2.7a22.027,22.027,0,0,1,.552-3.3ZM267.2-6.7h-4.14v-.516h4.14Zm0,1.008h-4.14v-.54h4.14Zm0,1.02h-4.14v-.54h4.14ZM262.224-7.7v3.528h5.844V-7.7h-2.88l.216-.6h3.648v-.648h-2.04c.2-.264.444-.576.66-.912l-.84-.192a8.5,8.5,0,0,1-.672,1.1h-2.016a4.017,4.017,0,0,0-.672-1.08l-.72.18a4.59,4.59,0,0,1,.54.9h-2.016V-8.3h3.288c-.048.192-.1.408-.144.6Zm-1.284-.612A7.688,7.688,0,0,0,259.3-9.792l-.6.48A7.112,7.112,0,0,1,260.3-7.764Zm-.6,7.332A7.835,7.835,0,0,1,262.092.444l.648-.564a9.322,9.322,0,0,0-1.788-1.38ZM266.5-2.94c.936,0,1.836-.024,2.46-.048a3.169,3.169,0,0,1,.24-.72c-1.524.084-4.62.12-6,.072a2.89,2.89,0,0,1-2.448-1.032V-6.924h-2.4v.7h1.584v1.692a17.6,17.6,0,0,1-1.656.96l.36.744c.636-.408,1.224-.8,1.812-1.212a3.454,3.454,0,0,0,2.76,1.08c.6.024,1.5.036,2.436.024v.732H258.3v.7h7.344V-.048c0,.156-.048.2-.252.2s-.864.024-1.632,0a2.687,2.687,0,0,1,.3.756A7.154,7.154,0,0,0,266.028.78c.372-.12.468-.348.468-.816V-1.512h2.616v-.7H266.5Zm6.924-6.372v.888h2.952c.024.456.072.984.156,1.536L276-6.972c-.732,3.36-2.208,5.772-4.86,7.152a5.841,5.841,0,0,1,.8.708,10.608,10.608,0,0,0,4.788-6.7A10.356,10.356,0,0,0,281.5.876a4.24,4.24,0,0,1,.72-.744,10.271,10.271,0,0,1-4.98-9.444Z" transform="translate(137 6833.646)"/>
    <g id="グループ_81" data-name="グループ 81" transform="translate(0 602)">
      <path id="パス_12313" data-name="パス 12313" d="M-59.277-64.746H-96.484V-75.391h56.2L-87.842,2.588l-9.033-5.713Zm63.135,0H-33.35V-75.391h56.2L-24.707,2.588-33.74-3.125ZM17.725-5.469a6.475,6.475,0,0,1,2-4.736,6.53,6.53,0,0,1,4.785-2,6.53,6.53,0,0,1,4.785,2,6.53,6.53,0,0,1,2,4.785,6.587,6.587,0,0,1-2,4.834,6.507,6.507,0,0,1-4.785,1.953A6.566,6.566,0,0,1,19.678-.586,6.625,6.625,0,0,1,17.725-5.469ZM89.258-21.045h8.008v10.352H89.258V0H77.881V-10.693H40.869L89.258-81.006Zm-11.377,0V-46.289L60.5-21.045Z" transform="translate(250 6186)" fill="#a21b43"/>
      <path id="パス_12311" data-name="パス 12311" d="M6.953-15.684a7.412,7.412,0,0,1-3.32-6.387A8.224,8.224,0,0,1,6.152-28.2a8.708,8.708,0,0,1,6.309-2.461,8.551,8.551,0,0,1,6.25,2.461,8.239,8.239,0,0,1,2.5,6.152,7.583,7.583,0,0,1-3.3,6.348,6.994,6.994,0,0,1,2.852,2.852,8.455,8.455,0,0,1,1.055,4.219A8.779,8.779,0,0,1,19.2-2.07,9.183,9.183,0,0,1,12.5.488,9.61,9.61,0,0,1,5.605-2.09,8.536,8.536,0,0,1,2.871-8.574Q2.871-13.652,6.953-15.684ZM7.91-22.09a4.4,4.4,0,0,0,1.309,3.242,4.365,4.365,0,0,0,3.2,1.328,4.343,4.343,0,0,0,3.184-1.328,4.343,4.343,0,0,0,1.328-3.184,4.343,4.343,0,0,0-1.328-3.184,4.343,4.343,0,0,0-3.184-1.328,4.343,4.343,0,0,0-3.184,1.328A4.276,4.276,0,0,0,7.91-22.09ZM7.344-8.73A5.005,5.005,0,0,0,8.789-5.137a4.808,4.808,0,0,0,3.555,1.484,4.817,4.817,0,0,0,3.535-1.465,4.882,4.882,0,0,0,1.465-3.555,4.84,4.84,0,0,0-1.465-3.555,4.817,4.817,0,0,0-3.535-1.465,4.859,4.859,0,0,0-3.535,1.465A4.772,4.772,0,0,0,7.344-8.73Zm19.043-6.543q0-7.207,3.359-11.5a8.955,8.955,0,0,1,7.285-3.887,8.955,8.955,0,0,1,7.285,3.887q3.359,4.3,3.359,11.7,0,7.383-3.359,11.68A8.939,8.939,0,0,1,37.051.488a9.042,9.042,0,0,1-7.3-3.887Q26.387-7.7,26.387-15.273Zm4.473.02A17.869,17.869,0,0,0,32.6-6.914q1.738,3.262,4.434,3.262,2.676,0,4.434-3.262A17.04,17.04,0,0,0,43.223-15.1a17.158,17.158,0,0,0-1.758-8.2q-1.758-3.242-4.434-3.242-2.656,0-4.414,3.242A16.648,16.648,0,0,0,30.859-15.254ZM52.832-2.187a2.59,2.59,0,0,1,.8-1.895,2.612,2.612,0,0,1,1.914-.8,2.612,2.612,0,0,1,1.914.8,2.612,2.612,0,0,1,.8,1.914,2.635,2.635,0,0,1-.8,1.934,2.6,2.6,0,0,1-1.914.781,2.626,2.626,0,0,1-1.934-.781A2.65,2.65,0,0,1,52.832-2.187ZM63.418-15.273q0-7.207,3.359-11.5a8.955,8.955,0,0,1,7.285-3.887,8.955,8.955,0,0,1,7.285,3.887q3.359,4.3,3.359,11.7,0,7.383-3.359,11.68A8.939,8.939,0,0,1,74.082.488a9.042,9.042,0,0,1-7.3-3.887Q63.418-7.7,63.418-15.273Zm4.473.02a17.869,17.869,0,0,0,1.738,8.34q1.738,3.262,4.434,3.262,2.676,0,4.434-3.262A17.04,17.04,0,0,0,80.254-15.1,17.158,17.158,0,0,0,78.5-23.3q-1.758-3.242-4.434-3.242-2.656,0-4.414,3.242A16.648,16.648,0,0,0,67.891-15.254Z" transform="translate(183 6060)" fill="#a21b43"/>
      <path id="パス_12314" data-name="パス 12314" d="M-15.135-21.111a5.956,5.956,0,0,1,1.951-4.43A6.474,6.474,0,0,1-8.6-27.422a6.347,6.347,0,0,1,4.605,1.9,6.058,6.058,0,0,1,1.934,4.5A6.078,6.078,0,0,1-3.99-16.506a6.44,6.44,0,0,1-4.658,1.881,6.259,6.259,0,0,1-4.588-1.916A6.268,6.268,0,0,1-15.135-21.111Zm3.059.053a3.4,3.4,0,0,0,1.02,2.5,3.374,3.374,0,0,0,2.479,1.02,3.333,3.333,0,0,0,2.443-1.02,3.353,3.353,0,0,0,1.02-2.461,3.333,3.333,0,0,0-1.02-2.443A3.353,3.353,0,0,0-8.6-24.486a3.353,3.353,0,0,0-2.461,1.02A3.293,3.293,0,0,0-12.076-21.059Zm18.9-6.557,1.916,1.09L-6.8.439-8.736-.721ZM2.039-6.24A5.937,5.937,0,0,1,3.99-10.652a6.474,6.474,0,0,1,4.588-1.881,6.367,6.367,0,0,1,4.623,1.9,6.058,6.058,0,0,1,1.934,4.5,6.015,6.015,0,0,1-1.951,4.518A6.433,6.433,0,0,1,8.525.246a6.288,6.288,0,0,1-4.588-1.9A6.251,6.251,0,0,1,2.039-6.24Zm3.076.07a3.425,3.425,0,0,0,1,2.5A3.374,3.374,0,0,0,8.6-2.654a3.3,3.3,0,0,0,2.443-1.02,3.353,3.353,0,0,0,1.02-2.461A3.353,3.353,0,0,0,11.039-8.6a3.316,3.316,0,0,0-2.461-1.02A3.333,3.333,0,0,0,6.135-8.6,3.313,3.313,0,0,0,5.115-6.17Z" transform="translate(404 6171)" fill="#a21b43"/>
      <path id="パス_12312" data-name="パス 12312" d="M-6.727-9.383a2.647,2.647,0,0,1,.867-1.969,2.877,2.877,0,0,1,2.039-.836,2.821,2.821,0,0,1,2.047.844,2.692,2.692,0,0,1,.859,2,2.7,2.7,0,0,1-.859,2.008,2.862,2.862,0,0,1-2.07.836,2.782,2.782,0,0,1-2.039-.852A2.786,2.786,0,0,1-6.727-9.383Zm1.359.023A1.509,1.509,0,0,0-4.914-8.25a1.5,1.5,0,0,0,1.1.453A1.481,1.481,0,0,0-2.727-8.25a1.49,1.49,0,0,0,.453-1.094,1.481,1.481,0,0,0-.453-1.086,1.49,1.49,0,0,0-1.094-.453,1.49,1.49,0,0,0-1.094.453A1.464,1.464,0,0,0-5.367-9.359Zm8.4-2.914.852.484L-3.023.2-3.883-.32ZM.906-2.773a2.639,2.639,0,0,1,.867-1.961A2.877,2.877,0,0,1,3.813-5.57a2.83,2.83,0,0,1,2.055.844,2.692,2.692,0,0,1,.859,2A2.673,2.673,0,0,1,5.859-.719a2.859,2.859,0,0,1-2.07.828A2.8,2.8,0,0,1,1.75-.734,2.778,2.778,0,0,1,.906-2.773Zm1.367.031a1.522,1.522,0,0,0,.445,1.109,1.5,1.5,0,0,0,1.1.453,1.465,1.465,0,0,0,1.086-.453,1.49,1.49,0,0,0,.453-1.094A1.49,1.49,0,0,0,4.906-3.82a1.474,1.474,0,0,0-1.094-.453,1.481,1.481,0,0,0-1.086.453A1.472,1.472,0,0,0,2.273-2.742Z" transform="translate(280 6059)" fill="#a21b43"/>
      <path id="パス_12480" data-name="パス 12480" d="M-28.152,0h5.7V-1.176H-24.66c-.432,0-.984.036-1.44.084,1.872-1.788,3.228-3.552,3.228-5.256A2.5,2.5,0,0,0-25.536-9a3.429,3.429,0,0,0-2.688,1.32l.78.768A2.4,2.4,0,0,1-25.7-7.9a1.434,1.434,0,0,1,1.5,1.62c0,1.452-1.344,3.168-3.948,5.472ZM-17.22.156c1.728,0,2.856-1.536,2.856-4.608C-14.364-7.5-15.492-9-17.22-9s-2.856,1.488-2.856,4.548S-18.948.156-17.22.156Zm0-1.092c-.9,0-1.536-.96-1.536-3.516,0-2.532.636-3.456,1.536-3.456s1.536.924,1.536,3.456C-15.684-1.9-16.32-.936-17.22-.936ZM-11.568,0h5.04V-1.14H-8.256v-7.7H-9.3a5.194,5.194,0,0,1-1.92.684v.876h1.584V-1.14h-1.932ZM-2.76-6.1c0-1.152.6-1.836,1.356-1.836.96,0,1.62.792,1.752,2.532a2.1,2.1,0,0,1-1.68,1.08C-2.256-4.32-2.76-4.968-2.76-6.1ZM-1.644.156c1.7,0,3.288-1.392,3.288-4.872C1.644-7.644.276-9-1.416-9A2.7,2.7,0,0,0-4.044-6.1c0,1.848,1,2.772,2.472,2.772A2.655,2.655,0,0,0,.372-4.356C.288-1.836-.636-.972-1.7-.972a1.963,1.963,0,0,1-1.44-.66L-3.9-.78A3.031,3.031,0,0,0-1.644.156Zm8.76-2.94V-4.908H9.528v2.124Zm7.776,0H10.68V-4.908h3.348V-5.952H10.68V-7.608H14.3v-1.08H7.356c.156-.36.324-.756.468-1.128l-1.128-.3A9.709,9.709,0,0,1,4.08-6.048a8.874,8.874,0,0,1,.972.72A10.917,10.917,0,0,0,6.78-7.608H9.528v1.656H6v3.168H4.068V-1.7h5.46V.948H10.68V-1.7h4.212ZM19.2-7.944h8.784v-1H23.616v-1.128H22.452V-8.94h-4.32v3.384c0,1.74-.084,4.176-1.056,5.88a5.051,5.051,0,0,1,.912.612C19.032-.888,19.2-3.672,19.2-5.556Zm5.772,2.112v1.056H22.38V-5.832Zm1.092,1.92v-1.92H27.9v-.912H26.064v-.912H24.972v.912H22.38v-.912H21.324v.912H19.548v.912h1.776v1.92Zm-.5,1.524a5.531,5.531,0,0,1-1.776,1.3,5.162,5.162,0,0,1-1.74-1.3Zm.936-.936-.2.036H19.68v.9h1.836l-.54.2A6.388,6.388,0,0,0,22.632-.636,16.731,16.731,0,0,1,19.2.024a3.421,3.421,0,0,1,.468.936,15.753,15.753,0,0,0,4.08-.984,13.58,13.58,0,0,0,3.8,1A3.974,3.974,0,0,1,28.2.012a15.778,15.778,0,0,1-3.252-.636A5.788,5.788,0,0,0,27.18-2.952Z" transform="translate(391 6187.646)" fill="#a21b43"/>
      <path id="パス_12478" data-name="パス 12478" d="M.528,0h5.7V-1.176H4.02c-.432,0-.984.036-1.44.084C4.452-2.88,5.808-4.644,5.808-6.348A2.5,2.5,0,0,0,3.144-9,3.429,3.429,0,0,0,.456-7.68l.78.768A2.4,2.4,0,0,1,2.976-7.9a1.434,1.434,0,0,1,1.5,1.62C4.476-4.824,3.132-3.108.528-.8ZM11.46.156c1.728,0,2.856-1.536,2.856-4.608C14.316-7.5,13.188-9,11.46-9S8.6-7.512,8.6-4.452,9.732.156,11.46.156Zm0-1.092c-.9,0-1.536-.96-1.536-3.516,0-2.532.636-3.456,1.536-3.456S13-6.984,13-4.452C13-1.9,12.36-.936,11.46-.936ZM16.608,0h5.7V-1.176H20.1c-.432,0-.984.036-1.44.084,1.872-1.788,3.228-3.552,3.228-5.256A2.5,2.5,0,0,0,19.224-9a3.429,3.429,0,0,0-2.688,1.32l.78.768a2.4,2.4,0,0,1,1.74-.984,1.434,1.434,0,0,1,1.5,1.62c0,1.452-1.344,3.168-3.948,5.472ZM27.336.156c1.62,0,2.952-.936,2.952-2.532a2.236,2.236,0,0,0-1.824-2.208v-.06A2.135,2.135,0,0,0,29.988-6.72c0-1.452-1.116-2.28-2.7-2.28a3.722,3.722,0,0,0-2.532,1.068l.72.864A2.572,2.572,0,0,1,27.24-7.9,1.227,1.227,0,0,1,28.6-6.624c0,.888-.576,1.548-2.316,1.548v1.02c1.992,0,2.616.636,2.616,1.608a1.485,1.485,0,0,1-1.68,1.476,2.854,2.854,0,0,1-2.088-.972l-.672.888A3.666,3.666,0,0,0,27.336.156Zm-23.7,15.06V13.092H6.048v2.124Zm7.776,0H7.2V13.092h3.348V12.048H7.2V10.392h3.624V9.312H3.876c.156-.36.324-.756.468-1.128l-1.128-.3A9.709,9.709,0,0,1,.6,11.952a8.874,8.874,0,0,1,.972.72A10.917,10.917,0,0,0,3.3,10.392H6.048v1.656H2.52v3.168H.588V16.3h5.46v2.652H7.2V16.3h4.212Zm4.308-5.16H24.5v-1H20.136V7.932H18.972V9.06h-4.32v3.384c0,1.74-.084,4.176-1.056,5.88a5.051,5.051,0,0,1,.912.612c1.044-1.824,1.212-4.608,1.212-6.492Zm5.772,2.112v1.056H18.9V12.168Zm1.092,1.92v-1.92H24.42v-.912H22.584v-.912H21.492v.912H18.9v-.912H17.844v.912H16.068v.912h1.776v1.92Zm-.5,1.524a5.531,5.531,0,0,1-1.776,1.3,5.162,5.162,0,0,1-1.74-1.3Zm.936-.936-.2.036H16.2v.9h1.836l-.54.2a6.388,6.388,0,0,0,1.656,1.548,16.731,16.731,0,0,1-3.432.66,3.421,3.421,0,0,1,.468.936,15.753,15.753,0,0,0,4.08-.984,13.58,13.58,0,0,0,3.8,1,3.974,3.974,0,0,1,.648-.96,15.778,15.778,0,0,1-3.252-.636A5.788,5.788,0,0,0,23.7,15.048Z" transform="translate(148 6040.646)" fill="#a21b43"/>
      <line id="線_21" data-name="線 21" x2="139" transform="translate(148.5 6076.5)" fill="none" stroke="#a21b43" stroke-width="1"/>
    </g>
    <g id="グループ_79" data-name="グループ 79" transform="translate(331 6620)">
      <rect id="長方形_81" data-name="長方形 81" width="10.775" height="5.029" transform="translate(0 37.486)" fill="#a21b43"/>
      <rect id="長方形_82" data-name="長方形 82" width="10.772" height="5.029" transform="translate(69.228 37.486)" fill="#a21b43"/>
      <path id="パス_84" data-name="パス 84" d="M26.248,340.972l2.515,4.357,9.33-5.387-2.514-4.356Z" transform="translate(-22.147 -283.151)" fill="#a21b43"/>
      <path id="パス_85" data-name="パス 85" d="M421.792,118.413l-2.515-4.356-9.33,5.387,2.514,4.356Z" transform="translate(-345.893 -96.236)" fill="#a21b43"/>
      <path id="パス_86" data-name="パス 86" d="M114.065,419.277l4.356,2.515,5.387-9.33-4.356-2.514Z" transform="translate(-96.242 -345.893)" fill="#a21b43"/>
      <path id="パス_87" data-name="パス 87" d="M345.339,28.763l-4.359-2.515-5.385,9.33,4.356,2.514Z" transform="translate(-283.159 -22.147)" fill="#a21b43"/>
      <rect id="長方形_83" data-name="長方形 83" width="5.029" height="10.773" transform="translate(37.487 69.227)" fill="#a21b43"/>
      <rect id="長方形_84" data-name="長方形 84" width="5.029" height="10.773" transform="translate(37.487 0)" fill="#a21b43"/>
      <path id="パス_88" data-name="パス 88" d="M335.6,412.461l5.385,9.33,4.359-2.515-5.387-9.33Z" transform="translate(-283.159 -345.893)" fill="#a21b43"/>
      <path id="パス_89" data-name="パス 89" d="M123.808,35.578l-5.387-9.33-4.356,2.515,5.387,9.33Z" transform="translate(-96.242 -22.147)" fill="#a21b43"/>
      <path id="パス_90" data-name="パス 90" d="M409.947,339.942l9.33,5.387,2.515-4.357-9.33-5.386Z" transform="translate(-345.893 -283.151)" fill="#a21b43"/>
      <path id="パス_91" data-name="パス 91" d="M38.093,119.444l-9.33-5.387-2.515,4.356,9.33,5.387Z" transform="translate(-22.147 -96.236)" fill="#a21b43"/>
      <path id="パス_92" data-name="パス 92" d="M124.322,99.926a24.387,24.387,0,1,0,24.387,24.387A24.386,24.386,0,0,0,124.322,99.926Z" transform="translate(-84.32 -84.312)" fill="#a21b43"/>
    </g>
  </g>
</svg>
