<svg xmlns="http://www.w3.org/2000/svg" width="320" height="278" viewBox="0 0 320 278">
  <g id="グループ_956" data-name="グループ 956" transform="translate(-480 -6575)">
    <g id="グループ_940" data-name="グループ 940">
      <g id="グループ_694" data-name="グループ 694">
        <rect id="長方形_75" data-name="長方形 75" width="320" height="278" transform="translate(480 6575)" fill="#fff"/>
      </g>
      <g id="グループ_939" data-name="グループ 939">
        <path id="パス_12486" data-name="パス 12486" d="M13.37-5.1h-5.5V-9.338h4.69V-10.99H1.414v1.652H6.132V-5.1H.686V-3.4H6.132v4.62H7.868V-3.4h5.5ZM2.268-8.442A14.04,14.04,0,0,1,3.29-5.53l1.624-.5A12.771,12.771,0,0,0,3.794-8.89Zm8.176,2.884a27.392,27.392,0,0,0,1.54-2.926l-1.778-.448A16.589,16.589,0,0,1,8.988-5.978ZM25.522-4.186c-1.82.658-3.752,1.33-4.984,1.708L21.2-.91c1.33-.532,3.038-1.218,4.606-1.876ZM23.016-9.632a16.438,16.438,0,0,0,.644-1.876l-1.694-.378A12.612,12.612,0,0,1,20.2-7.924v-.812H18.886V-11.69h-1.61v2.954h-1.5v1.568h1.5v3.85c-.672.252-1.3.476-1.806.644L16.058-.98c1.33-.56,3.038-1.288,4.606-1.988L20.3-4.508c-.462.2-.938.378-1.414.574V-7.168H19.6l-.154.154A10.233,10.233,0,0,1,20.874-5.95c.14-.154.266-.322.406-.5v1.162h4.088V-6.776h-3.85c.266-.392.518-.812.77-1.274h4.438c-.154,4.914-.35,6.944-.756,7.378A.635.635,0,0,1,25.4-.42c-.364,0-1.106,0-1.918-.07a4.036,4.036,0,0,1,.56,1.694,12.536,12.536,0,0,0,2.114-.042A1.741,1.741,0,0,0,27.468.378c.56-.742.756-2.982.938-9.212,0-.224.014-.8.014-.8Zm11.55,2.716a17.834,17.834,0,0,1-.434,2.128,14.072,14.072,0,0,0-1.246-.966c.154-.364.294-.756.42-1.162Zm.686-1.526-.266.042H33.712c.1-.406.2-.84.266-1.26H36.33v-1.512h-5.4V-9.66h1.456A12.355,12.355,0,0,1,30.45-4.606,13.808,13.808,0,0,1,31.7-3.528a6.556,6.556,0,0,0,.546-.868,11.269,11.269,0,0,1,1.33,1.218A7.686,7.686,0,0,1,31.122.07,5.576,5.576,0,0,1,32.27,1.218c2.058-1.61,3.444-4.8,3.934-9.394Zm6.86,3.766a7.717,7.717,0,0,1-1.358,1.54c-.112-.42-.21-.868-.308-1.358ZM42.42-4.7l1.162-.126-.112-1.3-3.248.322c-.028-.224-.056-.476-.1-.714l2.87-.266-.126-1.274-2.884.252c-.014-.238-.042-.476-.056-.714l3.206-.28-.112-1.316-.8.07.756-.8a7.017,7.017,0,0,0-1.834-1.176l-.91.924a8.725,8.725,0,0,1,1.582,1.078l-1.96.168c-.028-.686-.042-1.372-.028-2.058H38.178c0,.728.028,1.456.056,2.2l-2.044.168L36.3-8.2l2.016-.182c.014.252.028.49.056.728L36.582-7.5l.126,1.3,1.806-.168c.028.238.056.49.1.728L36.218-5.4l.14,1.344,2.464-.266a17.674,17.674,0,0,0,.56,2.254A12.746,12.746,0,0,1,35.406-.35a6.3,6.3,0,0,1,.9,1.386A15.343,15.343,0,0,0,39.928-.686c.56,1.134,1.288,1.834,2.184,1.834,1.12,0,1.554-.49,1.82-2.268a3.824,3.824,0,0,1-1.162-.91c-.07,1.19-.21,1.582-.476,1.582-.364,0-.728-.448-1.05-1.2A10.62,10.62,0,0,0,43.414-4ZM54.082-8.218c-.154.378-.322.784-.49,1.12H50.974l.238-.042a6.9,6.9,0,0,0-.476-1.078ZM58.6-1.974V-3.346H53.158v-.616h4.2v-1.2h-4.2V-5.8h4.858V-7.1H55.272c.21-.336.434-.714.658-1.12h2.632V-9.576h-1.82c.322-.49.7-1.12,1.092-1.764l-1.75-.42A11.277,11.277,0,0,1,55.2-9.73l.5.154H54.46v-2.282H52.892v2.282H51.856v-2.282H50.3v2.282H49.028l.686-.252A10.594,10.594,0,0,0,48.65-11.8l-1.428.49a12.549,12.549,0,0,1,.868,1.736H46.214v1.358H49.14l-.168.028A6.291,6.291,0,0,1,49.448-7.1h-2.66v1.3H51.52v.63H47.488v1.2H51.52v.616H46.172v1.372H50.19A14.708,14.708,0,0,1,45.766-.336,7.766,7.766,0,0,1,46.83,1.05a13.28,13.28,0,0,0,4.69-2.268V1.218h1.638V-1.3a11.95,11.95,0,0,0,4.7,2.366,7.831,7.831,0,0,1,1.12-1.512,12.507,12.507,0,0,1-4.438-1.526ZM64.218-9.52v2.464H62.93V-9.52ZM62.93-2.968V-5.6h1.288v2.632ZM65.772-11H61.39V-.252h1.54V-1.484h2.842ZM66.6-2.66a9.849,9.849,0,0,1,1.6,2.352l1.428-.826a9.66,9.66,0,0,0-1.694-2.3ZM74-6.244V-7.7H70.812V-8.932h2.8v-1.456h-2.8v-1.47H69.174v1.47H66.486v1.456h2.688V-7.7H66.01v1.456h4.942v1.2H66.038V-3.6h4.914v3.01c0,.2-.07.252-.294.252s-.994,0-1.666-.028A5.615,5.615,0,0,1,69.524,1.2a6.2,6.2,0,0,0,2.338-.28c.546-.252.7-.672.7-1.47V-3.6h1.344V-5.04H72.562v-1.2Zm6.538-3.878v.742H78.386v-.742Zm-2.156,2.66v-.8h2.156v.8Zm3.71,1.19v-5.054H76.734V1.218h1.652v-7.49Zm2.548-1.162V-8.26H86.87v.826Zm2.226-2.688v.742H84.644v-.742ZM81.41-1.3V-2.17h2.31V-1.3Zm2.31-2.9v.84H81.41V-4.2Zm4.83-7.126H83.062v5.082H86.87V-.77c0,.224-.084.308-.336.308-.182.014-.7.014-1.246,0v-4.97H79.9V.63H81.41V-.084h3.472a6.165,6.165,0,0,1,.364,1.3A6.049,6.049,0,0,0,87.808.9c.56-.266.742-.756.742-1.652Z" transform="translate(595 6604.646)"/>
        <g id="グループ_932" data-name="グループ 932" transform="translate(0 -24)">
          <path id="パス_12315" data-name="パス 12315" d="M-72.852-64.746H-85.889l6.25-10.645h18.164V0H-72.852ZM-23.877,2.588l-8.35-6.2,18.018-24.561q-1.465.2-2.49.293t-1.66.1a21.194,21.194,0,0,1-15.82-6.982,23.276,23.276,0,0,1-6.641-16.7,24.224,24.224,0,0,1,7.373-17.773A24.248,24.248,0,0,1-15.674-76.66a25.01,25.01,0,0,1,17.92,7.324A23,23,0,0,1,9.863-52.148q0,8.789-7.422,18.994Zm-5.859-54.883a13.93,13.93,0,0,0,4.15,10.254,13.779,13.779,0,0,0,10.107,4.2A13.7,13.7,0,0,0-5.42-41.992,13.779,13.779,0,0,0-1.221-52.1a13.779,13.779,0,0,0-4.2-10.107,13.756,13.756,0,0,0-10.107-4.15,13.641,13.641,0,0,0-10.01,4.15A13.556,13.556,0,0,0-29.736-52.295ZM24.023-5.469a6.475,6.475,0,0,1,2-4.736,6.53,6.53,0,0,1,4.785-2,6.53,6.53,0,0,1,4.785,2,6.53,6.53,0,0,1,2,4.785,6.587,6.587,0,0,1-2,4.834,6.507,6.507,0,0,1-4.785,1.953A6.566,6.566,0,0,1,25.977-.586,6.625,6.625,0,0,1,24.023-5.469ZM65.332-64.746H52.295l6.25-10.645H76.709V0H65.332Z" transform="translate(614 6728)" fill="#a21b43"/>
          <path id="パス_12316" data-name="パス 12316" d="M10.84-25.9H5.625l2.5-4.258h7.266V0H10.84Zm26.035-5.312,3.34,2.5-7.207,9.8q.586-.078,1-.117t.645-.039A8.471,8.471,0,0,1,41-16.25a9.311,9.311,0,0,1,2.656,6.68,9.7,9.7,0,0,1-2.969,7.109A9.667,9.667,0,0,1,33.594.488a10.15,10.15,0,0,1-7.187-2.91,9.247,9.247,0,0,1-3.027-6.895,12.978,12.978,0,0,1,2.949-7.578ZM39.219-9.277a5.525,5.525,0,0,0-1.66-4.062,5.511,5.511,0,0,0-4.043-1.68,5.5,5.5,0,0,0-4.043,1.66,5.479,5.479,0,0,0-1.66,4.023,5.479,5.479,0,0,0,1.66,4.023,5.525,5.525,0,0,0,4.063,1.66,5.457,5.457,0,0,0,4-1.66A5.422,5.422,0,0,0,39.219-9.277Z" transform="translate(546 6817)" fill="#a21b43"/>
          <path id="パス_12484" data-name="パス 12484" d="M-12.121-20.119v3.72h-3.844a21.207,21.207,0,0,1-3.193-.186v2.418a23.951,23.951,0,0,1,3.193-.186h8.339v3.379h-8.339a19.838,19.838,0,0,1-3.193-.186v2.48A24.461,24.461,0,0,1-16-8.866h8.37v8c0,.682-.186.806-1.4.806A22.3,22.3,0,0,1-12.462-.4a6.932,6.932,0,0,1,.527,2.387c2.015.093,2.232.093,2.728.093C-6.076,2.077-5.3,1.55-5.3-.651V-8.866h.775a19.617,19.617,0,0,1,3.007.186v-2.48a18.014,18.014,0,0,1-3.007.186H-5.3v-3.379h.837a19.617,19.617,0,0,1,3.007.186v-2.418A20.925,20.925,0,0,1-4.65-16.4H-9.765v-3.72h4.123a25.766,25.766,0,0,1,2.976.155v-2.387a19.617,19.617,0,0,1-3.007.186H-9.765v-.961a14.07,14.07,0,0,1,.186-2.449h-2.728a14.848,14.848,0,0,1,.186,2.449v.961h-3.131a19.617,19.617,0,0,1-3.007-.186v2.387a28.422,28.422,0,0,1,3.069-.155ZM-28.148-3.255a26.161,26.161,0,0,1-.186,3.41h2.356V-2.418h3.72V-.837h2.294c-.062-.682-.093-1.488-.093-3.038v-17.2a22.429,22.429,0,0,1,.093-3.038,26.745,26.745,0,0,1-2.759.093h-2.728a26.36,26.36,0,0,1-2.821-.093,26.6,26.6,0,0,1,.124,3.007Zm2.2-18.693h3.689V-14.6h-3.689Zm0,9.362h3.689v8.06h-3.689ZM-11.16-2.914A30.977,30.977,0,0,0-15.5-7.9l-1.829,1.3a28.581,28.581,0,0,1,4.216,5.146ZM5.208-15.035H10.85c1.24,0,2.2.031,3.069.093-.062-.806-.093-1.55-.093-2.821v-4.123c0-1.209.031-2.015.093-2.945a27.2,27.2,0,0,1-3.162.124H6.014a28.424,28.424,0,0,1-3.224-.124c.093.992.124,1.891.124,3.441V-1.333a24.542,24.542,0,0,1-.186,3.6H5.394A23.483,23.483,0,0,1,5.208-1.3Zm0-7.874h6.479v2.17H5.208Zm0,3.937h6.479v2.2H5.208Zm22.971-2.449a29.662,29.662,0,0,1,.155-3.41,28.694,28.694,0,0,1-3.255.124H19.716a27.2,27.2,0,0,1-3.162-.124c.062.93.093,1.86.093,2.945v4.123c0,1.178-.031,1.953-.093,2.821.806-.062,1.86-.093,3.069-.093h6.293V-1.178c0,.713-.248.868-1.488.868-.651,0-1.922-.124-3.41-.31a8.651,8.651,0,0,1,.651,2.387c.62.031,2.356.093,3.007.093,2.79,0,3.5-.589,3.5-2.821Zm-9.393-1.488h7.13v2.17h-7.13Zm0,3.937h7.13v2.2h-7.13Zm2.6,9.083c0-1.178.031-2.015.093-2.852a26.6,26.6,0,0,1-3.007.124H12.462a27.208,27.208,0,0,1-3.038-.124c.062.9.093,1.767.093,2.852v7.1A20.269,20.269,0,0,1,9.362.186h2.325V-1.86h6.7c1.3,0,2.139.031,3.1.093-.062-.806-.093-1.612-.093-2.79Zm-9.7-.868h7.564v2.48H11.687Zm0,4.34h7.564v2.7H11.687Z" transform="translate(734 6712)" fill="#a21b43"/>
          <path id="パス_12482" data-name="パス 12482" d="M-6.256-10.384v1.92H-8.24a10.945,10.945,0,0,1-1.648-.1v1.248a12.362,12.362,0,0,1,1.648-.1h4.3v1.744h-4.3a10.239,10.239,0,0,1-1.648-.1v1.28a12.625,12.625,0,0,1,1.632-.1h4.32V-.448c0,.352-.1.416-.72.416A11.507,11.507,0,0,1-6.432-.208,3.578,3.578,0,0,1-6.16,1.024c1.04.048,1.152.048,1.408.048,1.616,0,2.016-.272,2.016-1.408v-4.24h.4a10.125,10.125,0,0,1,1.552.1V-5.76a9.3,9.3,0,0,1-1.552.1h-.4V-7.408H-2.3a10.125,10.125,0,0,1,1.552.1V-8.56a10.8,10.8,0,0,1-1.648.1H-5.04v-1.92h2.128a13.3,13.3,0,0,1,1.536.08v-1.232a10.125,10.125,0,0,1-1.552.1H-5.04v-.5a7.262,7.262,0,0,1,.1-1.264H-6.352a7.664,7.664,0,0,1,.1,1.264v.5H-7.872a10.125,10.125,0,0,1-1.552-.1V-10.3a14.669,14.669,0,0,1,1.584-.08Zm-8.272,8.7a13.5,13.5,0,0,1-.1,1.76h1.216V-1.248h1.92v.816H-10.3c-.032-.352-.048-.768-.048-1.568v-8.88a11.576,11.576,0,0,1,.048-1.568,13.8,13.8,0,0,1-1.424.048h-1.408a13.605,13.605,0,0,1-1.456-.048,13.731,13.731,0,0,1,.064,1.552Zm1.136-9.648h1.9v3.792h-1.9Zm0,4.832h1.9v4.16h-1.9ZM-5.76-1.5A15.988,15.988,0,0,0-8-4.08l-.944.672A14.752,14.752,0,0,1-6.768-.752ZM2.688-7.76H5.6c.64,0,1.136.016,1.584.048-.032-.416-.048-.8-.048-1.456V-11.3c0-.624.016-1.04.048-1.52a14.039,14.039,0,0,1-1.632.064H3.1a14.67,14.67,0,0,1-1.664-.064c.048.512.064.976.064,1.776V-.688a12.667,12.667,0,0,1-.1,1.856H2.784a12.12,12.12,0,0,1-.1-1.84Zm0-4.064H6.032v1.12H2.688Zm0,2.032H6.032v1.136H2.688Zm11.856-1.264a15.31,15.31,0,0,1,.08-1.76,14.81,14.81,0,0,1-1.68.064H10.176a14.039,14.039,0,0,1-1.632-.064c.032.48.048.96.048,1.52v2.128c0,.608-.016,1.008-.048,1.456.416-.032.96-.048,1.584-.048h3.248V-.608c0,.368-.128.448-.768.448-.336,0-.992-.064-1.76-.16A4.465,4.465,0,0,1,11.184.912C11.5.928,12.4.96,12.736.96c1.44,0,1.808-.3,1.808-1.456ZM9.7-11.824h3.68v1.12H9.7Zm0,2.032h3.68v1.136H9.7ZM11.04-5.1c0-.608.016-1.04.048-1.472a13.731,13.731,0,0,1-1.552.064h-3.1a14.043,14.043,0,0,1-1.568-.064c.032.464.048.912.048,1.472V-1.44A10.461,10.461,0,0,1,4.832.1h1.2V-.96H9.488c.672,0,1.1.016,1.6.048-.032-.416-.048-.832-.048-1.44ZM6.032-5.552h3.9v1.28h-3.9Zm0,2.24h3.9V-1.92h-3.9Z" transform="translate(612 6816)" fill="#a21b43"/>
          <path id="パス_12485" data-name="パス 12485" d="M-28.152,0h5.7V-1.176H-24.66c-.432,0-.984.036-1.44.084,1.872-1.788,3.228-3.552,3.228-5.256A2.5,2.5,0,0,0-25.536-9a3.429,3.429,0,0,0-2.688,1.32l.78.768A2.4,2.4,0,0,1-25.7-7.9a1.434,1.434,0,0,1,1.5,1.62c0,1.452-1.344,3.168-3.948,5.472ZM-17.22.156c1.728,0,2.856-1.536,2.856-4.608C-14.364-7.5-15.492-9-17.22-9s-2.856,1.488-2.856,4.548S-18.948.156-17.22.156Zm0-1.092c-.9,0-1.536-.96-1.536-3.516,0-2.532.636-3.456,1.536-3.456s1.536.924,1.536,3.456C-15.684-1.9-16.32-.936-17.22-.936ZM-11.568,0h5.04V-1.14H-8.256v-7.7H-9.3a5.194,5.194,0,0,1-1.92.684v.876h1.584V-1.14h-1.932ZM-2.76-6.1c0-1.152.6-1.836,1.356-1.836.96,0,1.62.792,1.752,2.532a2.1,2.1,0,0,1-1.68,1.08C-2.256-4.32-2.76-4.968-2.76-6.1ZM-1.644.156c1.7,0,3.288-1.392,3.288-4.872C1.644-7.644.276-9-1.416-9A2.7,2.7,0,0,0-4.044-6.1c0,1.848,1,2.772,2.472,2.772A2.655,2.655,0,0,0,.372-4.356C.288-1.836-.636-.972-1.7-.972a1.963,1.963,0,0,1-1.44-.66L-3.9-.78A3.031,3.031,0,0,0-1.644.156Zm8.76-2.94V-4.908H9.528v2.124Zm7.776,0H10.68V-4.908h3.348V-5.952H10.68V-7.608H14.3v-1.08H7.356c.156-.36.324-.756.468-1.128l-1.128-.3A9.709,9.709,0,0,1,4.08-6.048a8.874,8.874,0,0,1,.972.72A10.917,10.917,0,0,0,6.78-7.608H9.528v1.656H6v3.168H4.068V-1.7h5.46V.948H10.68V-1.7h4.212ZM19.2-7.944h8.784v-1H23.616v-1.128H22.452V-8.94h-4.32v3.384c0,1.74-.084,4.176-1.056,5.88a5.051,5.051,0,0,1,.912.612C19.032-.888,19.2-3.672,19.2-5.556Zm5.772,2.112v1.056H22.38V-5.832Zm1.092,1.92v-1.92H27.9v-.912H26.064v-.912H24.972v.912H22.38v-.912H21.324v.912H19.548v.912h1.776v1.92Zm-.5,1.524a5.531,5.531,0,0,1-1.776,1.3,5.162,5.162,0,0,1-1.74-1.3Zm.936-.936-.2.036H19.68v.9h1.836l-.54.2A6.388,6.388,0,0,0,22.632-.636,16.731,16.731,0,0,1,19.2.024a3.421,3.421,0,0,1,.468.936,15.753,15.753,0,0,0,4.08-.984,13.58,13.58,0,0,0,3.8,1A3.974,3.974,0,0,1,28.2.012a15.778,15.778,0,0,1-3.252-.636A5.788,5.788,0,0,0,27.18-2.952Z" transform="translate(734 6729.646)" fill="#a21b43"/>
          <path id="パス_12481" data-name="パス 12481" d="M.528,0h5.7V-1.176H4.02c-.432,0-.984.036-1.44.084C4.452-2.88,5.808-4.644,5.808-6.348A2.5,2.5,0,0,0,3.144-9,3.429,3.429,0,0,0,.456-7.68l.78.768A2.4,2.4,0,0,1,2.976-7.9a1.434,1.434,0,0,1,1.5,1.62C4.476-4.824,3.132-3.108.528-.8ZM11.46.156c1.728,0,2.856-1.536,2.856-4.608C14.316-7.5,13.188-9,11.46-9S8.6-7.512,8.6-4.452,9.732.156,11.46.156Zm0-1.092c-.9,0-1.536-.96-1.536-3.516,0-2.532.636-3.456,1.536-3.456S13-6.984,13-4.452C13-1.9,12.36-.936,11.46-.936ZM16.608,0h5.7V-1.176H20.1c-.432,0-.984.036-1.44.084,1.872-1.788,3.228-3.552,3.228-5.256A2.5,2.5,0,0,0,19.224-9a3.429,3.429,0,0,0-2.688,1.32l.78.768a2.4,2.4,0,0,1,1.74-.984,1.434,1.434,0,0,1,1.5,1.62c0,1.452-1.344,3.168-3.948,5.472ZM27.336.156c1.62,0,2.952-.936,2.952-2.532a2.236,2.236,0,0,0-1.824-2.208v-.06A2.135,2.135,0,0,0,29.988-6.72c0-1.452-1.116-2.28-2.7-2.28a3.722,3.722,0,0,0-2.532,1.068l.72.864A2.572,2.572,0,0,1,27.24-7.9,1.227,1.227,0,0,1,28.6-6.624c0,.888-.576,1.548-2.316,1.548v1.02c1.992,0,2.616.636,2.616,1.608a1.485,1.485,0,0,1-1.68,1.476,2.854,2.854,0,0,1-2.088-.972l-.672.888A3.666,3.666,0,0,0,27.336.156Zm-23.7,15.06V13.092H6.048v2.124Zm7.776,0H7.2V13.092h3.348V12.048H7.2V10.392h3.624V9.312H3.876c.156-.36.324-.756.468-1.128l-1.128-.3A9.709,9.709,0,0,1,.6,11.952a8.874,8.874,0,0,1,.972.72A10.917,10.917,0,0,0,3.3,10.392H6.048v1.656H2.52v3.168H.588V16.3h5.46v2.652H7.2V16.3h4.212Zm4.308-5.16H24.5v-1H20.136V7.932H18.972V9.06h-4.32v3.384c0,1.74-.084,4.176-1.056,5.88a5.051,5.051,0,0,1,.912.612c1.044-1.824,1.212-4.608,1.212-6.492Zm5.772,2.112v1.056H18.9V12.168Zm1.092,1.92v-1.92H24.42v-.912H22.584v-.912H21.492v.912H18.9v-.912H17.844v.912H16.068v.912h1.776v1.92Zm-.5,1.524a5.531,5.531,0,0,1-1.776,1.3,5.162,5.162,0,0,1-1.74-1.3Zm.936-.936-.2.036H16.2v.9h1.836l-.54.2a6.388,6.388,0,0,0,1.656,1.548,16.731,16.731,0,0,1-3.432.66,3.421,3.421,0,0,1,.468.936,15.753,15.753,0,0,0,4.08-.984,13.58,13.58,0,0,0,3.8,1,3.974,3.974,0,0,1,.648-.96,15.778,15.778,0,0,1-3.252-.636A5.788,5.788,0,0,0,23.7,15.048Z" transform="translate(511 6797.646)" fill="#a21b43"/>
          <line id="線_22" data-name="線 22" x2="145" transform="translate(511.5 6759.5)" fill="none" stroke="#a21b43" stroke-width="1"/>
          <g id="グループ_80" data-name="グループ 80" transform="translate(698.5 6761.252)">
            <path id="パス_93" data-name="パス 93" d="M87,198.42a1.057,1.057,0,0,0,.306.051,1,1,0,0,0,.969-.714,1.021,1.021,0,0,0-.652-1.284,1.035,1.035,0,0,0-1.285.663A1.018,1.018,0,0,0,87,198.42Z" transform="translate(-75.291 -171.396)" fill="#a21b43"/>
            <path id="パス_94" data-name="パス 94" d="M148.427,113.3a1.05,1.05,0,0,0,.612-.2h-.01a1.014,1.014,0,0,0,.224-1.418,1.027,1.027,0,0,0-1.428-.224,1.014,1.014,0,0,0-.214,1.428A1,1,0,0,0,148.427,113.3Z" transform="translate(-128.624 -97.08)" fill="#a21b43"/>
            <path id="パス_95" data-name="パス 95" d="M247.937,80.258h.01a1.02,1.02,0,0,0-.01-2.039,1.032,1.032,0,0,0-1.02,1.03A1.02,1.02,0,0,0,247.937,80.258Z" transform="translate(-215.452 -68.251)" fill="#a21b43"/>
            <path id="パス_96" data-name="パス 96" d="M347.879,112.094a1.016,1.016,0,0,0,.825-.428,1.016,1.016,0,1,0-1.417.234A.993.993,0,0,0,347.879,112.094Z" transform="translate(-302.66 -96.029)" fill="#a21b43"/>
            <path id="パス_97" data-name="パス 97" d="M87.58,301.318a1,1,0,0,0-.642,1.284h-.01a1.029,1.029,0,0,0,.979.7.888.888,0,0,0,.316-.052,1.02,1.02,0,0,0-.642-1.937Z" transform="translate(-75.81 -262.875)" fill="#a21b43"/>
            <path id="パス_98" data-name="パス 98" d="M149.054,386.192a1.028,1.028,0,0,0,.235,1.428,1.06,1.06,0,0,0,.591.183,1.035,1.035,0,0,0,.835-.418,1.023,1.023,0,0,0-1.662-1.193Z" transform="translate(-129.893 -336.606)" fill="#a21b43"/>
            <path id="パス_99" data-name="パス 99" d="M410.9,299.88a1.018,1.018,0,0,0-1.284.663,1.007,1.007,0,0,0,.663,1.274.822.822,0,0,0,.316.051,1.017,1.017,0,0,0,.306-1.988Z" transform="translate(-357.374 -261.621)" fill="#a21b43"/>
            <path id="パス_100" data-name="パス 100" d="M410.048,196.574a1.225,1.225,0,0,0,.316-.051,1.037,1.037,0,0,0,.653-1.3l-.031-.061v-.011a1.021,1.021,0,0,0-1.937.643.134.134,0,0,1,.021.061c.01,0,.01,0,.01.01A1.017,1.017,0,0,0,410.048,196.574Z" transform="translate(-356.876 -169.682)" fill="#a21b43"/>
            <path id="パス_101" data-name="パス 101" d="M348.743,385.1a1.016,1.016,0,0,0-.224,1.428,1.033,1.033,0,0,0,.825.418.989.989,0,0,0,.591-.2,1.015,1.015,0,1,0-1.193-1.642Z" transform="translate(-303.931 -335.853)" fill="#a21b43"/>
            <path id="パス_102" data-name="パス 102" d="M249.769,417.742a1.02,1.02,0,0,0,.011,2.039,1.02,1.02,0,1,0-.011-2.039Z" transform="translate(-217.059 -364.506)" fill="#a21b43"/>
            <path id="パス_103" data-name="パス 103" d="M32.624,0A32.624,32.624,0,1,0,65.248,32.624,32.661,32.661,0,0,0,32.624,0Zm0,57.48A24.856,24.856,0,1,1,57.48,32.624,24.884,24.884,0,0,1,32.624,57.48Z" fill="#a21b43"/>
            <path id="パス_104" data-name="パス 104" d="M240.338,130.672h-5.33v20.336h17.671v-5.33H240.338Z" transform="translate(-205.059 -114.02)" fill="#a21b43"/>
          </g>
        </g>
        <path id="パス_12483" data-name="パス 12483" d="M6.9-7.98a.907.907,0,0,0-.9-.9.907.907,0,0,0-.9.9.907.907,0,0,0,.9.9A.907.907,0,0,0,6.9-7.98ZM2.04-8.868l-.348.348,3.96,3.96L1.68-.588l.348.348L6-4.212,9.96-.252,10.308-.6,6.348-4.56l3.96-3.96L9.96-8.868,6-4.908ZM2.58-5.46a.907.907,0,0,0-.9.9.907.907,0,0,0,.9.9.907.907,0,0,0,.9-.9A.907.907,0,0,0,2.58-5.46Zm6.84,1.8a.907.907,0,0,0,.9-.9.907.907,0,0,0-.9-.9.907.907,0,0,0-.9.9A.907.907,0,0,0,9.42-3.66ZM5.1-1.14a.907.907,0,0,0,.9.9.907.907,0,0,0,.9-.9.907.907,0,0,0-.9-.9A.907.907,0,0,0,5.1-1.14ZM23.652-9.168a6.127,6.127,0,0,0-1.764-1l-.48.516a6.241,6.241,0,0,1,1.728,1.056ZM16.968-6.24a15.332,15.332,0,0,1-.564,2.5,10.815,10.815,0,0,0-1.572-1.14,13.84,13.84,0,0,0,.516-1.356Zm.384-.84-.156.036H15.588c.132-.528.264-1.068.36-1.632h2.268v-.816H13.584v.816h1.5a11.278,11.278,0,0,1-1.812,4.764,4.74,4.74,0,0,1,.684.588,7.562,7.562,0,0,0,.54-.864A11.5,11.5,0,0,1,16.1-2.88,7.243,7.243,0,0,1,13.74.312a2.85,2.85,0,0,1,.636.624C16.14-.408,17.412-3,17.868-6.912Zm5.916,3.168A7.676,7.676,0,0,1,21.7-2.136a15.722,15.722,0,0,1-.432-1.692l3.084-.324-.084-.732-3.132.324c-.06-.372-.12-.744-.168-1.14l2.868-.288L23.748-6.7l-2.856.276c-.036-.348-.072-.72-.1-1.092l3.192-.276L23.94-8.52l-3.18.276c-.024-.6-.036-1.212-.036-1.848h-.876c.012.648.024,1.3.06,1.932L18.072-8l.06.732,1.824-.156c.024.372.048.732.084,1.092l-1.68.168.072.72,1.692-.168c.036.4.1.768.156,1.14l-2.22.228.072.744,2.28-.24a14.748,14.748,0,0,0,.576,2.16A11.222,11.222,0,0,1,17.5.06,2.718,2.718,0,0,1,18,.8,12.128,12.128,0,0,0,21.3-.84c.5,1.068,1.164,1.7,1.992,1.7S24.384.42,24.54-1.08a1.937,1.937,0,0,1-.636-.468C23.832-.36,23.7.024,23.364.024c-.516,0-.972-.5-1.368-1.392a9.426,9.426,0,0,0,1.92-2.088Zm10.44-3.24A10.97,10.97,0,0,1,33.1-5.9l.12.036H30.4l.384-.084a4.663,4.663,0,0,0-.6-1.2Zm3.444,5.22v-.756H32.34v-.888H36.1V-4.26H32.34v-.876h4.344v-.732H33.96c.24-.36.5-.828.744-1.284h2.4V-7.92h-1.86A16.779,16.779,0,0,0,36.3-9.648l-.912-.24a13.614,13.614,0,0,1-.912,1.824l.444.144H33.468v-2.124h-.84V-7.92H31.2v-2.124h-.828V-7.92H28.9l.612-.228a8.271,8.271,0,0,0-1.02-1.764l-.756.252a9.354,9.354,0,0,1,.948,1.74H26.772v.768H29.7l-.42.084a5.039,5.039,0,0,1,.588,1.2H27.252v.732h4.212v.876H27.852v.684h3.612v.888h-4.74v.756h3.924a11.565,11.565,0,0,1-4.236,1.9,3.822,3.822,0,0,1,.576.756,12.059,12.059,0,0,0,4.476-2.364V.912h.876V-1.7A11.328,11.328,0,0,0,36.852.756a3.209,3.209,0,0,1,.6-.792,10.979,10.979,0,0,1-4.284-1.9ZM42.4-8.448v2.664h-1.74V-8.448Zm-1.74,6.216V-5H42.4v2.772Zm2.58-7.02h-3.4v8.8h.816v-.972h2.58Zm.984,6.72A9.256,9.256,0,0,1,45.744-.42L46.5-.9a8.484,8.484,0,0,0-1.56-2.04Zm6.192-2.976V-6.3h-3.1V-7.824H49.9v-.792h-2.58v-1.428H46.44v1.428h-2.5v.792h2.5V-6.3H43.428v.792h4.6v1.356H43.488v.792h4.536v3.2c0,.18-.06.228-.264.24s-.852.012-1.6-.012A2.725,2.725,0,0,1,46.452.9,6.866,6.866,0,0,0,48.4.756c.36-.132.492-.4.492-.9V-3.36H50.28v-.792H48.888V-5.508Zm6.024-3.324v1H53.844v-1ZM53.844-6.12V-7.176h2.592V-6.12Zm3.444.684V-9.528H52.956V.924h.888v-6.36ZM59.22-3.852v1.116H56.4V-3.852ZM56.4-.9V-2.064h2.82V-.9Zm3.648.708V-4.536H55.6V.408h.8v-.6Zm-.84-5.916V-7.176H61.9v1.068ZM61.9-8.832v1H59.208v-1Zm.9-.7h-4.44v4.1H61.9V-.276c0,.216-.072.288-.276.288S60.672.036,59.94,0a3.287,3.287,0,0,1,.312.912A6.83,6.83,0,0,0,62.268.756C62.664.6,62.8.3,62.8-.264Zm3.648,3.18v.828h8.712v-.828Zm0,3.54h8.712v-.828H66.444ZM81.732-8.724A8.81,8.81,0,0,0,79.38-9.96l-.48.66a9.575,9.575,0,0,1,2.328,1.308Zm-.624,3.132a10.173,10.173,0,0,0-2.376-1.1l-.468.684a10.086,10.086,0,0,1,2.364,1.176ZM80.832-3.66A36.1,36.1,0,0,1,78.684.192l.756.576C80.112-.348,80.9-1.824,81.5-3.084Zm8.5,4.128a16.307,16.307,0,0,0-2.292-3.444l-.756.4a20.692,20.692,0,0,1,1.236,1.7c-1.416.1-2.844.18-4.08.24.528-1.044,1.092-2.412,1.536-3.552h4.152V-5.04H85.716v-2.2H88.56v-.84H85.716v-1.956H84.8v1.956H82.068v.84H84.8v2.2H81.468v.852h2.448a28.313,28.313,0,0,1-1.44,3.612l-1,.048.132.888C83.268.252,85.68.1,88-.084a7.934,7.934,0,0,1,.5,1.02Zm3.288-8.292h8.172v1.752h.912V-8.664H97.164v-1.368H96.24v1.368h-4.5v2.592h.876Zm4.548,5.1h3.552v-.828H97.164V-5.544h3.06v-.84H93.276v.84h2.976V-.516a3.6,3.6,0,0,1-2.208-2.316,15.146,15.146,0,0,0,.288-1.6l-.912-.084C93.156-2.364,92.508-.66,91.176.372a4.659,4.659,0,0,1,.732.6A6.574,6.574,0,0,0,93.7-1.7C94.788.324,96.576.756,99.06.756h2.784a2.63,2.63,0,0,1,.336-.9c-.576.012-2.64.012-3.072.012a10.955,10.955,0,0,1-1.944-.144Zm12.1-4.656a14.7,14.7,0,0,1-.984,3.24,15.068,15.068,0,0,0-2.244-1.572,13.613,13.613,0,0,0,.888-1.668Zm3.42-2.652h-.912V-5.46a10.276,10.276,0,0,1-1.224-1.752l-.468.18c.06-.324.132-.66.18-1.008l-.576-.216-.168.048h-2.256c.2-.528.384-1.092.54-1.656l-.876-.18a11.214,11.214,0,0,1-2.868,5.352,5.175,5.175,0,0,1,.732.576,8.629,8.629,0,0,0,.792-.924,14.774,14.774,0,0,1,2.292,1.7A8.654,8.654,0,0,1,104.316.192a3.355,3.355,0,0,1,.708.66c2.28-1.272,4.08-3.66,4.956-7.44a13.682,13.682,0,0,0,1.788,2.352V.888h.912V-3.36a10.908,10.908,0,0,0,2.136,1.488,3.93,3.93,0,0,1,.636-.756,10.466,10.466,0,0,1-2.772-1.9Zm10.572,2.064a8.274,8.274,0,0,0-.948-2.04l-.78.252a8.108,8.108,0,0,1,.888,2.088Zm-2.856.06a8.62,8.62,0,0,0-1.3-1.9l-.756.36a8.279,8.279,0,0,1,1.248,1.956Zm2.2,3.408c.06-.54.108-1.128.132-1.752h-.96c-.024.636-.06,1.212-.108,1.752H118.3v.84h3.228c-.372,1.9-1.344,3.12-4.212,3.792a2.653,2.653,0,0,1,.516.792c3.192-.8,4.248-2.316,4.644-4.584h3.36c-.12,2.4-.288,3.372-.552,3.636-.12.12-.264.132-.528.132S123.66.1,122.844.024a2.017,2.017,0,0,1,.3.864,19.463,19.463,0,0,0,1.968.036,1.226,1.226,0,0,0,.936-.384c.384-.408.552-1.584.708-4.632.012-.132.012-.408.012-.408Zm2.964-2.976a24.385,24.385,0,0,0,1.56-2.124l-.948-.324a15.163,15.163,0,0,1-1.5,2.34l.264.108h-7.26v2.532h.864V-6.66h8.244v1.716h.888V-7.476Zm12.768,1.332A11.784,11.784,0,0,1,137.3-.66c-.588.06-1.176.12-1.74.168v-.936h1.872v-.7h-1.872v-.768H137.4V-6.384h-1.824V-7.14h1.86v.66h.888Zm-4.656,1.776h1.188v.876h-1.188Zm0-1.416h1.188v.852h-1.188Zm1.836.852v-.852h1.248v.852Zm0,1.44v-.876h1.248v.876Zm3.6-3.78V-9.984h-.78v2.712h-.84v-.564h-1.908v-.828a16,16,0,0,0,1.86-.324l-.48-.648a31.036,31.036,0,0,1-4.14.576c.084-.228.156-.468.228-.7l-.792-.216A13.972,13.972,0,0,1,129.9-5.16a6.247,6.247,0,0,1,.444.9,12.691,12.691,0,0,0,1.056-1.6V.924h.8v-8.4q.342-.774.612-1.584a2.491,2.491,0,0,1,.216.636c.564-.036,1.164-.084,1.764-.144v.732h-1.908v.7H134.8v.756h-1.752v3.492H134.8v.768h-1.788v.7H134.8V-.42l-2.088.192.144.756C133.968.4,135.42.24,136.872.06c-.108.156-.228.3-.348.444a2.808,2.808,0,0,1,.66.468c1.692-2,1.92-4.812,1.92-7.116V-6.48h1.08c-.1,4.476-.2,6.036-.432,6.372a.347.347,0,0,1-.36.192c-.192,0-.612-.012-1.08-.048a1.908,1.908,0,0,1,.216.78,6.627,6.627,0,0,0,1.2,0,.837.837,0,0,0,.708-.42c.336-.48.42-2.112.528-7.248,0-.108.012-.42.012-.42Zm6.972-1.176v2.664h-1.74V-8.448Zm-1.74,6.216V-5h1.74v2.772Zm2.58-7.02h-3.4v8.8h.816v-.972h2.58Zm.984,6.72A9.256,9.256,0,0,1,149.424-.42l.756-.48a8.484,8.484,0,0,0-1.56-2.04Zm6.192-2.976V-6.3H151V-7.824h2.58v-.792H151v-1.428h-.876v1.428h-2.5v.792h2.5V-6.3h-3.012v.792h4.6v1.356h-4.536v.792H151.7v3.2c0,.18-.06.228-.264.24s-.852.012-1.6-.012a2.725,2.725,0,0,1,.288.828,6.866,6.866,0,0,0,1.944-.144c.36-.132.492-.4.492-.9V-3.36h1.392v-.792h-1.392V-5.508Zm6.024-3.324v1h-2.592v-1ZM157.524-6.12V-7.176h2.592V-6.12Zm3.444.684V-9.528h-4.332V.924h.888v-6.36ZM162.9-3.852v1.116h-2.82V-3.852ZM160.08-.9V-2.064h2.82V-.9Zm3.648.708V-4.536h-4.452V.408h.8v-.6Zm-.84-5.916V-7.176h2.688v1.068Zm2.688-2.724v1h-2.688v-1Zm.9-.7h-4.44v4.1h3.54V-.276c0,.216-.072.288-.276.288s-.948.024-1.68-.012a3.287,3.287,0,0,1,.312.912,6.83,6.83,0,0,0,2.016-.156c.4-.156.528-.456.528-1.02Zm12.36,4.608h-3.948V-8.868h-.816V-4.92h-3.948v.828h3.948V-.144h.816V-4.092h3.948Zm6.144-5.04a12.331,12.331,0,0,1-3.252,4.812,5.107,5.107,0,0,1,.54.9,12.175,12.175,0,0,0,1.416-1.584V.9h.876V-7.116a17.828,17.828,0,0,0,1.308-2.568Zm7.86,3.828V-7h-3.468v-2.88H188.5V-7h-3.372v.864h2.9A12.191,12.191,0,0,1,184.7-1.224a5.178,5.178,0,0,1,.672.684,13.4,13.4,0,0,0,3.12-4.62V.924h.876V-5.412A14.568,14.568,0,0,0,192.48-.588a3.2,3.2,0,0,1,.672-.72,12.661,12.661,0,0,1-3.264-4.824Zm4.62,5.256V-4.224h5.952V-.876Zm5.952-7.464V-5.1H197.46V-8.34Zm-6.852-.876v10h.9V0h5.952V.732h.936V-9.216Zm17.412,1.248a8.274,8.274,0,0,0-.948-2.04l-.78.252a8.108,8.108,0,0,1,.888,2.088Zm-2.856.06a8.62,8.62,0,0,0-1.3-1.9l-.756.36a8.278,8.278,0,0,1,1.248,1.956Zm2.2,3.408c.06-.54.108-1.128.132-1.752h-.96c-.024.636-.06,1.212-.108,1.752h-3.36v.84h3.228c-.372,1.9-1.344,3.12-4.212,3.792a2.653,2.653,0,0,1,.516.792c3.192-.8,4.248-2.316,4.644-4.584h3.36c-.12,2.4-.288,3.372-.552,3.636-.12.12-.264.132-.528.132S214.38.1,213.564.024a2.017,2.017,0,0,1,.3.864,19.463,19.463,0,0,0,1.968.036,1.226,1.226,0,0,0,.936-.384c.384-.408.552-1.584.708-4.632.012-.132.012-.408.012-.408Zm2.964-2.976a24.383,24.383,0,0,0,1.56-2.124l-.948-.324a15.162,15.162,0,0,1-1.5,2.34l.264.108h-7.26v2.532h.864V-6.66H217.5v1.716h.888V-7.476Zm12.768,1.332a11.784,11.784,0,0,1-1.02,5.484c-.588.06-1.176.12-1.74.168v-.936h1.872v-.7h-1.872v-.768h1.836V-6.384H226.3V-7.14h1.86v.66h.888Zm-4.656,1.776h1.188v.876h-1.188Zm0-1.416h1.188v.852h-1.188Zm1.836.852v-.852h1.248v.852Zm0,1.44v-.876h1.248v.876Zm3.6-3.78V-9.984h-.78v2.712h-.84v-.564H226.3v-.828a16,16,0,0,0,1.86-.324l-.48-.648a31.035,31.035,0,0,1-4.14.576c.084-.228.156-.468.228-.7l-.792-.216A13.972,13.972,0,0,1,220.62-5.16a6.247,6.247,0,0,1,.444.9,12.691,12.691,0,0,0,1.056-1.6V.924h.8v-8.4q.342-.774.612-1.584a2.491,2.491,0,0,1,.216.636c.564-.036,1.164-.084,1.764-.144v.732h-1.908v.7h1.908v.756h-1.752v3.492h1.752v.768h-1.788v.7h1.788V-.42l-2.088.192.144.756C224.688.4,226.14.24,227.592.06c-.108.156-.228.3-.348.444a2.808,2.808,0,0,1,.66.468c1.692-2,1.92-4.812,1.92-7.116V-6.48h1.08c-.1,4.476-.2,6.036-.432,6.372a.347.347,0,0,1-.36.192c-.192,0-.612-.012-1.08-.048a1.908,1.908,0,0,1,.216.78,6.627,6.627,0,0,0,1.2,0,.837.837,0,0,0,.708-.42c.336-.48.42-2.112.528-7.248,0-.108.012-.42.012-.42ZM236.8-8.448v2.664h-1.74V-8.448Zm-1.74,6.216V-5h1.74v2.772Zm2.58-7.02h-3.4v8.8h.816v-.972h2.58Zm.984,6.72A9.256,9.256,0,0,1,240.144-.42L240.9-.9a8.484,8.484,0,0,0-1.56-2.04Zm6.192-2.976V-6.3h-3.1V-7.824h2.58v-.792h-2.58v-1.428h-.876v1.428h-2.5v.792h2.5V-6.3h-3.012v.792h4.6v1.356h-4.536v.792h4.536v3.2c0,.18-.06.228-.264.24s-.852.012-1.6-.012a2.725,2.725,0,0,1,.288.828A6.866,6.866,0,0,0,242.8.756c.36-.132.492-.4.492-.9V-3.36h1.392v-.792h-1.392V-5.508Zm6.024-3.324v1h-2.592v-1ZM248.244-6.12V-7.176h2.592V-6.12Zm3.444.684V-9.528h-4.332V.924h.888v-6.36Zm1.932,1.584v1.116H250.8V-3.852ZM250.8-.9V-2.064h2.82V-.9Zm3.648.708V-4.536H250V.408h.8v-.6Zm-.84-5.916V-7.176H256.3v1.068ZM256.3-8.832v1h-2.688v-1Zm.9-.7h-4.44v4.1h3.54V-.276c0,.216-.072.288-.276.288s-.948.024-1.68-.012a3.287,3.287,0,0,1,.312.912,6.83,6.83,0,0,0,2.016-.156c.4-.156.528-.456.528-1.02Z" transform="translate(511 6833.646)"/>
      </g>
    </g>
  </g>
</svg>
