<svg xmlns="http://www.w3.org/2000/svg" width="320" height="278" viewBox="0 0 320 278">
  <g id="グループ_960" data-name="グループ 960" transform="translate(-120 -7211)">
    <g id="グループ_703" data-name="グループ 703">
      <rect id="長方形_78" data-name="長方形 78" width="320" height="278" transform="translate(120 7211)" fill="#fff"/>
      <g id="グループ_951" data-name="グループ 951">
        <path id="パス_12498" data-name="パス 12498" d="M-35.406-7.014a8.959,8.959,0,0,1-1.722,3.822c-1.05-.462-2.1-.868-3.052-1.2.35-.826.728-1.708,1.092-2.618Zm3.976,0V-8.708H-38.4c.392-.966.756-1.932,1.092-2.828l-1.834-.308c-.336.966-.742,2.044-1.162,3.136h-3.822v1.694h3.136c-.616,1.5-1.246,2.912-1.778,4l1.68.616.238-.518q1.113.441,2.268.966A13.221,13.221,0,0,1-44.016-.42a5.613,5.613,0,0,1,.882,1.666,13.418,13.418,0,0,0,6.426-2.282,23.716,23.716,0,0,1,3.78,2.324L-31.654-.28a25.458,25.458,0,0,0-3.724-2.128A11.655,11.655,0,0,0-33.5-7.014Zm11.914,6.2v-2.8h2.562V-5.166h-2.562v-2.3h2.856V-9.03h-2.856v-2.744h-1.666V-9.03H-22.3c.14-.63.252-1.288.35-1.946l-1.624-.224a16.944,16.944,0,0,1-.742,3.416,16.052,16.052,0,0,0-.77-1.764l-.812.336v-2.646h-1.666V-9l-1.176-.168a16.639,16.639,0,0,1-.686,3.64l1.232.448a17.841,17.841,0,0,0,.63-3.71V1.218H-25.9V-8.344a9.735,9.735,0,0,1,.532,1.61l.8-.364c-.14.294-.28.56-.42.812a14.722,14.722,0,0,1,1.484.756,9.563,9.563,0,0,0,.784-1.932h1.54v2.3h-2.7v1.554h2.7v2.8H-24.92V.77h8.708V-.812ZM-2.576-11.76a37.587,37.587,0,0,1-7.042,1.05,5.687,5.687,0,0,1,.434,1.33A39.57,39.57,0,0,0-1.47-10.458ZM-3-5.782A30.994,30.994,0,0,0-1.092-9.1l-1.582-.574A18.293,18.293,0,0,1-4.284-6.3ZM-4.7-6.888a8.518,8.518,0,0,0-.644-2.548l-1.386.266a9.216,9.216,0,0,1,.56,2.576Zm-2.45.42a10.671,10.671,0,0,0-.952-2.618l-1.316.336a12.265,12.265,0,0,1,.854,2.688Zm-2.73.476-1.134.322V-7.686h1.274V-9.212h-1.274v-2.632H-12.53v2.632H-14v1.526h1.47v2.422c-.63.154-1.218.308-1.694.406l.364,1.6c.406-.112.868-.238,1.33-.378V-.546c0,.182-.07.238-.238.238A11.31,11.31,0,0,1-13.93-.322a6.193,6.193,0,0,1,.42,1.54A3.631,3.631,0,0,0-11.564.91c.42-.266.546-.686.546-1.456V-4.088c.448-.126.9-.266,1.344-.406ZM-1.2-3.458V-4.9H-4.578V-6.314H-6.146V-4.9h-3.29v1.442h2.408a8.357,8.357,0,0,1-3.3,2.772A7.561,7.561,0,0,1-9.226.616a9.7,9.7,0,0,0,3.08-2.884V1.12h1.568V-2.2A10.215,10.215,0,0,0-1.9.546,6.255,6.255,0,0,1-.812-.714,8.545,8.545,0,0,1-3.78-3.458Zm9.744-.98V-6.16h2.954v1.722Zm-4.354,0c.028-.518.042-1.022.042-1.47V-6.16H6.86v1.722Zm2.674-4.9v1.624H4.228V-9.338Zm4.634,1.624H8.54V-9.338h2.954Zm1.652-3.206H2.576v5C2.576-3.962,2.45-1.47.924.21A6.15,6.15,0,0,1,2.24,1.288,8.017,8.017,0,0,0,4-2.87H6.86V1.036H8.54V-2.87h2.954v2.1c0,.252-.1.336-.364.336S9.954-.42,9.17-.462a6.294,6.294,0,0,1,.532,1.6A6.5,6.5,0,0,0,12.39.84c.56-.252.756-.7.756-1.6Zm8.19,9.072v1.19H18.55v-1.19ZM17.052,1.2h1.5V.588h2.786v.476h1.582V-3.094H17.052Zm5.068-9.52H20.692v-.756H19.166v.756H17.738V-9.352H22.12Zm-1.4-3.458h-1.6v1.162H16.268V-8.2h.686V-7.14h2.212v.588H17.094v1.106h2.072v.6H16.31V-3.57h7.2V-4.844H20.692v-.6h2.044V-6.552H20.692V-7.14h2.24V-8.2h.728v-2.408H20.72Zm5.11,1.4H24.248v7.826H25.83Zm1.316-1.232V-.826c0,.224-.1.308-.336.308-.28,0-1.078.014-1.89-.028a6.82,6.82,0,0,1,.546,1.722A6.158,6.158,0,0,0,28.028.84c.56-.266.728-.728.728-1.652V-11.606Zm13.44,8.568V-.756h-5.53V-3.038Zm-7.168,4.27h1.638V.714h5.53v.518h1.708v-5.74H33.418Zm1.554-8.6a14.3,14.3,0,0,0,2.786-2.842,15.337,15.337,0,0,0,2.87,2.842Zm1.848-4.48a14.821,14.821,0,0,1-5.7,4.984A6.8,6.8,0,0,1,32.172-5.5a19.506,19.506,0,0,0,2.17-1.372v.98h6.972V-6.86a16.792,16.792,0,0,0,2.142,1.33,8.137,8.137,0,0,1,1.078-1.5,14.064,14.064,0,0,1-5.992-4.816Z" transform="translate(279 7244.646)"/>
        <g id="グループ_76" data-name="グループ 76" transform="translate(-346 1310)">
          <path id="パス_12291" data-name="パス 12291" d="M-85.787-84.39H-99.139l6.4-10.9h18.6v77.213H-85.787ZM-45.35-58.235a18.979,18.979,0,0,1-8.5-16.353,21.057,21.057,0,0,1,6.451-15.7,22.3,22.3,0,0,1,16.153-6.3,21.893,21.893,0,0,1,16,6.3,21.1,21.1,0,0,1,6.4,15.753q0,9.952-8.451,16.253a17.908,17.908,0,0,1,7.3,7.3,21.647,21.647,0,0,1,2.7,10.8q0,10.252-6.7,16.8t-17.153,6.551q-10.7,0-17.653-6.6a21.855,21.855,0,0,1-7-16.6Q-55.8-53.034-45.35-58.235Zm2.45-16.4a11.274,11.274,0,0,0,3.351,8.3,11.177,11.177,0,0,0,8.2,3.4,11.119,11.119,0,0,0,8.151-3.4,11.119,11.119,0,0,0,3.4-8.151,11.119,11.119,0,0,0-3.4-8.151,11.119,11.119,0,0,0-8.151-3.4,11.119,11.119,0,0,0-8.151,3.4A10.949,10.949,0,0,0-42.9-74.638Zm-1.45,34.206a12.816,12.816,0,0,0,3.7,9.2,12.311,12.311,0,0,0,9.1,3.8A12.334,12.334,0,0,0-22.5-31.18a12.5,12.5,0,0,0,3.751-9.1,12.393,12.393,0,0,0-3.751-9.1,12.334,12.334,0,0,0-9.052-3.751A12.442,12.442,0,0,0-40.6-49.384,12.219,12.219,0,0,0-44.349-40.432ZM3.789-23.679a6.631,6.631,0,0,1,2.05-4.851,6.688,6.688,0,0,1,4.9-2.05,6.688,6.688,0,0,1,4.9,2.05,6.688,6.688,0,0,1,2.05,4.9,6.746,6.746,0,0,1-2.05,4.951,6.665,6.665,0,0,1-4.9,2,6.724,6.724,0,0,1-4.951-2A6.785,6.785,0,0,1,3.789-23.679ZM40.975-84.39H27.623l6.4-10.9h18.6v77.213H40.975Z" transform="translate(610 6154.4)" fill="#a21b43"/>
          <path id="パス_12292" data-name="パス 12292" d="M10.352-14v-3.887a7.925,7.925,0,0,0,3.887-.645,3.987,3.987,0,0,0,1.777-3.633,4.118,4.118,0,0,0-1.289-3.145,4.543,4.543,0,0,0-3.3-1.23,4.271,4.271,0,0,0-2.93.918,6.082,6.082,0,0,0-1.484,3.164H2.48q.7-4.258,2.891-6.24a8.777,8.777,0,0,1,6.113-1.982,9.072,9.072,0,0,1,6.465,2.344,7.817,7.817,0,0,1,2.5,6A7.43,7.43,0,0,1,17.168-15.9q3.75,2.207,3.75,7.168A8.718,8.718,0,0,1,18.184-2.09,9.809,9.809,0,0,1,11.172.488q-5.449,0-8.086-4A10.392,10.392,0,0,1,1.7-8.164H6.094A5.343,5.343,0,0,0,7.8-4.814a5.261,5.261,0,0,0,3.545,1.162A4.916,4.916,0,0,0,15-5.117a5.274,5.274,0,0,0,1.445-3.809,4.638,4.638,0,0,0-2.168-4.336A8.027,8.027,0,0,0,10.352-14Zm24.688,0v-3.887a7.925,7.925,0,0,0,3.887-.645A3.987,3.987,0,0,0,40.7-22.168a4.118,4.118,0,0,0-1.289-3.145,4.543,4.543,0,0,0-3.3-1.23,4.271,4.271,0,0,0-2.93.918A6.082,6.082,0,0,0,31.7-22.461H27.168q.7-4.258,2.891-6.24a8.777,8.777,0,0,1,6.113-1.982,9.072,9.072,0,0,1,6.465,2.344,7.817,7.817,0,0,1,2.5,6A7.43,7.43,0,0,1,41.855-15.9q3.75,2.207,3.75,7.168A8.718,8.718,0,0,1,42.871-2.09,9.809,9.809,0,0,1,35.859.488q-5.449,0-8.086-4a10.392,10.392,0,0,1-1.387-4.648h4.395a5.343,5.343,0,0,0,1.709,3.35,5.261,5.261,0,0,0,3.545,1.162,4.916,4.916,0,0,0,3.652-1.465,5.274,5.274,0,0,0,1.445-3.809,4.638,4.638,0,0,0-2.168-4.336A8.027,8.027,0,0,0,35.039-14ZM52.832-2.187a2.59,2.59,0,0,1,.8-1.895,2.612,2.612,0,0,1,1.914-.8,2.612,2.612,0,0,1,1.914.8,2.612,2.612,0,0,1,.8,1.914,2.635,2.635,0,0,1-.8,1.934,2.6,2.6,0,0,1-1.914.781,2.626,2.626,0,0,1-1.934-.781A2.65,2.65,0,0,1,52.832-2.187Zm24.59-29.023,3.34,2.5-7.207,9.8q.586-.078,1-.117t.645-.039a8.471,8.471,0,0,1,6.348,2.813A9.311,9.311,0,0,1,84.2-9.57,9.7,9.7,0,0,1,81.23-2.461,9.667,9.667,0,0,1,74.141.488a10.15,10.15,0,0,1-7.187-2.91,9.247,9.247,0,0,1-3.027-6.895,12.978,12.978,0,0,1,2.949-7.578ZM79.766-9.277a5.525,5.525,0,0,0-1.66-4.062,5.511,5.511,0,0,0-4.043-1.68,5.5,5.5,0,0,0-4.043,1.66,5.479,5.479,0,0,0-1.66,4.023,5.479,5.479,0,0,0,1.66,4.023,5.525,5.525,0,0,0,4.063,1.66,5.457,5.457,0,0,0,4-1.66A5.422,5.422,0,0,0,79.766-9.277Z" transform="translate(547 6002)" fill="#a21b43"/>
          <path id="パス_12298" data-name="パス 12298" d="M-15.135-21.111a5.956,5.956,0,0,1,1.951-4.43A6.474,6.474,0,0,1-8.6-27.422a6.347,6.347,0,0,1,4.605,1.9,6.058,6.058,0,0,1,1.934,4.5A6.078,6.078,0,0,1-3.99-16.506a6.44,6.44,0,0,1-4.658,1.881,6.259,6.259,0,0,1-4.588-1.916A6.268,6.268,0,0,1-15.135-21.111Zm3.059.053a3.4,3.4,0,0,0,1.02,2.5,3.374,3.374,0,0,0,2.479,1.02,3.333,3.333,0,0,0,2.443-1.02,3.353,3.353,0,0,0,1.02-2.461,3.333,3.333,0,0,0-1.02-2.443A3.353,3.353,0,0,0-8.6-24.486a3.353,3.353,0,0,0-2.461,1.02A3.293,3.293,0,0,0-12.076-21.059Zm18.9-6.557,1.916,1.09L-6.8.439-8.736-.721ZM2.039-6.24A5.937,5.937,0,0,1,3.99-10.652a6.474,6.474,0,0,1,4.588-1.881,6.367,6.367,0,0,1,4.623,1.9,6.058,6.058,0,0,1,1.934,4.5,6.015,6.015,0,0,1-1.951,4.518A6.433,6.433,0,0,1,8.525.246a6.288,6.288,0,0,1-4.588-1.9A6.251,6.251,0,0,1,2.039-6.24Zm3.076.07a3.425,3.425,0,0,0,1,2.5A3.374,3.374,0,0,0,8.6-2.654a3.3,3.3,0,0,0,2.443-1.02,3.353,3.353,0,0,0,1.02-2.461A3.353,3.353,0,0,0,11.039-8.6a3.316,3.316,0,0,0-2.461-1.02A3.333,3.333,0,0,0,6.135-8.6,3.313,3.313,0,0,0,5.115-6.17Z" transform="translate(722 6118)" fill="#a21b43"/>
          <path id="パス_12297" data-name="パス 12297" d="M-6.727-9.383a2.647,2.647,0,0,1,.867-1.969,2.877,2.877,0,0,1,2.039-.836,2.821,2.821,0,0,1,2.047.844,2.692,2.692,0,0,1,.859,2,2.7,2.7,0,0,1-.859,2.008,2.862,2.862,0,0,1-2.07.836,2.782,2.782,0,0,1-2.039-.852A2.786,2.786,0,0,1-6.727-9.383Zm1.359.023A1.509,1.509,0,0,0-4.914-8.25a1.5,1.5,0,0,0,1.1.453A1.481,1.481,0,0,0-2.727-8.25a1.49,1.49,0,0,0,.453-1.094,1.481,1.481,0,0,0-.453-1.086,1.49,1.49,0,0,0-1.094-.453,1.49,1.49,0,0,0-1.094.453A1.464,1.464,0,0,0-5.367-9.359Zm8.4-2.914.852.484L-3.023.2-3.883-.32ZM.906-2.773a2.639,2.639,0,0,1,.867-1.961A2.877,2.877,0,0,1,3.813-5.57a2.83,2.83,0,0,1,2.055.844,2.692,2.692,0,0,1,.859,2A2.673,2.673,0,0,1,5.859-.719a2.859,2.859,0,0,1-2.07.828A2.8,2.8,0,0,1,1.75-.734,2.778,2.778,0,0,1,.906-2.773Zm1.367.031a1.522,1.522,0,0,0,.445,1.109,1.5,1.5,0,0,0,1.1.453,1.465,1.465,0,0,0,1.086-.453,1.49,1.49,0,0,0,.453-1.094A1.49,1.49,0,0,0,4.906-3.82a1.474,1.474,0,0,0-1.094-.453,1.481,1.481,0,0,0-1.086.453A1.472,1.472,0,0,0,2.273-2.742Z" transform="translate(646 6001)" fill="#a21b43"/>
          <path id="パス_12499" data-name="パス 12499" d="M-28.152,0h5.7V-1.176H-24.66c-.432,0-.984.036-1.44.084,1.872-1.788,3.228-3.552,3.228-5.256A2.5,2.5,0,0,0-25.536-9a3.429,3.429,0,0,0-2.688,1.32l.78.768A2.4,2.4,0,0,1-25.7-7.9a1.434,1.434,0,0,1,1.5,1.62c0,1.452-1.344,3.168-3.948,5.472ZM-17.22.156c1.728,0,2.856-1.536,2.856-4.608C-14.364-7.5-15.492-9-17.22-9s-2.856,1.488-2.856,4.548S-18.948.156-17.22.156Zm0-1.092c-.9,0-1.536-.96-1.536-3.516,0-2.532.636-3.456,1.536-3.456s1.536.924,1.536,3.456C-15.684-1.9-16.32-.936-17.22-.936ZM-11.568,0h5.04V-1.14H-8.256v-7.7H-9.3a5.194,5.194,0,0,1-1.92.684v.876h1.584V-1.14h-1.932ZM-2.76-6.1c0-1.152.6-1.836,1.356-1.836.96,0,1.62.792,1.752,2.532a2.1,2.1,0,0,1-1.68,1.08C-2.256-4.32-2.76-4.968-2.76-6.1ZM-1.644.156c1.7,0,3.288-1.392,3.288-4.872C1.644-7.644.276-9-1.416-9A2.7,2.7,0,0,0-4.044-6.1c0,1.848,1,2.772,2.472,2.772A2.655,2.655,0,0,0,.372-4.356C.288-1.836-.636-.972-1.7-.972a1.963,1.963,0,0,1-1.44-.66L-3.9-.78A3.031,3.031,0,0,0-1.644.156Zm8.76-2.94V-4.908H9.528v2.124Zm7.776,0H10.68V-4.908h3.348V-5.952H10.68V-7.608H14.3v-1.08H7.356c.156-.36.324-.756.468-1.128l-1.128-.3A9.709,9.709,0,0,1,4.08-6.048a8.874,8.874,0,0,1,.972.72A10.917,10.917,0,0,0,6.78-7.608H9.528v1.656H6v3.168H4.068V-1.7h5.46V.948H10.68V-1.7h4.212ZM19.2-7.944h8.784v-1H23.616v-1.128H22.452V-8.94h-4.32v3.384c0,1.74-.084,4.176-1.056,5.88a5.051,5.051,0,0,1,.912.612C19.032-.888,19.2-3.672,19.2-5.556Zm5.772,2.112v1.056H22.38V-5.832Zm1.092,1.92v-1.92H27.9v-.912H26.064v-.912H24.972v.912H22.38v-.912H21.324v.912H19.548v.912h1.776v1.92Zm-.5,1.524a5.531,5.531,0,0,1-1.776,1.3,5.162,5.162,0,0,1-1.74-1.3Zm.936-.936-.2.036H19.68v.9h1.836l-.54.2A6.388,6.388,0,0,0,22.632-.636,16.731,16.731,0,0,1,19.2.024a3.421,3.421,0,0,1,.468.936,15.753,15.753,0,0,0,4.08-.984,13.58,13.58,0,0,0,3.8,1A3.974,3.974,0,0,1,28.2.012a15.778,15.778,0,0,1-3.252-.636A5.788,5.788,0,0,0,27.18-2.952Z" transform="translate(709 6134.646)" fill="#a21b43"/>
          <path id="パス_12497" data-name="パス 12497" d="M.528,0h5.7V-1.176H4.02c-.432,0-.984.036-1.44.084C4.452-2.88,5.808-4.644,5.808-6.348A2.5,2.5,0,0,0,3.144-9,3.429,3.429,0,0,0,.456-7.68l.78.768A2.4,2.4,0,0,1,2.976-7.9a1.434,1.434,0,0,1,1.5,1.62C4.476-4.824,3.132-3.108.528-.8ZM11.46.156c1.728,0,2.856-1.536,2.856-4.608C14.316-7.5,13.188-9,11.46-9S8.6-7.512,8.6-4.452,9.732.156,11.46.156Zm0-1.092c-.9,0-1.536-.96-1.536-3.516,0-2.532.636-3.456,1.536-3.456S13-6.984,13-4.452C13-1.9,12.36-.936,11.46-.936ZM16.608,0h5.7V-1.176H20.1c-.432,0-.984.036-1.44.084,1.872-1.788,3.228-3.552,3.228-5.256A2.5,2.5,0,0,0,19.224-9a3.429,3.429,0,0,0-2.688,1.32l.78.768a2.4,2.4,0,0,1,1.74-.984,1.434,1.434,0,0,1,1.5,1.62c0,1.452-1.344,3.168-3.948,5.472ZM27.336.156c1.62,0,2.952-.936,2.952-2.532a2.236,2.236,0,0,0-1.824-2.208v-.06A2.135,2.135,0,0,0,29.988-6.72c0-1.452-1.116-2.28-2.7-2.28a3.722,3.722,0,0,0-2.532,1.068l.72.864A2.572,2.572,0,0,1,27.24-7.9,1.227,1.227,0,0,1,28.6-6.624c0,.888-.576,1.548-2.316,1.548v1.02c1.992,0,2.616.636,2.616,1.608a1.485,1.485,0,0,1-1.68,1.476,2.854,2.854,0,0,1-2.088-.972l-.672.888A3.666,3.666,0,0,0,27.336.156Zm-23.7,15.06V13.092H6.048v2.124Zm7.776,0H7.2V13.092h3.348V12.048H7.2V10.392h3.624V9.312H3.876c.156-.36.324-.756.468-1.128l-1.128-.3A9.709,9.709,0,0,1,.6,11.952a8.874,8.874,0,0,1,.972.72A10.917,10.917,0,0,0,3.3,10.392H6.048v1.656H2.52v3.168H.588V16.3h5.46v2.652H7.2V16.3h4.212Zm4.308-5.16H24.5v-1H20.136V7.932H18.972V9.06h-4.32v3.384c0,1.74-.084,4.176-1.056,5.88a5.051,5.051,0,0,1,.912.612c1.044-1.824,1.212-4.608,1.212-6.492Zm5.772,2.112v1.056H18.9V12.168Zm1.092,1.92v-1.92H24.42v-.912H22.584v-.912H21.492v.912H18.9v-.912H17.844v.912H16.068v.912h1.776v1.92Zm-.5,1.524a5.531,5.531,0,0,1-1.776,1.3,5.162,5.162,0,0,1-1.74-1.3Zm.936-.936-.2.036H16.2v.9h1.836l-.54.2a6.388,6.388,0,0,0,1.656,1.548,16.731,16.731,0,0,1-3.432.66,3.421,3.421,0,0,1,.468.936,15.753,15.753,0,0,0,4.08-.984,13.58,13.58,0,0,0,3.8,1,3.974,3.974,0,0,1,.648-.96,15.778,15.778,0,0,1-3.252-.636A5.788,5.788,0,0,0,23.7,15.048Z" transform="translate(512 5982.646)" fill="#a21b43"/>
          <path id="パス_83" data-name="パス 83" d="M23.566,0H170.561" transform="translate(488.506 6021.5)" fill="none" stroke="#a21b43" stroke-width="1"/>
        </g>
        <g id="グループ_595" data-name="グループ 595" transform="translate(203.559 7267.844)">
          <path id="パス_111" data-name="パス 111" d="M218.178,21.251a10.625,10.625,0,1,0-10.626-10.621A10.626,10.626,0,0,0,218.178,21.251Z" transform="translate(-53.347)" fill="#a21b43"/>
          <path id="パス_112" data-name="パス 112" d="M190.141,177.1l-11.01-25.889,3.663-18.48c.381-7.016-4.9-12.276-10.045-12.276H156.91c-5.146,0-10.424,5.26-10.045,12.276l3.665,18.48L139.518,177.1a3.762,3.762,0,0,0,3.462,5.232h11.606l3,20.378a3.618,3.618,0,0,0,3.617,3.616h7.249a3.617,3.617,0,0,0,3.617-3.616l3-20.378h11.606a3.761,3.761,0,0,0,3.462-5.232Z" transform="translate(0 -94.038)" fill="#a21b43"/>
        </g>
      </g>
    </g>
  </g>
</svg>
