<svg xmlns="http://www.w3.org/2000/svg" width="320" height="278" viewBox="0 0 320 278">
  <g id="グループ_962" data-name="グループ 962" transform="translate(-840 -7208)">
    <rect id="長方形_80" data-name="長方形 80" width="320" height="278" transform="translate(840 7208)" fill="#fff"/>
    <path id="パス_12503" data-name="パス 12503" d="M3.136-11.844A11.7,11.7,0,0,1,.392-9.072,12.74,12.74,0,0,1,1.26-7.854,17.212,17.212,0,0,0,4.606-11.27Zm.252,2.982a11.942,11.942,0,0,1-3.122,3.6A10.112,10.112,0,0,1,1.134-3.71,12.4,12.4,0,0,0,2.226-4.746V1.246H3.78V-6.622A18.761,18.761,0,0,0,4.844-8.316Zm6.734,5.474h2.744V-4.914H10.122v-2.17h3.122V-8.666h-1.68c.434-.714.938-1.694,1.4-2.632l-1.624-.56a15.891,15.891,0,0,1-1.3,2.786l1.078.406H7.77l.9-.434a15.188,15.188,0,0,0-1.484-2.66l-1.372.6A17.84,17.84,0,0,1,7.126-8.666H5.208v1.582H8.5V-1.26A4.043,4.043,0,0,1,7.1-3.15a22.6,22.6,0,0,0,.266-2.324L5.7-5.586C5.586-3.15,5.18-1.078,3.892.14A7.806,7.806,0,0,1,5.166,1.274,6.616,6.616,0,0,0,6.594-1.148C7.7.546,9.268,1.008,11.186,1.008h1.96a5.436,5.436,0,0,1,.49-1.554c-.49,0-1.946.014-2.324,0a8.212,8.212,0,0,1-1.19-.084Zm13.72-4.83c-.154.378-.322.784-.49,1.12H20.734l.238-.042A6.9,6.9,0,0,0,20.5-8.218Zm4.522,6.244V-3.346H22.918v-.616h4.2v-1.2h-4.2V-5.8h4.858V-7.1H25.032c.21-.336.434-.714.658-1.12h2.632V-9.576H26.5c.322-.49.7-1.12,1.092-1.764l-1.75-.42a11.278,11.278,0,0,1-.882,2.03l.5.154H24.22v-2.282H22.652v2.282H21.616v-2.282H20.062v2.282H18.788l.686-.252A10.594,10.594,0,0,0,18.41-11.8l-1.428.49a12.549,12.549,0,0,1,.868,1.736H15.974v1.358H18.9l-.168.028A6.291,6.291,0,0,1,19.208-7.1h-2.66v1.3H21.28v.63H17.248v1.2H21.28v.616H15.932v1.372H19.95A14.708,14.708,0,0,1,15.526-.336,7.766,7.766,0,0,1,16.59,1.05a13.28,13.28,0,0,0,4.69-2.268V1.218h1.638V-1.3a11.95,11.95,0,0,0,4.7,2.366,7.831,7.831,0,0,1,1.12-1.512A12.507,12.507,0,0,1,24.3-1.974ZM40.1-9.212H34.44v-.91H40.1Zm1.778-2.212H32.76v3.5h9.114Zm-8.092,8.47h6.86v.616h-6.86Zm0-1.666h6.86v.6h-6.86Zm0-1.652h6.86v.6h-6.86ZM42.364-1.2v-6.2H32.13v6.2H34.3A17.1,17.1,0,0,1,30.716.028a14.644,14.644,0,0,1,1.26,1.19,18.654,18.654,0,0,0,4.34-1.68L35.252-1.2h3.794l-1.162.826a37.263,37.263,0,0,1,4.494,1.624L43.848.07c-.966-.378-2.394-.882-3.7-1.274ZM54.11-9.828c-.112.294-.28.644-.406.91l.2.042H50.792l.182-.042a8.529,8.529,0,0,0-.336-.91Zm4.326.952H55.342c.168-.252.378-.546.588-.91l-.21-.042h1.974v-1.288H53.172v-.742H51.52v.742H47.012v1.288h2.03l-.07.014a8.5,8.5,0,0,1,.35.938h-3v1.288h12.11ZM47.082.938A5.342,5.342,0,0,0,49.014-1.82l-1.4-.49A4.629,4.629,0,0,1,45.78.056Zm2.3-5.362h6.048v.63H49.378Zm0-1.568h6.048v.6H49.378ZM51.744-.266c-.63,0-.742-.042-.742-.42v-1.4a8.736,8.736,0,0,1,1.974,1.2l1.008-1.036a8.9,8.9,0,0,0-1.456-.854h4.55V-7.014H47.8v4.242h3.5l-.574.56.168.07H49.378v1.47c0,1.33.434,1.736,2.2,1.736H53.83c1.3,0,1.75-.392,1.932-1.946a4.492,4.492,0,0,1-1.414-.532c-.07.994-.154,1.148-.672,1.148Zm3.612-1.5a11.605,11.605,0,0,1,2.2,2.618l1.372-.8a10.281,10.281,0,0,0-2.282-2.534Zm9.632-9.66h-3.43v1.26h3.43Zm.35,1.876h-4.4v1.316h4.4ZM65-7.6H61.488v1.274H65ZM61.488-4.438H65V-5.684H61.488ZM63.742-2.45V-.84H62.706V-2.45Zm1.3-1.3h-3.6V1.022h1.26V.462h2.338Zm1.974,2.268v-.742H68.39v.742ZM68.39-4.046v.7H67.018v-.7Zm4.13-1.19a12.263,12.263,0,0,1-.7,1.694c-.056-.672-.112-1.428-.14-2.282h2.254v-1.33H71.652c-.028-1.008-.028-2.1-.014-3.276A8.4,8.4,0,0,1,72.73-7.952L74.06-8.5A8.7,8.7,0,0,0,72.814-11l-1.176.448.014-1.288H70.238c0,1.722.014,3.29.042,4.69H69.2c.14-.5.308-1.2.49-1.876l-1.26-.2h1.554v-1.246H68.53v-1.372H67v1.372H65.52v1.246h2.828c-.056.56-.182,1.372-.294,1.918l.728.154H66.514l.938-.224a6.049,6.049,0,0,0-.406-1.806l-1.106.238a7.873,7.873,0,0,1,.336,1.792h-1.05v1.33h5.1A30.968,30.968,0,0,0,70.7-1.806,11.409,11.409,0,0,1,69.734-.77V-5.194H65.772V.2h1.246V-.336H69.23a7.569,7.569,0,0,1-.91.63,5.341,5.341,0,0,1,.938.924,10.625,10.625,0,0,0,1.834-1.5c.364.952.9,1.47,1.638,1.526.532.028,1.134-.462,1.484-2.45a4.788,4.788,0,0,1-1.022-.938c-.056.994-.2,1.61-.378,1.6-.28-.028-.5-.378-.672-.98a12.461,12.461,0,0,0,1.61-3.024ZM80.3-11.424H76.72v1.26H80.3Zm.378,1.876h-4.62v1.316h4.62ZM80.346-7.6h-3.71v1.274h3.71Zm-3.71,3.164h3.71V-5.684h-3.71Zm6.51-2.282V-5.5h3.64V-6.72h-1.2v-.952h1.106v-1.2H85.582v-.91h-1.3v.91H83.2v1.2H84.28v.952ZM85.47-3.584v1.316H84.406V-3.584Zm1.2,2.506v-3.71H83.23V-.6h1.176v-.476ZM78.988-.84H77.882V-2.45h1.106Zm9.758-10.514H81.228v5.208A16.028,16.028,0,0,1,80.318.14V-3.752H76.594V1.022h1.288V.462h2.436a5.228,5.228,0,0,1,1.162.826c1.092-2.016,1.26-5.208,1.26-7.434V-9.94h4.466V-.672c0,.21-.056.266-.252.266S86.1-.392,85.526-.42A5.774,5.774,0,0,1,85.988,1.2,4.461,4.461,0,0,0,88.144.9c.476-.266.6-.742.6-1.554ZM93.814-5.88a11.709,11.709,0,0,0,3.038-2.632v2.254H98.49v-2.2a11.633,11.633,0,0,0,3.122,2.576ZM95.34-.49v-.588h4.7V-.49Zm0-2.324h4.7v.588h-4.7Zm4.7-1.148h-4.7v-.56h4.7Zm3.92-4.9V-10.3H98.49v-1.554H96.852V-10.3H91.49v1.442h3.766A10.924,10.924,0,0,1,91.1-6.342a6.969,6.969,0,0,1,1.036,1.288,11.772,11.772,0,0,0,1.582-.77V-.49h-2.31V.966h12.656V-.49h-2.3V-5.8a9.989,9.989,0,0,0,1.47.686,6.312,6.312,0,0,1,1.078-1.33,11.21,11.21,0,0,1-4.284-2.422Zm5.32,2.044a16.128,16.128,0,0,0,3.5-3.472A16.872,16.872,0,0,0,116.4-6.818Zm4.382,4.536h3.92V-3.738h-3.92v-1.61h3.276V-6.44a17.75,17.75,0,0,0,1.512.938A8.112,8.112,0,0,1,119.56-7a14.8,14.8,0,0,1-5.992-4.9h-1.722a15.278,15.278,0,0,1-5.684,5.068,6.151,6.151,0,0,1,1.05,1.344,17.914,17.914,0,0,0,1.554-.966v1.106h3.164v1.61h-3.878v1.456h3.878V-.616h-5v1.5h11.914v-1.5h-5.18Zm10.416-9.52a14.744,14.744,0,0,1-2.9,5.236,9.979,9.979,0,0,1,.924,1.736c.28-.336.574-.714.854-1.092V1.19h1.582V-8.624a24.518,24.518,0,0,0,1.12-2.7Zm6.426,9.184V-6.272a20.477,20.477,0,0,0,1.722,3.654Zm-3.332,0a18.193,18.193,0,0,0,1.708-3.556v3.556Zm7.2-5.166V-9.366h-3.864v-2.422h-1.624v2.422h-3.542v1.582H128.1A14.316,14.316,0,0,1,124.614-2.1,6.786,6.786,0,0,1,125.8-.84a10.366,10.366,0,0,0,1.246-1.582v1.288h1.834V1.12h1.624V-1.134h1.876V-2.366A12.834,12.834,0,0,0,133.5-.882,6.815,6.815,0,0,1,134.75-2.17a15.125,15.125,0,0,1-3.416-5.614Zm3.934,8.834c.728-1.358,1.456-2.968,2.086-4.466l-1.316-.994a47.426,47.426,0,0,1-2.24,4.48Zm1.582-7.77a9.089,9.089,0,0,0-2.534-1.232l-.882,1.26a10.592,10.592,0,0,1,2.492,1.372Zm-2.744-3.822a9.84,9.84,0,0,1,2.352,1.6l1.036-1.316a10.7,10.7,0,0,0-2.408-1.484Zm6.734,1.274h1.876v1.036h-1.876Zm5.7,2.492V-8.232h-2.212V-9.268h1.82V-10.71h-1.82v-1.134h-1.61v1.134h-1.876v-1.134h-1.554v1.134h-1.792v1.442h1.792v1.036H140.1v1.456h3.892v.84h-3.472V1.2h1.47v-5.7h2.2v2.226h-.63V-3.92h-.994V-.252h.994v-.812h2.534V-.6h.966V-3.92h-.966v1.652H145.4V-4.494h2.31v4.1c0,.154-.056.21-.238.224s-.784,0-1.3-.028a4.546,4.546,0,0,1,.378,1.386,5.309,5.309,0,0,0,2.1-.238c.476-.224.616-.6.616-1.33V-5.936h-3.682v-.84Zm5.516-2.9H161.5v1.918h-6.412Zm4.074,6.762h4.564v-1.54h-4.564V-6.174h4.116v-5.1h-9.856v5.1h4.018v4.956a4.24,4.24,0,0,1-2.016-2.254c.14-.56.252-1.12.336-1.666l-1.736-.2c-.2,1.9-.812,4.186-2.324,5.376a6.947,6.947,0,0,1,1.176,1.134A7.045,7.045,0,0,0,154.8-1.568c1.456,2.142,3.626,2.646,6.44,2.646h2.968a6.112,6.112,0,0,1,.574-1.61c-.77.014-2.842.028-3.444.014a13.42,13.42,0,0,1-2.17-.154Zm10.332-6.2h10.094V-10.6h-4.97v-1.246h-1.736V-10.6H167.9v3.92c0,2.044-.084,4.956-1.246,6.944a6.062,6.062,0,0,1,1.358.91C169.288-.98,169.5-4.41,169.5-6.678Zm6.356,2.492V-5.7h-2.548v-.924Zm1.652,2.184V-6.622h2.016V-7.938h-2.016v-.924h-1.652v.924h-2.548v-.924h-1.568v.924h-1.89v1.316h1.89v2.184Zm-1.134,1.862a6.359,6.359,0,0,1-1.68,1.148,5.6,5.6,0,0,1-1.638-1.148Zm1.414-1.372-.294.07h-7.546v1.3h2.086l-.658.238a7.07,7.07,0,0,0,1.61,1.554,18.994,18.994,0,0,1-3.626.63,5.614,5.614,0,0,1,.672,1.4A18.974,18.974,0,0,0,174.636.154a14.784,14.784,0,0,0,4.256,1.106,6.631,6.631,0,0,1,.98-1.428,18.5,18.5,0,0,1-3.444-.6,6.866,6.866,0,0,0,2.394-2.66Z" transform="translate(909 7241.646)"/>
    <g id="グループ_78" data-name="グループ 78" transform="translate(359 1216)">
      <path id="パス_12299" data-name="パス 12299" d="M-68.75-78.027l8.35,6.25L-78.418-47.266q1.465-.2,2.49-.293t1.611-.1a21.179,21.179,0,0,1,15.869,7.031,23.276,23.276,0,0,1,6.641,16.7A24.248,24.248,0,0,1-59.229-6.152,24.167,24.167,0,0,1-76.953,1.221,25.374,25.374,0,0,1-94.922-6.055a23.118,23.118,0,0,1-7.568-17.236q0-8.936,7.373-18.945Zm5.859,54.834a13.813,13.813,0,0,0-4.15-10.156,13.779,13.779,0,0,0-10.107-4.2A13.756,13.756,0,0,0-87.256-33.4a13.7,13.7,0,0,0-4.15,10.059,13.7,13.7,0,0,0,4.15,10.059A13.813,13.813,0,0,0-77.1-9.131a13.641,13.641,0,0,0,10.01-4.15A13.556,13.556,0,0,0-62.891-23.193ZM-7.031-78.027l8.35,6.25L-16.7-47.266q1.465-.2,2.49-.293t1.611-.1A21.179,21.179,0,0,1,3.271-40.625a23.276,23.276,0,0,1,6.641,16.7A24.248,24.248,0,0,1,2.49-6.152,24.167,24.167,0,0,1-15.234,1.221,25.374,25.374,0,0,1-33.2-6.055a23.118,23.118,0,0,1-7.568-17.236q0-8.936,7.373-18.945Zm5.859,54.834A13.813,13.813,0,0,0-5.322-33.35a13.779,13.779,0,0,0-10.107-4.2A13.756,13.756,0,0,0-25.537-33.4a13.7,13.7,0,0,0-4.15,10.059,13.7,13.7,0,0,0,4.15,10.059,13.813,13.813,0,0,0,10.156,4.15,13.641,13.641,0,0,0,10.01-4.15A13.556,13.556,0,0,0-1.172-23.193ZM24.072-5.469a6.475,6.475,0,0,1,2-4.736,6.53,6.53,0,0,1,4.785-2,6.53,6.53,0,0,1,4.785,2,6.53,6.53,0,0,1,2,4.785,6.587,6.587,0,0,1-2,4.834,6.507,6.507,0,0,1-4.785,1.953A6.566,6.566,0,0,1,26.025-.586,6.625,6.625,0,0,1,24.072-5.469Zm47.266-5.225H99.414V0H48.779L74.951-31.689q3.857-4.736,6.47-8.2A62.356,62.356,0,0,0,85.4-45.7a16.332,16.332,0,0,0,2.783-8.252,11.761,11.761,0,0,0-3.711-8.838,12.738,12.738,0,0,0-9.18-3.564q-11.426,0-13.086,13.525H50.879Q53.613-76.66,74.951-76.66a24.315,24.315,0,0,1,17.285,6.543,21.252,21.252,0,0,1,7.031,16.211A24.627,24.627,0,0,1,96-41.846a59.085,59.085,0,0,1-4.858,7.3q-3.2,4.224-8.081,9.985Z" transform="translate(596 6199)" fill="#a21b43"/>
      <path id="パス_12300" data-name="パス 12300" d="M16.953-25.9H2.07v-4.258h22.48L5.527,1.035,1.914-1.25Zm28.77,0h-9.3l-1.484,5q.332-.039.635-.059t.557-.02a9.489,9.489,0,0,1,7.207,2.969,10.465,10.465,0,0,1,2.832,7.559,10.433,10.433,0,0,1-3.2,7.852A11.159,11.159,0,0,1,34.9.488q-6,0-9.453-5.625l3.438-2.91a10.653,10.653,0,0,0,2.871,3.418,6.168,6.168,0,0,0,3.535.977,6.137,6.137,0,0,0,4.59-1.914,6.73,6.73,0,0,0,1.855-4.785A6.4,6.4,0,0,0,39.9-15.078a6.128,6.128,0,0,0-4.59-1.895A6.694,6.694,0,0,0,30.02-14.3h-1.5l4.746-15.859H45.723ZM52.832-2.187a2.59,2.59,0,0,1,.8-1.895,2.612,2.612,0,0,1,1.914-.8,2.612,2.612,0,0,1,1.914.8,2.612,2.612,0,0,1,.8,1.914,2.635,2.635,0,0,1-.8,1.934,2.6,2.6,0,0,1-1.914.781,2.626,2.626,0,0,1-1.934-.781A2.65,2.65,0,0,1,52.832-2.187ZM63.418-15.273q0-7.207,3.359-11.5a8.955,8.955,0,0,1,7.285-3.887,8.955,8.955,0,0,1,7.285,3.887q3.359,4.3,3.359,11.7,0,7.383-3.359,11.68A8.939,8.939,0,0,1,74.082.488a9.042,9.042,0,0,1-7.3-3.887Q63.418-7.7,63.418-15.273Zm4.473.02a17.869,17.869,0,0,0,1.738,8.34q1.738,3.262,4.434,3.262,2.676,0,4.434-3.262A17.04,17.04,0,0,0,80.254-15.1,17.158,17.158,0,0,0,78.5-23.3q-1.758-3.242-4.434-3.242-2.656,0-4.414,3.242A16.648,16.648,0,0,0,67.891-15.254Z" transform="translate(672 6085)" fill="#a21b43"/>
      <path id="パス_12302" data-name="パス 12302" d="M-15.135-21.111a5.956,5.956,0,0,1,1.951-4.43A6.474,6.474,0,0,1-8.6-27.422a6.347,6.347,0,0,1,4.605,1.9,6.058,6.058,0,0,1,1.934,4.5A6.078,6.078,0,0,1-3.99-16.506a6.44,6.44,0,0,1-4.658,1.881,6.259,6.259,0,0,1-4.588-1.916A6.268,6.268,0,0,1-15.135-21.111Zm3.059.053a3.4,3.4,0,0,0,1.02,2.5,3.374,3.374,0,0,0,2.479,1.02,3.333,3.333,0,0,0,2.443-1.02,3.353,3.353,0,0,0,1.02-2.461,3.333,3.333,0,0,0-1.02-2.443A3.353,3.353,0,0,0-8.6-24.486a3.353,3.353,0,0,0-2.461,1.02A3.293,3.293,0,0,0-12.076-21.059Zm18.9-6.557,1.916,1.09L-6.8.439-8.736-.721ZM2.039-6.24A5.937,5.937,0,0,1,3.99-10.652a6.474,6.474,0,0,1,4.588-1.881,6.367,6.367,0,0,1,4.623,1.9,6.058,6.058,0,0,1,1.934,4.5,6.015,6.015,0,0,1-1.951,4.518A6.433,6.433,0,0,1,8.525.246a6.288,6.288,0,0,1-4.588-1.9A6.251,6.251,0,0,1,2.039-6.24Zm3.076.07a3.425,3.425,0,0,0,1,2.5A3.374,3.374,0,0,0,8.6-2.654a3.3,3.3,0,0,0,2.443-1.02,3.353,3.353,0,0,0,1.02-2.461A3.353,3.353,0,0,0,11.039-8.6a3.316,3.316,0,0,0-2.461-1.02A3.333,3.333,0,0,0,6.135-8.6,3.313,3.313,0,0,0,5.115-6.17Z" transform="translate(754 6182)" fill="#a21b43"/>
      <path id="パス_12301" data-name="パス 12301" d="M-6.727-9.383a2.647,2.647,0,0,1,.867-1.969,2.877,2.877,0,0,1,2.039-.836,2.821,2.821,0,0,1,2.047.844,2.692,2.692,0,0,1,.859,2,2.7,2.7,0,0,1-.859,2.008,2.862,2.862,0,0,1-2.07.836,2.782,2.782,0,0,1-2.039-.852A2.786,2.786,0,0,1-6.727-9.383Zm1.359.023A1.509,1.509,0,0,0-4.914-8.25a1.5,1.5,0,0,0,1.1.453A1.481,1.481,0,0,0-2.727-8.25a1.49,1.49,0,0,0,.453-1.094,1.481,1.481,0,0,0-.453-1.086,1.49,1.49,0,0,0-1.094-.453,1.49,1.49,0,0,0-1.094.453A1.464,1.464,0,0,0-5.367-9.359Zm8.4-2.914.852.484L-3.023.2-3.883-.32ZM.906-2.773a2.639,2.639,0,0,1,.867-1.961A2.877,2.877,0,0,1,3.813-5.57a2.83,2.83,0,0,1,2.055.844,2.692,2.692,0,0,1,.859,2A2.673,2.673,0,0,1,5.859-.719a2.859,2.859,0,0,1-2.07.828A2.8,2.8,0,0,1,1.75-.734,2.778,2.778,0,0,1,.906-2.773Zm1.367.031a1.522,1.522,0,0,0,.445,1.109,1.5,1.5,0,0,0,1.1.453,1.465,1.465,0,0,0,1.086-.453,1.49,1.49,0,0,0,.453-1.094A1.49,1.49,0,0,0,4.906-3.82a1.474,1.474,0,0,0-1.094-.453,1.481,1.481,0,0,0-1.086.453A1.472,1.472,0,0,0,2.273-2.742Z" transform="translate(769 6084)" fill="#a21b43"/>
      <path id="パス_12505" data-name="パス 12505" d="M-28.152,0h5.7V-1.176H-24.66c-.432,0-.984.036-1.44.084,1.872-1.788,3.228-3.552,3.228-5.256A2.5,2.5,0,0,0-25.536-9a3.429,3.429,0,0,0-2.688,1.32l.78.768A2.4,2.4,0,0,1-25.7-7.9a1.434,1.434,0,0,1,1.5,1.62c0,1.452-1.344,3.168-3.948,5.472ZM-17.22.156c1.728,0,2.856-1.536,2.856-4.608C-14.364-7.5-15.492-9-17.22-9s-2.856,1.488-2.856,4.548S-18.948.156-17.22.156Zm0-1.092c-.9,0-1.536-.96-1.536-3.516,0-2.532.636-3.456,1.536-3.456s1.536.924,1.536,3.456C-15.684-1.9-16.32-.936-17.22-.936ZM-11.568,0h5.04V-1.14H-8.256v-7.7H-9.3a5.194,5.194,0,0,1-1.92.684v.876h1.584V-1.14h-1.932ZM-2.76-6.1c0-1.152.6-1.836,1.356-1.836.96,0,1.62.792,1.752,2.532a2.1,2.1,0,0,1-1.68,1.08C-2.256-4.32-2.76-4.968-2.76-6.1ZM-1.644.156c1.7,0,3.288-1.392,3.288-4.872C1.644-7.644.276-9-1.416-9A2.7,2.7,0,0,0-4.044-6.1c0,1.848,1,2.772,2.472,2.772A2.655,2.655,0,0,0,.372-4.356C.288-1.836-.636-.972-1.7-.972a1.963,1.963,0,0,1-1.44-.66L-3.9-.78A3.031,3.031,0,0,0-1.644.156Zm8.76-2.94V-4.908H9.528v2.124Zm7.776,0H10.68V-4.908h3.348V-5.952H10.68V-7.608H14.3v-1.08H7.356c.156-.36.324-.756.468-1.128l-1.128-.3A9.709,9.709,0,0,1,4.08-6.048a8.874,8.874,0,0,1,.972.72A10.917,10.917,0,0,0,6.78-7.608H9.528v1.656H6v3.168H4.068V-1.7h5.46V.948H10.68V-1.7h4.212ZM19.2-7.944h8.784v-1H23.616v-1.128H22.452V-8.94h-4.32v3.384c0,1.74-.084,4.176-1.056,5.88a5.051,5.051,0,0,1,.912.612C19.032-.888,19.2-3.672,19.2-5.556Zm5.772,2.112v1.056H22.38V-5.832Zm1.092,1.92v-1.92H27.9v-.912H26.064v-.912H24.972v.912H22.38v-.912H21.324v.912H19.548v.912h1.776v1.92Zm-.5,1.524a5.531,5.531,0,0,1-1.776,1.3,5.162,5.162,0,0,1-1.74-1.3Zm.936-.936-.2.036H19.68v.9h1.836l-.54.2A6.388,6.388,0,0,0,22.632-.636,16.731,16.731,0,0,1,19.2.024a3.421,3.421,0,0,1,.468.936,15.753,15.753,0,0,0,4.08-.984,13.58,13.58,0,0,0,3.8,1A3.974,3.974,0,0,1,28.2.012a15.778,15.778,0,0,1-3.252-.636A5.788,5.788,0,0,0,27.18-2.952Z" transform="translate(741 6198.646)" fill="#a21b43"/>
      <path id="パス_12504" data-name="パス 12504" d="M.528,0h5.7V-1.176H4.02c-.432,0-.984.036-1.44.084C4.452-2.88,5.808-4.644,5.808-6.348A2.5,2.5,0,0,0,3.144-9,3.429,3.429,0,0,0,.456-7.68l.78.768A2.4,2.4,0,0,1,2.976-7.9a1.434,1.434,0,0,1,1.5,1.62C4.476-4.824,3.132-3.108.528-.8ZM11.46.156c1.728,0,2.856-1.536,2.856-4.608C14.316-7.5,13.188-9,11.46-9S8.6-7.512,8.6-4.452,9.732.156,11.46.156Zm0-1.092c-.9,0-1.536-.96-1.536-3.516,0-2.532.636-3.456,1.536-3.456S13-6.984,13-4.452C13-1.9,12.36-.936,11.46-.936ZM16.608,0h5.7V-1.176H20.1c-.432,0-.984.036-1.44.084,1.872-1.788,3.228-3.552,3.228-5.256A2.5,2.5,0,0,0,19.224-9a3.429,3.429,0,0,0-2.688,1.32l.78.768a2.4,2.4,0,0,1,1.74-.984,1.434,1.434,0,0,1,1.5,1.62c0,1.452-1.344,3.168-3.948,5.472ZM27.336.156c1.62,0,2.952-.936,2.952-2.532a2.236,2.236,0,0,0-1.824-2.208v-.06A2.135,2.135,0,0,0,29.988-6.72c0-1.452-1.116-2.28-2.7-2.28a3.722,3.722,0,0,0-2.532,1.068l.72.864A2.572,2.572,0,0,1,27.24-7.9,1.227,1.227,0,0,1,28.6-6.624c0,.888-.576,1.548-2.316,1.548v1.02c1.992,0,2.616.636,2.616,1.608a1.485,1.485,0,0,1-1.68,1.476,2.854,2.854,0,0,1-2.088-.972l-.672.888A3.666,3.666,0,0,0,27.336.156Zm-23.7,15.06V13.092H6.048v2.124Zm7.776,0H7.2V13.092h3.348V12.048H7.2V10.392h3.624V9.312H3.876c.156-.36.324-.756.468-1.128l-1.128-.3A9.709,9.709,0,0,1,.6,11.952a8.874,8.874,0,0,1,.972.72A10.917,10.917,0,0,0,3.3,10.392H6.048v1.656H2.52v3.168H.588V16.3h5.46v2.652H7.2V16.3h4.212Zm4.308-5.16H24.5v-1H20.136V7.932H18.972V9.06h-4.32v3.384c0,1.74-.084,4.176-1.056,5.88a5.051,5.051,0,0,1,.912.612c1.044-1.824,1.212-4.608,1.212-6.492Zm5.772,2.112v1.056H18.9V12.168Zm1.092,1.92v-1.92H24.42v-.912H22.584v-.912H21.492v.912H18.9v-.912H17.844v.912H16.068v.912h1.776v1.92Zm-.5,1.524a5.531,5.531,0,0,1-1.776,1.3,5.162,5.162,0,0,1-1.74-1.3Zm.936-.936-.2.036H16.2v.9h1.836l-.54.2a6.388,6.388,0,0,0,1.656,1.548,16.731,16.731,0,0,1-3.432.66,3.421,3.421,0,0,1,.468.936,15.753,15.753,0,0,0,4.08-.984,13.58,13.58,0,0,0,3.8,1,3.974,3.974,0,0,1,.648-.96,15.778,15.778,0,0,1-3.252-.636A5.788,5.788,0,0,0,23.7,15.048Z" transform="translate(637 6065.646)" fill="#a21b43"/>
      <line id="線_22" data-name="線 22" x2="139" transform="translate(637.5 6101.5)" fill="none" stroke="#a21b43" stroke-width="1"/>
    </g>
    <g id="グループ_93" data-name="グループ 93" transform="translate(885 7234.829)">
      <path id="パス_123" data-name="パス 123" d="M47.324,32.174c-9.7.187-14.442,7.049-15.5,13.288-1.053-6.239-5.8-13.1-15.5-13.288C7.393,32,0,38.879,0,51.43,0,67.542,18.225,74.985,30.687,87.02c.434.419.332.408.332.408a1.044,1.044,0,0,0,.809.4h0a1.044,1.044,0,0,0,.809-.4s-.1.011.332-.408C45.433,74.985,63.658,67.542,63.658,51.43,63.658,38.879,56.265,32,47.324,32.174Z" transform="translate(0 0)" fill="#a21b43"/>
    </g>
    <path id="パス_12506" data-name="パス 12506" d="M6,6.92a.9.9,0,1,0-.9-.9A.907.907,0,0,0,6,6.92ZM9.96,5.132,6,9.092,2.04,5.132l-.348.348,3.96,3.96L1.68,13.412l.348.348L6,9.788l3.96,3.96.348-.348L6.348,9.44l3.96-3.96ZM3.48,9.44a.9.9,0,1,0-.9.9A.907.907,0,0,0,3.48,9.44Zm5.04,0a.9.9,0,1,0,.9-.9A.907.907,0,0,0,8.52,9.44ZM6,11.96a.9.9,0,1,0,.9.9A.907.907,0,0,0,6,11.96ZM14.16,14h2.256c2.652,0,4.1-1.644,4.1-4.428s-1.452-4.38-4.152-4.38H14.16Zm1.116-.912V6.1h1c2.076,0,3.1,1.236,3.1,3.468s-1.02,3.516-3.1,3.516Zm7.44-2.028h3.072v-.84H22.716Zm9.1,3.1a3.4,3.4,0,0,0,2.7-1.26l-.612-.7a2.674,2.674,0,0,1-2.04.984c-1.68,0-2.736-1.392-2.736-3.612,0-2.2,1.1-3.564,2.772-3.564a2.4,2.4,0,0,1,1.8.84l.6-.72a3.252,3.252,0,0,0-2.412-1.092c-2.232,0-3.9,1.728-3.9,4.572S29.628,14.156,31.812,14.156Zm8.16,0c2.208,0,3.756-1.764,3.756-4.584S42.18,5.036,39.972,5.036s-3.756,1.716-3.756,4.536S37.764,14.156,39.972,14.156Zm0-.972c-1.584,0-2.616-1.416-2.616-3.612s1.032-3.564,2.616-3.564,2.616,1.356,2.616,3.564S41.544,13.184,39.972,13.184ZM46.584,14h1.008V9.128c0-.756-.084-1.824-.132-2.592h.048l.7,2,1.668,4.572h.744L52.284,8.54l.7-2h.048c-.06.768-.144,1.836-.144,2.592V14h1.044V5.192H52.584L50.9,9.908c-.2.612-.4,1.224-.6,1.836h-.06c-.216-.612-.42-1.224-.624-1.836L47.928,5.192H46.584Zm10.7,0H58.4V10.508h1.452c1.932,0,3.24-.864,3.24-2.724,0-1.92-1.32-2.592-3.288-2.592h-2.52ZM58.4,9.608V6.1h1.26c1.548,0,2.328.408,2.328,1.68s-.732,1.824-2.28,1.824Zm8.28-.528c.312-1,.6-1.944.876-2.976h.048c.288,1.02.564,1.98.888,2.976l.42,1.344H66.252ZM64,14h1.128l.852-2.688h3.216L70.032,14h1.176L68.22,5.192H66.984Zm11.856.156c1.836,0,2.988-1.1,2.988-2.5a2.45,2.45,0,0,0-1.812-2.352l-1.26-.54c-.684-.288-1.452-.612-1.452-1.464,0-.792.648-1.3,1.644-1.3a2.85,2.85,0,0,1,2,.828l.588-.708A3.607,3.607,0,0,0,75.96,5.036a2.5,2.5,0,0,0-2.772,2.34,2.485,2.485,0,0,0,1.788,2.256l1.272.552c.828.372,1.464.66,1.464,1.56,0,.864-.7,1.44-1.848,1.44a3.407,3.407,0,0,1-2.424-1.092l-.672.756A4.2,4.2,0,0,0,75.852,14.156Zm7.944,0c1.836,0,2.988-1.1,2.988-2.5a2.45,2.45,0,0,0-1.812-2.352l-1.26-.54C83.028,8.48,82.26,8.156,82.26,7.3c0-.792.648-1.3,1.644-1.3a2.85,2.85,0,0,1,2,.828l.588-.708A3.607,3.607,0,0,0,83.9,5.036a2.5,2.5,0,0,0-2.772,2.34A2.485,2.485,0,0,0,82.92,9.632l1.272.552c.828.372,1.464.66,1.464,1.56,0,.864-.7,1.44-1.848,1.44a3.407,3.407,0,0,1-2.424-1.092l-.672.756A4.2,4.2,0,0,0,83.8,14.156ZM89.94,9.32a.841.841,0,1,0-.792-.828A.8.8,0,0,0,89.94,9.32Zm0,4.836a.793.793,0,0,0,.792-.828.794.794,0,1,0-1.584,0A.793.793,0,0,0,89.94,14.156ZM98.028,3.944A14.313,14.313,0,0,1,93.06,8.516a3.658,3.658,0,0,1,.552.708,16.014,16.014,0,0,0,4.908-4.4,17.809,17.809,0,0,0,5.016,4.344,3.981,3.981,0,0,1,.588-.792,15.243,15.243,0,0,1-5.208-4.428Zm.96,7.872h3.636v-.792H98.988V9.152h3.18v-.8H95.04v.8h3.036v1.872H94.5v.792h3.576v1.956H93.528v.816h10.14v-.816h-4.68Zm9.492-7.848a9.593,9.593,0,0,1-2.52,2.5,5.214,5.214,0,0,1,.5.648A12.736,12.736,0,0,0,109.3,4.268Zm.288,2.424a11.39,11.39,0,0,1-2.94,3.324,5.71,5.71,0,0,1,.5.78,12.194,12.194,0,0,0,1.356-1.284v5.736h.828V8.24a13.717,13.717,0,0,0,1.044-1.572Zm5.04,4.344h2.676V9.908h-2.676V7.556h3V6.692h-1.824A25.309,25.309,0,0,0,116.2,4.268l-.852-.312a15.506,15.506,0,0,1-1.152,2.472l.672.264h-2.832l.6-.288a14.761,14.761,0,0,0-1.26-2.352l-.732.288a18.046,18.046,0,0,1,1.188,2.352h-1.86v.864h2.988v5.988a3.317,3.317,0,0,1-1.812-2.268,21.384,21.384,0,0,0,.264-2.124l-.888-.072c-.144,2.292-.54,4.128-1.716,5.268a4.858,4.858,0,0,1,.684.612,6.082,6.082,0,0,0,1.356-2.448c.828,1.74,2.136,2.184,3.948,2.184h2.016a2.33,2.33,0,0,1,.288-.84c-.372,0-1.98.012-2.244,0a7.134,7.134,0,0,1-1.044-.072Zm12.468-3.888a10.971,10.971,0,0,1-.612,1.248l.12.036h-2.82l.384-.084a5.084,5.084,0,0,0-.6-1.2Zm3.444,5.22v-.756h-4.812v-.888h3.756V9.74h-3.756V8.864h4.344V8.132h-2.724c.24-.36.5-.828.744-1.284h2.4V6.08h-1.86a16.78,16.78,0,0,0,1.056-1.728l-.912-.24a13.614,13.614,0,0,1-.912,1.824l.444.144h-1.452V3.956h-.84V6.08h-1.428V3.956h-.828V6.08h-1.476l.612-.228a8.271,8.271,0,0,0-1.02-1.764l-.756.252a9.354,9.354,0,0,1,.948,1.74H119.34v.768h2.928l-.42.084a5.039,5.039,0,0,1,.588,1.2H119.82v.732h4.212V9.74H120.42v.684h3.612v.888h-4.74v.756h3.924a11.565,11.565,0,0,1-4.236,1.9,3.822,3.822,0,0,1,.576.756,12.059,12.059,0,0,0,4.476-2.364v2.556h.876V12.3a11.328,11.328,0,0,0,4.512,2.46,3.208,3.208,0,0,1,.6-.792,10.979,10.979,0,0,1-4.284-1.9Zm10.6-5.676H134.64V5.144h5.676Zm.924-1.968h-7.488V7.112h7.488Zm-7.1,6.984h6.66v.864h-6.66Zm0-1.476h6.66v.84h-6.66Zm0-1.476h6.66V9.3h-6.66Zm7.572,4.476V7.8h-8.46v5.136h2.244a12.932,12.932,0,0,1-3.54,1.332,6.845,6.845,0,0,1,.66.66,15.232,15.232,0,0,0,3.732-1.476l-.8-.516Zm-3.288.6a31.5,31.5,0,0,1,3.768,1.4l.768-.648c-.936-.384-2.532-.972-3.768-1.332Zm11.508-9.024-.984-.084a6.147,6.147,0,0,1-.3,1.5c-.264.012-.54.012-.792.012a17.563,17.563,0,0,1-2.028-.132v.9c.66.048,1.452.072,1.968.072h.528a12.659,12.659,0,0,1-2.772,3.672l.816.6A15.852,15.852,0,0,1,147.456,9.8a3.159,3.159,0,0,1,2.064-.876,1,1,0,0,1,1.092.744c-1.4.732-2.832,1.62-2.832,3.036,0,1.464,1.38,1.836,3.1,1.836a28.19,28.19,0,0,0,3.288-.216l.024-.96a21.368,21.368,0,0,1-3.276.288c-1.236,0-2.172-.144-2.172-1.08,0-.792.78-1.428,1.9-2.016,0,.636-.012,1.416-.036,1.872h.924c-.012-.588-.024-1.608-.036-2.3.912-.432,1.764-.78,2.436-1.032a10.448,10.448,0,0,1,1.068-.384l-.4-.9c-.336.18-.624.312-.984.468-.624.288-1.356.576-2.172.972a1.549,1.549,0,0,0-1.608-1.08,3.436,3.436,0,0,0-1.668.444,9.527,9.527,0,0,0,1.08-1.86,34.71,34.71,0,0,0,3.984-.336l.012-.888a29.512,29.512,0,0,1-3.66.372A12.25,12.25,0,0,0,149.928,4.508ZM163.62,5.936h-2.412V3.98h-.852V5.936h-2.28v.828h5.544Zm-1.908,1.1a15.551,15.551,0,0,1-.756,3.072c-.6-.744-1.26-1.5-1.884-2.148l-.624.5a30.369,30.369,0,0,1,2.124,2.556,7.137,7.137,0,0,1-2.784,3.108,4.081,4.081,0,0,1,.624.684,8.194,8.194,0,0,0,2.712-3.012,14.172,14.172,0,0,1,1.044,1.752l.72-.612a14.538,14.538,0,0,0-1.332-2.052,17,17,0,0,0,1.02-3.732Zm7.116-.2H167.4V3.956h-.876v2.88h-3.276v.852h3.276V13.7c0,.216-.084.276-.288.288s-.864.012-1.62-.012a3.7,3.7,0,0,1,.288.924,6.3,6.3,0,0,0,1.992-.168c.36-.168.5-.432.5-1.032V7.688h1.428Zm-3.384,4.74a9.347,9.347,0,0,0-1.32-2.64l-.732.336a10.5,10.5,0,0,1,1.3,2.688Zm7.668-4.524h2.748V8.42h-2.748Zm3.768-1.6a5.631,5.631,0,0,1-.7.9H173.22a11.391,11.391,0,0,0,.948-.9Zm2.748,2.964h-2.9V7.052h2.9Zm1.068.828a19.142,19.142,0,0,1-2.52,1.68,8.172,8.172,0,0,1-.84-1.824H180.5V6.356h-3.276a8.6,8.6,0,0,0,.9-1.248l-.6-.384-.144.048h-2.628c.18-.216.348-.444.5-.66l-.924-.192a10.022,10.022,0,0,1-3.36,3.024,2.376,2.376,0,0,1,.6.6c.24-.144.48-.3.708-.456V9.1h2.964a18.373,18.373,0,0,1-4.08,1.26,5.722,5.722,0,0,1,.48.66,22.085,22.085,0,0,0,2.88-.912,7.582,7.582,0,0,1,.648.48,12.836,12.836,0,0,1-3.948,1.488,5,5,0,0,1,.492.636,13.9,13.9,0,0,0,3.924-1.68,3.9,3.9,0,0,1,.456.588A13.946,13.946,0,0,1,171.012,14a4.468,4.468,0,0,1,.528.672,15.444,15.444,0,0,0,4.9-2.424,1.446,1.446,0,0,1-.252,1.728,1.229,1.229,0,0,1-.768.192,9.183,9.183,0,0,1-1.08-.048,2.025,2.025,0,0,1,.252.8c.348.012.708.024.972.024a2.049,2.049,0,0,0,1.188-.336c1.152-.756,1-3.18-1.44-4.824a9.972,9.972,0,0,0,1.236-.66,7.857,7.857,0,0,0,4.68,5.424,2.835,2.835,0,0,1,.564-.744,6.482,6.482,0,0,1-3.228-2.316A23.036,23.036,0,0,0,181.4,9.764Zm6.288-4.584-.948.4a40.217,40.217,0,0,0,1.74,3.7c-1.284.9-2.076,1.872-2.076,3.108,0,1.8,1.632,2.472,3.888,2.472a23.623,23.623,0,0,0,3.792-.3V12.968a17.855,17.855,0,0,1-3.84.408c-1.9,0-2.844-.624-2.844-1.62,0-.912.672-1.7,1.788-2.424a39.865,39.865,0,0,1,3.648-1.992c.348-.18.648-.336.924-.5l-.528-.852a6.555,6.555,0,0,1-.852.564c-.66.36-1.956,1-3.084,1.68A25.841,25.841,0,0,1,186.984,4.664Zm13.344-.012-1.212-.012a6.333,6.333,0,0,1,.1,1.224c0,1.26-.12,4.3-.12,6.072,0,1.956,1.188,2.676,2.916,2.676a6.031,6.031,0,0,0,5.016-2.652l-.684-.816a5,5,0,0,1-4.3,2.484c-1.14,0-1.968-.468-1.968-1.788,0-1.788.084-4.62.144-5.976A10.331,10.331,0,0,1,200.328,4.652Zm19.764,1.32V5.156h-7.068c.2-.348.372-.7.528-1.032l-.96-.168a9.051,9.051,0,0,1-2.568,3.564,3.207,3.207,0,0,1,.732.54,10.659,10.659,0,0,0,1.776-2.088Zm-4.752,6.54c.1-.576.18-1.272.264-1.992h2.472c-.06.828-.132,1.476-.2,1.992Zm-.552-1.992c-.084.72-.18,1.416-.276,1.992h-2.376c.108-.624.216-1.3.324-1.992Zm.276-2.676c-.048.588-.12,1.224-.192,1.872H212.58c.108-.636.2-1.272.288-1.872Zm.636,1.872c.072-.636.144-1.284.2-1.872h2.34c-.036.7-.072,1.308-.108,1.872Zm4.98.8v-.8H219c.048-.648.1-1.392.132-2.22,0-.12.012-.432.012-.432h-7.056c-.1.8-.216,1.716-.36,2.652H209.76v.8H211.6c-.216,1.3-.444,2.556-.648,3.468l.9.06c.048-.228.1-.48.144-.744h5.736a1.727,1.727,0,0,1-.324.78.55.55,0,0,1-.48.18c-.264,0-.852-.012-1.536-.072a1.792,1.792,0,0,1,.216.7,13.916,13.916,0,0,0,1.668.036,1.16,1.16,0,0,0,.912-.444,2.782,2.782,0,0,0,.444-1.176h1.728v-.792h-1.608c.072-.528.144-1.188.2-1.992Zm4.956.792V8.936h2.688v2.376Zm7.932,0h-4.344V8.936h3.516V8.1h-3.516V6.272h3.792V5.408h-7.152c.192-.408.384-.84.552-1.26l-.9-.216a10.155,10.155,0,0,1-2.7,4.14,5.522,5.522,0,0,1,.768.564,11.088,11.088,0,0,0,1.824-2.364h2.916V8.1h-3.576v3.216H222.78v.864h5.544v2.748h.9V12.176h4.344Zm12.84.492v-.792H241.32a5.285,5.285,0,0,0,.192-1.128h3.564V9.14h-3.54V8.072h3.708V7.436h.9v-2.3H241.56V3.968h-.888V5.132H236.1v2.3h.864v-1.5h8.28v1.38h-3.708v-1h-.888v1h-3.54v.756h3.54V9.14H237.3v.744h3.324a3.775,3.775,0,0,1-.228,1.128H235.92V11.8h4.068c-.624.9-1.848,1.74-4.188,2.388a3.522,3.522,0,0,1,.54.72c2.736-.816,4.044-1.92,4.668-3.108h.108A6.323,6.323,0,0,0,246,14.936a3.413,3.413,0,0,1,.54-.768,6.125,6.125,0,0,1-4.476-2.364Zm4.356-3.42c.024-.54.036-1.092.048-1.644h2.88V5.912H251.6V3.98h-.84V5.912h-2.112V6.74h1.308c-.048,2.952-.192,5.928-1.44,7.584a2.471,2.471,0,0,1,.672.588c1.008-1.356,1.38-3.432,1.524-5.712h1.44c-.072,3.336-.144,4.5-.348,4.776a.366.366,0,0,1-.372.168c-.168,0-.612,0-1.1-.048a2.133,2.133,0,0,1,.228.792,8.871,8.871,0,0,0,1.272,0,.866.866,0,0,0,.7-.384c.3-.4.372-1.74.456-5.712.012-.12.012-.408.012-.408ZM259.5,6.452V5.636h-4.284a14.515,14.515,0,0,0,.444-1.5l-.864-.18a8.746,8.746,0,0,1-1.764,3.8,6.939,6.939,0,0,1,.684.624,8.337,8.337,0,0,0,1.164-1.932ZM255.852,14.1c-.66,0-.768-.1-.768-.552V10.208l1.128-.54V12.9h.768V9.308l1.284-.612c0,1.428-.024,2.484-.06,2.664-.036.2-.108.228-.252.228a5.9,5.9,0,0,1-.624-.012,2.306,2.306,0,0,1,.192.7,3.224,3.224,0,0,0,.9-.072.652.652,0,0,0,.54-.648c.048-.336.072-1.848.072-3.552l.036-.144-.564-.2-.144.108-.06.06-1.32.612V6.9h-.768v1.9l-1.128.528V7.832h-.8V9.7l-1.056.492.336.732.72-.336v2.94c0,1.056.324,1.32,1.512,1.32h2.436c1.008,0,1.272-.4,1.38-1.812a2.485,2.485,0,0,1-.756-.324c-.048,1.152-.144,1.38-.672,1.38Zm9.276-9.444-1.212-.012a6.334,6.334,0,0,1,.1,1.224c0,1.26-.12,4.3-.12,6.072,0,1.956,1.188,2.676,2.916,2.676a6.031,6.031,0,0,0,5.016-2.652l-.684-.816a5,5,0,0,1-4.3,2.484c-1.14,0-1.968-.468-1.968-1.788,0-1.788.084-4.62.144-5.976A10.331,10.331,0,0,1,265.128,4.652Zm9.54,1.38.108,1.044c1.3-.276,4.356-.564,5.64-.708a4.874,4.874,0,0,0-2.244,4.056c0,2.676,2.532,3.864,4.752,3.948l.348-1c-1.956-.072-4.14-.816-4.14-3.168a4.221,4.221,0,0,1,2.748-3.792,10.051,10.051,0,0,1,2.352-.192v-.96c-.8.036-1.932.1-3.24.216-2.208.18-4.476.408-5.256.492C275.508,6,275.124,6.02,274.668,6.032ZM2.676,25.624,1.512,25.6A5.413,5.413,0,0,1,1.6,26.668c0,.7.024,2.16.132,3.2.324,3.108,1.416,4.236,2.556,4.236.8,0,1.536-.7,2.256-2.736l-.756-.852c-.312,1.2-.876,2.448-1.488,2.448-.852,0-1.44-1.332-1.632-3.336-.084-1-.1-2.088-.084-2.844A9.137,9.137,0,0,1,2.676,25.624Zm6.252.336-.936.324A12.158,12.158,0,0,1,10.08,32.32l.96-.4A12.9,12.9,0,0,0,8.928,25.96Zm8.424,6.78a.877.877,0,0,1,.96-.768A1.636,1.636,0,0,1,19.92,33.6a6.161,6.161,0,0,1-.972.072C18.012,33.676,17.352,33.316,17.352,32.74Zm-1.536-7.584.036,1c.252-.036.528-.06.792-.072.636-.036,3.036-.144,3.672-.168-.612.54-2.112,1.8-2.784,2.352-.7.588-2.232,1.872-3.228,2.688l.684.708c1.524-1.548,2.592-2.4,4.6-2.4,1.56,0,2.688.888,2.688,2.064a2.108,2.108,0,0,1-1.5,2.052,2.323,2.323,0,0,0-2.448-2.124,1.685,1.685,0,0,0-1.848,1.56c0,1,1,1.7,2.628,1.7,2.544,0,4.128-1.248,4.128-3.18,0-1.62-1.428-2.82-3.42-2.82a5.078,5.078,0,0,0-1.668.252c.936-.78,2.568-2.172,3.168-2.628.216-.18.456-.336.672-.492l-.552-.7a2.83,2.83,0,0,1-.648.1c-.636.06-3.492.156-4.116.156A7.155,7.155,0,0,1,15.816,25.156Zm13.056-1.188a9.593,9.593,0,0,1-2.52,2.5,5.214,5.214,0,0,1,.5.648,12.736,12.736,0,0,0,2.832-2.844Zm.288,2.424a11.39,11.39,0,0,1-2.94,3.324,5.71,5.71,0,0,1,.5.78,12.194,12.194,0,0,0,1.356-1.284v5.736h.828V28.24a13.718,13.718,0,0,0,1.044-1.572Zm5.04,4.344h2.676v-.828H34.2V27.556h3v-.864H35.376a25.309,25.309,0,0,0,1.212-2.424l-.852-.312a15.506,15.506,0,0,1-1.152,2.472l.672.264H32.424l.6-.288a14.761,14.761,0,0,0-1.26-2.352l-.732.288a18.045,18.045,0,0,1,1.188,2.352H30.36v.864h2.988v5.988a3.317,3.317,0,0,1-1.812-2.268,21.385,21.385,0,0,0,.264-2.124l-.888-.072c-.144,2.292-.54,4.128-1.716,5.268a4.859,4.859,0,0,1,.684.612,6.082,6.082,0,0,0,1.356-2.448c.828,1.74,2.136,2.184,3.948,2.184H37.2a2.33,2.33,0,0,1,.288-.84c-.372,0-1.98.012-2.244,0a7.134,7.134,0,0,1-1.044-.072Zm12.468-3.888a10.97,10.97,0,0,1-.612,1.248l.12.036h-2.82l.384-.084a5.084,5.084,0,0,0-.6-1.2Zm3.444,5.22v-.756H45.3v-.888h3.756V29.74H45.3v-.876h4.344v-.732H46.92c.24-.36.5-.828.744-1.284h2.4V26.08H48.2a16.779,16.779,0,0,0,1.056-1.728l-.912-.24a13.614,13.614,0,0,1-.912,1.824l.444.144H46.428V23.956h-.84V26.08H44.16V23.956h-.828V26.08H41.856l.612-.228a8.271,8.271,0,0,0-1.02-1.764l-.756.252a9.354,9.354,0,0,1,.948,1.74H39.732v.768H42.66l-.42.084a5.039,5.039,0,0,1,.588,1.2H40.212v.732h4.212v.876H40.812v.684h3.612v.888h-4.74v.756h3.924a11.565,11.565,0,0,1-4.236,1.9,3.821,3.821,0,0,1,.576.756,12.059,12.059,0,0,0,4.476-2.364v2.556H45.3V32.3a11.328,11.328,0,0,0,4.512,2.46,3.208,3.208,0,0,1,.6-.792,10.979,10.979,0,0,1-4.284-1.9Zm10.6-5.676H55.032V25.144h5.676Zm.924-1.968H54.144v2.688h7.488Zm-7.1,6.984h6.66v.864h-6.66Zm0-1.476h6.66v.84h-6.66Zm0-1.476h6.66v.84h-6.66ZM62.1,32.932V27.8H53.64v5.136h2.244a12.932,12.932,0,0,1-3.54,1.332,6.845,6.845,0,0,1,.66.66,15.232,15.232,0,0,0,3.732-1.476l-.8-.516Zm-3.288.6a31.5,31.5,0,0,1,3.768,1.4l.768-.648c-.936-.384-2.532-.972-3.768-1.332Zm9.648-8.16a8.18,8.18,0,0,0-2.076-1.284l-.516.636a8.111,8.111,0,0,1,2.04,1.332Zm-.492,3.072a9.608,9.608,0,0,0-2.2-1.092l-.492.684a8.825,8.825,0,0,1,2.184,1.176Zm-1.584,6.312C67,33.64,67.7,32.164,68.232,30.9l-.672-.528A33.962,33.962,0,0,1,65.6,34.2Zm4.764-8.772h2.124v1.344H71.148Zm5.076,2.148v-.8h-2.1V25.984H75.9V25.2H74.124V23.968h-.852V25.2H71.148V23.968H70.32V25.2H68.6v.78H70.32v1.344H68.2v.8h3.576V29.14H68.7V34.9h.8V29.932h2.352v2.436H70.9V30.58h-.6v3.192h.6v-.72H73.56V33.6h.588V30.58H73.56v1.788H72.552V29.932h2.46v4.02c0,.144-.048.192-.216.2s-.732,0-1.344-.024a3.235,3.235,0,0,1,.24.756,6.255,6.255,0,0,0,1.74-.12c.324-.132.408-.372.408-.816V29.14h-3.2V28.132Zm4.464-2.724h6.36V27.76h-6.36Zm3.588,5.88H88.3V30.46h-4.02V28.612h3.7V24.544h-8.16v4.068h3.564v4.86a3.777,3.777,0,0,1-2.232-2.364,13.819,13.819,0,0,0,.3-1.5L80.5,29.5c-.168,1.716-.744,3.732-2.16,4.824a3.674,3.674,0,0,1,.624.6,5.971,5.971,0,0,0,1.836-2.7c1.14,2.076,2.976,2.532,5.52,2.532h2.64a3.126,3.126,0,0,1,.324-.864c-.5.012-2.544.012-2.916.012a10.335,10.335,0,0,1-2.088-.18ZM102,25.96v-.816H97.524V23.968h-.912v1.176h-4.4v3.432c0,1.728-.084,4.152-1.068,5.856a3.449,3.449,0,0,1,.732.5c1.032-1.812,1.176-4.512,1.176-6.36V25.96Zm-2.88,2.076V29.3h-2.9v-1.26Zm.864,1.98v-1.98h1.932V27.3H99.984V26.26H99.12V27.3h-2.9V26.26h-.852V27.3H93.456v.732h1.908v1.98ZM99.792,31.5a5.515,5.515,0,0,1-2.028,1.524A5.375,5.375,0,0,1,95.82,31.5Zm.744-.768-.156.036H93.6V31.5h1.848l-.48.18A6.038,6.038,0,0,0,96.852,33.4a16.278,16.278,0,0,1-3.7.768,3.083,3.083,0,0,1,.372.744,16.253,16.253,0,0,0,4.224-1.032,13.688,13.688,0,0,0,3.948,1.056,2.645,2.645,0,0,1,.516-.756,15.259,15.259,0,0,1-3.528-.756,5.927,5.927,0,0,0,2.412-2.388Zm7.164-6.36h-2.952v.72H107.7Zm.336,1.572h-3.852v.732h3.852Zm-.312,1.62h-3.048v.708h3.048Zm-3.048,2.3h3.048v-.72h-3.048Zm2.3,1.62v2h-1.6v-2Zm.744,2.724V30.76h-3.06v4.02h.72v-.564Zm2.244-5.88v.684h3.516v-.684h-1.452V27.184H113.3V26.5h-1.272V25.468H111.3V26.5h-1.236v.684H111.3v1.152Zm2.58,2.292v1.716H110.82V30.628Zm.684,2.4V29.944h-3.1V33.5h.684v-.468Zm1.56-8.568h-6.156v4.272c0,1.764-.072,4.1-1.008,5.76a3.011,3.011,0,0,1,.7.492c1-1.752,1.128-4.392,1.128-6.252V25.24h4.524v8.544c0,.2-.06.252-.24.252-.2.012-.828.024-1.464-.012a4.271,4.271,0,0,1,.264.876,5.492,5.492,0,0,0,1.812-.156c.336-.144.444-.432.444-.96Zm5.412,8.52h4.86v.876H120.2Zm4.86-3.048v.852H120.2v-.852Zm0,2.388H120.2v-.876h4.86Zm.9-3.144H119.34v4.68h-2.016v.8h10.644v-.8h-2Zm1.968-2.916v-.792h-4.9V23.956h-.864v1.512h-4.8v.792h3.84a10.439,10.439,0,0,1-4.1,2.664,3.417,3.417,0,0,1,.564.7,11.209,11.209,0,0,0,4.5-3.336V28.8h.864V26.3a10.979,10.979,0,0,0,4.548,3.24,2.762,2.762,0,0,1,.588-.708,10.684,10.684,0,0,1-4.2-2.568Zm4,4.812a1.83,1.83,0,1,0,1.836,1.824A1.831,1.831,0,0,0,131.928,31.072Zm0,3.048a1.218,1.218,0,1,1,1.224-1.224A1.219,1.219,0,0,1,131.928,34.12Zm11.16-.12h5.532v-.948h-2.436c-.444,0-.984.048-1.44.084,2.064-1.956,3.444-3.744,3.444-5.5a2.413,2.413,0,0,0-2.556-2.6,3.364,3.364,0,0,0-2.592,1.3l.636.624a2.463,2.463,0,0,1,1.824-1.02,1.546,1.546,0,0,1,1.62,1.74c0,1.512-1.272,3.264-4.032,5.676Zm10.428.156c1.668,0,2.736-1.524,2.736-4.584s-1.068-4.536-2.736-4.536-2.748,1.476-2.748,4.536S151.836,34.156,153.516,34.156Zm0-.876c-1.008,0-1.68-1.116-1.68-3.708,0-2.568.672-3.66,1.68-3.66s1.668,1.092,1.668,3.66C155.184,32.164,154.512,33.28,153.516,33.28Zm5.34.72h4.824v-.912h-1.764v-7.9h-.84a5.3,5.3,0,0,1-1.824.636v.7h1.56v6.564h-1.956Zm8.124-6.108c0-1.2.648-1.992,1.488-1.992,1.128,0,1.8.96,1.92,2.772a2.305,2.305,0,0,1-1.836,1.176C167.508,29.848,166.98,29.08,166.98,27.892Zm1.248,6.264c1.656,0,3.192-1.368,3.192-4.932,0-2.8-1.26-4.188-2.952-4.188a2.641,2.641,0,0,0-2.52,2.856c0,1.824.96,2.772,2.424,2.772a2.737,2.737,0,0,0,2.028-1.08c-.084,2.724-1.068,3.66-2.208,3.66a1.94,1.94,0,0,1-1.464-.672l-.612.684A2.8,2.8,0,0,0,168.228,34.156Zm8.28-2.844V28.936H179.2v2.376Zm7.932,0H180.1V28.936h3.516V28.1H180.1V26.272h3.792v-.864h-7.152c.192-.408.384-.84.552-1.26l-.9-.216a10.155,10.155,0,0,1-2.7,4.14,5.522,5.522,0,0,1,.768.564,11.088,11.088,0,0,0,1.824-2.364H179.2V28.1H175.62v3.216h-1.968v.864H179.2v2.748h.9V32.176h4.344Zm8.976-.564h-2.9V28.012h2.9Zm-3.756-3.54V31.54h4.632V27.208Zm-1.728,6.216V25.348h8.1v8.076Zm-.9-8.964V34.912h.9v-.648h8.1v.648h.948V24.46Zm14.7,1.3a9.884,9.884,0,0,1,.72,1.608l.8-.264a7.8,7.8,0,0,0-.636-1.344H204.7v-.768h-3.012c.144-.324.288-.648.408-.984l-.852-.228a8.235,8.235,0,0,1-1.872,3.132,5.56,5.56,0,0,1,.732.492,9.482,9.482,0,0,0,1.176-1.644Zm5.844,6.168v1.824h-5.2V31.924Zm-6.048,2.988h.852v-.384h5.2v.348h.876v-3.72h-6.924Zm1.344-5.556a11,11,0,0,0,2.064-1.86,11.3,11.3,0,0,0,2.22,1.86Zm2.2-2.64a7.692,7.692,0,0,0,.768-.96h.912a7.131,7.131,0,0,1,.936,1.584l.828-.288a8.249,8.249,0,0,0-.768-1.3h2.544v-.768H206.3a8.057,8.057,0,0,0,.432-1l-.864-.216a6.316,6.316,0,0,1-1.824,2.7c.108.06.264.156.408.252a12.512,12.512,0,0,1-5.076,3.6,3.481,3.481,0,0,1,.5.708,16.183,16.183,0,0,0,2.652-1.452v.528h4.932V29.56a16.4,16.4,0,0,0,2.58,1.32,3.978,3.978,0,0,1,.54-.756,12.868,12.868,0,0,1-5.268-3.408Zm18.192,3.816a17.91,17.91,0,0,0-2.736-1.644l-.624.5a15.96,15.96,0,0,1,2.7,1.7Zm-1.284-4.08a13.662,13.662,0,0,1-1.848,1.512l.636.384a15.322,15.322,0,0,0,1.992-1.488Zm-6.048.708-.444.528a16.752,16.752,0,0,1,1.74,1.284c-.336.36-.672.7-.984,1-.324.012-.636.024-.9.036l.12.756c1.152-.084,2.676-.18,4.2-.288a6.094,6.094,0,0,1,.348.672l.684-.36a9.745,9.745,0,0,0-1.512-2.16l-.648.288a11.423,11.423,0,0,1,.708.912l-2.064.108a29.779,29.779,0,0,0,2.508-2.76l-.708-.336a20.074,20.074,0,0,1-1.26,1.584c-.252-.216-.576-.456-.912-.7a17.5,17.5,0,0,0,1.2-1.488l-.312-.12h5.22v-.8h-4.584V23.968h-.888v1.344h-4.476v.8h4.164a12.45,12.45,0,0,1-.864,1.26Zm-.444.744a10.33,10.33,0,0,0-1.908-1.284l-.6.492a11.108,11.108,0,0,1,1.884,1.332Zm.084,1.116c-1.116.468-2.244.948-3.012,1.224l.444.72c.8-.348,1.788-.828,2.736-1.272Zm2.76,1.74h-.888v.924H212.6v.828h4.836v2.436h.888V32.512h4.92v-.828h-4.92Zm11.9,1.8c0-.588.636-.972,1.536-.972a4.084,4.084,0,0,1,1.224.192c.012.156.012.3.012.42,0,.792-.3,1.308-1.308,1.308C230.832,33.508,230.232,33.172,230.232,32.56Zm3.636-7.8h-1.08c.024.2.048.528.048.732V26.98c-.372.012-.756.024-1.128.024-.72,0-1.356-.036-2.04-.1v.9c.708.048,1.332.084,2.016.084.384,0,.768-.012,1.152-.024.012.984.084,2.16.12,3.084a5.5,5.5,0,0,0-1.116-.108c-1.572,0-2.472.8-2.472,1.812,0,1.08.888,1.716,2.5,1.716s2.076-.948,2.076-1.932v-.252a9.762,9.762,0,0,1,1.812,1.392l.528-.8a7.909,7.909,0,0,0-2.376-1.548c-.048-1.008-.132-2.208-.144-3.42.72-.048,1.416-.12,2.076-.228v-.924a20.262,20.262,0,0,1-2.076.276c.012-.564.024-1.128.036-1.452Q233.814,25.12,233.868,24.76Zm-5.928.072-1.056-.084a7.2,7.2,0,0,1-.072.852,35.7,35.7,0,0,0-.552,5.052,14.494,14.494,0,0,0,.456,3.792l.84-.06c-.012-.132-.024-.3-.024-.42a2.15,2.15,0,0,1,.048-.54c.12-.588.564-1.812.852-2.652l-.492-.384c-.2.492-.492,1.224-.684,1.764a11.257,11.257,0,0,1-.12-1.668,29.753,29.753,0,0,1,.6-4.836A6.241,6.241,0,0,1,227.94,24.832Zm11.46,3.06c0-1.2.648-1.992,1.488-1.992,1.128,0,1.8.96,1.92,2.772a2.305,2.305,0,0,1-1.836,1.176C239.928,29.848,239.4,29.08,239.4,27.892Zm1.248,6.264c1.656,0,3.192-1.368,3.192-4.932,0-2.8-1.26-4.188-2.952-4.188a2.641,2.641,0,0,0-2.52,2.856c0,1.824.96,2.772,2.424,2.772a2.737,2.737,0,0,0,2.028-1.08c-.084,2.724-1.068,3.66-2.208,3.66a1.94,1.94,0,0,1-1.464-.672l-.612.684A2.8,2.8,0,0,0,240.648,34.156Zm8.328-4.8c1.068,0,1.6.756,1.6,1.944s-.66,2-1.5,2c-1.1,0-1.764-1-1.9-2.82A2.274,2.274,0,0,1,248.976,29.356Zm.1,4.8a2.641,2.641,0,0,0,2.52-2.856c0-1.836-.948-2.76-2.436-2.76a2.736,2.736,0,0,0-2,1.068c.048-2.736,1.068-3.66,2.268-3.66a1.86,1.86,0,0,1,1.416.672l.6-.684a2.7,2.7,0,0,0-2.052-.9c-1.7,0-3.252,1.32-3.252,4.764C246.132,32.7,247.38,34.156,249.072,34.156Zm5.676,0a.793.793,0,0,0,.792-.828.794.794,0,1,0-1.584,0A.793.793,0,0,0,254.748,34.156Zm4.008-3.456,2-3c.252-.432.492-.864.708-1.3h.048c-.024.456-.06,1.164-.06,1.6v2.7Zm2.7,3.3h1.032V31.576h1.164V30.7h-1.164V25.192h-1.212l-3.66,5.664v.72h3.84Zm6-3.408c1.212,0,2-1.02,2-2.8s-.792-2.76-2-2.76-1.992,1-1.992,2.76S266.256,30.592,267.456,30.592Zm0-.684c-.684,0-1.164-.708-1.164-2.112s.48-2.088,1.164-2.088,1.176.684,1.176,2.088S268.152,29.908,267.456,29.908Zm.264,4.248h.732l4.86-9.12h-.744Zm5.868,0c1.2,0,1.992-1.008,1.992-2.784s-.792-2.76-1.992-2.76-2,1-2,2.76S272.388,34.156,273.588,34.156Zm0-.672c-.7,0-1.164-.708-1.164-2.112s.468-2.088,1.164-2.088,1.164.684,1.164,2.088S274.272,33.484,273.588,33.484Z" transform="translate(858 7431)"/>
  </g>
</svg>
