<svg xmlns="http://www.w3.org/2000/svg" width="500" height="278" viewBox="0 0 500 278">
  <g id="グループ_958" data-name="グループ 958" transform="translate(-120 -6893)">
    <g id="グループ_696" data-name="グループ 696">
      <rect id="長方形_67" data-name="長方形 67" width="500" height="278" transform="translate(120 6893)" fill="#fff"/>
      <path id="パス_12493" data-name="パス 12493" d="M6.9-7.98a.907.907,0,0,0-.9-.9.907.907,0,0,0-.9.9.907.907,0,0,0,.9.9A.907.907,0,0,0,6.9-7.98ZM2.04-8.868l-.348.348,3.96,3.96L1.68-.588l.348.348L6-4.212,9.96-.252,10.308-.6,6.348-4.56l3.96-3.96L9.96-8.868,6-4.908ZM2.58-5.46a.907.907,0,0,0-.9.9.907.907,0,0,0,.9.9.907.907,0,0,0,.9-.9A.907.907,0,0,0,2.58-5.46Zm6.84,1.8a.907.907,0,0,0,.9-.9.907.907,0,0,0-.9-.9.907.907,0,0,0-.9.9A.907.907,0,0,0,9.42-3.66ZM5.1-1.14a.907.907,0,0,0,.9.9.907.907,0,0,0,.9-.9.907.907,0,0,0-.9-.9A.907.907,0,0,0,5.1-1.14ZM13.488,0H19.02V-.948H16.584c-.444,0-.984.048-1.44.084,2.064-1.956,3.444-3.744,3.444-5.5a2.413,2.413,0,0,0-2.556-2.6,3.364,3.364,0,0,0-2.592,1.3l.636.624A2.463,2.463,0,0,1,15.9-8.064a1.546,1.546,0,0,1,1.62,1.74c0,1.512-1.272,3.264-4.032,5.676ZM23.916.156c1.668,0,2.736-1.524,2.736-4.584s-1.068-4.536-2.736-4.536-2.748,1.476-2.748,4.536S22.236.156,23.916.156Zm0-.876c-1.008,0-1.68-1.116-1.68-3.708,0-2.568.672-3.648,1.68-3.648S25.584-7,25.584-4.428C25.584-1.836,24.912-.72,23.916-.72Zm5.34.72H34.08V-.912H32.316V-8.8h-.84a5.573,5.573,0,0,1-1.824.624v.7h1.56V-.912H29.256Zm9.912.156c1.656,0,2.76-1,2.76-2.28a2.567,2.567,0,0,0-1.488-2.3v-.06a2.884,2.884,0,0,0,1.176-2.124A2.225,2.225,0,0,0,39.2-8.928,2.231,2.231,0,0,0,36.792-6.7,2.445,2.445,0,0,0,37.98-4.668v.06a2.817,2.817,0,0,0-1.62,2.424A2.523,2.523,0,0,0,39.168.156Zm.6-4.932c-1.032-.408-1.98-.864-1.98-1.92A1.352,1.352,0,0,1,39.18-8.124a1.468,1.468,0,0,1,1.5,1.572A2.36,2.36,0,0,1,39.768-4.776ZM39.192-.66a1.687,1.687,0,0,1-1.836-1.62,2.391,2.391,0,0,1,1.2-1.992c1.248.5,2.328.948,2.328,2.124A1.524,1.524,0,0,1,39.192-.66Zm7.716-2.028V-5.064H49.6v2.376Zm7.932,0H50.5V-5.064h3.516V-5.9H50.5V-7.728h3.792v-.864H47.136c.192-.408.384-.84.552-1.26l-.9-.216a10.155,10.155,0,0,1-2.7,4.14,5.523,5.523,0,0,1,.768.564A11.087,11.087,0,0,0,46.68-7.728H49.6V-5.9H46.02v3.216H44.052v.864H49.6V.924h.9V-1.824H54.84ZM57.456,0H62.28V-.912H60.516V-8.8h-.84a5.573,5.573,0,0,1-1.824.624v.7h1.56V-.912H57.456Zm9.9.156c1.668,0,2.736-1.524,2.736-4.584s-1.068-4.536-2.736-4.536-2.748,1.476-2.748,4.536S65.676.156,67.356.156Zm0-.876c-1.008,0-1.68-1.116-1.68-3.708,0-2.568.672-3.648,1.68-3.648S69.024-7,69.024-4.428C69.024-1.836,68.352-.72,67.356-.72Zm7.56-2.952a15.066,15.066,0,0,0,.132-2.016h5.484v2.016Zm5.616-4.86V-6.54H75.048V-8.532Zm.924-.876H74.148v3.672c0,1.908-.192,4.344-2.1,6.024a3.377,3.377,0,0,1,.66.648A6.769,6.769,0,0,0,74.772-2.8h5.76V-.4c0,.264-.1.348-.372.36s-1.236.012-2.244-.024A3.779,3.779,0,0,1,78.3.864,9.649,9.649,0,0,0,80.832.7c.444-.144.624-.456.624-1.08ZM90.2-1.632c0,.816-.42,1.224-1.3,1.224-1.14,0-1.8-.36-1.8-1.02S87.8-2.5,89.028-2.5a5.4,5.4,0,0,1,1.164.12C90.192-2.076,90.2-1.824,90.2-1.632Zm.8-4.488c.972-.024,2.5-.1,3.552-.192l-.036-.912c-1.068.144-2.568.2-3.516.228,0-.468-.012-.888,0-1.212a10.353,10.353,0,0,1,.1-1.176H89.952a8.709,8.709,0,0,1,.1,1.176c.012.5.012,1.488.012,2.172,0,.708.048,1.8.1,2.76a7.119,7.119,0,0,0-1.008-.072c-2.052,0-2.988.888-2.988,1.956C86.16-.036,87.372.492,89,.492c1.584,0,2.184-.84,2.184-1.812,0-.216-.012-.48-.024-.792A8.3,8.3,0,0,1,94.248-.156l.576-.888a9.429,9.429,0,0,0-3.7-2.028c-.06-1.032-.12-2.184-.12-2.964Zm9.348-3.348c-.012.288-.048.648-.1,1.02a31.176,31.176,0,0,0-.36,3.84,14.54,14.54,0,0,0,.12,1.884l.936-.072a4.961,4.961,0,0,1-.024-1.452c.144-1.56,1.512-3.708,2.988-3.708,1.26,0,1.884,1.344,1.884,3.216,0,2.988-2.016,4.02-4.6,4.416l.564.864C104.724,0,106.8-1.452,106.8-4.752c0-2.5-1.14-4.08-2.724-4.08-1.5,0-2.748,1.476-3.216,2.7a22.025,22.025,0,0,1,.552-3.3Zm12.672,2.82H115.8v1.284h-2.772Zm0-1.992H115.8v1.272h-2.772Zm6.48,1.272h-2.832V-8.64h2.832Zm0,2h-2.832V-6.648h2.832Zm-3.192,1.932a9.061,9.061,0,0,0,.2-1.164h3.9V-9.408h-8.28V-4.6H115.6a8.356,8.356,0,0,1-.216,1.164h-4.2v.816H115.1c-.564,1.284-1.7,2.244-4.26,2.772a2.4,2.4,0,0,1,.468.768c2.928-.66,4.164-1.9,4.764-3.54h3.768c-.168,1.644-.36,2.376-.636,2.592a.7.7,0,0,1-.516.12c-.288,0-1.068-.012-1.848-.072a1.908,1.908,0,0,1,.288.816c.756.036,1.5.048,1.872.036a1.317,1.317,0,0,0,.948-.348c.384-.36.612-1.3.828-3.564a3.832,3.832,0,0,0,.036-.4Zm7.992-1.032a13.383,13.383,0,0,0,.6-3.216l-.672-.1a12.125,12.125,0,0,1-.624,3.072ZM125.34.912h.888V-10.044h-.888Zm.972-8.748a11.945,11.945,0,0,1,.828,2.04l.672-.324a11.332,11.332,0,0,0-.876-2ZM131.58-.348v-3h2.448v-.828H131.58V-6.66h2.712v-.852H131.58V-10h-.888v2.484h-1.5c.168-.588.312-1.212.432-1.836l-.864-.144a11.683,11.683,0,0,1-1.452,4.284,7,7,0,0,1,.792.408,8.653,8.653,0,0,0,.84-1.86h1.752v2.484h-2.544v.828h2.544v3H127.26V.5h7.32V-.348Zm7.572-9.684a9.593,9.593,0,0,1-2.52,2.5,5.216,5.216,0,0,1,.5.648,12.736,12.736,0,0,0,2.832-2.844Zm.288,2.424A11.191,11.191,0,0,1,136.5-4.3a6.651,6.651,0,0,1,.5.792,12.2,12.2,0,0,0,1.356-1.284V.948h.828V-5.76a13.719,13.719,0,0,0,1.044-1.572Zm5.04,4.344h2.676v-.828H144.48V-6.444h3v-.864h-1.824a25.307,25.307,0,0,0,1.212-2.424l-.852-.312a15.505,15.505,0,0,1-1.152,2.472l.672.264H142.7l.6-.288a14.76,14.76,0,0,0-1.26-2.352l-.732.288A18.045,18.045,0,0,1,142.5-7.308h-1.86v.864h2.988V-.456a3.317,3.317,0,0,1-1.812-2.268,21.381,21.381,0,0,0,.264-2.124l-.888-.072c-.144,2.292-.54,4.128-1.716,5.268a4.859,4.859,0,0,1,.684.612,6.082,6.082,0,0,0,1.356-2.448C142.344.252,143.652.7,145.464.7h2.016a2.331,2.331,0,0,1,.288-.84c-.372,0-1.98.012-2.244,0a7.134,7.134,0,0,1-1.044-.072Zm12.468-3.888a10.968,10.968,0,0,1-.612,1.248l.12.036h-2.82l.384-.084a4.662,4.662,0,0,0-.6-1.2Zm3.444,5.22v-.756H155.58v-.888h3.756V-4.26H155.58v-.876h4.344v-.732H157.2c.24-.36.5-.828.744-1.284h2.4V-7.92h-1.86a16.78,16.78,0,0,0,1.056-1.728l-.912-.24a13.615,13.615,0,0,1-.912,1.824l.444.144h-1.452v-2.124h-.84V-7.92H154.44v-2.124h-.828V-7.92h-1.476l.612-.228a8.271,8.271,0,0,0-1.02-1.764l-.756.252a9.354,9.354,0,0,1,.948,1.74h-1.908v.768h2.928l-.42.084a5.038,5.038,0,0,1,.588,1.2h-2.616v.732H154.7v.876h-3.612v.684H154.7v.888h-4.74v.756h3.924a11.565,11.565,0,0,1-4.236,1.9,3.821,3.821,0,0,1,.576.756A12.059,12.059,0,0,0,154.7-1.644V.912h.876V-1.7a11.329,11.329,0,0,0,4.512,2.46,3.209,3.209,0,0,1,.6-.792,10.979,10.979,0,0,1-4.284-1.9Zm10.6-5.676h-5.676V-8.856h5.676Zm.924-1.968h-7.488v2.688h7.488Zm-7.1,6.984h6.66v.864h-6.66Zm0-1.476h6.66v.84h-6.66Zm0-1.476h6.66v.84h-6.66Zm7.572,4.476V-6.2h-8.46v5.136h2.232A13.147,13.147,0,0,1,162.624.264a6.845,6.845,0,0,1,.66.66,15.232,15.232,0,0,0,3.732-1.476l-.792-.516Zm-3.288.6a31.5,31.5,0,0,1,3.768,1.4l.768-.648c-.936-.384-2.532-.972-3.768-1.332Zm9.24-1.212c-.516,0-1.212-.66-1.212-2.16a4.143,4.143,0,0,1,3.672-3.84,19.173,19.173,0,0,1-.66,3.2C179.52-2.472,178.86-1.68,178.332-1.68ZM181.464.312c2.832-.372,4.476-2.04,4.476-4.536a4.314,4.314,0,0,0-4.56-4.368,5.075,5.075,0,0,0-5.208,4.836c0,1.956,1.068,3.18,2.124,3.18,1.1,0,2.052-1.26,2.784-3.7a25.112,25.112,0,0,0,.708-3.42,3.294,3.294,0,0,1,3.156,3.444,3.562,3.562,0,0,1-3.012,3.516,7.449,7.449,0,0,1-1.02.144ZM191.4-1.74v-.924h5.34v.924Zm5.34-2.508v.924H191.4v-.924Zm.9-.744h-7.128v5.9h.888v-1.98h5.34V-.036c0,.168-.06.216-.24.228-.2,0-.9,0-1.6-.012a3.435,3.435,0,0,1,.288.732A7.735,7.735,0,0,0,197.148.78c.372-.108.492-.336.492-.816Zm-1.524-3.084-.672.444c.42.276.876.612,1.308.948-1.68.036-3.372.072-4.848.1.4-.468.816-1,1.176-1.488Zm3.168-.792h-4.812v-1.176h-.9v1.176h-4.764v.792h3.132a14.9,14.9,0,0,1-1.008,1.5l-1.656.024.036.828c2.1-.036,5.292-.12,8.3-.24a8.7,8.7,0,0,1,.816.8l.744-.528a17.6,17.6,0,0,0-3.024-2.388h3.132Zm5.556,5.76c-.216,1.692-.792,2.748-3.372,3.3a2.8,2.8,0,0,1,.528.78c2.82-.684,3.528-1.992,3.792-4.08Zm3.144,0V-.372c0,.96.288,1.236,1.38,1.236h1.788c.96,0,1.224-.432,1.332-2.208a2.709,2.709,0,0,1-.828-.36c-.048,1.5-.132,1.728-.588,1.728H209.46c-.48,0-.564-.06-.564-.4V-3.108Zm-5.232-6.6v6.432h.864V-9.708Zm2.7.2v6.06h5.916V-9.5Zm.852.792h4.164v1.86H206.3Zm0,2.592h4.164v1.884H206.3Zm11.2-3.84a12.331,12.331,0,0,1-3.252,4.812,5.107,5.107,0,0,1,.54.9A12.175,12.175,0,0,0,216.2-5.832V.9h.876V-7.116a17.828,17.828,0,0,0,1.308-2.568Zm7.86,3.828V-7h-3.468v-2.88h-.876V-7h-3.372v.864h2.9a12.191,12.191,0,0,1-3.324,4.908,5.178,5.178,0,0,1,.672.684,13.4,13.4,0,0,0,3.12-4.62V.924h.876V-5.412A14.568,14.568,0,0,0,225-.588a3.2,3.2,0,0,1,.672-.72,12.661,12.661,0,0,1-3.264-4.824Zm9.348-1.02A10.968,10.968,0,0,1,234.1-5.9l.12.036H231.4l.384-.084a4.663,4.663,0,0,0-.6-1.2Zm3.444,5.22v-.756H233.34v-.888H237.1V-4.26H233.34v-.876h4.344v-.732H234.96c.24-.36.5-.828.744-1.284h2.4V-7.92h-1.86A16.78,16.78,0,0,0,237.3-9.648l-.912-.24a13.615,13.615,0,0,1-.912,1.824l.444.144h-1.452v-2.124h-.84V-7.92H232.2v-2.124h-.828V-7.92H229.9l.612-.228a8.271,8.271,0,0,0-1.02-1.764l-.756.252a9.354,9.354,0,0,1,.948,1.74h-1.908v.768H230.7l-.42.084a5.038,5.038,0,0,1,.588,1.2h-2.616v.732h4.212v.876h-3.612v.684h3.612v.888h-4.74v.756h3.924a11.565,11.565,0,0,1-4.236,1.9,3.821,3.821,0,0,1,.576.756,12.059,12.059,0,0,0,4.476-2.364V.912h.876V-1.7a11.329,11.329,0,0,0,4.512,2.46,3.209,3.209,0,0,1,.6-.792,10.979,10.979,0,0,1-4.284-1.9Zm6.456-4.932h-2.34v-1.6h2.34Zm-2.34,3.276h2.34v1.476c-.8.12-1.608.24-2.34.336Zm2.34-.816h-2.34V-6.072h2.34Zm1.7-4.056v-.828h-5.82v.828h.936v6.8c-.432.06-.828.108-1.164.144l.156.9c1.14-.192,2.676-.42,4.188-.672V.888h.864V-8.46Zm4.152.024L250.3-8.4h-4.284v.876h4.044a13.166,13.166,0,0,1-1.488,4.488,15.456,15.456,0,0,1-1.476-4.44l-.852.156A16.713,16.713,0,0,0,248.028-2.2a7.321,7.321,0,0,1-2.52,2.22,3.428,3.428,0,0,1,.588.72,8.564,8.564,0,0,0,2.448-2.136A7.507,7.507,0,0,0,250.932.78a3.718,3.718,0,0,1,.636-.732A6.665,6.665,0,0,1,249.1-2.184a14.594,14.594,0,0,0,1.944-6.084Zm12.108.408h-3.948v-.96h3.948Zm0,1.62h-3.948V-7.38h3.948Zm.888-3.252h-5.7v3.936h5.7ZM255.876-10a9.2,9.2,0,0,1-2.544,2.448,3.89,3.89,0,0,1,.468.72,12,12,0,0,0,2.928-2.844Zm.216,2.616a11.262,11.262,0,0,1-2.952,3.24,5.59,5.59,0,0,1,.468.852,11.584,11.584,0,0,0,1.4-1.3v5.5h.876v-6.5a13.716,13.716,0,0,0,.984-1.476Zm1.692,5.628a10.756,10.756,0,0,1,1.476,1.74l.684-.48A10.563,10.563,0,0,0,258.42-2.16Zm6.456-1.38h-1.788v-1.02h1.572V-4.92h-7v.768h4.536v1.02h-4.812v.768h4.812v2.28c0,.156-.048.2-.24.216-.168.012-.768.012-1.44-.012a3.015,3.015,0,0,1,.288.816A6.146,6.146,0,0,0,262,.792c.348-.144.456-.372.456-.852v-2.3h1.788ZM272.9-1.62c-.012-.576-.024-1.584-.036-2.268.9-.42,1.752-.768,2.424-1.032.312-.12.744-.288,1.044-.372l-.384-.9c-.336.168-.624.312-.984.468-.624.288-1.344.576-2.16.96a1.494,1.494,0,0,0-1.572-1.08,3.371,3.371,0,0,0-1.644.444,8.526,8.526,0,0,0,1.068-1.824A36.712,36.712,0,0,0,274.6-7.56l.012-.888a31.89,31.89,0,0,1-3.636.36c.168-.54.276-1.032.36-1.368l-.984-.084a6.441,6.441,0,0,1-.3,1.476c-.276.012-.528.012-.78.012-.54,0-1.368-.048-2-.12v.9c.648.048,1.452.072,1.956.072h.492a12.574,12.574,0,0,1-2.736,3.624l.816.612c.408-.48.744-.924,1.08-1.248a3.163,3.163,0,0,1,2.052-.876,1,1,0,0,1,1.068.732c-1.38.72-2.8,1.608-2.8,3.012,0,1.452,1.368,1.812,3.072,1.812A30.6,30.6,0,0,0,275.52.276l.024-.972a20.921,20.921,0,0,1-3.24.288c-1.224,0-2.148-.132-2.148-1.068,0-.78.768-1.392,1.872-1.992,0,.624-.012,1.392-.048,1.848ZM290.064-5.9h-4.872v-.768h3.732v-.672h-3.732v-.732h4.368v-.7h-2.472c.216-.3.48-.684.72-1.044l-.948-.252a11.247,11.247,0,0,1-.684,1.3h-2.868l.084-.036a4.383,4.383,0,0,0-.84-1.224l-.768.264a6.505,6.505,0,0,1,.66,1h-2.46v.7h4.308v.732H280.62v.672h3.672V-5.9h-4.824V-5.2h10.6Zm-.648,1.932a7.4,7.4,0,0,0-1.944-1.056l-.48.528A7.846,7.846,0,0,1,288.9-3.384Zm-1.008,1.56a5.418,5.418,0,0,1-1.284,1.14,6.489,6.489,0,0,1-.6-1.3H290.1v-.7h-3.768a9.826,9.826,0,0,1-.228-1.752h-.864a11.439,11.439,0,0,0,.228,1.752h-2.616v-.924a17.043,17.043,0,0,0,1.944-.336l-.54-.564A29.285,29.285,0,0,1,279.6-4.5a2.012,2.012,0,0,1,.2.588c.7-.036,1.452-.1,2.2-.168v.816h-2.544v.7H282v.876c-.984.072-1.884.132-2.592.18l.084.72L282-1.02V.012c0,.168-.06.2-.24.2s-.8.012-1.452-.012a4.311,4.311,0,0,1,.276.708A6.715,6.715,0,0,0,282.4.792c.336-.1.456-.3.456-.756V-1.092c.708-.072,1.428-.132,2.148-.2v-.636l-2.148.168v-.8h2.8a7.255,7.255,0,0,0,.744,1.716A12.893,12.893,0,0,1,283.68.168a6,6,0,0,1,.468.708A15.366,15.366,0,0,0,286.824-.24,2.923,2.923,0,0,0,289.056.912c.756-.012,1.068-.336,1.2-1.608a2.05,2.05,0,0,1-.684-.348c-.06.852-.156,1.128-.48,1.14a2.09,2.09,0,0,1-1.536-.78,6.527,6.527,0,0,0,1.608-1.464Zm12.768-5.616a4.505,4.505,0,0,1-1.164,1.548,5.325,5.325,0,0,1-1.356-1.548Zm-4.8,5.208a10.391,10.391,0,0,0,.708-1.872,3.356,3.356,0,0,1,.324.468,9.378,9.378,0,0,0,2.616-1.224,8.614,8.614,0,0,0,2.724,1.272,3.957,3.957,0,0,1,.564-.768,7.958,7.958,0,0,1-2.6-1.044,5.572,5.572,0,0,0,1.44-2.04h.924v-.756h-3.984a9.528,9.528,0,0,0,.552-1.032l-.852-.228a7.374,7.374,0,0,1-2.28,2.928,5.662,5.662,0,0,1,.732.516,9.57,9.57,0,0,0,.864-.852,6.844,6.844,0,0,0,1.236,1.464,7.951,7.951,0,0,1-2.148.924c.06-.216.12-.432.18-.636l-.54-.192-.132.048h-.888l.456-.516a6.894,6.894,0,0,0-1.008-.72,8.984,8.984,0,0,0,1.956-2.04l-.576-.36-.156.036h-4.032v.78h3.4a8.44,8.44,0,0,1-1.26,1.188c-.384-.2-.792-.4-1.164-.552l-.552.576a12.247,12.247,0,0,1,2.664,1.608H292.32v.78h1.812A9.042,9.042,0,0,1,292.2-1.848a4.722,4.722,0,0,1,.468.828,9.611,9.611,0,0,0,1.752-2.952V-.12c0,.132-.048.168-.192.18s-.624,0-1.14-.012a3.278,3.278,0,0,1,.276.816,4.709,4.709,0,0,0,1.5-.132c.3-.156.4-.4.4-.852V-5.064h1.152a12.507,12.507,0,0,1-.648,1.932ZM300-3.348c.072-.384.132-.78.168-1.188h-.9c-.036.408-.084.8-.156,1.188h-2.064V-2.6h1.872A4.114,4.114,0,0,1,296.136.228a2.9,2.9,0,0,1,.528.684,4.868,4.868,0,0,0,3.18-3.516h2.016c-.18,1.644-.36,2.316-.588,2.544a.508.508,0,0,1-.408.12c-.192,0-.672-.012-1.188-.06a2.333,2.333,0,0,1,.24.828,12.681,12.681,0,0,0,1.332.012,1.083,1.083,0,0,0,.744-.312c.348-.348.576-1.26.792-3.492.012-.144.024-.384.024-.384Zm8.46-6.5a13.271,13.271,0,0,1-3.48,4.836,5.956,5.956,0,0,1,.54.9,14.315,14.315,0,0,0,1.56-1.692v6.7h.9V-7.068a16.112,16.112,0,0,0,1.332-2.5ZM312.2-.1c-.66,0-.792-.144-.792-.816v-3.48a28.238,28.238,0,0,0,4.224-2.616L315-7.776a21,21,0,0,1-3.588,2.484V-9.756h-.9V-.924c0,1.308.384,1.668,1.632,1.668h2.46c1.236,0,1.5-.684,1.644-2.628a2.864,2.864,0,0,1-.852-.384C315.312-.528,315.2-.1,314.544-.1Zm16.164,1.248.72-.372a7.509,7.509,0,0,1-2.232-5.34,7.509,7.509,0,0,1,2.232-5.34l-.72-.372A7.973,7.973,0,0,0,325.98-4.56,7.973,7.973,0,0,0,328.368,1.152ZM336.42.144a3.027,3.027,0,0,0,3.228-3.024,2.72,2.72,0,0,0-2.988-2.8,3.3,3.3,0,0,0-1.812.444l.216-2.64H339.3V-8.82h-5.184L333.84-4.6l.588.36a3.128,3.128,0,0,1,1.98-.6,1.946,1.946,0,0,1,2.124,1.992A2.069,2.069,0,0,1,336.324-.78a3.352,3.352,0,0,1-2.532-1.092l-.552.708A4.219,4.219,0,0,0,336.42.144Zm10.2-1.02V-4.224h5.952V-.876Zm5.952-7.464V-5.1H346.62V-8.34Zm-6.852-.876v10h.9V0h5.952V.732h.936V-9.216Zm15.4.384v1h-2.592v-1ZM358.524-6.12V-7.176h2.592V-6.12Zm3.444.684V-9.528h-4.332V.924h.888v-6.36ZM363.9-3.852v1.116h-2.82V-3.852ZM361.08-.9V-2.064h2.82V-.9Zm3.648.708V-4.536h-4.452V.408h.8v-.6Zm-.84-5.916V-7.176h2.688v1.068Zm2.688-2.724v1h-2.688v-1Zm.9-.7h-4.44v4.1h3.54V-.276c0,.216-.072.288-.276.288s-.948.024-1.68-.012a3.286,3.286,0,0,1,.312.912,6.83,6.83,0,0,0,2.016-.156c.4-.156.528-.456.528-1.02Zm6.924-.744-.72.372a7.509,7.509,0,0,1,2.232,5.34A7.509,7.509,0,0,1,373.68.78l.72.372a7.973,7.973,0,0,0,2.388-5.712A7.973,7.973,0,0,0,374.4-10.272Z" transform="translate(176 7150.646)"/>
      <path id="パス_12490" data-name="パス 12490" d="M3.64-7.546H6.1v.98H3.64Zm0-2.254H6.1v.966H3.64Zm6.65.966H7.784V-9.8H10.29Zm0,2.268H7.784v-.98H10.29ZM7.42-4.228c.056-.322.112-.63.154-.966H12.04v-5.978H1.974v5.978h3.85c-.042.336-.1.658-.154.966H1.036v1.5H5.124C4.466-1.61,3.164-.784.434-.252A4.468,4.468,0,0,1,1.3,1.2C4.83.434,6.314-.924,7.014-2.73H10.7c-.154,1.386-.364,2.086-.616,2.3a.92.92,0,0,1-.616.14c-.378,0-1.26-.014-2.128-.084a3.3,3.3,0,0,1,.546,1.526c.882.014,1.736.028,2.226-.014A1.958,1.958,0,0,0,11.494.588c.448-.448.728-1.6.952-4.144.028-.224.056-.672.056-.672ZM25.284-.812v-2.8h2.562V-5.166H25.284v-2.3H28.14V-9.03H25.284v-2.744H23.618V-9.03H22.5c.14-.63.252-1.288.35-1.946L21.224-11.2a16.944,16.944,0,0,1-.742,3.416,16.052,16.052,0,0,0-.77-1.764l-.812.336v-2.646H17.234V-9L16.058-9.17a16.639,16.639,0,0,1-.686,3.64l1.232.448a17.841,17.841,0,0,0,.63-3.71V1.218H18.9V-8.344a9.735,9.735,0,0,1,.532,1.61l.8-.364c-.14.294-.28.56-.42.812a14.722,14.722,0,0,1,1.484.756,9.563,9.563,0,0,0,.784-1.932h1.54v2.3h-2.7v1.554h2.7v2.8H19.88V.77h8.708V-.812Zm9.31-1.33v-.672H39.9v.672ZM39.9-4.62v.672H34.594V-4.62Zm1.694-1.344H32.928V1.218h1.666V-.994H39.9V-.35c0,.2-.07.266-.322.266-.21.014-1.106.014-1.778-.028a6.608,6.608,0,0,1,.49,1.33,8.74,8.74,0,0,0,2.534-.21c.574-.21.77-.56.77-1.344ZM39.382-9.212l-.672.406c.294.21.6.448.91.7-1.47.028-2.926.042-4.284.07.322-.378.658-.784.966-1.176Zm4.046,0v-1.456H38.08v-1.19H36.372v1.19H31.024v1.456H34.2c-.224.392-.476.812-.742,1.19l-1.946.028.042,1.5c2.45-.056,6.1-.154,9.59-.28a9.331,9.331,0,0,1,.84.9l1.47-.938a18.613,18.613,0,0,0-2.8-2.394Zm6.1,5.5c-.21,1.764-.616,2.912-3.766,3.528a4.981,4.981,0,0,1,.938,1.5c3.668-.9,4.354-2.562,4.634-5.026Zm3.682-.028v2.87c0,1.512.392,2.03,2,2.03h1.708c1.33,0,1.764-.56,1.946-2.758a5.069,5.069,0,0,1-1.54-.658c-.056,1.61-.126,1.848-.574,1.848H55.468c-.476,0-.546-.07-.546-.49V-3.738Zm-5.936-7.728v7.6H48.9v-7.6Zm3.262.182v7.2h7.042v-7.2Zm1.61,1.428h3.738v1.5H52.15Zm0,2.814h3.738v1.526H52.15Zm21.7.2V-8.47H70.2v-3.164H68.544V-8.47H64.988v1.624h2.9a13.283,13.283,0,0,1-3.458,5.068V-8.3a22.091,22.091,0,0,0,1.442-2.954l-1.652-.532a14.363,14.363,0,0,1-3.542,5.376,12.088,12.088,0,0,1,.966,1.75,12.689,12.689,0,0,0,1.148-1.26V1.19h1.638v-2.8A9.233,9.233,0,0,1,65.562-.378,14.226,14.226,0,0,0,68.544-4.62V1.218H70.2V-4.9A14.311,14.311,0,0,0,73.024-.448a5.934,5.934,0,0,1,1.246-1.33,13.694,13.694,0,0,1-3.346-5.068ZM84.322-8.218c-.154.378-.322.784-.49,1.12H81.214l.238-.042a6.9,6.9,0,0,0-.476-1.078Zm4.522,6.244V-3.346H83.4v-.616h4.2v-1.2H83.4V-5.8h4.858V-7.1H85.512c.21-.336.434-.714.658-1.12H88.8V-9.576h-1.82c.322-.49.7-1.12,1.092-1.764l-1.75-.42a11.278,11.278,0,0,1-.882,2.03l.5.154H84.7v-2.282H83.132v2.282H82.1v-2.282H80.542v2.282H79.268l.686-.252A10.594,10.594,0,0,0,78.89-11.8l-1.428.49a12.55,12.55,0,0,1,.868,1.736H76.454v1.358H79.38l-.168.028A6.291,6.291,0,0,1,79.688-7.1h-2.66v1.3H81.76v.63H77.728v1.2H81.76v.616H76.412v1.372H80.43A14.708,14.708,0,0,1,76.006-.336,7.766,7.766,0,0,1,77.07,1.05a13.28,13.28,0,0,0,4.69-2.268V1.218H83.4V-1.3a11.95,11.95,0,0,0,4.7,2.366,7.831,7.831,0,0,1,1.12-1.512,12.507,12.507,0,0,1-4.438-1.526ZM97.5-9.534h.49v1.092h4.13a15.879,15.879,0,0,1-1.2,4.172,16.883,16.883,0,0,1-1.288-4.144l-1.6.322a19.836,19.836,0,0,0,1.89,5.544A7.59,7.59,0,0,1,97.5-.322ZM93.9-3.822h1.988v1.26c-.672.084-1.344.182-1.988.266Zm0-2.884h1.988v1.4H93.9Zm1.988-2.828V-8.2H93.9v-1.33Zm6.972-.588-.28.042H98.392v-.994H91.364v1.54h.952V-2.1c-.476.056-.91.1-1.288.14L91.35-.294c1.288-.2,2.926-.448,4.536-.728v2.24H97.5V-.1A6.659,6.659,0,0,1,98.42,1.12a9.591,9.591,0,0,0,2.492-2.142A8.832,8.832,0,0,0,103.32,1.12a6.043,6.043,0,0,1,1.148-1.372,7.7,7.7,0,0,1-2.534-2.268,18.582,18.582,0,0,0,2.016-7.336Zm13.9.532h-3.64v-.7h3.64Zm0,1.82h-3.64V-8.5h3.64Zm1.68-3.682h-6.93v4.844h6.93Zm-9.338-.392A9.986,9.986,0,0,1,106.19-9.1a10.331,10.331,0,0,1,.826,1.414,14.823,14.823,0,0,0,3.668-3.514Zm.364,3.052a12.567,12.567,0,0,1-3.43,3.6,12.425,12.425,0,0,1,.8,1.722,13.152,13.152,0,0,0,1.26-1.134V1.2h1.61V-6.4a14.783,14.783,0,0,0,1.218-1.764Zm9.716,4.956h-1.9v-.8H118.9V-5.992H110.8v1.358h4.788v.8H110.46v1.414h1.96l-1.036.686A11.793,11.793,0,0,1,112.994.21l1.246-.882a14.72,14.72,0,0,0-1.6-1.75h2.94V-.476c0,.154-.056.21-.252.224s-.84,0-1.428-.028a5.85,5.85,0,0,1,.518,1.484,5.542,5.542,0,0,0,2.17-.238c.546-.238.686-.63.686-1.4V-2.422H119.2ZM125.3-4.97l-.252-1.036c-1.288.5-2.632,1.022-3.514,1.3l.784,1.344c.756-.336,1.68-.77,2.562-1.2l.168.966c1.344-.1,3.052-.224,4.746-.378a5.42,5.42,0,0,1,.294.7l1.26-.56a5.782,5.782,0,0,0-.476-1.008A15.445,15.445,0,0,1,133.1-3.318l1.2-.994A17.791,17.791,0,0,0,131.376-6.1l-.854.686c-.224-.336-.476-.672-.7-.966l-1.176.49c.168.238.35.49.5.756l-1.442.07a34.038,34.038,0,0,0,2.6-2.73l-1.3-.6c-.35.5-.784,1.064-1.274,1.638-.21-.168-.448-.336-.7-.518.406-.476.868-1.05,1.3-1.61L128.03-9h5.8v-1.484h-5.054v-1.358h-1.708v1.358h-4.928V-9h4.578c-.2.35-.42.728-.658,1.078l-.336-.21-.644.784a13.959,13.959,0,0,0-2.016-1.33l-1.106.91a11.032,11.032,0,0,1,2.1,1.54l1.022-.854a16.892,16.892,0,0,1,1.764,1.3c-.266.266-.532.532-.8.784Zm6.468-1.414a20.66,20.66,0,0,0,2.156-1.722L132.44-8.82a12.719,12.719,0,0,1-1.89,1.778Zm-3,2.674h-1.708v.9h-5.376v1.54h5.376V1.218h1.708V-1.274h5.488v-1.54h-5.488Z" transform="translate(302 6927.646)"/>
      <path id="パス_12307" data-name="パス 12307" d="M-78.719-81.58H-95.146l7.875-13.412h22.887V0H-78.719Zm41.405,33.469q0-22.7,10.582-36.237,9.475-12.243,22.948-12.243T19.165-84.349Q29.747-70.813,29.747-47.5q0,23.256-10.582,36.791Q9.69,1.538-3.722,1.538t-23.01-12.243Q-37.314-24.24-37.314-48.111Zm14.089.062q0,15.812,5.476,26.271Q-12.274-11.5-3.784-11.5q8.429,0,13.966-10.274,5.537-10.213,5.537-25.778T10.182-73.4Q4.645-83.61-3.784-83.61q-8.367,0-13.9,10.213Q-23.225-63.246-23.225-48.05Zm63.677-.062q0-22.7,10.582-36.237,9.475-12.243,22.948-12.243T96.93-84.349Q107.512-70.813,107.512-47.5q0,23.256-10.582,36.791Q87.456,1.538,74.043,1.538T51.034-10.705Q40.452-24.24,40.452-48.111Zm14.089.062q0,15.812,5.476,26.271Q65.492-11.5,73.982-11.5q8.429,0,13.966-10.274,5.537-10.213,5.537-25.778T87.948-73.4Q82.411-83.61,73.982-83.61q-8.367,0-13.9,10.213Q54.541-63.246,54.541-48.05Z" transform="translate(379 7053)" fill="#e61050"/>
      <path id="パス_12309" data-name="パス 12309" d="M10.84-25.9H5.625l2.5-4.258h7.266V0H10.84ZM23.984-15.273q0-7.207,3.359-11.5a8.955,8.955,0,0,1,7.285-3.887,8.955,8.955,0,0,1,7.285,3.887q3.359,4.3,3.359,11.7,0,7.383-3.359,11.68A8.939,8.939,0,0,1,34.648.488a9.042,9.042,0,0,1-7.3-3.887Q23.984-7.7,23.984-15.273Zm4.473.02A17.869,17.869,0,0,0,30.2-6.914q1.738,3.262,4.434,3.262,2.676,0,4.434-3.262A17.04,17.04,0,0,0,40.82-15.1a17.158,17.158,0,0,0-1.758-8.2q-1.758-3.242-4.434-3.242-2.656,0-4.414,3.242A16.648,16.648,0,0,0,28.457-15.254Zm20.215-.02q0-7.207,3.359-11.5a8.955,8.955,0,0,1,7.285-3.887A8.955,8.955,0,0,1,66.6-26.777q3.359,4.3,3.359,11.7Q69.961-7.7,66.6-3.4A8.939,8.939,0,0,1,59.336.488a9.042,9.042,0,0,1-7.3-3.887Q48.672-7.7,48.672-15.273Zm4.473.02a17.869,17.869,0,0,0,1.738,8.34q1.738,3.262,4.434,3.262,2.676,0,4.434-3.262A17.04,17.04,0,0,0,65.508-15.1a17.158,17.158,0,0,0-1.758-8.2q-1.758-3.242-4.434-3.242-2.656,0-4.414,3.242A16.648,16.648,0,0,0,53.145-15.254Z" transform="translate(472 7116)" fill="#e61050"/>
      <path id="パス_12308" data-name="パス 12308" d="M-22.7-31.667a8.934,8.934,0,0,1,2.927-6.645,9.711,9.711,0,0,1,6.882-2.821,9.52,9.52,0,0,1,6.908,2.848,9.087,9.087,0,0,1,2.9,6.75,9.117,9.117,0,0,1-2.9,6.776,9.66,9.66,0,0,1-6.987,2.821,9.389,9.389,0,0,1-6.882-2.874A9.4,9.4,0,0,1-22.7-31.667Zm4.588.079a5.092,5.092,0,0,0,1.529,3.744,5.061,5.061,0,0,0,3.718,1.529A5,5,0,0,0-9.2-27.844a5.03,5.03,0,0,0,1.529-3.691A5,5,0,0,0-9.2-35.2a5.03,5.03,0,0,0-3.691-1.529A5.03,5.03,0,0,0-16.585-35.2,4.94,4.94,0,0,0-18.114-31.588ZM10.23-41.423,13.1-39.788-10.2.659l-2.9-1.74ZM3.059-9.36a8.906,8.906,0,0,1,2.927-6.618A9.711,9.711,0,0,1,12.867-18.8,9.551,9.551,0,0,1,19.8-15.952,9.087,9.087,0,0,1,22.7-9.2a9.023,9.023,0,0,1-2.927,6.776A9.65,9.65,0,0,1,12.788.369,9.432,9.432,0,0,1,5.906-2.479,9.376,9.376,0,0,1,3.059-9.36Zm4.614.105a5.138,5.138,0,0,0,1.5,3.744,5.061,5.061,0,0,0,3.718,1.529,4.944,4.944,0,0,0,3.665-1.529A5.03,5.03,0,0,0,18.088-9.2a5.03,5.03,0,0,0-1.529-3.691,4.974,4.974,0,0,0-3.691-1.529A5,5,0,0,0,9.2-12.894,4.969,4.969,0,0,0,7.673-9.255Z" transform="translate(539 7035)" fill="#e61050"/>
      <path id="パス_12310" data-name="パス 12310" d="M-6.727-9.383a2.647,2.647,0,0,1,.867-1.969,2.877,2.877,0,0,1,2.039-.836,2.821,2.821,0,0,1,2.047.844,2.692,2.692,0,0,1,.859,2,2.7,2.7,0,0,1-.859,2.008,2.862,2.862,0,0,1-2.07.836,2.782,2.782,0,0,1-2.039-.852A2.786,2.786,0,0,1-6.727-9.383Zm1.359.023A1.509,1.509,0,0,0-4.914-8.25a1.5,1.5,0,0,0,1.1.453A1.481,1.481,0,0,0-2.727-8.25a1.49,1.49,0,0,0,.453-1.094,1.481,1.481,0,0,0-.453-1.086,1.49,1.49,0,0,0-1.094-.453,1.49,1.49,0,0,0-1.094.453A1.464,1.464,0,0,0-5.367-9.359Zm8.4-2.914.852.484L-3.023.2-3.883-.32ZM.906-2.773a2.639,2.639,0,0,1,.867-1.961A2.877,2.877,0,0,1,3.813-5.57a2.83,2.83,0,0,1,2.055.844,2.692,2.692,0,0,1,.859,2A2.673,2.673,0,0,1,5.859-.719a2.859,2.859,0,0,1-2.07.828A2.8,2.8,0,0,1,1.75-.734,2.778,2.778,0,0,1,.906-2.773Zm1.367.031a1.522,1.522,0,0,0,.445,1.109,1.5,1.5,0,0,0,1.1.453,1.465,1.465,0,0,0,1.086-.453,1.49,1.49,0,0,0,.453-1.094A1.49,1.49,0,0,0,4.906-3.82a1.474,1.474,0,0,0-1.094-.453,1.481,1.481,0,0,0-1.086.453A1.472,1.472,0,0,0,2.273-2.742Z" transform="translate(557 7115)" fill="#e61050"/>
      <path id="パス_12491" data-name="パス 12491" d="M-28.152,0h5.7V-1.176H-24.66c-.432,0-.984.036-1.44.084,1.872-1.788,3.228-3.552,3.228-5.256A2.5,2.5,0,0,0-25.536-9a3.429,3.429,0,0,0-2.688,1.32l.78.768A2.4,2.4,0,0,1-25.7-7.9a1.434,1.434,0,0,1,1.5,1.62c0,1.452-1.344,3.168-3.948,5.472ZM-17.22.156c1.728,0,2.856-1.536,2.856-4.608C-14.364-7.5-15.492-9-17.22-9s-2.856,1.488-2.856,4.548S-18.948.156-17.22.156Zm0-1.092c-.9,0-1.536-.96-1.536-3.516,0-2.532.636-3.456,1.536-3.456s1.536.924,1.536,3.456C-15.684-1.9-16.32-.936-17.22-.936ZM-11.568,0h5.04V-1.14H-8.256v-7.7H-9.3a5.194,5.194,0,0,1-1.92.684v.876h1.584V-1.14h-1.932ZM-2.76-6.1c0-1.152.6-1.836,1.356-1.836.96,0,1.62.792,1.752,2.532a2.1,2.1,0,0,1-1.68,1.08C-2.256-4.32-2.76-4.968-2.76-6.1ZM-1.644.156c1.7,0,3.288-1.392,3.288-4.872C1.644-7.644.276-9-1.416-9A2.7,2.7,0,0,0-4.044-6.1c0,1.848,1,2.772,2.472,2.772A2.655,2.655,0,0,0,.372-4.356C.288-1.836-.636-.972-1.7-.972a1.963,1.963,0,0,1-1.44-.66L-3.9-.78A3.031,3.031,0,0,0-1.644.156Zm8.76-2.94V-4.908H9.528v2.124Zm7.776,0H10.68V-4.908h3.348V-5.952H10.68V-7.608H14.3v-1.08H7.356c.156-.36.324-.756.468-1.128l-1.128-.3A9.709,9.709,0,0,1,4.08-6.048a8.874,8.874,0,0,1,.972.72A10.917,10.917,0,0,0,6.78-7.608H9.528v1.656H6v3.168H4.068V-1.7h5.46V.948H10.68V-1.7h4.212ZM19.2-7.944h8.784v-1H23.616v-1.128H22.452V-8.94h-4.32v3.384c0,1.74-.084,4.176-1.056,5.88a5.051,5.051,0,0,1,.912.612C19.032-.888,19.2-3.672,19.2-5.556Zm5.772,2.112v1.056H22.38V-5.832Zm1.092,1.92v-1.92H27.9v-.912H26.064v-.912H24.972v.912H22.38v-.912H21.324v.912H19.548v.912h1.776v1.92Zm-.5,1.524a5.531,5.531,0,0,1-1.776,1.3,5.162,5.162,0,0,1-1.74-1.3Zm.936-.936-.2.036H19.68v.9h1.836l-.54.2A6.388,6.388,0,0,0,22.632-.636,16.731,16.731,0,0,1,19.2.024a3.421,3.421,0,0,1,.468.936,15.753,15.753,0,0,0,4.08-.984,13.58,13.58,0,0,0,3.8,1A3.974,3.974,0,0,1,28.2.012a15.778,15.778,0,0,1-3.252-.636A5.788,5.788,0,0,0,27.18-2.952Z" transform="translate(532 7054.646)" fill="#e61050"/>
      <path id="パス_12492" data-name="パス 12492" d="M.528,0h5.7V-1.176H4.02c-.432,0-.984.036-1.44.084C4.452-2.88,5.808-4.644,5.808-6.348A2.5,2.5,0,0,0,3.144-9,3.429,3.429,0,0,0,.456-7.68l.78.768A2.4,2.4,0,0,1,2.976-7.9a1.434,1.434,0,0,1,1.5,1.62C4.476-4.824,3.132-3.108.528-.8ZM11.46.156c1.728,0,2.856-1.536,2.856-4.608C14.316-7.5,13.188-9,11.46-9S8.6-7.512,8.6-4.452,9.732.156,11.46.156Zm0-1.092c-.9,0-1.536-.96-1.536-3.516,0-2.532.636-3.456,1.536-3.456S13-6.984,13-4.452C13-1.9,12.36-.936,11.46-.936ZM16.608,0h5.7V-1.176H20.1c-.432,0-.984.036-1.44.084,1.872-1.788,3.228-3.552,3.228-5.256A2.5,2.5,0,0,0,19.224-9a3.429,3.429,0,0,0-2.688,1.32l.78.768a2.4,2.4,0,0,1,1.74-.984,1.434,1.434,0,0,1,1.5,1.62c0,1.452-1.344,3.168-3.948,5.472ZM27.336.156c1.62,0,2.952-.936,2.952-2.532a2.236,2.236,0,0,0-1.824-2.208v-.06A2.135,2.135,0,0,0,29.988-6.72c0-1.452-1.116-2.28-2.7-2.28a3.722,3.722,0,0,0-2.532,1.068l.72.864A2.572,2.572,0,0,1,27.24-7.9,1.227,1.227,0,0,1,28.6-6.624c0,.888-.576,1.548-2.316,1.548v1.02c1.992,0,2.616.636,2.616,1.608a1.485,1.485,0,0,1-1.68,1.476,2.854,2.854,0,0,1-2.088-.972l-.672.888A3.666,3.666,0,0,0,27.336.156Zm-23.7,15.06V13.092H6.048v2.124Zm7.776,0H7.2V13.092h3.348V12.048H7.2V10.392h3.624V9.312H3.876c.156-.36.324-.756.468-1.128l-1.128-.3A9.709,9.709,0,0,1,.6,11.952a8.874,8.874,0,0,1,.972.72A10.917,10.917,0,0,0,3.3,10.392H6.048v1.656H2.52v3.168H.588V16.3h5.46v2.652H7.2V16.3h4.212Zm4.308-5.16H24.5v-1H20.136V7.932H18.972V9.06h-4.32v3.384c0,1.74-.084,4.176-1.056,5.88a5.051,5.051,0,0,1,.912.612c1.044-1.824,1.212-4.608,1.212-6.492Zm5.772,2.112v1.056H18.9V12.168Zm1.092,1.92v-1.92H24.42v-.912H22.584v-.912H21.492v.912H18.9v-.912H17.844v.912H16.068v.912h1.776v1.92Zm-.5,1.524a5.531,5.531,0,0,1-1.776,1.3,5.162,5.162,0,0,1-1.74-1.3Zm.936-.936-.2.036H16.2v.9h1.836l-.54.2a6.388,6.388,0,0,0,1.656,1.548,16.731,16.731,0,0,1-3.432.66,3.421,3.421,0,0,1,.468.936,15.753,15.753,0,0,0,4.08-.984,13.58,13.58,0,0,0,3.8,1,3.974,3.974,0,0,1,.648-.96,15.778,15.778,0,0,1-3.252-.636A5.788,5.788,0,0,0,23.7,15.048Z" transform="translate(437 7096.646)" fill="#e61050"/>
      <path id="パス_110" data-name="パス 110" d="M70.38,0H214" transform="translate(214.5 7089.5)" fill="none" stroke="#e61050" stroke-width="1"/>
      <g id="グループ_92" data-name="グループ 92" transform="translate(-20.427 6791.988)">
        <path id="パス_119" data-name="パス 119" d="M202.138,197.09a12.587,12.587,0,1,1,4.875-17.119A12.585,12.585,0,0,1,202.138,197.09Z" transform="translate(0 5.016)" fill="#e61050"/>
        <path id="パス_120" data-name="パス 120" d="M236.066,175.343a10.156,10.156,0,1,1,3.875-13.829A10.156,10.156,0,0,1,236.066,175.343Z" transform="translate(10.958)" fill="#e61050"/>
        <path id="パス_121" data-name="パス 121" d="M232.683,228.1c-.242-3.21,5.085-30.414,5.085-30.414s-1.137-4.011-3.489-11.214c-.544-1.666-.942-2.994-1.2-4.1l-4.369-.677a3.034,3.034,0,0,1-.423-.071l-11.057-1.861a3.528,3.528,0,0,1,.687-6.961s18.335-.315,18.477-.3c0,0,7.116-1.083,11.657,4.264,3.228,3.8,10.941,17.85,7.546,34.6l-.718,17.9a4.173,4.173,0,0,1-8.345.137l-1.491-12.021-4.2,12.2a4.169,4.169,0,0,1-8.161-1.478Z" transform="translate(9.081 4.696)" fill="#e61050"/>
        <path id="パス_122" data-name="パス 122" d="M245.229,180.875a4.9,4.9,0,0,0-6.744-1.586L217.591,191a6.075,6.075,0,0,0-1.159.549l-16.579,9.2c-5.432,3.006-8.894,7.214-5.48,15.518,1.716,4.148,7.022,16.3,11.19,27.575,2.1,5.631,3.932,11.025,5.17,15.008a47.971,47.971,0,0,1,1.437,5.838c.7,3.559,1.211,7.38,1.64,11.236s.766,7.8,1.06,11.753c.777,10.553,1.256,11.807,1.742,22.538a6.387,6.387,0,0,0,12.771,0c.478-10.754.967-12.077,1.147-22.986.081-5.254.094-10.535-.1-15.92-.061-4.661-.594-9.189-.609-9.2s-.062-.758-.222-2.14c-.083-.694-.19-1.542-.346-2.543-.078-.5-.168-1.043-.278-1.624l-.368-1.8c-.934-4.424-2.357-10.353-4.05-16.481-2.924-10.715-6.28-21.72-8.393-27.308l27.476-22.6A4.893,4.893,0,0,0,245.229,180.875Z" transform="translate(2.801 6.492)" fill="#e61050"/>
      </g>
    </g>
  </g>
</svg>
