<svg xmlns="http://www.w3.org/2000/svg" width="500" height="278" viewBox="0 0 500 278">
  <g id="グループ_959" data-name="グループ 959" transform="translate(-679 -6885)">
    <rect id="長方形_77" data-name="長方形 77" width="500" height="278" transform="translate(679 6885)" fill="#fff"/>
    <path id="パス_12496" data-name="パス 12496" d="M-42.966-7.014a8.959,8.959,0,0,1-1.722,3.822c-1.05-.462-2.1-.868-3.052-1.2.35-.826.728-1.708,1.092-2.618Zm3.976,0V-8.708h-6.972c.392-.966.756-1.932,1.092-2.828l-1.834-.308c-.336.966-.742,2.044-1.162,3.136h-3.822v1.694h3.136c-.616,1.5-1.246,2.912-1.778,4l1.68.616.238-.518q1.113.441,2.268.966A13.221,13.221,0,0,1-51.576-.42a5.613,5.613,0,0,1,.882,1.666,13.418,13.418,0,0,0,6.426-2.282,23.716,23.716,0,0,1,3.78,2.324L-39.214-.28a25.458,25.458,0,0,0-3.724-2.128,11.655,11.655,0,0,0,1.876-4.606Zm11.914,6.2v-2.8h2.562V-5.166h-2.562v-2.3h2.856V-9.03h-2.856v-2.744h-1.666V-9.03h-1.12c.14-.63.252-1.288.35-1.946l-1.624-.224a16.944,16.944,0,0,1-.742,3.416,16.052,16.052,0,0,0-.77-1.764l-.812.336v-2.646h-1.666V-9L-36.3-9.17a16.639,16.639,0,0,1-.686,3.64l1.232.448a17.841,17.841,0,0,0,.63-3.71V1.218h1.666V-8.344a9.735,9.735,0,0,1,.532,1.61l.8-.364c-.14.294-.28.56-.42.812a14.722,14.722,0,0,1,1.484.756,9.563,9.563,0,0,0,.784-1.932h1.54v2.3h-2.7v1.554h2.7v2.8H-32.48V.77h8.708V-.812Zm15.274-.35v.784h-5.544v-.784Zm-1.064-3.78v.728h-4.48v-.728Zm-4.48,1.918h6.132V-6.146h-7.728V1.232h1.6V.854H-11.8v.378h1.652V-2.38h-7.2Zm8.666-7.854h-4.06q.189-.357.336-.714l-1.582-.378a6.455,6.455,0,0,1-1.33,2.03v-.938h-3.108c.112-.224.224-.448.322-.672l-1.554-.42a7.516,7.516,0,0,1-2.058,2.842,8.759,8.759,0,0,1,1.358.9,10.341,10.341,0,0,0,1.12-1.344H-19a7.952,7.952,0,0,1,.63,1.344l1.5-.42a7.059,7.059,0,0,0-.462-.924h1.638c-.112.1-.238.2-.35.28.182.084.448.21.7.35h-.616v.98h-5.152v2.772h1.568V-6.72h8.918v1.526H-9V-7.966h-5.362v-.756a7.7,7.7,0,0,0,.77-.854h.812a8.253,8.253,0,0,1,.84,1.372l1.54-.434a7.043,7.043,0,0,0-.588-.938h2.31ZM-1.974-3.15c-.448.154-.91.294-1.372.434v-2.8h1.26V-7.042h-1.26V-9.506h1.5V-11.06h-4.62v1.554h1.54v2.464H-6.342v1.526h1.414v3.29c-.644.182-1.218.336-1.708.462L-6.258-.07C-4.914-.5-3.234-1.036-1.694-1.582ZM.182-7.378H1.624v1.2H.182Zm0-2.478H1.624v1.162H.182ZM4.41-8.694H3.024V-9.856H4.41Zm0,2.52H3.024v-1.2H4.41ZM3.178-.728v-1.33H6.146v-1.5H3.178v-1.2H5.992v-6.51H-1.316v6.51h2.8v1.2h-2.9v1.5h2.9v1.33H-2.38V.784h9V-.728ZM15.036-1.68v-.84h1.288v.84Zm1.288-2.758v.84H15.036v-.84Zm-.042-4.914a13.478,13.478,0,0,1-.364,1.694l.728.168H14.63l.63-.154A6.239,6.239,0,0,0,14.9-9.352Zm-4.676.994h-.924V-9.87h.924Zm-.924,5.894V-4.158h.924v1.526ZM11.606-5.5h-.924V-7.014h.924Zm8.6-.182a13.215,13.215,0,0,1-.5,1.54q-.084-.945-.126-2.058h2.1V-7.49H19.516c-.028-.938-.042-1.918-.042-2.954A9.6,9.6,0,0,1,20.58-8.4l1.162-.644A9.323,9.323,0,0,0,20.37-11.27l-.9.476v-1.05H18.018c.014,1.554.042,3.01.084,4.354h-1.12c.154-.448.35-1.078.56-1.68l-.952-.182h1.2V-10.57H16.366v-1.26H14.952v1.26H13.58v-.756h-4.8V-9.87h.546v7.63c-.294.056-.574.1-.826.126l.28,1.526c.84-.168,1.834-.378,2.828-.588V1.218h1.386V-9.87h.532v.518H14.63l-.812.2a7.52,7.52,0,0,1,.308,1.666h-.882V-6.2h4.914a37.061,37.061,0,0,0,.378,4.144A7.645,7.645,0,0,1,17.612-.98V-5.586h-3.85V.266h1.274V-.546h2.1a8.429,8.429,0,0,1-.994.7,7.482,7.482,0,0,1,.952,1.092A9.672,9.672,0,0,0,18.928-.392c.336,1.022.8,1.582,1.428,1.6.476,0,1.134-.49,1.484-2.758a4.87,4.87,0,0,1-1.078-.924c-.056,1.106-.168,1.75-.336,1.75s-.322-.392-.448-1.064a13.762,13.762,0,0,0,1.554-3.6ZM28.9-1.848v1.19H26.11v-1.19ZM24.612,1.2h1.5V.588H28.9v.476h1.582V-3.094H24.612Zm5.068-9.52H28.252v-.756H26.726v.756H25.3V-9.352H29.68Zm-1.4-3.458h-1.6v1.162H23.828V-8.2h.686V-7.14h2.212v.588H24.654v1.106h2.072v.6H23.87V-3.57h7.2V-4.844H28.252v-.6H30.3V-6.552H28.252V-7.14h2.24V-8.2h.728v-2.408H28.28Zm5.11,1.4H31.808v7.826H33.39Zm1.316-1.232V-.826c0,.224-.1.308-.336.308-.28,0-1.078.014-1.89-.028a6.82,6.82,0,0,1,.546,1.722A6.158,6.158,0,0,0,35.588.84c.56-.266.728-.728.728-1.652V-11.606Zm13.44,8.568V-.756h-5.53V-3.038Zm-7.168,4.27h1.638V.714h5.53v.518h1.708v-5.74H40.978Zm1.554-8.6a14.3,14.3,0,0,0,2.786-2.842,15.337,15.337,0,0,0,2.87,2.842Zm1.848-4.48a14.821,14.821,0,0,1-5.7,4.984A6.8,6.8,0,0,1,39.732-5.5,19.506,19.506,0,0,0,41.9-6.874v.98h6.972V-6.86a16.793,16.793,0,0,0,2.142,1.33,8.138,8.138,0,0,1,1.078-1.5A14.064,14.064,0,0,1,46.1-11.844Z" transform="translate(918 6927.646)"/>
    <path id="パス_12494" data-name="パス 12494" d="M.528,0h5.7V-1.176H4.02c-.432,0-.984.036-1.44.084C4.452-2.88,5.808-4.644,5.808-6.348A2.5,2.5,0,0,0,3.144-9,3.429,3.429,0,0,0,.456-7.68l.78.768A2.4,2.4,0,0,1,2.976-7.9a1.434,1.434,0,0,1,1.5,1.62C4.476-4.824,3.132-3.108.528-.8ZM11.46.156c1.728,0,2.856-1.536,2.856-4.608C14.316-7.5,13.188-9,11.46-9S8.6-7.512,8.6-4.452,9.732.156,11.46.156Zm0-1.092c-.9,0-1.536-.96-1.536-3.516,0-2.532.636-3.456,1.536-3.456S13-6.984,13-4.452C13-1.9,12.36-.936,11.46-.936ZM16.608,0h5.7V-1.176H20.1c-.432,0-.984.036-1.44.084,1.872-1.788,3.228-3.552,3.228-5.256A2.5,2.5,0,0,0,19.224-9a3.429,3.429,0,0,0-2.688,1.32l.78.768a2.4,2.4,0,0,1,1.74-.984,1.434,1.434,0,0,1,1.5,1.62c0,1.452-1.344,3.168-3.948,5.472ZM27.336.156c1.62,0,2.952-.936,2.952-2.532a2.236,2.236,0,0,0-1.824-2.208v-.06A2.135,2.135,0,0,0,29.988-6.72c0-1.452-1.116-2.28-2.7-2.28a3.722,3.722,0,0,0-2.532,1.068l.72.864A2.572,2.572,0,0,1,27.24-7.9,1.227,1.227,0,0,1,28.6-6.624c0,.888-.576,1.548-2.316,1.548v1.02c1.992,0,2.616.636,2.616,1.608a1.485,1.485,0,0,1-1.68,1.476,2.854,2.854,0,0,1-2.088-.972l-.672.888A3.666,3.666,0,0,0,27.336.156Zm-23.7,15.06V13.092H6.048v2.124Zm7.776,0H7.2V13.092h3.348V12.048H7.2V10.392h3.624V9.312H3.876c.156-.36.324-.756.468-1.128l-1.128-.3A9.709,9.709,0,0,1,.6,11.952a8.874,8.874,0,0,1,.972.72A10.917,10.917,0,0,0,3.3,10.392H6.048v1.656H2.52v3.168H.588V16.3h5.46v2.652H7.2V16.3h4.212Zm4.308-5.16H24.5v-1H20.136V7.932H18.972V9.06h-4.32v3.384c0,1.74-.084,4.176-1.056,5.88a5.051,5.051,0,0,1,.912.612c1.044-1.824,1.212-4.608,1.212-6.492Zm5.772,2.112v1.056H18.9V12.168Zm1.092,1.92v-1.92H24.42v-.912H22.584v-.912H21.492v.912H18.9v-.912H17.844v.912H16.068v.912h1.776v1.92Zm-.5,1.524a5.531,5.531,0,0,1-1.776,1.3,5.162,5.162,0,0,1-1.74-1.3Zm.936-.936-.2.036H16.2v.9h1.836l-.54.2a6.388,6.388,0,0,0,1.656,1.548,16.731,16.731,0,0,1-3.432.66,3.421,3.421,0,0,1,.468.936,15.753,15.753,0,0,0,4.08-.984,13.58,13.58,0,0,0,3.8,1,3.974,3.974,0,0,1,.648-.96,15.778,15.778,0,0,1-3.252-.636A5.788,5.788,0,0,0,23.7,15.048Z" transform="translate(866 7102.646)" fill="#e61050"/>
    <g id="グループ_89" data-name="グループ 89" transform="translate(-114 602)">
      <path id="パス_12306" data-name="パス 12306" d="M-30.023-26.517h10.09v13.043h-10.09V0H-44.358V-13.474H-90.993l60.97-88.594Zm-14.335,0V-58.324l-21.9,31.808ZM-3.507-6.891A8.158,8.158,0,0,1-.984-12.858a8.228,8.228,0,0,1,6.029-2.522,8.228,8.228,0,0,1,6.029,2.522A8.228,8.228,0,0,1,13.6-6.829,8.3,8.3,0,0,1,11.074-.738,8.2,8.2,0,0,1,5.045,1.723,8.273,8.273,0,0,1-1.046-.738,8.347,8.347,0,0,1-3.507-6.891ZM48.542-81.58H32.115L39.99-94.992H62.877V0H48.542Z" transform="translate(962 6457)" fill="#e61050"/>
      <path id="パス_12303" data-name="パス 12303" d="M15.7-31.211l3.34,2.5-7.207,9.8q.586-.078,1-.117t.645-.039a8.471,8.471,0,0,1,6.348,2.813A9.311,9.311,0,0,1,22.48-9.57a9.7,9.7,0,0,1-2.969,7.109A9.667,9.667,0,0,1,12.422.488a10.15,10.15,0,0,1-7.187-2.91A9.247,9.247,0,0,1,2.207-9.316a12.978,12.978,0,0,1,2.949-7.578ZM18.047-9.277a5.525,5.525,0,0,0-1.66-4.062,5.511,5.511,0,0,0-4.043-1.68A5.5,5.5,0,0,0,8.3-13.359a5.479,5.479,0,0,0-1.66,4.023A5.479,5.479,0,0,0,8.3-5.312a5.525,5.525,0,0,0,4.063,1.66,5.457,5.457,0,0,0,4-1.66A5.422,5.422,0,0,0,18.047-9.277Zm10.1,7.09a2.59,2.59,0,0,1,.8-1.895,2.612,2.612,0,0,1,1.914-.8,2.612,2.612,0,0,1,1.914.8,2.612,2.612,0,0,1,.8,1.914,2.635,2.635,0,0,1-.8,1.934,2.6,2.6,0,0,1-1.914.781,2.626,2.626,0,0,1-1.934-.781A2.65,2.65,0,0,1,28.145-2.187ZM38.73-15.273q0-7.207,3.359-11.5a8.955,8.955,0,0,1,7.285-3.887,8.955,8.955,0,0,1,7.285,3.887q3.359,4.3,3.359,11.7Q60.02-7.7,56.66-3.4A8.939,8.939,0,0,1,49.395.488,9.042,9.042,0,0,1,42.09-3.4Q38.73-7.7,38.73-15.273Zm4.473.02a17.869,17.869,0,0,0,1.738,8.34q1.738,3.262,4.434,3.262,2.676,0,4.434-3.262A17.04,17.04,0,0,0,55.566-15.1a17.158,17.158,0,0,0-1.758-8.2q-1.758-3.242-4.434-3.242-2.656,0-4.414,3.242A16.648,16.648,0,0,0,43.2-15.254Z" transform="translate(1019 6520)" fill="#e61050"/>
      <path id="パス_12305" data-name="パス 12305" d="M-22.7-31.667a8.934,8.934,0,0,1,2.927-6.645,9.711,9.711,0,0,1,6.882-2.821,9.52,9.52,0,0,1,6.908,2.848,9.087,9.087,0,0,1,2.9,6.75,9.117,9.117,0,0,1-2.9,6.776,9.66,9.66,0,0,1-6.987,2.821,9.389,9.389,0,0,1-6.882-2.874A9.4,9.4,0,0,1-22.7-31.667Zm4.588.079a5.092,5.092,0,0,0,1.529,3.744,5.061,5.061,0,0,0,3.718,1.529A5,5,0,0,0-9.2-27.844a5.03,5.03,0,0,0,1.529-3.691A5,5,0,0,0-9.2-35.2a5.03,5.03,0,0,0-3.691-1.529A5.03,5.03,0,0,0-16.585-35.2,4.94,4.94,0,0,0-18.114-31.588ZM10.23-41.423,13.1-39.788-10.2.659l-2.9-1.74ZM3.059-9.36a8.906,8.906,0,0,1,2.927-6.618A9.711,9.711,0,0,1,12.867-18.8,9.551,9.551,0,0,1,19.8-15.952,9.087,9.087,0,0,1,22.7-9.2a9.023,9.023,0,0,1-2.927,6.776A9.65,9.65,0,0,1,12.788.369,9.432,9.432,0,0,1,5.906-2.479,9.376,9.376,0,0,1,3.059-9.36Zm4.614.105a5.138,5.138,0,0,0,1.5,3.744,5.061,5.061,0,0,0,3.718,1.529,4.944,4.944,0,0,0,3.665-1.529A5.03,5.03,0,0,0,18.088-9.2a5.03,5.03,0,0,0-1.529-3.691,4.974,4.974,0,0,0-3.691-1.529A5,5,0,0,0,9.2-12.894,4.969,4.969,0,0,0,7.673-9.255Z" transform="translate(1079 6439)" fill="#e61050"/>
      <path id="パス_12304" data-name="パス 12304" d="M-6.727-9.383a2.647,2.647,0,0,1,.867-1.969,2.877,2.877,0,0,1,2.039-.836,2.821,2.821,0,0,1,2.047.844,2.692,2.692,0,0,1,.859,2,2.7,2.7,0,0,1-.859,2.008,2.862,2.862,0,0,1-2.07.836,2.782,2.782,0,0,1-2.039-.852A2.786,2.786,0,0,1-6.727-9.383Zm1.359.023A1.509,1.509,0,0,0-4.914-8.25a1.5,1.5,0,0,0,1.1.453A1.481,1.481,0,0,0-2.727-8.25a1.49,1.49,0,0,0,.453-1.094,1.481,1.481,0,0,0-.453-1.086,1.49,1.49,0,0,0-1.094-.453,1.49,1.49,0,0,0-1.094.453A1.464,1.464,0,0,0-5.367-9.359Zm8.4-2.914.852.484L-3.023.2-3.883-.32ZM.906-2.773a2.639,2.639,0,0,1,.867-1.961A2.877,2.877,0,0,1,3.813-5.57a2.83,2.83,0,0,1,2.055.844,2.692,2.692,0,0,1,.859,2A2.673,2.673,0,0,1,5.859-.719a2.859,2.859,0,0,1-2.07.828A2.8,2.8,0,0,1,1.75-.734,2.778,2.778,0,0,1,.906-2.773Zm1.367.031a1.522,1.522,0,0,0,.445,1.109,1.5,1.5,0,0,0,1.1.453,1.465,1.465,0,0,0,1.086-.453,1.49,1.49,0,0,0,.453-1.094A1.49,1.49,0,0,0,4.906-3.82a1.474,1.474,0,0,0-1.094-.453,1.481,1.481,0,0,0-1.086.453A1.472,1.472,0,0,0,2.273-2.742Z" transform="translate(1097 6519)" fill="#e61050"/>
      <path id="パス_12495" data-name="パス 12495" d="M-28.152,0h5.7V-1.176H-24.66c-.432,0-.984.036-1.44.084,1.872-1.788,3.228-3.552,3.228-5.256A2.5,2.5,0,0,0-25.536-9a3.429,3.429,0,0,0-2.688,1.32l.78.768A2.4,2.4,0,0,1-25.7-7.9a1.434,1.434,0,0,1,1.5,1.62c0,1.452-1.344,3.168-3.948,5.472ZM-17.22.156c1.728,0,2.856-1.536,2.856-4.608C-14.364-7.5-15.492-9-17.22-9s-2.856,1.488-2.856,4.548S-18.948.156-17.22.156Zm0-1.092c-.9,0-1.536-.96-1.536-3.516,0-2.532.636-3.456,1.536-3.456s1.536.924,1.536,3.456C-15.684-1.9-16.32-.936-17.22-.936ZM-11.568,0h5.04V-1.14H-8.256v-7.7H-9.3a5.194,5.194,0,0,1-1.92.684v.876h1.584V-1.14h-1.932ZM-2.76-6.1c0-1.152.6-1.836,1.356-1.836.96,0,1.62.792,1.752,2.532a2.1,2.1,0,0,1-1.68,1.08C-2.256-4.32-2.76-4.968-2.76-6.1ZM-1.644.156c1.7,0,3.288-1.392,3.288-4.872C1.644-7.644.276-9-1.416-9A2.7,2.7,0,0,0-4.044-6.1c0,1.848,1,2.772,2.472,2.772A2.655,2.655,0,0,0,.372-4.356C.288-1.836-.636-.972-1.7-.972a1.963,1.963,0,0,1-1.44-.66L-3.9-.78A3.031,3.031,0,0,0-1.644.156Zm8.76-2.94V-4.908H9.528v2.124Zm7.776,0H10.68V-4.908h3.348V-5.952H10.68V-7.608H14.3v-1.08H7.356c.156-.36.324-.756.468-1.128l-1.128-.3A9.709,9.709,0,0,1,4.08-6.048a8.874,8.874,0,0,1,.972.72A10.917,10.917,0,0,0,6.78-7.608H9.528v1.656H6v3.168H4.068V-1.7h5.46V.948H10.68V-1.7h4.212ZM19.2-7.944h8.784v-1H23.616v-1.128H22.452V-8.94h-4.32v3.384c0,1.74-.084,4.176-1.056,5.88a5.051,5.051,0,0,1,.912.612C19.032-.888,19.2-3.672,19.2-5.556Zm5.772,2.112v1.056H22.38V-5.832Zm1.092,1.92v-1.92H27.9v-.912H26.064v-.912H24.972v.912H22.38v-.912H21.324v.912H19.548v.912h1.776v1.92Zm-.5,1.524a5.531,5.531,0,0,1-1.776,1.3,5.162,5.162,0,0,1-1.74-1.3Zm.936-.936-.2.036H19.68v.9h1.836l-.54.2A6.388,6.388,0,0,0,22.632-.636,16.731,16.731,0,0,1,19.2.024a3.421,3.421,0,0,1,.468.936,15.753,15.753,0,0,0,4.08-.984,13.58,13.58,0,0,0,3.8,1A3.974,3.974,0,0,1,28.2.012a15.778,15.778,0,0,1-3.252-.636A5.788,5.788,0,0,0,27.18-2.952Z" transform="translate(1072 6458.646)" fill="#e61050"/>
      <path id="パス_82" data-name="パス 82" d="M0,0H100.052" transform="translate(870 6493.5)" fill="none" stroke="#e61050" stroke-width="1"/>
    </g>
    <g id="グループ_594" data-name="グループ 594" transform="translate(967.655 6976.094)">
      <path id="パス_113" data-name="パス 113" d="M127.016,384.62a.02.02,0,0,0-.011,0l-1.91.642Z" transform="translate(-51.565 -287.183)" fill="#e61050"/>
      <path id="パス_114" data-name="パス 114" d="M88.014,315.2v0h0Z" transform="translate(-23.878 -235.352)" fill="#e61050"/>
      <path id="パス_115" data-name="パス 115" d="M130.975,94.165C188.5,52.036,141.732-24.12,87.887,7.477,73.53,9.906,58.453,18.82,62.044,33.4a14.387,14.387,0,0,0,2.042,4.5,22.366,22.366,0,0,0-1.443,7.546,15.45,15.45,0,0,0,.166,2.3,37.807,37.807,0,0,1,.5,5.583c0,.223-.006.438-.013.654a18.8,18.8,0,0,1-7.261,1.292,15.178,15.178,0,0,0,6.624,2.707,13.514,13.514,0,0,1-.542,1.432,25.153,25.153,0,0,1-4.229,6.141A7.66,7.66,0,0,0,56.6,67.509a5.056,5.056,0,0,0-.453,2.065,4.668,4.668,0,0,0,.542,2.174A6.53,6.53,0,0,0,58.447,73.8a13.672,13.672,0,0,0,1.517,1.025,1.759,1.759,0,0,1,.34.6A3.149,3.149,0,0,1,60.51,76.5a1.526,1.526,0,0,1-.062.476l-.038.091-.006.008.006-.006v0l-.006,0,0,0a4.319,4.319,0,0,0-.8,1.082,3.051,3.051,0,0,0,.062,2.954,4.694,4.694,0,0,0,1.107,1.266c.094.079.179.14.266.21-.028.077-.057.161-.091.249-.076.21-.162.446-.238.729a4.044,4.044,0,0,0-.149,1.033,2.875,2.875,0,0,0,.279,1.248,2.727,2.727,0,0,0,.99,1.111l.087.055-.079-.049a1.943,1.943,0,0,1,.823.91,3.561,3.561,0,0,1,.2,1.373c.006.727-.109,1.606-.115,2.6a7.524,7.524,0,0,0,.055.946l-.006-.049.006.053v0a6.751,6.751,0,0,0,.5,1.847,6.083,6.083,0,0,0,2.289,2.7,7.826,7.826,0,0,0,4.312,1.141,17.657,17.657,0,0,0,5.531-1.048l.013-.006a14.022,14.022,0,0,1,4.454-.812,8.5,8.5,0,0,1,4.568,1.258,11.143,11.143,0,0,1,2.71,2.418,23.392,23.392,0,0,1,3.256,5.55,62.229,62.229,0,0,1,2.408,6.736,13.72,13.72,0,0,1,.625,4.048,13.871,13.871,0,0,1-2.208,7.365,15.391,15.391,0,0,1-1.524,2.04c-.206.232-.372.4-.484.514l-.119.113-.019.017,0,.006.786.871,1.912,2.151a17.645,17.645,0,0,0,2.884-3.559A17.464,17.464,0,0,0,96.723,111.4c-1.288-4.193-2.867-8.71-5.414-12.361a16.241,16.241,0,0,0-4.717-4.609,12.552,12.552,0,0,0-6.687-1.855,18,18,0,0,0-5.75,1.026l0,0a13.6,13.6,0,0,1-4.25.839,4.591,4.591,0,0,1-1.64-.253,2.114,2.114,0,0,1-1.064-.812A2.561,2.561,0,0,1,66.82,92.3a4,4,0,0,1-.023-.449c-.006-.612.114-1.526.117-2.6a7.548,7.548,0,0,0-.519-2.934A5.841,5.841,0,0,0,64.79,84.12l.078-.214c.078-.212.162-.451.24-.736a4.058,4.058,0,0,0,.145-1.039,2.915,2.915,0,0,0-.24-1.177,2.725,2.725,0,0,0-.877-1.1l-.485-.361a4.4,4.4,0,0,0,.644-1.25,5.6,5.6,0,0,0,.266-1.742,7.189,7.189,0,0,0-.6-2.831,6,6,0,0,0-.727-1.247,4.235,4.235,0,0,0-1.162-1.058h0c-.24-.142-.493-.3-.742-.467a4.1,4.1,0,0,1-.9-.8,1.33,1.33,0,0,1-.187-.312.557.557,0,0,1-.041-.213,1.03,1.03,0,0,1,.109-.429,3.777,3.777,0,0,1,.625-.922,28.922,28.922,0,0,0,4.883-7.161,18.373,18.373,0,0,0,1.543-7.731,42,42,0,0,0-.546-6.19,11.047,11.047,0,0,1-.123-1.69,16.568,16.568,0,0,1,.506-3.874c5.837,5.634,14.229,8.838,14.229,8.838l2.153-15.392s2.089,30.1,14.178,45.369c5.8,7.327,11.943,11.084,17.351,12.928a13.718,13.718,0,0,0-.162,2.18c0,3.389.982,8.281,4.11,14.2a28.581,28.581,0,0,0,7.066,8.462,28.136,28.136,0,0,0,4.159,2.905l1.611-2.981.317-.582a24.994,24.994,0,0,1-3.6-2.542,24.521,24.521,0,0,1-5.971-7.159c-2.86-5.4-3.644-9.69-3.642-12.3a10.833,10.833,0,0,1,.057-1.124A26.146,26.146,0,0,0,130.975,94.165Z" transform="translate(0 0)" fill="#e61050"/>
    </g>
  </g>
</svg>
