<svg height="241.808" viewBox="0 0 280.536 241.808" width="280.536" xmlns="http://www.w3.org/2000/svg"><path d="m10.038-5.152h-5.054v-.9h5.054zm-5.054 2.3v-.91h5.054v.91zm8.246-5.758v-1.568h-6.83c.168-.434.308-.868.448-1.3l-1.722-.392a13.967 13.967 0 0 1 -.546 1.694h-3.768v1.566h3.066a10.872 10.872 0 0 1 -3.486 4.088 9.383 9.383 0 0 1 1.092 1.274 10.261 10.261 0 0 0 1.848-1.638v6.086h1.652v-2.67h5.054v.84c0 .2-.084.266-.322.28s-1.05 0-1.764-.042a6.91 6.91 0 0 1 .5 1.61 6.166 6.166 0 0 0 2.478-.28c.574-.252.728-.7.728-1.526v-6.912h-6.478a11.705 11.705 0 0 0 .56-1.11zm2.884 4.942a10.179 10.179 0 0 1 -.742 3.248 8.229 8.229 0 0 1 1.274.6 12.944 12.944 0 0 0 .84-3.612zm3.038.252a16.566 16.566 0 0 1 .812 2.6l1.236-.444a15.435 15.435 0 0 0 -.868-2.52zm-.294-3.458c.168.308.336.658.49 1.008l-1.348.056c.882-1.134 1.848-2.548 2.618-3.766l-1.358-.63a25.389 25.389 0 0 1 -1.246 2.268c-.14-.182-.308-.364-.476-.56.5-.77 1.064-1.862 1.568-2.814l-1.442-.532a17.747 17.747 0 0 1 -1.022 2.436c-.112-.1-.224-.2-.322-.28l-.8 1.134a13.738 13.738 0 0 1 1.652 1.9c-.224.322-.448.63-.658.9l-1.008.042.14 1.442 2.03-.126v5.628h1.442v-5.726l.714-.056a6.712 6.712 0 0 1 .182.714l1.186-.532a11.868 11.868 0 0 0 -1.232-2.968zm7.294 3.7v2.18h-3.08v-2.184zm-4.62 4.374h1.54v-.738h3.08v.686h1.6v-5.8h-6.22zm.994-8.6a16.229 16.229 0 0 0 1.946-2.59 19.524 19.524 0 0 0 2.058 2.59zm1.106-4.27a13.469 13.469 0 0 1 -3.532 4.18 7.664 7.664 0 0 1 .952 1.456 10.993 10.993 0 0 0 1.218-1.092v1.246h4.61v-1.148a11.942 11.942 0 0 0 1.022.91 10.283 10.283 0 0 1 1.022-1.554 13.739 13.739 0 0 1 -3.71-3.99zm19.978 4.824v-1.624h-3.654v-3.164h-1.656v3.164h-3.552v1.624h2.9a13.283 13.283 0 0 1 -3.458 5.068v-6.522a22.09 22.09 0 0 0 1.442-2.954l-1.652-.532a14.363 14.363 0 0 1 -3.542 5.376 12.089 12.089 0 0 1 .966 1.75 12.689 12.689 0 0 0 1.148-1.26v7.11h1.638v-2.8a9.233 9.233 0 0 1 1.132 1.232 14.226 14.226 0 0 0 2.978-4.242v5.838h1.652v-6.118a14.311 14.311 0 0 0 2.832 4.452 5.934 5.934 0 0 1 1.246-1.33 13.694 13.694 0 0 1 -3.346-5.068zm14.966-4.48h-3.752v1.4h2.324v1.974h-2.324v1.4h3.752zm-10.024 1.946v2.66h-.952v-2.66zm-.952 6.832v-2.744h.952v2.744zm2.282-8.288h-3.57v10.85h1.288v-1.106h2.282zm3.066.882v2.086h-.966v-2.086zm1.344 8.442v-1.372h-2.31v-1.2h2.142v-1.362h-2.142v-1.064h2.408v-4.816h-3.934v12.516h1.526v-2.7zm2.772-2.982a8.766 8.766 0 0 1 -.658 1.736 9.761 9.761 0 0 1 -.6-1.736zm.77-1.386-.266.042h-3.108v1.344h1.05l-.952.2a13.443 13.443 0 0 0 .98 2.8 5.709 5.709 0 0 1 -2.212 1.522 5.189 5.189 0 0 1 .826 1.218 7.627 7.627 0 0 0 2.212-1.47 5.412 5.412 0 0 0 1.624 1.414 5.5 5.5 0 0 1 .98-1.2 4.908 4.908 0 0 1 -1.694-1.344 10.549 10.549 0 0 0 1.484-4.284zm9.422-3.654h.49v1.092h4.13a15.879 15.879 0 0 1 -1.2 4.172 16.883 16.883 0 0 1 -1.288-4.144l-1.6.322a19.836 19.836 0 0 0 1.89 5.544 7.59 7.59 0 0 1 -2.422 2.226zm-3.6 5.712h1.988v1.26c-.672.084-1.344.182-1.988.266zm0-2.884h1.988v1.4h-1.986zm1.988-2.828v1.334h-1.986v-1.33zm6.972-.588-.28.042h-4.184v-.994h-7.028v1.54h.952v7.434c-.476.056-.91.1-1.288.14l.322 1.666c1.288-.2 2.926-.448 4.536-.728v2.24h1.61v-1.318a6.659 6.659 0 0 1 .924 1.22 9.591 9.591 0 0 0 2.492-2.142 8.832 8.832 0 0 0 2.408 2.142 6.043 6.043 0 0 1 1.148-1.372 7.7 7.7 0 0 1 -2.534-2.268 18.582 18.582 0 0 0 2.016-7.336zm13.9.532h-3.636v-.7h3.64zm0 1.82h-3.636v-.73h3.64zm1.68-3.682h-6.926v4.844h6.93zm-9.338-.392a9.986 9.986 0 0 1 -2.908 2.744 10.331 10.331 0 0 1 .826 1.414 14.823 14.823 0 0 0 3.668-3.514zm.364 3.052a12.567 12.567 0 0 1 -3.43 3.6 12.425 12.425 0 0 1 .8 1.722 13.152 13.152 0 0 0 1.26-1.134v5.804h1.61v-7.6a14.783 14.783 0 0 0 1.218-1.764zm9.716 4.956h-1.9v-.8h1.624v-1.356h-8.106v1.358h4.788v.8h-5.124v1.414h1.96l-1.036.686a11.793 11.793 0 0 1 1.61 1.944l1.246-.882a14.72 14.72 0 0 0 -1.6-1.75h2.94v1.946c0 .154-.056.21-.252.224s-.84 0-1.428-.028a5.85 5.85 0 0 1 .522 1.48 5.542 5.542 0 0 0 2.17-.238c.546-.238.686-.63.686-1.4v-1.984h1.918zm6.122-1.134-.252-1.036c-1.288.5-2.632 1.022-3.514 1.3l.784 1.344c.756-.336 1.68-.77 2.562-1.2l.168.966c1.344-.1 3.052-.224 4.746-.378a5.42 5.42 0 0 1 .294.7l1.26-.56a5.784 5.784 0 0 0 -.476-1.008 15.445 15.445 0 0 1 2.226 1.526l1.2-.994a17.791 17.791 0 0 0 -2.922-1.79l-.854.686c-.224-.336-.476-.672-.7-.966l-1.176.49c.168.238.35.49.5.756l-1.442.07a34.038 34.038 0 0 0 2.6-2.73l-1.3-.6c-.35.5-.784 1.064-1.274 1.638-.21-.168-.448-.336-.7-.518.406-.476.868-1.05 1.3-1.61l-.3-.116h5.8v-1.484h-5.058v-1.358h-1.708v1.358h-4.924v1.484h4.578c-.2.35-.42.728-.658 1.078l-.336-.21-.644.784a13.959 13.959 0 0 0 -2.02-1.332l-1.106.91a11.032 11.032 0 0 1 2.1 1.54l1.022-.854a16.892 16.892 0 0 1 1.764 1.3c-.266.266-.532.532-.8.784zm6.468-1.414a20.658 20.658 0 0 0 2.156-1.722l-1.484-.714a12.718 12.718 0 0 1 -1.89 1.778zm-3 2.674h-1.704v.9h-5.376v1.54h5.376v2.488h1.708v-2.492h5.488v-1.54h-5.488z" transform="translate(88.32 11.872)"/><path d="m6.9-7.98a.907.907 0 0 0 -.9-.9.907.907 0 0 0 -.9.9.907.907 0 0 0 .9.9.907.907 0 0 0 .9-.9zm-4.86-.888-.348.348 3.96 3.96-3.972 3.972.348.348 3.972-3.972 3.96 3.96.348-.348-3.96-3.96 3.96-3.96-.348-.348-3.96 3.96zm.54 3.408a.907.907 0 0 0 -.9.9.907.907 0 0 0 .9.9.907.907 0 0 0 .9-.9.907.907 0 0 0 -.9-.9zm6.84 1.8a.907.907 0 0 0 .9-.9.907.907 0 0 0 -.9-.9.907.907 0 0 0 -.9.9.907.907 0 0 0 .9.9zm-4.32 2.52a.907.907 0 0 0 .9.9.907.907 0 0 0 .9-.9.907.907 0 0 0 -.9-.9.907.907 0 0 0 -.9.9zm13.164-5.388a7.214 7.214 0 0 1 .048.864c0 2-.264 3.72-2.124 4.86a4.639 4.639 0 0 1 -1.068.528l.88.72c3.06-1.524 3.348-3.72 3.348-6.972zm5.28-2.148a5.926 5.926 0 0 1 -.84.072h-6.888a12.656 12.656 0 0 1 -1.368-.1v1.08a13.589 13.589 0 0 1 1.368-.072h6.828a8.1 8.1 0 0 1 -2.616 2.696l.792.636a11.57 11.57 0 0 0 2.988-3.316c.084-.132.24-.312.324-.432zm3.24 7.956c.408-.024.828-.06 1.26-.06h7.188c.324 0 .732.024 1.092.06v-1.152a8.215 8.215 0 0 1 -1.092.06h-7.188c-.432 0-.852-.024-1.26-.06zm1.032-6.012q.558-.036 1.188-.036h5.136c.4 0 .852.012 1.188.036v-1.08a11.528 11.528 0 0 1 -1.188.06h-5.148c-.384 0-.792-.024-1.176-.06zm20-2.616-.636.264a13.713 13.713 0 0 1 .972 1.668l.648-.284a13.848 13.848 0 0 0 -.98-1.648zm1.32-.48-.636.264a11.43 11.43 0 0 1 1 1.656l.648-.288a13.953 13.953 0 0 0 -1.008-1.632zm-7.88 6.216a15.762 15.762 0 0 1 -1.848 3.264l1.02.432a17.4 17.4 0 0 0 1.764-3.3 26.675 26.675 0 0 0 1.092-3.744c.048-.264.144-.612.216-.876l-1.068-.216a18.343 18.343 0 0 1 -1.176 4.44zm5.9-.456a35.959 35.959 0 0 1 1.36 4.128l1.068-.348c-.312-1.08-.948-2.916-1.44-4.1a38.792 38.792 0 0 0 -1.752-3.792l-.972.324a30.687 30.687 0 0 1 1.74 3.788zm5.664.048c.372-.036 1.008-.06 1.668-.06h6.592c.54 0 1.044.048 1.284.06v-1.18c-.264.024-.7.06-1.3.06h-6.572c-.672 0-1.308-.036-1.668-.06zm20.14-2.832v-1.5a9.1 9.1 0 0 1 .06-.984h-1.08a6.691 6.691 0 0 1 .06.984v1.5h-3.42v-1.536a7.407 7.407 0 0 1 .06-.876h-1.068c.012.12.048.492.048.876v1.536h-1.284a8.854 8.854 0 0 1 -1.212-.084v1.044c.144-.012.684-.048 1.212-.048h1.284v1.94c0 .456-.036.972-.048 1.092h1.056c-.012-.12-.048-.648-.048-1.092v-1.94h3.42v.5c0 3.36-1.092 4.392-3.276 5.232l.8.756c2.752-1.22 3.436-2.864 3.436-6.068v-.42h1.32c.528 0 .972.024 1.092.036v-1.008a8.416 8.416 0 0 1 -1.092.06zm6.972-2.16c.024.228.048.648.048.864v4c0 .36-.036.744-.048.924h1.1c-.02-.22-.032-.616-.032-.916v-4.008c0-.288.012-.636.036-.864zm5.556-.088c.024.288.06.636.06 1.032v1.9c0 2.268-.144 3.24-1.008 4.236a5.536 5.536 0 0 1 -2.88 1.6l.78.828a6.409 6.409 0 0 0 2.86-1.756c.864-1.032 1.248-1.98 1.248-4.86v-1.944c0-.4.024-.744.048-1.032zm5.976 5.08c.372-.036 1.008-.06 1.668-.06h6.588c.54 0 1.044.048 1.284.06v-1.18c-.264.024-.7.06-1.3.06h-6.572c-.672 0-1.308-.036-1.668-.06zm15.276-5.94a12.331 12.331 0 0 1 -3.252 4.812 5.107 5.107 0 0 1 .54.9 12.175 12.175 0 0 0 1.416-1.584v6.732h.876v-8.016a17.828 17.828 0 0 0 1.308-2.568zm7.86 3.828v-.868h-3.468v-2.88h-.876v2.88h-3.372v.864h2.9a12.191 12.191 0 0 1 -3.324 4.908 5.177 5.177 0 0 1 .672.684 13.4 13.4 0 0 0 3.12-4.62v6.088h.876v-6.336a14.568 14.568 0 0 0 3.112 4.824 3.2 3.2 0 0 1 .672-.72 12.661 12.661 0 0 1 -3.264-4.824zm12.7-3.368h-3.048v.768h2.248v2.16h-2.256v.768h3.056zm-8.088 1.092v2.708h-1.38v-2.712zm-1.38 6.3v-2.8h1.38v2.8zm2.12-7.092h-2.852v8.828h.732v-.936h2.124zm3.036.456v2.2h-1.464v-2.2zm.744 7.248v-.756h-2.208v-1.492h2v-.756h-2v-1.284h2.256v-3.716h-3.08v10.388h.828v-2.388zm2.76-2.628a7.693 7.693 0 0 1 -.876 2.184 8.453 8.453 0 0 1 -.8-2.184zm.42-.78-.132.024h-2.892v.756h.864l-.612.124a10.915 10.915 0 0 0 .984 2.724 5.259 5.259 0 0 1 -2.052 1.528 2.436 2.436 0 0 1 .456.648 6.14 6.14 0 0 0 2.04-1.464 4.765 4.765 0 0 0 1.548 1.44 3.215 3.215 0 0 1 .552-.648 4.377 4.377 0 0 1 -1.6-1.416 8.709 8.709 0 0 0 1.356-3.576zm6.552-2.596h2.424v-.816h-2.424v-1.684h-.852v1.68h-1.272c.132-.408.252-.852.36-1.272l-.84-.168a9.458 9.458 0 0 1 -1.2 3.156 5.235 5.235 0 0 1 .792.336 9.172 9.172 0 0 0 .6-1.236h1.56v1.26h-2.912v.816h2.916v1.2h-2.364v4.168h.816v-3.348h1.548v4.308h.852v-4.308h1.656v2.448c0 .12-.036.156-.168.156s-.516.012-1.032 0a2.725 2.725 0 0 1 .264.78 3.707 3.707 0 0 0 1.392-.144c.3-.144.36-.372.36-.78v-3.276h-2.472v-1.2h2.892v-.816h-2.892zm4.6-1.452h-.84v6.6h.84zm1.284-.96v9.612c0 .2-.06.252-.252.264s-.876 0-1.584-.024a5.181 5.181 0 0 1 .288.936 5.9 5.9 0 0 0 1.92-.18c.36-.156.492-.42.492-1.008v-9.6zm14.012 1.872v-.816h-4.476v-1.176h-.912v1.176h-4.4v3.432c0 1.728-.084 4.152-1.068 5.856a3.449 3.449 0 0 1 .732.5c1.032-1.812 1.176-4.512 1.176-6.36v-2.612zm-2.88 2.076v1.264h-2.9v-1.26zm.864 1.98v-1.98h1.932v-.736h-1.932v-1.04h-.864v1.04h-2.9v-1.04h-.852v1.04h-1.908v.732h1.908v1.98zm-.192 1.484a5.515 5.515 0 0 1 -2.028 1.524 5.375 5.375 0 0 1 -1.944-1.524zm.744-.768-.156.036h-6.78v.732h1.848l-.48.18a6.038 6.038 0 0 0 1.884 1.72 16.278 16.278 0 0 1 -3.7.768 3.084 3.084 0 0 1 .372.744 16.253 16.253 0 0 0 4.228-1.032 13.688 13.688 0 0 0 3.948 1.056 2.646 2.646 0 0 1 .516-.756 15.259 15.259 0 0 1 -3.528-.756 5.927 5.927 0 0 0 2.412-2.388zm5.184-5.952a5.24 5.24 0 0 1 -.084.84 37.03 37.03 0 0 0 -.54 4.992 14.36 14.36 0 0 0 .456 3.768l.852-.072c-.012-.12-.036-.288-.036-.408a2.039 2.039 0 0 1 .06-.528 25.654 25.654 0 0 1 .84-2.628l-.5-.4c-.2.48-.48 1.188-.672 1.728a10.5 10.5 0 0 1 -.108-1.62 29.183 29.183 0 0 1 .588-4.788 5.629 5.629 0 0 1 .2-.8zm6.06 7.368c0 .792-.288 1.284-1.3 1.284-.852 0-1.428-.336-1.428-.924 0-.552.612-.948 1.5-.948a3.716 3.716 0 0 1 1.212.192c.016.148.016.292.016.4zm3.24.588a8.1 8.1 0 0 0 -2.34-1.548c-.048-1-.132-2.184-.144-3.372.708-.048 1.4-.12 2.052-.228v-.936a15.137 15.137 0 0 1 -2.052.276c.012-.552.024-1.1.036-1.428a6.732 6.732 0 0 1 .068-.7h-1.092a4.855 4.855 0 0 1 .06.72v1.476c-.372.012-.744.024-1.116.024a18.578 18.578 0 0 1 -2.016-.108v.912c.7.036 1.32.072 1.992.072.384 0 .756-.012 1.14-.024.012.984.084 2.124.12 3.036a5.3 5.3 0 0 0 -1.1-.108c-1.56 0-2.448.816-2.448 1.812 0 1.056.876 1.716 2.472 1.716a1.8 1.8 0 0 0 2.064-1.944v-.216a9.018 9.018 0 0 1 1.788 1.352zm2.148 1.264h5.532v-.948h-2.436c-.444 0-.984.048-1.44.084 2.064-1.956 3.444-3.744 3.444-5.5a2.413 2.413 0 0 0 -2.556-2.6 3.364 3.364 0 0 0 -2.592 1.3l.636.624a2.463 2.463 0 0 1 1.824-1.02 1.546 1.546 0 0 1 1.62 1.74c0 1.512-1.272 3.264-4.032 5.676zm10.428.156c1.668 0 2.736-1.524 2.736-4.584s-1.068-4.536-2.736-4.536-2.748 1.476-2.748 4.536 1.068 4.584 2.748 4.584zm0-.876c-1.008 0-1.68-1.116-1.68-3.708 0-2.568.672-3.648 1.68-3.648s1.668 1.08 1.668 3.648c0 2.592-.672 3.708-1.668 3.708zm5.344.72h4.824v-.912h-1.764v-7.888h-.84a5.573 5.573 0 0 1 -1.824.624v.7h1.56v6.564h-1.956zm10.176-.7c-1.1 0-1.764-1-1.9-2.82a2.293 2.293 0 0 1 1.8-1.128c1.068 0 1.584.756 1.584 1.944s-.648 2.004-1.488 2.004zm2.364-7.368a2.7 2.7 0 0 0 -2.052-.9c-1.7 0-3.252 1.32-3.252 4.764 0 2.9 1.248 4.356 2.94 4.356a2.641 2.641 0 0 0 2.52-2.856c0-1.836-.948-2.76-2.436-2.76a2.736 2.736 0 0 0 -2 1.068c.048-2.736 1.068-3.66 2.268-3.66a1.86 1.86 0 0 1 1.416.672zm5.112 5.376v-2.372h2.688v2.376zm7.932 0h-4.344v-2.372h3.516v-.836h-3.516v-1.828h3.792v-.864h-7.152c.192-.408.384-.84.552-1.26l-.9-.216a10.155 10.155 0 0 1 -2.7 4.14 5.522 5.522 0 0 1 .768.564 11.088 11.088 0 0 0 1.824-2.364h2.916v1.828h-3.58v3.216h-1.968v.864h5.544v2.744h.9v-2.748h4.344zm4.724 2.848a2.561 2.561 0 0 0 2.82-2.508 2.262 2.262 0 0 0 -1.872-2.232v-.048a2.193 2.193 0 0 0 1.572-2.124c0-1.416-1.08-2.208-2.556-2.208a3.522 3.522 0 0 0 -2.46 1.056l.588.7a2.745 2.745 0 0 1 1.824-.876 1.374 1.374 0 0 1 1.488 1.416c0 .948-.624 1.68-2.436 1.68v.84c2.028 0 2.736.708 2.736 1.764a1.62 1.62 0 0 1 -1.788 1.632 2.908 2.908 0 0 1 -2.184-1.008l-.552.72a3.641 3.641 0 0 0 2.82 1.196zm7.728-3.828a15.067 15.067 0 0 0 .132-2.016h5.484v2.016zm5.616-4.86v1.992h-5.484v-1.992zm.924-.876h-7.308v3.672c0 1.908-.192 4.344-2.1 6.024a3.377 3.377 0 0 1 .66.648 6.769 6.769 0 0 0 2.064-3.736h5.76v2.4c0 .264-.1.348-.372.36s-1.236.012-2.244-.024a3.778 3.778 0 0 1 .384.924 9.649 9.649 0 0 0 2.532-.16c.444-.144.624-.456.624-1.08zm8.748 7.776c0 .816-.42 1.224-1.3 1.224-1.14 0-1.8-.36-1.8-1.02s.7-1.068 1.92-1.068a5.4 5.4 0 0 1 1.164.12c.004.3.016.552.016.744zm.8-4.488c.972-.024 2.5-.1 3.552-.192l-.036-.912c-1.068.144-2.568.2-3.516.228 0-.468-.012-.888 0-1.212a10.349 10.349 0 0 1 .1-1.176h-1.152a8.711 8.711 0 0 1 .1 1.176c.012.5.012 1.488.012 2.172 0 .708.048 1.8.1 2.76a7.119 7.119 0 0 0 -1.008-.072c-2.052 0-2.988.888-2.988 1.956 0 1.356 1.212 1.884 2.844 1.884 1.584 0 2.184-.84 2.184-1.812 0-.216-.012-.48-.024-.792a8.3 8.3 0 0 1 3.084 1.956l.576-.888a9.429 9.429 0 0 0 -3.7-2.028c-.06-1.032-.12-2.184-.12-2.964zm9.348-3.348c-.012.288-.048.648-.1 1.02a31.177 31.177 0 0 0 -.36 3.84 14.54 14.54 0 0 0 .12 1.884l.936-.072a4.961 4.961 0 0 1 -.024-1.452c.144-1.56 1.512-3.708 2.988-3.708 1.26 0 1.884 1.344 1.884 3.216 0 2.988-2.016 4.02-4.6 4.416l.564.864c2.952-.54 5.028-1.992 5.028-5.292 0-2.5-1.14-4.08-2.724-4.08-1.5 0-2.748 1.476-3.216 2.7a22.027 22.027 0 0 1 .552-3.3zm19.428 2.768h-4.14v-.516h4.14zm0 1.008h-4.14v-.54h4.14zm0 1.02h-4.14v-.54h4.14zm-4.976-3.028v3.528h5.844v-3.528h-2.88l.216-.6h3.648v-.648h-2.04c.2-.264.444-.576.66-.912l-.84-.192a8.5 8.5 0 0 1 -.672 1.1h-2.016a4.017 4.017 0 0 0 -.672-1.08l-.72.18a4.59 4.59 0 0 1 .54.9h-2.016v.652h3.288c-.048.192-.1.408-.144.6zm-1.284-.612a7.688 7.688 0 0 0 -1.64-1.48l-.6.48a7.112 7.112 0 0 1 1.6 1.548zm-.6 7.332a7.835 7.835 0 0 1 1.752 1.424l.648-.564a9.322 9.322 0 0 0 -1.788-1.38zm6.16-1.96c.936 0 1.836-.024 2.46-.048a3.169 3.169 0 0 1 .24-.72c-1.524.084-4.62.12-6 .072a2.89 2.89 0 0 1 -2.448-1.032v-2.256h-2.4v.7h1.584v1.692a17.6 17.6 0 0 1 -1.656.96l.36.744c.636-.408 1.224-.8 1.812-1.212a3.454 3.454 0 0 0 2.76 1.08c.6.024 1.5.036 2.436.024v.732h-7.348v.7h7.344v1.456c0 .156-.048.2-.252.2s-.864.024-1.632 0a2.687 2.687 0 0 1 .3.756 7.154 7.154 0 0 0 1.968-.128c.372-.12.468-.348.468-.816v-1.476h2.616v-.7h-2.612zm6.924-6.372v.888h2.952c.024.456.072.984.156 1.536l-.532-.084c-.732 3.36-2.208 5.772-4.86 7.152a5.841 5.841 0 0 1 .8.708 10.608 10.608 0 0 0 4.788-6.7 10.356 10.356 0 0 0 4.772 6.688 4.24 4.24 0 0 1 .72-.744 10.271 10.271 0 0 1 -4.98-9.444z" transform="translate(-1.68 240.872)"/><path d="m-59.277-64.746h-37.207v-10.645h56.2l-47.558 77.979-9.033-5.713zm63.135 0h-37.208v-10.645h56.2l-47.557 77.979-9.033-5.713zm13.867 59.277a6.475 6.475 0 0 1 2-4.736 6.53 6.53 0 0 1 4.785-2 6.53 6.53 0 0 1 4.785 2 6.53 6.53 0 0 1 2 4.785 6.587 6.587 0 0 1 -2 4.834 6.507 6.507 0 0 1 -4.785 1.953 6.566 6.566 0 0 1 -4.832-1.953 6.625 6.625 0 0 1 -1.953-4.883zm71.533-15.576h8.008v10.352h-8.008v10.693h-11.377v-10.693h-37.012l48.389-70.313zm-11.377 0v-25.244l-17.381 25.244z" fill="#a21b43" transform="translate(111.32 195.226)"/><path d="m6.953-15.684a7.412 7.412 0 0 1 -3.32-6.387 8.224 8.224 0 0 1 2.519-6.129 8.708 8.708 0 0 1 6.309-2.461 8.551 8.551 0 0 1 6.25 2.461 8.239 8.239 0 0 1 2.5 6.152 7.583 7.583 0 0 1 -3.3 6.348 6.994 6.994 0 0 1 2.852 2.852 8.455 8.455 0 0 1 1.055 4.219 8.779 8.779 0 0 1 -2.618 6.559 9.183 9.183 0 0 1 -6.7 2.558 9.61 9.61 0 0 1 -6.895-2.578 8.536 8.536 0 0 1 -2.734-6.484q0-5.078 4.082-7.11zm.957-6.406a4.4 4.4 0 0 0 1.309 3.242 4.365 4.365 0 0 0 3.2 1.328 4.343 4.343 0 0 0 3.184-1.328 4.343 4.343 0 0 0 1.328-3.184 4.343 4.343 0 0 0 -1.328-3.184 4.343 4.343 0 0 0 -3.184-1.328 4.343 4.343 0 0 0 -3.184 1.328 4.276 4.276 0 0 0 -1.325 3.126zm-.566 13.36a5.005 5.005 0 0 0 1.445 3.593 4.808 4.808 0 0 0 3.555 1.484 4.817 4.817 0 0 0 3.535-1.465 4.882 4.882 0 0 0 1.465-3.555 4.84 4.84 0 0 0 -1.465-3.555 4.817 4.817 0 0 0 -3.535-1.465 4.859 4.859 0 0 0 -3.535 1.465 4.772 4.772 0 0 0 -1.465 3.498zm19.043-6.543q0-7.207 3.359-11.5a8.955 8.955 0 0 1 7.285-3.887 8.955 8.955 0 0 1 7.285 3.887q3.359 4.3 3.359 11.7 0 7.383-3.359 11.68a8.939 8.939 0 0 1 -7.265 3.881 9.042 9.042 0 0 1 -7.3-3.887q-3.364-4.301-3.364-11.874zm4.473.02a17.869 17.869 0 0 0 1.74 8.339q1.738 3.262 4.434 3.262 2.676 0 4.434-3.262a17.04 17.04 0 0 0 1.755-8.186 17.158 17.158 0 0 0 -1.758-8.2q-1.758-3.242-4.434-3.242-2.656 0-4.414 3.242a16.648 16.648 0 0 0 -1.758 8.046zm21.972 13.066a2.59 2.59 0 0 1 .8-1.895 2.612 2.612 0 0 1 1.914-.8 2.612 2.612 0 0 1 1.914.8 2.612 2.612 0 0 1 .8 1.914 2.635 2.635 0 0 1 -.8 1.934 2.6 2.6 0 0 1 -1.914.781 2.626 2.626 0 0 1 -1.934-.781 2.65 2.65 0 0 1 -.78-1.953zm10.586-13.086q0-7.207 3.359-11.5a8.955 8.955 0 0 1 7.285-3.887 8.955 8.955 0 0 1 7.285 3.887q3.359 4.3 3.359 11.7 0 7.383-3.359 11.68a8.939 8.939 0 0 1 -7.265 3.881 9.042 9.042 0 0 1 -7.3-3.887q-3.364-4.301-3.364-11.874zm4.473.02a17.869 17.869 0 0 0 1.738 8.34q1.738 3.262 4.434 3.262 2.676 0 4.434-3.262a17.04 17.04 0 0 0 1.757-8.187 17.158 17.158 0 0 0 -1.754-8.2q-1.758-3.242-4.434-3.242-2.656 0-4.414 3.242a16.648 16.648 0 0 0 -1.761 8.046z" fill="#a21b43" transform="translate(44.32 69.226)"/><path d="m-15.135-21.111a5.956 5.956 0 0 1 1.951-4.43 6.474 6.474 0 0 1 4.584-1.881 6.347 6.347 0 0 1 4.605 1.9 6.058 6.058 0 0 1 1.934 4.5 6.078 6.078 0 0 1 -1.929 4.516 6.44 6.44 0 0 1 -4.658 1.881 6.259 6.259 0 0 1 -4.588-1.916 6.268 6.268 0 0 1 -1.899-4.57zm3.059.053a3.4 3.4 0 0 0 1.02 2.5 3.374 3.374 0 0 0 2.479 1.02 3.333 3.333 0 0 0 2.443-1.02 3.353 3.353 0 0 0 1.02-2.461 3.333 3.333 0 0 0 -1.02-2.443 3.353 3.353 0 0 0 -2.466-1.024 3.353 3.353 0 0 0 -2.461 1.02 3.293 3.293 0 0 0 -1.015 2.407zm18.9-6.557 1.916 1.09-15.54 26.964-1.936-1.16zm-4.785 21.375a5.937 5.937 0 0 1 1.951-4.412 6.474 6.474 0 0 1 4.588-1.881 6.367 6.367 0 0 1 4.623 1.9 6.058 6.058 0 0 1 1.934 4.5 6.015 6.015 0 0 1 -1.951 4.518 6.433 6.433 0 0 1 -4.659 1.861 6.288 6.288 0 0 1 -4.588-1.9 6.251 6.251 0 0 1 -1.898-4.586zm3.076.07a3.425 3.425 0 0 0 1 2.5 3.374 3.374 0 0 0 2.485 1.016 3.3 3.3 0 0 0 2.443-1.02 3.353 3.353 0 0 0 1.02-2.461 3.353 3.353 0 0 0 -1.024-2.465 3.316 3.316 0 0 0 -2.461-1.02 3.333 3.333 0 0 0 -2.443 1.02 3.313 3.313 0 0 0 -1.02 2.43z" fill="#a21b43" transform="translate(265.32 180.226)"/><path d="m-6.727-9.383a2.647 2.647 0 0 1 .867-1.969 2.877 2.877 0 0 1 2.039-.836 2.821 2.821 0 0 1 2.047.844 2.692 2.692 0 0 1 .859 2 2.7 2.7 0 0 1 -.859 2.008 2.862 2.862 0 0 1 -2.07.836 2.782 2.782 0 0 1 -2.039-.852 2.786 2.786 0 0 1 -.844-2.031zm1.359.023a1.509 1.509 0 0 0 .454 1.11 1.5 1.5 0 0 0 1.1.453 1.481 1.481 0 0 0 1.087-.453 1.49 1.49 0 0 0 .453-1.094 1.481 1.481 0 0 0 -.453-1.086 1.49 1.49 0 0 0 -1.094-.453 1.49 1.49 0 0 0 -1.094.453 1.464 1.464 0 0 0 -.452 1.071zm8.4-2.914.852.484-6.907 11.99-.86-.52zm-2.126 9.501a2.639 2.639 0 0 1 .867-1.961 2.877 2.877 0 0 1 2.04-.836 2.83 2.83 0 0 1 2.055.844 2.692 2.692 0 0 1 .859 2 2.673 2.673 0 0 1 -.868 2.007 2.859 2.859 0 0 1 -2.07.828 2.8 2.8 0 0 1 -2.039-.843 2.778 2.778 0 0 1 -.844-2.039zm1.367.031a1.522 1.522 0 0 0 .445 1.109 1.5 1.5 0 0 0 1.1.453 1.465 1.465 0 0 0 1.086-.453 1.49 1.49 0 0 0 .453-1.094 1.49 1.49 0 0 0 -.451-1.093 1.474 1.474 0 0 0 -1.094-.453 1.481 1.481 0 0 0 -1.086.453 1.472 1.472 0 0 0 -.453 1.078z" fill="#a21b43" transform="translate(141.32 68.226)"/><path d="m-28.152 0h5.7v-1.176h-2.208c-.432 0-.984.036-1.44.084 1.872-1.788 3.228-3.552 3.228-5.256a2.5 2.5 0 0 0 -2.664-2.652 3.429 3.429 0 0 0 -2.688 1.32l.78.768a2.4 2.4 0 0 1 1.744-.988 1.434 1.434 0 0 1 1.5 1.62c0 1.452-1.344 3.168-3.948 5.472zm10.932.156c1.728 0 2.856-1.536 2.856-4.608 0-3.048-1.128-4.548-2.856-4.548s-2.856 1.488-2.856 4.548 1.128 4.608 2.856 4.608zm0-1.092c-.9 0-1.536-.96-1.536-3.516 0-2.532.636-3.456 1.536-3.456s1.536.924 1.536 3.456c0 2.552-.636 3.516-1.536 3.516zm5.652.936h5.04v-1.14h-1.728v-7.7h-1.044a5.194 5.194 0 0 1 -1.92.684v.876h1.584v6.14h-1.932zm8.808-6.1c0-1.152.6-1.836 1.356-1.836.96 0 1.62.792 1.752 2.532a2.1 2.1 0 0 1 -1.68 1.08c-.924.004-1.428-.644-1.428-1.776zm1.116 6.256c1.7 0 3.288-1.392 3.288-4.872 0-2.928-1.368-4.284-3.06-4.284a2.7 2.7 0 0 0 -2.628 2.9c0 1.848 1 2.772 2.472 2.772a2.655 2.655 0 0 0 1.944-1.028c-.084 2.52-1.008 3.384-2.072 3.384a1.963 1.963 0 0 1 -1.44-.66l-.76.852a3.031 3.031 0 0 0 2.256.936zm8.76-2.94v-2.124h2.412v2.124zm7.776 0h-4.212v-2.124h3.348v-1.044h-3.348v-1.656h3.62v-1.08h-6.944c.156-.36.324-.756.468-1.128l-1.128-.3a9.709 9.709 0 0 1 -2.616 4.068 8.874 8.874 0 0 1 .972.72 10.917 10.917 0 0 0 1.728-2.28h2.748v1.656h-3.528v3.168h-1.932v1.084h5.46v2.648h1.152v-2.648h4.212zm4.308-5.16h8.784v-1h-4.368v-1.128h-1.164v1.132h-4.32v3.384c0 1.74-.084 4.176-1.056 5.88a5.051 5.051 0 0 1 .912.612c1.044-1.824 1.212-4.608 1.212-6.492zm5.772 2.112v1.056h-2.592v-1.056zm1.092 1.92v-1.92h1.836v-.912h-1.836v-.912h-1.092v.912h-2.592v-.912h-1.056v.912h-1.776v.912h1.776v1.92zm-.5 1.524a5.531 5.531 0 0 1 -1.776 1.3 5.162 5.162 0 0 1 -1.74-1.3zm.936-.936-.2.036h-6.62v.9h1.836l-.54.2a6.388 6.388 0 0 0 1.656 1.552 16.731 16.731 0 0 1 -3.432.66 3.421 3.421 0 0 1 .468.936 15.753 15.753 0 0 0 4.08-.984 13.58 13.58 0 0 0 3.8 1 3.974 3.974 0 0 1 .652-.964 15.778 15.778 0 0 1 -3.252-.636 5.788 5.788 0 0 0 2.232-2.328z" fill="#a21b43" transform="translate(252.32 196.872)"/><path d="m.528 0h5.7v-1.176h-2.208c-.432 0-.984.036-1.44.084 1.872-1.788 3.228-3.552 3.228-5.256a2.5 2.5 0 0 0 -2.664-2.652 3.429 3.429 0 0 0 -2.688 1.32l.78.768a2.4 2.4 0 0 1 1.74-.988 1.434 1.434 0 0 1 1.5 1.62c0 1.456-1.344 3.172-3.948 5.48zm10.932.156c1.728 0 2.856-1.536 2.856-4.608 0-3.048-1.128-4.548-2.856-4.548s-2.86 1.488-2.86 4.548 1.132 4.608 2.86 4.608zm0-1.092c-.9 0-1.536-.96-1.536-3.516 0-2.532.636-3.456 1.536-3.456s1.54.924 1.54 3.456c0 2.552-.64 3.516-1.54 3.516zm5.148.936h5.7v-1.176h-2.208c-.432 0-.984.036-1.44.084 1.872-1.788 3.228-3.552 3.228-5.256a2.5 2.5 0 0 0 -2.664-2.652 3.429 3.429 0 0 0 -2.688 1.32l.78.768a2.4 2.4 0 0 1 1.74-.984 1.434 1.434 0 0 1 1.5 1.62c0 1.452-1.344 3.168-3.948 5.472zm10.728.156c1.62 0 2.952-.936 2.952-2.532a2.236 2.236 0 0 0 -1.824-2.208v-.06a2.135 2.135 0 0 0 1.524-2.076c0-1.452-1.116-2.28-2.7-2.28a3.722 3.722 0 0 0 -2.532 1.068l.72.864a2.572 2.572 0 0 1 1.764-.832 1.227 1.227 0 0 1 1.36 1.276c0 .888-.576 1.548-2.316 1.548v1.02c1.992 0 2.616.636 2.616 1.608a1.485 1.485 0 0 1 -1.68 1.476 2.854 2.854 0 0 1 -2.088-.972l-.672.888a3.666 3.666 0 0 0 2.876 1.212zm-23.7 15.06v-2.124h2.412v2.124zm7.776 0h-4.212v-2.124h3.348v-1.044h-3.348v-1.656h3.624v-1.08h-6.948c.156-.36.324-.756.468-1.128l-1.128-.3a9.709 9.709 0 0 1 -2.616 4.068 8.874 8.874 0 0 1 .972.72 10.917 10.917 0 0 0 1.728-2.28h2.748v1.656h-3.528v3.168h-1.932v1.084h5.46v2.652h1.152v-2.652h4.212zm4.308-5.16h8.78v-1h-4.364v-1.124h-1.164v1.128h-4.32v3.384c0 1.74-.084 4.176-1.056 5.88a5.051 5.051 0 0 1 .912.612c1.044-1.824 1.212-4.608 1.212-6.492zm5.772 2.112v1.056h-2.592v-1.056zm1.092 1.92v-1.92h1.836v-.912h-1.836v-.912h-1.092v.912h-2.592v-.912h-1.056v.912h-1.776v.912h1.776v1.92zm-.5 1.524a5.531 5.531 0 0 1 -1.776 1.3 5.162 5.162 0 0 1 -1.74-1.3zm.936-.936-.2.036h-6.62v.9h1.836l-.54.2a6.388 6.388 0 0 0 1.656 1.548 16.731 16.731 0 0 1 -3.432.66 3.421 3.421 0 0 1 .468.936 15.753 15.753 0 0 0 4.08-.984 13.58 13.58 0 0 0 3.8 1 3.974 3.974 0 0 1 .648-.96 15.778 15.778 0 0 1 -3.252-.636 5.788 5.788 0 0 0 2.236-2.328z" fill="#a21b43" transform="translate(9.32 49.872)"/><path d="m9.82 85.726h139" fill="none" stroke="#a21b43"/><g fill="#a21b43"><path d="m192.32 64.712h10.775v5.029h-10.775z"/><path d="m261.548 64.712h10.772v5.029h-10.772z"/><path d="m26.248 340.972 2.515 4.357 9.33-5.387-2.514-4.356z" transform="translate(170.173 -255.925)"/><path d="m421.792 118.413-2.515-4.356-9.33 5.387 2.514 4.356z" transform="translate(-153.573 -69.01)"/><path d="m114.065 419.277 4.356 2.515 5.387-9.33-4.356-2.514z" transform="translate(96.078 -318.667)"/><path d="m345.339 28.763-4.359-2.515-5.385 9.33 4.356 2.514z" transform="translate(-90.839 5.079)"/><path d="m229.807 96.453h5.029v10.773h-5.029z"/><path d="m229.807 27.226h5.029v10.773h-5.029z"/><path d="m335.6 412.461 5.385 9.33 4.359-2.515-5.387-9.33z" transform="translate(-90.839 -318.667)"/><path d="m123.808 35.578-5.387-9.33-4.356 2.515 5.387 9.33z" transform="translate(96.078 5.079)"/><path d="m409.947 339.942 9.33 5.387 2.515-4.357-9.33-5.386z" transform="translate(-153.573 -255.925)"/><path d="m38.093 119.444-9.33-5.387-2.515 4.356 9.33 5.387z" transform="translate(170.173 -69.01)"/><path d="m124.322 99.926a24.387 24.387 0 1 0 24.387 24.387 24.386 24.386 0 0 0 -24.387-24.387z" transform="translate(108 -57.086)"/></g></svg>