<svg height="250" viewBox="0 0 250 250" width="250" xmlns="http://www.w3.org/2000/svg"><path d="m0 0h50v50h-50z" fill="#e76d2b" transform="matrix(0 1 -1 0 50 200)"/><path d="m0 0h50v50h-50z" fill="#47763e" transform="matrix(0 1 -1 0 100 150)"/><path d="m0 0h50v50h-50z" fill="#a21b43" transform="matrix(0 1 -1 0 150 200)"/><path d="m0 0h50v50h-50z" fill="#1778b1" transform="matrix(0 1 -1 0 200 150)"/><path d="m0 0h50v50h-50z" fill="#f1b024" transform="matrix(0 1 -1 0 250 200)"/><path d="m0 0h50v50h-50z" fill="#a21b43" transform="matrix(0 1 -1 0 100 50)"/><path d="m0 0h50v50h-50z" fill="#f1b024" transform="matrix(0 1 -1 0 50 0)"/><path d="m0 0h50v50h-50z" fill="#1778b1" transform="matrix(0 1 -1 0 50 100)"/></svg>