<svg xmlns="http://www.w3.org/2000/svg" width="339.136" height="122.78" viewBox="0 0 339.136 122.78">
  <path id="Diversity" d="M108.407,17.648,119.551,55h9.856l7.168-21.616L143.351,55h9.912l11.928-37.352H155.055L148,41.784l-7.336-24.136h-7.728l-7.9,24.136-6.5-24.136Zm83.72,19.1a6.165,6.165,0,0,1,3.976,1.624,6.08,6.08,0,0,1,1.736,4.088,5.523,5.523,0,0,1-1.736,3.976,5.611,5.611,0,0,1-8.008,0,5.55,5.55,0,0,1,0-8.064A6.192,6.192,0,0,1,192.127,36.744Zm15.008,5.712a12.373,12.373,0,0,0-3.864-9.184,15.813,15.813,0,0,0-11.2-4.144,15.63,15.63,0,0,0-11.144,4.144,12.913,12.913,0,0,0,0,18.424c3.472,3.416,7.5,4.144,11.144,4.144,4.032,0,7.9-.9,11.2-4.144A12.492,12.492,0,0,0,207.135,42.456ZM223.487,55h8.96V44.3c0-1.344.112-3.976,2.016-5.712a5.871,5.871,0,0,1,4.088-1.344,7.9,7.9,0,0,1,3.864.9V29.688c-1.176-.056-1.568-.112-1.792-.112a9.773,9.773,0,0,0-4.648,1.008,8.076,8.076,0,0,0-3.528,3.472V29.968h-8.96Zm34.1-40.824V55h8.96V44.752L275.679,55h12.432L275.343,41.5l11.816-11.536H275.007l-8.456,9.016V14.176Zm69.944,3.472V55h21.336V46.768H337.223V17.648Zm36.68,12.32V55h8.96V29.968Zm-.56-10.416a5.04,5.04,0,1,0,5.04-5.04A5.019,5.019,0,0,0,363.655,19.552ZM406.383,37.3V29.968h-6.272V26.44c0-1.232.056-3.136,1.008-4.2a3.222,3.222,0,0,1,2.52-.952,5.622,5.622,0,0,1,2.8.84V14.4a11.373,11.373,0,0,0-4.312-.84,10.418,10.418,0,0,0-8.68,3.976,12.875,12.875,0,0,0-2.3,8.232v4.2h-3.136V37.3h3.136V55h8.96V37.3Zm41.16,5.88c0-2.8-.448-7.168-3.976-10.528a13.713,13.713,0,0,0-9.632-3.416c-4.928,0-8.176,1.624-10.248,3.64a13.36,13.36,0,0,0-3.752,9.688,13.11,13.11,0,0,0,3.7,9.464,14.2,14.2,0,0,0,10.36,3.808c5.432,0,8.344-1.68,10.192-3.472a11.252,11.252,0,0,0,3.024-5.152h-8.568a4.169,4.169,0,0,1-1.568,1.68,7.07,7.07,0,0,1-2.912.672,5.034,5.034,0,0,1-3.7-1.232,6.323,6.323,0,0,1-1.568-4.2h18.648Zm-18.368-4.2a5.11,5.11,0,0,1,1.344-2.688,4.815,4.815,0,0,1,3.64-1.344,5.22,5.22,0,0,1,3.7,1.344,6.006,6.006,0,0,1,1.456,2.688ZM161.327,135.5c4.592,0,8.12-1.456,10.136-3.528a10.138,10.138,0,0,0,2.744-7.336,9.4,9.4,0,0,0-2.52-6.832,9.287,9.287,0,0,0-5.1-2.24,5.881,5.881,0,0,0,3.024-2.912,9.681,9.681,0,0,0,1.064-4.592,10.1,10.1,0,0,0-2.3-7c-2.3-2.52-5.488-2.912-8.176-2.912H145.759V135.5Zm-5.88-29.9h1.792a5.142,5.142,0,0,1,3.7,1.12,3.84,3.84,0,0,1,.9,2.52,3.619,3.619,0,0,1-.9,2.464,5.118,5.118,0,0,1-3.7,1.176h-1.792Zm0,14.5h2.016c2.408,0,4.816.056,5.992,1.232a3.8,3.8,0,0,1,.952,2.688,3.634,3.634,0,0,1-.784,2.408c-1.064,1.232-3.3,1.512-5.992,1.512h-2.184Zm54.656-7.224a9.906,9.906,0,0,0-7.5-3.248,12.885,12.885,0,0,0-9.016,3.528,13.849,13.849,0,0,0-3.864,10.024,12.628,12.628,0,0,0,3.584,9.184,11.987,11.987,0,0,0,9.016,3.976,9.35,9.35,0,0,0,7.784-3.584V135.5h8.96V110.468H210.1Zm-5.488,4.368a5.736,5.736,0,0,1,4.032,1.624,5.537,5.537,0,0,1,1.736,4.088,5.435,5.435,0,0,1-1.68,4.032,5.745,5.745,0,0,1-4.032,1.736,6.291,6.291,0,0,1-4.032-1.68,5.774,5.774,0,0,1-1.736-4.088,5.857,5.857,0,0,1,1.792-4.088A5.726,5.726,0,0,1,204.615,117.244Zm31.808-22.568V135.5h8.96V94.676Zm45.64,18.2a9.906,9.906,0,0,0-7.5-3.248,12.885,12.885,0,0,0-9.016,3.528,13.849,13.849,0,0,0-3.864,10.024,12.628,12.628,0,0,0,3.584,9.184,11.987,11.987,0,0,0,9.016,3.976,9.35,9.35,0,0,0,7.784-3.584V135.5h8.96V110.468h-8.96Zm-5.488,4.368a5.736,5.736,0,0,1,4.032,1.624,5.537,5.537,0,0,1,1.736,4.088,5.435,5.435,0,0,1-1.68,4.032,5.745,5.745,0,0,1-4.032,1.736,6.291,6.291,0,0,1-4.032-1.68,5.774,5.774,0,0,1-1.736-4.088,5.857,5.857,0,0,1,1.792-4.088A5.726,5.726,0,0,1,276.575,117.244ZM308.383,135.5h8.96V122.06a5.757,5.757,0,0,1,1.456-3.976,4.9,4.9,0,0,1,3.3-1.176,3.751,3.751,0,0,1,2.856,1.064c1.176,1.232,1.12,3.416,1.12,4.872V135.5h8.96V119.6c0-2.744-.224-4.872-2.352-7a10.123,10.123,0,0,0-7.392-2.688,9.441,9.441,0,0,0-7.952,3.7v-3.136h-8.96Zm62.888-8.064a6.777,6.777,0,0,1-4.592,1.68,6.081,6.081,0,0,1-4.592-1.9,6.429,6.429,0,0,1-1.568-4.2,6.093,6.093,0,0,1,1.736-4.312,5.872,5.872,0,0,1,4.368-1.736,7.986,7.986,0,0,1,4.648,1.624v-7.5a12.844,12.844,0,0,0-5.824-1.4,14.438,14.438,0,0,0-10.08,3.808,13.632,13.632,0,0,0-4.032,9.688,13.1,13.1,0,0,0,3.864,9.352,13.825,13.825,0,0,0,9.856,3.808,13.29,13.29,0,0,0,6.216-1.4Zm42.84-3.752c0-2.8-.448-7.168-3.976-10.528a13.713,13.713,0,0,0-9.632-3.416c-4.928,0-8.176,1.624-10.248,3.64a13.36,13.36,0,0,0-3.752,9.688,13.11,13.11,0,0,0,3.7,9.464,14.2,14.2,0,0,0,10.36,3.808c5.432,0,8.344-1.68,10.192-3.472a11.252,11.252,0,0,0,3.024-5.152h-8.568a4.169,4.169,0,0,1-1.568,1.68,7.07,7.07,0,0,1-2.912.672,5.034,5.034,0,0,1-3.7-1.232,6.323,6.323,0,0,1-1.568-4.2h18.648Zm-18.368-4.2a5.109,5.109,0,0,1,1.344-2.688,4.815,4.815,0,0,1,3.64-1.344,5.22,5.22,0,0,1,3.7,1.344,6.006,6.006,0,0,1,1.456,2.688Z" transform="translate(-108.407 -13.56)" fill="#fff"/>
</svg>
