<svg xmlns="http://www.w3.org/2000/svg" width="271.626" height="25.296" viewBox="0 0 271.626 25.296">
  <path id="Banner_Link" data-name="Banner&amp;Link" d="M132.823,33a8.519,8.519,0,0,0,6.154-2.142,6.155,6.155,0,0,0,1.666-4.454,5.7,5.7,0,0,0-1.53-4.148,5.639,5.639,0,0,0-3.094-1.36,3.571,3.571,0,0,0,1.836-1.768,5.878,5.878,0,0,0,.646-2.788,6.135,6.135,0,0,0-1.394-4.25,6.36,6.36,0,0,0-4.964-1.768h-8.772V33Zm-3.57-18.156h1.088a3.122,3.122,0,0,1,2.244.68,2.331,2.331,0,0,1,.544,1.53,2.2,2.2,0,0,1-.544,1.5,3.107,3.107,0,0,1-2.244.714h-1.088Zm0,8.806h1.224c1.462,0,2.924.034,3.638.748a2.3,2.3,0,0,1,.578,1.632,2.206,2.206,0,0,1-.476,1.462c-.646.748-2.006.918-3.638.918h-1.326Zm33.184-4.386a6.014,6.014,0,0,0-4.556-1.972,7.823,7.823,0,0,0-5.474,2.142,8.408,8.408,0,0,0-2.346,6.086,7.667,7.667,0,0,0,2.176,5.576,7.278,7.278,0,0,0,5.474,2.414,5.677,5.677,0,0,0,4.726-2.176V33h5.44V17.8h-5.44Zm-3.332,2.652a3.483,3.483,0,0,1,2.448.986,3.361,3.361,0,0,1,1.054,2.482,3.3,3.3,0,0,1-1.02,2.448,3.488,3.488,0,0,1-2.448,1.054,3.82,3.82,0,0,1-2.448-1.02,3.506,3.506,0,0,1-1.054-2.482,3.556,3.556,0,0,1,1.088-2.482A3.476,3.476,0,0,1,159.105,21.916ZM178.417,33h5.44V24.84a3.5,3.5,0,0,1,.884-2.414,2.977,2.977,0,0,1,2.006-.714,2.278,2.278,0,0,1,1.734.646c.714.748.68,2.074.68,2.958V33h5.44V23.344a5.238,5.238,0,0,0-1.428-4.25,6.146,6.146,0,0,0-4.488-1.632,5.732,5.732,0,0,0-4.828,2.244V17.8h-5.44Zm26.69,0h5.44V24.84a3.5,3.5,0,0,1,.884-2.414,2.977,2.977,0,0,1,2.006-.714,2.278,2.278,0,0,1,1.734.646c.714.748.68,2.074.68,2.958V33h5.44V23.344a5.238,5.238,0,0,0-1.428-4.25,6.146,6.146,0,0,0-4.488-1.632,5.732,5.732,0,0,0-4.828,2.244V17.8h-5.44Zm42.806-7.174a8.509,8.509,0,0,0-2.414-6.392,8.326,8.326,0,0,0-5.848-2.074,8.557,8.557,0,0,0-6.222,2.21,8.111,8.111,0,0,0-2.278,5.882A7.96,7.96,0,0,0,233.4,31.2a8.619,8.619,0,0,0,6.29,2.312c3.3,0,5.066-1.02,6.188-2.108a6.832,6.832,0,0,0,1.836-3.128h-5.2a2.532,2.532,0,0,1-.952,1.02,4.292,4.292,0,0,1-1.768.408,3.056,3.056,0,0,1-2.244-.748,3.839,3.839,0,0,1-.952-2.55h11.322Zm-11.152-2.55a3.1,3.1,0,0,1,.816-1.632,2.923,2.923,0,0,1,2.21-.816,3.169,3.169,0,0,1,2.244.816,3.647,3.647,0,0,1,.884,1.632ZM257.841,33h5.44V26.506a4.586,4.586,0,0,1,1.224-3.468,3.564,3.564,0,0,1,2.482-.816,4.8,4.8,0,0,1,2.346.544V17.632c-.714-.034-.952-.068-1.088-.068a5.934,5.934,0,0,0-2.822.612,4.9,4.9,0,0,0-2.142,2.108V17.8h-5.44Zm39.236-11.9a27.6,27.6,0,0,1-2.958,3.23l-2.856-2.992a8.426,8.426,0,0,0,2.652-1.768,4.946,4.946,0,0,0,1.564-3.638,6.043,6.043,0,0,0-1.8-4.25,8.23,8.23,0,0,0-10.608.136,6.109,6.109,0,0,0-1.734,4.148,5.052,5.052,0,0,0,.782,2.788,14.5,14.5,0,0,0,1.326,1.8,10.158,10.158,0,0,0-3.706,2.21,5.986,5.986,0,0,0-1.7,4.352,6.129,6.129,0,0,0,1.836,4.488,7.741,7.741,0,0,0,5.576,1.9,12.727,12.727,0,0,0,7.616-2.584L295.037,33h7.344l-5.066-5.372a28.049,28.049,0,0,0,3.094-3.3Zm-7.242,6.256a5.683,5.683,0,0,1-3.094.986A2.885,2.885,0,0,1,284.8,27.7a2.047,2.047,0,0,1-.68-1.53c0-1.564,1.9-2.516,2.142-2.652Zm-2.924-11.662a1.768,1.768,0,0,1,.612-1.394,1.85,1.85,0,0,1,1.292-.476,1.923,1.923,0,0,1,1.972,2.074,2.533,2.533,0,0,1-.714,1.666,6.178,6.178,0,0,1-1.36,1.02,11.745,11.745,0,0,1-1.19-1.36A2.768,2.768,0,0,1,286.911,15.694Zm24.65-5.372V33h12.954V28h-7.072V10.322Zm22.27,7.48V33h5.44V17.8Zm-.34-6.324a3.06,3.06,0,1,0,3.06-3.06A3.047,3.047,0,0,0,333.491,11.478ZM349.777,33h5.44V24.84a3.5,3.5,0,0,1,.884-2.414,2.977,2.977,0,0,1,2.006-.714,2.278,2.278,0,0,1,1.734.646c.714.748.68,2.074.68,2.958V33h5.44V23.344a5.238,5.238,0,0,0-1.428-4.25,6.146,6.146,0,0,0-4.488-1.632,5.732,5.732,0,0,0-4.828,2.244V17.8h-5.44Zm26.69-24.786V33h5.44V26.778L387.449,33H395l-7.752-8.194,7.174-7h-7.378l-5.134,5.474V8.214Z" transform="translate(-123.371 -8.214)"/>
</svg>
