<svg xmlns="http://www.w3.org/2000/svg" width="449.288" height="41.328" viewBox="0 0 449.288 41.328">
  <path id="Diversity" d="M32.611,17.648,43.755,55h9.856l7.168-21.616L67.555,55h9.912L89.4,17.648H79.259L72.2,41.784,64.867,17.648H57.139l-7.9,24.136-6.5-24.136Zm83.72,19.1a6.165,6.165,0,0,1,3.976,1.624,6.08,6.08,0,0,1,1.736,4.088,5.523,5.523,0,0,1-1.736,3.976,5.611,5.611,0,0,1-8.008,0,5.55,5.55,0,0,1,0-8.064A6.192,6.192,0,0,1,116.331,36.744Zm15.008,5.712a12.373,12.373,0,0,0-3.864-9.184,15.813,15.813,0,0,0-11.2-4.144,15.63,15.63,0,0,0-11.144,4.144,12.913,12.913,0,0,0,0,18.424c3.472,3.416,7.5,4.144,11.144,4.144,4.032,0,7.9-.9,11.2-4.144A12.492,12.492,0,0,0,131.339,42.456ZM147.691,55h8.96V42.624c0-1.568,0-3.976,1.568-5.488a3.154,3.154,0,0,1,2.464-.9,3.474,3.474,0,0,1,2.688,1.008c1.008,1.064,1.176,2.968,1.176,5.376V55h8.96V42.176a6.4,6.4,0,0,1,1.624-4.76,3.626,3.626,0,0,1,2.632-1.008,3.268,3.268,0,0,1,2.352.84c1.008.952,1.288,2.744,1.288,5.376V55h8.96V38.7c0-1.736-.112-4.7-2.352-6.888-2.072-2.016-5.1-2.3-6.944-2.3a10.152,10.152,0,0,0-5.208,1.232,8.8,8.8,0,0,0-3.416,3.472,7.819,7.819,0,0,0-3.472-3.584,10.19,10.19,0,0,0-4.816-1.12,9.616,9.616,0,0,0-7.5,3.472V29.968h-8.96Zm86.632-11.816c0-2.8-.448-7.168-3.976-10.528a13.713,13.713,0,0,0-9.632-3.416c-4.928,0-8.176,1.624-10.248,3.64a13.36,13.36,0,0,0-3.752,9.688,13.11,13.11,0,0,0,3.7,9.464,14.2,14.2,0,0,0,10.36,3.808c5.432,0,8.344-1.68,10.192-3.472a11.252,11.252,0,0,0,3.024-5.152h-8.568a4.169,4.169,0,0,1-1.568,1.68,7.07,7.07,0,0,1-2.912.672,5.034,5.034,0,0,1-3.7-1.232,6.323,6.323,0,0,1-1.568-4.2h18.648Zm-18.368-4.2A5.109,5.109,0,0,1,217.3,36.3a4.815,4.815,0,0,1,3.64-1.344,5.22,5.22,0,0,1,3.7,1.344,6.006,6.006,0,0,1,1.456,2.688ZM250.675,55h8.96V41.56a5.757,5.757,0,0,1,1.456-3.976,4.9,4.9,0,0,1,3.3-1.176,3.751,3.751,0,0,1,2.856,1.064c1.176,1.232,1.12,3.416,1.12,4.872V55h8.96V39.1c0-2.744-.224-4.872-2.352-7a10.123,10.123,0,0,0-7.392-2.688,9.441,9.441,0,0,0-7.952,3.7V29.968h-8.96Zm58.016-18.256a6.165,6.165,0,0,1,3.976,1.624,6.08,6.08,0,0,1,1.736,4.088,5.523,5.523,0,0,1-1.736,3.976,5.611,5.611,0,0,1-8.008,0,5.55,5.55,0,0,1,0-8.064A6.192,6.192,0,0,1,308.691,36.744ZM323.7,42.456a12.373,12.373,0,0,0-3.864-9.184,15.813,15.813,0,0,0-11.2-4.144,15.63,15.63,0,0,0-11.144,4.144,12.913,12.913,0,0,0,0,18.424c3.472,3.416,7.5,4.144,11.144,4.144,4.032,0,7.9-.9,11.2-4.144A12.492,12.492,0,0,0,323.7,42.456ZM340.051,55h8.96V42.624c0-1.568,0-3.976,1.568-5.488a3.154,3.154,0,0,1,2.464-.9,3.474,3.474,0,0,1,2.688,1.008c1.008,1.064,1.176,2.968,1.176,5.376V55h8.96V42.176a6.4,6.4,0,0,1,1.624-4.76,3.626,3.626,0,0,1,2.632-1.008,3.268,3.268,0,0,1,2.352.84c1.008.952,1.288,2.744,1.288,5.376V55h8.96V38.7c0-1.736-.112-4.7-2.352-6.888-2.072-2.016-5.1-2.3-6.944-2.3a10.153,10.153,0,0,0-5.208,1.232,8.8,8.8,0,0,0-3.416,3.472,7.819,7.819,0,0,0-3.472-3.584,10.189,10.189,0,0,0-4.816-1.12,9.616,9.616,0,0,0-7.5,3.472V29.968h-8.96Zm60.088-25.032V55h8.96V29.968Zm-.56-10.416a5.04,5.04,0,1,0,5.04-5.04A5.019,5.019,0,0,0,399.579,19.552Zm45.752,27.384a6.777,6.777,0,0,1-4.592,1.68,6.081,6.081,0,0,1-4.592-1.9,6.429,6.429,0,0,1-1.568-4.2,6.093,6.093,0,0,1,1.736-4.312,5.872,5.872,0,0,1,4.368-1.736,7.986,7.986,0,0,1,4.648,1.624v-7.5a12.844,12.844,0,0,0-5.824-1.4,14.438,14.438,0,0,0-10.08,3.808A13.632,13.632,0,0,0,425.4,42.68a13.1,13.1,0,0,0,3.864,9.352,13.825,13.825,0,0,0,9.856,3.808,13.29,13.29,0,0,0,6.216-1.4Zm14.728,5.992a18.468,18.468,0,0,0,10.08,2.912c2.072,0,6.328-.224,9.24-3.136a8.366,8.366,0,0,0,2.52-6.216A7.079,7.079,0,0,0,480,41.5a10.578,10.578,0,0,0-3.7-1.96l-1.624-.448c-1.4-.392-2.128-.392-2.968-.728a1.458,1.458,0,0,1-1.064-1.4,1.343,1.343,0,0,1,.784-1.232,3.783,3.783,0,0,1,2.072-.5,12.4,12.4,0,0,1,4.7,1.232l3.024-5.712a20.66,20.66,0,0,0-8.008-1.624c-3.7,0-7.056,1.064-8.96,3.024a8.945,8.945,0,0,0-2.352,6.1,6.055,6.055,0,0,0,1.624,4.312,8.054,8.054,0,0,0,4.368,2.184l2.352.56a5.588,5.588,0,0,1,2.352.9,1.329,1.329,0,0,1,.448,1.12A1.436,1.436,0,0,1,472.6,48.5a3.8,3.8,0,0,1-2.3.672,11.661,11.661,0,0,1-3.472-.616,12.82,12.82,0,0,1-3.584-1.848Z" transform="translate(-32.611 -14.512)" fill="#fff"/>
</svg>
