<svg xmlns="http://www.w3.org/2000/svg" width="318.472" height="53.312" viewBox="0 0 318.472 53.312">
  <path id="Diversity" d="M114.287,55a20.285,20.285,0,0,0,14.336-5.656c3.64-3.64,4.872-8.008,4.872-12.936,0-4.032-.84-9.408-5.208-13.608-4.816-4.648-11.088-5.152-14.84-5.152H100.735V55Zm-3.864-29.12h2.352c2.408,0,5.432.224,7.728,2.352,1.848,1.736,2.912,4.7,2.912,8.176,0,4.144-1.624,6.5-2.856,7.672-2.52,2.464-5.824,2.688-8.176,2.688h-1.96Zm39.592,4.088V55h8.96V29.968Zm-.56-10.416a5.04,5.04,0,1,0,5.04-5.04A5.019,5.019,0,0,0,149.455,19.552ZM173.2,29.968,186.135,55h6.1l13.048-25.032h-9.968l-6.1,12.824-5.992-12.824Zm71.512,13.216c0-2.8-.448-7.168-3.976-10.528A13.713,13.713,0,0,0,231.1,29.24c-4.928,0-8.176,1.624-10.248,3.64a13.36,13.36,0,0,0-3.752,9.688,13.11,13.11,0,0,0,3.7,9.464,14.2,14.2,0,0,0,10.36,3.808c5.432,0,8.344-1.68,10.192-3.472a11.252,11.252,0,0,0,3.024-5.152h-8.568a4.169,4.169,0,0,1-1.568,1.68,7.07,7.07,0,0,1-2.912.672,5.034,5.034,0,0,1-3.7-1.232,6.323,6.323,0,0,1-1.568-4.2h18.648Zm-18.368-4.2a5.109,5.109,0,0,1,1.344-2.688,4.815,4.815,0,0,1,3.64-1.344,5.22,5.22,0,0,1,3.7,1.344,6.006,6.006,0,0,1,1.456,2.688ZM261.063,55h8.96V44.3c0-1.344.112-3.976,2.016-5.712a5.871,5.871,0,0,1,4.088-1.344,7.9,7.9,0,0,1,3.864.9V29.688c-1.176-.056-1.568-.112-1.792-.112a9.773,9.773,0,0,0-4.648,1.008,8.076,8.076,0,0,0-3.528,3.472V29.968h-8.96ZM293.6,52.928a18.468,18.468,0,0,0,10.08,2.912c2.072,0,6.328-.224,9.24-3.136a8.366,8.366,0,0,0,2.52-6.216,7.079,7.079,0,0,0-1.9-4.984,10.578,10.578,0,0,0-3.7-1.96l-1.624-.448c-1.4-.392-2.128-.392-2.968-.728a1.458,1.458,0,0,1-1.064-1.4,1.343,1.343,0,0,1,.784-1.232,3.783,3.783,0,0,1,2.072-.5,12.4,12.4,0,0,1,4.7,1.232l3.024-5.712a20.66,20.66,0,0,0-8.008-1.624c-3.7,0-7.056,1.064-8.96,3.024a8.945,8.945,0,0,0-2.352,6.1,6.055,6.055,0,0,0,1.624,4.312,8.054,8.054,0,0,0,4.368,2.184l2.352.56a5.588,5.588,0,0,1,2.352.9,1.329,1.329,0,0,1,.448,1.12,1.436,1.436,0,0,1-.448,1.176,3.8,3.8,0,0,1-2.3.672,11.661,11.661,0,0,1-3.472-.616,12.82,12.82,0,0,1-3.584-1.848Zm37.632-22.96V55h8.96V29.968Zm-.56-10.416a5.04,5.04,0,1,0,5.04-5.04A5.019,5.019,0,0,0,330.671,19.552ZM372.5,37.3V29.968h-5.1V21.736h-8.96v8.232h-2.856V37.3h2.856V55h8.96V37.3Zm16.576,30.52H399.1l20.1-37.856H408.959l-6.5,12.824L395.8,29.968H385.383l12.1,21.616Z" transform="translate(-100.735 -14.512)" fill="#fff"/>
</svg>
