<svg xmlns="http://www.w3.org/2000/svg" width="41.664" height="311.976" viewBox="0 0 41.664 311.976">
  <path id="Disabilities" d="M3.92,17.648V55h9.688V17.648ZM31.808,55h8.96V41.56a5.757,5.757,0,0,1,1.456-3.976,4.9,4.9,0,0,1,3.3-1.176,3.751,3.751,0,0,1,2.856,1.064c1.176,1.232,1.12,3.416,1.12,4.872V55h8.96V39.1c0-2.744-.224-4.872-2.352-7a10.123,10.123,0,0,0-7.392-2.688,9.441,9.441,0,0,0-7.952,3.7V29.968h-8.96ZM94.7,46.936a6.777,6.777,0,0,1-4.592,1.68,6.082,6.082,0,0,1-4.592-1.9,6.429,6.429,0,0,1-1.568-4.2A6.093,6.093,0,0,1,85.68,38.2a5.872,5.872,0,0,1,4.368-1.736A7.986,7.986,0,0,1,94.7,38.088v-7.5a12.844,12.844,0,0,0-5.824-1.4,14.438,14.438,0,0,0-10.08,3.808A13.632,13.632,0,0,0,74.76,42.68a13.1,13.1,0,0,0,3.864,9.352A13.825,13.825,0,0,0,88.48,55.84a13.29,13.29,0,0,0,6.216-1.4Zm16.3-32.76V55h8.96V14.176Zm26.264,15.792V45.592a9,9,0,0,0,2.352,6.664c2.968,3.192,7.56,3.584,11.312,3.584,3.416,0,7.728-.336,10.808-3.528a8.593,8.593,0,0,0,2.408-6.72V29.968h-8.96v14a4.642,4.642,0,0,1-1.288,3.528A4.19,4.19,0,0,1,150.7,48.56a4.63,4.63,0,0,1-3.136-.952,4.8,4.8,0,0,1-1.344-3.64v-14Zm42.672,22.96a18.468,18.468,0,0,0,10.08,2.912c2.072,0,6.328-.224,9.24-3.136a8.366,8.366,0,0,0,2.52-6.216,7.079,7.079,0,0,0-1.9-4.984,10.578,10.578,0,0,0-3.7-1.96l-1.624-.448c-1.4-.392-2.128-.392-2.968-.728a1.458,1.458,0,0,1-1.064-1.4,1.343,1.343,0,0,1,.784-1.232,3.783,3.783,0,0,1,2.072-.5,12.4,12.4,0,0,1,4.7,1.232l3.024-5.712a20.661,20.661,0,0,0-8.008-1.624c-3.7,0-7.056,1.064-8.96,3.024a8.945,8.945,0,0,0-2.352,6.1,6.055,6.055,0,0,0,1.624,4.312,8.054,8.054,0,0,0,4.368,2.184l2.352.56a5.588,5.588,0,0,1,2.352.9,1.329,1.329,0,0,1,.448,1.12,1.436,1.436,0,0,1-.448,1.176,3.8,3.8,0,0,1-2.3.672,11.661,11.661,0,0,1-3.472-.616,12.821,12.821,0,0,1-3.584-1.848Zm37.632-22.96V55h8.96V29.968ZM217,19.552a5.04,5.04,0,1,0,5.04-5.04A5.019,5.019,0,0,0,217,19.552Zm40.88,17.192a6.165,6.165,0,0,1,3.976,1.624,6.08,6.08,0,0,1,1.736,4.088,5.523,5.523,0,0,1-1.736,3.976,5.611,5.611,0,0,1-8.008,0,5.55,5.55,0,0,1,0-8.064A6.192,6.192,0,0,1,257.88,36.744Zm15.008,5.712a12.373,12.373,0,0,0-3.864-9.184,15.813,15.813,0,0,0-11.2-4.144,15.63,15.63,0,0,0-11.144,4.144,12.913,12.913,0,0,0,0,18.424c3.472,3.416,7.5,4.144,11.144,4.144,4.032,0,7.9-.9,11.2-4.144A12.492,12.492,0,0,0,272.888,42.456ZM289.24,55h8.96V41.56a5.757,5.757,0,0,1,1.456-3.976,4.9,4.9,0,0,1,3.3-1.176,3.751,3.751,0,0,1,2.856,1.064c1.176,1.232,1.12,3.416,1.12,4.872V55h8.96V39.1c0-2.744-.224-4.872-2.352-7a10.123,10.123,0,0,0-7.392-2.688,9.441,9.441,0,0,0-7.952,3.7V29.968h-8.96Z" transform="translate(55.84 -3.92) rotate(90)" fill="#fff"/>
</svg>
