<svg height="179.272" viewBox="0 0 404.752 179.272" width="404.752" xmlns="http://www.w3.org/2000/svg"><path d="m22.55-61.828v48.216h19.27v13.612h-35.342v-61.828zm50.594 30.914a16.475 16.475 0 0 0 1.394 6.806 17.209 17.209 0 0 0 3.772 5.408 17.05 17.05 0 0 0 5.535 3.567 17.725 17.725 0 0 0 6.683 1.271 17.725 17.725 0 0 0 6.683-1.271 17.528 17.528 0 0 0 5.576-3.567 16.889 16.889 0 0 0 3.813-5.412 16.475 16.475 0 0 0 1.394-6.806 16.475 16.475 0 0 0 -1.394-6.802 16.889 16.889 0 0 0 -3.813-5.412 17.528 17.528 0 0 0 -5.576-3.568 17.725 17.725 0 0 0 -6.683-1.271 17.725 17.725 0 0 0 -6.683 1.271 17.05 17.05 0 0 0 -5.535 3.567 17.209 17.209 0 0 0 -3.772 5.412 16.475 16.475 0 0 0 -1.394 6.807zm-16.81 0a32.3 32.3 0 0 1 2.542-12.833 32.024 32.024 0 0 1 7.052-10.373 32.222 32.222 0 0 1 10.783-6.929 36.99 36.99 0 0 1 13.817-2.5 37.079 37.079 0 0 1 13.776 2.5 32.585 32.585 0 0 1 10.865 6.929 31.712 31.712 0 0 1 7.093 10.373 32.3 32.3 0 0 1 2.538 12.833 32.3 32.3 0 0 1 -2.542 12.833 31.712 31.712 0 0 1 -7.093 10.373 32.585 32.585 0 0 1 -10.865 6.929 37.079 37.079 0 0 1 -13.776 2.5 36.99 36.99 0 0 1 -13.817-2.5 32.222 32.222 0 0 1 -10.779-6.929 32.024 32.024 0 0 1 -7.052-10.373 32.3 32.3 0 0 1 -2.542-12.833zm97.006-30.914 14.924 37.638 15.006-37.638h17.466l-26.076 61.828h-12.792l-25.994-61.828zm99.3 13.612h-19.104v10.332h18.04v13.612h-18.04v10.66h19.106v13.612h-35.178v-61.828h35.178zm-201.64 121.052q-5.572-6.806-13.772-6.806a16.851 16.851 0 0 0 -6.683 1.312 16.01 16.01 0 0 0 -8.774 8.938 17.631 17.631 0 0 0 -1.271 6.72 17.851 17.851 0 0 0 1.271 6.806 16.4 16.4 0 0 0 8.815 9.02 16.349 16.349 0 0 0 6.56 1.312q7.708 0 13.858-6.56v19.024l-1.64.574a47.452 47.452 0 0 1 -6.888 1.927 33.379 33.379 0 0 1 -6.314.615 32.275 32.275 0 0 1 -22.591-9.218 33.859 33.859 0 0 1 -7.171-10.417 33.392 33.392 0 0 1 -.041-26.24 32.656 32.656 0 0 1 29.885-19.393 33.913 33.913 0 0 1 7.257.779 44.02 44.02 0 0 1 7.499 2.419zm35.342 10.25a16.475 16.475 0 0 0 1.394 6.806 17.022 17.022 0 0 0 9.307 8.979 18.205 18.205 0 0 0 13.366 0 17.529 17.529 0 0 0 5.576-3.567 16.889 16.889 0 0 0 3.813-5.412 17.312 17.312 0 0 0 0-13.612 16.889 16.889 0 0 0 -3.813-5.412 17.529 17.529 0 0 0 -5.576-3.567 18.205 18.205 0 0 0 -13.366 0 17.022 17.022 0 0 0 -9.303 8.979 16.475 16.475 0 0 0 -1.394 6.806zm-16.81 0a31.859 31.859 0 0 1 20.381-30.135 39.3 39.3 0 0 1 27.593 0 32.585 32.585 0 0 1 10.865 6.929 31.712 31.712 0 0 1 7.093 10.373 33.664 33.664 0 0 1 0 25.666 31.712 31.712 0 0 1 -7.093 10.373 32.585 32.585 0 0 1 -10.865 6.929 39.3 39.3 0 0 1 -27.593 0 31.979 31.979 0 0 1 -20.377-30.135zm104.968-30.914v48.216h19.27v13.612h-35.346v-61.828zm50.59 30.914a16.475 16.475 0 0 0 1.394 6.806 17.022 17.022 0 0 0 9.307 8.979 18.205 18.205 0 0 0 13.366 0 17.529 17.529 0 0 0 5.576-3.567 16.89 16.89 0 0 0 3.813-5.412 17.312 17.312 0 0 0 0-13.612 16.89 16.89 0 0 0 -3.813-5.412 17.529 17.529 0 0 0 -5.576-3.567 18.205 18.205 0 0 0 -13.366 0 17.022 17.022 0 0 0 -9.307 8.979 16.475 16.475 0 0 0 -1.394 6.806zm-16.81 0a31.859 31.859 0 0 1 20.377-30.135 39.3 39.3 0 0 1 27.593 0 32.585 32.585 0 0 1 10.865 6.929 31.712 31.712 0 0 1 7.093 10.373 33.664 33.664 0 0 1 0 25.666 31.712 31.712 0 0 1 -7.093 10.373 32.585 32.585 0 0 1 -10.865 6.929 39.3 39.3 0 0 1 -27.593 0 31.979 31.979 0 0 1 -20.377-30.135zm104.96-3.28h3.034q4.756 0 7.3-1.968a6.728 6.728 0 0 0 2.542-5.658 6.728 6.728 0 0 0 -2.542-5.658q-2.542-1.968-7.3-1.968h-3.034zm35.342 34.194h-20.008l-15.334-23.78v23.78h-16.072v-61.828h25.01a24.548 24.548 0 0 1 9.02 1.517 16.984 16.984 0 0 1 10.127 10.211 21.148 21.148 0 0 1 1.271 7.38q0 7.052-3.4 11.439t-10.045 5.945zm50.918-46a19.846 19.846 0 0 0 -5.248-3.157 13.936 13.936 0 0 0 -5.084-1.025 8.249 8.249 0 0 0 -5.084 1.476 4.6 4.6 0 0 0 -1.968 3.854 3.834 3.834 0 0 0 .984 2.706 8.575 8.575 0 0 0 2.583 1.845 22.109 22.109 0 0 0 3.617 1.351q2.009.574 3.977 1.23 7.872 2.624 11.521 7.011t3.649 11.439a22.269 22.269 0 0 1 -1.6 8.61 17.966 17.966 0 0 1 -4.674 6.6 21.567 21.567 0 0 1 -7.544 4.264 31.417 31.417 0 0 1 -10.127 1.517 37.244 37.244 0 0 1 -21.73-6.97l6.884-12.951a27.941 27.941 0 0 0 7.134 4.756 17.147 17.147 0 0 0 6.97 1.558q3.936 0 5.863-1.8a5.589 5.589 0 0 0 1.435-6.519 5.239 5.239 0 0 0 -1.64-1.886 13.143 13.143 0 0 0 -2.993-1.6q-1.845-.738-4.469-1.64-3.116-.984-6.109-2.173a19.223 19.223 0 0 1 -5.33-3.157 14.67 14.67 0 0 1 -3.772-4.961 17.545 17.545 0 0 1 -1.435-7.585 21.913 21.913 0 0 1 1.517-8.323 18.5 18.5 0 0 1 4.264-6.4 19.006 19.006 0 0 1 6.724-4.141 25.418 25.418 0 0 1 8.9-1.476 38.943 38.943 0 0 1 9.594 1.271 42.314 42.314 0 0 1 9.594 3.731z" fill="#fff" transform="translate(-3.69 63.55)"/></svg>