<svg xmlns="http://www.w3.org/2000/svg" width="128.214" height="32.368" viewBox="0 0 128.214 32.368">
  <path id="Topics" d="M209.1,15.32v-5H193.564v5h4.828V33h5.882V15.32Zm16.252,6.6a3.743,3.743,0,0,1,2.414.986,3.691,3.691,0,0,1,1.054,2.482,3.353,3.353,0,0,1-1.054,2.414,3.407,3.407,0,0,1-4.862,0,3.369,3.369,0,0,1,0-4.9A3.759,3.759,0,0,1,225.354,21.916Zm9.112,3.468a7.512,7.512,0,0,0-2.346-5.576,9.6,9.6,0,0,0-6.8-2.516,9.489,9.489,0,0,0-6.766,2.516,7.84,7.84,0,0,0,0,11.186,10.4,10.4,0,0,0,13.566,0A7.585,7.585,0,0,0,234.466,25.384Zm15.368,6.154a6.469,6.469,0,0,0,4.726,1.972,7.3,7.3,0,0,0,5.2-2.108,8.228,8.228,0,0,0,2.448-6.018A8.226,8.226,0,0,0,259.9,19.5a7.555,7.555,0,0,0-5.406-2.21,5.681,5.681,0,0,0-4.658,2.176V17.8h-5.44V40.786h5.44Zm3.332-9.622a3.283,3.283,0,0,1,2.414,1.02,3.707,3.707,0,0,1,1.054,2.516,3.6,3.6,0,0,1-1.054,2.414,3.283,3.283,0,0,1-2.414,1.02,3.476,3.476,0,0,1-2.448-1.02,3.668,3.668,0,0,1-1.054-2.414,3.707,3.707,0,0,1,1.054-2.516A3.476,3.476,0,0,1,253.166,21.916ZM272.138,17.8V33h5.44V17.8Zm-.34-6.324a3.06,3.06,0,1,0,3.06-3.06A3.047,3.047,0,0,0,271.8,11.478ZM299.576,28.1a4.115,4.115,0,0,1-2.788,1.02A3.692,3.692,0,0,1,294,27.968a3.9,3.9,0,0,1-.952-2.55A3.7,3.7,0,0,1,294.1,22.8a3.565,3.565,0,0,1,2.652-1.054,4.849,4.849,0,0,1,2.822.986V18.176a7.8,7.8,0,0,0-3.536-.85,8.766,8.766,0,0,0-6.12,2.312,8.277,8.277,0,0,0-2.448,5.882,7.953,7.953,0,0,0,2.346,5.678A8.394,8.394,0,0,0,295.8,33.51a8.069,8.069,0,0,0,3.774-.85Zm8.942,3.638a11.213,11.213,0,0,0,6.12,1.768,7.9,7.9,0,0,0,5.61-1.9,5.079,5.079,0,0,0,1.53-3.774,4.3,4.3,0,0,0-1.156-3.026,6.423,6.423,0,0,0-2.244-1.19l-.986-.272c-.85-.238-1.292-.238-1.8-.442a.885.885,0,0,1-.646-.85.815.815,0,0,1,.476-.748A2.3,2.3,0,0,1,316.678,21a7.528,7.528,0,0,1,2.856.748l1.836-3.468a12.544,12.544,0,0,0-4.862-.986,7.674,7.674,0,0,0-5.44,1.836,5.431,5.431,0,0,0-1.428,3.706,3.676,3.676,0,0,0,.986,2.618,4.89,4.89,0,0,0,2.652,1.326l1.428.34a3.393,3.393,0,0,1,1.428.544.807.807,0,0,1,.272.68.872.872,0,0,1-.272.714,2.307,2.307,0,0,1-1.394.408,7.08,7.08,0,0,1-2.108-.374,7.784,7.784,0,0,1-2.176-1.122Z" transform="translate(-193.564 -8.418)"/>
</svg>
