<svg xmlns="http://www.w3.org/2000/svg" width="390.264" height="126.264" viewBox="0 0 390.264 126.264">
  <path id="Diversity" d="M82.843,17.648,93.987,55h9.856l7.168-21.616L117.787,55H127.7l11.928-37.352H129.491l-7.056,24.136L115.1,17.648h-7.728l-7.9,24.136-6.5-24.136Zm83.72,19.1a6.165,6.165,0,0,1,3.976,1.624,6.08,6.08,0,0,1,1.736,4.088,5.523,5.523,0,0,1-1.736,3.976,5.611,5.611,0,0,1-8.008,0,5.55,5.55,0,0,1,0-8.064A6.192,6.192,0,0,1,166.563,36.744Zm15.008,5.712a12.373,12.373,0,0,0-3.864-9.184,15.813,15.813,0,0,0-11.2-4.144,15.63,15.63,0,0,0-11.144,4.144,12.913,12.913,0,0,0,0,18.424c3.472,3.416,7.5,4.144,11.144,4.144,4.032,0,7.9-.9,11.2-4.144A12.492,12.492,0,0,0,181.571,42.456ZM197.923,55h8.96V44.3c0-1.344.112-3.976,2.016-5.712a5.871,5.871,0,0,1,4.088-1.344,7.9,7.9,0,0,1,3.864.9V29.688c-1.176-.056-1.568-.112-1.792-.112a9.773,9.773,0,0,0-4.648,1.008,8.076,8.076,0,0,0-3.528,3.472V29.968h-8.96Zm34.1-40.824V55h8.96V44.752L250.115,55h12.432L249.779,41.5,261.6,29.968H249.443l-8.456,9.016V14.176ZM300.291,51.64a26.079,26.079,0,0,0,5.656,2.968,19.965,19.965,0,0,0,7.336,1.232c3.976,0,7.84-.616,11.032-3.808a12.654,12.654,0,0,0,3.528-9.408,8.818,8.818,0,0,0-2.408-6.664c-1.96-2.128-4.424-2.968-6.776-3.7l-2.968-.9c-2.3-.672-2.968-1.344-3.248-1.68a2.5,2.5,0,0,1-.5-1.68,2.764,2.764,0,0,1,.952-2.016,4.652,4.652,0,0,1,3.192-1.12c1.288,0,3.472.224,6.384,2.52l3.864-7.56A26.237,26.237,0,0,0,314.8,16.808a13.169,13.169,0,0,0-9.576,3.528,12.212,12.212,0,0,0-3.416,9.016,9.4,9.4,0,0,0,2.128,6.608,12.2,12.2,0,0,0,5.376,3.024l2.52.784c2.408.728,3.864,1.12,4.816,1.96a2.918,2.918,0,0,1,1.064,2.24,3.34,3.34,0,0,1-.952,2.352A4.916,4.916,0,0,1,313,47.608a13.086,13.086,0,0,1-8.568-3.808ZM359.315,37.3V29.968h-5.1V21.736h-8.96v8.232H342.4V37.3h2.856V55h8.96V37.3Zm16.576,30.52h10.024l20.1-37.856H395.771l-6.5,12.824-6.664-12.824H372.2l12.1,21.616ZM420.3,14.176V55h8.96V14.176Zm52.808,29.008c0-2.8-.448-7.168-3.976-10.528A13.713,13.713,0,0,0,459.5,29.24c-4.928,0-8.176,1.624-10.248,3.64a13.36,13.36,0,0,0-3.752,9.688,13.11,13.11,0,0,0,3.7,9.464,14.2,14.2,0,0,0,10.36,3.808c5.432,0,8.344-1.68,10.192-3.472a11.252,11.252,0,0,0,3.024-5.152H464.2a4.169,4.169,0,0,1-1.568,1.68,7.07,7.07,0,0,1-2.912.672,5.034,5.034,0,0,1-3.7-1.232,6.323,6.323,0,0,1-1.568-4.2h18.648Zm-18.368-4.2a5.11,5.11,0,0,1,1.344-2.688,4.815,4.815,0,0,1,3.64-1.344,5.22,5.22,0,0,1,3.7,1.344,6.006,6.006,0,0,1,1.456,2.688ZM158.863,102.248V139.6h9.688V125.264l9.3,14.336h12.04l-11.7-15.288a10.463,10.463,0,0,0,5.152-2.576,10.779,10.779,0,0,0,2.968-7.784,12.3,12.3,0,0,0-3.192-8.4c-2.744-2.856-6.328-3.3-9.128-3.3Zm9.688,7.5H170.4a6.576,6.576,0,0,1,4.648,1.456,4.4,4.4,0,0,1,1.288,3.136,4.65,4.65,0,0,1-1.232,3.136,7.28,7.28,0,0,1-4.7,1.512h-1.848Zm62.328,18.032c0-2.8-.448-7.168-3.976-10.528a13.713,13.713,0,0,0-9.632-3.416c-4.928,0-8.176,1.624-10.248,3.64a13.36,13.36,0,0,0-3.752,9.688,13.11,13.11,0,0,0,3.7,9.464,14.2,14.2,0,0,0,10.36,3.808c5.432,0,8.344-1.68,10.192-3.472a11.252,11.252,0,0,0,3.024-5.152h-8.568a4.169,4.169,0,0,1-1.568,1.68,7.07,7.07,0,0,1-2.912.672,5.034,5.034,0,0,1-3.7-1.232,6.323,6.323,0,0,1-1.568-4.2h18.648Zm-18.368-4.2a5.109,5.109,0,0,1,1.344-2.688,4.815,4.815,0,0,1,3.64-1.344,5.22,5.22,0,0,1,3.7,1.344,6.006,6.006,0,0,1,1.456,2.688Zm50.624-1.68v-7.336h-6.272V111.04c0-1.232.056-3.136,1.008-4.2a3.222,3.222,0,0,1,2.52-.952,5.622,5.622,0,0,1,2.8.84V99a11.373,11.373,0,0,0-4.312-.84,10.418,10.418,0,0,0-8.68,3.976,12.875,12.875,0,0,0-2.3,8.232v4.2h-3.136V121.9H247.9v17.7h8.96V121.9Zm28.672-.56a6.165,6.165,0,0,1,3.976,1.624,6.08,6.08,0,0,1,1.736,4.088,5.523,5.523,0,0,1-1.736,3.976,5.611,5.611,0,0,1-8.008,0,5.55,5.55,0,0,1,0-8.064A6.192,6.192,0,0,1,291.807,121.344Zm15.008,5.712a12.373,12.373,0,0,0-3.864-9.184,15.813,15.813,0,0,0-11.2-4.144,15.629,15.629,0,0,0-11.144,4.144,12.913,12.913,0,0,0,0,18.424c3.472,3.416,7.5,4.144,11.144,4.144,4.032,0,7.9-.9,11.2-4.144A12.492,12.492,0,0,0,306.815,127.056ZM323.167,139.6h8.96V128.9c0-1.344.112-3.976,2.016-5.712a5.871,5.871,0,0,1,4.088-1.344,7.9,7.9,0,0,1,3.864.9v-8.456c-1.176-.056-1.568-.112-1.792-.112a9.773,9.773,0,0,0-4.648,1.008,8.076,8.076,0,0,0-3.528,3.472v-4.088h-8.96Zm34.1,0h8.96V127.224c0-1.568,0-3.976,1.568-5.488a3.154,3.154,0,0,1,2.464-.9,3.474,3.474,0,0,1,2.688,1.008c1.008,1.064,1.176,2.968,1.176,5.376V139.6h8.96V126.776a6.4,6.4,0,0,1,1.624-4.76,3.626,3.626,0,0,1,2.632-1.008,3.268,3.268,0,0,1,2.352.84c1.008.952,1.288,2.744,1.288,5.376V139.6h8.96V123.3c0-1.736-.112-4.7-2.352-6.888-2.072-2.016-5.1-2.3-6.944-2.3a10.153,10.153,0,0,0-5.208,1.232,8.8,8.8,0,0,0-3.416,3.472,7.819,7.819,0,0,0-3.472-3.584,10.19,10.19,0,0,0-4.816-1.12,9.616,9.616,0,0,0-7.5,3.472v-3.024h-8.96Z" transform="translate(-82.843 -14.176)" fill="#fff"/>
</svg>
