<svg height="7.44" viewBox="0 0 34.44 7.44" width="34.44" xmlns="http://www.w3.org/2000/svg"><path d="m.4-.6a4.657 4.657 0 0 0 1.01.53 3.565 3.565 0 0 0 1.31.22 2.586 2.586 0 0 0 1.97-.68 2.26 2.26 0 0 0 .63-1.68 1.575 1.575 0 0 0 -.43-1.19 2.548 2.548 0 0 0 -1.21-.66l-.53-.16a1.1 1.1 0 0 1 -.58-.3.446.446 0 0 1 -.09-.3.494.494 0 0 1 .17-.36.831.831 0 0 1 .57-.2 1.76 1.76 0 0 1 1.14.45l.69-1.35a4.685 4.685 0 0 0 -2.06-.54 2.352 2.352 0 0 0 -1.71.63 2.181 2.181 0 0 0 -.61 1.61 1.678 1.678 0 0 0 .38 1.18 2.178 2.178 0 0 0 .96.54l.45.14a2.4 2.4 0 0 1 .86.35.521.521 0 0 1 .19.4.6.6 0 0 1 -.17.42.878.878 0 0 1 -.67.23 2.337 2.337 0 0 1 -1.53-.68zm11.24-.84a1.21 1.21 0 0 1 -.82.3 1.086 1.086 0 0 1 -.82-.34 1.148 1.148 0 0 1 -.28-.75 1.088 1.088 0 0 1 .31-.77 1.049 1.049 0 0 1 .78-.31 1.426 1.426 0 0 1 .83.29v-1.34a2.294 2.294 0 0 0 -1.04-.25 2.578 2.578 0 0 0 -1.8.68 2.434 2.434 0 0 0 -.72 1.73 2.339 2.339 0 0 0 .69 1.67 2.469 2.469 0 0 0 1.76.68 2.373 2.373 0 0 0 1.11-.25zm2.91 1.44h1.6v-1.91a1.349 1.349 0 0 1 .36-1.02 1.048 1.048 0 0 1 .73-.24 1.411 1.411 0 0 1 .69.16v-1.51c-.21-.01-.28-.02-.32-.02a1.745 1.745 0 0 0 -.83.18 1.442 1.442 0 0 0 -.63.62v-.73h-1.6zm8.4-3.26a1.1 1.1 0 0 1 .71.29 1.086 1.086 0 0 1 .31.73.986.986 0 0 1 -.31.71 1.017 1.017 0 0 1 -.71.3 1.022 1.022 0 0 1 -.72-.3 1.033 1.033 0 0 1 -.31-.71 1.031 1.031 0 0 1 .31-.73 1.106 1.106 0 0 1 .72-.29zm2.68 1.02a2.209 2.209 0 0 0 -.69-1.64 2.824 2.824 0 0 0 -2-.74 2.791 2.791 0 0 0 -1.99.74 2.209 2.209 0 0 0 -.69 1.64 2.231 2.231 0 0 0 .69 1.65 2.68 2.68 0 0 0 1.99.74 2.682 2.682 0 0 0 2-.74 2.231 2.231 0 0 0 .69-1.65zm2.92-5.05v7.29h1.6v-7.29zm4.69 0v7.29h1.6v-7.29z" fill="#a32a2a" transform="translate(-.4 7.29)"/></svg>