<svg height="358.579" viewBox="0 0 288.238 358.579" width="288.238" xmlns="http://www.w3.org/2000/svg"><g fill="#e76c2b"><path d="m-59.5 1.579-5.1-3.779 10.991-14.982q-.894.119-1.519.179t-1.013.06a12.928 12.928 0 0 1 -9.65-4.259 14.2 14.2 0 0 1 -4.051-10.187 14.776 14.776 0 0 1 4.5-10.842 14.791 14.791 0 0 1 10.842-4.532 15.256 15.256 0 0 1 10.931 4.468 14.029 14.029 0 0 1 4.646 10.484q0 5.361-4.527 11.586zm-3.578-33.479a8.5 8.5 0 0 0 2.532 6.255 8.4 8.4 0 0 0 6.166 2.562 8.356 8.356 0 0 0 6.136-2.532 8.4 8.4 0 0 0 2.562-6.166 8.4 8.4 0 0 0 -2.562-6.166 8.391 8.391 0 0 0 -6.166-2.532 8.321 8.321 0 0 0 -6.106 2.532 8.269 8.269 0 0 0 -2.562 6.047zm47.678 25.377h17.13v6.523h-30.887l15.965-19.331q2.353-2.889 3.947-5a38.037 38.037 0 0 0 2.427-3.544 9.962 9.962 0 0 0 1.7-5.034 7.174 7.174 0 0 0 -2.266-5.391 7.77 7.77 0 0 0 -5.6-2.174q-6.97 0-7.982 8.25h-6.91q1.668-14.535 14.684-14.535a14.832 14.832 0 0 1 10.544 3.988 12.964 12.964 0 0 1 4.289 9.889 15.022 15.022 0 0 1 -2 7.357 36.042 36.042 0 0 1 -2.964 4.453q-1.947 2.572-4.925 6.09zm32.524 3.187a3.95 3.95 0 0 1 1.221-2.889 3.983 3.983 0 0 1 2.919-1.221 3.983 3.983 0 0 1 2.919 1.221 3.983 3.983 0 0 1 1.217 2.919 4.018 4.018 0 0 1 -1.217 2.949 3.969 3.969 0 0 1 -2.919 1.191 4.005 4.005 0 0 1 -2.949-1.191 4.041 4.041 0 0 1 -1.191-2.979zm48.515-9.5h4.885v6.314h-4.885v6.522h-6.939v-6.523h-22.578l29.517-42.891zm-6.94 0v-15.4l-10.6 15.4z" transform="translate(133.238 357)"/><path d="m-3.773-3.99c1.484 0 2.534-1.218 2.534-3.3s-1.05-3.262-2.534-3.262-2.52 1.19-2.52 3.262 1.036 3.3 2.52 3.3zm0-1.162c-.6 0-1.064-.616-1.064-2.142s.462-2.1 1.064-2.1 1.073.574 1.073 2.1-.471 2.142-1.073 2.142zm.35 5.352h1.223l5.623-10.756h-1.223zm7.182 0c1.47 0 2.534-1.232 2.534-3.3s-1.064-3.284-2.534-3.284-2.52 1.19-2.52 3.276 1.05 3.308 2.52 3.308zm0-1.176c-.6 0-1.064-.6-1.064-2.128s.462-2.114 1.064-2.114 1.078.588 1.078 2.114-.476 2.124-1.078 2.124z" transform="translate(223.238 357)"/><path d="m-13.93-1.05h-2.422v-.91h2.422zm4.48-4.032h-11.228v6.3h1.624v-4.918h7.924v3.126c0 .168-.056.21-.266.224-.154.014-.588.014-1.064 0v-2.716h-5.348v3.766h1.456v-.63h3.612a4.722 4.722 0 0 1 .322 1.12 5.588 5.588 0 0 0 2.268-.266c.546-.252.7-.7.7-1.47zm-3.542-1.708h-4.368v-.854h4.368zm-5.95-1.96v3.08h7.642v-3.08zm4.578-1.946v-1.176h-1.694v1.172h-5.18v1.414h12.238v-1.414zm12.764-.728h-4.224v1.26h4.224zm.532 1.876h-5.47v1.316h5.474zm-1.96 7.112v1.61h-1.48v-1.61zm1.442-1.316h-4.34v4.774h1.414v-.546h2.926zm-4.3-.686h4.312v-1.246h-4.306zm0-1.89h4.312v-1.272h-4.306zm12.418 1.2h-3.088v-4.49h2.842v-1.554h-7.086v1.554h2.6v4.494h-3.088v1.582h3.094v4.742h1.638v-4.742h3.094zm-7.218-3.636a16.823 16.823 0 0 1 .574 3.276l1.4-.336a16.687 16.687 0 0 0 -.63-3.22zm5.824 3.248c.35-.84.728-2.156 1.078-3.332l-1.582-.308a20.5 20.5 0 0 1 -.77 3.318zm6.23-6.314a14.534 14.534 0 0 1 -3.038 5.082 12.672 12.672 0 0 1 .854 1.68 10.864 10.864 0 0 0 .854-1.032v7.3h1.568v-9.8a24.3 24.3 0 0 0 1.26-2.758zm6.076 4.578h-.924v-1.748h.924zm2.338 5.936h-.938v-4.494h.938zm-5.544-4.494h.868v4.494h-.868zm3.206 0v4.494h-.938v-4.494zm4-3.192v-1.484h-8.89v1.486h2.394v1.75h-2.248v8.16h1.54v-.8h5.544v.716h1.6v-8.078h-2.372v-1.748z" transform="translate(21.238 344)"/></g><path d="m3387.155 1415.186v142.5l-12.6-141.939a142.471 142.471 0 1 0 12.6-.561z" fill="#eaeaea" transform="translate(-3241.417 -1415.186)"/><path d="m3375.761 1415.186c-4.248 0-8.45.2-12.6.561l12.6 141.939z" fill="#d3d3d3" transform="translate(-3230.023 -1415.186)"/><path d="m3331.687 1425.4a142.529 142.529 0 1 0 120.67 258.038l-65.2-126.736z" fill="#fd9158" transform="translate(-3241.417 -1414.204)"/><path d="m3517.155 1557.686a142.5 142.5 0 0 0 -142.5-142.5v142.5l65.2 126.736a142.485 142.485 0 0 0 77.3-126.736z" fill="#e76c2b" transform="translate(-3228.917 -1415.186)"/><circle cx="146.238" cy="143" fill="#fff" r="58"/><path d="m-25.9-13.014a11.816 11.816 0 0 0 -3.078-1.908l-.99 1.188a12.92 12.92 0 0 1 3.042 2.016zm-.756 4.554a13.7 13.7 0 0 0 -3.294-1.62l-.882 1.3a12.263 12.263 0 0 1 3.222 1.746zm-2.214 9.648c.9-1.692 1.926-3.834 2.718-5.724l-1.314-1.008a54.512 54.512 0 0 1 -2.9 5.744zm7.11-13.14h2.844v1.692h-2.844zm7.47 3.2v-1.508h-3.024v-1.692h2.52v-1.458h-2.52v-1.69h-1.6v1.692h-2.844v-1.692h-1.566v1.692h-2.448v1.458h2.448v1.692h-3.024v1.512h5.184v1.314h-4.536v8.832h1.494v-7.358h3.2v3.294h-1.152v-2.43h-1.042v4.734h1.044v-1.08h3.656v.756h1.044v-4.41h-1.044v2.43h-1.224v-3.294h3.348v5.67c0 .216-.072.288-.306.288s-1.026 0-1.854-.036a6.187 6.187 0 0 1 .414 1.4 8.172 8.172 0 0 0 2.622-.212c.54-.234.684-.666.684-1.44v-7.146h-4.734v-1.314zm9.972-3.906h8.944v3.042h-8.946zm5.29 8.734h5.94v-1.566h-5.94v-2.538h5.418v-6.228h-12.366v6.228h5.238v6.894a5.674 5.674 0 0 1 -3.024-3.24 20.122 20.122 0 0 0 .45-2.214l-1.746-.212c-.27 2.516-1.098 5.5-3.132 7.07a8.8 8.8 0 0 1 1.19 1.13 8.675 8.675 0 0 0 2.61-3.8c1.762 2.94 4.534 3.624 8.242 3.624h3.87a5.793 5.793 0 0 1 .612-1.638c-.864.036-3.726.036-4.392.036a15.529 15.529 0 0 1 -2.97-.234zm16.308-7.992h13.176v-1.494h-6.556v-1.69h-1.742v1.692h-6.48v5.076c0 2.61-.126 6.264-1.584 8.82a7.576 7.576 0 0 1 1.368.918c1.566-2.736 1.818-6.912 1.818-9.738zm8.658 3.168v1.584h-3.888v-1.584zm1.638 2.88v-2.88h2.754v-1.368h-2.754v-1.368h-1.638v1.368h-3.888v-1.368h-1.584v1.368h-2.666v1.368h2.664v2.88zm-.756 2.286a8.3 8.3 0 0 1 -2.664 1.944 7.743 7.743 0 0 1 -2.61-1.944zm1.4-1.4-.306.054h-9.914v1.35h2.754l-.81.306a9.582 9.582 0 0 0 2.484 2.318 25.1 25.1 0 0 1 -5.148.99 5.132 5.132 0 0 1 .7 1.4 23.63 23.63 0 0 0 6.12-1.472 20.371 20.371 0 0 0 5.706 1.494 5.96 5.96 0 0 1 .974-1.44 23.667 23.667 0 0 1 -4.88-.954 8.681 8.681 0 0 0 3.35-3.492z" transform="translate(146.238 155)"/><path d="m-38.7-11.368h-1.932a11.267 11.267 0 0 1 .1 1.232c0 .238 0 .644-.014 1.134-.28.014-.56.028-.812.028a15.524 15.524 0 0 1 -1.932-.112l.028 1.694a17.164 17.164 0 0 0 1.96.07c.224 0 .476-.014.742-.028v1.176c0 .322 0 .658.014.994-1.722.742-3.122 2.016-3.122 3.234 0 1.484 1.918 2.66 3.276 2.66.924 0 1.54-.462 1.54-2.2 0-.476-.028-1.568-.056-2.674a9.439 9.439 0 0 1 2.632-.392c1.218 0 2.058.56 2.058 1.512 0 1.022-.9 1.582-2.03 1.792a10.78 10.78 0 0 1 -1.722.1l.644 1.806a12.818 12.818 0 0 0 1.836-.224c2.226-.56 3.094-1.806 3.094-3.458 0-1.932-1.694-3.052-3.85-3.052a11.6 11.6 0 0 0 -2.688.364v-.518c0-.406 0-.84.014-1.26.91-.112 1.876-.252 2.674-.434l-.042-1.736a17.146 17.146 0 0 1 -2.576.5c.014-.35.028-.686.042-.994.028-.36.084-.962.122-1.214zm3.99 1.512-.77 1.358a22.275 22.275 0 0 1 3.38 2.044l.84-1.428a29.255 29.255 0 0 0 -3.446-1.974zm-7.238 7.84c0-.49.574-1.064 1.428-1.526.028.756.042 1.4.042 1.75 0 .476-.2.588-.448.588-.36.004-1.018-.378-1.018-.812zm18.368-9.352h-1.932a11.267 11.267 0 0 1 .1 1.232c0 .238 0 .644-.014 1.134-.28.014-.56.028-.812.028a15.524 15.524 0 0 1 -1.932-.112l.028 1.694a17.164 17.164 0 0 0 1.96.07c.224 0 .476-.014.742-.028v1.176c0 .322 0 .658.014.994-1.722.742-3.122 2.016-3.122 3.234 0 1.484 1.918 2.66 3.276 2.66.924 0 1.54-.462 1.54-2.2 0-.476-.028-1.568-.056-2.674a9.439 9.439 0 0 1 2.632-.392c1.218 0 2.058.56 2.058 1.512 0 1.022-.9 1.582-2.03 1.792a10.78 10.78 0 0 1 -1.722.1l.65 1.806a12.818 12.818 0 0 0 1.83-.224c2.226-.56 3.094-1.806 3.094-3.458 0-1.932-1.694-3.052-3.85-3.052a11.6 11.6 0 0 0 -2.688.364v-.518c0-.406 0-.84.014-1.26.91-.112 1.876-.252 2.674-.434l-.042-1.736a17.146 17.146 0 0 1 -2.576.5c.014-.35.028-.686.042-.994.028-.36.084-.962.126-1.214zm3.99 1.512-.77 1.358a22.275 22.275 0 0 1 3.374 2.044l.84-1.428a29.255 29.255 0 0 0 -3.44-1.974zm-7.238 7.84c0-.49.574-1.064 1.428-1.526.028.756.042 1.4.042 1.75 0 .476-.2.588-.448.588-.36.004-1.018-.378-1.018-.812zm17.864-9.31h-1.96a6.749 6.749 0 0 1 .14 1.764v.112h-.42a16.6 16.6 0 0 1 -2.254-.182l.1 1.638c.924.084 1.68.112 2.282.112h.294v.952h-.056a2.666 2.666 0 0 0 -2.59 2.9c0 1.792 1.036 2.52 2.058 2.52a1.132 1.132 0 0 0 .224-.014v.294c0 .98.14 2.016 3.4 2.016a12.851 12.851 0 0 0 3.046-.31 2.422 2.422 0 0 0 2.068-2.548c.042-.574.028-.91.028-1.638l-1.946-.59a11.021 11.021 0 0 1 .112 1.736 1.308 1.308 0 0 1 -1.036 1.4 8.328 8.328 0 0 1 -2.142.254c-1.652 0-1.806-.308-1.806-.91v-.56a3.749 3.749 0 0 0 .728-2.366 2.379 2.379 0 0 0 -.406-1.414v-1.834a17.867 17.867 0 0 0 2.506-.392v-1.68a16.482 16.482 0 0 1 -2.506.49 8.516 8.516 0 0 1 .14-1.75zm4.7 1.288-1.168 1.162a19.945 19.945 0 0 1 2.884 2.8l1.26-1.288a16.929 16.929 0 0 0 -2.968-2.674zm-6.93 6.846c-.406 0-.77-.35-.77-.966 0-.826.448-1.372 1.008-1.372.392 0 .658.322.658.868.008.784-.244 1.47-.888 1.47zm19.636 1.232c0-.462.518-.728 1.092-.728a3.3 3.3 0 0 1 1.428.35 1.511 1.511 0 0 1 -1.4 1.148c-.602 0-1.12-.21-1.12-.77zm-4.074-8.134c0 .154-.028.546-.056 1.078-.6.084-1.218.154-1.624.182a12.029 12.029 0 0 1 -1.218.014l.182 1.792c.784-.112 1.862-.238 2.548-.322-.014.322-.042.658-.07.98-.8 1.176-2.2 3.024-3 4l1.096 1.53c.49-.66 1.19-1.68 1.774-2.56-.014 1.176-.028 1.988-.056 3.08 0 .224-.014.728-.042 1.036h1.936c-.038-.324-.084-.828-.098-1.08-.084-1.316-.084-2.492-.084-3.636 0-.42.014-.882.042-1.344 1.12-1.264 2.646-2.51 3.902-2.51 1.078 0 1.764 1.008 1.764 2.506 0 .546-.028 1.05-.07 1.526a5.164 5.164 0 0 0 -1.61-.252c-1.694 0-2.772.924-2.772 2.184.004 1.582 1.194 2.268 2.762 2.268a2.811 2.811 0 0 0 2.772-1.694 10.751 10.751 0 0 1 1.022 1.078l.91-1.456a9.267 9.267 0 0 0 -1.442-1.288 14.141 14.141 0 0 0 .154-2.254c0-2.548-1.19-4.2-3.178-4.2a6.99 6.99 0 0 0 -4.074 2 .388.388 0 0 0 .014-.126c.238-.364.532-.826.714-1.078l-.518-.66c.112-.882.224-1.6.308-1.988l-2.044-.07a7.73 7.73 0 0 1 .056 1.264zm13.538 11.144c.728-1.358 1.456-2.968 2.086-4.466l-1.316-.994a44.077 44.077 0 0 1 -2.254 4.48zm1.582-7.77a9.089 9.089 0 0 0 -2.534-1.232l-.882 1.26a10.591 10.591 0 0 1 2.492 1.372zm-2.744-3.822a9.84 9.84 0 0 1 2.352 1.6l1.036-1.316a11.234 11.234 0 0 0 -2.408-1.484zm6.734 1.274h1.876v1.036h-1.876zm5.7 2.492v-1.456h-2.214v-1.036h1.82v-1.442h-1.82v-1.134h-1.61v1.134h-1.876v-1.134h-1.554v1.134h-1.792v1.442h1.792v1.036h-2.224v1.456h3.89v.84h-3.472v7.136h1.47v-5.7h2.2v2.226h-.63v-1.646h-.994v3.668h.994v-.812h2.532v.464h.966v-3.32h-.966v1.652h-.69v-2.226h2.31v4.1c0 .154-.056.21-.238.224s-.784 0-1.3-.028a4.546 4.546 0 0 1 .378 1.386 5.309 5.309 0 0 0 2.1-.238c.476-.224.616-.6.616-1.33v-5.556h-3.68v-.84zm5.516-2.9h6.406v1.918h-6.408zm4.074 6.762h4.562v-1.54h-4.564v-1.72h4.116v-5.1h-9.856v5.1h4.018v4.956a4.24 4.24 0 0 1 -2.016-2.254c.14-.56.252-1.12.336-1.666l-1.736-.2c-.2 1.9-.812 4.186-2.324 5.376a6.948 6.948 0 0 1 1.176 1.138 7.045 7.045 0 0 0 1.92-2.744c1.456 2.142 3.626 2.646 6.44 2.646h2.968a6.112 6.112 0 0 1 .574-1.61c-.77.014-2.842.028-3.444.014a13.42 13.42 0 0 1 -2.17-.154zm-58.529 27.614a3.5 3.5 0 0 0 3.626-3.64 3.008 3.008 0 0 0 -3.192-3.29 2.721 2.721 0 0 0 -1.246.294l.2-2.2h3.766v-1.738h-5.544l-.28 5.04.938.616a2.479 2.479 0 0 1 1.554-.546 1.677 1.677 0 0 1 1.75 1.876 1.74 1.74 0 0 1 -1.834 1.9 3.22 3.22 0 0 1 -2.282-1.05l-.952 1.316a4.722 4.722 0 0 0 3.496 1.422zm9.632 0c2.114 0 3.5-1.848 3.5-5.418s-1.386-5.334-3.5-5.334-3.514 1.75-3.514 5.334 1.4 5.418 3.514 5.418zm0-1.61c-.9 0-1.568-.9-1.568-3.808s.672-3.738 1.568-3.738 1.554.84 1.554 3.738-.658 3.804-1.554 3.804zm7.5 1.61a1.289 1.289 0 0 0 1.288-1.344 1.281 1.281 0 0 0 -1.288-1.344 1.278 1.278 0 0 0 -1.271 1.34 1.287 1.287 0 0 0 1.275 1.348zm7.532 0c2.114 0 3.5-1.848 3.5-5.418s-1.386-5.334-3.5-5.334-3.514 1.75-3.514 5.334 1.404 5.418 3.518 5.418zm0-1.61c-.9 0-1.568-.9-1.568-3.808s.672-3.738 1.568-3.738 1.554.84 1.554 3.738-.657 3.804-1.55 3.804zm8.2-2.576c1.484 0 2.534-1.218 2.534-3.3s-1.05-3.262-2.534-3.262-2.52 1.19-2.52 3.262 1.044 3.296 2.528 3.296zm0-1.162c-.6 0-1.064-.616-1.064-2.142s.462-2.1 1.064-2.1 1.078.574 1.078 2.1-.468 2.138-1.07 2.138zm.35 5.348h1.218l5.628-10.752h-1.21zm7.182 0c1.47 0 2.534-1.232 2.534-3.3s-1.064-3.276-2.534-3.276-2.52 1.19-2.52 3.276 1.058 3.3 2.528 3.3zm0-1.176c-.6 0-1.064-.6-1.064-2.128s.462-2.114 1.064-2.114 1.078.588 1.078 2.114-.468 2.124-1.07 2.124z" fill="#fff" transform="translate(107.238 224)"/><path d="m-16.464-6.384v-1.722h-5.5c.14-1.3.154-2.59.168-3.738h-1.82c-.014 1.148 0 2.422-.14 3.738h-5.1v1.722h4.816a8.393 8.393 0 0 1 -5.08 6.16 4.933 4.933 0 0 1 1.246 1.414 9.636 9.636 0 0 0 5.236-5.95 10.443 10.443 0 0 0 5.25 5.936 6.7 6.7 0 0 1 1.232-1.568 9.342 9.342 0 0 1 -5.236-5.992zm10.878 3.22a6.915 6.915 0 0 1 -1.9 1.372 5.972 5.972 0 0 1 -1.796-1.372zm1.4-1.372-.294.056h-3.57c.182-.224.35-.448.518-.672l-1.468-.294a5.36 5.36 0 0 0 1.16-3.668h1.274v2.478c0 .14-.042.182-.21.182s-.7 0-1.19-.014a5.507 5.507 0 0 1 .466 1.456 4.964 4.964 0 0 0 1.97-.238c.476-.238.588-.644.588-1.344v-2.52h3.6v-1.526h-5.364v-1.2h-1.708v1.2h-5.32v1.526h4.34a3.733 3.733 0 0 1 -1.946 3.486 6.037 6.037 0 0 1 1.19 1.12 9.764 9.764 0 0 1 -3.57 1.988 4.462 4.462 0 0 1 1.05 1.232 13.454 13.454 0 0 0 2.156-1.078 8.424 8.424 0 0 0 1.3 1.246 21.99 21.99 0 0 1 -4.914.868 5.483 5.483 0 0 1 .784 1.5 21.491 21.491 0 0 0 5.77-1.374 16.165 16.165 0 0 0 5.674 1.326 7.281 7.281 0 0 1 .962-1.564 19.928 19.928 0 0 1 -4.788-.728 7.717 7.717 0 0 0 2.618-2.716zm-7.756-4.116a5.877 5.877 0 0 1 -2.058 2.352 10.011 10.011 0 0 1 1.148.966 8.692 8.692 0 0 0 2.464-2.9zm7.392.686a15 15 0 0 1 2.128 2.73l1.386-.854a16.433 16.433 0 0 0 -2.226-2.618zm7.336 9.016c.728-1.358 1.456-2.968 2.086-4.466l-1.316-.994a44.077 44.077 0 0 1 -2.256 4.48zm1.582-7.77a9.089 9.089 0 0 0 -2.534-1.232l-.882 1.26a10.591 10.591 0 0 1 2.492 1.372zm-2.744-3.822a9.84 9.84 0 0 1 2.352 1.6l1.036-1.316a11.234 11.234 0 0 0 -2.412-1.488zm6.734 1.274h1.876v1.036h-1.876zm5.7 2.492v-1.456h-2.214v-1.036h1.82v-1.442h-1.82v-1.134h-1.61v1.134h-1.876v-1.134h-1.558v1.134h-1.788v1.442h1.788v1.036h-2.222v1.456h3.892v.84h-3.47v7.136h1.47v-5.7h2.2v2.226h-.63v-1.646h-.998v3.668h.994v-.812h2.534v.464h.966v-3.32h-.966v1.652h-.686v-2.226h2.31v4.1c0 .154-.056.21-.238.224s-.784 0-1.3-.028a4.546 4.546 0 0 1 .378 1.386 5.309 5.309 0 0 0 2.1-.238c.476-.224.616-.6.616-1.33v-5.556h-3.684v-.84zm5.516-2.9h6.412v1.918h-6.414zm4.074 6.762h4.562v-1.54h-4.564v-1.72h4.116v-5.1h-9.856v5.1h4.018v4.956a4.24 4.24 0 0 1 -2.016-2.254c.14-.56.252-1.12.336-1.666l-1.736-.2c-.2 1.9-.812 4.186-2.324 5.376a6.948 6.948 0 0 1 1.176 1.138 7.045 7.045 0 0 0 1.918-2.744c1.456 2.142 3.622 2.646 6.44 2.646h2.968a6.112 6.112 0 0 1 .574-1.61c-.77.014-2.842.028-3.444.014a13.42 13.42 0 0 1 -2.17-.154zm-44.977 23.158 1.61-2.576c.294-.56.574-1.134.826-1.694h.056c-.028.616-.07 1.554-.07 2.156v2.114zm2.422 4.256h1.918v-2.688h1.218v-1.568h-1.218v-6.118h-2.478l-3.864 6.286v1.4h4.424zm5.25 0h6.944v-1.736h-2.24c-.49 0-1.176.056-1.694.112 1.89-1.848 3.444-3.864 3.444-5.74a3.039 3.039 0 0 0 -3.262-3.192 4.159 4.159 0 0 0 -3.29 1.568l1.12 1.12a2.711 2.711 0 0 1 1.9-1.064 1.48 1.48 0 0 1 1.554 1.68c0 1.6-1.666 3.542-4.48 6.062zm11.032.2a1.289 1.289 0 0 0 1.288-1.344 1.281 1.281 0 0 0 -1.288-1.344 1.278 1.278 0 0 0 -1.275 1.34 1.287 1.287 0 0 0 1.275 1.348zm5.7-4.452 1.61-2.576c.294-.56.574-1.134.826-1.694h.056c-.028.616-.07 1.554-.07 2.156v2.114zm2.425 4.252h1.913v-2.688h1.218v-1.568h-1.218v-6.118h-2.478l-3.864 6.286v1.4h4.429zm7.616-3.99c1.484 0 2.534-1.218 2.534-3.3s-1.05-3.262-2.534-3.262-2.52 1.19-2.52 3.262 1.031 3.3 2.515 3.3zm0-1.162c-.6 0-1.064-.616-1.064-2.142s.462-2.1 1.064-2.1 1.078.574 1.078 2.1-.481 2.142-1.083 2.142zm.35 5.348h1.218l5.628-10.752h-1.223zm7.182 0c1.47 0 2.534-1.232 2.534-3.3s-1.064-3.276-2.534-3.276-2.52 1.19-2.52 3.276 1.045 3.304 2.515 3.304zm0-1.176c-.6 0-1.064-.6-1.064-2.128s.462-2.114 1.064-2.114 1.078.588 1.078 2.114-.481 2.128-1.083 2.128z" fill="#fff" transform="translate(204.238 56)"/></svg>