<svg height="214.076" viewBox="0 0 214.076 214.076" width="214.076" xmlns="http://www.w3.org/2000/svg"><g fill="#eaeaea"><path d="m122.046 19.523a9.762 9.762 0 1 0 -9.761-9.764 9.763 9.763 0 0 0 9.761 9.764z" transform="translate(-44.444 49.39)"/><path d="m85.163 108.794c-1.979-6.68-6.413-11.108-11.4-11.108h-15.263c-4.989 0-9.426 4.428-11.405 11.108l-7.188 25.5a4.026 4.026 0 0 0 2.929 4.867 3.953 3.953 0 0 0 4.833-2.874l7.164-25.423h2.117l-12.466 44.223h11.753v32.8a4.539 4.539 0 0 0 9.078 0v-32.8h2.5v32.8a4.54 4.54 0 0 0 9.08 0v-32.8h10.885l-12.468-44.222h2.112l7.164 25.423a3.952 3.952 0 0 0 4.831 2.874 4.025 4.025 0 0 0 2.931-4.867z" transform="translate(11.472 -25.958)"/><path d="m219.357 22.164a11.082 11.082 0 1 0 -11.083-11.081 11.081 11.081 0 0 0 11.083 11.081z" transform="translate(-78.071 49.39)"/><path d="m195.369 119.275h-19.292c-5.331 0-11.131 5.8-11.131 11.133v36.98a4.826 4.826 0 0 0 4.825 4.827h3.369l2.131 36.673h20.887l2.149-36.673h3.369a4.826 4.826 0 0 0 4.825-4.827v-36.98c-.001-5.333-5.801-11.133-11.132-11.133zm-12.608 21.472v-17.579h5.923v17.579l-2.962 3.959z" transform="translate(-44.701 -42.471)"/></g><g fill="#e76d2b" transform="translate(-44.006 -306.259)"><path d="m120.79 461.836v6.935a4.54 4.54 0 0 1 -9.08 0v-6.935z"/><path d="m171.432 461.836v6.935a4.541 4.541 0 0 1 -9.082 0v-6.935z" transform="translate(-39.058)"/></g><circle cx="107.038" cy="107.039" fill="none" r="100.038" stroke="#eaeaea" stroke-miterlimit="10" stroke-width="14"/><path d="m2308.353 1383.405a99.883 99.883 0 0 1 33.125 5.615" fill="none" stroke="#e76c2b" stroke-miterlimit="10" stroke-width="14" transform="translate(-2201.314 -1376.405)"/><path d="m-3.766-3.99c1.484 0 2.534-1.218 2.534-3.3s-1.05-3.262-2.534-3.262-2.52 1.19-2.52 3.262 1.036 3.3 2.52 3.3zm0-1.162c-.6 0-1.064-.616-1.064-2.142s.462-2.1 1.064-2.1 1.078.574 1.078 2.1-.476 2.142-1.078 2.142zm.35 5.352h1.2l5.646-10.756h-1.218zm7.182 0c1.47 0 2.534-1.236 2.534-3.308s-1.064-3.276-2.534-3.276-2.52 1.19-2.52 3.276 1.054 3.308 2.52 3.308zm0-1.176c-.6 0-1.078-.6-1.078-2.128s.476-2.114 1.078-2.114 1.078.588 1.078 2.114-.476 2.124-1.078 2.124z" fill="#e76d2b" transform="translate(137.264 141.889)"/><path d="m7.139-66.323 7.1 5.313-15.318 20.834q1.245-.166 2.117-.249t1.37-.083a18 18 0 0 1 13.492 5.977 19.785 19.785 0 0 1 5.645 14.194 20.611 20.611 0 0 1 -6.313 15.108 20.542 20.542 0 0 1 -15.066 6.267 21.568 21.568 0 0 1 -15.273-6.184 19.651 19.651 0 0 1 -6.434-14.654q0-7.6 6.267-16.1zm4.98 46.609a11.741 11.741 0 0 0 -3.528-8.633 11.712 11.712 0 0 0 -8.591-3.57 11.692 11.692 0 0 0 -8.591 3.528 11.644 11.644 0 0 0 -3.528 8.55 11.644 11.644 0 0 0 3.528 8.55 11.741 11.741 0 0 0 8.633 3.528 11.6 11.6 0 0 0 8.508-3.528 11.522 11.522 0 0 0 3.569-8.425z" fill="#e76c2b" transform="translate(106.264 143.889)"/></svg>