<svg height="214.076" viewBox="0 0 214.076 214.076" width="214.076" xmlns="http://www.w3.org/2000/svg"><path d="m211.038 6.972a3.486 3.486 0 1 0 -3.486-3.485 3.486 3.486 0 0 0 3.486 3.485z" fill="#e76d2b" transform="translate(-151.409 44.518)"/><path d="m155.926 139.039-3.612-8.494 1.2-6.063a3.673 3.673 0 0 0 -3.3-4.027h-5.2a3.674 3.674 0 0 0 -3.3 4.027l1.2 6.063-3.613 8.494a1.234 1.234 0 0 0 1.136 1.717h3.808l.985 6.686a1.187 1.187 0 0 0 1.187 1.186h2.378a1.187 1.187 0 0 0 1.205-1.187l.985-6.686h3.808a1.234 1.234 0 0 0 1.136-1.717z" fill="#e76d2b" transform="translate(-87.993 -67.27)"/><g fill="#eaeaea"><path d="m211.038 6.972a3.486 3.486 0 1 0 -3.486-3.485 3.486 3.486 0 0 0 3.486 3.485z" transform="translate(-128.301 44.518)"/><path d="m155.926 139.039-3.612-8.494 1.2-6.063a3.673 3.673 0 0 0 -3.3-4.027h-5.2a3.674 3.674 0 0 0 -3.3 4.027l1.2 6.063-3.613 8.494a1.234 1.234 0 0 0 1.136 1.717h3.808l.985 6.686a1.187 1.187 0 0 0 1.187 1.186h2.378a1.187 1.187 0 0 0 1.205-1.187l.985-6.686h3.808a1.234 1.234 0 0 0 1.136-1.717z" transform="translate(-64.885 -67.27)"/><path d="m211.038 6.972a3.486 3.486 0 1 0 -3.486-3.485 3.486 3.486 0 0 0 3.486 3.485z" transform="translate(-105.194 44.518)"/><path d="m155.926 139.039-3.612-8.494 1.2-6.063a3.673 3.673 0 0 0 -3.3-4.027h-5.2a3.674 3.674 0 0 0 -3.3 4.027l1.2 6.063-3.613 8.494a1.234 1.234 0 0 0 1.136 1.717h3.808l.985 6.686a1.187 1.187 0 0 0 1.187 1.186h2.378a1.187 1.187 0 0 0 1.205-1.187l.985-6.686h3.808a1.234 1.234 0 0 0 1.136-1.717z" transform="translate(-41.778 -67.27)"/><path d="m211.038 6.972a3.486 3.486 0 1 0 -3.486-3.485 3.486 3.486 0 0 0 3.486 3.485z" transform="translate(-58.956 44.686)"/><path d="m155.926 139.039-3.612-8.494 1.2-6.063a3.673 3.673 0 0 0 -3.3-4.027h-5.2a3.674 3.674 0 0 0 -3.3 4.027l1.2 6.063-3.613 8.494a1.234 1.234 0 0 0 1.136 1.717h3.808l.985 6.686a1.187 1.187 0 0 0 1.187 1.186h2.378a1.187 1.187 0 0 0 1.205-1.187l.985-6.686h3.808a1.234 1.234 0 0 0 1.136-1.717z" transform="translate(4.46 -67.102)"/><path d="m211.038 6.972a3.486 3.486 0 1 0 -3.486-3.485 3.486 3.486 0 0 0 3.486 3.485z" transform="translate(-82.086 44.518)"/><path d="m155.926 139.039-3.612-8.494 1.2-6.063a3.673 3.673 0 0 0 -3.3-4.027h-5.2a3.674 3.674 0 0 0 -3.3 4.027l1.2 6.063-3.613 8.494a1.234 1.234 0 0 0 1.136 1.717h3.808l.985 6.686a1.187 1.187 0 0 0 1.187 1.186h2.378a1.187 1.187 0 0 0 1.205-1.187l.985-6.686h3.808a1.234 1.234 0 0 0 1.136-1.717z" transform="translate(-18.67 -67.27)"/></g><circle cx="107.038" cy="107.039" fill="none" r="100.038" stroke="#eaeaea" stroke-miterlimit="10" stroke-width="14"/><path d="m1758.353 1383.405a99.95 99.95 0 0 1 93.018 63.154" fill="none" stroke="#e76c2b" stroke-miterlimit="10" stroke-width="14" transform="translate(-1651.314 -1376.405)"/><path d="m-18.9-4.116c1.5 0 2.534-1.232 2.534-3.318s-1.034-3.276-2.534-3.276-2.534 1.19-2.534 3.276 1.05 3.318 2.534 3.318zm0-1.176c-.6 0-1.078-.616-1.078-2.142s.478-2.114 1.078-2.114 1.092.588 1.092 2.114-.476 2.142-1.092 2.142zm7.574 5.362c1.484 0 2.534-1.232 2.534-3.3s-1.05-3.29-2.534-3.29-2.548 1.2-2.548 3.29 1.064 3.3 2.548 3.3zm0-1.162c-.616 0-1.092-.63-1.092-2.142 0-1.54.476-2.114 1.092-2.114s1.078.574 1.078 2.114c0 1.512-.462 2.142-1.078 2.142zm-7.224 1.162h1.218l5.67-10.78h-1.232zm20.2-6.916a14.274 14.274 0 0 0 -2.21-3.36l-1.512.756a14.267 14.267 0 0 1 2.086 3.472zm-2.56 2.478c-.7.28-1.414.574-2.114.868l-.252-7.574-1.736.074.28 8.176c-.7.28-1.33.5-1.862.686l.56 1.778c1.582-.662 3.654-1.54 5.502-2.37zm7.6 4.186a30.533 30.533 0 0 0 -3.108-3.6 21.64 21.64 0 0 0 1.708-7.112l-1.832-.166c-.518 5.754-1.958 9.142-6.398 10.822a9.788 9.788 0 0 1 1.33 1.47 10 10 0 0 0 4.256-3.4 24.529 24.529 0 0 1 2.618 3.368zm8.876-.966v-4.844h4.944v-1.694h-4.942v-4h-1.792v10.538h-5.012v1.68h12.726v-1.68z" fill="#e76d2b" transform="translate(106.226 186.889)"/><path d="m-31.169-9.089h23.869v9.089h-43.04l22.24-26.936q3.279-4.026 5.5-6.973a53 53 0 0 0 3.383-4.939 13.882 13.882 0 0 0 2.366-7.014 10 10 0 0 0 -3.149-7.512 10.828 10.828 0 0 0 -7.8-3.03q-9.712 0-11.123 11.5h-9.637q2.325-20.257 20.46-20.257a20.668 20.668 0 0 1 14.694 5.561 18.064 18.064 0 0 1 5.977 13.78 20.933 20.933 0 0 1 -2.781 10.251 50.223 50.223 0 0 1 -4.13 6.2q-2.719 3.59-6.869 8.488zm34.78-23.367q0-15.315 7.139-24.446 6.392-8.259 15.481-8.259t15.48 8.261q7.139 9.131 7.139 24.861 0 15.688-7.139 24.819-6.391 8.258-15.439 8.258t-15.522-8.26q-7.139-9.131-7.139-25.234zm9.5.042q0 10.667 3.694 17.722 3.695 6.931 9.425 6.931 5.686 0 9.421-6.931 3.735-6.89 3.735-17.39t-3.734-17.432q-3.735-6.886-9.422-6.886-5.645 0-9.38 6.89-3.735 6.844-3.735 17.095z" fill="#e76c2b" transform="translate(107.226 160.889)"/></svg>