<svg height="215.489" viewBox="0 0 215.489 215.489" width="215.489" xmlns="http://www.w3.org/2000/svg"><path d="m508.317 165.192a14.276 14.276 0 1 0 -14.276-14.276v.005a14.277 14.277 0 0 0 14.276 14.271z" fill="#eaeaea" transform="translate(-399.839 -103.489)"/><path d="m499.9 278.617 4.922-24.83c.512-9.426-6.579-16.493-13.5-16.493h-21.282c-6.914 0-14 7.067-13.5 16.493l4.93 24.83-10.108 23.765h58.638z" fill="#eaeaea" transform="translate(-372.209 -168.655)"/><path d="m440.007 439.548a5.056 5.056 0 0 0 1.976.4h15.594l4.033 27.38a4.861 4.861 0 0 0 4.859 4.858h9.739a4.859 4.859 0 0 0 4.859-4.858l4.033-27.38h15.6a5.054 5.054 0 0 0 4.651-7.03v.005l-4.694-11.023h-58.64l-4.687 11.02a5.054 5.054 0 0 0 2.677 6.628z" fill="#e76d2b" transform="translate(-362.862 -288.175)"/><ellipse cx="107.744" cy="107.744" fill="none" rx="100.744" ry="100.744" stroke="#eaeaea" stroke-miterlimit="10" stroke-width="14"/><path d="m2308.353 833.405a100.752 100.752 0 0 1 81.247 160.326" fill="none" stroke="#e76c2b" stroke-miterlimit="10" stroke-width="14" transform="translate(-2200.608 -826.405)"/><path d="m-18.9-4.116c1.5 0 2.534-1.232 2.534-3.318s-1.034-3.276-2.534-3.276-2.534 1.19-2.534 3.276 1.05 3.318 2.534 3.318zm0-1.176c-.6 0-1.078-.616-1.078-2.142s.478-2.114 1.078-2.114 1.092.588 1.092 2.114-.476 2.142-1.092 2.142zm7.574 5.362c1.484 0 2.534-1.232 2.534-3.3s-1.05-3.29-2.534-3.29-2.548 1.2-2.548 3.29 1.064 3.3 2.548 3.3zm0-1.162c-.616 0-1.092-.63-1.092-2.142 0-1.54.476-2.114 1.092-2.114s1.078.574 1.078 2.114c0 1.512-.462 2.142-1.078 2.142zm-7.224 1.162h1.218l5.67-10.78h-1.232zm20.2-6.916a14.274 14.274 0 0 0 -2.21-3.36l-1.512.756a14.267 14.267 0 0 1 2.086 3.472zm-2.56 2.478c-.7.28-1.414.574-2.114.868l-.252-7.574-1.736.074.28 8.176c-.7.28-1.33.5-1.862.686l.56 1.778c1.582-.662 3.654-1.54 5.502-2.37zm7.6 4.186a30.533 30.533 0 0 0 -3.108-3.6 21.64 21.64 0 0 0 1.708-7.112l-1.832-.166c-.518 5.754-1.958 9.142-6.398 10.822a9.788 9.788 0 0 1 1.33 1.47 10 10 0 0 0 4.256-3.4 24.529 24.529 0 0 1 2.618 3.368zm8.876-.966v-4.844h4.944v-1.694h-4.942v-4h-1.792v10.538h-5.012v1.68h12.726v-1.68z" fill="#fff" transform="translate(105.924 147.151)"/><path d="m-30.822-30.108v-8.356q6.215 0 8.356-1.386 3.821-2.436 3.821-7.811a8.853 8.853 0 0 0 -2.771-6.761 9.768 9.768 0 0 0 -7.1-2.646 9.182 9.182 0 0 0 -6.3 1.974q-2.142 2.016-3.191 6.8h-9.742q1.512-9.154 6.215-13.417t13.144-4.262q8.524 0 13.9 5.039a16.806 16.806 0 0 1 5.378 12.895 15.975 15.975 0 0 1 -7.055 13.857q8.067 4.745 8.067 15.411a18.745 18.745 0 0 1 -5.883 14.278q-5.879 5.543-15.076 5.543-11.716 0-17.385-8.608-2.352-3.611-2.981-9.994h9.448a11.488 11.488 0 0 0 3.674 7.2 11.31 11.31 0 0 0 7.622 2.5 10.569 10.569 0 0 0 7.853-3.148 11.339 11.339 0 0 0 3.107-8.188q0-6.551-4.661-9.322-2.729-1.598-8.44-1.598zm53.078 0v-8.356q6.215 0 8.356-1.386 3.821-2.436 3.821-7.811a8.853 8.853 0 0 0 -2.771-6.761 9.768 9.768 0 0 0 -7.1-2.646 9.182 9.182 0 0 0 -6.3 1.974q-2.142 2.016-3.191 6.8h-9.738q1.512-9.154 6.215-13.417t13.143-4.259q8.524 0 13.9 5.039a16.806 16.806 0 0 1 5.375 12.892 15.975 15.975 0 0 1 -7.055 13.857q8.063 4.745 8.063 15.411a18.745 18.745 0 0 1 -5.879 14.278q-5.879 5.543-15.075 5.543-11.72 0-17.385-8.609-2.352-3.611-2.982-9.994h9.447a11.488 11.488 0 0 0 3.674 7.2 11.31 11.31 0 0 0 7.622 2.5 10.569 10.569 0 0 0 7.854-3.147 11.339 11.339 0 0 0 3.107-8.188q0-6.551-4.661-9.322-2.729-1.598-8.44-1.598z" fill="#e76c2b" transform="translate(107.924 124.151)"/></svg>