<svg height="214.487" viewBox="0 0 214.487 214.487" width="214.487" xmlns="http://www.w3.org/2000/svg"><circle cx="107.243" cy="107.244" fill="none" r="100.243" stroke="#eaeaea" stroke-miterlimit="10" stroke-width="14"/><path d="m1758.353 833.405a99.973 99.973 0 0 1 37.448 7.229" fill="none" stroke="#e76c2b" stroke-miterlimit="10" stroke-width="14" transform="translate(-1651.109 -826.405)"/><path d="m-.938-.84v-2.73h4.746v2.73zm2.464-8.19a10.972 10.972 0 0 1 -1.946 2.562 19.742 19.742 0 0 0 -2.226-1.848c.238-.238.462-.476.686-.714zm4.018 3.948h-5a12.96 12.96 0 0 0 3.25-4.886l-1.148-.6-.28.084h-3.178c.252-.364.49-.728.7-1.092l-1.876-.35a11.184 11.184 0 0 1 -4.648 4.45 5.8 5.8 0 0 1 1.176 1.3 14.41 14.41 0 0 0 1.554-1.062 19.447 19.447 0 0 1 2.142 1.932 15.564 15.564 0 0 1 -4.9 2.422 5.32 5.32 0 0 1 .964 1.484 17.948 17.948 0 0 0 3.1-1.372v3.972h1.662v-.542h4.746v.56h1.736z" fill="#e76d2b" transform="translate(132 157.624)"/><path d="m-3.2-55.034h-11.077l5.313-9.048h15.439v64.082h-9.675z" fill="#e76c2b" transform="translate(103 159.624)"/><path d="m-34.2-4.56a7.908 7.908 0 0 0 2.364 5.76l1.136-.5a7.455 7.455 0 0 1 -2.144-5.26 7.455 7.455 0 0 1 2.144-5.256l-1.14-.5a7.908 7.908 0 0 0 -2.36 5.756zm8.424-.66h2.376v-1.392h-2.376v-3.42h-1.488v9.072c-.552.108-1.056.2-1.5.276l.4 1.464c1.476-.312 3.432-.744 5.244-1.164l-.132-1.4c-.828.18-1.692.372-2.52.54zm5.064 4.692c-.456 0-.516-.1-.516-.78v-3.48a30.272 30.272 0 0 0 3.468-1.524l-.984-1.248a17.987 17.987 0 0 1 -2.484 1.392v-3.864h-1.472v8.712c0 1.7.384 2.184 1.776 2.184h1.656c1.284 0 1.656-.78 1.8-2.808a4.357 4.357 0 0 1 -1.332-.624c-.084 1.632-.156 2.04-.6 2.04zm8.2-3.732-.216-.888c-1.1.432-2.256.876-3.012 1.116l.672 1.152c.648-.288 1.44-.66 2.2-1.032l.144.828c1.152-.084 2.616-.192 4.068-.324a4.646 4.646 0 0 1 .252.6l1.08-.48a4.957 4.957 0 0 0 -.408-.864 13.239 13.239 0 0 1 1.9 1.308l1.032-.856a15.249 15.249 0 0 0 -2.508-1.532l-.732.588c-.192-.288-.408-.576-.6-.828l-1.008.42c.144.2.3.42.432.648l-1.236.06a29.176 29.176 0 0 0 2.232-2.34l-1.116-.516c-.3.432-.684.912-1.092 1.4-.18-.144-.384-.288-.6-.444.348-.408.744-.9 1.116-1.38l-.264-.1h4.968v-1.264h-4.332v-1.164h-1.46v1.164h-4.224v1.272h3.924c-.168.3-.372.636-.564.924l-.288-.168-.552.66a11.965 11.965 0 0 0 -1.728-1.14l-.948.78a9.456 9.456 0 0 1 1.8 1.32l.876-.744a16.506 16.506 0 0 1 1.504 1.128c-.228.228-.456.456-.684.672zm5.544-1.212a17.707 17.707 0 0 0 1.844-1.476l-1.276-.612a10.9 10.9 0 0 1 -1.62 1.524zm-2.572 2.292h-1.46v.768h-4.608v1.32h4.608v2.136h1.46v-2.136h4.7v-1.32h-4.7zm9.96-1.164c.768 0 1.272.492 1.272 1.536 0 1.092-.552 1.644-1.212 1.644-.744 0-1.344-.624-1.512-2.244a1.736 1.736 0 0 1 1.452-.936zm.096 4.512a2.791 2.791 0 0 0 2.784-2.976c0-1.892-1.056-2.784-2.544-2.784a2.557 2.557 0 0 0 -1.824.96c.072-2.232.912-3 1.932-3a1.928 1.928 0 0 1 1.368.648l.936-1.056a3.269 3.269 0 0 0 -2.412-1.008c-1.788 0-3.432 1.416-3.432 4.728 0 3.132 1.5 4.488 3.192 4.488zm6.18 0a1.105 1.105 0 0 0 1.104-1.152 1.1 1.1 0 0 0 -1.1-1.152 1.1 1.1 0 0 0 -1.1 1.152 1.1 1.1 0 0 0 1.1 1.152zm5.148-.168h1.788c.144-3.48.42-5.292 2.484-7.812v-1.08h-5.9v1.492h4a12.254 12.254 0 0 0 -2.372 7.4zm8.34-3.42c1.272 0 2.172-1.044 2.172-2.832s-.9-2.8-2.172-2.8-2.16 1.02-2.16 2.8.888 2.832 2.16 2.832zm0-1c-.516 0-.912-.528-.912-1.836s.4-1.8.912-1.8.924.492.924 1.8-.408 1.84-.924 1.84zm.3 4.584h1.044l4.824-9.216h-1.044zm6.156 0c1.26 0 2.172-1.056 2.172-2.832s-.912-2.804-2.172-2.804-2.16 1.02-2.16 2.808.9 2.832 2.16 2.832zm0-1.008c-.516 0-.912-.516-.912-1.824s.4-1.812.912-1.812.924.5.924 1.812-.408 1.828-.924 1.828zm7.56-3.716a7.908 7.908 0 0 0 -2.364-5.76l-1.14.5a7.455 7.455 0 0 1 2.148 5.26 7.455 7.455 0 0 1 -2.144 5.26l1.14.5a7.908 7.908 0 0 0 2.36-5.76z" fill="#e76c2b" transform="translate(107 181.624)"/><path d="m116.5 8.423a4.212 4.212 0 1 0 -4.211-4.213 4.212 4.212 0 0 0 4.211 4.213z" fill="#eaeaea" transform="translate(-39.88 34.289)"/><path d="m59.368 102.479c-.854-2.882-2.767-4.793-4.919-4.793h-6.584c-2.152 0-4.067 1.91-4.921 4.793l-3.1 11a1.737 1.737 0 0 0 1.264 2.1 1.706 1.706 0 0 0 2.085-1.24l3.091-10.969h.912l-5.378 19.08h5.071v14.153a1.958 1.958 0 0 0 3.917 0v-14.151h1.08v14.153a1.959 1.959 0 0 0 3.918 0v-14.153h4.7l-5.379-19.08h.911l3.091 10.969a1.705 1.705 0 0 0 2.084 1.24 1.737 1.737 0 0 0 1.265-2.1z" fill="#eaeaea" transform="translate(25.461 -53.759)"/><path d="m116.5 8.423a4.212 4.212 0 1 0 -4.211-4.213 4.212 4.212 0 0 0 4.211 4.213z" fill="#e76d2b" transform="translate(17.563 34.289)"/><path d="m59.368 102.479c-.854-2.882-2.767-4.793-4.919-4.793h-6.584c-2.152 0-4.067 1.91-4.921 4.793l-3.1 11a1.737 1.737 0 0 0 1.264 2.1 1.706 1.706 0 0 0 2.085-1.24l3.091-10.969h.912l-5.378 19.08h5.071v14.153a1.958 1.958 0 0 0 3.917 0v-14.151h1.08v14.153a1.959 1.959 0 0 0 3.918 0v-14.153h4.7l-5.379-19.08h.911l3.091 10.969a1.705 1.705 0 0 0 2.084 1.24 1.737 1.737 0 0 0 1.265-2.1z" fill="#e76d2b" transform="translate(82.904 -53.759)"/><path d="m7.1 0 7.1 12.615h-14.2z" fill="#eaeaea" transform="matrix(0 1 -1 0 112.989 49.791)"/></svg>