<svg height="358.579" viewBox="0 0 285.089 358.579" width="285.089" xmlns="http://www.w3.org/2000/svg"><path d="m-59.5 1.579-5.1-3.779 10.991-14.982q-.894.119-1.519.179t-1.013.06a12.928 12.928 0 0 1 -9.65-4.259 14.2 14.2 0 0 1 -4.051-10.187 14.776 14.776 0 0 1 4.5-10.842 14.791 14.791 0 0 1 10.842-4.532 15.256 15.256 0 0 1 10.931 4.468 14.029 14.029 0 0 1 4.646 10.484q0 5.361-4.527 11.586zm-3.578-33.479a8.5 8.5 0 0 0 2.532 6.255 8.4 8.4 0 0 0 6.166 2.562 8.356 8.356 0 0 0 6.136-2.532 8.4 8.4 0 0 0 2.562-6.166 8.4 8.4 0 0 0 -2.562-6.166 8.391 8.391 0 0 0 -6.166-2.532 8.321 8.321 0 0 0 -6.106 2.532 8.269 8.269 0 0 0 -2.562 6.047zm47.678 25.377h17.13v6.523h-30.887l15.965-19.331q2.353-2.889 3.947-5a38.037 38.037 0 0 0 2.427-3.544 9.962 9.962 0 0 0 1.7-5.034 7.174 7.174 0 0 0 -2.266-5.391 7.77 7.77 0 0 0 -5.6-2.174q-6.97 0-7.982 8.25h-6.91q1.668-14.535 14.684-14.535a14.832 14.832 0 0 1 10.544 3.988 12.964 12.964 0 0 1 4.289 9.889 15.022 15.022 0 0 1 -2 7.357 36.042 36.042 0 0 1 -2.964 4.453q-1.947 2.572-4.925 6.09zm32.524 3.187a3.95 3.95 0 0 1 1.221-2.889 3.983 3.983 0 0 1 2.919-1.221 3.983 3.983 0 0 1 2.919 1.221 3.983 3.983 0 0 1 1.217 2.919 4.018 4.018 0 0 1 -1.217 2.949 3.969 3.969 0 0 1 -2.919 1.191 4.005 4.005 0 0 1 -2.949-1.191 4.041 4.041 0 0 1 -1.191-2.979zm44.286-36.164h-22.7v-6.493h34.29l-29.014 47.572-5.51-3.485z" fill="#e76c2b" transform="translate(148.089 357)"/><path d="m-3.773-3.99c1.484 0 2.534-1.218 2.534-3.3s-1.05-3.262-2.534-3.262-2.52 1.19-2.52 3.262 1.036 3.3 2.52 3.3zm0-1.162c-.6 0-1.064-.616-1.064-2.142s.462-2.1 1.064-2.1 1.073.574 1.073 2.1-.471 2.142-1.073 2.142zm.35 5.352h1.223l5.623-10.756h-1.223zm7.182 0c1.47 0 2.534-1.232 2.534-3.3s-1.064-3.284-2.534-3.284-2.52 1.19-2.52 3.276 1.05 3.308 2.52 3.308zm0-1.176c-.6 0-1.064-.6-1.064-2.128s.462-2.114 1.064-2.114 1.078.588 1.078 2.114-.476 2.124-1.078 2.124z" fill="#e76c2b" transform="translate(238.089 357)"/><circle cx="142.589" cy="142.5" fill="#eaeaea" r="142.5"/><path d="m2999.746 1377.294a142.2 142.2 0 1 1 -55.4 11.184l55.4 131.139z" fill="#e76c2b" transform="translate(-2857.423 -1377.294)"/><circle cx="142.089" cy="143" fill="#fff" r="58"/><path d="m-31.176-12.69a13.839 13.839 0 0 1 -.72 1.566l.288.072h-4.428l.36-.09a6.871 6.871 0 0 0 -.612-1.548zm5.148 1.638h-4.212c.27-.432.558-.954.882-1.548l-.45-.09h2.844v-1.332h-5.976v-1.078h-1.674v1.08h-5.958v1.332h3.042l-.414.09a8.146 8.146 0 0 1 .612 1.548h-4.068v1.35h15.372zm-3.528 4.176h-8.3v-.81h8.3zm0 1.962h-8.3v-.828h8.3zm1.656-4.014h-11.556v5.256h4.392l-.684.684a13.034 13.034 0 0 1 2.934 1.782l1.026-1.062a13.354 13.354 0 0 0 -2.376-1.4h6.264zm-12.8 9.972a6.718 6.718 0 0 0 2.54-3.456l-1.386-.522a5.985 5.985 0 0 1 -2.466 3.078zm5.922-1.17c-.882 0-1.044-.072-1.044-.5v-2.128h-1.62v2.142c0 1.458.5 1.854 2.5 1.854h3.168c1.548 0 2-.486 2.2-2.484a4.767 4.767 0 0 1 -1.44-.54c-.072 1.458-.2 1.656-.9 1.656zm4.95-2.214a13.734 13.734 0 0 1 2.99 3.258l1.386-.828a15.111 15.111 0 0 0 -3.1-3.2zm26.876-8.66a11.41 11.41 0 0 0 -1.764-3.15l-1.26.486a11.529 11.529 0 0 1 1.656 3.24zm-5.022-2.23h-2.088v-1.87h-1.548v1.872h-2.142v1.278h5.778zm-6.462-1.278h-4.3v1.314h4.3zm.45 2.376h-5.544v1.332h5.544zm-.432 2.448h-4.392v1.3h4.392zm-4.392 3.708h4.392v-1.314h-4.392zm3.1 2.466v2.592h-1.84v-2.592zm1.332-1.35h-4.482v6.048h1.314v-.788h3.168zm1.278-6.714a8.437 8.437 0 0 1 .468 2.5l1.224-.288a8.255 8.255 0 0 0 -.54-2.466zm1.062 9.7v-1.276h2.286v1.278zm2.286-3.654v1.228h-2.286v-1.226zm4.986-1.4a14.89 14.89 0 0 1 -1.084 2.628c-.09-.972-.18-2.106-.234-3.384h2.952v-1.388h-2.988c-.036-1.8-.054-3.816-.018-6.012h-1.44c0 2.2.018 4.212.072 6.012h-1.728c.216-.648.468-1.656.738-2.574l-1.386-.27a20.926 20.926 0 0 1 -.522 2.61l1.08.234h-4.876v1.386h6.75a44.094 44.094 0 0 0 .466 5.166 11.6 11.6 0 0 1 -1.386 1.548v-5.76h-4.986v6.912h1.314v-.828h3.312a10.3 10.3 0 0 1 -1.476 1.08 6.569 6.569 0 0 1 .936.936 12.464 12.464 0 0 0 2.682-2.25c.468 1.476 1.152 2.282 2.16 2.358.648.018 1.314-.63 1.692-3.132a4.837 4.837 0 0 1 -1.044-.918c-.108 1.368-.306 2.25-.594 2.232-.486-.054-.864-.72-1.134-1.89a15.535 15.535 0 0 0 2.016-4.014zm15.444-4.95h2.088v3.578c0 .2-.054.252-.27.252-.216.018-.972.018-1.728-.018a6.606 6.606 0 0 1 .45 1.476 7.094 7.094 0 0 0 2.5-.234c.576-.234.666-.666.666-1.422v-3.634h4.752v-1.548h-7.036v-1.672h-1.71v1.674h-6.952v1.548h5.652a5.038 5.038 0 0 1 -2.682 4.84 6.109 6.109 0 0 1 1.224 1.138 6.325 6.325 0 0 0 3.042-5.94zm4.478 1.478a19.374 19.374 0 0 1 2.916 3.51l1.422-.846a19.4 19.4 0 0 0 -3.06-3.42zm-9.216-.688a7.97 7.97 0 0 1 -2.84 3.078 8.4 8.4 0 0 1 1.152.99 11.126 11.126 0 0 0 3.276-3.636zm2.808 6.75h5.452a9.474 9.474 0 0 1 -2.842 2.178 8.3 8.3 0 0 1 -2.628-2.16zm6.84-1.422-.288.072h-5.148c.288-.324.558-.666.81-1.008l-1.762-.324a11.665 11.665 0 0 1 -5.672 3.92 4.783 4.783 0 0 1 1.062 1.246 17.989 17.989 0 0 0 2.934-1.584 10.264 10.264 0 0 0 2.124 2.016 28 28 0 0 1 -6.624 1.386 4.854 4.854 0 0 1 .81 1.494 27.138 27.138 0 0 0 7.434-1.908 20.5 20.5 0 0 0 7.326 1.872 7.352 7.352 0 0 1 .99-1.566 23.687 23.687 0 0 1 -6.516-1.242 10.293 10.293 0 0 0 3.618-3.636zm14.612-9.072a19.556 19.556 0 0 1 -5.076 7.11 11.489 11.489 0 0 1 1.008 1.746 19.739 19.739 0 0 0 2.088-2.268v9.63h1.68v-11.986a25.851 25.851 0 0 0 1.944-3.69zm6.034 14.432c-.936 0-1.116-.18-1.116-1.206v-4.91a43.6 43.6 0 0 0 6.21-3.726l-1.206-1.458a28.541 28.541 0 0 1 -5 3.474v-6.444h-1.678v13.05c0 2.178.594 2.79 2.628 2.79h3.4c1.962 0 2.448-1.062 2.664-4.05a4.928 4.928 0 0 1 -1.566-.72c-.144 2.574-.27 3.2-1.206 3.2z" transform="translate(142.089 151)"/><path d="m-35.826-3.164a6.915 6.915 0 0 1 -1.9 1.372 5.972 5.972 0 0 1 -1.792-1.372zm1.4-1.372-.294.056h-3.57c.182-.224.35-.448.518-.672l-1.47-.294a5.36 5.36 0 0 0 1.162-3.668h1.274v2.478c0 .14-.042.182-.21.182s-.7 0-1.19-.014a5.507 5.507 0 0 1 .462 1.456 4.964 4.964 0 0 0 1.974-.238c.476-.238.588-.644.588-1.344v-2.52h3.6v-1.526h-5.362v-1.2h-1.708v1.2h-5.32v1.526h4.34a3.733 3.733 0 0 1 -1.948 3.486 6.037 6.037 0 0 1 1.19 1.12 9.764 9.764 0 0 1 -3.57 1.988 4.462 4.462 0 0 1 1.05 1.232 13.454 13.454 0 0 0 2.156-1.078 8.424 8.424 0 0 0 1.3 1.246 21.99 21.99 0 0 1 -4.914.868 5.483 5.483 0 0 1 .784 1.5 21.491 21.491 0 0 0 5.77-1.374 16.165 16.165 0 0 0 5.67 1.33 7.28 7.28 0 0 1 .966-1.568 19.928 19.928 0 0 1 -4.788-.728 7.717 7.717 0 0 0 2.618-2.716zm-7.756-4.116a5.877 5.877 0 0 1 -2.058 2.352 10.011 10.011 0 0 1 1.148.966 8.692 8.692 0 0 0 2.464-2.9zm7.392.686a15 15 0 0 1 2.128 2.73l1.386-.854a16.433 16.433 0 0 0 -2.224-2.618zm9.1-3.71a14.467 14.467 0 0 1 -3.822 5.446 12.215 12.215 0 0 1 .966 1.764 15.861 15.861 0 0 0 1.386-1.484v7.14h1.666v-9.49a22.549 22.549 0 0 0 1.456-2.828zm5.152 11.176c-.672 0-.77-.14-.77-.966v-3.534a33.914 33.914 0 0 0 4.76-2.7l-1.232-1.456a23.812 23.812 0 0 1 -3.528 2.45v-4.788h-1.68v10.01c0 1.974.5 2.534 2.268 2.534h2.394c1.652 0 2.086-.882 2.282-3.29a4.806 4.806 0 0 1 -1.54-.714c-.116 1.974-.224 2.454-.896 2.454zm12.348-10.462-2.086-.21a14.248 14.248 0 0 1 -.294 2.954c-.714.07-1.372.112-1.806.126a13.368 13.368 0 0 1 -1.5 0l.168 1.9c.434-.07 1.162-.168 1.568-.238.252-.028.7-.084 1.2-.14a21.423 21.423 0 0 1 -2.836 6.584l1.82.728a29.5 29.5 0 0 0 2.856-7.504c.406-.028.756-.056.98-.056.868 0 1.358.154 1.358 1.274a11.111 11.111 0 0 1 -.574 3.878 1.027 1.027 0 0 1 -1.05.6 8.09 8.09 0 0 1 -1.708-.294l.294 1.85a9.2 9.2 0 0 0 1.68.2 2.225 2.225 0 0 0 2.296-1.29 13.717 13.717 0 0 0 .8-5.138c0-2.016-1.05-2.674-2.534-2.674-.294 0-.7.028-1.176.056.1-.5.21-1.022.294-1.442.068-.352.166-.802.25-1.164zm6.23-1.162-1.12.448a15.834 15.834 0 0 1 1.134 1.932l1.106-.476a18.625 18.625 0 0 0 -1.12-1.904zm-1.666.63-1.106.462a15.478 15.478 0 0 1 .952 1.652l-1.26.546a15.744 15.744 0 0 1 2.352 5.25l1.778-.816a25.405 25.405 0 0 0 -2.282-4.882l.686-.294c-.266-.518-.77-1.4-1.12-1.918zm11.126.224-1.82-.042c.014.238-.014.574-.028.84q-.042.357-.084.756h-.56a19.783 19.783 0 0 1 -2.576-.2l.042 1.624c.658.028 1.75.084 2.478.084h.448q-.084.861-.126 1.764c-1.96.924-3.444 2.8-3.444 4.606a1.811 1.811 0 0 0 1.894 2.038 5 5 0 0 0 2.17-.56c.056.2.126.392.182.574l1.61-.49c-.112-.336-.224-.686-.322-1.036a10.75 10.75 0 0 0 2.936-4.26 2.082 2.082 0 0 1 1.456 1.96c0 1.372-1.092 2.744-3.794 3.038l.928 1.474c3.444-.522 4.61-2.44 4.61-4.428a3.621 3.621 0 0 0 -2.7-3.43c.084-.266.2-.56.252-.714l-1.714-.406a7.691 7.691 0 0 1 -.126.84h-.252a9.55 9.55 0 0 0 -2.086.252c.014-.42.056-.854.1-1.274a38.531 38.531 0 0 0 4.97-.49l-.014-1.624a24.572 24.572 0 0 1 -4.76.616c.042-.28.1-.532.14-.77.054-.21.11-.462.19-.742zm-4.014 9.07a3.652 3.652 0 0 1 1.75-2.576 19.508 19.508 0 0 0 .294 2.8 2.984 2.984 0 0 1 -1.4.462c-.448.002-.644-.236-.644-.686zm3.332-3.26v-.04a6.979 6.979 0 0 1 1.932-.31 8.621 8.621 0 0 1 -1.764 2.674 14.727 14.727 0 0 1 -.168-2.324zm10.864-.462.728 1.822c1.19-.5 3.99-1.666 5.614-1.666a1.8 1.8 0 0 1 2 1.778c0 1.9-2.352 2.758-5.558 2.842l.744 1.72c4.452-.28 6.678-2 6.678-4.536 0-2.114-1.484-3.43-3.7-3.43a19.722 19.722 0 0 0 -5.022 1.092c-.42.126-1.066.294-1.484.378zm21.336 2.506-1.666-.168a9.79 9.79 0 0 0 -.252 1.876c0 1.414 1.274 2.226 3.626 2.226a22.474 22.474 0 0 0 2.856-.2l.07-1.792a16.43 16.43 0 0 1 -2.912.294c-1.5 0-1.918-.462-1.918-1.078a4.8 4.8 0 0 1 .196-1.158zm-1.582-7.756-2.142-.168a7.177 7.177 0 0 1 -.042 1.414q-.042.336-.126.8-.651.042-1.26.042a13.855 13.855 0 0 1 -1.766-.116l.042 1.75c.49.028 1.022.056 1.694.056.294 0 .6-.014.924-.028-.084.406-.2.8-.294 1.176a30.312 30.312 0 0 1 -2.422 6.3l1.946.658a43.5 43.5 0 0 0 2.226-6.482c.154-.574.294-1.19.42-1.792a25.773 25.773 0 0 0 2.73-.462v-1.75c-.77.182-1.554.336-2.338.448.042-.2.084-.378.112-.532.06-.306.184-.936.296-1.314zm.826 4.228v1.638a24.054 24.054 0 0 1 2.7-.14 20.524 20.524 0 0 1 2.408.168l.042-1.68a24.62 24.62 0 0 0 -2.464-.126c-.894 0-1.902.07-2.686.14z" fill="#fff" transform="translate(142.089 246)"/></svg>