<svg xmlns="http://www.w3.org/2000/svg" width="561.61" height="51.66" viewBox="0 0 561.61 51.66">
  <path id="パス_12278" data-name="パス 12278" d="M-281.75-46.69-267.82,0h12.32l8.96-27.02L-238.07,0h12.39l14.91-46.69h-12.67l-8.82,30.17-9.17-30.17h-9.66l-9.87,30.17-8.12-30.17ZM-177.1-22.82a7.707,7.707,0,0,1,4.97,2.03,7.6,7.6,0,0,1,2.17,5.11,6.9,6.9,0,0,1-2.17,4.97,7.119,7.119,0,0,1-4.97,2.1,7.157,7.157,0,0,1-5.04-2.1,7.231,7.231,0,0,1-2.17-4.97,7.217,7.217,0,0,1,2.17-5.11A7.74,7.74,0,0,1-177.1-22.82Zm18.76,7.14a15.466,15.466,0,0,0-4.83-11.48,19.766,19.766,0,0,0-14-5.18c-6.79,0-11.34,2.66-13.93,5.18a15.466,15.466,0,0,0-4.83,11.48A15.615,15.615,0,0,0-191.1-4.13c4.34,4.27,9.38,5.18,13.93,5.18,5.04,0,9.87-1.12,14-5.18A15.615,15.615,0,0,0-158.34-15.68ZM-137.9,0h11.2V-15.47c0-1.96,0-4.97,1.96-6.86a3.943,3.943,0,0,1,3.08-1.12,4.342,4.342,0,0,1,3.36,1.26c1.26,1.33,1.47,3.71,1.47,6.72V0h11.2V-16.03c0-1.54.14-4.13,2.03-5.95a4.533,4.533,0,0,1,3.29-1.26,4.085,4.085,0,0,1,2.94,1.05c1.26,1.19,1.61,3.43,1.61,6.72V0h11.2V-20.37c0-2.17-.14-5.88-2.94-8.61-2.59-2.52-6.37-2.87-8.68-2.87a12.691,12.691,0,0,0-6.51,1.54,11,11,0,0,0-4.27,4.34,9.774,9.774,0,0,0-4.34-4.48,12.737,12.737,0,0,0-6.02-1.4,12.02,12.02,0,0,0-9.38,4.34v-3.78h-11.2ZM-29.61-14.77c0-3.5-.56-8.96-4.97-13.16-3.71-3.5-8.4-4.27-12.04-4.27-6.16,0-10.22,2.03-12.81,4.55a16.7,16.7,0,0,0-4.69,12.11A16.388,16.388,0,0,0-59.5-3.71c3.85,3.85,8.82,4.76,12.95,4.76,6.79,0,10.43-2.1,12.74-4.34a14.065,14.065,0,0,0,3.78-6.44H-40.74a5.212,5.212,0,0,1-1.96,2.1,8.837,8.837,0,0,1-3.64.84,6.292,6.292,0,0,1-4.62-1.54,7.9,7.9,0,0,1-1.96-5.25h23.31Zm-22.96-5.25a6.387,6.387,0,0,1,1.68-3.36,6.018,6.018,0,0,1,4.55-1.68,6.525,6.525,0,0,1,4.62,1.68,7.508,7.508,0,0,1,1.82,3.36ZM-9.17,0H2.03V-16.8a7.2,7.2,0,0,1,1.82-4.97,6.129,6.129,0,0,1,4.13-1.47,4.689,4.689,0,0,1,3.57,1.33c1.47,1.54,1.4,4.27,1.4,6.09V0h11.2V-19.88c0-3.43-.28-6.09-2.94-8.75a12.653,12.653,0,0,0-9.24-3.36,11.8,11.8,0,0,0-9.94,4.62v-3.92H-9.17ZM63.35-22.82a7.707,7.707,0,0,1,4.97,2.03,7.6,7.6,0,0,1,2.17,5.11,6.9,6.9,0,0,1-2.17,4.97,7.119,7.119,0,0,1-4.97,2.1,7.157,7.157,0,0,1-5.04-2.1,7.232,7.232,0,0,1-2.17-4.97,7.217,7.217,0,0,1,2.17-5.11A7.74,7.74,0,0,1,63.35-22.82Zm18.76,7.14a15.466,15.466,0,0,0-4.83-11.48,19.766,19.766,0,0,0-14-5.18c-6.79,0-11.34,2.66-13.93,5.18a15.466,15.466,0,0,0-4.83,11.48A15.615,15.615,0,0,0,49.35-4.13C53.69.14,58.73,1.05,63.28,1.05c5.04,0,9.87-1.12,14-5.18A15.615,15.615,0,0,0,82.11-15.68ZM102.55,0h11.2V-15.47c0-1.96,0-4.97,1.96-6.86a3.943,3.943,0,0,1,3.08-1.12,4.342,4.342,0,0,1,3.36,1.26c1.26,1.33,1.47,3.71,1.47,6.72V0h11.2V-16.03c0-1.54.14-4.13,2.03-5.95a4.533,4.533,0,0,1,3.29-1.26,4.085,4.085,0,0,1,2.94,1.05c1.26,1.19,1.61,3.43,1.61,6.72V0h11.2V-20.37c0-2.17-.14-5.88-2.94-8.61-2.59-2.52-6.37-2.87-8.68-2.87a12.691,12.691,0,0,0-6.51,1.54,11,11,0,0,0-4.27,4.34,9.774,9.774,0,0,0-4.34-4.48,12.737,12.737,0,0,0-6.02-1.4,12.02,12.02,0,0,0-9.38,4.34v-3.78h-11.2Zm75.11-31.29V0h11.2V-31.29Zm-.7-13.02a6.274,6.274,0,0,0,6.3,6.3,6.274,6.274,0,0,0,6.3-6.3,6.274,6.274,0,0,0-6.3-6.3A6.274,6.274,0,0,0,176.96-44.31Zm57.19,34.23a8.472,8.472,0,0,1-5.74,2.1,7.6,7.6,0,0,1-5.74-2.38,8.036,8.036,0,0,1-1.96-5.25A7.616,7.616,0,0,1,222.88-21a7.34,7.34,0,0,1,5.46-2.17,9.983,9.983,0,0,1,5.81,2.03v-9.38a16.055,16.055,0,0,0-7.28-1.75,18.047,18.047,0,0,0-12.6,4.76,17.04,17.04,0,0,0-5.04,12.11,16.374,16.374,0,0,0,4.83,11.69,17.281,17.281,0,0,0,12.32,4.76A16.612,16.612,0,0,0,234.15-.7Zm18.41,7.49a23.085,23.085,0,0,0,12.6,3.64c2.59,0,7.91-.28,11.55-3.92a10.457,10.457,0,0,0,3.15-7.77,8.849,8.849,0,0,0-2.38-6.23,13.223,13.223,0,0,0-4.62-2.45l-2.03-.56c-1.75-.49-2.66-.49-3.71-.91a1.823,1.823,0,0,1-1.33-1.75,1.678,1.678,0,0,1,.98-1.54,4.729,4.729,0,0,1,2.59-.63,15.5,15.5,0,0,1,5.88,1.54l3.78-7.14a25.826,25.826,0,0,0-10.01-2.03c-4.62,0-8.82,1.33-11.2,3.78a11.181,11.181,0,0,0-2.94,7.63,7.568,7.568,0,0,0,2.03,5.39,10.067,10.067,0,0,0,5.46,2.73l2.94.7a6.985,6.985,0,0,1,2.94,1.12,1.661,1.661,0,0,1,.56,1.4,1.8,1.8,0,0,1-.56,1.47,4.749,4.749,0,0,1-2.87.84,14.576,14.576,0,0,1-4.34-.77,16.025,16.025,0,0,1-4.48-2.31Z" transform="translate(281.75 50.61)" fill="#fff"/>
</svg>
