<svg height="50.992" viewBox="0 0 229.531 50.992" width="229.531" xmlns="http://www.w3.org/2000/svg"><g fill="#e76c2b"><path d="m-59.5 1.579-5.1-3.779 10.991-14.982q-.894.119-1.519.179t-1.013.06a12.928 12.928 0 0 1 -9.65-4.259 14.2 14.2 0 0 1 -4.051-10.187 14.776 14.776 0 0 1 4.5-10.842 14.791 14.791 0 0 1 10.842-4.532 15.256 15.256 0 0 1 10.931 4.468 14.029 14.029 0 0 1 4.646 10.484q0 5.361-4.527 11.586zm-3.578-33.479a8.5 8.5 0 0 0 2.532 6.255 8.4 8.4 0 0 0 6.166 2.562 8.356 8.356 0 0 0 6.136-2.532 8.4 8.4 0 0 0 2.562-6.166 8.4 8.4 0 0 0 -2.562-6.166 8.391 8.391 0 0 0 -6.166-2.532 8.321 8.321 0 0 0 -6.106 2.532 8.269 8.269 0 0 0 -2.562 6.047zm47.678 25.377h17.13v6.523h-30.887l15.965-19.331q2.353-2.889 3.947-5a38.037 38.037 0 0 0 2.427-3.544 9.962 9.962 0 0 0 1.7-5.034 7.174 7.174 0 0 0 -2.266-5.391 7.77 7.77 0 0 0 -5.6-2.174q-6.97 0-7.982 8.25h-6.91q1.668-14.535 14.684-14.535a14.832 14.832 0 0 1 10.544 3.988 12.964 12.964 0 0 1 4.289 9.889 15.022 15.022 0 0 1 -2 7.357 36.042 36.042 0 0 1 -2.964 4.453q-1.947 2.572-4.925 6.09zm32.524 3.187a3.95 3.95 0 0 1 1.221-2.889 3.983 3.983 0 0 1 2.919-1.221 3.983 3.983 0 0 1 2.919 1.221 3.983 3.983 0 0 1 1.217 2.919 4.018 4.018 0 0 1 -1.217 2.949 3.969 3.969 0 0 1 -2.919 1.191 4.005 4.005 0 0 1 -2.949-1.191 4.041 4.041 0 0 1 -1.191-2.979zm48.515-9.5h4.885v6.314h-4.885v6.522h-6.939v-6.523h-22.578l29.517-42.891zm-6.94 0v-15.4l-10.6 15.4z" transform="translate(133.238 49.414)"/><path d="m-3.773-3.99c1.484 0 2.534-1.218 2.534-3.3s-1.05-3.262-2.534-3.262-2.52 1.19-2.52 3.262 1.036 3.3 2.52 3.3zm0-1.162c-.6 0-1.064-.616-1.064-2.142s.462-2.1 1.064-2.1 1.073.574 1.073 2.1-.471 2.142-1.073 2.142zm.35 5.352h1.223l5.623-10.756h-1.223zm7.182 0c1.47 0 2.534-1.232 2.534-3.3s-1.064-3.284-2.534-3.284-2.52 1.19-2.52 3.276 1.05 3.308 2.52 3.308zm0-1.176c-.6 0-1.064-.6-1.064-2.128s.462-2.114 1.064-2.114 1.078.588 1.078 2.114-.476 2.124-1.078 2.124z" transform="translate(223.238 49.414)"/><path d="m-13.93-1.05h-2.422v-.91h2.422zm4.48-4.032h-11.228v6.3h1.624v-4.918h7.924v3.126c0 .168-.056.21-.266.224-.154.014-.588.014-1.064 0v-2.716h-5.348v3.766h1.456v-.63h3.612a4.722 4.722 0 0 1 .322 1.12 5.588 5.588 0 0 0 2.268-.266c.546-.252.7-.7.7-1.47zm-3.542-1.708h-4.368v-.854h4.368zm-5.95-1.96v3.08h7.642v-3.08zm4.578-1.946v-1.176h-1.694v1.172h-5.18v1.414h12.238v-1.414zm12.764-.728h-4.224v1.26h4.224zm.532 1.876h-5.47v1.316h5.474zm-1.96 7.112v1.61h-1.48v-1.61zm1.442-1.316h-4.34v4.774h1.414v-.546h2.926zm-4.3-.686h4.312v-1.246h-4.306zm0-1.89h4.312v-1.272h-4.306zm12.418 1.2h-3.088v-4.49h2.842v-1.554h-7.086v1.554h2.6v4.494h-3.088v1.582h3.094v4.742h1.638v-4.742h3.094zm-7.218-3.636a16.823 16.823 0 0 1 .574 3.276l1.4-.336a16.687 16.687 0 0 0 -.63-3.22zm5.824 3.248c.35-.84.728-2.156 1.078-3.332l-1.582-.308a20.5 20.5 0 0 1 -.77 3.318zm6.23-6.314a14.534 14.534 0 0 1 -3.038 5.082 12.672 12.672 0 0 1 .854 1.68 10.864 10.864 0 0 0 .854-1.032v7.3h1.568v-9.8a24.3 24.3 0 0 0 1.26-2.758zm6.076 4.578h-.924v-1.748h.924zm2.338 5.936h-.938v-4.494h.938zm-5.544-4.494h.868v4.494h-.868zm3.206 0v4.494h-.938v-4.494zm4-3.192v-1.484h-8.89v1.486h2.394v1.75h-2.248v8.16h1.54v-.8h5.544v.716h1.6v-8.078h-2.372v-1.748z" transform="translate(21.238 36.414)"/></g></svg>