<svg height="50.992" viewBox="0 0 140.363 50.992" width="140.363" xmlns="http://www.w3.org/2000/svg"><path d="m-59.5 1.579-5.1-3.779 10.991-14.982q-.894.119-1.519.179t-1.013.06a12.928 12.928 0 0 1 -9.65-4.259 14.2 14.2 0 0 1 -4.051-10.187 14.776 14.776 0 0 1 4.5-10.842 14.791 14.791 0 0 1 10.842-4.532 15.256 15.256 0 0 1 10.931 4.468 14.029 14.029 0 0 1 4.646 10.484q0 5.361-4.527 11.586zm-3.578-33.479a8.5 8.5 0 0 0 2.532 6.255 8.4 8.4 0 0 0 6.166 2.562 8.356 8.356 0 0 0 6.136-2.532 8.4 8.4 0 0 0 2.562-6.166 8.4 8.4 0 0 0 -2.562-6.166 8.391 8.391 0 0 0 -6.166-2.532 8.321 8.321 0 0 0 -6.106 2.532 8.269 8.269 0 0 0 -2.562 6.047zm47.678 25.377h17.13v6.523h-30.887l15.965-19.331q2.353-2.889 3.947-5a38.037 38.037 0 0 0 2.427-3.544 9.962 9.962 0 0 0 1.7-5.034 7.174 7.174 0 0 0 -2.266-5.391 7.77 7.77 0 0 0 -5.6-2.174q-6.97 0-7.982 8.25h-6.91q1.668-14.535 14.684-14.535a14.832 14.832 0 0 1 10.544 3.988 12.964 12.964 0 0 1 4.289 9.889 15.022 15.022 0 0 1 -2 7.357 36.042 36.042 0 0 1 -2.964 4.453q-1.947 2.572-4.925 6.09zm32.524 3.187a3.95 3.95 0 0 1 1.221-2.889 3.983 3.983 0 0 1 2.919-1.221 3.983 3.983 0 0 1 2.919 1.221 3.983 3.983 0 0 1 1.217 2.919 4.018 4.018 0 0 1 -1.217 2.949 3.969 3.969 0 0 1 -2.919 1.191 4.005 4.005 0 0 1 -2.949-1.191 4.041 4.041 0 0 1 -1.191-2.979zm48.515-9.5h4.885v6.314h-4.885v6.522h-6.939v-6.523h-22.578l29.517-42.891zm-6.94 0v-15.4l-10.6 15.4z" fill="#e76c2b" transform="translate(69.839 49.414)"/></svg>