<svg height="160.232" viewBox="0 0 185 160.232" width="185" xmlns="http://www.w3.org/2000/svg"><path d="m223.18 235.3a55.341 55.341 0 0 1 4.308-16.628l21.9 10.09-2.148 8.057z" fill="#40632e" transform="translate(-218.202 -173.358)"/><path d="m272.764 138.772a55.171 55.171 0 0 1 13.008-11.094l12.206 20.8-6.3 5.311z" fill="#5da534" transform="translate(-245.848 -122.624)"/><path d="m249.058 177.074 22.586 8.493a55.518 55.518 0 0 1 -8.746 14.5l-18.05-16.039z" fill="#358436" transform="translate(-230.283 -150.165)"/><path d="m236.882 332.1-.813-8.2-24.031-2.433a55.129 55.129 0 0 0 1.6 17.117z" fill="#0066a2" transform="translate(-211.928 -230.673)"/><path d="m257.009 431.144 14.938-18.95-5.4-6.053-20.768 12.259a55.224 55.224 0 0 0 11.23 12.744z" fill="#032953" transform="translate(-230.802 -277.884)"/><path d="m225.794 371.426 2.661 7.509 23.889-3.526a55.086 55.086 0 0 0 -5.554-15.894z" fill="#004374" transform="translate(-219.659 -251.887)"/><path d="m236.261 292.636a55.453 55.453 0 0 0 3.1-16.415l-24.18.038c-.51 2.613-1 5.137-1.513 7.752z" fill="#0895c0" transform="translate(-212.899 -205.446)"/><path d="m357.25 389.139c3.229 1.211 11.706 7.571 13.787 10.363l-17.719 16.255-6.7-5.055z" fill="#c0761e" transform="translate(-287.024 -268.405)"/><path d="m387.656 437.8 11.407-21.424 7.874 2.462c-.926 7.888-1.866 15.9-2.814 23.968a55.764 55.764 0 0 1 -16.467-5.006z" fill="#e0541c" transform="translate(-309.907 -283.591)"/><path d="m297.836 270.472 22.272 9.382c-.534 2.675-1.058 5.3-1.609 8.055l-24.127-.656a55.752 55.752 0 0 1 3.464-16.781z" fill="#f5a10f" transform="translate(-257.896 -202.241)"/><path d="m296.237 328.377 22.323-8.921c1.473 2.506 3.45 12.623 3.3 16.832l-24.087.147z" fill="#c6891d" transform="translate(-258.935 -229.553)"/><path d="m328.965 363.928 3.6 7.453-19.406 14.2c-2.176-2.329-6.6-11.453-7.444-15.355z" fill="#ee841d" transform="translate(-264.222 -254.348)"/><path d="m508.072 149.641 7.718 3.207c-1.734 7.785-3.486 15.658-5.247 23.568a55.369 55.369 0 0 1 -15.841-6.659z" fill="#c0086a" transform="translate(-369.592 -134.87)"/><path d="m562.2 182.092-18.266 15.784-6.424-4.975 11.368-21.253a54.6 54.6 0 0 1 13.322 10.444z" fill="#75112b" transform="translate(-393.462 -147.14)"/><path d="m582.145 224.678 3.526 7.262-19.371 14.38a54.759 54.759 0 0 1 -7.394-15.207z" fill="#a80f26" transform="translate(-405.386 -176.708)"/><path d="m598.44 271.178a55.279 55.279 0 0 1 .33 16.773l-23.836-3.843c-.041-2.667-.082-5.287-.123-7.957z" fill="#d10f22" transform="translate(-414.258 -202.634)"/><path d="m560.592 326.686 23.536 5.386 3.184-7.262-19.925-13.6a55.107 55.107 0 0 0 -6.795 15.476z" fill="#d82a21" transform="translate(-406.329 -224.955)"/><g fill="#474645"><path d="m459.865 448.929-.2-23.373 2.495-.021.181 20.906 15.285-.132.022 2.467z" transform="translate(-350.055 -288.698)"/><path d="m534.65 430.566-4.477-3.935-7.9 4.014-1.078-2.122 7.082-3.6-11.2-9.944 2.279 23.354-2.352 1.2-2.504-24.947 3.81-1.936 18.743 16.695z" transform="translate(-380.63 -281.513)"/><path d="m565.6 387.642-4.043 4.694-1.826-1.572 3.987-4.628c2.284-2.652 1.931-4.658.3-6.062l-.608-.524c-2.194-1.89-4.23-1.374-7.637 2.581l-1.515 1.76-1.737-1.5 1.76-2.042c2.995-3.477 3.029-5.452 1.443-6.818l-.565-.487c-1.869-1.61-3.7-1.026-5.9 1.537l-5.672 6.584 10.474 9.022-1.609 1.868-12.342-10.632 7.337-8.517c3.051-3.541 6.032-4.759 9.29-1.952l.609.525a4.6 4.6 0 0 1 1.451 5.3 5.232 5.232 0 0 1 6.366.827l.587.506c2.712 2.342 3.427 5.38-.15 9.53z" transform="translate(-394.907 -257.403)"/><path d="m406.07 320.234c-5.22 3.155-7.542 6.166-7.542 9.549 0 2.525 2.209 4.992 7.571 4.992h5.822v2.552h-5.965c-7.284 0-10.095-3.557-10.095-7.514 0-3.556 1.778-6.567 5.649-9.521l-2.608-7.2 2.58-.976 2.322 6.6a87.076 87.076 0 0 1 9.981-5.306l1 2.408a88.77 88.77 0 0 0 -8.715 4.416zm6.338 4.3-1.09-1.949 1.921-1.09 1.118 1.921zm4.531-1.347-1.118-1.921 1.921-1.118 1.118 1.921z" transform="translate(-314.481 -225.46)"/><path d="m472.107 382.236-.545-2.552c5.936-.66 8.661-3.47 8.661-9.694 0-6.6-2.9-9.692-7.8-9.692-6.022 0-8.948 4.732-9.608 8.516v1.692h-2.552v-13.162h2.552v6.738a10.109 10.109 0 0 1 9.666-6.452c5.878 0 10.411 3.413 10.411 12.36-.001 7.572-3.644 11.328-10.785 12.246z" transform="translate(-350.389 -250.677)"/><path d="m364.588 161.357c-7.844 0-11.659-7.58-11.659-15.635v-29.466h4.823v28.989c0 6.519 2.6 10.6 5.936 10.6l9.06-9.06 3.34 3.443zm26.977-19.823c-.584-4.45-1.59-10.7-2.544-13.406l4.556-1.009a78.723 78.723 0 0 1 2.756 13.835z" transform="translate(-290.545 -116.256)"/><path d="m432.77 257.825-.29-4.288c13.058 0 20.526-4.144 20.526-10.7 0-5.783-3.807-9.154-12.577-9.154a33.237 33.237 0 0 0 -14.6 4.045l-1.975-3.467 18.6-13.779v-.146h-24.524v-4.336h31.413l1.157 3.614-17.2 12v.191a29.24 29.24 0 0 1 9.442-1.686c8.479 0 14.984 4.145 14.984 12.671 0 9.736-9.395 15.035-24.956 15.035z" transform="translate(-326.787 -171.872)"/></g></svg>