<svg xmlns="http://www.w3.org/2000/svg" width="335" height="267" viewBox="0 0 335 267">
  <g id="グループ_896" data-name="グループ 896" transform="translate(-120 -1118)">
    <g id="グループ_91" data-name="グループ 91" transform="translate(276.585 1221.118)">
      <path id="パス_116" data-name="パス 116" d="M249.84,6.274a3.187,3.187,0,1,0-3.877-2.3A3.186,3.186,0,0,0,249.84,6.274Z" transform="translate(-161.571 0)" fill="#d89300"/>
      <path id="パス_117" data-name="パス 117" d="M167.638,222.955l-.262,2.745a7.43,7.43,0,0,1,1.19.959,7.343,7.343,0,1,1-12.328,6.9l-1.441,3.177a9.869,9.869,0,1,0,12.841-13.777Z" transform="translate(-76.419 -208.477)" fill="#d89300"/>
      <path id="パス_118" data-name="パス 118" d="M84.8,131.8c2.79-.031,4.109-1.2,4.4-3.9L90,119.421a2.448,2.448,0,0,0-2.161-2.814,3.224,3.224,0,0,0-2.476.989l-3.98,3.917-4.164.35a1.292,1.292,0,0,0-1.184,1.287v.078a1.292,1.292,0,0,0,1.292,1.292H82.24l2.234-1.649L84.1,127l-5.441.4a2.841,2.841,0,0,0-2.87,2.114l-2.568,7.054a1.718,1.718,0,0,0,3.134,1.409l2.894-6.18H84.8Z" transform="translate(0 -109.026)" fill="#d89300"/>
    </g>
    <g id="グループ_905" data-name="グループ 905">
      <rect id="長方形_79" data-name="長方形 79" width="335" height="267" transform="translate(120 1118)" fill="#fff"/>
      <path id="パス_12441" data-name="パス 12441" d="M-62.93,0h6.944V-1.736H-58.24c-.476,0-1.162.056-1.68.112,1.89-1.848,3.444-3.864,3.444-5.74a3.039,3.039,0,0,0-3.262-3.192,4.2,4.2,0,0,0-3.29,1.568l1.12,1.12A2.684,2.684,0,0,1-60-8.932a1.486,1.486,0,0,1,1.554,1.68c0,1.6-1.666,3.542-4.48,6.062Zm12.894.2c2.1,0,3.5-1.848,3.5-5.418s-1.4-5.334-3.5-5.334-3.514,1.75-3.514,5.334S-52.15.2-50.036.2Zm0-1.61c-.9,0-1.568-.9-1.568-3.808s.672-3.738,1.568-3.738,1.554.84,1.554,3.738S-49.154-1.414-50.036-1.414ZM-44.2,0h6.944V-1.736h-2.254c-.476,0-1.162.056-1.68.112,1.89-1.848,3.444-3.864,3.444-5.74a3.039,3.039,0,0,0-3.262-3.192A4.2,4.2,0,0,0-44.3-8.988l1.12,1.12a2.684,2.684,0,0,1,1.9-1.064,1.486,1.486,0,0,1,1.554,1.68c0,1.6-1.666,3.542-4.48,6.062Zm12.6.2c1.974,0,3.64-1.106,3.64-3.01A2.589,2.589,0,0,0-30.03-5.362v-.07A2.454,2.454,0,0,0-28.294-7.8c0-1.778-1.358-2.758-3.36-2.758a4.6,4.6,0,0,0-3.108,1.274l1.05,1.26a2.956,2.956,0,0,1,1.96-.924,1.238,1.238,0,0,1,1.386,1.3c0,.924-.616,1.582-2.52,1.582v1.484c2.254,0,2.856.63,2.856,1.652,0,.924-.714,1.442-1.764,1.442A3.291,3.291,0,0,1-34.1-2.548l-.966,1.3A4.4,4.4,0,0,0-31.6.2Zm10.01-3.556V-5.488h2.422V-3.36Zm8.932,0h-4.788V-5.488h3.7v-1.54h-3.7v-1.68h4.018v-1.61h-7.91a8.938,8.938,0,0,0,.462-1.148l-1.694-.434a10.8,10.8,0,0,1-2.94,4.662A12.885,12.885,0,0,1-24.066-6.16a12.582,12.582,0,0,0,1.9-2.548h3v1.68h-4.088V-3.36h-2.212v1.6h6.3v3h1.722v-3h4.788Zm14.77-7.882H-9.954v1.4H2.114ZM-5.082-.994H-3.01v.616H-5.082Zm-.812-5.138A7.988,7.988,0,0,1-7.462-4.256c.07-.672.1-1.3.112-1.876Zm5.8-1.96v.756H-7.35v-.756Zm-4.4,2.772c.154-.252.294-.518.42-.77l-.14-.042h1.68c-.1.266-.238.546-.364.812ZM-3.01-3.612H-5.082V-4.2H-3.01Zm0,1.582H-5.082v-.56H-3.01ZM2.24-.378H-1.442V-.994H1.5V-2.03h-2.94v-.56H1.5V-3.612h-2.94V-4.2h3.29V-5.32H-1.26c.182-.266.378-.532.56-.812H1.54V-9.3H-9v2.758c0,1.89-.126,4.606-1.568,6.51a6.081,6.081,0,0,1,1.4.966A9.185,9.185,0,0,0-7.644-2.9c.182.224.364.462.462.616.168-.126.35-.266.518-.42v3.92h1.582V.784H2.24Zm9.912-4.06V-6.16h2.954v1.722Zm-4.354,0c.028-.518.042-1.022.042-1.47V-6.16h2.632v1.722Zm2.674-4.9v1.624H7.84V-9.338Zm4.634,1.624H12.152V-9.338h2.954Zm1.652-3.206H6.188v5c0,1.96-.126,4.452-1.652,6.132A6.15,6.15,0,0,1,5.852,1.288,8.017,8.017,0,0,0,7.616-2.87h2.856V1.036h1.68V-2.87h2.954v2.1c0,.252-.1.336-.364.336s-1.176.014-1.96-.028a6.294,6.294,0,0,1,.532,1.6A6.5,6.5,0,0,0,16,.84c.56-.252.756-.7.756-1.6Zm6.874,5.95L23.38-6.006c-1.288.5-2.632,1.022-3.514,1.3L20.65-3.36c.756-.336,1.68-.77,2.562-1.2l.168.966c1.344-.1,3.052-.224,4.746-.378a5.42,5.42,0,0,1,.294.7l1.26-.56A5.784,5.784,0,0,0,29.2-4.844,15.446,15.446,0,0,1,31.43-3.318l1.2-.994A17.791,17.791,0,0,0,29.708-6.1l-.854.686c-.224-.336-.476-.672-.7-.966l-1.176.49c.168.238.35.49.5.756l-1.442.07a34.038,34.038,0,0,0,2.6-2.73l-1.3-.6c-.35.5-.784,1.064-1.274,1.638-.21-.168-.448-.336-.7-.518.406-.476.868-1.05,1.3-1.61L26.362-9h5.8v-1.484H27.1v-1.358H25.4v1.358H20.468V-9h4.578c-.2.35-.42.728-.658,1.078l-.336-.21-.644.784a13.96,13.96,0,0,0-2.016-1.33l-1.106.91a11.032,11.032,0,0,1,2.1,1.54l1.022-.854a16.892,16.892,0,0,1,1.764,1.3c-.266.266-.532.532-.8.784ZM30.1-6.384a20.659,20.659,0,0,0,2.156-1.722L30.772-8.82a12.719,12.719,0,0,1-1.89,1.778Zm-3,2.674H25.4v.9H20.02v1.54H25.4V1.218H27.1V-1.274h5.488v-1.54H27.1Zm10.99,2.282V-3.08h6.482v1.652ZM44.576-6.3v1.652H38.094V-6.3Zm0-3.178v1.61H38.094v-1.61ZM36.414-11.1V1.064h1.68V.2h6.482v.868H46.34V-11.1ZM59.3-9.31h-.756v-.658H59.3ZM61.25-6.958h-.826V-8.106h.826ZM56.672-8.106H57.4v1.148h-.728Zm2.632,0v1.148h-.77V-8.106Zm-2.058-1.2H55.314v3.556h7.364V-9.31H60.592v-.658h2.436V-11.3h-8.12v1.33h2.338Zm5.068,5.264v-1.2H55.748v1.2Zm-7.266-.182c-.224-.392-1.26-2-1.652-2.548v-.658h1.386v-1.54H53.4v-2.884H51.884v2.884H50.2v1.54h1.554a14,14,0,0,1-1.876,4.69,7.988,7.988,0,0,1,.728,1.47,11.81,11.81,0,0,0,1.274-2.758V1.2H53.4V-4.76c.308.63.616,1.288.8,1.722Zm1.19,2.17A7.094,7.094,0,0,1,54.306-.112,6.973,6.973,0,0,1,55.328.9a9,9,0,0,0,2.184-2.24Zm6.832-.1V-3.5H54.838v1.344H58.17v1.89c0,.126-.042.154-.21.168a8.754,8.754,0,0,1-1.022-.014,5.2,5.2,0,0,1,.434,1.344,4.219,4.219,0,0,0,1.778-.224c.448-.238.56-.6.56-1.26v-1.9Zm-2.94.91A13.563,13.563,0,0,1,61.922.9L63.168.028A12.817,12.817,0,0,0,61.32-2.03Z" transform="translate(288 1159)"/>
      <g id="グループ_891" data-name="グループ 891" transform="translate(-709 183)">
        <path id="パス_12435" data-name="パス 12435" d="M1.354-21.111A5.956,5.956,0,0,1,3.3-25.541a6.474,6.474,0,0,1,4.588-1.881,6.347,6.347,0,0,1,4.605,1.9,6.058,6.058,0,0,1,1.934,4.5A6.078,6.078,0,0,1,12.5-16.506,6.44,6.44,0,0,1,7.84-14.625a6.259,6.259,0,0,1-4.588-1.916A6.268,6.268,0,0,1,1.354-21.111Zm3.059.053a3.4,3.4,0,0,0,1.02,2.5,3.374,3.374,0,0,0,2.479,1.02,3.333,3.333,0,0,0,2.443-1.02,3.353,3.353,0,0,0,1.02-2.461,3.333,3.333,0,0,0-1.02-2.443,3.353,3.353,0,0,0-2.461-1.02,3.353,3.353,0,0,0-2.461,1.02A3.293,3.293,0,0,0,4.412-21.059Zm18.9-6.557,1.916,1.09L9.686.439,7.752-.721ZM18.527-6.24a5.937,5.937,0,0,1,1.951-4.412,6.474,6.474,0,0,1,4.588-1.881,6.367,6.367,0,0,1,4.623,1.9,6.058,6.058,0,0,1,1.934,4.5,6.015,6.015,0,0,1-1.951,4.518A6.433,6.433,0,0,1,25.014.246a6.288,6.288,0,0,1-4.588-1.9A6.251,6.251,0,0,1,18.527-6.24Zm3.076.07a3.425,3.425,0,0,0,1,2.5,3.374,3.374,0,0,0,2.479,1.02,3.3,3.3,0,0,0,2.443-1.02,3.353,3.353,0,0,0,1.02-2.461A3.353,3.353,0,0,0,27.527-8.6a3.316,3.316,0,0,0-2.461-1.02A3.333,3.333,0,0,0,22.623-8.6,3.313,3.313,0,0,0,21.6-6.17Z" transform="translate(1053 1112)" fill="#d89300"/>
        <path id="パス_12434" data-name="パス 12434" d="M25.879-35.01v-9.717q7.227,0,9.717-1.611,4.443-2.832,4.443-9.082a10.3,10.3,0,0,0-3.223-7.861,11.358,11.358,0,0,0-8.252-3.076q-4.736,0-7.324,2.295-2.49,2.344-3.711,7.91H6.2q1.758-10.645,7.227-15.6t15.283-4.956q9.912,0,16.162,5.859a19.542,19.542,0,0,1,6.25,14.99q0,10.352-8.2,16.113,9.375,5.518,9.375,17.92,0,10.156-6.836,16.6T27.93,1.221q-13.623,0-20.215-10.01Q4.98-12.988,4.248-20.41H15.234a13.359,13.359,0,0,0,4.272,8.374,13.151,13.151,0,0,0,8.862,2.905A12.289,12.289,0,0,0,37.5-12.793a13.185,13.185,0,0,0,3.613-9.521q0-7.617-5.42-10.84Q32.52-35.01,25.879-35.01ZM70.361-5.469a6.475,6.475,0,0,1,2-4.736,6.53,6.53,0,0,1,4.785-2,6.53,6.53,0,0,1,4.785,2,6.53,6.53,0,0,1,2,4.785,6.587,6.587,0,0,1-2,4.834,6.507,6.507,0,0,1-4.785,1.953A6.566,6.566,0,0,1,72.314-.586,6.625,6.625,0,0,1,70.361-5.469ZM111.67-64.746H98.633l6.25-10.645h18.164V0H111.67Z" transform="translate(907 1114)" fill="#d89300"/>
      </g>
      <path id="パス_12442" data-name="パス 12442" d="M5.4-7.68c.072-.108.12-.2.18-.312.132-.24.384-.7.624-1.056L4.812-9.5a5.622,5.622,0,0,1-.444,1.08A10.264,10.264,0,0,1,.6-4.452l1.056.78A12.432,12.432,0,0,0,4.692-6.6H8.448A9.091,9.091,0,0,1,6.624-3.06,9.6,9.6,0,0,1,1.812-.072l1.116,1a10.8,10.8,0,0,0,4.8-3.312A11.877,11.877,0,0,0,9.84-6.468a4.107,4.107,0,0,1,.336-.732l-.984-.6a2.818,2.818,0,0,1-.9.12ZM8.484-9.372a14.323,14.323,0,0,1,.948,1.656l.792-.336A17.39,17.39,0,0,0,9.252-9.7ZM9.84-9.888a12.044,12.044,0,0,1,.984,1.656l.78-.348a14.185,14.185,0,0,0-1-1.632ZM15,.4a6.742,6.742,0,0,0,2.136-3.36,26.289,26.289,0,0,0,.372-5.124,8.982,8.982,0,0,1,.06-.96H16.176a3.74,3.74,0,0,1,.1.972,20.807,20.807,0,0,1-.348,4.788A5.645,5.645,0,0,1,13.86-.372Zm5.172,0a2.5,2.5,0,0,1,.456-.3,12.585,12.585,0,0,0,4.08-3.312l-.72-1.032a8.442,8.442,0,0,1-3.264,2.76V-8.124a7.227,7.227,0,0,1,.06-.96H19.392a8.8,8.8,0,0,1,.072.96v7.1a3.461,3.461,0,0,1-.084.756Zm7.4-4.272c.4-.024,1.1-.048,1.776-.048H35.88c.528,0,1.068.036,1.332.048V-5.352c-.288.024-.756.072-1.344.072H29.352c-.648,0-1.392-.036-1.776-.072Zm21.7-4.08a.74.74,0,0,1-.744-.744.748.748,0,0,1,.744-.744.75.75,0,0,1,.756.744A.743.743,0,0,1,49.272-7.956Zm-7.668-.4a10.856,10.856,0,0,1-1.3-.084V-7.1c.3-.012.78-.036,1.3-.036H47.5A8.4,8.4,0,0,1,46-3.456,7.974,7.974,0,0,1,41.3-.6L42.336.528A9.333,9.333,0,0,0,47.1-2.724a12.014,12.014,0,0,0,1.8-4.4l.06-.228a1.308,1.308,0,0,0,.312.036A1.383,1.383,0,0,0,50.664-8.7a1.391,1.391,0,0,0-1.392-1.38,1.388,1.388,0,0,0-1.38,1.38,1.489,1.489,0,0,0,.036.324,3.8,3.8,0,0,1-.5.024ZM54.72-5.724A14.541,14.541,0,0,0,58.032-9a15.706,15.706,0,0,0,3.456,3.276Zm3.912,3.612h3.492v-.972H58.632V-4.74h3v-.888a15.029,15.029,0,0,0,1.32.84,6.543,6.543,0,0,1,.732-.984A14.2,14.2,0,0,1,58.548-10.1h-1.14A13.661,13.661,0,0,1,52.5-5.64a4.4,4.4,0,0,1,.708.9,14.16,14.16,0,0,0,1.38-.888v.888h2.868v1.656H54.024v.972h3.432v1.74h-4.4V.636H63.18V-.372H58.632Zm9.54-7.9a13.452,13.452,0,0,1-2.544,4.62,7,7,0,0,1,.624,1.128c.3-.36.588-.744.888-1.176V.924h1.068V-7.284a19.164,19.164,0,0,0,1.008-2.424Zm8.52,3.288V-7.776H73.26v-2.232H72.168v2.232H68.952V-6.72H71.58a12.152,12.152,0,0,1-3.156,4.98,4.123,4.123,0,0,1,.792.852A13.54,13.54,0,0,0,72.168-5.8v3.612H70.38v1.008h1.788V.876H73.26V-1.176h1.776V-2.184H73.26V-5.868A13.961,13.961,0,0,0,76.128-.924a4.285,4.285,0,0,1,.852-.888,12.069,12.069,0,0,1-3.1-4.908Z" transform="translate(249 1198)" fill="#d89300"/>
      <g id="グループ_890" data-name="グループ 890" transform="translate(-774 190)">
        <path id="パス_12436" data-name="パス 12436" d="M9.268-3.957H19.656V0H.921L10.6-11.725Q12.032-13.478,13-14.76a23.072,23.072,0,0,0,1.472-2.15,6.043,6.043,0,0,0,1.03-3.053,4.352,4.352,0,0,0-1.373-3.27,4.713,4.713,0,0,0-3.4-1.319q-4.228,0-4.842,5H1.7Q2.71-28.364,10.6-28.364A9,9,0,0,1,17-25.943a7.863,7.863,0,0,1,2.6,6,9.112,9.112,0,0,1-1.21,4.462,21.862,21.862,0,0,1-1.8,2.7q-1.183,1.563-2.99,3.695ZM26.034-2.023a2.4,2.4,0,0,1,.741-1.752,2.416,2.416,0,0,1,1.771-.741,2.416,2.416,0,0,1,1.771.741,2.416,2.416,0,0,1,.741,1.771,2.437,2.437,0,0,1-.741,1.789,2.408,2.408,0,0,1-1.771.723,2.429,2.429,0,0,1-1.789-.723A2.451,2.451,0,0,1,26.034-2.023ZM43.522-3.957H53.91V0H35.175l9.684-11.725q1.427-1.752,2.394-3.035a23.072,23.072,0,0,0,1.472-2.15,6.043,6.043,0,0,0,1.03-3.053,4.352,4.352,0,0,0-1.373-3.27,4.713,4.713,0,0,0-3.4-1.319q-4.228,0-4.842,5H35.952q1.012-8.816,8.907-8.816a9,9,0,0,1,6.4,2.421,7.863,7.863,0,0,1,2.6,6,9.112,9.112,0,0,1-1.21,4.462,21.862,21.862,0,0,1-1.8,2.7q-1.183,1.563-2.99,3.695Z" transform="translate(1078 1160)" fill="#939393"/>
        <path id="パス_12437" data-name="パス 12437" d="M-5.886-8.21a2.316,2.316,0,0,1,.759-1.723,2.518,2.518,0,0,1,1.784-.731,2.468,2.468,0,0,1,1.791.738A2.356,2.356,0,0,1-.8-8.176a2.364,2.364,0,0,1-.752,1.757,2.5,2.5,0,0,1-1.812.731,2.434,2.434,0,0,1-1.784-.745A2.438,2.438,0,0,1-5.886-8.21Zm1.189.021a1.32,1.32,0,0,0,.4.971,1.312,1.312,0,0,0,.964.4,1.3,1.3,0,0,0,.95-.4,1.3,1.3,0,0,0,.4-.957,1.3,1.3,0,0,0-.4-.95,1.3,1.3,0,0,0-.957-.4,1.3,1.3,0,0,0-.957.4A1.281,1.281,0,0,0-4.7-8.189Zm7.349-2.55.745.424L-2.646.171-3.4-.28ZM.793-2.427a2.309,2.309,0,0,1,.759-1.716,2.518,2.518,0,0,1,1.784-.731,2.476,2.476,0,0,1,1.8.738,2.356,2.356,0,0,1,.752,1.75A2.339,2.339,0,0,1,5.127-.629,2.5,2.5,0,0,1,3.315.1,2.445,2.445,0,0,1,1.531-.643,2.431,2.431,0,0,1,.793-2.427Zm1.2.027a1.332,1.332,0,0,0,.39.971,1.312,1.312,0,0,0,.964.4,1.282,1.282,0,0,0,.95-.4,1.3,1.3,0,0,0,.4-.957,1.3,1.3,0,0,0-.4-.957,1.29,1.29,0,0,0-.957-.4,1.3,1.3,0,0,0-.95.4A1.288,1.288,0,0,0,1.989-2.4Z" transform="translate(1145 1160)" fill="#939393"/>
        <path id="パス_12443" data-name="パス 12443" d="M6.9-7.98a.907.907,0,0,0-.9-.9.907.907,0,0,0-.9.9.907.907,0,0,0,.9.9A.907.907,0,0,0,6.9-7.98ZM2.04-8.868l-.348.348,3.96,3.96L1.68-.588l.348.348L6-4.212,9.96-.252,10.308-.6,6.348-4.56l3.96-3.96L9.96-8.868,6-4.908ZM2.58-5.46a.907.907,0,0,0-.9.9.907.907,0,0,0,.9.9.907.907,0,0,0,.9-.9A.907.907,0,0,0,2.58-5.46Zm6.84,1.8a.907.907,0,0,0,.9-.9.907.907,0,0,0-.9-.9.907.907,0,0,0-.9.9A.907.907,0,0,0,9.42-3.66ZM5.1-1.14a.907.907,0,0,0,.9.9.907.907,0,0,0,.9-.9.907.907,0,0,0-.9-.9A.907.907,0,0,0,5.1-1.14ZM17.256-8.784a9.123,9.123,0,0,0-2.316-1.224l-.612.828a9.424,9.424,0,0,1,2.28,1.308ZM16.6-5.676a10.469,10.469,0,0,0-2.352-1.1l-.576.864a9.259,9.259,0,0,1,2.316,1.188Zm-.42,1.944a34.066,34.066,0,0,1-2.124,3.8l.96.708a40.318,40.318,0,0,0,2-3.792Zm8.64,4.1a14.349,14.349,0,0,0-2.244-3.444l-.96.5a15.7,15.7,0,0,1,1.116,1.56c-1.248.072-2.508.144-3.636.2.492-.984,1.02-2.22,1.428-3.312h4.068V-5.172h-3.3V-7.164h2.736V-8.22H21.288v-1.848H20.136V-8.22H17.52v1.056h2.616v1.992H16.92v1.056h2.268a23.628,23.628,0,0,1-1.3,3.372l-.96.048L17.088.432c1.632-.12,3.984-.276,6.228-.456a8.5,8.5,0,0,1,.456.984Zm3.672-8.088h7.788v1.7h1.14v-2.76h-4.44v-1.284H31.788v1.284H27.4v2.76h1.092ZM32.964-2.58H36.4V-3.624H32.964V-5.388H35.8V-6.456H29.04v1.068h2.772V-.732a3.435,3.435,0,0,1-1.956-2.112,14.675,14.675,0,0,0,.288-1.572l-1.152-.108c-.252,2.1-.864,3.78-2.184,4.764a6.036,6.036,0,0,1,.924.768,6.109,6.109,0,0,0,1.692-2.5C30.516.4,32.244.792,34.6.792h2.856a3.366,3.366,0,0,1,.42-1.128c-.684.024-2.7.024-3.216.024A12.538,12.538,0,0,1,32.964-.42ZM50.712-9.5H40.536v.948H50.712ZM44.3-.984h2.16v.72H44.3ZM43.968-5.4a7.483,7.483,0,0,1-1.62,2,17.19,17.19,0,0,0,.12-2Zm5.124-1.716v.888H42.468v-.888ZM44.736-4.572a8.756,8.756,0,0,0,.444-.792L45.072-5.4h1.8c-.108.264-.24.552-.384.828Zm1.728,1.464H44.3v-.684h2.16Zm0,1.4H44.3v-.672h2.16ZM50.82-.264H47.508v-.72h2.676V-1.7H47.508v-.672h2.676v-.732H47.508v-.684H50.5v-.78h-2.94c.18-.264.372-.552.552-.828h2.076V-7.956H41.352V-5.6c0,1.668-.12,3.984-1.344,5.64a3.786,3.786,0,0,1,.948.648,7.747,7.747,0,0,0,1.26-3.228,3.9,3.9,0,0,1,.36.444,6.183,6.183,0,0,0,.672-.6V.948H44.3v-.4H50.82Zm8.628-3.408V-5.448h2.9v1.776Zm-3.768,0c.036-.444.048-.888.048-1.3v-.48h2.6v1.776Zm2.652-4.512v1.692h-2.6V-8.184Zm4.02,1.692h-2.9V-8.184h2.9Zm1.116-2.76H54.624V-4.98c0,1.692-.12,3.816-1.428,5.268a3.693,3.693,0,0,1,.876.732,6.883,6.883,0,0,0,1.5-3.636h2.76V.816h1.116V-2.616h2.9V-.468c0,.228-.084.3-.3.3s-1.02.012-1.788-.024a4.611,4.611,0,0,1,.372,1.08A6.569,6.569,0,0,0,62.88.7c.432-.168.588-.5.588-1.152ZM69.54-3.18c1.152-.084,2.628-.192,4.116-.312a5.167,5.167,0,0,1,.312.648l.852-.42a6.017,6.017,0,0,0-.684-1.188,13.861,13.861,0,0,1,2.4,1.572l.828-.7a16.674,16.674,0,0,0-2.64-1.584l-.684.552c-.2-.288-.432-.564-.636-.816l-.8.348c.192.24.4.516.576.792L71.484-4.2c.816-.78,1.68-1.728,2.388-2.556l-.888-.408a18.036,18.036,0,0,1-1.176,1.488c-.228-.18-.5-.384-.78-.576.36-.42.792-.948,1.164-1.44l-.252-.1h5.052v-1.02H72.54v-1.26H71.388v1.26H67.056v1.02h4.032c-.2.348-.468.756-.72,1.1-.12-.072-.216-.132-.324-.192l-.54.624A16.744,16.744,0,0,1,71.2-4.992c-.288.3-.576.588-.84.84l-.756.036.2-.1-.2-.84c-1.1.456-2.244.912-3,1.164l.54.912c.66-.3,1.464-.672,2.244-1.044ZM67-6.792A11.565,11.565,0,0,1,68.832-5.46l.78-.672a9.88,9.88,0,0,0-1.884-1.26ZM75.012-5.58a14.07,14.07,0,0,0,1.92-1.464l-1-.492A11.926,11.926,0,0,1,74.2-6.024ZM72.54-3.228H71.388v.864h-4.7v1.032h4.7V.96H72.54V-1.332h4.8V-2.364h-4.8Z" transform="translate(990.567 1150.93)" fill="#939393"/>
      </g>
    </g>
  </g>
</svg>
